# Blender v2.78 (sub 0) OBJ File: ''
# www.blender.org
o Plane.001
v -13.368458 -1.231870 -16.157333
v 13.790039 -1.231870 -16.157326
v -13.368461 -1.231870 -6.293390
v 13.790036 -1.231870 -6.293381
v 0.161472 -0.382020 -11.225224
v 0.054134 1.211476 -14.713827
v 9.812769 -1.231870 -11.225354
v 0.210788 -1.231870 -7.737927
v -9.391189 -1.231870 -11.225361
v -0.012605 -0.345086 -15.788479
v 12.775264 -1.231870 -11.225353
v 0.862284 0.314554 -6.662331
v -12.353683 -1.231870 -11.225362
v 6.030165 1.933506 -14.105080
v -5.060941 0.271434 -14.104115
v 8.137350 -1.231870 -9.310596
v 8.137351 -1.231870 -13.140114
v -5.061136 -1.231870 -8.346439
v 5.420503 0.102861 -8.346237
v -7.715771 -1.231870 -13.140119
v -7.715772 -1.231870 -9.310602
v 13.535992 -1.231870 -11.225353
v -2.215978 0.409084 -6.381752
v -13.114411 -1.231870 -11.225362
v 6.663702 -1.231870 -13.812350
v -6.420945 1.437387 -16.058983
v -6.242122 -1.231870 -13.812354
v 7.333586 -1.231870 -8.881663
v 7.333588 -1.231870 -13.569048
v -6.242124 -1.231870 -8.638366
v 6.663701 -1.231870 -8.638361
v -6.912007 -1.231870 -13.569053
v -4.644911 -0.153544 -8.883460
v 6.345854 -1.231870 -15.655689
v -5.924272 -1.231870 -15.655694
v 12.408874 -1.231870 -8.997104
v 12.408875 -1.231870 -13.453604
v -3.123594 0.749162 -6.796905
v 6.345851 -1.231870 -6.795021
v -11.987294 -1.231870 -13.453611
v -11.987295 -1.231870 -8.997112
v 2.089466 -1.026804 -13.174780
v 7.118460 -1.231870 -15.141219
v -6.696878 -1.231870 -15.141224
v -1.474816 -0.180490 -13.174397
v 5.594031 0.257853 -10.640707
v 11.569075 0.638582 -8.713567
v 10.992376 -1.231870 -13.734214
v 5.591704 0.173261 -11.809714
v -1.528045 0.329589 -9.275861
v -6.374973 0.794768 -7.309546
v 7.118457 -1.231870 -7.309493
v 2.321476 1.700154 -9.276575
v -5.156012 -1.231870 -11.809859
v -10.570796 -1.231870 -13.734221
v -10.811510 0.911421 -8.715181
v -4.777716 -0.180331 -10.641064
vn -0.0000 0.0538 0.9986
vn 0.0000 1.0000 0.0000
vn -0.2795 0.4474 -0.8495
vn 0.0000 0.0368 -0.9993
vn 0.2754 0.4727 -0.8370
vn 0.3218 0.5021 -0.8027
vn 0.3218 0.5019 0.8028
vn 0.2755 0.4725 0.8372
vn -0.2796 0.4471 0.8496
vn -0.3278 0.4732 0.8177
vn 0.2789 -0.7140 0.6421
vn -0.0658 0.2069 -0.9761
vn 0.0657 0.2150 -0.9744
vn -0.1015 0.2823 -0.9539
vn 0.5782 0.7487 0.3242
vn 0.1456 0.2538 0.9562
vn -0.1463 0.2362 0.9606
vn -0.3677 0.8415 0.3957
vn 0.0407 0.4629 -0.8855
vn 0.7736 0.1114 -0.6238
vn 0.0433 0.4918 0.8696
vn 0.5583 0.8078 0.1890
vn 0.1049 0.1324 0.9856
vn -0.7575 0.6317 0.1647
vn -0.0746 0.8382 -0.5403
vn -0.7603 0.2143 -0.6132
vn -0.0598 0.6724 -0.7378
vn -0.0694 0.4228 -0.9036
vn 0.0788 0.8002 0.5945
vn 0.3830 0.1608 0.9097
vn 0.3091 0.1487 0.9393
vn 0.0451 0.3064 0.9508
vn -0.0304 0.0423 0.9986
vn -0.2872 0.3950 0.8727
vn -0.3846 0.4578 0.8016
vn 0.0726 0.9880 0.1361
vn 0.0726 0.9880 -0.1361
vn -0.0493 0.9787 0.1995
vn 0.2797 0.4465 -0.8499
vn 0.3739 0.5168 -0.7701
vn -0.0732 0.9878 -0.1372
vn -0.2397 0.8607 -0.4492
vn -0.2163 0.8236 -0.5243
vn 0.0956 0.5628 -0.8211
vn 0.0568 0.5339 0.8436
vn -0.0577 0.5130 0.8565
vn -0.1036 0.5681 -0.8164
vn 0.0875 0.5437 -0.8347
vn -0.0037 0.2644 0.9644
vn 0.0640 0.3082 -0.9492
vn 0.1289 0.5291 -0.8387
vn -0.1453 0.4675 0.8720
vn -0.5322 0.4919 -0.6890
vn -0.1453 0.2623 -0.9540
vn 0.0564 0.3281 -0.9430
vn -0.2100 0.6997 -0.6829
vn 0.1337 0.4601 -0.8778
vn 0.1258 0.9920 -0.0030
vn -0.0666 0.7721 0.6320
vn 0.3545 0.8821 0.3102
vn -0.1508 0.5026 0.8513
vn -0.4069 0.5032 0.7623
vn -0.4005 0.8466 -0.3504
vn -0.1441 0.5300 -0.8356
vn 0.3383 0.8932 -0.2960
vn -0.0873 0.6480 0.7566
vn -0.4475 0.6422 -0.6223
vn -0.2271 0.3229 -0.9188
vn 0.0991 0.5034 -0.8584
vn -0.0508 0.5715 0.8190
vn -0.1305 0.4993 0.8565
vn 0.4271 0.3408 -0.8375
vn -0.0191 0.4753 0.8796
vn -0.1856 0.9155 0.3571
vn 0.4656 0.7857 -0.4074
vn 0.4318 0.3989 0.8090
vn 0.1161 0.6384 0.7609
vn -0.2426 0.9466 0.2123
s off
f 4//1 23//1 3//1
f 3//2 24//2 1//2
f 2//3 25//3 5//3
f 1//4 26//4 2//4
f 5//5 27//5 1//5
f 4//6 28//6 5//6
f 5//7 29//7 2//7
f 3//8 30//8 5//8
f 5//9 31//9 4//9
f 1//10 32//10 5//10
f 5//11 33//11 3//11
f 2//12 34//12 6//12
f 2//2 22//2 4//2
f 6//13 35//13 1//13
f 4//2 36//2 7//2
f 7//2 37//2 2//2
f 3//14 38//14 8//14
f 8//2 39//2 4//2
f 1//2 40//2 9//2
f 9//2 41//2 3//2
f 5//15 42//15 6//15
f 6//16 43//16 2//16
f 1//17 44//17 6//17
f 6//18 45//18 5//18
f 5//19 46//19 7//19
f 7//20 47//20 4//20
f 2//2 48//2 7//2
f 7//21 49//21 5//21
f 5//22 50//22 8//22
f 8//23 51//23 3//23
f 4//2 52//2 8//2
f 8//24 53//24 5//24
f 5//25 54//25 9//25
f 9//2 55//2 1//2
f 3//26 56//26 9//26
f 9//27 57//27 5//27
f 4//2 22//2 11//2
f 11//2 22//2 2//2
f 3//28 23//28 12//28
f 12//29 23//29 4//29
f 1//2 24//2 13//2
f 13//2 24//2 3//2
f 5//30 25//30 14//30
f 14//31 25//31 2//31
f 2//32 26//32 10//32
f 10//33 26//33 1//33
f 1//34 27//34 15//34
f 15//35 27//35 5//35
f 5//36 28//36 16//36
f 16//2 28//2 4//2
f 2//2 29//2 17//2
f 17//37 29//37 5//37
f 5//38 30//38 18//38
f 18//2 30//2 3//2
f 4//39 31//39 19//39
f 19//40 31//40 5//40
f 5//41 32//41 20//41
f 20//2 32//2 1//2
f 3//42 33//42 21//42
f 21//43 33//43 5//43
f 6//44 34//44 10//44
f 10//45 34//45 2//45
f 1//46 35//46 10//46
f 10//47 35//47 6//47
f 7//2 36//2 11//2
f 11//2 36//2 4//2
f 2//2 37//2 11//2
f 11//2 37//2 7//2
f 8//48 38//48 12//48
f 12//49 38//49 3//49
f 4//50 39//50 12//50
f 12//51 39//51 8//51
f 9//2 40//2 13//2
f 13//2 40//2 1//2
f 3//2 41//2 13//2
f 13//2 41//2 9//2
f 6//52 42//52 14//52
f 14//53 42//53 5//53
f 2//54 43//54 14//54
f 14//55 43//55 6//55
f 6//56 44//56 15//56
f 15//57 44//57 1//57
f 5//58 45//58 15//58
f 15//59 45//59 6//59
f 7//60 46//60 16//60
f 16//61 46//61 5//61
f 4//62 47//62 16//62
f 16//63 47//63 7//63
f 7//2 48//2 17//2
f 17//2 48//2 2//2
f 5//64 49//64 17//64
f 17//65 49//65 7//65
f 8//66 50//66 18//66
f 18//67 50//67 5//67
f 3//68 51//68 18//68
f 18//69 51//69 8//69
f 8//70 52//70 19//70
f 19//71 52//71 4//71
f 5//72 53//72 19//72
f 19//73 53//73 8//73
f 9//2 54//2 20//2
f 20//74 54//74 5//74
f 1//2 55//2 20//2
f 20//2 55//2 9//2
f 9//75 56//75 21//75
f 21//76 56//76 3//76
f 5//77 57//77 21//77
f 21//78 57//78 9//78
