<svg xmlns="http://www.w3.org/2000/svg" viewBox="0 0 1651.78 1560.91"><defs><style>.cls-1{fill:#e6e6e6;}.cls-2{fill:#2c3e50;}.cls-3{fill:#fff;}.cls-4{font-size:48px;font-family:Roboto-Light, Roboto;}.cls-5{letter-spacing:-0.01em;}.cls-6{font-size:21px;}.cls-6,.cls-9{font-family:Roboto-Regular, Roboto;}.cls-7{letter-spacing:-0.01em;}.cls-8{fill:#29abe2;}.cls-9{font-size:28px;}.cls-10{letter-spacing:-0.01em;}.cls-11{letter-spacing:-0.01em;}.cls-12{letter-spacing:-0.01em;}.cls-13{letter-spacing:-0.01em;}.cls-14{letter-spacing:-0.01em;}.cls-15{letter-spacing:-0.02em;}.cls-16{letter-spacing:0.01em;}.cls-17{letter-spacing:-0.08em;}.cls-18{font-size:42.75px;font-family:Roboto-Thin, Roboto;}.cls-19{fill:none;stroke:#000;stroke-miterlimit:10;}</style></defs><title>beta</title><g id="Layer_2" data-name="Layer 2"><g id="Layer_4" data-name="Layer 4"><rect class="cls-1" x="642.97" y="1343.75" width="747.79" height="40.91"/><rect class="cls-1" x="951.85" y="1254.15" width="100.23" height="89.96"/><path class="cls-2" d="M90.68,36.09a3.67,3.67,0,0,0,3,1.39,3.63,3.63,0,0,0,3-1.39,6,6,0,0,0,1.11-3.81V21.18h4.48V32.42a8.92,8.92,0,0,1-2.41,6.71,9.32,9.32,0,0,1-12.38,0,8.9,8.9,0,0,1-2.43-6.7V23l4.48-3.6v12.9A5.91,5.91,0,0,0,90.68,36.09Z"/><path class="cls-2" d="M115.52,25.55a6.44,6.44,0,0,1,4.82,2.26,8,8,0,0,1,2.11,5.68,8.14,8.14,0,0,1-2.11,5.72,6.52,6.52,0,0,1-4.94,2.3,5.45,5.45,0,0,1-4.56-2.27v7.08l-4.31,3.58V25.81h4.31v1.72A6.41,6.41,0,0,1,115.52,25.55Zm-4.74,8a4.48,4.48,0,0,0,1,3.08,3.27,3.27,0,0,0,2.54,1.19A3.48,3.48,0,0,0,117,36.63a4.29,4.29,0,0,0,1.12-3.06A4.63,4.63,0,0,0,117,30.44a3.35,3.35,0,0,0-2.62-1.26,3.24,3.24,0,0,0-2.57,1.25A4.71,4.71,0,0,0,110.77,33.56Z"/><path class="cls-2" d="M126.1,21.18h4.48v8.25l7.59-8.25h5.55l-8,8.88,3.82,5.36,4.17,5.85h-5.23l-5.89-7.93-2,2.24v5.69H126.1Z"/><path class="cls-2" d="M150.19,32.65v8.62h-4.31V25.81h4.31v1.72a6,6,0,0,1,4.4-2,5.45,5.45,0,0,1,4.1,1.72,6.37,6.37,0,0,1,1.65,4.6v9.4H156V32.54Q156,29,153.41,29a3.14,3.14,0,0,0-2.26.93A3.65,3.65,0,0,0,150.19,32.65Z"/><path class="cls-2" d="M179.71,33.54a7.65,7.65,0,0,1-2.33,5.66,8.59,8.59,0,0,1-11.7,0,8.07,8.07,0,0,1,0-11.34,8.55,8.55,0,0,1,11.7,0A7.7,7.7,0,0,1,179.71,33.54Zm-12,0a4.43,4.43,0,0,0,1.08,3.09,3.79,3.79,0,0,0,5.52,0,4.43,4.43,0,0,0,1.08-3.09,4.49,4.49,0,0,0-1.08-3.1,3.76,3.76,0,0,0-5.52,0A4.49,4.49,0,0,0,167.69,33.54Z"/><path class="cls-2" d="M190.66,41.28h-4.46l-5.26-15.47h4.46l3,9.34,3-9.34h4.17l3,9.34,3-9.34h4.48l-5.26,15.47h-4.48l-2.85-8.42Z"/><path class="cls-2" d="M212.86,32.65v8.62h-4.31V25.81h4.31v1.72a6,6,0,0,1,4.4-2,5.45,5.45,0,0,1,4.1,1.72,6.37,6.37,0,0,1,1.65,4.6v7.68L218.69,43V32.54q0-3.56-2.62-3.56a3.14,3.14,0,0,0-2.26.93A3.65,3.65,0,0,0,212.86,32.65Z"/><rect class="cls-2" width="62.92" height="62.92" rx="11.64" ry="11.64"/><path d="M48.42,10.9l0,23.9L24.55,10.94,14.24,15.77V28.68l3.89,5.42V46.94L34,62.84H51.73A11.11,11.11,0,0,0,62.83,51.73V25.5Z"/><polygon points="43.34 22.13 45.52 24.31 48.53 24.29 43.34 22.13"/><path class="cls-3" d="M48.78,24.37V10.75H38.19c0,6,4.25,13,9.84,14H42c-2.14,0-4.26,1.4-4.26,3.54v7.88c0,2.69-.38,4.64-1.5,5.83a6.34,6.34,0,0,1-4.9,1.79c-4.31,0-6.6-2.38-6.6-7.15V28.29A3.54,3.54,0,0,0,21,24.75H14.87c5.46-1,9.83-8,9.83-14H14.78V24.37h0V36.44c0,4.79,1.37,8.56,4.42,11.31s7.12,4.13,12.43,4.13A20.62,20.62,0,0,0,40.7,50a13.53,13.53,0,0,0,6-5.4,16.4,16.4,0,0,0,2.1-8.39V24.37Z"/><text class="cls-4" transform="translate(353.78 89.87) rotate(-0.1)">Up<tspan class="cls-5" x="58.15" y="0">K</tspan><tspan x="87.89" y="0">nown Beta</tspan></text><text class="cls-6" transform="translate(353.78 148.37) rotate(-0.1)">Site Map 8/20/15</text><text class="cls-6" transform="translate(378.78 310.22) rotate(-0.1)">Accessible via n<tspan class="cls-7" x="150.24" y="0">a</tspan><tspan x="161.51" y="0">v bar</tspan></text><rect class="cls-8" x="353.58" y="354.64" width="1298.2" height="30.56"/><rect class="cls-2" x="353.58" y="853.11" width="1298.2" height="30.56"/><text class="cls-9" transform="translate(352.58 474.14) rotate(-0.1)">Up<tspan class="cls-5" x="33.87" y="0">K</tspan><tspan x="51.11" y="0">nown.com</tspan></text><text class="cls-6" transform="translate(352.57 522.07) rotate(-0.1)">Sign Up</text><text class="cls-6" transform="translate(352.57 552.07) rotate(-0.1)">Sign In</text><text class="cls-6" transform="translate(851.77 723.01) rotate(-0.1)">Lin<tspan class="cls-10" x="27.98" y="0">k</tspan><tspan x="38.42" y="0">edIn</tspan></text><text class="cls-6" transform="translate(851.77 753.01) rotate(-0.1)">Email</text><text class="cls-9" transform="translate(351.58 675.08) rotate(-0.1)">Explo<tspan class="cls-11" x="68.26" y="0">r</tspan><tspan x="77.48" y="0">e</tspan></text><text class="cls-9" transform="translate(851.77 675.08) rotate(-0.1)">Sign In</text><text class="cls-6" transform="translate(351.57 723.01) rotate(-0.1)">Users</text><text class="cls-9" transform="translate(351.58 1374.55) rotate(-0.1)">Explo<tspan class="cls-11" x="68.26" y="0">r</tspan><tspan x="77.48" y="0">e</tspan></text><text class="cls-6" transform="translate(351.57 1422.48) rotate(-0.1)">Request <tspan class="cls-10" x="81.58" y="0">t</tspan><tspan x="88.23" y="0">o </tspan><tspan class="cls-12" x="105.41" y="0">F</tspan><tspan x="116.8" y="0">ollow</tspan></text><text class="cls-6" transform="translate(651.57 1422.48) rotate(-0.1)">Accept<tspan x="0" y="25.2">Deny</tspan><tspan x="0" y="50.4">Rem</tspan><tspan class="cls-7" x="42.46" y="50.4">o</tspan><tspan class="cls-13" x="54.28" y="50.4">v</tspan><tspan x="64.32" y="50.4">e</tspan></text><text class="cls-6" transform="translate(952.06 1422.48) rotate(-0.1)">Information<tspan x="0" y="25.2">Resume</tspan><tspan x="0" y="50.4">Add</tspan><tspan class="cls-11" x="37.39" y="50.4">r</tspan><tspan x="44.3" y="50.4">ess </tspan><tspan class="cls-14" x="82.28" y="50.4">A</tspan><tspan x="95.86" y="50.4">uth</tspan><tspan x="0" y="75.6">Digest Settings</tspan></text><text class="cls-9" transform="translate(351.59 1075.06) rotate(-0.1)">St<tspan class="cls-11" x="25.76" y="0">r</tspan><tspan x="34.97" y="0">eam</tspan></text><text class="cls-9" transform="translate(651.57 1075.06) rotate(-0.1)">Detail View</text><text class="cls-9" transform="translate(950.06 1075.06) rotate(-0.1)">/u/ pages</text><text class="cls-9" transform="translate(651.57 1374.55) rotate(-0.1)">Connections</text><text class="cls-9" transform="translate(952.06 1374.55) rotate(-0.1)">Settings</text><text class="cls-9" transform="translate(1253.04 1374.55) rotate(-0.1)">/u/cur<tspan class="cls-11" x="78.08" y="0">r</tspan><tspan x="87.29" y="0">ent</tspan></text><text class="cls-6" transform="translate(351.58 1122.99) rotate(-0.1)">Filter<tspan x="0" y="25.2">Submission</tspan><tspan class="cls-15" x="109.63" y="25.2"> </tspan><tspan x="114.42" y="25.2">Tips</tspan><tspan x="0" y="50.4">Connections O</tspan><tspan class="cls-13" x="136.92" y="50.4">v</tspan><tspan x="146.96" y="50.4">e</tspan><tspan class="cls-16" x="158.08" y="50.4">r</tspan><tspan x="165.37" y="50.4">view</tspan><tspan x="0" y="75.6">Candidate Minica</tspan><tspan class="cls-11" x="162.6" y="75.6">r</tspan><tspan x="169.51" y="75.6">ds</tspan><tspan x="0" y="100.8">View Lin</tspan><tspan class="cls-10" x="78.54" y="100.8">k</tspan><tspan x="88.98" y="100.8">edIn</tspan><tspan x="0" y="126">View Resume</tspan></text><text class="cls-6" transform="translate(651.57 1122.99) rotate(-0.1)">Read endorsements<tspan x="0" y="25.2">Endorse/Rem</tspan><tspan class="cls-7" x="127.52" y="25.2">o</tspan><tspan class="cls-13" x="139.34" y="25.2">v</tspan><tspan x="149.38" y="25.2">e</tspan><tspan x="0" y="50.4">Email</tspan><tspan x="0" y="75.6">View Resume</tspan><tspan x="0" y="100.8">View Lin</tspan><tspan class="cls-10" x="78.54" y="100.8">k</tspan><tspan x="88.98" y="100.8">edIn</tspan></text><text class="cls-6" transform="translate(950.06 1122.99) rotate(-0.1)">Connections O<tspan class="cls-13" x="136.92" y="0">v</tspan><tspan x="146.96" y="0">e</tspan><tspan class="cls-16" x="158.08" y="0">r</tspan><tspan x="165.37" y="0">view</tspan><tspan x="0" y="25.2">URL</tspan><tspan x="0" y="50.4">Request </tspan><tspan class="cls-10" x="81.58" y="50.4">t</tspan><tspan x="88.23" y="50.4">o </tspan><tspan class="cls-12" x="105.41" y="50.4">F</tspan><tspan x="116.8" y="50.4">ollow/status</tspan></text><text class="cls-9" transform="translate(1152.68 675.08) rotate(-0.1)"><tspan class="cls-17">F</tspan><tspan class="cls-14" x="13.15" y="0">A</tspan><tspan x="31.27" y="0">Q</tspan></text><text class="cls-9" transform="translate(554.01 675.08) rotate(-0.1)">/u/ pages</text><text class="cls-6" transform="translate(554 723.01) rotate(-0.1)">Request <tspan class="cls-10" x="81.58" y="0">t</tspan><tspan x="88.23" y="0">o </tspan><tspan class="cls-12" x="105.41" y="0">F</tspan><tspan x="116.8" y="0">ollow</tspan></text><text class="cls-18" transform="translate(167.9 385.21)">PUBLIC</text><text class="cls-18" transform="translate(196.13 883.67)">USER</text><line class="cls-19" x1="338.22" y1="464.55" x2="331.85" y2="458.18"/><line class="cls-19" x1="338.22" y1="464.55" x2="331.21" y2="471.55"/><line class="cls-19" x1="338.22" y1="665.55" x2="331.85" y2="659.18"/><line class="cls-19" x1="338.22" y1="665.55" x2="331.21" y2="672.55"/><line class="cls-19" x1="839.22" y1="665.55" x2="832.85" y2="659.18"/><line class="cls-19" x1="839.22" y1="665.55" x2="832.21" y2="672.55"/><line class="cls-19" x1="317.22" y1="1064.55" x2="310.85" y2="1058.18"/><line class="cls-19" x1="317.22" y1="1064.55" x2="310.21" y2="1071.55"/><line class="cls-19" x1="337.22" y1="1064.55" x2="330.85" y2="1058.18"/><line class="cls-19" x1="337.22" y1="1064.55" x2="330.21" y2="1071.55"/><line class="cls-19" x1="337.22" y1="1365.55" x2="330.85" y2="1359.18"/><line class="cls-19" x1="337.22" y1="1365.55" x2="330.21" y2="1372.55"/><line class="cls-19" x1="366.22" y1="303.55" x2="359.85" y2="297.18"/><line class="cls-19" x1="366.22" y1="303.55" x2="359.21" y2="310.55"/><line class="cls-19" x1="1416.39" y1="1119.36" x2="1410.02" y2="1125.73"/><line class="cls-19" x1="1416.39" y1="1119.36" x2="1423.4" y2="1126.37"/><line class="cls-19" x1="1280.21" y1="1554.18" x2="1286.58" y2="1560.55"/><line class="cls-19" x1="1280.21" y1="1554.18" x2="1287.22" y2="1547.18"/><line class="cls-19" x1="865.21" y1="971.18" x2="871.58" y2="977.55"/><line class="cls-19" x1="865.21" y1="971.18" x2="872.22" y2="964.18"/><line class="cls-19" x1="636.22" y1="1067.55" x2="629.85" y2="1061.18"/><line class="cls-19" x1="636.22" y1="1067.55" x2="629.21" y2="1074.55"/><line class="cls-19" x1="876.22" y1="1067.55" x2="869.85" y2="1061.18"/><line class="cls-19" x1="876.22" y1="1067.55" x2="869.21" y2="1074.55"/><line class="cls-19" x1="903.22" y1="1067.55" x2="896.85" y2="1061.18"/><line class="cls-19" x1="903.22" y1="1067.55" x2="896.21" y2="1074.55"/><line class="cls-19" x1="932.22" y1="1067.55" x2="925.85" y2="1061.18"/><line class="cls-19" x1="932.22" y1="1067.55" x2="925.21" y2="1074.55"/><line class="cls-19" x1="651.03" y1="1039.37" x2="657.4" y2="1033"/><line class="cls-19" x1="651.03" y1="1039.37" x2="644.02" y2="1032.36"/><line class="cls-19" x1="353.03" y1="1039.37" x2="359.4" y2="1033"/><line class="cls-19" x1="353.03" y1="1039.37" x2="346.02" y2="1032.36"/><line class="cls-19" x1="951.03" y1="1039.37" x2="957.4" y2="1033"/><line class="cls-19" x1="951.03" y1="1039.37" x2="944.02" y2="1032.36"/><line class="cls-19" x1="613.22" y1="1362.55" x2="606.85" y2="1356.18"/><line class="cls-19" x1="613.22" y1="1362.55" x2="606.21" y2="1369.55"/><line class="cls-19" x1="635.22" y1="1362.55" x2="628.85" y2="1356.18"/><line class="cls-19" x1="635.22" y1="1362.55" x2="628.21" y2="1369.55"/><line class="cls-19" x1="940.22" y1="1363.55" x2="933.85" y2="1357.18"/><line class="cls-19" x1="940.22" y1="1363.55" x2="933.21" y2="1370.55"/><line class="cls-19" x1="468.78" y1="1067.25" x2="633.78" y2="1067.25"/><line class="cls-19" x1="530.22" y1="666.55" x2="523.85" y2="660.18"/><line class="cls-19" x1="530.22" y1="666.55" x2="523.21" y2="673.55"/><line class="cls-19" x1="463.78" y1="666.25" x2="527.78" y2="666.25"/><line class="cls-19" x1="820.22" y1="665.55" x2="813.85" y2="659.18"/><line class="cls-19" x1="820.22" y1="665.55" x2="813.21" y2="672.55"/><line class="cls-19" x1="738.78" y1="715.25" x2="780.78" y2="715.25"/><line class="cls-19" x1="516.22" y1="545.55" x2="509.85" y2="539.18"/><line class="cls-19" x1="516.22" y1="545.55" x2="509.21" y2="552.55"/><line class="cls-19" x1="449.78" y1="545.25" x2="513.78" y2="545.25"/><line class="cls-19" x1="243.78" y1="1064.25" x2="313.78" y2="1064.25"/><line class="cls-19" x1="516.22" y1="515.55" x2="509.85" y2="509.18"/><line class="cls-19" x1="516.22" y1="515.55" x2="509.21" y2="522.55"/><line class="cls-19" x1="449.78" y1="515.25" x2="513.78" y2="515.25"/><line class="cls-19" x1="816.28" y1="1066.75" x2="816.28" y2="1024.75"/><line class="cls-19" x1="815.78" y1="1025.25" x2="651.78" y2="1025.25"/><line class="cls-19" x1="651.28" y1="1025.75" x2="651.28" y2="1038.75"/><line class="cls-19" x1="800.78" y1="1067.25" x2="873.78" y2="1067.25"/><line class="cls-19" x1="1179.78" y1="1114.25" x2="1227.78" y2="1114.25"/><line class="cls-19" x1="1227.28" y1="1114.75" x2="1227.28" y2="1024.75"/><line class="cls-19" x1="1226.78" y1="1025.25" x2="951.78" y2="1025.25"/><line class="cls-19" x1="951.28" y1="1025.75" x2="951.28" y2="1035.75"/><line class="cls-19" x1="576.78" y1="1165.25" x2="618.78" y2="1165.25"/><line class="cls-19" x1="619.28" y1="1165.75" x2="619.28" y2="1362.75"/><line class="cls-19" x1="468.78" y1="1362.25" x2="612.78" y2="1362.25"/><circle cx="1001.93" cy="1288.19" r="10.31"/><path d="M983.3,1320.75a18.67,18.67,0,1,1,37.34,0Z"/><line class="cls-19" x1="829.78" y1="1362.25" x2="885.78" y2="1362.25"/><line class="cls-19" x1="885.28" y1="1362.75" x2="885.28" y2="1066.75"/><line class="cls-19" x1="1396.78" y1="1360.25" x2="1416.78" y2="1360.25"/><line class="cls-19" x1="1396.78" y1="1371.25" x2="1416.78" y2="1371.25"/><line class="cls-19" x1="1416.28" y1="1360.75" x2="1416.28" y2="970.75"/><line class="cls-19" x1="1415.78" y1="971.25" x2="353.78" y2="971.25"/><line class="cls-19" x1="353.28" y1="971.75" x2="353.28" y2="1035.75"/><line class="cls-19" x1="1416.28" y1="1370.75" x2="1416.28" y2="1553.75"/><line class="cls-19" x1="1415.78" y1="1554.25" x2="912.78" y2="1554.25"/><line class="cls-19" x1="912.28" y1="1554.75" x2="912.28" y2="1362.75"/><line class="cls-19" x1="911.78" y1="1363.25" x2="937.78" y2="1363.25"/><line class="cls-19" x1="437.28" y1="1343.75" x2="437.28" y2="1316.75"/><line class="cls-19" x1="436.78" y1="1317.25" x2="912.78" y2="1317.25"/><line class="cls-19" x1="912.28" y1="1317.75" x2="912.28" y2="1067.75"/><line class="cls-19" x1="911.78" y1="1067.25" x2="930.78" y2="1067.25"/><line class="cls-19" x1="884.78" y1="1067.25" x2="902.78" y2="1067.25"/><line class="cls-19" x1="618.78" y1="1362.25" x2="632.78" y2="1362.25"/><line class="cls-19" x1="780.28" y1="715.75" x2="780.28" y2="665.75"/><line class="cls-19" x1="779.78" y1="665.25" x2="819.78" y2="665.25"/></g></g></svg>