<svg xmlns="http://www.w3.org/2000/svg" viewBox="0 0 1660.78 1918.33"><defs><style>.cls-1{fill:#f2f2f2;}.cls-2{fill:#394f63;}.cls-3{fill:#fff;}.cls-4{font-size:48px;font-family:Roboto-Light, Roboto;}.cls-5{letter-spacing:-0.01em;}.cls-6{font-size:21px;}.cls-6,.cls-8{font-family:Roboto-Regular, Roboto;}.cls-7{fill:#2db9e7;}.cls-8{font-size:28px;}.cls-9{letter-spacing:-0.01em;}.cls-10{letter-spacing:-0.01em;}.cls-11{letter-spacing:-0.01em;}.cls-12{fill:none;stroke:#000;stroke-miterlimit:10;}.cls-13{letter-spacing:0.01em;}.cls-14{letter-spacing:-0.02em;}.cls-15{font-size:42.75px;font-family:Roboto-Thin, Roboto;}.cls-16{letter-spacing:-0.01em;}.cls-17{letter-spacing:-0.06em;}.cls-18{letter-spacing:-0.03em;}</style></defs><title>email-flow</title><g id="Layer_2" data-name="Layer 2"><g id="Layer_1-2" data-name="Layer 1"><rect class="cls-1" x="362.58" y="1718.63" width="1298.2" height="199.7"/><path class="cls-2" d="M90.68,36.09a3.67,3.67,0,0,0,3,1.39,3.63,3.63,0,0,0,3-1.39,6,6,0,0,0,1.11-3.81V21.18h4.48V32.42a8.92,8.92,0,0,1-2.41,6.71,9.32,9.32,0,0,1-12.38,0,8.9,8.9,0,0,1-2.43-6.7V23l4.48-3.6v12.9A5.91,5.91,0,0,0,90.68,36.09Z"/><path class="cls-2" d="M115.52,25.55a6.44,6.44,0,0,1,4.82,2.26,8,8,0,0,1,2.11,5.68,8.14,8.14,0,0,1-2.11,5.72,6.52,6.52,0,0,1-4.94,2.3,5.45,5.45,0,0,1-4.56-2.27v7.08l-4.31,3.58V25.81h4.31v1.72A6.41,6.41,0,0,1,115.52,25.55Zm-4.74,8a4.48,4.48,0,0,0,1,3.08,3.27,3.27,0,0,0,2.54,1.19A3.48,3.48,0,0,0,117,36.63a4.29,4.29,0,0,0,1.12-3.06A4.63,4.63,0,0,0,117,30.44a3.35,3.35,0,0,0-2.62-1.26,3.24,3.24,0,0,0-2.57,1.25A4.71,4.71,0,0,0,110.77,33.56Z"/><path class="cls-2" d="M126.1,21.18h4.48v8.25l7.59-8.25h5.55l-8,8.88,3.82,5.36,4.17,5.85h-5.23l-5.89-7.93-2,2.24v5.69H126.1Z"/><path class="cls-2" d="M150.19,32.65v8.62h-4.31V25.81h4.31v1.72a6,6,0,0,1,4.4-2,5.45,5.45,0,0,1,4.1,1.72,6.37,6.37,0,0,1,1.65,4.6v9.4H156V32.54Q156,29,153.41,29a3.14,3.14,0,0,0-2.26.93A3.65,3.65,0,0,0,150.19,32.65Z"/><path class="cls-2" d="M179.71,33.54a7.65,7.65,0,0,1-2.33,5.66,8.59,8.59,0,0,1-11.7,0,8.07,8.07,0,0,1,0-11.34,8.55,8.55,0,0,1,11.7,0A7.7,7.7,0,0,1,179.71,33.54Zm-12,0a4.43,4.43,0,0,0,1.08,3.09,3.79,3.79,0,0,0,5.52,0,4.43,4.43,0,0,0,1.08-3.09,4.49,4.49,0,0,0-1.08-3.1,3.76,3.76,0,0,0-5.52,0A4.49,4.49,0,0,0,167.69,33.54Z"/><path class="cls-2" d="M190.66,41.28h-4.46l-5.26-15.47h4.46l3,9.34,3-9.34h4.17l3,9.34,3-9.34h4.48l-5.26,15.47h-4.48l-2.85-8.42Z"/><path class="cls-2" d="M212.86,32.65v8.62h-4.31V25.81h4.31v1.72a6,6,0,0,1,4.4-2,5.45,5.45,0,0,1,4.1,1.72,6.37,6.37,0,0,1,1.65,4.6v7.68L218.69,43V32.54q0-3.56-2.62-3.56a3.14,3.14,0,0,0-2.26.93A3.65,3.65,0,0,0,212.86,32.65Z"/><rect class="cls-2" width="62.92" height="62.92" rx="11.64" ry="11.64"/><path d="M48.42,10.9l0,23.9L24.55,10.94,14.24,15.77V28.68l3.89,5.42V46.94L34,62.84H51.73A11.11,11.11,0,0,0,62.83,51.73V25.5Z"/><polygon points="43.34 22.13 45.52 24.31 48.53 24.29 43.34 22.13"/><path class="cls-3" d="M48.78,24.37V10.63H38.19c0,6,4.25,13,9.84,14H42c-2.14,0-4.26,1.52-4.26,3.66v7.88c0,2.69-.38,4.64-1.5,5.83a6.34,6.34,0,0,1-4.9,1.79c-4.31,0-6.6-2.38-6.6-7.15V28.29A3.63,3.63,0,0,0,21,24.63H14.87c5.46-1,9.83-8,9.83-14H14.78V24.37h0V36.44c0,4.79,1.37,8.56,4.42,11.31s7.12,4.13,12.43,4.13A20.62,20.62,0,0,0,40.7,50a13.53,13.53,0,0,0,6-5.4,16.4,16.4,0,0,0,2.1-8.39V24.37Z"/><text class="cls-4" transform="translate(357.79 200.87) rotate(-0.1)">Up<tspan class="cls-5" x="58.15" y="0">K</tspan><tspan x="87.89" y="0">nown Emails</tspan></text><text class="cls-6" transform="translate(357.78 259.37) rotate(-0.1)">Use Case Flows</text><rect class="cls-7" x="362.58" y="365.64" width="1298.2" height="30.56"/><rect class="cls-7" x="362.58" y="1467.6" width="1298.2" height="30.56"/><text class="cls-8" transform="translate(1059.79 1586.14) rotate(-0.1)"><tspan class="cls-9">F</tspan><tspan x="15.19" y="0">ollow Confirmation (inb</tspan><tspan class="cls-9" x="305.91" y="0">o</tspan><tspan x="321.59" y="0">x)</tspan></text><text class="cls-6" transform="translate(1059.78 1634.07) rotate(-0.1)">View St<tspan class="cls-10" x="69.88" y="0">r</tspan><tspan x="76.79" y="0">eam</tspan></text><text class="cls-8" transform="translate(662.58 1787.14) rotate(-0.1)"><tspan class="cls-9">F</tspan><tspan x="15.19" y="0">ollower Request (inb</tspan><tspan class="cls-9" x="269.29" y="0">o</tspan><tspan x="284.98" y="0">x)</tspan></text><text class="cls-6" transform="translate(662.57 1835.07) rotate(-0.1)">Accept<tspan x="0" y="25.2">Deny</tspan></text><text class="cls-8" transform="translate(359.58 1586.14) rotate(-0.1)">/u/ pages</text><text class="cls-6" transform="translate(359.57 1634.07) rotate(-0.1)">Request <tspan class="cls-11" x="81.58" y="0">t</tspan><tspan x="88.23" y="0">o </tspan><tspan class="cls-9" x="105.41" y="0">F</tspan><tspan x="116.8" y="0">ollow</tspan></text><line class="cls-12" x1="1040.22" y1="1575.55" x2="1033.85" y2="1569.18"/><line class="cls-12" x1="1040.22" y1="1575.55" x2="1033.21" y2="1582.55"/><line class="cls-12" x1="1011.78" y1="1575.13" x2="1036.78" y2="1575.13"/><line class="cls-12" x1="649.22" y1="1777.55" x2="642.85" y2="1771.18"/><line class="cls-12" x1="649.22" y1="1777.55" x2="642.21" y2="1784.55"/><line class="cls-12" x1="1012.28" y1="1574.63" x2="1012.28" y2="1828.63"/><line class="cls-12" x1="561.28" y1="1576.63" x2="561.28" y2="1776.63"/><line class="cls-12" x1="748.78" y1="1828.13" x2="1011.78" y2="1828.13"/><line class="cls-12" x1="561.78" y1="1777.13" x2="645.78" y2="1777.13"/><line class="cls-12" x1="502.78" y1="1576.13" x2="561.78" y2="1576.13"/><line class="cls-12" x1="302.22" y1="1576.55" x2="295.85" y2="1570.18"/><line class="cls-12" x1="302.22" y1="1576.55" x2="295.21" y2="1583.55"/><line class="cls-12" x1="84.78" y1="1576.13" x2="301.78" y2="1576.13"/><text class="cls-8" transform="translate(359.58 485.14) rotate(-0.1)">Email Outb<tspan class="cls-9" x="135.75" y="0">o</tspan><tspan x="151.43" y="0">x</tspan></text><text class="cls-8" transform="translate(760.58 485.14) rotate(-0.1)">Add Candidate (inb<tspan class="cls-9" x="237.73" y="0">o</tspan><tspan x="253.41" y="0">x)</tspan></text><text class="cls-6" transform="translate(359.57 533.07) rotate(-0.1)"><tspan class="cls-9">F</tspan><tspan x="11.39" y="0">o</tspan><tspan class="cls-13" x="23.37" y="0">r</tspan><tspan x="30.65" y="0">wa</tspan><tspan class="cls-10" x="57.85" y="0">r</tspan><tspan x="64.76" y="0">d Candidate Email</tspan><tspan x="0" y="25.2">Email Candidate Info</tspan></text><text class="cls-6" transform="translate(760.58 533.07) rotate(-0.1)">Confirm Candidate<tspan class="cls-10" x="0" y="25.2">E</tspan><tspan x="11.74" y="25.2">dit Info</tspan></text><text class="cls-8" transform="translate(760.58 887.14) rotate(-0.1)">Missing Email (inb<tspan class="cls-9" x="228.73" y="0">o</tspan><tspan x="244.41" y="0">x)</tspan></text><text class="cls-6" transform="translate(760.58 935.07) rotate(-0.1)">Reply with add<tspan class="cls-10" x="135.68" y="0">r</tspan><tspan x="142.59" y="0">ess</tspan></text><text class="cls-8" transform="translate(760.58 687.14) rotate(-0.1)">Confirm Candidate (inb<tspan class="cls-9" x="288.05" y="0">o</tspan><tspan x="303.73" y="0">x)</tspan></text><text class="cls-6" transform="translate(760.58 735.07) rotate(-0.1)">Confirm P<tspan class="cls-10" x="93.58" y="0">r</tspan><tspan x="100.49" y="0">e-existing Candidate</tspan><tspan class="cls-10" x="0" y="25.2">E</tspan><tspan x="11.74" y="25.2">dit Info</tspan></text><text class="cls-8" transform="translate(760.58 1087.99) rotate(-0.1)"><tspan class="cls-14">F</tspan><tspan x="15.01" y="0">ailu</tspan><tspan class="cls-10" x="59.27" y="0">r</tspan><tspan x="68.48" y="0">e (inb</tspan><tspan class="cls-9" x="137.77" y="0">o</tspan><tspan x="153.45" y="0">x)</tspan></text><text class="cls-6" transform="translate(760.58 1135.92) rotate(-0.1)">x</text><text class="cls-8" transform="translate(760.58 1188.99) rotate(-0.1)">Al<tspan class="cls-10" x="25.06" y="0">r</tspan><tspan x="34.28" y="0">eady Added (inb</tspan><tspan class="cls-9" x="235.24" y="0">o</tspan><tspan x="250.92" y="0">x)</tspan></text><text class="cls-6" transform="translate(760.58 1236.92) rotate(-0.1)">x</text><text class="cls-8" transform="translate(760.58 1289.99) rotate(-0.1)">User Email Does Not Exist (inb<tspan class="cls-9" x="377.21" y="0">o</tspan><tspan x="392.89" y="0">x)</tspan></text><text class="cls-6" transform="translate(760.58 1337.92) rotate(-0.1)">x</text><text class="cls-8" transform="translate(1160.58 485.14) rotate(-0.1)">Relationship St<tspan class="cls-10" x="186.51" y="0">r</tspan><tspan x="195.73" y="0">ength</tspan></text><text class="cls-6" transform="translate(1160.58 533.07) rotate(-0.1)">Endorse<tspan x="0" y="25.2">Wifi</tspan></text><text class="cls-8" transform="translate(1160.58 627.14) rotate(-0.1)"><tspan class="cls-10">E</tspan><tspan x="15.65" y="0">dit Info &amp; Relationship St</tspan><tspan class="cls-10" x="320.85" y="0">r</tspan><tspan x="330.07" y="0">ength</tspan></text><text class="cls-6" transform="translate(1160.58 675.07) rotate(-0.1)">Endorse<tspan x="0" y="25.2">Wifi</tspan><tspan class="cls-10" x="0" y="50.4">E</tspan><tspan x="11.74" y="50.4">dit Info</tspan><tspan x="0" y="75.6">Upload Resume</tspan></text><text class="cls-15" transform="translate(80.05 396.21)">CANDI<tspan class="cls-16" x="122.59" y="0">D</tspan><tspan class="cls-17" x="150.13" y="0">A</tspan><tspan x="172.96" y="0">TE</tspan><tspan x="141.38" y="51.3">ADD</tspan></text><text class="cls-15" transform="translate(140 1498.17)">FOL<tspan class="cls-18" x="75" y="0">L</tspan><tspan x="95.71" y="0">OW</tspan><tspan x="-42.06" y="51.3">INCOMING</tspan></text><line class="cls-12" x1="748.22" y1="1280.55" x2="741.85" y2="1274.18"/><line class="cls-12" x1="748.22" y1="1280.55" x2="741.21" y2="1287.55"/><line class="cls-12" x1="713.78" y1="1280.13" x2="745.78" y2="1280.13"/><line class="cls-12" x1="748.22" y1="1179.55" x2="741.85" y2="1173.18"/><line class="cls-12" x1="748.22" y1="1179.55" x2="741.21" y2="1186.55"/><line class="cls-12" x1="713.78" y1="1179.13" x2="745.78" y2="1179.13"/><line class="cls-12" x1="748.22" y1="1078.55" x2="741.85" y2="1072.18"/><line class="cls-12" x1="748.22" y1="1078.55" x2="741.21" y2="1085.55"/><line class="cls-12" x1="606.78" y1="527.13" x2="680.78" y2="527.13"/><line class="cls-12" x1="563.78" y1="552.13" x2="680.78" y2="552.13"/><line class="cls-12" x1="681.78" y1="540.13" x2="713.78" y2="540.13"/><line class="cls-12" x1="681.28" y1="527.63" x2="681.28" y2="552.63"/><line class="cls-12" x1="713.78" y1="1078.13" x2="745.78" y2="1078.13"/><line class="cls-12" x1="738.21" y1="825.18" x2="744.58" y2="831.55"/><line class="cls-12" x1="738.21" y1="825.18" x2="745.22" y2="818.18"/><line class="cls-12" x1="748.22" y1="877.55" x2="741.85" y2="871.18"/><line class="cls-12" x1="748.22" y1="877.55" x2="741.21" y2="884.55"/><line class="cls-12" x1="713.78" y1="877.13" x2="745.78" y2="877.13"/><line class="cls-12" x1="748.22" y1="674.55" x2="741.85" y2="668.18"/><line class="cls-12" x1="748.22" y1="674.55" x2="741.21" y2="681.55"/><line class="cls-12" x1="713.78" y1="674.13" x2="745.78" y2="674.13"/><line class="cls-12" x1="1148.22" y1="617.55" x2="1141.85" y2="611.18"/><line class="cls-12" x1="1148.22" y1="617.55" x2="1141.21" y2="624.55"/><line class="cls-12" x1="1113.78" y1="617.13" x2="1145.78" y2="617.13"/><line class="cls-12" x1="1148.22" y1="475.55" x2="1141.85" y2="469.18"/><line class="cls-12" x1="1148.22" y1="475.55" x2="1141.21" y2="482.55"/><line class="cls-12" x1="1056.28" y1="825.63" x2="1056.28" y2="876.63"/><line class="cls-12" x1="1113.28" y1="475.63" x2="1113.28" y2="677.63"/><line class="cls-12" x1="1048.78" y1="475.13" x2="1112.78" y2="475.13"/><line class="cls-12" x1="713.78" y1="825.13" x2="1055.78" y2="825.13"/><line class="cls-12" x1="1040.78" y1="877.13" x2="1055.78" y2="877.13"/><line class="cls-12" x1="1097.78" y1="678.13" x2="1112.78" y2="678.13"/><line class="cls-12" x1="1113.78" y1="475.13" x2="1145.78" y2="475.13"/><line class="cls-12" x1="748.22" y1="475.55" x2="741.85" y2="469.18"/><line class="cls-12" x1="748.22" y1="475.55" x2="741.21" y2="482.55"/><line class="cls-12" x1="714.28" y1="1280.63" x2="714.28" y2="475.63"/><line class="cls-12" x1="713.78" y1="475.13" x2="745.78" y2="475.13"/><line class="cls-12" x1="302.22" y1="475.55" x2="295.85" y2="469.18"/><line class="cls-12" x1="302.22" y1="475.55" x2="295.21" y2="482.55"/><line class="cls-12" x1="84.78" y1="475.13" x2="301.78" y2="475.13"/></g></g></svg>