<svg xmlns="http://www.w3.org/2000/svg" viewBox="0 0 1773.99 1837.45"><defs><style>.cls-1{fill:#e6e6e6;}.cls-2{fill:#f2f2f2;}.cls-3{fill:#ccc;}.cls-4{font-size:28px;}.cls-11,.cls-4{font-family:Roboto-Regular, Roboto;}.cls-5{letter-spacing:-0.01em;}.cls-6{letter-spacing:-0.01em;}.cls-7{letter-spacing:-0.01em;}.cls-8{letter-spacing:-0.01em;}.cls-9{font-size:57.31px;}.cls-10,.cls-9{font-family:Roboto-Light, Roboto;}.cls-10,.cls-11{font-size:21px;}.cls-12{letter-spacing:-0.01em;}.cls-13{letter-spacing:-0.01em;}.cls-14{fill:none;stroke:#000;stroke-miterlimit:10;}.cls-15{font-size:42.75px;}.cls-15,.cls-17{font-family:Roboto-Thin, Roboto;}.cls-16{letter-spacing:-0.03em;}.cls-17{font-size:32.79px;}.cls-18{letter-spacing:0.01em;}.cls-19{letter-spacing:0.01em;}.cls-20{letter-spacing:-0.04em;}.cls-21{letter-spacing:-0.06em;}.cls-22{fill:#2c3e50;}.cls-23{fill:#fff;}</style></defs><title>networks</title><g id="Layer_2" data-name="Layer 2"><g id="Layer_3" data-name="Layer 3"><rect class="cls-1" x="274.72" y="415.59" width="1499.27" height="30.56"/><rect class="cls-2" x="274.72" y="716.09" width="1499.27" height="30.56"/><rect class="cls-1" x="274.72" y="1315.22" width="1499.27" height="30.56"/><rect class="cls-3" x="274.72" y="1615.21" width="1499.27" height="30.56"/><text class="cls-4" transform="translate(672.07 837.96) rotate(-0.1)">Network St<tspan class="cls-5" x="137.31" y="0">r</tspan><tspan x="146.52" y="0">eam</tspan></text><text class="cls-4" transform="translate(1074.04 837.98) rotate(-0.1)"><tspan class="cls-6">A</tspan><tspan x="18.12" y="0">u</tspan><tspan class="cls-7" x="33.55" y="0">t</tspan><tspan x="42.42" y="0">omatic Matches</tspan></text><text class="cls-4" transform="translate(273.72 537.26) rotate(-0.1)">Network.Up<tspan class="cls-8" x="145.85" y="0">K</tspan><tspan x="163.09" y="0">nown.com</tspan></text><text class="cls-9" transform="translate(273.48 204.61) rotate(-0.1)">Networks</text><text class="cls-10" transform="translate(273.48 263.1) rotate(-0.1)">User Flows</text><text class="cls-4" transform="translate(273.49 838) rotate(-0.1)">Network Onboa<tspan class="cls-5" x="193.16" y="0">r</tspan><tspan x="202.37" y="0">ding</tspan></text><text class="cls-4" transform="translate(1460.99 874.96) rotate(-0.1)">Up<tspan class="cls-8" x="33.87" y="0">K</tspan><tspan x="51.11" y="0">nown p</tspan><tspan class="cls-7" x="141.65" y="0">r</tspan><tspan x="150.86" y="0">ofile settings</tspan></text><text class="cls-4" transform="translate(774.07 1735.67) rotate(-0.1)">Access settings</text><text class="cls-11" transform="translate(672.06 886.45) rotate(-0.1)">Filte<tspan class="cls-5" x="39.79" y="0">r</tspan><tspan x="46.7" y="0">ed St</tspan><tspan class="cls-5" x="94.18" y="0">r</tspan><tspan x="101.09" y="0">eam</tspan></text><text class="cls-11" transform="translate(1460.98 912.96) rotate(-0.1)">Non-network connections</text><text class="cls-4" transform="translate(672.07 1086) rotate(-0.1)">Asset Details</text><text class="cls-4" transform="translate(1074.04 1086) rotate(-0.1)">User <tspan class="cls-6" x="63.83" y="0">P</tspan><tspan x="81.35" y="0">age</tspan></text><text class="cls-11" transform="translate(672.06 1128) rotate(-0.1)">Asset Information</text><text class="cls-11" transform="translate(672.06 1157) rotate(-0.1)">Node Information</text><text class="cls-11" transform="translate(1074.03 1124) rotate(-0.1)">Pictu<tspan class="cls-5" x="47.77" y="0">r</tspan><tspan x="54.68" y="0">e</tspan></text><text class="cls-11" transform="translate(1074.03 1152.5) rotate(-0.1)">Contact info</text><text class="cls-11" transform="translate(1074.04 1180.99) rotate(-0.1)">Individual St<tspan class="cls-5" x="113.96" y="0">r</tspan><tspan x="120.87" y="0">eam</tspan></text><text class="cls-11" transform="translate(1074.03 884.7) rotate(-0.1)">Node-<tspan class="cls-7" x="55.71" y="0">t</tspan><tspan x="62.36" y="0">o-node int</tspan><tspan class="cls-7" x="155.41" y="0">r</tspan><tspan x="162.31" y="0">os</tspan></text><text class="cls-11" transform="translate(1074.03 912.42) rotate(-0.1)">Di<tspan class="cls-5" x="18.87" y="0">r</tspan><tspan x="25.78" y="0">ect int</tspan><tspan class="cls-7" x="83.5" y="0">r</tspan><tspan x="90.4" y="0">os</tspan></text><text class="cls-11" transform="translate(1074.03 940.19) rotate(-0.1)"><tspan class="cls-6">A</tspan><tspan x="13.59" y="0">u</tspan><tspan class="cls-7" x="25.16" y="0">t</tspan><tspan x="31.82" y="0">o Int</tspan><tspan class="cls-7" x="73.15" y="0">r</tspan><tspan x="80.05" y="0">os</tspan></text><text class="cls-11" transform="translate(273.48 948.94) rotate(-0.1)"><tspan class="cls-12">P</tspan><tspan x="13.11" y="0">ersonal digest settings</tspan></text><text class="cls-11" transform="translate(273.48 980.13) rotate(-0.1)">Public p<tspan class="cls-7" x="74.77" y="0">r</tspan><tspan x="81.67" y="0">ofile </tspan><tspan class="cls-7" x="127.46" y="0">t</tspan><tspan x="134.11" y="0">oggl</tspan></text><text class="cls-11" transform="translate(273.48 917.65) rotate(-0.1)">Up<tspan class="cls-8" x="25.4" y="0">K</tspan><tspan x="38.33" y="0">nown settings</tspan></text><text class="cls-11" transform="translate(273.48 886.45) rotate(-0.1)">Up<tspan class="cls-8" x="25.4" y="0">K</tspan><tspan x="38.33" y="0">nown onboa</tspan><tspan class="cls-5" x="153.2" y="0">r</tspan><tspan x="160.11" y="0">ding</tspan></text><text class="cls-11" transform="translate(539.92 585.19) rotate(-0.1)">Access Request <tspan class="cls-7" x="155.24" y="0">t</tspan><tspan x="161.9" y="0">o subnetwork admin</tspan></text><text class="cls-11" transform="translate(273.48 1042.59) rotate(-0.1)">Hiring? Add a job.</text><text class="cls-11" transform="translate(273.71 639.23) rotate(-0.1)">Log In</text><text class="cls-11" transform="translate(273.71 585.19) rotate(-0.1)">Request Access</text><text class="cls-11" transform="translate(273.71 611.11) rotate(-0.1)">S<tspan class="cls-7" x="12.46" y="0">t</tspan><tspan x="19.11" y="0">op </tspan><tspan class="cls-5" x="48.07" y="0">r</tspan><tspan x="54.98" y="0">eceiving emails</tspan></text><text class="cls-11" transform="translate(273.48 1779.76) rotate(-0.1)">Global Digest Settings</text><text class="cls-11" transform="translate(774.06 1779.76) rotate(-0.1)">Invite/Add Members</text><text class="cls-11" transform="translate(774.06 1831.76) rotate(-0.1)">C<tspan class="cls-5" x="13.67" y="0">r</tspan><tspan x="20.58" y="0">eate subnetworks and subnetwork admins</tspan></text><text class="cls-11" transform="translate(774.06 1805.82) rotate(-0.1)">User List/Rem<tspan class="cls-13" x="133.08" y="0">o</tspan><tspan class="cls-12" x="144.9" y="0">v</tspan><tspan x="154.94" y="0">e Members</tspan></text><text class="cls-11" transform="translate(273.48 1805.09) rotate(-0.1)">Manage Candidates and Jobs</text><text class="cls-11" transform="translate(273.48 1830.44) rotate(-0.1)">Add Add<tspan class="cls-5" x="79.97" y="0">r</tspan><tspan x="86.88" y="0">ess Settings (whitelist/blacklist)</tspan></text><text class="cls-4" transform="translate(273.49 1437.18) rotate(-0.1)">Email and Content settings</text><text class="cls-4" transform="translate(273.49 1735.67) rotate(-0.1)">Email and Content settings</text><text class="cls-4" transform="translate(774.07 1437.18) rotate(-0.1)">Access settings</text><text class="cls-11" transform="translate(273.48 1481.28) rotate(-0.1)">Channel Digest Settings</text><text class="cls-11" transform="translate(774.06 1481.28) rotate(-0.1)">Invite/Add Members</text><text class="cls-11" transform="translate(774.06 1507.33) rotate(-0.1)">User List/Rem<tspan class="cls-13" x="133.08" y="0">o</tspan><tspan class="cls-12" x="144.9" y="0">v</tspan><tspan x="154.94" y="0">e Members</tspan></text><text class="cls-11" transform="translate(273.48 1506.6) rotate(-0.1)">Manage Candidates and Jobs</text><text class="cls-11" transform="translate(273.48 1531.96) rotate(-0.1)">Add Add<tspan class="cls-5" x="79.97" y="0">r</tspan><tspan x="86.88" y="0">ess Settings (whitelist/blacklist)</tspan></text><text class="cls-11" transform="translate(672.06 915) rotate(-0.1)">Company activity</text><text class="cls-11" transform="translate(672.06 943.51) rotate(-0.1)">Network stats</text><text class="cls-11" transform="translate(672.06 972.09) rotate(-0.1)">Add Job/Candidate</text><text class="cls-11" transform="translate(273.48 1011.38) rotate(-0.1)">Asset pull/push <tspan class="cls-7" x="151.7" y="0">t</tspan><tspan x="158.35" y="0">oggl</tspan></text><line class="cls-14" x1="1326.78" y1="909.25" x2="1205.78" y2="909.25"/><line class="cls-14" x1="1326.78" y1="879.25" x2="1273.78" y2="879.25"/><text class="cls-15" transform="translate(77.99 1648.77)">G<tspan class="cls-16" x="29.35" y="0">L</tspan><tspan x="50.06" y="0">OBAL</tspan><tspan x="20.35" y="51.3">ADMIN</tspan></text><text class="cls-17" transform="translate(13.04 1340.27)">SUBN<tspan class="cls-18" x="84.22" y="0">E</tspan><tspan class="cls-19" x="103.21" y="0">T</tspan><tspan x="123.05" y="0">WORK</tspan><tspan x="115.95" y="39.35">ADMIN</tspan></text><text class="cls-15" transform="translate(89.03 447.15)">PUBLIC</text><text class="cls-15" transform="translate(68.41 748.23)">PRI<tspan class="cls-20" x="64.79" y="0">V</tspan><tspan class="cls-21" x="88.76" y="0">A</tspan><tspan x="111.59" y="0">TE</tspan></text><line class="cls-14" x1="439.78" y1="580.25" x2="520.78" y2="580.25"/><line class="cls-14" x1="539.78" y1="829.25" x2="660.78" y2="829.25"/><line class="cls-14" x1="851.78" y1="1152.25" x2="1023.78" y2="1152.25"/><line class="cls-14" x1="888.78" y1="829.25" x2="1051.78" y2="829.25"/><line class="cls-14" x1="230.35" y1="527.66" x2="223.98" y2="521.29"/><line class="cls-14" x1="230.35" y1="527.66" x2="223.34" y2="534.67"/><line class="cls-14" x1="230.35" y1="826.66" x2="223.98" y2="820.29"/><line class="cls-14" x1="230.35" y1="826.66" x2="223.34" y2="833.67"/><line class="cls-14" x1="718.17" y1="1045.49" x2="724.54" y2="1039.12"/><line class="cls-14" x1="718.17" y1="1045.49" x2="711.16" y2="1038.48"/><line class="cls-14" x1="1148.17" y1="1045.49" x2="1154.54" y2="1039.12"/><line class="cls-14" x1="1148.17" y1="1045.49" x2="1141.16" y2="1038.48"/><line class="cls-14" x1="385.17" y1="789.49" x2="391.54" y2="783.12"/><line class="cls-14" x1="385.17" y1="789.49" x2="378.16" y2="782.48"/><line class="cls-14" x1="1054.35" y1="1078.66" x2="1047.98" y2="1072.29"/><line class="cls-14" x1="1054.35" y1="1078.66" x2="1047.34" y2="1085.67"/><line class="cls-14" x1="661.35" y1="829.66" x2="654.98" y2="823.29"/><line class="cls-14" x1="661.35" y1="829.66" x2="654.34" y2="836.67"/><line class="cls-14" x1="1055.35" y1="829.66" x2="1048.98" y2="823.29"/><line class="cls-14" x1="1055.35" y1="829.66" x2="1048.34" y2="836.67"/><line class="cls-14" x1="1449.35" y1="867.66" x2="1442.98" y2="861.29"/><line class="cls-14" x1="1449.35" y1="867.66" x2="1442.34" y2="874.67"/><line class="cls-14" x1="521.35" y1="580.66" x2="514.98" y2="574.29"/><line class="cls-14" x1="521.35" y1="580.66" x2="514.34" y2="587.67"/><line class="cls-14" x1="1023.28" y1="1152.75" x2="1023.28" y2="1078.75"/><line class="cls-14" x1="1022.78" y1="1079.25" x2="1051.78" y2="1079.25"/><line class="cls-14" x1="1327.28" y1="879.75" x2="1327.28" y2="962.75"/><line class="cls-14" x1="1326.78" y1="963.25" x2="1147.78" y2="963.25"/><line class="cls-14" x1="1148.28" y1="963.75" x2="1148.28" y2="1044.75"/><line class="cls-14" x1="343.78" y1="635.25" x2="384.78" y2="635.25"/><line class="cls-14" x1="385.28" y1="635.75" x2="385.28" y2="785.75"/><line class="cls-14" x1="829.78" y1="879.25" x2="903.78" y2="879.25"/><line class="cls-14" x1="904.28" y1="879.75" x2="904.28" y2="1003.75"/><line class="cls-14" x1="903.78" y1="1003.25" x2="718.78" y2="1003.25"/><line class="cls-14" x1="718.28" y1="1003.75" x2="718.28" y2="1042.75"/><line class="cls-14" x1="255.78" y1="909.25" x2="230.78" y2="909.25"/><line class="cls-14" x1="230.28" y1="908.75" x2="230.28" y2="1237.75"/><line class="cls-14" x1="229.78" y1="1237.25" x2="1419.78" y2="1237.25"/><line class="cls-14" x1="1419.28" y1="1237.75" x2="1419.28" y2="867.75"/><line class="cls-14" x1="1419.78" y1="868.25" x2="1445.78" y2="868.25"/><path class="cls-22" d="M90.68,36.09a3.67,3.67,0,0,0,3,1.39,3.63,3.63,0,0,0,3-1.39,6,6,0,0,0,1.11-3.81V21.18h4.48V32.42a8.92,8.92,0,0,1-2.41,6.71,9.32,9.32,0,0,1-12.38,0,8.9,8.9,0,0,1-2.43-6.7V24.78l4.48-3.6v11.1A5.91,5.91,0,0,0,90.68,36.09Z"/><path class="cls-22" d="M115.52,25.55a6.44,6.44,0,0,1,4.82,2.26,8,8,0,0,1,2.11,5.68,8.14,8.14,0,0,1-2.11,5.72,6.52,6.52,0,0,1-4.94,2.3,5.45,5.45,0,0,1-4.56-2.27v5.28l-4.31,3.58V25.81h4.31v1.72A6.41,6.41,0,0,1,115.52,25.55Zm-4.74,8a4.48,4.48,0,0,0,1,3.08,3.27,3.27,0,0,0,2.54,1.19A3.48,3.48,0,0,0,117,36.63a4.29,4.29,0,0,0,1.12-3.06A4.63,4.63,0,0,0,117,30.44a3.35,3.35,0,0,0-2.62-1.26,3.24,3.24,0,0,0-2.57,1.25A4.71,4.71,0,0,0,110.77,33.56Z"/><path class="cls-22" d="M126.1,21.18h4.48v8.25l7.59-8.25h5.55l-8,8.88,3.82,5.36,4.17,5.85h-5.23l-5.89-7.93-2,2.24v5.69H126.1Z"/><path class="cls-22" d="M150.19,32.65v8.62h-4.31V25.81h4.31v1.72a6,6,0,0,1,4.4-2,5.45,5.45,0,0,1,4.1,1.72,6.37,6.37,0,0,1,1.65,4.6v9.4H156V32.54Q156,29,153.41,29a3.14,3.14,0,0,0-2.26.93A3.65,3.65,0,0,0,150.19,32.65Z"/><path class="cls-22" d="M179.71,33.54a7.65,7.65,0,0,1-2.33,5.66,8.59,8.59,0,0,1-11.7,0,8.07,8.07,0,0,1,0-11.34,8.55,8.55,0,0,1,11.7,0A7.7,7.7,0,0,1,179.71,33.54Zm-12,0a4.43,4.43,0,0,0,1.08,3.09,3.79,3.79,0,0,0,5.52,0,4.43,4.43,0,0,0,1.08-3.09,4.49,4.49,0,0,0-1.08-3.1,3.76,3.76,0,0,0-5.52,0A4.49,4.49,0,0,0,167.69,33.54Z"/><path class="cls-22" d="M190.66,41.28h-4.46l-5.26-15.47h4.46l3,9.34,3-9.34h4.17l3,9.34,3-9.34h4.48l-5.26,15.47h-4.48l-2.85-8.42Z"/><path class="cls-22" d="M212.86,32.65v8.62h-4.31V25.81h4.31v1.72a6,6,0,0,1,4.4-2,5.45,5.45,0,0,1,4.1,1.72,6.37,6.37,0,0,1,1.65,4.6v6l-4.31,3.45V32.54q0-3.56-2.62-3.56a3.14,3.14,0,0,0-2.26.93A3.65,3.65,0,0,0,212.86,32.65Z"/><rect class="cls-22" width="62.92" height="62.92" rx="11.64" ry="11.64"/><path d="M48.42,10.9l0,23.9L24.55,10.94,14.24,15.77V28.68l3.89,5.42V46.94L34,62.84H51.73A11.11,11.11,0,0,0,62.83,51.73V25.5Z"/><polygon points="43.34 22.13 45.52 24.31 48.53 24.29 43.34 22.13"/><path class="cls-23" d="M48.78,24.37V10.75H38.19c0,6,4.25,13,9.84,14H42c-2.14,0-4.26,1.4-4.26,3.54v7.88c0,2.69-.38,4.64-1.5,5.83a6.34,6.34,0,0,1-4.9,1.79c-4.31,0-6.6-2.38-6.6-7.15V28.29A3.54,3.54,0,0,0,21,24.75H14.87c5.46-1,9.83-8,9.83-14H14.78V24.37h0V36.44c0,4.79,1.37,8.56,4.42,11.31s7.12,4.13,12.43,4.13A20.62,20.62,0,0,0,40.7,50a13.53,13.53,0,0,0,6-5.4,16.4,16.4,0,0,0,2.1-8.39V24.37Z"/></g></g></svg>