<svg xmlns="http://www.w3.org/2000/svg" viewBox="0 0 2001 558.19"><defs><style>.cls-1,.cls-4{font-size:21px;}.cls-1,.cls-16{font-family:Roboto-Regular, Roboto;}.cls-2,.cls-25,.cls-3{fill:none;stroke-miterlimit:10;}.cls-2,.cls-3{stroke:#000;}.cls-3{stroke-width:0.64px;}.cls-22,.cls-4{font-family:Roboto-Bold, Roboto;font-weight:700;}.cls-5{letter-spacing:-0.01em;}.cls-6{letter-spacing:-0.03em;}.cls-16,.cls-7{font-size:18px;}.cls-7{font-family:Roboto-Medium, Roboto;}.cls-8{letter-spacing:0.01em;}.cls-9{letter-spacing:-0.03em;}.cls-10{letter-spacing:-0.06em;}.cls-11{letter-spacing:-0.02em;}.cls-12{font-size:59px;font-family:Roboto-Light, Roboto;}.cls-13{letter-spacing:-0.02em;}.cls-14{letter-spacing:-0.01em;}.cls-15{letter-spacing:-0.01em;}.cls-17{letter-spacing:-0.01em;}.cls-18{letter-spacing:-0.02em;}.cls-19{letter-spacing:-0.01em;}.cls-20{letter-spacing:-0.01em;}.cls-21{letter-spacing:-0.01em;}.cls-23{letter-spacing:-0.01em;}.cls-24{letter-spacing:0.02em;}.cls-25{stroke:#ccc;}</style></defs><title>ob-1</title><g id="Layer_2" data-name="Layer 2"><g id="_0_Welcome" data-name="0 Welcome"><text class="cls-1" transform="translate(508.82 56.83)">Candidates</text><text class="cls-1" transform="translate(658.81 56.83)">Connecting</text><text class="cls-1" transform="translate(829.8 56.83)">Adding Candidates</text><text class="cls-1" transform="translate(1066.79 56.83)">Confirming Candidates</text><text class="cls-1" transform="translate(1327.77 56.83)">Endorsements</text><rect class="cls-2" x="0.5" y="0.5" width="2000" height="100.33"/><rect class="cls-3" x="1921.1" y="27.86" width="45.68" height="45.68" rx="2.32" ry="2.32"/><text class="cls-4" transform="translate(1806.57 55.83)">St<tspan class="cls-5" x="20.01" y="0">r</tspan><tspan x="27.47" y="0">eam</tspan></text><text class="cls-4" transform="translate(113.16 56.83)">Onboa<tspan class="cls-5" x="61.22" y="0">r</tspan><tspan x="68.68" y="0">ding!</tspan></text><text class="cls-1" transform="translate(323.15 56.83)"><tspan class="cls-6">Y</tspan><tspan x="11.95" y="0">our St</tspan><tspan class="cls-5" x="67.12" y="0">r</tspan><tspan x="74.03" y="0">eam</tspan></text><circle class="cls-2" cx="1944" cy="43.69" r="8.21"/><path class="cls-2" d="M1944,52.38A13.32,13.32,0,0,0,1930.38,66h27.24A13.32,13.32,0,0,0,1944,52.38Z"/><text class="cls-7" transform="translate(914.6 540.45)">G<tspan class="cls-8" x="12.25" y="0">E</tspan><tspan class="cls-9" x="22.61" y="0">T</tspan><tspan x="33" y="0" xml:space="preserve"> S</tspan><tspan class="cls-10" x="48.35" y="0">T</tspan><tspan x="58.22" y="0">A</tspan><tspan class="cls-11" x="70.2" y="0">R</tspan><tspan x="80.99" y="0">TED</tspan></text><rect class="cls-2" x="890.53" y="512.69" width="161.99" height="45" rx="4.08" ry="4.08"/><text class="cls-12" transform="translate(507.03 275.04)"><tspan class="cls-13">W</tspan><tspan x="52" y="0">elcome </tspan><tspan class="cls-14" x="256.25" y="0">t</tspan><tspan x="274.63" y="0">o Up</tspan><tspan class="cls-15" x="393.5" y="0">K</tspan><tspan x="430.05" y="0">nown!</tspan></text><text class="cls-16" transform="translate(507.03 364.86)">Up<tspan class="cls-15" x="21.77" y="0">K</tspan><tspan x="32.85" y="0">nown is a better w</tspan><tspan class="cls-17" x="178.32" y="0">a</tspan><tspan x="187.98" y="0">y </tspan><tspan class="cls-14" x="200.95" y="0">t</tspan><tspan x="206.66" y="0">o t</tspan><tspan class="cls-18" x="227.26" y="0">r</tspan><tspan x="233" y="0">ack, o</tspan><tspan class="cls-5" x="279.59" y="0">r</tspan><tspan x="285.51" y="0">gani</tspan><tspan class="cls-19" x="319.7" y="0">z</tspan><tspan x="328.48" y="0">e, and sha</tspan><tspan class="cls-5" x="409.32" y="0">r</tspan><tspan x="415.25" y="0">e </tspan><tspan class="cls-20" x="429.24" y="0">v</tspan><tspan x="437.84" y="0">etted job see</tspan><tspan class="cls-14" x="540.76" y="0">k</tspan><tspan x="549.7" y="0">ers with companies in </tspan><tspan class="cls-17" x="728.89" y="0">y</tspan><tspan x="737.28" y="0">our network.</tspan><tspan class="cls-6" x="0" y="31.6">Y</tspan><tspan x="10.24" y="31.6">ou can use Up</tspan><tspan class="cls-15" x="123.45" y="31.6">K</tspan><tspan x="134.53" y="31.6">nown right f</tspan><tspan class="cls-14" x="229.7" y="31.6">r</tspan><tspan x="235.62" y="31.6">om </tspan><tspan class="cls-17" x="266.12" y="31.6">y</tspan><tspan x="274.5" y="31.6">our inb</tspan><tspan class="cls-21" x="329.63" y="31.6">o</tspan><tspan x="339.71" y="31.6">x.</tspan><tspan class="cls-22"><tspan x="0" y="94.8">Click below </tspan><tspan class="cls-23" x="97.33" y="94.8">t</tspan><tspan x="103.15" y="94.8">o get sta</tspan><tspan class="cls-24" x="173.36" y="94.8">r</tspan><tspan x="180.37" y="94.8">ted.</tspan></tspan></text><line class="cls-25" x1="507.5" y1="313" x2="1436.5" y2="313"/></g></g></svg>