<svg xmlns="http://www.w3.org/2000/svg" viewBox="0 0 2001 956.02"><defs><style>.cls-1,.cls-17,.cls-2,.cls-6{fill:none;stroke-miterlimit:10;}.cls-1{stroke:#ccc;}.cls-17,.cls-2,.cls-6{stroke:#000;}.cls-15,.cls-24,.cls-3{font-size:18px;}.cls-3{font-family:Roboto-Thin, Roboto;}.cls-4{letter-spacing:-0.01em;}.cls-34,.cls-5{font-size:21px;}.cls-18,.cls-24,.cls-5{font-family:Roboto-Regular, Roboto;}.cls-6{stroke-width:0.94px;}.cls-18,.cls-32,.cls-7{font-size:16px;}.cls-30,.cls-31,.cls-7{font-family:Roboto-Medium, Roboto;}.cls-8{letter-spacing:-0.01em;}.cls-9{letter-spacing:-0.06em;}.cls-10{letter-spacing:-0.01em;}.cls-11{letter-spacing:-0.03em;}.cls-12{font-size:28px;}.cls-12,.cls-15,.cls-22,.cls-32{font-family:Roboto-Light, Roboto;}.cls-13{letter-spacing:-0.02em;}.cls-14{letter-spacing:-0.05em;}.cls-16{letter-spacing:-0.01em;}.cls-17{stroke-width:0.64px;}.cls-19{letter-spacing:0.02em;}.cls-20{letter-spacing:-0.01em;}.cls-21{letter-spacing:-0.01em;}.cls-22{font-size:59px;}.cls-23{letter-spacing:-0.03em;}.cls-25{letter-spacing:-0.01em;}.cls-26{letter-spacing:-0.04em;}.cls-27{letter-spacing:-0.05em;}.cls-28,.cls-34{font-family:Roboto-Bold, Roboto;font-weight:700;}.cls-29{letter-spacing:-0.01em;}.cls-30{font-size:38.68px;}.cls-31{font-size:30px;}.cls-33{letter-spacing:-0.01em;}</style></defs><title>ob-2</title><g id="Layer_2" data-name="Layer 2"><g id="_0_Welcome" data-name="0 Welcome"><line class="cls-1" x1="508.5" y1="249" x2="1437.5" y2="249"/><line class="cls-2" x1="865.5" y1="518" x2="1466.5" y2="518"/><text class="cls-3" transform="translate(877.5 505.5)">Sea<tspan class="cls-4" x="29.21" y="0">r</tspan><tspan x="35.07" y="0">ch</tspan></text></g><g id="_1_Stream" data-name="1 Stream"><text class="cls-5" transform="translate(508.82 56.83)">Candidates</text><text class="cls-5" transform="translate(658.81 56.83)">Connecting</text><text class="cls-5" transform="translate(829.8 56.83)">Adding Candidates</text><text class="cls-5" transform="translate(1066.79 56.83)">Confirming Candidates</text><text class="cls-5" transform="translate(1327.77 56.83)">Endorsements</text><rect class="cls-6" x="865.27" y="541.26" width="599.94" height="195.3" rx="3.56" ry="3.56"/><text class="cls-7" transform="translate(1315.5 714.7)">VIEW CANDI<tspan class="cls-8" x="89.4" y="0">D</tspan><tspan class="cls-9" x="99.69" y="0">A</tspan><tspan x="109.4" y="0">TE</tspan></text><text class="cls-7" transform="translate(887.38 714.7)">READ ENDORSEME<tspan class="cls-10" x="137.77" y="0">N</tspan><tspan class="cls-11" x="148.9" y="0">T</tspan></text><text class="cls-12" transform="translate(957.6 596)">Captain<tspan class="cls-13" x="94.35" y="0"> </tspan><tspan class="cls-14" x="100.61" y="0">T</tspan><tspan x="115.98" y="0">eemo</tspan></text><text class="cls-15" transform="translate(888.1 645.54)">VP of Mush<tspan class="cls-16" x="91.43" y="0">r</tspan><tspan x="97.31" y="0">ooms at Nola Natu</tspan><tspan class="cls-13" x="245.72" y="0">r</tspan><tspan x="251.43" y="0">al </tspan><tspan class="cls-8" x="269.48" y="0">F</tspan><tspan x="279.42" y="0">oods</tspan></text><rect class="cls-17" x="888.1" y="563.86" width="45.68" height="45.68" rx="2.32" ry="2.32"/><circle class="cls-2" cx="911" cy="579.69" r="8.21"/><path class="cls-2" d="M911,588.38A13.32,13.32,0,0,0,897.38,602h27.24A13.32,13.32,0,0,0,911,588.38Z"/><rect x="1368.82" y="564.81" width="15.33" height="15.33"/><rect x="1397.32" y="564.81" width="15.33" height="15.33"/><rect x="1425.81" y="564.81" width="15.33" height="15.33"/><text class="cls-18" transform="translate(888.1 681.04)">#natu<tspan class="cls-13" x="41.43" y="0">r</tspan><tspan x="46.53" y="0">al foods #medicine #chinese #eastern medicine</tspan></text><rect class="cls-6" x="865.27" y="760.26" width="599.94" height="195.3" rx="3.56" ry="3.56"/><text class="cls-7" transform="translate(1315.5 933.7)">VIEW CANDI<tspan class="cls-8" x="89.4" y="0">D</tspan><tspan class="cls-9" x="99.69" y="0">A</tspan><tspan x="109.4" y="0">TE</tspan></text><text class="cls-7" transform="translate(887.38 933.7)">READ ENDORSEME<tspan class="cls-10" x="137.77" y="0">N</tspan><tspan class="cls-11" x="148.9" y="0">T</tspan></text><text class="cls-12" transform="translate(957.6 815)">Katarina Bou<tspan class="cls-4" x="157.76" y="0">r</tspan><tspan x="166.92" y="0">geois</tspan></text><text class="cls-15" transform="translate(888.1 864.54)">Logistics &amp; Supply Manager at Whole <tspan class="cls-8" x="296.26" y="0">F</tspan><tspan x="306.2" y="0">oods Inc.</tspan></text><rect class="cls-17" x="888.1" y="782.86" width="45.68" height="45.68" rx="2.32" ry="2.32"/><circle class="cls-2" cx="911" cy="798.69" r="8.21"/><path class="cls-2" d="M911,807.38A13.32,13.32,0,0,0,897.38,821h27.24A13.32,13.32,0,0,0,911,807.38Z"/><rect x="1368.82" y="783.81" width="15.33" height="15.33"/><rect x="1397.32" y="783.81" width="15.33" height="15.33"/><rect x="1425.81" y="783.81" width="15.33" height="15.33"/><text class="cls-18" transform="translate(888.1 900.04)">#t<tspan class="cls-13" x="15.08" y="0">r</tspan><tspan x="20.18" y="0">anspo</tspan><tspan class="cls-19" x="64.06" y="0">r</tspan><tspan x="69.87" y="0">tation #logistics #suppl</tspan><tspan class="cls-20" x="237.24" y="0">y</tspan><tspan x="244.71" y="0">chain #mgmt #trucks #highw</tspan><tspan class="cls-21" x="453.7" y="0">a</tspan><tspan x="462.29" y="0">ys #trucks</tspan></text><text class="cls-22" transform="translate(508.5 209.99)"><tspan class="cls-23">Y</tspan><tspan x="33.45" y="0">our St</tspan><tspan class="cls-4" x="187" y="0">r</tspan><tspan x="206.3" y="0">eam</tspan></text><text class="cls-24" transform="translate(508.5 299.85)">He<tspan class="cls-4" x="22.37" y="0">r</tspan><tspan x="28.29" y="0">e </tspan><tspan class="cls-21" x="42.28" y="0">y</tspan><tspan x="50.67" y="0">ou can access all the candidates added </tspan><tspan class="cls-25" x="369.87" y="0">b</tspan><tspan x="379.87" y="0">y </tspan><tspan class="cls-21" x="392.84" y="0">y</tspan><tspan x="401.23" y="0">our connections.</tspan><tspan class="cls-23" x="0" y="31.6">Y</tspan><tspan x="10.24" y="31.6">ou can sea</tspan><tspan class="cls-4" x="97.09" y="31.6">r</tspan><tspan x="103.02" y="31.6">ch using the sea</tspan><tspan class="cls-4" x="233.26" y="31.6">r</tspan><tspan x="239.19" y="31.6">ch field on the </tspan><tspan class="cls-16" x="356.55" y="31.6">t</tspan><tspan x="362.25" y="31.6">op of the ca</tspan><tspan class="cls-4" x="457.04" y="31.6">r</tspan><tspan x="462.96" y="31.6">d stack. </tspan><tspan x="0" y="63.2">Sea</tspan><tspan class="cls-4" x="30.01" y="63.2">r</tspan><tspan x="35.93" y="63.2">ching looks th</tspan><tspan class="cls-16" x="147.67" y="63.2">r</tspan><tspan x="153.59" y="63.2">ough a candidat</tspan><tspan class="cls-26" x="281.98" y="63.2">e</tspan><tspan class="cls-27" x="290.81" y="63.2">’</tspan><tspan x="293.42" y="63.2">s </tspan><tspan class="cls-4" x="307.16" y="63.2">r</tspan><tspan x="313.08" y="63.2">esume, tags, name, title, and mo</tspan><tspan class="cls-4" x="569.58" y="63.2">r</tspan><tspan x="575.51" y="63.2">e.</tspan><tspan class="cls-28"><tspan x="0" y="126.4">Click on one of the candidates </tspan><tspan class="cls-29" x="248.87" y="126.4">t</tspan><tspan x="254.69" y="126.4">o view their information and endorsements.</tspan></tspan></text><text class="cls-30" transform="translate(507.82 516.49)">Susan Nasus</text><text class="cls-31" transform="translate(537.3 647.7)">9</text><text class="cls-31" transform="translate(621.33 647.7)">12</text><text class="cls-31" transform="translate(734.36 647.7)">2</text><text class="cls-32" transform="translate(507.81 546.47)">Onboa<tspan class="cls-4" x="46.02" y="0">r</tspan><tspan x="51.25" y="0">dee at Up</tspan><tspan class="cls-33" x="117.55" y="0">K</tspan><tspan x="127.46" y="0">nown, CC at </tspan><tspan class="cls-14" x="0" y="19.2">T</tspan><tspan x="8.78" y="19.2">op Lane</tspan></text><text class="cls-32" transform="translate(604.76 675.7)"><tspan class="cls-8">F</tspan><tspan x="8.84" y="0">ollowing</tspan></text><text class="cls-32" transform="translate(691.9 675.7)">Endorsements</text><text class="cls-32" transform="translate(511.95 675.7)"><tspan class="cls-8">F</tspan><tspan x="8.84" y="0">ollowers</tspan></text><line class="cls-2" x1="507.5" y1="595" x2="792.5" y2="595"/><line class="cls-2" x1="507.5" y1="710" x2="792.5" y2="710"/><rect class="cls-2" x="0.5" y="0.5" width="2000" height="100.33"/><rect class="cls-17" x="1921.1" y="27.86" width="45.68" height="45.68" rx="2.32" ry="2.32"/><text class="cls-34" transform="translate(1806.57 55.83)">St<tspan class="cls-4" x="20.01" y="0">r</tspan><tspan x="27.47" y="0">eam</tspan></text><text class="cls-5" transform="translate(113.16 56.83)">Onboa<tspan class="cls-4" x="61.21" y="0">r</tspan><tspan x="68.12" y="0">ding Bar!</tspan></text><text class="cls-34" transform="translate(323.15 56.83)"><tspan class="cls-23">Y</tspan><tspan x="12.31" y="0">our St</tspan><tspan class="cls-4" x="68.83" y="0">r</tspan><tspan x="76.3" y="0">eam</tspan></text><circle class="cls-2" cx="1944" cy="43.69" r="8.21"/><path class="cls-2" d="M1944,52.38A13.32,13.32,0,0,0,1930.38,66h27.24A13.32,13.32,0,0,0,1944,52.38Z"/></g></g></svg>