<svg xmlns="http://www.w3.org/2000/svg" viewBox="0 0 2001 891.55"><defs><style>.cls-1,.cls-19,.cls-20,.cls-21,.cls-27,.cls-4{fill:none;stroke-miterlimit:10;}.cls-1{stroke:#ccc;}.cls-2,.cls-3,.cls-7{font-size:21px;}.cls-2{font-family:Roboto-Bold, Roboto;font-weight:700;}.cls-25,.cls-3,.cls-9{font-family:Roboto-Regular, Roboto;}.cls-19,.cls-20,.cls-21,.cls-27,.cls-4{stroke:#000;}.cls-18,.cls-5,.cls-9{font-size:16px;}.cls-5,.cls-7{font-family:Roboto-Medium, Roboto;}.cls-6{letter-spacing:-0.01em;}.cls-8{letter-spacing:-0.08em;}.cls-10{letter-spacing:0.02em;}.cls-11{letter-spacing:-0.06em;}.cls-12{letter-spacing:-0.01em;}.cls-13{letter-spacing:-0.01em;}.cls-14{letter-spacing:-0.02em;}.cls-15{font-size:57.71px;}.cls-15,.cls-16,.cls-18,.cls-23{font-family:Roboto-Light, Roboto;}.cls-16,.cls-25{font-size:18px;}.cls-17{letter-spacing:-0.01em;}.cls-19{stroke-width:1.4px;}.cls-20{stroke-width:2.2px;}.cls-21{stroke-width:2px;}.cls-22{fill:#ccc;}.cls-23{font-size:59px;}.cls-24{letter-spacing:-0.01em;}.cls-26{letter-spacing:0.01em;}.cls-27{stroke-width:0.64px;}.cls-28{letter-spacing:-0.03em;}</style></defs><title>ob-3</title><g id="Layer_2" data-name="Layer 2"><g id="_0_Welcome" data-name="0 Welcome"><line class="cls-1" x1="508.5" y1="246" x2="1437.5" y2="246"/></g><g id="_2_Candidates" data-name="2 Candidates"><text class="cls-2" transform="translate(508.82 56.83)">Candidates</text><text class="cls-3" transform="translate(658.81 56.83)">Connecting</text><text class="cls-3" transform="translate(829.8 56.83)">Adding Candidates</text><text class="cls-3" transform="translate(1066.79 56.83)">Confirming Candidates</text><text class="cls-3" transform="translate(1327.77 56.83)">Endorsements</text><rect class="cls-4" x="508.27" y="382.26" width="957.94" height="508.8" rx="7.27" ry="7.27"/><text class="cls-5" transform="translate(1356.48 857.69)">ENDORSE</text><text class="cls-5" transform="translate(540.38 821.69)">Email</text><text class="cls-5" transform="translate(540.38 857.69)">Lin<tspan class="cls-6" x="21.64" y="0">k</tspan><tspan x="29.84" y="0">edIn</tspan></text><text class="cls-7" transform="translate(535.5 638.66)"><tspan class="cls-8">T</tspan><tspan x="11.02" y="0">aric K.</tspan></text><text class="cls-9" transform="translate(535.5 668.16)">Caitlyn is a men<tspan class="cls-6" x="112.55" y="0">t</tspan><tspan x="117.63" y="0">or and business pa</tspan><tspan class="cls-10" x="252.02" y="0">r</tspan><tspan x="257.82" y="0">tne</tspan><tspan class="cls-11" x="280.35" y="0">r</tspan><tspan x="284.8" y="0">. </tspan><tspan x="0" y="19.2">I’</tspan><tspan class="cls-12" x="7.55" y="19.2">v</tspan><tspan x="15.2" y="19.2">e wor</tspan><tspan class="cls-6" x="54.2" y="19.2">k</tspan><tspan x="62.15" y="19.2">ed in a suppo</tspan><tspan class="cls-10" x="157.09" y="19.2">r</tspan><tspan x="162.9" y="19.2">t </tspan><tspan class="cls-6" x="172.09" y="19.2">r</tspan><tspan x="177.34" y="19.2">ole for </tspan><tspan class="cls-13" x="226.84" y="19.2">o</tspan><tspan class="cls-12" x="235.85" y="19.2">v</tspan><tspan x="243.5" y="19.2">er fi</tspan><tspan class="cls-12" x="270.79" y="19.2">v</tspan><tspan x="278.44" y="19.2">e </tspan><tspan class="cls-12" x="290.88" y="19.2">y</tspan><tspan x="298.34" y="19.2">ears</tspan><tspan x="0" y="38.4">with Caitlyn in natu</tspan><tspan class="cls-14" x="134.63" y="38.4">r</tspan><tspan x="139.73" y="38.4">al food. I cannot speak highly </tspan><tspan x="0" y="57.6">enough of her skills in logistics. Unri</tspan><tspan class="cls-13" x="255.72" y="57.6">v</tspan><tspan x="263.35" y="57.6">aled!!!</tspan></text><text class="cls-15" transform="translate(667.81 473.51)">Caitlyn Mossman</text><text class="cls-16" transform="translate(669.81 505.37)">VP of Logistics at Nola Natu<tspan class="cls-14" x="221.06" y="0">r</tspan><tspan x="226.77" y="0">al </tspan><tspan class="cls-17" x="244.82" y="0">F</tspan><tspan x="254.76" y="0">oods, ADC</tspan></text><text class="cls-18" transform="translate(1270.81 413.69)">Last updated 2 d<tspan class="cls-13" x="117.09" y="0">a</tspan><tspan x="125.54" y="0">ys ago</tspan></text><rect class="cls-19" x="535.1" y="404.86" width="100.51" height="100.51" rx="5.11" ry="5.11"/><circle class="cls-20" cx="585.49" cy="439.69" r="18.07"/><path class="cls-21" d="M585.49,458.53a29.69,29.69,0,0,0-30,30h59.94A29.69,29.69,0,0,0,585.49,458.53Z"/><text class="cls-3" transform="translate(535.1 571.5)">#t<tspan class="cls-14" x="19.79" y="0">r</tspan><tspan x="26.49" y="0">anspo</tspan><tspan class="cls-10" x="84.08" y="0">r</tspan><tspan x="91.7" y="0">tation #logistics #suppl</tspan><tspan class="cls-12" x="311.38" y="0">y</tspan><tspan x="321.18" y="0">chain #mgmt #trucks #highw</tspan><tspan class="cls-13" x="595.49" y="0">a</tspan><tspan x="606.75" y="0">ys #bot</tspan></text><line class="cls-4" x1="535.5" y1="534" x2="1435.5" y2="534"/><line class="cls-4" x1="535.5" y1="779" x2="1435.5" y2="779"/><path class="cls-22" d="M853.37,626.71l0,0a16.59,16.59,0,0,0-23.46,0,.26.26,0,0,0,0,.37l1.72,1.72a.26.26,0,0,0,.37,0,13.63,13.63,0,0,1,19.3,0,.26.26,0,0,0,.37,0l1.72-1.72a.26.26,0,0,0,0-.33Z"/><path d="M841.61,626.35a12,12,0,0,0-8.52,3.53.26.26,0,0,0,0,.37L834.8,632a.26.26,0,0,0,.37,0A9.1,9.1,0,0,1,848,632a.26.26,0,0,0,.37,0l1.71-1.71a.26.26,0,0,0,0-.37A12,12,0,0,0,841.61,626.35Z"/><path d="M841.61,630.88a7.47,7.47,0,0,0-5.31,2.2.26.26,0,0,0,0,.37l1.71,1.71a.26.26,0,0,0,.37,0,4.57,4.57,0,0,1,6.47,0,.26.26,0,0,0,.37,0l1.71-1.71a.26.26,0,0,0,0-.37A7.47,7.47,0,0,0,841.61,630.88Z"/><path d="M841.61,635.69a2.6,2.6,0,0,0-1.85.77.26.26,0,0,0,0,.37l1.67,1.67a.26.26,0,0,0,.37,0l1.67-1.67a.26.26,0,0,0,0-.37A2.6,2.6,0,0,0,841.61,635.69Z"/><text class="cls-7" transform="translate(1009.86 638.66)">Jax Stanza</text><text class="cls-9" transform="translate(1009.86 668.16)">Brilliant logisticstitian.</text><path class="cls-22" d="M1327.73,626.71l0,0a16.59,16.59,0,0,0-23.46,0,.26.26,0,0,0,0,.37l1.72,1.72a.26.26,0,0,0,.37,0,13.63,13.63,0,0,1,19.3,0,.26.26,0,0,0,.37,0l1.72-1.72a.26.26,0,0,0,0-.33Z"/><path d="M1316,626.35a12,12,0,0,0-8.52,3.53.26.26,0,0,0,0,.37l1.71,1.71a.26.26,0,0,0,.37,0,9.1,9.1,0,0,1,12.89,0,.26.26,0,0,0,.37,0l1.71-1.71a.26.26,0,0,0,0-.37A12,12,0,0,0,1316,626.35Z"/><path d="M1316,630.88a7.47,7.47,0,0,0-5.31,2.2.26.26,0,0,0,0,.37l1.71,1.71a.26.26,0,0,0,.37,0,4.57,4.57,0,0,1,6.47,0,.26.26,0,0,0,.37,0l1.71-1.71a.26.26,0,0,0,0-.37A7.47,7.47,0,0,0,1316,630.88Z"/><path d="M1316,635.69a2.6,2.6,0,0,0-1.85.77.26.26,0,0,0,0,.37l1.67,1.67a.26.26,0,0,0,.37,0l1.67-1.67a.26.26,0,0,0,0-.37A2.6,2.6,0,0,0,1316,635.69Z"/><text class="cls-23" transform="translate(508.5 206.17)">Candidate Ca<tspan class="cls-24" x="346.42" y="0">r</tspan><tspan x="365.73" y="0">ds</tspan></text><text class="cls-25" transform="translate(508.5 291.53)">He<tspan class="cls-24" x="22.37" y="0">r</tspan><tspan x="28.29" y="0">e </tspan><tspan class="cls-13" x="42.28" y="0">y</tspan><tspan x="50.67" y="0">ou see a detailed </tspan><tspan class="cls-13" x="190.61" y="0">o</tspan><tspan class="cls-12" x="200.74" y="0">v</tspan><tspan x="209.35" y="0">e</tspan><tspan class="cls-26" x="218.88" y="0">r</tspan><tspan x="225.13" y="0">view of the candidate and what </tspan><tspan class="cls-13" x="477.87" y="0">y</tspan><tspan x="486.25" y="0">our connections s</tspan><tspan class="cls-13" x="628.96" y="0">a</tspan><tspan x="638.62" y="0">y about them.</tspan><tspan x="0" y="31.6">Click on one of the endorsements </tspan><tspan class="cls-6" x="272.71" y="31.6">t</tspan><tspan x="278.41" y="31.6">o go </tspan><tspan class="cls-6" x="317.95" y="31.6">t</tspan><tspan x="323.66" y="31.6">o their user page.</tspan></text><rect class="cls-4" x="0.5" y="0.5" width="2000" height="100.33"/><rect class="cls-27" x="1921.1" y="27.86" width="45.68" height="45.68" rx="2.32" ry="2.32"/><text class="cls-2" transform="translate(1806.57 55.83)">St<tspan class="cls-24" x="20.01" y="0">r</tspan><tspan x="27.47" y="0">eam</tspan></text><text class="cls-3" transform="translate(113.16 56.83)">Onboa<tspan class="cls-24" x="61.21" y="0">r</tspan><tspan x="68.12" y="0">ding Bar!</tspan></text><text class="cls-3" transform="translate(323.15 56.83)"><tspan class="cls-28">Y</tspan><tspan x="11.95" y="0">our St</tspan><tspan class="cls-24" x="67.12" y="0">r</tspan><tspan x="74.03" y="0">eam</tspan></text><circle class="cls-4" cx="1944" cy="43.69" r="8.21"/><path class="cls-4" d="M1944,52.38A13.32,13.32,0,0,0,1930.38,66h27.24A13.32,13.32,0,0,0,1944,52.38Z"/></g></g></svg>