<svg xmlns="http://www.w3.org/2000/svg" viewBox="0 0 2001 942.98"><defs><style>.cls-1,.cls-2{font-size:21px;}.cls-1,.cls-15{font-family:Roboto-Regular, Roboto;}.cls-2,.cls-24{font-family:Roboto-Bold, Roboto;font-weight:700;}.cls-3{font-size:57.71px;}.cls-14,.cls-3,.cls-9{font-family:Roboto-Light, Roboto;}.cls-4{letter-spacing:-0.02em;}.cls-5{letter-spacing:-0.01em;}.cls-6{letter-spacing:-0.04em;}.cls-7{letter-spacing:-0.05em;}.cls-8{letter-spacing:-0.01em;}.cls-15,.cls-31,.cls-9{font-size:18px;}.cls-10{letter-spacing:-0.01em;}.cls-11{letter-spacing:-0.04em;}.cls-12,.cls-13,.cls-29{fill:none;stroke:#000;stroke-miterlimit:10;}.cls-13{stroke-width:4px;}.cls-14{font-size:59px;}.cls-16{letter-spacing:-0.01em;}.cls-17{letter-spacing:0.01em;}.cls-18{letter-spacing:-0.01em;}.cls-19{letter-spacing:-0.01em;}.cls-20{letter-spacing:-0.01em;}.cls-21{letter-spacing:0.02em;}.cls-22{letter-spacing:0.01em;}.cls-23{letter-spacing:-0.05em;}.cls-25{letter-spacing:-0.01em;}.cls-26{letter-spacing:-0.01em;}.cls-27{letter-spacing:-0.03em;}.cls-28{letter-spacing:-0.11em;}.cls-29{stroke-width:0.64px;}.cls-30{letter-spacing:-0.03em;}.cls-31{font-family:Roboto-Medium, Roboto;}.cls-32{letter-spacing:-0.03em;}.cls-33{letter-spacing:-0.01em;}.cls-34{letter-spacing:-0.01em;}</style></defs><title>ob-4</title><g id="Layer_2" data-name="Layer 2"><g id="_3_Connecting" data-name="3 Connecting"><text class="cls-1" transform="translate(508.82 56.83)">Candidates</text><text class="cls-2" transform="translate(658.81 56.83)">Connecting</text><text class="cls-1" transform="translate(829.8 56.83)">Adding Candidates</text><text class="cls-1" transform="translate(1066.79 56.83)">Confirming Candidates</text><text class="cls-1" transform="translate(1327.77 56.83)">Endorsements</text><text class="cls-3" transform="translate(817.73 520.55)"><tspan class="cls-4">L</tspan><tspan x="29.17" y="0">u</tspan><tspan class="cls-5" x="60.87" y="0">k</tspan><tspan class="cls-6" x="88.57" y="0">e</tspan><tspan class="cls-7" x="116.13" y="0">’</tspan><tspan x="123.23" y="0">s Ci</tspan><tspan class="cls-8" x="216.9" y="0">r</tspan><tspan x="235.78" y="0">cle</tspan></text><text class="cls-9" transform="translate(928.96 561.41)"><tspan class="cls-10">v</tspan><tspan x="8.54" y="0">erndoggi</tspan><tspan class="cls-11" x="77.87" y="0">n</tspan><tspan x="87.06" y="0">’</tspan></text><rect class="cls-12" x="840.43" y="600.04" width="262.16" height="262.16" rx="13.33" ry="13.33"/><circle class="cls-13" cx="971.51" cy="690.87" r="47.13"/><path class="cls-13" d="M971.51,742.41c-43.17,0-78.17,33.17-78.17,78.17h156.34C1049.68,775.58,1014.68,742.41,971.51,742.41Z"/><text class="cls-14" transform="translate(508.5 220.99)">Connecting</text><text class="cls-15" transform="translate(508.5 301.35)"><tspan class="cls-16">E</tspan><tspan class="cls-10" x="10" y="0">v</tspan><tspan x="18.61" y="0">e</tspan><tspan class="cls-17" x="28.14" y="0">r</tspan><tspan x="34.39" y="0">y user has a user page whe</tspan><tspan class="cls-18" x="250.58" y="0">r</tspan><tspan x="256.51" y="0">e </tspan><tspan class="cls-19" x="270.5" y="0">y</tspan><tspan x="278.89" y="0">ou can </tspan><tspan class="cls-18" x="337.13" y="0">r</tspan><tspan x="343.05" y="0">equest </tspan><tspan class="cls-20" x="401.9" y="0">t</tspan><tspan x="407.6" y="0">o follow them.</tspan><tspan x="0" y="31.6">If </tspan><tspan class="cls-19" x="15.6" y="31.6">y</tspan><tspan x="23.99" y="31.6">our </tspan><tspan class="cls-18" x="54.72" y="31.6">r</tspan><tspan x="60.64" y="31.6">equest </tspan><tspan class="cls-20" x="119.49" y="31.6">t</tspan><tspan x="125.19" y="31.6">o follow a user is accepted, </tspan><tspan class="cls-19" x="346.88" y="31.6">y</tspan><tspan x="355.26" y="31.6">ou</tspan><tspan class="cls-21" x="375.45" y="31.6">’</tspan><tspan x="379.33" y="31.6">ll see that use</tspan><tspan class="cls-22" x="489.99" y="31.6">r</tspan><tspan class="cls-23" x="496.22" y="31.6">’</tspan><tspan x="498.83" y="31.6">s candidates in </tspan><tspan class="cls-19" x="624.08" y="31.6">y</tspan><tspan x="632.47" y="31.6">our st</tspan><tspan class="cls-18" x="678.37" y="31.6">r</tspan><tspan x="684.29" y="31.6">eam and digest email.</tspan><tspan class="cls-24"><tspan x="0" y="94.8">Request </tspan><tspan class="cls-25" x="71.01" y="94.8">t</tspan><tspan x="76.83" y="94.8">o follow the </tspan><tspan class="cls-26" x="175.91" y="94.8">L</tspan><tspan x="185.54" y="94.8">u</tspan><tspan class="cls-20" x="195.61" y="94.8">k</tspan><tspan class="cls-27" x="205.05" y="94.8">e</tspan><tspan class="cls-28" x="214.22" y="94.8">’</tspan><tspan x="216.31" y="94.8">s Ci</tspan><tspan class="cls-18" x="246.59" y="94.8">r</tspan><tspan x="252.99" y="94.8">cle (</tspan><tspan class="cls-19" x="287.68" y="94.8">y</tspan><tspan x="296.59" y="94.8">ou can alw</tspan><tspan class="cls-19" x="382.57" y="94.8">a</tspan><tspan x="392.09" y="94.8">ys unfollow later).</tspan></tspan></text><rect class="cls-12" x="0.5" y="0.5" width="2000" height="100.33"/><rect class="cls-29" x="1921.1" y="27.86" width="45.68" height="45.68" rx="2.32" ry="2.32"/><text class="cls-2" transform="translate(1806.57 55.83)">St<tspan class="cls-18" x="20.01" y="0">r</tspan><tspan x="27.47" y="0">eam</tspan></text><text class="cls-1" transform="translate(113.16 56.83)">Onboa<tspan class="cls-18" x="61.21" y="0">r</tspan><tspan x="68.12" y="0">ding Bar!</tspan></text><text class="cls-1" transform="translate(323.15 56.83)"><tspan class="cls-30">Y</tspan><tspan x="11.95" y="0">our St</tspan><tspan class="cls-18" x="67.12" y="0">r</tspan><tspan x="74.03" y="0">eam</tspan></text><circle class="cls-12" cx="1944" cy="43.69" r="8.21"/><path class="cls-12" d="M1944,52.46a13.32,13.32,0,0,0-13.62,13.62h27.24A13.32,13.32,0,0,0,1944,52.46Z"/><text class="cls-31" transform="translate(876.68 927)">REQUES<tspan class="cls-32" x="66.61" y="0">T </tspan><tspan class="cls-33" x="80.96" y="0">T</tspan><tspan x="91.64" y="0">O CONNE</tspan><tspan class="cls-34" x="168.47" y="0">C</tspan><tspan class="cls-32" x="179.96" y="0">T</tspan></text><rect class="cls-12" x="854.05" y="897.43" width="234.91" height="45.05" rx="4.05" ry="4.05"/></g></g></svg>