<svg xmlns="http://www.w3.org/2000/svg" viewBox="0 0 2001 996.55"><defs><style>.cls-1,.cls-44,.cls-8{fill:none;}.cls-1{stroke:#ccc;}.cls-1,.cls-2,.cls-44,.cls-8{stroke-miterlimit:10;}.cls-2{fill:#fff;}.cls-2,.cls-44,.cls-8{stroke:#000;}.cls-26,.cls-3,.cls-5,.cls-7,.cls-9{font-size:14.94px;}.cls-3,.cls-5,.cls-7{fill:gray;}.cls-27,.cls-3,.cls-30,.cls-5,.cls-7{font-family:Roboto-Regular, Roboto;}.cls-3{letter-spacing:-0.05em;}.cls-4{letter-spacing:0em;}.cls-5{letter-spacing:-0.01em;}.cls-6{letter-spacing:-0.01em;}.cls-9{fill:#4d4d4d;}.cls-29,.cls-9{font-family:Roboto-Light, Roboto;}.cls-10{letter-spacing:-0.03em;}.cls-11{letter-spacing:0em;}.cls-12{letter-spacing:0.02em;}.cls-13{letter-spacing:-0.01em;}.cls-14{letter-spacing:-0.01em;}.cls-15{letter-spacing:-0.01em;}.cls-16{letter-spacing:-0.01em;}.cls-17{letter-spacing:-0.01em;}.cls-18{letter-spacing:0em;}.cls-19{letter-spacing:-0.04em;}.cls-20{letter-spacing:-0.05em;}.cls-21{letter-spacing:-0.01em;}.cls-22{font-size:13.25px;}.cls-22,.cls-23{font-family:Roboto-Medium, Roboto;}.cls-23{font-size:17.07px;letter-spacing:-0.01em;}.cls-24{letter-spacing:0em;}.cls-25{font-size:26.01px;}.cls-25,.cls-26{font-family:FontAwesome, FontAwesome;}.cls-27,.cls-28{font-size:21px;}.cls-28,.cls-41{font-family:Roboto-Bold, Roboto;font-weight:700;}.cls-29{font-size:59px;}.cls-30{font-size:18px;}.cls-31{letter-spacing:-0.03em;}.cls-32{letter-spacing:0.01em;}.cls-33{letter-spacing:-0.01em;}.cls-34{letter-spacing:-0.01em;}.cls-35{letter-spacing:-0.01em;}.cls-36{letter-spacing:-0.01em;}.cls-37{letter-spacing:-0.01em;}.cls-38{letter-spacing:1.63em;}.cls-39{letter-spacing:-0.04em;}.cls-40{letter-spacing:-0.05em;}.cls-42{letter-spacing:-0.01em;}.cls-43{letter-spacing:-0.01em;}.cls-44{stroke-width:0.64px;}</style></defs><title>ob-5</title><g id="Layer_2" data-name="Layer 2"><g id="_0_Welcome" data-name="0 Welcome"><line class="cls-1" x1="508.5" y1="225" x2="1437.5" y2="225"/></g><g id="_2_Candidates" data-name="2 Candidates"><rect class="cls-2" x="601.2" y="585.46" width="695.49" height="410.59" rx="22.97" ry="22.97"/><rect class="cls-2" x="633.05" y="638.04" width="631.78" height="35.27" rx="7.45" ry="7.45"/><text class="cls-3" transform="translate(650.64 660.89)">T<tspan class="cls-4" x="8.19" y="0">o</tspan></text><rect class="cls-2" x="633.05" y="685.9" width="631.78" height="35.27" rx="7.45" ry="7.45"/><text class="cls-5" transform="translate(650.64 709.82)">F<tspan class="cls-6" x="8.07" y="0">r</tspan><tspan class="cls-4" x="12.98" y="0">om</tspan></text><rect class="cls-2" x="633.05" y="733.76" width="631.78" height="35.27" rx="7.45" ry="7.45"/><text class="cls-7" transform="translate(650.64 756.61)">Subject</text><rect class="cls-2" x="633.05" y="782.69" width="631.78" height="164.1" rx="7.45" ry="7.45"/><path class="cls-8" d="M623.57,585.46h650.74a22.37,22.37,0,0,1,22.37,22.37v12.34a0,0,0,0,1,0,0H601.2a0,0,0,0,1,0,0V607.83A22.37,22.37,0,0,1,623.57,585.46Z"/><text class="cls-9" transform="translate(736.16 756.61)">FWD: Re: <tspan class="cls-10" x="62.32" y="0">Y</tspan><tspan class="cls-11" x="70.79" y="0">ou &lt; &gt; Sandie B - talented person looking for an oppo</tspan><tspan class="cls-12" x="413.68" y="0">r</tspan><tspan x="419.07" y="0">tunity</tspan></text><text class="cls-9" transform="translate(696.04 660.89)">add@Up<tspan class="cls-13" x="56.34" y="0">K</tspan><tspan x="65.6" y="0">nown.com</tspan></text><text class="cls-9" transform="translate(719.09 708.86)">s.nassus@summoners.com</text><text class="cls-9" transform="translate(650.64 812.8)">#mar<tspan class="cls-6" x="34.96" y="0">k</tspan><tspan x="42.13" y="0">eting #seo #con</tspan><tspan class="cls-14" x="147.04" y="0">v</tspan><tspan x="154.13" y="0">ersion #co</tspan><tspan class="cls-15" x="222.74" y="0">p</tspan><tspan x="230.94" y="0">ywriting #cmo #datadri</tspan><tspan class="cls-14" x="382.04" y="0">v</tspan><tspan x="389.13" y="0">en </tspan></text><text class="cls-9" transform="translate(650.64 843.24)">Notes on Sandie - Sandie is an experienced mar<tspan class="cls-6" x="310.19" y="0">k</tspan><tspan class="cls-4" x="317.36" y="0">eter who just m</tspan><tspan class="cls-16" x="418.56" y="0">o</tspan><tspan class="cls-14" x="426.82" y="0">v</tspan><tspan x="433.91" y="0">ed </tspan><tspan class="cls-17" x="453.56" y="0">t</tspan><tspan class="cls-18" x="458.22" y="0">o Boulder f</tspan><tspan class="cls-17" x="528.91" y="0">r</tspan><tspan class="cls-18" x="533.79" y="0">om the </tspan><tspan x="0" y="17.93">midwest, looking for something small and fast-paced. H</tspan><tspan class="cls-16" x="363.56" y="17.93">a</tspan><tspan class="cls-14" x="371.45" y="17.93">v</tspan><tspan x="378.54" y="17.93">e</tspan><tspan class="cls-19" x="386.26" y="17.93">n</tspan><tspan class="cls-18" x="393.88" y="17.93">’t wor</tspan><tspan class="cls-17" x="429.62" y="17.93">k</tspan><tspan x="436.79" y="17.93">ed with Sandie </tspan><tspan x="0" y="35.85">personall</tspan><tspan class="cls-20" x="59.86" y="35.85">y</tspan><tspan x="66.18" y="35.85">, but that </tspan><tspan class="cls-21" x="127.02" y="35.85">r</tspan><tspan x="131.91" y="35.85">esume speaks for itself.</tspan><tspan x="0" y="71.71">lin</tspan><tspan class="cls-17" x="14.9" y="71.71">k</tspan><tspan class="cls-4" x="22.07" y="71.71">ed.com/pub/a23/sandie-blaswella</tspan><tspan x="0" y="89.63">sandie@blaswella.com</tspan></text><text class="cls-22" transform="translate(1225.61 979.21)">SEND</text><text class="cls-23" transform="translate(686.14 977.08)">r<tspan class="cls-24" x="5.84" y="0">esume.pdf</tspan></text><text class="cls-25" transform="translate(652.02 981.96)"></text><text class="cls-26" transform="translate(634.83 607.35)"></text></g><g id="_4_Adding" data-name="4 Adding"><text class="cls-27" transform="translate(508.82 56.83)">Candidates</text><text class="cls-27" transform="translate(658.81 56.83)">Connecting</text><text class="cls-28" transform="translate(829.8 56.83)">Adding Candidates</text><text class="cls-27" transform="translate(1066.79 56.83)">Confirming Candidates</text><text class="cls-27" transform="translate(1327.77 56.83)">Endorsements</text><text class="cls-29" transform="translate(508.5 193.99)">Adding Candidates</text><text class="cls-30" transform="translate(508.5 264.35)"><tspan class="cls-31">Y</tspan><tspan x="10.24" y="0">ou can fo</tspan><tspan class="cls-32" x="85" y="0">r</tspan><tspan x="91.24" y="0">wa</tspan><tspan class="cls-33" x="114.56" y="0">r</tspan><tspan x="120.48" y="0">d candidates </tspan><tspan class="cls-34" x="227.85" y="0">t</tspan><tspan x="233.55" y="0">o Up</tspan><tspan class="cls-35" x="270.04" y="0">K</tspan><tspan x="281.13" y="0">nown di</tspan><tspan class="cls-33" x="343.76" y="0">r</tspan><tspan x="349.68" y="0">ectly f</tspan><tspan class="cls-34" x="398.11" y="0">r</tspan><tspan x="404.02" y="0">om </tspan><tspan class="cls-36" x="434.52" y="0">y</tspan><tspan x="442.91" y="0">our inb</tspan><tspan class="cls-37" x="498.04" y="0">o</tspan><tspan x="508.12" y="0">x.</tspan><tspan x="0" y="31.6">Include: </tspan><tspan class="cls-38" x="0" y="63.2">	</tspan><tspan x="33.71" y="63.2">candidat</tspan><tspan class="cls-39" x="103.2" y="63.2">e</tspan><tspan class="cls-40" x="112.03" y="63.2">’</tspan><tspan x="114.64" y="63.2">s name &amp; email</tspan><tspan class="cls-38" x="0" y="94.8">	</tspan><tspan x="33.71" y="94.8">a note about the candidate</tspan><tspan class="cls-38" x="0" y="126.4">	</tspan><tspan x="33.71" y="126.4">public Lin</tspan><tspan class="cls-34" x="110.43" y="126.4">k</tspan><tspan x="119.38" y="126.4">edIn p</tspan><tspan class="cls-34" x="168.45" y="126.4">r</tspan><tspan x="174.36" y="126.4">ofile</tspan><tspan class="cls-38" x="0" y="158">	</tspan><tspan x="33.71" y="158">attached </tspan><tspan class="cls-33" x="108.53" y="158">r</tspan><tspan x="114.45" y="158">esume</tspan><tspan class="cls-41"><tspan x="0" y="189.6">Send the email below </tspan><tspan class="cls-42" x="177.38" y="189.6">t</tspan><tspan x="183.2" y="189.6">o see how it works!</tspan></tspan></text><text class="cls-27" transform="translate(508.5 510.34)">This is an example. It will not add a candidate.<tspan class="cls-41"><tspan x="0" y="25.2">UpKnown will n</tspan><tspan class="cls-43" x="144.16" y="25.2">ev</tspan><tspan x="165.86" y="25.2">er p</tspan><tspan class="cls-33" x="201.92" y="25.2">r</tspan><tspan x="209.38" y="25.2">etend </tspan><tspan class="cls-42" x="268.01" y="25.2">t</tspan><tspan x="274.79" y="25.2">o be </tspan><tspan class="cls-36" x="320.3" y="25.2">y</tspan><tspan x="330.69" y="25.2">ou in an email.</tspan></tspan></text><rect class="cls-8" x="0.5" y="0.5" width="2000" height="100.33"/><rect class="cls-44" x="1921.1" y="27.86" width="45.68" height="45.68" rx="2.32" ry="2.32"/><text class="cls-28" transform="translate(1806.57 55.83)">St<tspan class="cls-33" x="20.01" y="0">r</tspan><tspan x="27.47" y="0">eam</tspan></text><text class="cls-27" transform="translate(113.16 56.83)">Onboa<tspan class="cls-33" x="61.21" y="0">r</tspan><tspan x="68.12" y="0">ding Bar!</tspan></text><text class="cls-27" transform="translate(323.15 56.83)"><tspan class="cls-31">Y</tspan><tspan x="11.95" y="0">our St</tspan><tspan class="cls-33" x="67.12" y="0">r</tspan><tspan x="74.03" y="0">eam</tspan></text><circle class="cls-8" cx="1944" cy="43.69" r="8.21"/><path class="cls-8" d="M1944,52.38A13.32,13.32,0,0,0,1930.38,66h27.24A13.32,13.32,0,0,0,1944,52.38Z"/></g></g></svg>