<svg xmlns="http://www.w3.org/2000/svg" viewBox="0 0 2001 1210.69"><defs><style>.cls-1,.cls-2,.cls-61{fill:none;}.cls-1{stroke:#ccc;}.cls-1,.cls-2,.cls-3,.cls-61{stroke-miterlimit:10;}.cls-2,.cls-3,.cls-61{stroke:#000;}.cls-3{fill:#fff;}.cls-29,.cls-4,.cls-7{font-size:18.5px;}.cls-4{fill:gray;}.cls-13,.cls-17,.cls-18,.cls-21,.cls-23,.cls-25,.cls-4,.cls-47,.cls-50{font-family:Roboto-Regular, Roboto;}.cls-5{letter-spacing:-0.01em;}.cls-6{letter-spacing:-0.01em;}.cls-12,.cls-14,.cls-23,.cls-25,.cls-33,.cls-7{fill:#4d4d4d;}.cls-12,.cls-33,.cls-49,.cls-7{font-family:Roboto-Light, Roboto;}.cls-8{letter-spacing:-0.01em;}.cls-9{letter-spacing:0.01em;}.cls-10{letter-spacing:-0.01em;}.cls-11{letter-spacing:0em;}.cls-12,.cls-25{font-size:19.13px;}.cls-14{font-size:25.51px;font-family:Roboto-Medium, Roboto;}.cls-15{letter-spacing:-0.01em;}.cls-16{letter-spacing:0em;}.cls-17{letter-spacing:0em;}.cls-18{letter-spacing:-0.01em;}.cls-19,.cls-21{letter-spacing:-0.01em;}.cls-20{letter-spacing:0em;}.cls-22{letter-spacing:-0.06em;}.cls-23{font-size:14.58px;letter-spacing:-0.03em;}.cls-24{letter-spacing:0em;}.cls-26{letter-spacing:-0.01em;}.cls-27{letter-spacing:-0.06em;}.cls-28{letter-spacing:0em;}.cls-29{font-family:FontAwesome, FontAwesome;}.cls-30{letter-spacing:-0.01em;}.cls-31{letter-spacing:-0.01em;}.cls-32{letter-spacing:-0.01em;}.cls-33{font-size:16.4px;}.cls-34{letter-spacing:-0.01em;}.cls-35{letter-spacing:0em;}.cls-36{letter-spacing:-0.01em;}.cls-37{letter-spacing:-0.01em;}.cls-38{letter-spacing:0em;}.cls-39{letter-spacing:-0.01em;}.cls-40{letter-spacing:-0.01em;}.cls-41{letter-spacing:-0.01em;}.cls-42{letter-spacing:-0.04em;}.cls-43{letter-spacing:-0.05em;}.cls-44{letter-spacing:0em;}.cls-45{letter-spacing:-0.01em;}.cls-46{letter-spacing:0em;}.cls-47,.cls-48{font-size:21px;}.cls-48,.cls-59{font-family:Roboto-Bold, Roboto;font-weight:700;}.cls-49{font-size:59px;}.cls-50,.cls-59{font-size:18px;}.cls-51{letter-spacing:-0.01em;}.cls-52{letter-spacing:-0.01em;}.cls-53{letter-spacing:-0.01em;}.cls-54{letter-spacing:-0.01em;}.cls-55{letter-spacing:-0.01em;}.cls-56{letter-spacing:-0.02em;}.cls-57{letter-spacing:-0.03em;}.cls-58{letter-spacing:-0.01em;}.cls-60{letter-spacing:-0.01em;}.cls-61{stroke-width:0.64px;}</style></defs><title>ob-6</title><g id="Layer_2" data-name="Layer 2"><g id="_0_Welcome" data-name="0 Welcome"><line class="cls-1" x1="518.5" y1="240.84" x2="1447.5" y2="240.84"/></g><g id="_5_Confirming_Candidates" data-name="5 Confirming Candidates"><rect class="cls-2" x="553.44" y="510.98" width="861.13" height="699.2" rx="33.36" ry="33.36"/><rect class="cls-3" x="592.88" y="579.73" width="782.25" height="43.68" rx="9.23" ry="9.23"/><text class="cls-4" transform="translate(614.67 609.35)"><tspan class="cls-5">F</tspan><tspan class="cls-6" x="9.99" y="0">r</tspan><tspan x="16.07" y="0">om</tspan></text><rect class="cls-3" x="592.88" y="638.99" width="782.25" height="43.68" rx="9.23" ry="9.23"/><text class="cls-4" transform="translate(614.67 667.29)">Subject</text><rect class="cls-2" x="592.88" y="707.48" width="782.25" height="462.59" rx="13.93" ry="13.93"/><rect class="cls-3" x="877.66" y="1112.51" width="210.53" height="43.66" rx="2.22" ry="2.22"/><path class="cls-2" d="M581.14,511h805.73a27.7,27.7,0,0,1,27.7,27.7V554a0,0,0,0,1,0,0H553.44a0,0,0,0,1,0,0V538.68a27.7,27.7,0,0,1,27.7-27.7Z"/><text class="cls-7" transform="translate(720.55 667.29)">Sandie Blaswella - Does <tspan class="cls-8" x="196.13" y="0">ev</tspan><tspan x="214.35" y="0">e</tspan><tspan class="cls-9" x="223.91" y="0">r</tspan><tspan x="230.29" y="0">ything look cor</tspan><tspan class="cls-10" x="348.77" y="0">r</tspan><tspan class="cls-11" x="354.82" y="0">ect?</tspan></text><text class="cls-12" transform="translate(648.12 805.32)">Name:<tspan class="cls-13" x="54.69" y="0" xml:space="preserve"> Sandie Blaswella</tspan></text><text class="cls-14" transform="translate(648.12 757.94)">Is the following information cor<tspan class="cls-15" x="357.16" y="0">r</tspan><tspan class="cls-16" x="365.89" y="0">ect?</tspan></text><text class="cls-12" transform="translate(648.12 841.19)">Email:<tspan class="cls-13" x="50.68" y="0" xml:space="preserve"> sandie@blaswella.com</tspan></text><text class="cls-12" transform="translate(648.12 948.81)">Resume:<tspan class="cls-17" x="73.09" y="0"> </tspan><tspan class="cls-18" x="77.82" y="0">r</tspan><tspan class="cls-13" x="84.12" y="0">esume.pdf</tspan></text><text class="cls-12" transform="translate(648.12 877.06)">Lin<tspan class="cls-19" x="24.88" y="0">k</tspan><tspan class="cls-20" x="34.06" y="0">edIn:</tspan><tspan class="cls-17" x="74.2" y="0" xml:space="preserve"> lin</tspan><tspan class="cls-21" x="98.78" y="0">k</tspan><tspan class="cls-13" x="108.29" y="0">edin.com/pub/sblaswella</tspan></text><text class="cls-12" transform="translate(648.12 912.94)"><tspan class="cls-22">T</tspan><tspan x="10.37" y="0">ags:</tspan></text><text class="cls-23" transform="translate(648.25 997.1)">Y<tspan class="cls-24" x="8.29" y="0">our notes on Sandy</tspan></text><text class="cls-25" transform="translate(887.68 1139.93)">CONFIRM CANDI<tspan class="cls-26" x="144.58" y="0">D</tspan><tspan class="cls-27" x="156.93" y="0">A</tspan><tspan class="cls-28" x="168.2" y="0">TE</tspan></text><text class="cls-7" transform="translate(699.41 608.16)">s.nassus@summoners.com</text><text class="cls-29" transform="translate(595.08 538.08)"></text><line class="cls-2" x1="648.5" y1="974.84" x2="1317.5" y2="974.84"/><line class="cls-2" x1="648.5" y1="1091.84" x2="1317.5" y2="1091.84"/><text class="cls-25" transform="translate(699.41 912.94)">#mar<tspan class="cls-19" x="45.43" y="0">k</tspan><tspan x="54.94" y="0">eting #seo #con</tspan><tspan class="cls-30" x="192.7" y="0">v</tspan><tspan x="201.85" y="0">ersion #co</tspan><tspan class="cls-31" x="291.88" y="0">p</tspan><tspan x="302.51" y="0">ywriting #cmo #datadri</tspan><tspan class="cls-32" x="499.74" y="0">v</tspan><tspan x="508.89" y="0">en </tspan></text><text class="cls-33" transform="translate(648.25 1028.14)"><tspan xml:space="preserve">              Sandie is an experienced mar</tspan><tspan class="cls-34" x="265.88" y="0">k</tspan><tspan class="cls-35" x="273.75" y="0">eter who just m</tspan><tspan class="cls-36" x="384.85" y="0">o</tspan><tspan class="cls-37" x="393.92" y="0">v</tspan><tspan class="cls-38" x="401.7" y="0">ed </tspan><tspan class="cls-39" x="423.28" y="0">t</tspan><tspan class="cls-38" x="428.39" y="0">o Boulder f</tspan><tspan class="cls-39" x="506" y="0">r</tspan><tspan x="511.35" y="0">om the midwest, </tspan><tspan x="0" y="19.68">looking for something small and fast-paced. H</tspan><tspan class="cls-40" x="330.26" y="19.68">a</tspan><tspan class="cls-41" x="338.92" y="19.68">v</tspan><tspan class="cls-35" x="346.7" y="19.68">e</tspan><tspan class="cls-42" x="355.18" y="19.68">n</tspan><tspan x="363.54" y="19.68">’t wor</tspan><tspan class="cls-39" x="402.78" y="19.68">k</tspan><tspan class="cls-38" x="410.66" y="19.68">ed with Sandie personall</tspan><tspan class="cls-43" x="585" y="19.68">y</tspan><tspan class="cls-44" x="591.93" y="19.68">, but that </tspan><tspan class="cls-45"><tspan x="0" y="39.36">r</tspan><tspan class="cls-46" x="5.37" y="39.36">esume speaks for itself.</tspan></tspan></text><text class="cls-47" transform="translate(508.82 56.83)">Candidates</text><text class="cls-47" transform="translate(658.81 56.83)">Connecting</text><text class="cls-47" transform="translate(829.8 56.83)">Adding Candidates</text><text class="cls-48" transform="translate(1066.79 56.83)">Confirming Candidates</text><text class="cls-47" transform="translate(1327.77 56.83)">Endorsements</text><text class="cls-49" transform="translate(518.5 193.99)">Confirming Candidates</text><text class="cls-50" transform="translate(518.5 297.35)">When Up<tspan class="cls-51" x="71.58" y="0">K</tspan><tspan x="82.66" y="0">nown </tspan><tspan class="cls-52" x="130.77" y="0">r</tspan><tspan x="136.7" y="0">ecei</tspan><tspan class="cls-53" x="169.56" y="0">v</tspan><tspan x="178.16" y="0">es a candidate f</tspan><tspan class="cls-54" x="305.41" y="0">r</tspan><tspan x="311.33" y="0">om </tspan><tspan class="cls-55" x="341.82" y="0">y</tspan><tspan x="350.21" y="0">ou, OUR AI JER</tspan><tspan class="cls-56" x="470.31" y="0">R</tspan><tspan x="480.97" y="0">Y parses the email then sends </tspan><tspan class="cls-55" x="725.21" y="0">y</tspan><tspan x="733.6" y="0">ou a confirmation email.</tspan><tspan class="cls-57" x="0" y="31.6">Y</tspan><tspan x="10.24" y="31.6">ou can edit any incor</tspan><tspan class="cls-52" x="175.65" y="31.6">r</tspan><tspan x="181.57" y="31.6">ect information (unli</tspan><tspan class="cls-54" x="342.98" y="31.6">k</tspan><tspan x="351.93" y="31.6">ely) </tspan><tspan class="cls-58" x="385.07" y="31.6">b</tspan><tspan x="395.07" y="31.6">y clicking the edit but</tspan><tspan class="cls-54" x="563.68" y="31.6">t</tspan><tspan x="569.38" y="31.6">ons next </tspan><tspan class="cls-54" x="642.04" y="31.6">t</tspan><tspan x="647.75" y="31.6">o the information.</tspan><tspan x="0" y="63.2">Click on the confirm candidate but</tspan><tspan class="cls-54" x="273.83" y="63.2">t</tspan><tspan x="279.54" y="63.2">on </tspan><tspan class="cls-54" x="304.19" y="63.2">t</tspan><tspan x="309.89" y="63.2">o continue adding </tspan><tspan class="cls-55" x="457.28" y="63.2">y</tspan><tspan x="465.66" y="63.2">our candidate.</tspan></text><text class="cls-59" transform="translate(518.5 442.84)">This is an example confirmation. No candidates will be added <tspan class="cls-60" x="500.58" y="0">t</tspan><tspan x="506.4" y="0">o </tspan><tspan class="cls-55" x="521.06" y="0">y</tspan><tspan x="529.96" y="0">our st</tspan><tspan class="cls-52" x="576.6" y="0">r</tspan><tspan x="583" y="0">eam. </tspan></text><rect class="cls-2" x="0.5" y="0.5" width="2000" height="100.33"/><rect class="cls-61" x="1921.1" y="27.86" width="45.68" height="45.68" rx="2.32" ry="2.32"/><text class="cls-48" transform="translate(1806.57 55.83)">St<tspan class="cls-52" x="20.01" y="0">r</tspan><tspan x="27.47" y="0">eam</tspan></text><text class="cls-47" transform="translate(113.16 56.83)">Onboa<tspan class="cls-52" x="61.21" y="0">r</tspan><tspan x="68.12" y="0">ding Bar!</tspan></text><text class="cls-47" transform="translate(323.15 56.83)"><tspan class="cls-57">Y</tspan><tspan x="11.95" y="0">our St</tspan><tspan class="cls-52" x="67.12" y="0">r</tspan><tspan x="74.03" y="0">eam</tspan></text><circle class="cls-2" cx="1944" cy="43.69" r="8.21"/><path class="cls-2" d="M1944,52.22a13.32,13.32,0,0,0-13.62,13.62h27.24A13.32,13.32,0,0,0,1944,52.22Z"/></g></g></svg>