<svg xmlns="http://www.w3.org/2000/svg" viewBox="0 0 2001 846.07"><defs><style>.cls-1,.cls-8{font-size:18px;}.cls-1,.cls-6{font-family:Roboto-Bold, Roboto;font-weight:700;}.cls-2{letter-spacing:-0.01em;}.cls-3{letter-spacing:-0.01em;}.cls-4{letter-spacing:-0.06em;}.cls-5,.cls-6{font-size:21px;}.cls-5,.cls-8{font-family:Roboto-Regular, Roboto;}.cls-7{font-size:59px;}.cls-14,.cls-7{font-family:Roboto-Light, Roboto;}.cls-9{letter-spacing:-0.01em;}.cls-10{letter-spacing:0.02em;}.cls-11{letter-spacing:-0.01em;}.cls-12{letter-spacing:0.02em;}.cls-13{letter-spacing:-0.03em;}.cls-14{font-size:28px;}.cls-15,.cls-16,.cls-18{fill:none;stroke-miterlimit:10;}.cls-15,.cls-16{stroke:#000;}.cls-16{stroke-width:0.64px;}.cls-17{fill:#ccc;}.cls-18{stroke:#ccc;}</style></defs><title>ob-7</title><g id="Layer_2" data-name="Layer 2"><g id="_5_Confirming_Candidates" data-name="5 Confirming Candidates"><text class="cls-1" transform="translate(540.38 462.94)">Select a st<tspan class="cls-2" x="84.72" y="0">r</tspan><tspan x="91.12" y="0">ength l</tspan><tspan class="cls-3" x="146.61" y="0">ev</tspan><tspan x="165.21" y="0">el on the wifi symbol belo</tspan><tspan class="cls-4" x="371.26" y="0">w</tspan><tspan x="383.4" y="0">.</tspan></text></g><g id="_6_Endorsing" data-name="6 Endorsing"><text class="cls-5" transform="translate(508.82 56.83)">Candidates</text><text class="cls-5" transform="translate(658.81 56.83)">Connecting</text><text class="cls-5" transform="translate(829.8 56.83)">Adding Candidates</text><text class="cls-5" transform="translate(1066.79 56.83)">Confirming Candidates</text><text class="cls-6" transform="translate(1327.77 56.83)">Endorsements</text><text class="cls-7" transform="translate(541.74 212)">Endorsements</text><text class="cls-8" transform="translate(541.74 298.85)">When <tspan class="cls-9" x="49.81" y="0">y</tspan><tspan x="58.19" y="0">ou confirm a candidate, </tspan><tspan class="cls-9" x="250.66" y="0">y</tspan><tspan x="259.04" y="0">ou</tspan><tspan class="cls-10" x="279.23" y="0">’</tspan><tspan x="283.1" y="0">ll be as</tspan><tspan class="cls-11" x="339.46" y="0">k</tspan><tspan x="348.41" y="0">ed </tspan><tspan class="cls-11" x="372.55" y="0">t</tspan><tspan x="378.25" y="0">o clarify the st</tspan><tspan class="cls-2" x="491.19" y="0">r</tspan><tspan x="497.11" y="0">ength of </tspan><tspan class="cls-9" x="567.9" y="0">y</tspan><tspan x="576.28" y="0">our </tspan><tspan class="cls-2" x="607.02" y="0">r</tspan><tspan x="612.94" y="0">elationship.</tspan><tspan x="0" y="31.6">Indicate how well </tspan><tspan class="cls-9" x="142.85" y="31.6">y</tspan><tspan x="151.23" y="31.6">ou know them using the wifi bars, or le</tspan><tspan class="cls-9" x="457.52" y="31.6">a</tspan><tspan class="cls-3" x="467.18" y="31.6">v</tspan><tspan x="475.79" y="31.6">e it blank if </tspan><tspan class="cls-9" x="567.33" y="31.6">y</tspan><tspan x="575.71" y="31.6">ou’</tspan><tspan class="cls-2" x="599.49" y="31.6">r</tspan><tspan x="605.42" y="31.6">e uncomfo</tspan><tspan class="cls-12" x="691.24" y="31.6">r</tspan><tspan x="697.77" y="31.6">table.</tspan><tspan class="cls-13" x="0" y="94.8">Y</tspan><tspan x="10.24" y="94.8">our connections will see what </tspan><tspan class="cls-9" x="251.13" y="94.8">y</tspan><tspan x="259.51" y="94.8">ou s</tspan><tspan class="cls-9" x="293.44" y="94.8">a</tspan><tspan x="303.1" y="94.8">y about the candidate, but the candidate themsel</tspan><tspan class="cls-3" x="691.2" y="94.8">v</tspan><tspan x="699.8" y="94.8">es will not.</tspan></text><text class="cls-14" transform="translate(751.57 565.8)">How well do <tspan class="cls-9" x="156.39" y="0">y</tspan><tspan x="169.49" y="0">ou know Sandie Blaswella?</tspan></text><rect class="cls-15" x="0.5" y="0.5" width="2000" height="100.33"/><rect class="cls-16" x="1921.1" y="27.86" width="45.68" height="45.68" rx="2.32" ry="2.32"/><text class="cls-6" transform="translate(1806.57 55.83)">St<tspan class="cls-2" x="20.01" y="0">r</tspan><tspan x="27.47" y="0">eam</tspan></text><text class="cls-5" transform="translate(113.16 56.83)">Onboa<tspan class="cls-2" x="61.21" y="0">r</tspan><tspan x="68.12" y="0">ding Bar!</tspan></text><text class="cls-5" transform="translate(323.15 56.83)"><tspan class="cls-13">Y</tspan><tspan x="11.95" y="0">our St</tspan><tspan class="cls-2" x="67.12" y="0">r</tspan><tspan x="74.03" y="0">eam</tspan></text><circle class="cls-15" cx="1944" cy="43.69" r="8.21"/><path class="cls-15" d="M1944,52.38A13.32,13.32,0,0,0,1930.38,66h27.24A13.32,13.32,0,0,0,1944,52.38Z"/><path class="cls-17" d="M1160.15,685.24l-.48-.48a224.7,224.7,0,0,0-317.78,0,3.56,3.56,0,0,0-1,2.42,3.28,3.28,0,0,0,1,2.42l23.23,23.23a3.56,3.56,0,0,0,2.42,1,3.28,3.28,0,0,0,2.42-1,185.18,185.18,0,0,1,261.64.16,3.56,3.56,0,0,0,2.42,1,3.28,3.28,0,0,0,2.42-1l23.39-23.23a3.56,3.56,0,0,0,1-2.42A3.24,3.24,0,0,0,1160.15,685.24Z"/><path class="cls-17" d="M1000.77,680.4a162.17,162.17,0,0,0-115.5,47.91,3.71,3.71,0,0,0,0,5l23.23,23.07a3.56,3.56,0,0,0,2.42,1,3.28,3.28,0,0,0,2.42-1,123.45,123.45,0,0,1,174.7.16,3.51,3.51,0,0,0,4.84,0l23.39-23.23a3.51,3.51,0,0,0,0-4.84A161.66,161.66,0,0,0,1000.77,680.4Z"/><path d="M1000.77,741.86a101.3,101.3,0,0,0-71.94,29.84,3.56,3.56,0,0,0-1,2.42,3.28,3.28,0,0,0,1,2.42l23.23,23.39a3.51,3.51,0,0,0,4.84,0,61.92,61.92,0,0,1,87.75,0,3.51,3.51,0,0,0,4.84,0l25.65-25.65A101,101,0,0,0,1000.77,741.86Z"/><path d="M1000.77,807a35.27,35.27,0,0,0-25.16,10.49,3.71,3.71,0,0,0,0,5l22.58,22.58a3.56,3.56,0,0,0,2.42,1,3.28,3.28,0,0,0,2.42-1l22.58-22.58a3.71,3.71,0,0,0,0-5A34,34,0,0,0,1000.77,807Z"/><line class="cls-18" x1="541.5" y1="248" x2="1402.5" y2="248"/></g></g></svg>