<svg xmlns="http://www.w3.org/2000/svg" viewBox="0 0 2001 797.11"><defs><style>.cls-1,.cls-19,.cls-20{fill:none;stroke-miterlimit:10;}.cls-1{stroke:#ccc;}.cls-2,.cls-21,.cls-29{font-size:21px;}.cls-2,.cls-26,.cls-4{font-family:Roboto-Regular, Roboto;}.cls-3{font-size:59px;}.cls-24,.cls-27,.cls-28,.cls-29,.cls-3{font-family:Roboto-Light, Roboto;}.cls-23,.cls-4{font-size:18px;}.cls-5{letter-spacing:-0.01em;}.cls-6{letter-spacing:-0.01em;}.cls-7{letter-spacing:-0.08em;}.cls-8{letter-spacing:-0.01em;}.cls-9{letter-spacing:-0.01em;}.cls-10{letter-spacing:-0.01em;}.cls-11{letter-spacing:-0.04em;}.cls-12{letter-spacing:-0.05em;}.cls-13{letter-spacing:-0.01em;}.cls-14{letter-spacing:-0.01em;}.cls-15{letter-spacing:-0.05em;}.cls-16{letter-spacing:0.02em;}.cls-17{letter-spacing:-0.01em;}.cls-18{letter-spacing:-0.03em;}.cls-19,.cls-20{stroke:#000;}.cls-20{stroke-width:0.64px;}.cls-21,.cls-23{font-family:Roboto-Bold, Roboto;font-weight:700;}.cls-22,.cls-24{font-size:25px;}.cls-22{font-family:Roboto-Medium, Roboto;}.cls-25{letter-spacing:-0.02em;}.cls-26,.cls-27{font-size:14px;}.cls-28{font-size:24px;}.cls-30{letter-spacing:-0.04em;}.cls-31{letter-spacing:-0.02em;}.cls-32{letter-spacing:0.01em;}</style></defs><title>ob-8</title><g id="Layer_2" data-name="Layer 2"><g id="_6_Endorsing" data-name="6 Endorsing"><line class="cls-1" x1="569.5" y1="280" x2="1430.5" y2="280"/></g><g id="_7_Finish" data-name="7 Finish"><text class="cls-2" transform="translate(508.82 56.83)">Candidates</text><text class="cls-2" transform="translate(658.81 56.83)">Connecting</text><text class="cls-2" transform="translate(829.8 56.83)">Adding Candidates</text><text class="cls-2" transform="translate(1066.79 56.83)">Confirming Candidates</text><text class="cls-2" transform="translate(1327.77 56.83)">Endorsements</text><text class="cls-3" transform="translate(890.67 234.27)">All done!</text><text class="cls-4" transform="translate(641.51 760.64)">H<tspan class="cls-5" x="12.83" y="0">a</tspan><tspan class="cls-6" x="22.49" y="0">v</tspan><tspan x="31.1" y="0">e questions? Check out the </tspan><tspan class="cls-7" x="251.22" y="0">F</tspan><tspan class="cls-8" x="259.67" y="0">A</tspan><tspan x="271.32" y="0">Q for a mo</tspan><tspan class="cls-9" x="355.5" y="0">r</tspan><tspan x="361.42" y="0">e expansi</tspan><tspan class="cls-6" x="437.34" y="0">v</tspan><tspan x="445.95" y="0">e rundown of Up</tspan><tspan class="cls-10" x="576.96" y="0">K</tspan><tspan x="588.04" y="0">now</tspan><tspan class="cls-11" x="621.76" y="0">n</tspan><tspan class="cls-12" x="630.99" y="0">’</tspan><tspan x="633.6" y="0">s </tspan><tspan class="cls-13" x="647.34" y="0">f</tspan><tspan x="653.38" y="0">eatu</tspan><tspan class="cls-9" x="688.51" y="0">r</tspan><tspan x="694.43" y="0">es.</tspan><tspan class="cls-14" x="167.12" y="31.6">F</tspan><tspan x="176.88" y="31.6">eedback? Email us at founders@upknown.com</tspan></text><text class="cls-4" transform="translate(569.5 335.13)"><tspan class="cls-15">T</tspan><tspan x="9.87" y="0">o get </tspan><tspan class="cls-5" x="54.56" y="0">y</tspan><tspan x="62.95" y="0">ou sta</tspan><tspan class="cls-16" x="112.54" y="0">r</tspan><tspan x="119.07" y="0">ted, w</tspan><tspan class="cls-11" x="166.16" y="0">e</tspan><tspan x="174.99" y="0">’</tspan><tspan class="cls-6" x="178.58" y="0">v</tspan><tspan x="187.19" y="0">e gi</tspan><tspan class="cls-6" x="215.65" y="0">v</tspan><tspan x="224.25" y="0">en </tspan><tspan class="cls-5" x="248.18" y="0">y</tspan><tspan x="256.56" y="0">ou access </tspan><tspan class="cls-17" x="342.4" y="0">t</tspan><tspan x="348.1" y="0">o our candidate st</tspan><tspan class="cls-9" x="492.2" y="0">r</tspan><tspan x="498.12" y="0">eams.</tspan><tspan class="cls-18" x="0" y="31.6">Y</tspan><tspan x="10.24" y="31.6">ou can manage </tspan><tspan class="cls-5" x="137.87" y="31.6">y</tspan><tspan x="146.25" y="31.6">our follows </tspan><tspan class="cls-8" x="239.77" y="31.6">b</tspan><tspan x="249.77" y="31.6">y clicking on </tspan><tspan class="cls-5" x="352.95" y="31.6">y</tspan><tspan x="361.34" y="31.6">our p</tspan><tspan class="cls-17" x="402.17" y="31.6">r</tspan><tspan x="408.08" y="31.6">ofile and selecting “Connections”.</tspan></text><rect class="cls-19" x="0.5" y="0.5" width="2000" height="100.33"/><rect class="cls-20" x="1921.1" y="27.86" width="45.68" height="45.68" rx="2.32" ry="2.32"/><text class="cls-21" transform="translate(1806.57 55.83)">St<tspan class="cls-9" x="20.01" y="0">r</tspan><tspan x="27.47" y="0">eam</tspan></text><text class="cls-2" transform="translate(113.16 56.83)">Onboa<tspan class="cls-9" x="61.21" y="0">r</tspan><tspan x="68.12" y="0">ding Bar!</tspan></text><text class="cls-2" transform="translate(323.15 56.83)"><tspan class="cls-18">Y</tspan><tspan x="11.95" y="0">our St</tspan><tspan class="cls-9" x="67.12" y="0">r</tspan><tspan x="74.03" y="0">eam</tspan></text><circle class="cls-19" cx="1944" cy="43.69" r="8.21"/><path class="cls-19" d="M1944,52.38A13.32,13.32,0,0,0,1930.38,66h27.24A13.32,13.32,0,0,0,1944,52.38Z"/><text class="cls-22" transform="translate(585.1 570.86)">133</text><text class="cls-22" transform="translate(704.5 570.86)">NaN</text><text class="cls-4" transform="translate(704.64 592.37)">Endorsements</text><text class="cls-4" transform="translate(586.88 592.37)"><tspan class="cls-14">F</tspan><tspan x="9.76" y="0">ollowers</tspan></text><text class="cls-23" transform="translate(666.53 630.36)"><tspan class="cls-14">F</tspan><tspan x="9.68" y="0">ollowing</tspan></text><line class="cls-19" x1="570.5" y1="606" x2="842.5" y2="606"/><line class="cls-19" x1="585.5" y1="538" x2="825.5" y2="538"/><rect class="cls-20" x="585.1" y="432.86" width="87.3" height="87.3" rx="4.44" ry="4.44"/><circle class="cls-19" cx="628.87" cy="463.11" r="15.7"/><path class="cls-19" d="M628.87,479a26.28,26.28,0,0,0-26,26H654.9A26.28,26.28,0,0,0,628.87,479Z"/><rect class="cls-19" x="570.5" y="418.5" width="271.84" height="223.59"/><text class="cls-24" transform="translate(690.43 451.11)"><tspan class="cls-25">L</tspan><tspan x="12.63" y="0">u</tspan><tspan class="cls-17" x="26.37" y="0">k</tspan><tspan x="38.37" y="0">e </tspan><tspan class="cls-25" x="57.36" y="0">V</tspan><tspan x="72.24" y="0">ernon</tspan></text><text class="cls-26" transform="translate(690.43 475.11)"><tspan class="cls-14">F</tspan><tspan x="7.59" y="0">ounder @ Up</tspan><tspan class="cls-10" x="87.51" y="0">K</tspan><tspan x="96.13" y="0">nown</tspan></text><text class="cls-27" transform="translate(690.43 498.83)">Boulder</text><text class="cls-22" transform="translate(877.6 570.86)">45</text><text class="cls-22" transform="translate(990.24 570.86)">27</text><text class="cls-4" transform="translate(990.24 592.37)">Endorsements</text><text class="cls-4" transform="translate(877.6 592.37)"><tspan class="cls-14">F</tspan><tspan x="9.76" y="0">ollowers</tspan></text><text class="cls-23" transform="translate(959.03 630.36)"><tspan class="cls-14">F</tspan><tspan x="9.68" y="0">ollowing</tspan></text><line class="cls-19" x1="862.5" y1="606" x2="1134.5" y2="606"/><line class="cls-19" x1="877.5" y1="538" x2="1117.5" y2="538"/><rect class="cls-20" x="877.6" y="432.86" width="87.3" height="87.3" rx="4.44" ry="4.44"/><circle class="cls-19" cx="921.37" cy="463.11" r="15.7"/><path class="cls-19" d="M921.37,479a26.28,26.28,0,0,0-26,26H947.4A26.28,26.28,0,0,0,921.37,479Z"/><rect class="cls-19" x="863" y="418.5" width="271.84" height="223.59"/><text class="cls-28" transform="translate(982.93 451.11)">Danny Glunz</text><text class="cls-26" transform="translate(982.93 475.11)"><tspan class="cls-14">F</tspan><tspan x="7.59" y="0">ounder @ Up</tspan><tspan class="cls-10" x="87.51" y="0">K</tspan><tspan x="96.13" y="0">nown</tspan></text><text class="cls-27" transform="translate(982.93 498.83)">Den<tspan class="cls-6" x="24.09" y="0">v</tspan><tspan x="30.73" y="0">er</tspan></text><text class="cls-22" transform="translate(1170.96 570.86)">2</text><text class="cls-22" transform="translate(1282.53 570.86)">14</text><text class="cls-4" transform="translate(1289.64 592.37)">Endorsements</text><text class="cls-4" transform="translate(1170.96 592.37)"><tspan class="cls-14">F</tspan><tspan x="9.76" y="0">ollowers</tspan></text><text class="cls-23" transform="translate(1251.53 630.36)"><tspan class="cls-14">F</tspan><tspan x="9.68" y="0">ollowing</tspan></text><line class="cls-19" x1="1155.5" y1="606" x2="1427.5" y2="606"/><line class="cls-19" x1="1170.5" y1="538" x2="1410.5" y2="538"/><rect class="cls-20" x="1170.1" y="432.86" width="87.3" height="87.3" rx="4.44" ry="4.44"/><circle class="cls-19" cx="1213.87" cy="463.11" r="15.7"/><path class="cls-19" d="M1213.87,479a26.28,26.28,0,0,0-26,26h52.06A26.28,26.28,0,0,0,1213.87,479Z"/><rect class="cls-19" x="1155.5" y="418.5" width="271.84" height="223.59"/><text class="cls-29" transform="translate(1275.43 451.11)"><tspan class="cls-30">T</tspan><tspan class="cls-9" x="11.77" y="0">r</tspan><tspan class="cls-6" x="18.64" y="0">e</tspan><tspan class="cls-5" x="29.36" y="0">v</tspan><tspan x="39.3" y="0">or </tspan><tspan class="cls-31" x="63.24" y="0">W</tspan><tspan x="81.72" y="0">aldo</tspan><tspan class="cls-32" x="121.11" y="0">r</tspan><tspan x="128.33" y="0">f</tspan></text><text class="cls-26" transform="translate(1275.43 475.11)">Design @ Up<tspan class="cls-10" x="79.23" y="0">K</tspan><tspan x="87.85" y="0">nown</tspan></text><text class="cls-27" transform="translate(1275.43 498.83)">Boulder</text></g></g></svg>