<svg xmlns="http://www.w3.org/2000/svg" viewBox="0 0 1556.47 1844.2"><defs><style>.cls-1{fill:#2c3e50;}.cls-2{fill:#fff;}.cls-3{font-size:57.31px;}.cls-3,.cls-4,.cls-6{font-family:Roboto-Light, Roboto;}.cls-4,.cls-7{font-size:21px;}.cls-5{fill:none;stroke:#000;stroke-miterlimit:10;}.cls-6,.cls-9{font-size:28px;}.cls-7,.cls-9{font-family:Roboto-Regular, Roboto;}.cls-8{letter-spacing:-0.01em;}.cls-10{letter-spacing:-0.05em;}.cls-11{letter-spacing:-0.01em;}.cls-12{letter-spacing:-0.01em;}.cls-13{letter-spacing:-0.01em;}.cls-14{letter-spacing:-0.01em;}.cls-15{letter-spacing:-0.01em;}.cls-16{letter-spacing:-0.01em;}.cls-17{letter-spacing:-0.01em;}.cls-18{letter-spacing:-0.01em;}.cls-19{letter-spacing:-0.05em;}.cls-20{letter-spacing:-0.03em;}</style></defs><title>usecase</title><g id="Layer_2" data-name="Layer 2"><g id="Layer_2-2" data-name="Layer 2"><path class="cls-1" d="M90.76,36.09a3.67,3.67,0,0,0,3,1.39,3.63,3.63,0,0,0,3-1.39,6,6,0,0,0,1.11-3.81V21.18h4.48V32.42A8.92,8.92,0,0,1,100,39.13a9.32,9.32,0,0,1-12.38,0,8.9,8.9,0,0,1-2.43-6.7V24.78l4.48-3.6v11.1A5.91,5.91,0,0,0,90.76,36.09Z"/><path class="cls-1" d="M115.6,25.55a6.44,6.44,0,0,1,4.82,2.26,8,8,0,0,1,2.11,5.68,8.14,8.14,0,0,1-2.11,5.72,6.52,6.52,0,0,1-4.94,2.3,5.45,5.45,0,0,1-4.56-2.27v5.28L106.6,48.1V25.81h4.31v1.72A6.41,6.41,0,0,1,115.6,25.55Zm-4.74,8a4.48,4.48,0,0,0,1,3.08,3.27,3.27,0,0,0,2.54,1.19,3.48,3.48,0,0,0,2.62-1.19,4.29,4.29,0,0,0,1.12-3.06,4.63,4.63,0,0,0-1.09-3.13,3.35,3.35,0,0,0-2.62-1.26,3.24,3.24,0,0,0-2.57,1.25A4.71,4.71,0,0,0,110.85,33.56Z"/><path class="cls-1" d="M126.17,21.18h4.48v8.25l7.59-8.25h5.55l-8,8.88,3.82,5.36,4.17,5.85h-5.23l-5.89-7.93-2,2.24v5.69h-4.48Z"/><path class="cls-1" d="M150.27,32.65v8.62H146V25.81h4.31v1.72a6,6,0,0,1,4.4-2,5.45,5.45,0,0,1,4.1,1.72,6.37,6.37,0,0,1,1.65,4.6v9.4H156.1V32.54q0-3.56-2.62-3.56a3.14,3.14,0,0,0-2.26.93A3.65,3.65,0,0,0,150.27,32.65Z"/><path class="cls-1" d="M179.79,33.54a7.65,7.65,0,0,1-2.33,5.66,8.59,8.59,0,0,1-11.7,0,8.07,8.07,0,0,1,0-11.34,8.55,8.55,0,0,1,11.7,0A7.7,7.7,0,0,1,179.79,33.54Zm-12,0a4.43,4.43,0,0,0,1.08,3.09,3.79,3.79,0,0,0,5.52,0,4.43,4.43,0,0,0,1.08-3.09,4.49,4.49,0,0,0-1.08-3.1,3.76,3.76,0,0,0-5.52,0A4.49,4.49,0,0,0,167.77,33.54Z"/><path class="cls-1" d="M190.74,41.28h-4.46L181,25.81h4.46l3,9.34,3-9.34h4.17l3,9.34,3-9.34h4.48l-5.26,15.47h-4.48l-2.85-8.42Z"/><path class="cls-1" d="M212.94,32.65v8.62h-4.31V25.81h4.31v1.72a6,6,0,0,1,4.4-2,5.45,5.45,0,0,1,4.1,1.72,6.37,6.37,0,0,1,1.65,4.6v6l-4.31,3.45V32.54q0-3.56-2.62-3.56a3.14,3.14,0,0,0-2.26.93A3.65,3.65,0,0,0,212.94,32.65Z"/><rect class="cls-1" x="0.08" width="62.92" height="62.92" rx="11.64" ry="11.64"/><path d="M48.5,10.9l0,23.9L24.63,10.94,14.32,15.77V28.68l3.89,5.42V46.94L34,62.84H51.8A11.11,11.11,0,0,0,62.91,51.73V25.5Z"/><polygon points="43.42 22.13 45.6 24.31 48.61 24.29 43.42 22.13"/><path class="cls-2" d="M48.86,24.37V10.8H38.27c0,6,4.25,13,9.84,14h-6c-2.14,0-4.26,1.35-4.26,3.49v7.88c0,2.69-.38,4.64-1.5,5.83a6.34,6.34,0,0,1-4.9,1.79c-4.31,0-6.6-2.38-6.6-7.15V28.29a3.5,3.5,0,0,0-3.79-3.49H15c5.46-1,9.83-8,9.83-14H14.86V24.37h0V36.44c0,4.79,1.37,8.56,4.42,11.31s7.12,4.13,12.43,4.13A20.62,20.62,0,0,0,40.78,50a13.53,13.53,0,0,0,6-5.4,16.4,16.4,0,0,0,2.1-8.39V24.37Z"/><text class="cls-3" transform="translate(0.08 204.61) rotate(-0.1)">Networks</text><text class="cls-4" transform="translate(0.08 263.1) rotate(-0.1)">Basic Use Cases</text><line class="cls-5" x1="1004.86" y1="797.3" x2="1295.86" y2="797.3"/><line class="cls-5" x1="1091.86" y1="462.3" x2="1226.86" y2="462.3"/><line class="cls-5" x1="926.86" y1="464.3" x2="1061.86" y2="464.3"/><line class="cls-5" x1="1296.43" y1="796.66" x2="1290.06" y2="790.29"/><line class="cls-5" x1="1296.43" y1="796.66" x2="1289.42" y2="803.67"/><line class="cls-5" x1="1092.25" y1="500.49" x2="1098.62" y2="494.12"/><line class="cls-5" x1="1092.25" y1="500.49" x2="1085.24" y2="493.48"/><line class="cls-5" x1="1062.25" y1="500.49" x2="1068.62" y2="494.12"/><line class="cls-5" x1="1062.25" y1="500.49" x2="1055.24" y2="493.48"/><line class="cls-5" x1="1227.36" y1="412.8" x2="1227.36" y2="462.8"/><line class="cls-5" x1="925.36" y1="412.8" x2="925.36" y2="462.8"/><line class="cls-5" x1="1062.36" y1="463.8" x2="1062.36" y2="496.8"/><line class="cls-5" x1="959.86" y1="927.3" x2="1061.86" y2="927.3"/><line class="cls-5" x1="1099.86" y1="927.3" x2="1170.86" y2="927.3"/><line class="cls-5" x1="641.86" y1="1097.3" x2="651.86" y2="1097.3"/><line class="cls-5" x1="641.86" y1="1136.3" x2="651.86" y2="1136.3"/><line class="cls-5" x1="719.86" y1="1097.3" x2="730.86" y2="1097.3"/><line class="cls-5" x1="719.86" y1="1136.3" x2="730.86" y2="1136.3"/><line class="cls-5" x1="1171.25" y1="963.49" x2="1177.62" y2="957.12"/><line class="cls-5" x1="1171.25" y1="963.49" x2="1164.24" y2="956.48"/><line class="cls-5" x1="958.36" y1="875.8" x2="958.36" y2="925.8"/><line class="cls-5" x1="1171.36" y1="926.8" x2="1171.36" y2="959.8"/><line class="cls-5" x1="768.86" y1="611.3" x2="882.86" y2="611.3"/><line class="cls-5" x1="617.86" y1="611.3" x2="713.86" y2="611.3"/><line class="cls-5" x1="883.25" y1="643.49" x2="889.62" y2="637.12"/><line class="cls-5" x1="883.25" y1="643.49" x2="876.24" y2="636.48"/><line class="cls-5" x1="618.36" y1="412.8" x2="618.36" y2="611.8"/><line class="cls-5" x1="883.36" y1="610.8" x2="883.36" y2="639.8"/><line class="cls-5" x1="883.25" y1="751.49" x2="889.62" y2="745.12"/><line class="cls-5" x1="883.25" y1="751.49" x2="876.24" y2="744.48"/><line class="cls-5" x1="883.36" y1="718.8" x2="883.36" y2="747.8"/><line class="cls-5" x1="927.25" y1="751.49" x2="933.62" y2="745.12"/><line class="cls-5" x1="927.25" y1="751.49" x2="920.24" y2="744.48"/><line class="cls-5" x1="927.36" y1="718.8" x2="927.36" y2="747.8"/><line class="cls-5" x1="1171.25" y1="1676.49" x2="1177.62" y2="1670.12"/><line class="cls-5" x1="1171.25" y1="1676.49" x2="1164.24" y2="1669.48"/><line class="cls-5" x1="1171.36" y1="1643.8" x2="1171.36" y2="1672.8"/><line class="cls-5" x1="682.25" y1="1490.49" x2="688.62" y2="1484.12"/><line class="cls-5" x1="682.25" y1="1490.49" x2="675.24" y2="1483.48"/><line class="cls-5" x1="682.36" y1="1457.8" x2="682.36" y2="1486.8"/><line class="cls-5" x1="682.25" y1="1298.49" x2="688.62" y2="1292.12"/><line class="cls-5" x1="682.25" y1="1298.49" x2="675.24" y2="1291.48"/><line class="cls-5" x1="682.36" y1="1239.8" x2="682.36" y2="1294.8"/><line class="cls-5" x1="1171.25" y1="1235.49" x2="1177.62" y2="1229.12"/><line class="cls-5" x1="1171.25" y1="1235.49" x2="1164.24" y2="1228.48"/><line class="cls-5" x1="1171.36" y1="1202.8" x2="1171.36" y2="1231.8"/><line class="cls-5" x1="973.25" y1="751.49" x2="979.62" y2="745.12"/><line class="cls-5" x1="973.25" y1="751.49" x2="966.24" y2="744.48"/><line class="cls-5" x1="973.36" y1="718.8" x2="973.36" y2="747.8"/><line class="cls-5" x1="1092.36" y1="463.8" x2="1092.36" y2="496.8"/><line class="cls-5" x1="661.86" y1="926.3" x2="896.86" y2="926.3"/><line class="cls-5" x1="662.25" y1="964.49" x2="668.62" y2="958.12"/><line class="cls-5" x1="662.25" y1="964.49" x2="655.24" y2="957.48"/><line class="cls-5" x1="640.99" y1="1097.3" x2="646.45" y2="1103.67"/><line class="cls-5" x1="640.99" y1="1097.3" x2="647" y2="1090.29"/><line class="cls-5" x1="640.99" y1="1136.3" x2="646.45" y2="1142.67"/><line class="cls-5" x1="640.99" y1="1136.3" x2="647" y2="1129.29"/><line class="cls-5" x1="731.86" y1="1097.3" x2="726.4" y2="1103.67"/><line class="cls-5" x1="731.86" y1="1097.3" x2="725.85" y2="1090.29"/><line class="cls-5" x1="731.86" y1="1136.3" x2="726.4" y2="1142.67"/><line class="cls-5" x1="731.86" y1="1136.3" x2="725.85" y2="1129.29"/><line class="cls-5" x1="897.36" y1="876.8" x2="897.36" y2="926.8"/><line class="cls-5" x1="662.36" y1="927.8" x2="662.36" y2="960.8"/><line class="cls-5" x1="700.86" y1="1225.3" x2="799.86" y2="1225.3"/><line class="cls-5" x1="800.36" y1="1205.8" x2="800.36" y2="1225.8"/><line class="cls-5" x1="665.86" y1="1225.3" x2="572.86" y2="1225.3"/><line class="cls-5" x1="572.36" y1="1205.8" x2="572.36" y2="1225.8"/><line class="cls-5" x1="926.86" y1="600.3" x2="986.86" y2="600.3"/><line class="cls-5" x1="1020.86" y1="600.3" x2="1064.86" y2="600.3"/><line class="cls-5" x1="927.25" y1="644.49" x2="933.62" y2="638.12"/><line class="cls-5" x1="927.25" y1="644.49" x2="920.24" y2="637.48"/><line class="cls-5" x1="1065.36" y1="550.8" x2="1065.36" y2="600.8"/><line class="cls-5" x1="927.36" y1="600.8" x2="927.36" y2="640.8"/><line class="cls-5" x1="972.86" y1="627.3" x2="1038.86" y2="627.3"/><line class="cls-5" x1="1072.86" y1="627.3" x2="1089.86" y2="627.3"/><line class="cls-5" x1="973.25" y1="645.49" x2="979.62" y2="639.12"/><line class="cls-5" x1="973.25" y1="645.49" x2="966.24" y2="638.48"/><line class="cls-5" x1="1090.36" y1="550.8" x2="1090.36" y2="627.8"/><line class="cls-5" x1="973.36" y1="628.8" x2="973.36" y2="642.8"/><line class="cls-5" x1="709.86" y1="946.3" x2="926.86" y2="946.3"/><line class="cls-5" x1="710.25" y1="964.49" x2="716.62" y2="958.12"/><line class="cls-5" x1="710.25" y1="964.49" x2="703.24" y2="957.48"/><line class="cls-5" x1="927.36" y1="879.8" x2="927.36" y2="946.8"/><line class="cls-5" x1="710.36" y1="947.8" x2="710.36" y2="961.8"/><text class="cls-6" transform="translate(543.05 351.59) rotate(-0.1)">Job Opening</text><text class="cls-7" transform="translate(512.57 395.59) rotate(-0.1)">iOS d<tspan class="cls-8" x="49.03" y="0">ev</tspan><tspan x="70.06" y="0">eloper @ Bench</tspan></text><rect x="882.86" y="204.8" width="86" height="4"/><rect x="882.86" y="212.8" width="86" height="4"/><circle cx="893.1" cy="229.23" r="5.13"/><path d="M883.84,244.8a9.28,9.28,0,1,1,18.57,0Z"/><path d="M926.48,237.54V227.07h2.73v10.55m-10.21,4a5.15,5.15,0,0,1-1.59-4V227.07h2.73v10.55a3.35,3.35,0,0,0,.8,2.42"/><path d="M938,232.83a3.4,3.4,0,0,0-.9,2.56q0,3.43,3.62,3.43H945v3h-4.35a5.56,5.56,0,0,1-4.32-1.75,7.65,7.65,0,0,1,0-9.32"/><path d="M954.28,241.39a6.63,6.63,0,0,1-4.65-1.59,5.56,5.56,0,0,1-1.75-4.32v-4.35h3v4.25q0,3.62,3.43,3.62"/><path d="M965.89,233.53q-3.43,0-3.43,3.62v4.25h-3V237a5.56,5.56,0,0,1,1.75-4.32,6.63,6.63,0,0,1,4.65-1.59"/><path d="M988.86,268.1,972,256.44,956.68,267l-15.32-10.6L926,267l-15.32-10.6L895.38,267l-15.32-10.6L863.19,268.1V183.79a15.72,15.72,0,0,1,15.7-15.7h94.27a15.72,15.72,0,0,1,15.7,15.7Zm-78.16-15.4L926,263.31l15.32-10.6,15.32,10.6L972,252.71l13.79,9.54V183.79a12.64,12.64,0,0,0-12.63-12.63H878.89a12.64,12.64,0,0,0-12.63,12.63v78.46l13.79-9.54,15.32,10.6Z"/><rect x="864.86" y="182.8" width="123" height="3"/><rect x="883.31" y="190.76" width="8.91" height="8.91"/><rect x="898.86" y="196.8" width="30" height="4"/><path d="M609.68,1141.92l-10.06-7-9.14,6.32-9.14-6.32-9.14,6.32-9.14-6.32-9.14,6.32-9.14-6.32-10.06,7v-50.29a9.38,9.38,0,0,1,9.36-9.36h56.23a9.38,9.38,0,0,1,9.36,9.36Zm-46.62-9.18,9.14,6.32,9.14-6.32,9.14,6.32,9.14-6.32,8.22,5.69v-46.8a7.54,7.54,0,0,0-7.53-7.53H544.08a7.54,7.54,0,0,0-7.53,7.53v46.8l8.22-5.69,9.14,6.32Z"/><rect x="535.86" y="1090.8" width="73" height="2"/><rect x="540.86" y="1097.8" width="19" height="2"/><rect x="540.86" y="1103.8" width="61" height="2"/><rect x="546.86" y="1118.8" width="18" height="2"/><rect x="546.86" y="1121.8" width="51" height="2"/><rect x="546.86" y="1126.8" width="51" height="1"/><rect x="546.86" y="1129.8" width="51" height="3"/><rect x="597.43" y="1095.39" width="5.31" height="5.31"/><rect x="588.88" y="1095.39" width="5.31" height="5.31"/><rect x="773.86" y="1103.8" width="52" height="3"/><rect x="773.86" y="1108.8" width="52" height="3"/><circle cx="779.72" cy="1118.77" r="3.07"/><path d="M774.17,1127.8a5.57,5.57,0,1,1,11.13,0Z"/><path d="M799.73,1123.75v-6.27h1.64v6.33m-6.12,2.4a3.09,3.09,0,0,1-1-2.41v-6.32h1.64v6.32a2,2,0,0,0,.48,1.45"/><path d="M806.64,1120.93a2,2,0,0,0-.54,1.54q0,2.06,2.17,2.06h2.55v1.78H808.2a3.33,3.33,0,0,1-2.59-1,4.59,4.59,0,0,1,0-5.59"/><path d="M816.4,1126.06a4,4,0,0,1-2.79-1,3.33,3.33,0,0,1-1-2.59v-2.61h1.78v2.55q0,2.17,2.06,2.17"/><path d="M823.35,1121.35q-2.06,0-2.06,2.17v2.55h-1.78v-2.61a3.33,3.33,0,0,1,1-2.59,4,4,0,0,1,2.79-1"/><path d="M837.13,1142.07l-10.11-7-9.19,6.35-9.19-6.35-9.19,6.35-9.19-6.35-9.19,6.35-9.19-6.35-10.11,7v-50.54a9.42,9.42,0,0,1,9.41-9.41h56.51a9.42,9.42,0,0,1,9.41,9.41Zm-46.85-9.23,9.19,6.35,9.19-6.35,9.19,6.35,9.19-6.35,8.27,5.72v-47a7.58,7.58,0,0,0-7.57-7.57H771.2a7.58,7.58,0,0,0-7.57,7.57v47l8.27-5.72,9.19,6.35Z"/><rect x="762.86" y="1090.8" width="74" height="2"/><rect x="773.85" y="1095.71" width="5.34" height="5.34"/><rect x="783.86" y="1099.8" width="18" height="2"/><text class="cls-6" transform="translate(863.83 351.69) rotate(-0.1)">Candidate</text><text class="cls-7" transform="translate(863.2 395.59) rotate(-0.1)">iOS d<tspan class="cls-8" x="49.03" y="0">ev</tspan><tspan x="70.06" y="0">eloper</tspan></text><rect x="1187.86" y="204.8" width="88" height="3"/><rect x="1187.86" y="212.8" width="88" height="4"/><circle cx="1198.35" cy="229.59" r="5.3"/><path d="M1188.79,245.8c0-6,4.29-9.59,9.59-9.59s9.59,3.59,9.59,9.59Z"/><path d="M1232.82,238.17v-10.8h2.82v10.9m-10.54,4.14a5.32,5.32,0,0,1-1.65-4.15V227.37h2.82v10.89a3.46,3.46,0,0,0,.83,2.49"/><path d="M1244.72,233.32a3.51,3.51,0,0,0-.93,2.65q0,3.55,3.73,3.55h4.39v3.06h-4.49a5.74,5.74,0,0,1-4.46-1.8,7.9,7.9,0,0,1,0-9.62"/><path d="M1261.53,242.15a6.85,6.85,0,0,1-4.8-1.65,5.74,5.74,0,0,1-1.8-4.46v-4.49H1258v4.39q0,3.73,3.55,3.73"/><path d="M1273.51,234q-3.55,0-3.55,3.73v4.39h-3.06v-4.49a5.74,5.74,0,0,1,1.8-4.46,6.85,6.85,0,0,1,4.8-1.65"/><path d="M1297.23,269.74l-17.41-12L1264,268.64l-15.82-10.94-15.82,10.94-15.82-10.94-15.82,10.94-15.82-10.94-17.41,12V182.67a16.23,16.23,0,0,1,16.21-16.21H1281a16.23,16.23,0,0,1,16.21,16.21Zm-80.71-15.9,15.82,10.94,15.82-10.94L1264,264.78l15.82-10.94,14.24,9.85v-81a13.05,13.05,0,0,0-13-13h-97.35a13.05,13.05,0,0,0-13,13v81l14.24-9.85,15.82,10.94Z"/><rect x="1168.86" y="181.8" width="127" height="3"/><rect x="1188.24" y="189.87" width="9.2" height="9.2"/><rect x="1203.86" y="195.8" width="32" height="4"/><text class="cls-6" transform="translate(1170.16 351.69) rotate(-0.1)">Candidate</text><text class="cls-7" transform="translate(1198.63 395.59) rotate(-0.1)">Biz D<tspan class="cls-8" x="47.55" y="0">e</tspan><tspan x="58.54" y="0">v</tspan></text><text class="cls-9" transform="translate(1006.08 540.05) rotate(-0.1)">Alex<tspan class="cls-10" x="53.77" y="0">’</tspan><tspan x="57.83" y="0">s Inb</tspan><tspan class="cls-11" x="117.97" y="0">o</tspan><tspan x="133.66" y="0">x</tspan></text><text class="cls-9" transform="translate(576.15 1036.01) rotate(-0.1)"><tspan class="cls-12">A</tspan><tspan x="18.12" y="0">u</tspan><tspan class="cls-13" x="33.55" y="0">t</tspan><tspan x="42.42" y="0">omatic Match</tspan></text><text class="cls-9" transform="translate(611.16 1348.79) rotate(-0.1)">Int<tspan class="cls-13" x="32.21" y="0">r</tspan><tspan x="41.41" y="0">o P</tspan><tspan class="cls-13" x="81.98" y="0">r</tspan><tspan x="91.18" y="0">ompt</tspan></text><text class="cls-9" transform="translate(657.04 1538.93) rotate(-0.1)">Hi<tspan class="cls-14" x="26.76" y="0">r</tspan><tspan x="35.97" y="0">e</tspan></text><text class="cls-9" transform="translate(801.1 686.86) rotate(-0.1)">add@Up<tspan class="cls-15" x="105.82" y="0">K</tspan><tspan x="123.06" y="0">nown.com</tspan></text><text class="cls-9" transform="translate(877.93 805.99) rotate(-0.1)"><tspan class="cls-16">T</tspan><tspan x="16.49" y="0">S </tspan><tspan class="cls-17" x="40.03" y="0">N</tspan><tspan class="cls-18" x="59.61" y="0">Y</tspan><tspan x="76.03" y="0">C</tspan></text><text class="cls-9" transform="translate(1321.74 806.42) rotate(-0.1)"><tspan class="cls-19">T</tspan><tspan x="15.35" y="0">echstars Connect</tspan></text><text class="cls-7" transform="translate(812.48 849) rotate(-0.1)">subnetwork on Up<tspan class="cls-15" x="168.63" y="0">K</tspan><tspan x="181.56" y="0">nown</tspan></text><text class="cls-9" transform="translate(1086.19 1532.9) rotate(-0.1)">Int<tspan class="cls-13" x="32.21" y="0">r</tspan><tspan x="41.41" y="0">o Request</tspan></text><text class="cls-9" transform="translate(1143.86 1728.5) rotate(-0.1)">Hi<tspan class="cls-14" x="26.76" y="0">r</tspan><tspan x="35.97" y="0">e</tspan></text><text class="cls-9" transform="translate(1035.42 1036.06) rotate(-0.1)">Up<tspan class="cls-15" x="33.87" y="0">K</tspan><tspan x="51.11" y="0">nown Email Digest</tspan></text><text class="cls-7" transform="translate(1100.26 1336.23) rotate(-0.1)">Katrin<tspan class="cls-20" x="55.24" y="0">a</tspan><tspan class="cls-10" x="65.97" y="0">’</tspan><tspan x="69.02" y="0">s inb</tspan><tspan class="cls-11" x="113.51" y="0">o</tspan><tspan x="125.27" y="0">x</tspan></text><text class="cls-7" transform="translate(1060.22 1369.3) rotate(-0.1)">Ma<tspan class="cls-14" x="29.76" y="0">r</tspan><tspan x="36.67" y="0">quee Needs Biz D</tspan><tspan class="cls-8" x="200.27" y="0">e</tspan><tspan x="211.26" y="0">v</tspan></text><text class="cls-7" transform="translate(1320.67 853.88) rotate(-0.1)">Jobs &amp; Candidates Boa<tspan class="cls-14" x="216.99" y="0">r</tspan><tspan x="223.9" y="0">d</tspan><tspan x="38.37" y="25.2">via Up</tspan><tspan class="cls-15" x="95.66" y="25.2">K</tspan><tspan x="108.59" y="25.2">nown API</tspan></text><text class="cls-7" transform="translate(543.04 1184.33) rotate(-0.1)">Bench</text><text class="cls-7" transform="translate(763.41 1184.33) rotate(-0.1)">iOS D<tspan class="cls-8" x="50.96" y="0">e</tspan><tspan x="61.95" y="0">v</tspan></text><text class="cls-7" transform="translate(621.06 1404.12) rotate(-0.1)">Th<tspan class="cls-13" x="24.1" y="0">r</tspan><tspan x="31" y="0">ough Alex, </tspan><tspan x="-16.52" y="25.2">Bench &lt; &gt; iOS d</tspan><tspan class="cls-8" x="128.1" y="25.2">e</tspan><tspan x="139.09" y="25.2">v</tspan></text><text class="cls-7" transform="translate(1104.37 1589.23) rotate(-0.1)">Th<tspan class="cls-13" x="24.1" y="0">r</tspan><tspan x="31" y="0">ough Alex, </tspan><tspan x="-26.85" y="25.2">Ma</tspan><tspan class="cls-14" x="2.9" y="25.2">r</tspan><tspan x="9.81" y="25.2">quee &lt; &gt; Biz d</tspan><tspan class="cls-8" x="138.44" y="25.2">e</tspan><tspan x="149.43" y="25.2">v</tspan></text><text class="cls-7" transform="translate(622.32 1594.72) rotate(-0.1)">Thanks Alex!</text><text class="cls-7" transform="translate(1109.61 1777.85) rotate(-0.1)">Thanks Alex!</text><path class="cls-5" d="M651.94,1097.75c25.72,0,40,38.33,68,38.33"/><path class="cls-5" d="M719.94,1097.75c-25.72,0-40,38.33-68,38.33"/><path d="M1203.86,1170.19H1138V1078h65.84Zm-64.41-1.43h63v-89.31h-63Z"/><path d="M1196.31,1126.27h-50.74v-24.69h50.74Zm-49.31-1.43h47.88V1103H1147Z"/><circle cx="1156.99" cy="1111.15" r="3.37"/><path d="M1150.91,1121.8a6.1,6.1,0,1,1,12.21,0Z"/><rect x="1167.86" y="1107.8" width="9" height="2"/><rect x="1167.86" y="1111.8" width="22" height="2"/><rect x="1167.86" y="1116.8" width="22" height="1"/><rect x="1167.86" y="1120.8" width="22" height="1"/><path d="M1196.31,1156.8h-50.74V1132.1h50.74Zm-49.31-1.43h47.88v-21.83H1147Z"/><circle cx="1156.99" cy="1141.68" r="3.37"/><path d="M1150.91,1151.8a6.1,6.1,0,1,1,12.21,0Z"/><rect x="1167.86" y="1137.8" width="9" height="2"/><rect x="1167.86" y="1141.8" width="22" height="2"/><rect x="1167.86" y="1146.8" width="22" height="1"/><rect x="1167.86" y="1151.8" width="22" height="1"/><path d="M1196.31,1170h-50.74v-8.29h50.74Zm-49.31-1.43h47.88v-5.43H1147Z"/><path d="M1153.62,1169.35a3.37,3.37,0,0,1,6.74,0"/><rect x="1167.86" y="1167.8" width="9" height="1"/><path d="M1151.24,1086.46v5a2.41,2.41,0,0,1-.76,1.87,3.32,3.32,0,0,1-4,0,2.42,2.42,0,0,1-.75-1.89v-5H1147v5a1.57,1.57,0,0,0,.38,1.14,1.47,1.47,0,0,0,1.11.39q1.49,0,1.49-1.57v-4.92Z"/><path d="M1153.9,1091.13v2.75h-1.29v-7.43h2.84a2.87,2.87,0,0,1,2,.65,2.18,2.18,0,0,1,.73,1.72,2.11,2.11,0,0,1-.72,1.7,3,3,0,0,1-2,.61Zm0-1h1.55a1.53,1.53,0,0,0,1.05-.32,1.19,1.19,0,0,0,.36-.94,1.28,1.28,0,0,0-.37-1,1.42,1.42,0,0,0-1-.37h-1.59Z"/><path d="M1161.42,1090.68l-.84.89v2.32h-1.29v-7.43h1.29v3.48l.71-.88,2.17-2.6H1165l-2.76,3.29,2.92,4.14h-1.53Z"/><path d="M1171.76,1093.89h-1.29l-3.31-5.27v5.27h-1.29v-7.43h1.29l3.32,5.29v-5.29h1.28Z"/><path d="M1179.21,1090.37a4.56,4.56,0,0,1-.38,1.92,2.85,2.85,0,0,1-1.08,1.26,3.16,3.16,0,0,1-3.22,0,2.9,2.9,0,0,1-1.09-1.26,4.41,4.41,0,0,1-.39-1.88V1090a4.51,4.51,0,0,1,.39-1.92,2.89,2.89,0,0,1,1.09-1.27,3.17,3.17,0,0,1,3.22,0,2.86,2.86,0,0,1,1.08,1.25,4.51,4.51,0,0,1,.39,1.9Zm-1.29-.39a3.25,3.25,0,0,0-.47-1.89,1.65,1.65,0,0,0-2.63,0,3.18,3.18,0,0,0-.48,1.85v.43a3.22,3.22,0,0,0,.48,1.89,1.54,1.54,0,0,0,1.32.67,1.52,1.52,0,0,0,1.32-.65,3.29,3.29,0,0,0,.46-1.91Z"/><path d="M1186.32,1092l1.14-5.59h1.28l-1.71,7.43h-1.23l-1.41-5.42-1.44,5.42h-1.24l-1.71-7.43h1.28l1.15,5.58,1.42-5.58h1.08Z"/><path d="M1195.58,1093.89h-1.29l-3.31-5.27v5.27h-1.29v-7.43H1191l3.32,5.29v-5.29h1.28Z"/><polygon points="1465.37 740.61 1455.16 748.11 1460.07 763.62 1446.44 754.23 1432.88 763.47 1437.79 748.21 1427.8 740.61 1401.38 766.8 1491.34 766.8 1465.37 740.61"/><polygon points="1437.79 748.2 1446.33 742.01 1455.04 747.89 1451.97 738.73 1460.52 732.8 1449.91 732.8 1446.47 722.63 1443.04 732.8 1432.21 732.8 1440.81 738.73 1437.79 748.2"/><path d="M1202.08,1286.84l-3-4.4a9,9,0,0,0,1.35-4.79v-.05a9.52,9.52,0,0,0-19,.05v.05a9.17,9.17,0,0,0,9.49,9.14,9.93,9.93,0,0,0,4.76-1.18l.79,1.18h5.65Zm-11.15-4.42a4.59,4.59,0,0,1-4.52-4.77v-.05a4.5,4.5,0,0,1,4.47-4.72,4.59,4.59,0,0,1,4.54,4.77v.05A4.51,4.51,0,0,1,1190.93,1282.42Z"/><path d="M1121,1268.73h5.17l4.22,6.84,4.22-6.84h5.17v17.67H1135v-10.15l-4.52,6.92h-.1l-4.49-6.87v10.1h-4.8v-17.67Z"/><path d="M1149.4,1268.6h4.72l7.52,17.8h-5.25l-1.29-3.16h-6.82l-1.26,3.16h-5.15Zm4.29,10.83-2-5-2,5Z"/><path d="M1163.68,1268.73H1172c2.7,0,4.57.71,5.76,1.92a5.48,5.48,0,0,1,1.56,4.11v.05a5.59,5.59,0,0,1-3.64,5.43l4.22,6.16h-5.65l-3.56-5.35h-2.15v5.35h-4.9v-17.67Zm8.13,8.48c1.67,0,2.63-.81,2.63-2.1v-.05c0-1.39-1-2.1-2.65-2.1h-3.21v4.24Z"/><path d="M1203.24,1278.65v-9.92h5v9.82c0,2.55,1.29,3.76,3.26,3.76s3.26-1.16,3.26-3.64v-9.95h5v9.79c0,5.71-3.26,8.2-8.28,8.2S1203.24,1284.18,1203.24,1278.65Z"/><path d="M1223.36,1268.73h14.21v4.16h-9.36v2.68h5.74v3.86h-5.74v2.8h9.49v4.17h-14.34v-17.67Z"/><path d="M1241,1268.73h14.21v4.16h-9.36v2.68h5.74v3.86h-5.74v2.8h9.49v4.17H1241Z"/><path d="M1104.48,1295.36H1087v-12.63a5.08,5.08,0,0,0-.08-.92,2.76,2.76,0,0,0-.47-1.15c-.15-.23-.36-.48-.61-.78s-.42-.52-.65-.82c-.34-.45-1.07-1.37-1.38-1.76-.15-.18-.3-.37-.44-.56a14.36,14.36,0,0,1,1.6-19.14,15.64,15.64,0,0,1,21.47,0,14.38,14.38,0,0,1,1.63,19.11l0,0-.73.94-1.07,1.38c-.23.3-.45.56-.64.8h0c-.25.3-.46.56-.61.79a2.69,2.69,0,0,0-.47,1.16,14.81,14.81,0,0,0-.06,1.6v0l0,5.31h-12.55v1.72h12.57Zm-12.56-11.5h7.69v-.46a16.27,16.27,0,0,1,.15-2.49,7.63,7.63,0,0,1,1.21-3,14,14,0,0,1,.89-1.16c.18-.22.36-.44.53-.66l1.11-1.44.7-.89a9.5,9.5,0,0,0-1.11-12.64,10.76,10.76,0,0,0-14.72,0,9.47,9.47,0,0,0-1.08,12.66l.31.39,0,0c.4.5,1.11,1.41,1.47,1.88.18.23.36.45.53.66.3.36.61.74.89,1.16a7.68,7.68,0,0,1,1.21,3,8.12,8.12,0,0,1,.16,1.68Z"/><path d="M700,250.17a15.85,15.85,0,0,1-15.83-15.83V218.51h31.65v15.83A15.85,15.85,0,0,1,700,250.17ZM687.1,221.39v12.95a12.95,12.95,0,1,0,25.9,0V221.39Z"/><polygon points="707.24 228.1 692.85 228.1 692.85 230.98 694.82 230.98 693.82 238.96 696.72 238.96 697.72 230.98 702.37 230.98 703.37 238.96 706.27 238.96 705.27 230.98 707.24 230.98 707.24 228.1"/><path d="M540.62,222.54c8.63,0,13.24,4,13.24,9.78,0,4.61-3.45,8.06-8.06,9.32v.11c7.19,1.78,9.78,6,9.78,10.42,0,6.33-4.6,10.65-13.24,10.65h-19v-1.15c3.45,0,3.45,0,3.45-3.74v-30.5c0-3.74,0-3.74-3.45-3.74v-1.15Zm-3.45,19c5.18,0,7.19-3.45,7.19-8.92,0-4.89-2-8.92-5.47-8.92H536v17.84ZM536,242.68v19h4c4.6,0,6-4.61,6-9.78s-2.59-9.21-7.77-9.21Z"/><path d="M558.23,248.72a15.13,15.13,0,0,1,15.25-15.25c6.62,0,12.6,2.88,10.88,12.66h-17c0,7.77,4.43,10.65,8.75,10.65a9.21,9.21,0,0,0,8.63-4.89h.57c-1.15,5.75-5.18,11.51-12.37,11.51C563.41,263.4,558.23,256.49,558.23,248.72Zm9.09-3.74h8.46c1-3.91,1.78-10.36-2.59-10.36C569.92,234.62,567.56,237.67,567.33,245Z"/><path d="M608.88,241.53a3.16,3.16,0,0,0-3.45-3.45,9.14,9.14,0,0,0-5.75,2.59v17.26c0,3.74,0,3.74,3.45,3.74v1.15H587v-1.15c3.45,0,3.45,0,3.45-3.74V239.8c0-2.88,0-2.88-2.88-2.88v-.86l11.8-2.59h.46l-.17,6h.12a12.36,12.36,0,0,1,10.53-6c3.85,0,7.77,2.3,7.77,8.63v15.83c0,3.74,0,3.74,3.45,3.74v1.15h-15v-1.15c2.3,0,2.3,0,2.3-3.74v-16.4Z"/><path d="M639.55,256.78a9.21,9.21,0,0,0,8.63-4.89h.57c-1.15,5.75-5.18,11.51-12.37,11.51-9.49,0-14.67-6.91-14.67-14.67A15.13,15.13,0,0,1,637,233.48c7.19,0,11,3.51,11,7.19,0,2-.92,4-4.37,4-2.88,0-3.51-1.78-3.45-3,.29-4.2,0-7.08-3.45-7.08-4,0-5.87,5.35-5.87,12C630.81,254.19,635.24,256.78,639.55,256.78Z"/><path d="M671.09,241.53a3.16,3.16,0,0,0-3.45-3.45,9.14,9.14,0,0,0-5.76,2.59v17.26c0,3.74,0,3.74,3.45,3.74v1.15H649.22v-1.15c3.45,0,3.45,0,3.45-3.74V224.84c0-2.88,0-2.88-2.88-2.88v-.86l11.63-2.59h.46v21H662a12.36,12.36,0,0,1,10.53-6c3.86,0,7.77,2.3,7.77,8.63v15.83c0,3.74,0,3.74,3.45,3.74v1.15h-15v-1.15c2.3,0,2.3,0,2.3-3.74v-16.4Z"/><path d="M768.74,591.88v35.75a5.27,5.27,0,0,1-5.26,5.26H715.12a5.27,5.27,0,0,1-5.26-5.26V591.88a5.27,5.27,0,0,1,5.26-5.26h48.36a5.27,5.27,0,0,1,5.26,5.26Zm-4.21,1.22v-.8c0-.1,0-.24,0-.43a.9.9,0,0,0-.1-.41l-.18-.3a.61.61,0,0,0-.3-.25,1.19,1.19,0,0,0-.46-.08H715.12a1.07,1.07,0,0,0-1.05,1.05,11.5,11.5,0,0,0,4.83,9.33q6.34,5,13.17,10.41l1.15,1q1,.8,1.51,1.23t1.46,1a8.68,8.68,0,0,0,1.66.9,3.89,3.89,0,0,0,1.41.3h.07a3.9,3.9,0,0,0,1.41-.3,8.73,8.73,0,0,0,1.66-.9q.9-.61,1.46-1t1.51-1.23l1.15-1q6.83-5.42,13.17-10.41a15.44,15.44,0,0,0,3.3-3.8A8.2,8.2,0,0,0,764.53,593.09Zm0,34.53V602.39a19.3,19.3,0,0,1-2.27,2.17q-8.8,6.77-14,11.11-1.68,1.41-2.73,2.2a15.18,15.18,0,0,1-2.84,1.59,8.24,8.24,0,0,1-3.37.8h-.07a8.24,8.24,0,0,1-3.37-.8,15.16,15.16,0,0,1-2.84-1.59q-1.05-.79-2.73-2.2-5.19-4.34-14-11.11a19.2,19.2,0,0,1-2.27-2.17v25.23a1.07,1.07,0,0,0,1.05,1.05h48.36a1.07,1.07,0,0,0,1.05-1.05Z"/><path d="M1023.2,587.62v22.27a3.28,3.28,0,0,1-3.27,3.27H989.8a3.28,3.28,0,0,1-3.27-3.27V587.62a3.28,3.28,0,0,1,3.27-3.27h30.13a3.28,3.28,0,0,1,3.27,3.27Zm-2.62.76v-.5c0-.06,0-.15,0-.27a.56.56,0,0,0-.06-.26l-.11-.18a.38.38,0,0,0-.18-.15.74.74,0,0,0-.29-.05H989.8a.66.66,0,0,0-.65.65,7.16,7.16,0,0,0,3,5.81l8.21,6.49.72.6q.59.5.94.77t.91.64a5.41,5.41,0,0,0,1,.56,2.42,2.42,0,0,0,.88.18h0a2.43,2.43,0,0,0,.88-.18,5.44,5.44,0,0,0,1-.56q.56-.38.91-.64t.94-.77l.72-.6,8.21-6.49a9.62,9.62,0,0,0,2.06-2.36A5.11,5.11,0,0,0,1020.58,588.37Zm0,21.51V594.16a12,12,0,0,1-1.41,1.35q-5.49,4.22-8.72,6.92-1,.88-1.7,1.37a9.46,9.46,0,0,1-1.77,1,5.13,5.13,0,0,1-2.1.5h0a5.13,5.13,0,0,1-2.1-.5,9.44,9.44,0,0,1-1.77-1q-.66-.49-1.7-1.37-3.23-2.7-8.72-6.92a12,12,0,0,1-1.41-1.35v15.72a.66.66,0,0,0,.65.65h30.13a.66.66,0,0,0,.65-.65Z"/><path d="M1075.08,614.12v22.27a3.28,3.28,0,0,1-3.27,3.27h-30.13a3.28,3.28,0,0,1-3.27-3.27V614.12a3.28,3.28,0,0,1,3.27-3.27h30.13a3.28,3.28,0,0,1,3.27,3.27Zm-2.62.76v-.5c0-.06,0-.15,0-.27a.56.56,0,0,0-.06-.26l-.11-.18a.38.38,0,0,0-.18-.15.74.74,0,0,0-.29-.05h-30.13a.66.66,0,0,0-.65.65,7.16,7.16,0,0,0,3,5.81l8.21,6.49.72.6q.59.5.94.77t.91.64a5.41,5.41,0,0,0,1,.56,2.42,2.42,0,0,0,.88.18h0a2.43,2.43,0,0,0,.88-.18,5.44,5.44,0,0,0,1-.56q.56-.38.91-.64t.94-.77l.72-.6,8.21-6.49a9.62,9.62,0,0,0,2.06-2.36A5.11,5.11,0,0,0,1072.46,614.87Zm0,21.51V620.66A12,12,0,0,1,1071,622q-5.49,4.22-8.72,6.92-1,.88-1.7,1.37a9.46,9.46,0,0,1-1.77,1,5.13,5.13,0,0,1-2.1.5h0a5.13,5.13,0,0,1-2.1-.5,9.44,9.44,0,0,1-1.77-1q-.66-.49-1.7-1.37-3.23-2.7-8.72-6.92a12,12,0,0,1-1.41-1.35v15.72a.66.66,0,0,0,.65.65h30.13a.66.66,0,0,0,.65-.65Z"/><path d="M1098.84,914.62v22.27a3.28,3.28,0,0,1-3.27,3.27h-30.13a3.28,3.28,0,0,1-3.27-3.27V914.62a3.28,3.28,0,0,1,3.27-3.27h30.13a3.28,3.28,0,0,1,3.27,3.27Zm-2.62.76v-.5c0-.06,0-.15,0-.27a.56.56,0,0,0-.06-.26l-.11-.18a.38.38,0,0,0-.18-.15.74.74,0,0,0-.29-.05h-30.13a.66.66,0,0,0-.65.65,7.16,7.16,0,0,0,3,5.81l8.21,6.49.72.6q.59.5.94.77t.91.64a5.41,5.41,0,0,0,1,.56,2.42,2.42,0,0,0,.88.18h0a2.43,2.43,0,0,0,.88-.18,5.44,5.44,0,0,0,1-.56q.56-.38.91-.64t.94-.77l.72-.6,8.21-6.49a9.62,9.62,0,0,0,2.06-2.36A5.11,5.11,0,0,0,1096.22,915.37Zm0,21.51V921.16a12,12,0,0,1-1.41,1.35q-5.49,4.22-8.72,6.92-1,.88-1.7,1.37a9.46,9.46,0,0,1-1.77,1,5.13,5.13,0,0,1-2.1.5h0a5.13,5.13,0,0,1-2.1-.5,9.44,9.44,0,0,1-1.77-1q-.66-.49-1.7-1.37-3.23-2.7-8.72-6.92a12,12,0,0,1-1.41-1.35v15.72a.66.66,0,0,0,.65.65h30.13a.66.66,0,0,0,.65-.65Z"/><path d="M700.58,1214.35v22.27a3.28,3.28,0,0,1-3.27,3.27H667.17a3.28,3.28,0,0,1-3.27-3.27v-22.27a3.28,3.28,0,0,1,3.27-3.27H697.3a3.28,3.28,0,0,1,3.27,3.27Zm-2.62.76v-.5c0-.06,0-.15,0-.27a.56.56,0,0,0-.06-.26l-.11-.18a.38.38,0,0,0-.18-.15.74.74,0,0,0-.29-.05H667.17a.66.66,0,0,0-.65.65,7.16,7.16,0,0,0,3,5.81l8.21,6.49.72.6q.59.5.94.77t.91.64a5.41,5.41,0,0,0,1,.56,2.42,2.42,0,0,0,.88.18h0a2.43,2.43,0,0,0,.88-.18,5.44,5.44,0,0,0,1-.56q.56-.38.91-.64t.94-.77l.72-.6,8.21-6.49a9.62,9.62,0,0,0,2.06-2.36A5.11,5.11,0,0,0,698,1215.11Zm0,21.51V1220.9a12,12,0,0,1-1.41,1.35q-5.49,4.22-8.72,6.92-1,.88-1.7,1.37a9.46,9.46,0,0,1-1.77,1,5.13,5.13,0,0,1-2.1.5h0a5.13,5.13,0,0,1-2.1-.5,9.44,9.44,0,0,1-1.77-1q-.66-.49-1.7-1.37-3.23-2.7-8.72-6.92a12,12,0,0,1-1.41-1.35v15.72a.66.66,0,0,0,.65.65H697.3a.66.66,0,0,0,.65-.65Z"/><line class="cls-5" x1="1172.25" y1="1487.49" x2="1178.62" y2="1481.12"/><line class="cls-5" x1="1172.25" y1="1487.49" x2="1165.24" y2="1480.48"/><line class="cls-5" x1="1172.36" y1="1456.8" x2="1172.36" y2="1485.8"/><line class="cls-5" x1="1172.36" y1="1397.8" x2="1172.36" y2="1427.8"/><path d="M1190.27,1431.21v22.27a3.28,3.28,0,0,1-3.27,3.27h-30.13a3.28,3.28,0,0,1-3.27-3.27v-22.27a3.28,3.28,0,0,1,3.27-3.27H1187a3.28,3.28,0,0,1,3.27,3.27Zm-2.62.76v-.5c0-.06,0-.15,0-.27a.56.56,0,0,0-.06-.26l-.11-.18a.38.38,0,0,0-.18-.15.74.74,0,0,0-.29-.05h-30.13a.66.66,0,0,0-.65.65,7.16,7.16,0,0,0,3,5.81l8.21,6.49.72.6q.59.5.94.77t.91.64a5.41,5.41,0,0,0,1,.56,2.42,2.42,0,0,0,.88.18h0a2.43,2.43,0,0,0,.88-.18,5.44,5.44,0,0,0,1-.56q.56-.38.91-.64t.94-.77l.72-.6,8.21-6.49a9.62,9.62,0,0,0,2.06-2.36A5.11,5.11,0,0,0,1187.65,1432Zm0,21.51v-15.72a12,12,0,0,1-1.41,1.35q-5.49,4.22-8.72,6.92-1,.88-1.7,1.37a9.46,9.46,0,0,1-1.77,1,5.13,5.13,0,0,1-2.1.5h0a5.13,5.13,0,0,1-2.1-.5,9.44,9.44,0,0,1-1.77-1q-.66-.49-1.7-1.37-3.23-2.7-8.72-6.92a12,12,0,0,1-1.41-1.35v15.72a.66.66,0,0,0,.65.65H1187a.66.66,0,0,0,.65-.65Z"/><polygon points="673.79 1661.2 682.33 1655.01 691.04 1660.89 687.97 1651.73 696.52 1645.8 685.91 1645.8 682.47 1635.63 679.04 1645.8 668.21 1645.8 676.8 1651.73 673.79 1661.2"/><polygon points="1160.79 1844.2 1169.33 1838.01 1178.04 1843.89 1174.97 1834.73 1183.52 1828.8 1172.91 1828.8 1169.47 1818.63 1166.04 1828.8 1155.21 1828.8 1163.81 1834.73 1160.79 1844.2"/></g></g></svg>