<?xml version="1.0" encoding="utf-8"?>
<!-- Generator: Adobe Illustrator 19.1.0, SVG Export Plug-In . SVG Version: 6.00 Build 0)  -->
<svg version="1.1" xmlns="http://www.w3.org/2000/svg" xmlns:xlink="http://www.w3.org/1999/xlink" x="0px" y="0px"
	 viewBox="0 0 1014.5 149.7" style="enable-background:new 0 0 1014.5 149.7;" xml:space="preserve">
<style type="text/css">
	.st0{fill:#C43D41;}
	.st1{fill:#B3B3B3;}
	.st2{fill:#808080;}
</style>
<g id="Main_Logos">
</g>
<g id="Web_Layouts">
	<g>
		<g>
			<polygon class="st0" points="516.9,57.1 483.3,93.5 512,121 457.6,150 556.6,150 570.3,124.3 498.1,89.2 			"/>
		</g>
		<path class="st1" d="M519.9,25.1l48.8,61.5c4.5-8,7.1-17.1,7.3-26.9c0.5-31.3-24.4-57-55.7-57.5c-31.3-0.5-57,24.4-57.5,55.7
			c-0.2,9.6,2.1,18.8,6.2,26.8L519.9,25.1z"/>
	</g>
	<g>
		<path class="st1" d="M683.9,61.2h-20.2v13.4h19v10.1h-19v26.5h-11.7V51.1h31.9V61.2z"/>
		<path class="st1" d="M773,81.2c0,18.3-13.2,31.4-32.1,31.4c-18.9,0-32.1-13.1-32.1-31.4c0-18.3,13.2-31.5,32.1-31.5
			C759.8,49.7,773,62.9,773,81.2z M760.9,81.2c0-12.2-8.3-20.8-20-20.8c-11.7,0-20,8.7-20,20.8c0,12.2,8.3,20.8,20,20.8
			C752.6,102,760.9,93.4,760.9,81.2z"/>
		<path class="st1" d="M815.4,51.1c8.3,0,12.5,2.2,15.3,4.5c4.6,3.9,6,9,6,13.5c0,5.9-2.3,11-7,14.2c-1.5,1.1-3.7,2.1-6.6,2.6
			l18.8,25.4h-14.6l-16.1-24.2h-1.4v24.2H798V51.1H815.4z M809.7,78.8h3.3c2.3,0,11.6-0.3,11.6-9.1c0-8.9-9.2-9-11.4-9h-3.5V78.8z"
			/>
		<path class="st1" d="M876.9,51.1v37.8c0,4.6,1.5,7.4,2.9,8.9c1.7,2.1,4.9,4.2,9.6,4.2c4.7,0,7.9-2.1,9.6-4.2
			c1.4-1.5,2.9-4.3,2.9-8.9V51.1h11.7v36.8c0,5.7-0.9,11.5-4.5,16.1c-4.3,5.7-11.9,8.7-19.7,8.7c-7.8,0-15.3-3-19.7-8.7
			c-3.6-4.6-4.5-10.4-4.5-16.1V51.1H876.9z"/>
		<path class="st1" d="M949.3,51.1h8.5l16,38.3l16.7-38.3h8.5l10.1,60.2h-11.9l-5.4-37.1l-16.2,37.1h-4l-15.4-37.1l-6.1,37.1h-11.9
			L949.3,51.1z"/>
	</g>
	<g>
		<g>
			<path class="st0" d="M110.9,64.5c-3.6-4.8-7.8-5.2-10-5.2c-6.4,0-8.4,4-8.4,7.2c0,1.5,0.5,2.8,1.9,4.1c1.5,1.4,3.5,2.1,7.3,3.5
				c4.8,1.7,9.3,3.3,12.4,6.2c2.8,2.5,5.2,6.6,5.2,12.9c0,11.9-8.6,20.1-21.3,20.1c-11.3,0-17.9-6.9-21.1-11.6l7.8-7.4
				c2.9,6,8.5,8.2,12.9,8.2c5.4,0,9.5-3.3,9.5-8.4c0-2.2-0.7-3.9-2.4-5.5c-2.3-2.1-6-3.3-9.5-4.5c-3.2-1.1-7.1-2.6-10.2-5.3
				c-2-1.7-4.9-5.1-4.9-11.4c0-9,6.1-18,19.7-18c3.9,0,11.1,0.7,17.4,7.2L110.9,64.5z"/>
			<path class="st0" d="M183.5,109.6c-3.7,1.9-8.5,3.6-15.2,3.6c-10.7,0-17.3-3.7-22.4-8.5c-7.1-6.8-9.8-14.4-9.8-23.4
				c0-11.1,4.6-19.1,9.8-24c6.2-5.8,13.8-8.1,22.5-8.1c4.3,0,9.5,0.7,15.1,3.8v14c-5.6-6.4-12.6-6.9-14.8-6.9
				c-12.3,0-20.3,10.1-20.3,21.4c0,13.6,10.5,20.9,20.8,20.9c5.7,0,10.7-2.5,14.3-6.7V109.6z"/>
			<path class="st0" d="M240.6,60.8h-22v13.7h21.1v10.3h-21.1v16.7h22v10.3h-34V50.5h34V60.8z"/>
			<path class="st0" d="M263.2,111.8V50.5h8.3l37.3,40.9V50.5h11.9v61.2h-8.3l-37.3-41v41H263.2z"/>
			<path class="st0" d="M360.9,50.5c8.5,0,16,0.9,22.8,6c7.4,5.6,11.8,14.5,11.8,24.7c0,10.2-4.2,19-12.3,24.7
				c-7.2,5.1-13.9,5.9-22.4,5.9H345V50.5H360.9z M356.9,101.5h3.7c3,0,9.6-0.2,15-4c4.9-3.5,7.6-9.7,7.6-16.3
				c0-6.4-2.7-12.7-7.5-16.3c-5-3.7-11-4-15.1-4h-3.7V101.5z"/>
			<polygon class="st0" points="31.7,44.9 2.8,113 15,113 37,98.1 40,95.6 36.8,94.4 28.5,91.6 33.5,85.9 26.8,91.4 26.1,91.9 
				27,92.5 32.2,95.7 19.2,101.6 32,70.3 32,70.2 48.2,113 60.3,113 			"/>
		</g>
	</g>
</g>
<g id="Media_Layouts">
</g>
<g id="Print_Layouts">
</g>
</svg>
