<svg xmlns="http://www.w3.org/2000/svg" viewBox="0 0 650.64 268.62"><defs><style>.cls-1{fill:#231f20;}.cls-2{fill:#fff;}</style></defs><title>diamond4</title><g id="Layer_2" data-name="Layer 2"><g id="Layer_2-2" data-name="Layer 2"><path class="cls-1" d="M294.92,235.6l-.27.52S294.28,237.59,294.92,235.6Z"/><path class="cls-1" d="M402.36,92.67,397,96.19C386.47,81.39,355.3,39.71,336,20c.68-.91,1.11-1.51,1.25-1.72,1-1.52-2.05-1.23-4.36-1.37-.68-.65-1.34-1.26-2-1.84.48-.83.08-1-.84-.76q-1.86-1.63-3.44-2.76c1.75-2.15-2-4.15-1.48-8.09.65-4.61-8.44,6.11-8.44,6.11L322.64,0s-4.53,3.21-14.87,12.79L260.39,73.62c-1.26-2.4-2.05-3.9-2.42-4.38-2.84-3.61-1.92,14.92-5.41,10.67-1.61-2-1.4.76-1,5l-3.49,4.47a.83.83,0,0,0,0-.15c-2.2-8.58-5.91.34-11.51-1.79s5.62,16.2,5.62,16.2l-10.5-12.51s2.92,8.67,12.42,29c0,0,33.13,51.23,59.18,92.44a142.11,142.11,0,0,0-5.48,13.65c-1.62,5.42-2.44,8.11-2.86,9.38,1.37-2.54,7.38-13.66,6.68-11.13-.8,2.85-3.87,8.86-3.58,9.27s2.31,4.89,4.71.33,4.06-15.77,6.12-12a9,9,0,0,1-.21,9.28c-1.1,1.85,2.21-1.05,4.32-3.33,9.36,15,16.78,27.06,19.72,32.47,6.16,11.35.34-25.52.34-25.52l-6-13.65-.21-.91c1-2.58,1.9-5.15,2.6-6.5,1.66-3.21-.25,6-.67,7.84-.33,1.44,46.55-81.29,65.64-115l.47-.48a1.4,1.4,0,0,1-.1-.17l3.41-6c1,.7,1.83,1.27,2.29,1.52.18.09-.42-.87-1.65-2.66Zm-152.81,10.2.58.89C249.83,104.08,249.66,103.71,249.55,102.87ZM316.93,152c-5.53-10-16-31.13-15.13-34.39-2.34-3.38-4.37-6.5-6.12-9.31a25.14,25.14,0,0,0,3.59-4.3c1.52-2.4,9.17-12.59,16.14-21.81,4.72,5.9,19.41,25.21,10.75,12.72-9.42-13.58,3.83,4.49,5.74,6.68,2.14,2.44,4.24,4.8,6.21,6.93a3.71,3.71,0,0,0-.89.86c-3.45,4.15-1.79,2.92.92.32a3.9,3.9,0,0,0,.2-.93l.36.39-.56.54c-1.6,5.17-11.92,25.37-14,28.9C321.72,142.83,319.23,147.48,316.93,152Zm76.53-53.54c-.73-1.63-1.44-3-1.44-3l2.8,2.11Z"/><path class="cls-1" d="M460.55,241.83c-2.93,0-3-2.75-3.07-4.58l5.93-.74a7,7,0,0,1,.14,1.47c0,.7,0,1,0,1l-.14,2.85Z"/><path class="cls-2" d="M460.48,237.16a4.38,4.38,0,0,1,.07.84c0,.6,0,.83,0,.83h0s-.05-.9-.07-1.67m5.86-1.3-11.86,1.49c0,.4,0,.84,0,1.17.2,5,4,6.31,6,6.31h5.68l.31-5.74s0-.32,0-1.14a9.54,9.54,0,0,0-.21-2.09Z"/><path class="cls-1" d="M463.5,239a3.13,3.13,0,0,1-2.25-1,3.26,3.26,0,0,1-1-2.31,3.48,3.48,0,0,1,1.16-2.53l4.84-4.78.29,6.77a3.61,3.61,0,0,1-.86,2.86l-.88.92Z"/><path class="cls-2" d="M463.58,235.33c0,.47,0,.69-.08.69h0s-.07,0-.13-.08c-.21-.22,0-.38.21-.61"/><path class="cls-1" d="M460.58,235.43l-.08-1.9.9-.93a3.93,3.93,0,0,1,1.36-.94l3.41-1.36.69,3.8.25,1-.42,1a4.72,4.72,0,0,1-1,1.39l-4.87,4.81Z"/><path class="cls-2" d="M463.87,234.45c0,.14.06.28.08.39a1.86,1.86,0,0,1-.37.49q0-.27,0-.63a1,1,0,0,1,.32-.25m4.63-8.3-6.87,2.73a7.07,7.07,0,0,0-2.39,1.63l-1.79,1.86.1,2.57,0,.3v.31l.51,13.63,9.7-9.59a7.54,7.54,0,0,0,1.63-2.27l.87-1.93-.51-2-1.28-7.26Z"/><path class="cls-1" d="M444.49,248.39c-9.08,2.28-21.05,5.31-22,5.62a6,6,0,0,1-1.9.35h-.05c-2.15,0-4.71-1.46-4.82-5.56a24.17,24.17,0,0,0-.4-3.22c-.09-.5-.17-1-.23-1.44a3.77,3.77,0,0,1-1.34-1,4.51,4.51,0,0,1-.62-4.8c-2.67-1-3.29-2.93-3.5-6.26-.14-2.23-.06-5.56.05-10.18.09-3.94.2-8.72.21-14.28-2.48-.46-2.56-3.33-2.67-7.17-.07-2.58-.08-5.88-.1-9.06,0-3.35,0-7.47-.13-8.5a7.1,7.1,0,0,0-.76-.89c-2.65-2.84-1.94-4.86-.81-6.08a5.58,5.58,0,0,0,.26-1.73v-1l.63-.82a3.88,3.88,0,0,0,.61-1.62h-.47l-.24,0c-.89-.11-2.15-.59-7.67-3.34l-.88-.44a3.13,3.13,0,0,1-1.73-3.5,4,4,0,0,1,2.49-2.55c-.53-.54-1-1.17-1.58-1.83-1.76-2.15-3.75-4.59-7.38-5.64-2.55-.74-5.32-1.64-8-2.51A106.19,106.19,0,0,0,371,147.82l-.22.83h-2.33c-1.34,0-8.82-2.95-10.41-5-2.46-3.23.13-8,1.36-10a15.09,15.09,0,0,1,2.5-2.91,8.25,8.25,0,0,0,1.45-1.64,1.26,1.26,0,0,0,.29-1,9.69,9.69,0,0,1,.3-2.59l.13-.5c.77-3.09,3.11-12.49,7.54-17a23.6,23.6,0,0,0,2.69-3.21,11.53,11.53,0,0,1,5-4.23c4.3-2.27,5.95-2.75,6.35-2.84l.54-.12.56.07a61.4,61.4,0,0,0,8.78.37h4.56l8.5,0h5.81c17.91.07,39.91.19,51.05.49,10.54.28,27.45,2,33.47,3.74a71.63,71.63,0,0,1,14.74,6.53h.05l.48,0a3.53,3.53,0,0,1,2.62,1C518,111,518,112.59,518,114.44s0,3.86,0,5.61c0,2.19,0,4.08-.06,5.4,0,.92-.6,9.11-5.85,13.62-3.85,3.3-10.17,7.77-12.63,9.42a18.85,18.85,0,0,1-6.63,2.6l-27.94,7.07c.54,6.27,1.88,22.12,2,26.47.1,3.85.12,6.53.14,8.89,0,1.83,0,3.43.08,5.18,0,.59.05,1.67.1,3.08.47,13.3.89,27.5.36,31.93-.13,1.15-.38,3.27-1.9,4.12a4.17,4.17,0,0,1-1,2.59,3.26,3.26,0,0,1-2.41,1.08,3.31,3.31,0,0,1-.84-.11,3.21,3.21,0,0,1-2.51,1.26h0a2.76,2.76,0,0,1-.64.33,3.09,3.09,0,0,1-2.21,1h0a3.39,3.39,0,0,1-.87-.13,4.17,4.17,0,0,1-3.82,2.86,3.27,3.27,0,0,1-.81-.1,2.43,2.43,0,0,1-.66.4l-1.53,8.91Z"/><path class="cls-2" d="M386.32,100.64a64.7,64.7,0,0,0,9.21.4c3.13,0,7.26,0,13,0h5.83c18.75.07,40.08.19,51,.49s27.34,2,32.71,3.62a68.83,68.83,0,0,1,14,6.23,2.45,2.45,0,0,0,1.41.43h0c.26,0,.47,0,.66,0h0c.56,0,.8.3.77,2.64-.08,4.3,0,8.64-.09,10.92s-1.08,8.29-4.8,11.49-9.92,7.57-12.35,9.2a16.16,16.16,0,0,1-5.59,2.15l-30.51,7.73s2,23.51,2.19,28.83c.18,6.88.11,10.1.22,14.07s1.15,28.92.48,34.58c-.15,1.34-.29,1.82-.42,1.82h0c-.06,0-.12-.13-.18-.34a.62.62,0,0,0,.07-.23c0-.12,0-.18-.07-.18h0l-.07,0c-.17-1-.29-2.65-.34-2.65h0a3.83,3.83,0,0,0,0,.58c0,1,0,1.74.05,2.32a3.31,3.31,0,0,0-.92,2.4c.07.88-.19,1.4-.47,1.41h0c-.26,0-.54-.43-.63-1.4-.1-1.15.09-1.51,0-1.51h0c-.09,0-.35.22-1.08.46,0,0,0,.51,0,1.1-.07-.33-.19-.46-.33-.46h0c-.4,0-1,1.18-1,2.13,0,.58-.15.82-.31.82h0c-.26,0-.59-.6-.78-1.46,0-.22-.09-.31-.14-.31h0c-.24,0-.49,2.29-.86,2.29h0a.14.14,0,0,1-.1,0,.24.24,0,0,0-.17-.09h0c-.32,0-.63.9-.84.9h0c-.09,0-.16-.13-.21-.49-.21-1.46-1.71-1.91-.48-4.67.54-1.22,1-1.43,1.11-1.45h0s0,0,0,0h0a2.94,2.94,0,0,1-1.14-.89,1.52,1.52,0,0,0-1-.6h0c-1.06,0-1.33,2.85-1.37,6.54,0,3-.84,4.28-1.62,4.29h0c-.44,0-.85-.41-1.11-1.16a64.28,64.28,0,0,1-1.54-10.06c0-.62,0-1,0-1h0a.62.62,0,0,1,0,.09c0,.18,0,.49,0,.9,0,2.55.05,9.24,0,11,0,.57,0,.77-.07.77h0c-.11,0-.33-1.16-.62-1.16h0c-.07,0-.15.07-.23.25a16.38,16.38,0,0,0-.85,3.1l-.76-1.51s-23.71,6-24.59,6.27a3,3,0,0,1-1,.2h0c-.85,0-1.76-.5-1.82-2.64-.08-3.06-1.46-7.06-.31-7.07h0c.48,0,1.3.14,2,.14h0c.95,0,1.59-.3.51-1.63-1.57-1.95-2.31-5.92-2.06-5.93h0s.12.13.23.43.27.46.42.46h0c.72,0,1.52-3.3.27-3.63s-2.35-1.7-2.73-1.7h0c-.14,0-.16.18-.05.63.46,1.73-.25,3.62,0,5.29.21,1.47.27,5.72-.6,5.72h0a.62.62,0,0,1-.43-.26c-1.31-1.5,2.23-4-.1-5.06s-3,0-3.29-4.22.32-13.45.27-26.69-.58-28.63-.44-30c.13-1.16-.86-4.86-1.16-4.86h0c-.05,0-.08.1-.08.31,0,1.55.53,32-.44,33.89,0,.08-.08.12-.11.12h0c-.82,0-.33-20.6-.74-22.47s-3.31-3.22-2.26-4.3,1-3.75,1-3.75a6.37,6.37,0,0,0,1.2-4.33c-.34-2.34,0-5.14-1.55-5.15h0c-1.46,0-.86,3-1.7,3h-.05c-.91-.11-6.63-3-7.6-3.5s4.32-1.83,7.4-1.86h.35c2.74,0-2.37-1.91-4.76-2.62s-4.5-7.15-11.66-9.22S374,145,370.31,144.7c-.77-.07-1.35-.1-1.78-.1h-.09c-1.56,0-1,.46-.1,1,.11.06.13.09.09.09h0c-.42,0-7.08-2.61-8-3.86s.14-4.4,1.5-6.52,2.72-2.59,4-4.58.43-2.37,1-4.41,2.76-11.94,6.91-16.19,2.68-4.63,7-6.89a30.44,30.44,0,0,1,5.62-2.57m-.26-6.09L385,94.8a35.79,35.79,0,0,0-7.07,3.11,14.48,14.48,0,0,0-6.07,5.14,20.78,20.78,0,0,1-2.38,2.86c-4.48,4.59-6.89,12.7-8.31,18.41l-.12.47a12.23,12.23,0,0,0-.4,3,8,8,0,0,1-.8.82,17.55,17.55,0,0,0-3,3.48c-3.32,5.17-3.76,10-1.22,13.39.94,1.22,2.41,2.42,6.57,4.25,4.47,2,5.45,2,6.23,2h.06l4.58,0,.05-.17c2.2.62,5,1.52,7.37,2.31,2.7.88,5.49,1.79,8.09,2.54s4,2.4,5.46,4.12a6,6,0,0,0-1.08,2.37,6.13,6.13,0,0,0,3.36,6.86l.84.41c2.35,1.17,4,2,5.17,2.49l.31,1.68a2.53,2.53,0,0,1,0,.38c-1.14,1.64-2.6,5.17,1.39,9.44h0c.05,1.65.06,4.87.07,7.36,0,3.2,0,6.51.1,9.13.05,1.51.1,2.65.18,3.5a7.3,7.3,0,0,0,2.49,5.33c0,4.78-.13,8.95-.21,12.45-.12,4.69-.2,8.09-.05,10.45a11.91,11.91,0,0,0,1.46,5.75,7.13,7.13,0,0,0,1.66,1.87,6.83,6.83,0,0,0,1.75,5.23,7,7,0,0,0,.83.81l0,.15a23.9,23.9,0,0,1,.36,2.8c.16,5.82,4.16,8.48,7.82,8.48h.08a9,9,0,0,0,2.81-.5c1.37-.4,11.29-2.91,19.5-5l6.8,13.53,2.71-15.88a7.21,7.21,0,0,0,4.32-2.65,191.52,191.52,0,0,1,5.69-2.38,6.35,6.35,0,0,0,4.39-2.05,7,7,0,0,0,1.59-3,6.61,6.61,0,0,0,1.77-3.25,15.94,15.94,0,0,0,.35-2.13c.55-4.62.16-18.29-.34-32.38-.05-1.4-.09-2.48-.1-3.07-.05-1.71-.06-3.29-.08-5.12,0-2.37,0-5.06-.14-8.94s-1.16-16.82-1.78-24.11L493.44,154a21.71,21.71,0,0,0,7.66-3c2-1.34,8.65-6,12.91-9.63,6.08-5.21,6.81-14,6.89-15.75.07-1.4.07-3.33.07-5.57,0-1.71,0-3.65,0-5.54s.08-4.64-2-6.8a6.54,6.54,0,0,0-4.51-1.93,76.27,76.27,0,0,0-14.68-6.39c-6.23-1.82-23.51-3.57-34.23-3.86-11.21-.3-33.21-.42-51.12-.49h-5.85l-8.48,0h-4.55a58.46,58.46,0,0,1-8.36-.34l-1.11-.15Z"/><path class="cls-1" d="M497.84,214.46l-.18,9.55s42.83-18.51,42.75-26.81c-.95.56-.06-3,0-2,1.85-2.54,8.35-19,8.35-19,1.33-2.14,2.89-4.65,4.54-7.2,7.35-3.49,15.21-9.23,23.24-9.22l8.82-3.79c-.32,10.21-5.83,28.76-6.53,21.56,0-.46-4,5.55-4.31,10.57-.28,4.66,38.34-18.38,47.73-27.47,8.49-8.77,9.16-16.16,5.46-25.79a2.75,2.75,0,0,0,.71-.43,17.72,17.72,0,0,1,3.45-1.91c1.49-.77,3-1.51,4.56-2.3,0,.15.07.47.16,1.11.25-.47.53-.76.56-1.08.15-1.24.88-1.4,1.37-1.24,1.18.39,1.78.15,2.5-1.48.39.9.82.74,1.08-.25.36-1.34.78-1.72,1.66-1,.23.18,1-.29,1.21-.73a14.76,14.76,0,0,0,.73-2.68l-2.54.37a7.42,7.42,0,0,1,3.35-4.25,16.17,16.17,0,0,0,1.44-.83,5.91,5.91,0,0,0,2.57-4.94c.24-4,.32-8-1-11.34a34.64,34.64,0,0,0-3.31-5.46c-2.21-3.47-5.41-5-8.12-7.5a61.74,61.74,0,0,0-5.14-3.92,2.5,2.5,0,0,0-.92-.49c-.87-.18-1.77-.25-1.31-1.69a54.7,54.7,0,0,0-3.06,5.08c-.94,1.76-2.44,3.27-2.72,5.37l-.62-1.8a53,53,0,0,1-12.46,13.5c-1-1.84-2-3.74-3.07-5.73a44.78,44.78,0,0,0-1.74-5,26.12,26.12,0,0,0-2.4-4.57c-.57-1.62-1.16-3.17-1.83-4.69-.54-1.2-1.13-2.37-1.77-3.5s-1.3-2.24-2-3.32c-5.9-8.37-12.25-24.9-21.59-25.24-.94,0-1.62-.06-2.1-.09-1.12.12-2.26.23-2.27.25-1.87,2-22.8,6.5-24,8.75l-24.74,72.65c-.8.18-1.61,10-2.41,10.55a11.33,11.33,0,0,0,.81,2.69M564,130.25c-1.83-4.26-.13-13.45,1-18.41.19-.86.4-1.71.64-2.58.67-2.46,1.54-5,2.38-7.59C570.73,103.59,584.81,129.31,564,130.25Z"/><path class="cls-1" d="M575.29,52.71l2.1-.23S572.16,52.53,575.29,52.71Z"/><path class="cls-1" d="M4.19,43.92c6.59,14.64,17.35,34.49,5,83.25S-.13,166.87,1.71,169s6.06,8.95,10.22,11.39S36,196.06,39.24,195.11a5.87,5.87,0,0,0,4-3.44s.1,4.12.43,3.88,3.29-3,3.62-4.83,2.22-.85,1.12,1.79-2.37,4.72-.34,2.19,4.16-6,4.12-5.23a13,13,0,0,1-2.16,4.45c-.83,1,.45,1.26,1.41-.17s1.79-4.95,9.33-13.57S70.17,166.25,71,166,91,195.5,107.49,200.43s24.87-8.79,26.84-10.76,8.63-4.94,9.07-7.13-1.11-2.82-1.11-2.82L141,178.45l1.59-1.31-1.23,0a13.65,13.65,0,0,1,3.39-1.77,8.83,8.83,0,0,0,3-1.77,20.52,20.52,0,0,1-3.89-.07c-1.74-.25,3.5-.88,4.72-1.5s3.17-2.38,2-2.73-3.89-2.47-3-2,5-.24,4.53-.45c-9.54-4.79-34.19-15.65-55.42-43.41,1.34-3,16-11.79,27.13-16.59S132,83.61,130,71.71,126.3,56.13,124.38,55s-5.27-3.14-7-4.34-8.08.48-14.65,2.49-18.56,7.51-23.9,11.44-3,0-4-2.73-4-17.64-7.7-22.91-4.55-9.56-23.93-11.66-23.68-3-29.84-2.39S.14,30.89,1.23,36A26.12,26.12,0,0,0,4.19,43.92Z"/><path class="cls-1" d="M243.21,265.62c-3,0-11.85-1-36.58-7.49-27.49-7.25-49.37-18.54-58.71-23.36-1.92-1-3.43-1.78-4.13-2.07a15.2,15.2,0,0,1-7-5.53c-.39-.5-.76-1-1.2-1.48a45.41,45.41,0,0,0-3.45-3.39A13.58,13.58,0,0,1,130.8,221c-1.36-1.65-1.07-2.48,2.53-12.76.94-2.69,1.92-5.47,2.34-6.93.78-2.67,4.92-6.67,23.47-19a4.07,4.07,0,0,1-3.19-2.15,3.84,3.84,0,0,1,.63-3.91,1.19,1.19,0,0,0,.16-.23,1,1,0,0,0,0,.1,2.29,2.29,0,0,0,.11,1.86,2,2,0,0,0,1.06,1l.19-3.4a7.78,7.78,0,0,1-1.26-1.68h0l-.15-.32-1.37-3.1,1.87-.56a4.06,4.06,0,0,1,.41-2.14c-1.2-.11-2.2-.28-2.22-.28a3.84,3.84,0,0,1-3.08-4,4.16,4.16,0,0,1,.12-.72,3.34,3.34,0,0,1-1.09-2,3.16,3.16,0,0,1,0-.92c-.6-.15-1.27-.27-1.66-.34l-1.1-.22a3.75,3.75,0,0,1-2.48-1.78,4.4,4.4,0,0,1-.35-3.33,44,44,0,0,1-3.25-8.66A83.49,83.49,0,0,1,139,124c-.32-16.91,25.9-20.69,40-22.72,1.65-.24,3.13-.45,4.34-.66,8.37-1.4,13.56-1.9,27.78-2,3.42,0,7.37,0,12,0h6.57c4.75,0,14.75,1.84,21.29,3.53a10,10,0,0,1,6.38,5.44c2.88,5.59,2.39,13.7,1.33,16.48a52.74,52.74,0,0,0-.26,7.32c0,10.11-.18,16.4-3.91,18.16-2.09,1-5.13,3.43-7.81,5.59-1.32,1.06-2.57,2.07-3.69,2.89a23.65,23.65,0,0,1-4.8,2.58,10,10,0,0,0-3.26,1.83,21.54,21.54,0,0,0,2.18,2.44c2.28,2.33,5.41,5.52,3.7,9.11-.78,1.65-3.06,6.19-5.47,11s-4.93,9.84-5.49,11a7.29,7.29,0,0,1-3.27,3.06c10,2,29,5.36,32.48,5.7l.53,0c5.32.5,6.29,1.71,10,9a9.53,9.53,0,0,1-.18,9.69,12.23,12.23,0,0,1-2.54,2.91c2.9,1.13,4.59,4.06,4.61,8.14,0,2.09-1,9.33-4,11.57a8.54,8.54,0,0,1-.31,2.42,7.41,7.41,0,0,0-.23,1.24c.36,1.93-.56,3.59-2.77,4.85a5.79,5.79,0,0,1-1.81,1.63,2.34,2.34,0,0,1,0,.39,3,3,0,0,1-1.42,2.07,3.52,3.52,0,0,1-1.81,1.27,3.34,3.34,0,0,1,.24,2.73c-.7,2-2.84,2.94-6.76,3h-.24c-.55,0-1.15,0-1.78-.06-1-.07-2.69-.24-4.59-.46l-.62.24a5.58,5.58,0,0,1-2,.3Z"/><path class="cls-2" d="M223.14,101.49h6.59c4.13,0,13.52,1.63,20.54,3.44s6.88,14.75,5.66,17.93.85,22.2-2.65,23.85-8.56,6.25-12,8.77-7.76,2.8-9.29,6,7.76,7.78,6.17,11.13-9.86,19.65-11,22.06-11.39,4.83-6.91,6,34.23,6.55,38.55,7,4.43.11,8.1,7.43-5,11.32-7.05,11.34h0c-2.05,0-1.8,1.38,5,2.45s2.25,14.59.76,14.83l-3,.52c-1.51.26.13,1.3,1.4,1.4s-.31,2.93,0,4.53-2.28,2-2.24,2.49-1,1-2,1.65a1.49,1.49,0,0,1-.82.34h0l-.32,0h0a1.3,1.3,0,0,0-.68.22c-.9.52,2.17,1.22,1.3,1.27-.67,0-.37,1-1.26,1h0a3.32,3.32,0,0,1-1.1-.27,4.05,4.05,0,0,0-1.31-.33h0c-.76,0-.66.69-1.29,1.25-.87.76,1,2.52,2,3.38.9.72-.6,1.47-3.72,1.5h-.2c-.5,0-1,0-1.59-.05-3.52-.24-15.41-1.81-16.59-1.81h0c-.25,0,.05.08,1.1.28,5.76,1.06,9,1.51,9,1.51a3.44,3.44,0,0,1-1,.09h-.12c-2.57,0-10.86-.82-35.81-7.39-33.17-8.75-58-23.41-62.44-25.3s-5-3.83-7.17-6.24-4.23-4-4.68-4.58,4.26-12.89,5.44-16.94,25.39-19.29,26.71-20.35-.84-2-4.42-2.32-1.82-1.11-1.36-2.26S158.13,176,158,176h.13a1.46,1.46,0,0,0,1.2-.47c.34-.55,2.41-.68,2.41-.68s-.26-.23-1.15-1a4.66,4.66,0,0,1-1.21-1.48l2-.6s-1.43-.06-1.27-1.09-.26-1.38.45-1.86.65-4-.42-4h-.09a4.54,4.54,0,0,1-.79.06h-.09a22.21,22.21,0,0,1-3.32-.32c-.61-.1-.91-1.25-.16-1.29s3.29-.76,2.57-.76h-.4c-.8,0-.34-.42-1.27-.81a6.55,6.55,0,0,1-1.94-.93c-1.11-.73.43-.62.11-2.14s-4-1.88-5.59-2.23.21-2.91-.36-2.93-6.5-13.51-6.81-29.6,31-18.52,41.83-20.36c8.1-1.36,13-1.86,27.31-2,3.4,0,7.35,0,12,0m0-6c-5,0-8.79,0-12,0-14.43.14-19.7.65-28.25,2.09-1.16.19-2.6.4-4.27.64-6.63,1-16.64,2.4-25,5.53-14.74,5.53-17.69,14-17.57,20.22a86.76,86.76,0,0,0,3.55,22.41,66.56,66.56,0,0,0,2.47,7c.16.39.34.81.54,1.24a7.09,7.09,0,0,0,.87,4.37,6.75,6.75,0,0,0,4.43,3.21l.74.15a6.13,6.13,0,0,0,.65,1.31,6.9,6.9,0,0,0,2,4.85l-.09,0,2.73,6.2v0a6.47,6.47,0,0,0-.68,6.58,5.55,5.55,0,0,0,.51.9c-16.52,11.16-20,14.78-21,18.17-.4,1.38-1.36,4.13-2.29,6.78-.82,2.34-1.67,4.76-2.28,6.67-1,3.2-2,6.23.26,9a15.42,15.42,0,0,0,1.62,1.59,42.05,42.05,0,0,1,3.22,3.17c.37.42.71.85,1.07,1.32a18.16,18.16,0,0,0,8.23,6.45c.59.25,2.14,1,3.93,2,9.43,4.87,31.51,16.27,59.32,23.6,18.84,5,31.75,7.59,37.34,7.59h.18a8.56,8.56,0,0,0,3-.47c1.64.18,3,.32,4,.38.68.05,1.35.07,2,.07h.26c5.21-.05,8.42-1.73,9.56-5a6.36,6.36,0,0,0,.35-1.7l5.55-2.15-3.63-.5a6,6,0,0,0,.63-1.33,8.2,8.2,0,0,0,1.17-1.13,7.39,7.39,0,0,0,3.74-7.11c0-.17.08-.4.12-.56a15.13,15.13,0,0,0,.32-1.69,14.15,14.15,0,0,0,2.63-4.9,25.63,25.63,0,0,0,1.43-8.09c0-3.95-1.27-6.76-3.08-8.63.2-.27.39-.56.57-.85a12.59,12.59,0,0,0,.3-12.59c-1.95-3.89-3.14-6.17-4.91-7.84-2.48-2.35-5.12-2.6-7.44-2.82l-.53-.05c-2.72-.27-16.53-2.69-26.73-4.61.61-1.3,3.15-6.37,5.4-10.85,2.42-4.82,4.7-9.37,5.5-11,2.45-5.17-1.38-9.52-3.84-12.05a25.61,25.61,0,0,0,5.09-2.78c1.17-.86,2.44-1.89,3.79-3,2.43-1.95,5.44-4.38,7.21-5.22,5.64-2.66,5.63-10.69,5.63-20.87,0-2.33,0-5.5.17-6.55,1.35-3.92,1.57-12.53-1.57-18.62a12.87,12.87,0,0,0-8.3-7c-6.87-1.78-17-3.62-22-3.63Z"/><path class="cls-1" d="M157.27,183a5.33,5.33,0,0,1-2.38-1.13l-.68-.55-.28-.83a5.72,5.72,0,0,1,1-5.36L155,175l2.17-3.63,2.61,3.19,1.21,1.21-.28.89.15.21-.39,6.6Z"/><path class="cls-2" d="M157.6,176.54h0a1.43,1.43,0,0,0,.23,1.2l-.13,2.23a2.26,2.26,0,0,1-.94-.5,2.94,2.94,0,0,1,.63-2.65l.2-.29M156.27,167l-3.76,6.39a8.66,8.66,0,0,0-1.43,8l.56,1.65,1.36,1.1a8.14,8.14,0,0,0,3.83,1.76l6.48,1,.39-6.55.13-2.22.1-1.58.57-1.77-2.79-2.58L156.27,167Z"/></g></g></svg>