<svg xmlns="http://www.w3.org/2000/svg" viewBox="0 0 648.31 249"><defs><style>.cls-1{fill:#231f20;}.cls-2{fill:#fff;}</style></defs><title>diamond2</title><g id="Layer_2" data-name="Layer 2"><g id="Layer_2-2" data-name="Layer 2"><path class="cls-1" d="M373,153.21l.23.19Z"/><path class="cls-1" d="M372.1,152.52l.7.57Z"/><path class="cls-1" d="M371.22,151.81l.88.71Z"/><path class="cls-1" d="M372.8,153.09l.15.12Z"/><path class="cls-1" d="M369.05,150.05l.23.18Z"/><path class="cls-1" d="M369.28,150.23l1.66,1.35Z"/><path class="cls-1" d="M370.94,151.58l.28.23Z"/><path class="cls-1" d="M373.78,153.89l.33.27Z"/><path class="cls-1" d="M374.11,154.16Z"/><path class="cls-1" d="M373.18,153.4l.44.36Z"/><path class="cls-1" d="M370.7,146.54l2.48,2,3.32-2.72-1.66-5.45s4.56,1.56,5.8,3.5,4.55-4.66,4.55-4.66l2.73-3.5a3.54,3.54,0,0,1,0-3.11c.83-1.55-2.73-10.49-2.73-10.49s6.66,6.6,8.32,7.77c.4.28-3.09-6.3-8.8-16.47.68-2.14,1.08-3.37,1.31-4-.35.55-1.1,1.7-1.92,2.94-.29-.49-.57-1-.86-1.52.23-.54.37-.93.31-1.06-.19-.4-1.3-3.77-2.76-3.27-6.55-22.22-25.66-53.54-45.13-73.33,3.08-4.59,5.07-7.59,5.43-8.19,2.08-3.5-9.94,0-7.52-4.28,1.52-2.67-2.25-.63-6.6.8-.87-1.07-1.7-2.06-2.5-3A16.61,16.61,0,0,0,327,17.1c5.38-3.5-.82-6.22,0-12.44.75-5.65-8.14,5.72-9.76,7.83h-.06L324.09,0s-4.37,3.49-14.27,13.6a8.28,8.28,0,0,0-4.63,5.29C276.46,43,258,74.79,242.79,109c-2.34-.16-5.48,1-9.17-.59-4.44-1.87.43,5,3.41,8.91l-.29.41L228,109.62s1.57,3.45,6.38,11.47l-3.89,5.63,12.42,22.55,4.42-10.51c16.83,30.46,72.54,90.91,83.53,99.13,8.41,6.29,1.74-15.9,1.74-15.9l-5.87-9.86-1.1-3.67,30.73-35.57c7-13.16,12.55-19.42,15.71-24.61m-62,7C302.58,144.64,294.11,135,295.35,133c-3.47-3.79-6.43-7.22-8.94-10.26a2.07,2.07,0,0,0,.19-.32c3.24-10.81,14.82-27.38,25-38.07,7.59,12.62,21.86,36.91,11.73,17.84-12.34-23.22,5,7.69,7.55,11.44,2,2.92,3.89,5.77,5.77,8.46C332.21,130.56,337.69,129.64,310,155.28Z"/><path class="cls-1" d="M373.62,153.76l.16.13Z"/><path class="cls-1" d="M386,109.31l.23-.35S386.55,107.8,386,109.31Z"/><path class="cls-1" d="M5.4,21.89c6.45,14.71,17,34.66,4.2,83.29S-.13,144.79,1.7,146.9s6,9,10.1,11.49,23.92,15.94,27.16,15A5.89,5.89,0,0,0,43,170s0,4.13.39,3.89,3.32-3,3.67-4.8,2.22-.83,1.1,1.8-2.42,4.71-.36,2.19,4.22-6,4.17-5.18a13.13,13.13,0,0,1-2.2,4.43c-.85,1,.43,1.25,1.4-.16s1.85-4.94,9.47-13.48,9.51-13.84,10.38-14.12,19.64,29.74,36.11,34.82,25-8.54,26.94-10.49,8.68-4.85,9.14-7-1.08-2.83-1.08-2.83l-1.28-1.28,1.6-1.29-1.22-.05a13.17,13.17,0,0,1,3.4-1.73,9,9,0,0,0,3-1.74,20.75,20.75,0,0,1-3.89-.12c-1.73-.27,3.51-.84,4.74-1.45s3.19-2.35,2-2.7-3.87-2.52-3-2,5-.19,4.54-.4c-9.49-4.89-34-16-55-44,1.36-3,16.08-11.63,27.29-16.32s8.42-23.18,6.48-35.1-3.5-15.61-5.41-16.78-5.24-3.19-7-4.41-8.09.4-14.67,2.34-18.63,7.34-24,11.22-3-.06-3.94-2.78-3.87-17.68-7.47-23S64,7.91,44.6,5.62,21,2.39,14.79,2.94s-13.3,5.88-12.27,11A26.17,26.17,0,0,0,5.4,21.89Z"/><path class="cls-1" d="M457,225.09c-2.95,0-3-2.77-3.06-4.61l5.94-.69a7.11,7.11,0,0,1,.13,1.47c0,.71,0,1,0,1l-.15,2.83Z"/><path class="cls-2" d="M456.93,220.41a3.79,3.79,0,0,1,.07.85c0,.6,0,.83,0,.83s0-.9-.06-1.68m5.87-1.24-11.86,1.38c0,.4,0,.84,0,1.17.16,5,4,6.37,6,6.37h5.63l.36-5.69s0-.31,0-1.13a9.66,9.66,0,0,0-.2-2.1Z"/><path class="cls-1" d="M460,222.3a3.16,3.16,0,0,1-2.27-1,3.3,3.3,0,0,1-.95-2.34,3.46,3.46,0,0,1,1.19-2.51l4.88-4.71.23,6.76a3.64,3.64,0,0,1-.9,2.85l-.88.91Z"/><path class="cls-2" d="M460.05,218.61c0,.47,0,.69-.08.69a.17.17,0,0,1-.13-.08c-.22-.21,0-.38.21-.61"/><path class="cls-1" d="M457,218.08l0-1.3.91-.91a4,4,0,0,1,1.37-.93l3.44-1.33s.62,3.75.63,3.8l.25,1-.44,1a4.55,4.55,0,0,1-1,1.37l-4.9,4.77Z"/><path class="cls-2" d="M460.35,217.74c0,.14,0,.28.08.39a1.53,1.53,0,0,1-.38.48c0-.17,0-.38,0-.63a.94.94,0,0,1,.32-.24m4.72-8.25-6.9,2.66a6.82,6.82,0,0,0-2.4,1.61L454,215.59l.08,2.58v.61l.38,13.63,9.79-9.49a7.47,7.47,0,0,0,1.65-2.26l.89-1.91-.49-2-1.2-7.27Z"/><path class="cls-1" d="M440.83,231.48c-9.09,2.2-21.09,5.11-22.09,5.41a5.79,5.79,0,0,1-1.9.33c-2.18,0-4.75-1.47-4.81-5.6a25.91,25.91,0,0,0-.38-3.23q-.12-.75-.21-1.44a3.72,3.72,0,0,1-1.32-1,4.55,4.55,0,0,1-.58-4.83c-2.67-1-3.27-3-3.45-6.28-.11-2.24,0-5.57.15-10.19.14-3.92.3-8.67.36-14.2h-.45l-.93-.9c-1.18-1.19-1.31-1.78-1.23-15.42,0-3.35.05-7.48-.05-8.51a6.85,6.85,0,0,0-.75-.9c-2.62-2.87-1.89-4.88-.75-6.08a5.51,5.51,0,0,0,.28-1.73v-1l.63-.82a3.74,3.74,0,0,0,.63-1.61h-.45l-.23,0c-.92-.12-2.18-.62-7.66-3.42-.4-.21-.71-.36-.88-.44a3.15,3.15,0,0,1-1.7-3.53,4.05,4.05,0,0,1,2.52-2.52c-.53-.55-1-1.18-1.57-1.85-1.73-2.17-3.7-4.62-7.32-5.71-2.54-.76-5.3-1.69-8-2.59a107.59,107.59,0,0,0-10.41-3.18l-.22.8h-2.31c-1.3,0-8.85-3.08-10.39-5.14-2.43-3.25.21-8,1.45-9.94a14.89,14.89,0,0,1,2.54-2.89,7.73,7.73,0,0,0,1.46-1.63,1.22,1.22,0,0,0,.3-1,9.57,9.57,0,0,1,.33-2.59l.13-.5c1.39-5.35,3.7-12.93,7.71-17A24,24,0,0,0,372,87.21c1.16-1.61,2-2.59,5.07-4.19a31.57,31.57,0,0,1,6.37-2.77l.55-.12.55.08c4.49.69,9.37,1.23,27.63,1.49,12,.16,25.12,1,35.67,1.75,6.12.41,11.41.76,15.34.91,10.53.39,27.42,2.25,33.43,4.07A69.71,69.71,0,0,0,503.78,90c3.32.6,6,1.07,7.6,2.11h.05l.48,0a3.53,3.53,0,0,1,2.6,1c1.15,1.18,1.2,2.81,1.15,4.67s-.07,3.91-.08,5.75c0,2.36,0,4.4-.12,5.73-.06.92-.68,9.1-6,13.56-3.88,3.26-10.25,7.67-12.72,9.29a18.17,18.17,0,0,1-5.85,2.37l-9.73,8.9h-.95l-.6.26L462.24,139c.5,8,1.51,24.85,1.58,29,.06,3.84.06,6.52.06,8.87,0,1.84,0,3.45,0,5.2,0,.59,0,1.67.08,3.08.34,13.31.61,27.51,0,31.94-.14,1.14-.41,3.26-1.94,4.09a4.19,4.19,0,0,1-1.07,2.59,3.28,3.28,0,0,1-2.41,1.06,3.14,3.14,0,0,0-3.35,1.11h-.05a3.22,3.22,0,0,1-.64.33,3.12,3.12,0,0,1-2.22.92,3.23,3.23,0,0,1-.87-.14,4.17,4.17,0,0,1-3.85,2.82,3.4,3.4,0,0,1-.82-.1,2.61,2.61,0,0,1-.65.39L444.54,239Z"/><path class="cls-2" d="M384.12,83.18c4.38.67,9.29,1.26,28,1.52s40,2.25,50.95,2.65,27.32,2.33,32.67,4,12,2,14,3.36a2.5,2.5,0,0,0,1.44.45c.25,0,.47,0,.65,0,.57,0,.82.28.76,2.64-.12,4.31-.07,9.11-.21,11.38s-1.15,8.28-4.91,11.44-10,7.48-12.44,9.09a16.26,16.26,0,0,1-5.61,2.09L480,140.4a1.67,1.67,0,0,0-.61.09L459,135s1.74,27.68,1.83,33c.12,6.89,0,10.1.08,14.07s.87,28.93.15,34.59c-.17,1.33-.32,1.82-.44,1.82s-.13-.14-.18-.35a.88.88,0,0,0,.07-.23c0-.12,0-.18-.07-.18l-.08,0c-.16-1-.26-2.66-.31-2.66a2,2,0,0,0,0,.58c0,1,0,1.75,0,2.32a3.34,3.34,0,0,0-.94,2.4c.06.88-.2,1.4-.49,1.4s-.53-.43-.61-1.4c-.09-1.15.1-1.51,0-1.51a9.76,9.76,0,0,1-1.08.44s0,.52,0,1.1c-.07-.32-.18-.46-.32-.46-.4,0-1,1.17-1,2.12,0,.58-.16.82-.32.82s-.59-.6-.76-1.47c-.05-.22-.09-.31-.14-.31-.24,0-.51,2.28-.89,2.28a.19.19,0,0,1-.1,0,.22.22,0,0,0-.16-.09c-.32,0-.64.89-.85.89s-.16-.13-.2-.49c-.2-1.47-1.69-1.93-.44-4.68.55-1.21,1-1.42,1.13-1.44h0s0,0,0,0h0c-.13,0-.48-.19-1.14-.9a1.52,1.52,0,0,0-1-.6c-1.06,0-1.35,2.83-1.42,6.52-.06,3-.89,4.27-1.67,4.27-.43,0-.85-.41-1.1-1.17a64.86,64.86,0,0,1-1.44-10.07c0-.62,0-1,0-1v.1c0,.17,0,.49,0,.9,0,2.54,0,9.24-.06,11,0,.58,0,.78-.09.78s-.31-1.17-.6-1.17c-.07,0-.15.07-.23.25a16,16,0,0,0-.89,3.09l-.74-1.51s-23.77,5.71-24.65,6a2.8,2.8,0,0,1-1,.19c-.85,0-1.78-.5-1.81-2.65,0-3.06-1.39-7.08-.25-7.08h0c.49,0,1.35.16,2,.16.94,0,1.58-.28.52-1.63-1.55-2-2.26-5.94-2-5.94.05,0,.12.13.23.43s.27.47.41.47c.73,0,1.56-3.3.31-3.64s-2.34-1.72-2.71-1.72c-.14,0-.16.17-.05.62.44,1.75-.3,3.63-.06,5.3.2,1.47.22,5.72-.66,5.72a.64.64,0,0,1-.42-.27c-1.29-1.52,2.27-4-.05-5.06s-3,0-3.25-4.25.46-13.45.53-26.69-.3-28.64-.14-30c.14-1.15-.82-4.86-1.12-4.86-.05,0-.08.09-.08.3,0,1.55.22,32-.77,33.89,0,.08-.08.11-.12.11-.81,0-.12-20.6-.51-22.47s-3.28-3.26-2.22-4.33,1.06-3.73,1.06-3.73A6.38,6.38,0,0,0,407,152.6c-.32-2.34,0-5.14-1.5-5.17h0c-1.46,0-.89,3-1.73,3h0c-.91-.12-6.6-3.1-7.56-3.58s4.34-1.78,7.42-1.78h.34c2.75,0-2.35-1.94-4.73-2.67s-4.43-7.19-11.57-9.33-16.16-5.67-19.88-6c-.82-.08-1.43-.12-1.87-.12-1.56,0-1,.45-.11,1,.11.06.13.09.09.09-.41,0-7.05-2.68-8-3.94s.18-4.39,1.56-6.5,2.75-2.56,4-4.54.45-2.37,1-4.4,2.88-11.91,7.07-16.12,2.73-4.6,7-6.82a29.86,29.86,0,0,1,5.64-2.51m-.19-6.1-1.1.24a35.77,35.77,0,0,0-7.1,3,14.57,14.57,0,0,0-6.12,5.08,21,21,0,0,1-2.41,2.84c-4.53,4.55-7,12.63-8.49,18.32l-.13.47a12,12,0,0,0-.42,3,7.83,7.83,0,0,1-.82.81,17.83,17.83,0,0,0-3,3.45c-3.36,5.14-3.85,10-1.35,13.37.93,1.24,2.39,2.45,6.53,4.32,4.49,2,5.44,2,6.27,2h4.58l.05-.17c2.19.64,4.95,1.57,7.35,2.38,2.69.91,5.48,1.84,8.07,2.62s4,2.44,5.41,4.18a6.14,6.14,0,0,0,2.19,9.24l.84.43c2.34,1.19,4,2,5.14,2.54l.3,1.68c0,.12,0,.25,0,.38-1.16,1.63-2.66,5.14,1.29,9.46h0c0,1.65,0,4.87,0,7.36-.07,13.6-.08,15.35,2.1,17.55l.49.49c-.08,4.76-.22,8.91-.33,12.39-.16,4.7-.28,8.09-.15,10.46a11.85,11.85,0,0,0,1.4,5.76,7.55,7.55,0,0,0,1.64,1.89,6.84,6.84,0,0,0,1.7,5.24,6.42,6.42,0,0,0,.83.82l0,.15a26.08,26.08,0,0,1,.34,2.8c.09,5.88,4.11,8.56,7.81,8.56a9,9,0,0,0,2.81-.47C421,239.37,431,237,439.2,235l6.67,13.6,2.86-15.86a7.2,7.2,0,0,0,4.34-2.6,5.94,5.94,0,0,0,3-1.26,5.77,5.77,0,0,0,2.68-1.07,6.27,6.27,0,0,0,4.41-2,6.76,6.76,0,0,0,1.62-3,6.61,6.61,0,0,0,1.81-3.23,19.07,19.07,0,0,0,.37-2.12c.59-4.62.34-18.29,0-32.38,0-1.41-.07-2.48-.08-3.08,0-1.7,0-3.29,0-5.12,0-2.37,0-5.06-.06-8.94-.06-3.54-.8-16.28-1.33-24.94l12.35,3.32,2,.54,1-.42h1.5l1.72-1.57,8.3-7.59a20.77,20.77,0,0,0,6.05-2.6c2-1.32,8.7-5.89,13-9.5,6.13-5.16,6.94-14,7-15.69.08-1.4.1-3.46.13-5.86,0-1.79,0-3.83.08-5.71s.13-4.66-2-6.84a6.51,6.51,0,0,0-4.54-2c-2-1-4.64-1.47-7.81-2a63.29,63.29,0,0,1-6.79-1.48c-6.21-1.88-23.48-3.8-34.19-4.19-3.88-.14-9.15-.5-15.25-.91-10.58-.71-23.76-1.59-35.83-1.75-18-.25-23-.81-27.22-1.45l-1.1-.17Z"/><path class="cls-1" d="M495.27,188.72l-.28,9.5s42.79-18,42.79-26.26c-.94.55,0-3,0-2,1.87-2.51,8.5-18.83,8.5-18.83,1.35-2.11,2.92-4.6,4.58-7.11,7.35-3.4,15.22-9,23.21-9l8.82-3.67c-.42,10.14-6.09,28.55-6.71,21.38,0-.46-4,5.48-4.39,10.47-.33,4.64,38.32-17.91,47.75-26.85,8.54-8.65,9.27-16,5.68-25.61a3.3,3.3,0,0,0,.72-.42,17,17,0,0,1,3.45-1.87c1.48-.75,3-1.47,4.56-2.24,0,.15.06.46.14,1.1a3.87,3.87,0,0,0,.57-1.06c.16-1.24.89-1.39,1.37-1.23,1.18.41,1.78.17,2.5-1.44.39.89.81.74,1.09-.24.37-1.33.79-1.7,1.65-1,.23.18,1-.28,1.22-.72a14.1,14.1,0,0,0,.74-2.65l-2.53.34a7.42,7.42,0,0,1,3.38-4.19c.49-.26,1-.5,1.45-.81a5.93,5.93,0,0,0,2.6-4.9c.28-4,.39-8-.94-11.29A34.28,34.28,0,0,0,644,72.67c-2.17-3.48-5.34-5-8-7.54a59.07,59.07,0,0,0-5.07-3.95,2.45,2.45,0,0,0-.92-.5c-.86-.19-1.75-.26-1.28-1.69a51.89,51.89,0,0,0-3.09,5c-1,1.74-2.46,3.23-2.77,5.32l-.59-1.8A52.9,52.9,0,0,1,609.7,80.84q-1.47-2.76-3-5.73a41.94,41.94,0,0,0-1.68-5,25.54,25.54,0,0,0-2.34-4.57c-.55-1.62-1.13-3.17-1.78-4.69-.53-1.2-1.1-2.36-1.72-3.5s-1.27-2.24-2-3.32C591.43,45.6,585.28,29.1,576,28.67l-2.09-.11-2.26.22c-1.88,2-12.41,6.35-13.65,8.58l-35.75,81.38a7,7,0,0,0-2.41,1,11,11,0,0,0,.78,2.68m41.25-16.85c-1.78-4.26,0-13.38,1.21-18.31.19-.85.41-1.7.66-2.56.69-2.44,1.58-5,2.43-7.52C568.86,79.13,582.62,104.85,561.86,105.59Z"/><path class="cls-1" d="M573.9,28.56l2.09-.2S570.78,28.36,573.9,28.56Z"/><path class="cls-1" d="M251.63,246c-.64,0-1.33,0-2-.08-1-.08-2.68-.27-4.58-.5l-.64.24a5.81,5.81,0,0,1-2,.27c-3,0-11.73-1-36.65-7.85-27.42-7.52-49.18-19-58.48-23.94-1.91-1-3.41-1.81-4.11-2.11a15.14,15.14,0,0,1-7-5.59c-.39-.51-.76-1-1.19-1.5a45.48,45.48,0,0,0-3.41-3.42,14.52,14.52,0,0,1-1.31-1.3c-1.34-1.65-1-2.49,2.66-12.73,1-2.68,2-5.45,2.41-6.9.81-2.67,5-6.63,23.65-18.79a4.08,4.08,0,0,1-3.16-2.19,3.75,3.75,0,0,1,.67-3.9l.16-.23a.93.93,0,0,0-.05.1,2.31,2.31,0,0,0,.1,1.87,2,2,0,0,0,1.05,1l.2-3.42a7.4,7.4,0,0,1-1.22-1.67h0l-.15-.31L155.24,150l1.87-.55a4.14,4.14,0,0,1,.44-2.13c-1-.1-1.85-.23-2.22-.31a3.83,3.83,0,0,1-3-4,4.16,4.16,0,0,1,.12-.72,3.38,3.38,0,0,1-1.07-2,3.54,3.54,0,0,1,0-.92c-.6-.14-1.26-.27-1.65-.35l-1.1-.22a3.78,3.78,0,0,1-2.46-1.82,4.36,4.36,0,0,1-.32-3.32,44.28,44.28,0,0,1-3.16-8.7,83.78,83.78,0,0,1-3.22-21.65c-.16-16.91,26.1-20.43,40.21-22.32,1.66-.23,3.13-.42,4.35-.62,8.38-1.32,13.57-1.77,27.79-1.77,4.56,0,10.12,0,18.62.15,4.74,0,14.72,2,21.25,3.74a10,10,0,0,1,6.33,5.5c2.82,5.61,2.26,13.71,1.16,16.48a53.7,53.7,0,0,0-.32,7.33c-.1,10.11-.35,16.39-4.1,18.12-2.1,1-5.16,3.38-7.86,5.51-1.33,1-2.59,2-3.72,2.85a23.23,23.23,0,0,1-4.83,2.53,10.18,10.18,0,0,0-3.28,1.8,21.49,21.49,0,0,0,2.16,2.46c2.26,2.36,5.35,5.58,3.62,9.15-.81,1.64-3.13,6.16-5.58,10.94s-5,9.78-5.6,11a7.37,7.37,0,0,1-3.3,3c10,2.07,29,5.65,32.42,6l.53.06c5.31.55,6.28,1.77,9.87,9.11a9.53,9.53,0,0,1-.28,9.69,11.8,11.8,0,0,1-2.57,2.88c2.9,1.16,4.56,4.11,4.53,8.19,0,2.09-1.1,9.32-4.09,11.53a9.36,9.36,0,0,1-.34,2.42,6.71,6.71,0,0,0-.24,1.23c.34,1.94-.6,3.59-2.82,4.83a6.1,6.1,0,0,1-1.82,1.61,3.53,3.53,0,0,1,0,.38,3.07,3.07,0,0,1-1.44,2.07,3.59,3.59,0,0,1-1.82,1.25,3.31,3.31,0,0,1,.21,2.72C257.7,245.07,255.55,246,251.63,246Z"/><path class="cls-2" d="M211.78,81.53c4.92,0,10.94.06,18.58.15,4.13,0,13.51,1.75,20.51,3.63s6.74,14.82,5.48,18,.63,22.2-2.88,23.82-8.62,6.17-12.08,8.66-7.78,2.72-9.34,5.86,7.68,7.86,6.06,11.19-10.06,19.55-11.19,22-11.44,4.71-7,6,34.16,6.89,38.48,7.36,4.43.15,8,7.5-5.1,11.28-7.16,11.28h0c-2.05,0-1.82,1.36,5,2.5s2.1,14.6.61,14.83-1.49.25-3,.49.12,1.3,1.39,1.42-.34,2.92-.06,4.52-2.3,2-2.27,2.48-1,1-2,1.63a1.42,1.42,0,0,1-.82.32l-.35,0a1.36,1.36,0,0,0-.69.22c-.9.51,2.16,1.23,1.29,1.28-.67,0-.38,1-1.27,1a3.31,3.31,0,0,1-1.11-.27,3.81,3.81,0,0,0-1.32-.35c-.76,0-.67.69-1.3,1.23-.88.76,1,2.54,2,3.4.89.74-.61,1.47-3.73,1.47-.55,0-1.15,0-1.79-.07-3.53-.27-15.47-2-16.58-2-.25,0,.05.08,1.1.29,5.75,1.12,9,1.6,9,1.6a3.31,3.31,0,0,1-1,.08c-2.44,0-10.59-.82-35.86-7.75-33.08-9.07-57.75-24-62.18-25.9s-5-3.88-7.11-6.31-4.19-4.09-4.64-4.63,4.39-12.85,5.61-16.89,25.58-19,26.9-20.08-.82-2-4.39-2.37-1.81-1.13-1.34-2.27-1.33-1.26-1.45-1.26H158a1.5,1.5,0,0,0,1.22-.47c.34-.54,2.41-.65,2.41-.65l-1.14-1a4.48,4.48,0,0,1-1.19-1.49l2-.58s-1.43-.07-1.26-1.11-.23-1.38.47-1.85.69-4-.38-4h-.08a4.74,4.74,0,0,1-.8.06,22.83,22.83,0,0,1-3.4-.35c-.61-.12-.9-1.27-.15-1.3s3.32-.73,2.57-.73h-.36c-.84,0-.36-.42-1.3-.83a6.73,6.73,0,0,1-1.93-1c-1.1-.74.44-.61.13-2.13s-4-1.93-5.56-2.29.24-2.91-.33-2.93-6.37-13.58-6.52-29.67,31.14-18.22,42-19.94c8.11-1.29,13-1.74,27.32-1.74m0-6c-14.42,0-19.7.45-28.26,1.81-1.17.18-2.61.38-4.28.6-6.64.89-16.66,2.24-25.05,5.29-14.78,5.38-17.82,13.86-17.76,20a86.68,86.68,0,0,0,3.33,22.44,66.81,66.81,0,0,0,2.4,7.06c.16.39.33.81.53,1.25a7,7,0,0,0,.82,4.37,6.8,6.8,0,0,0,4.4,3.26l.74.15a6.57,6.57,0,0,0,.63,1.32,6.93,6.93,0,0,0,2,4.87l-.09,0,2.67,6.23v0a6.49,6.49,0,0,0-.75,6.58,6.39,6.39,0,0,0,.5.9c-16.63,11-20.1,14.59-21.12,18-.42,1.38-1.4,4.11-2.36,6.75-.84,2.33-1.71,4.75-2.35,6.65-1.07,3.19-2.07,6.21.18,9a16,16,0,0,0,1.6,1.61,43.6,43.6,0,0,1,3.19,3.2c.36.42.7.86,1.05,1.33a18.21,18.21,0,0,0,8.17,6.53c.59.26,2.13,1.07,3.91,2,9.38,5,31.35,16.58,59.09,24.18,19,5.21,31.93,8,37.44,8a8.72,8.72,0,0,0,3-.44c1.63.19,3,.35,4,.42q1.17.09,2.25.09c5.21,0,8.44-1.65,9.61-4.9a6.38,6.38,0,0,0,.36-1.7l5.57-2.1-3.62-.53a5.79,5.79,0,0,0,.65-1.32,8.73,8.73,0,0,0,1.18-1.12,7.4,7.4,0,0,0,3.8-7.08l.13-.56a16.42,16.42,0,0,0,.34-1.68,14.12,14.12,0,0,0,2.68-4.88,25.66,25.66,0,0,0,1.5-8.07c0-4-1.2-6.78-3-8.66.21-.27.4-.56.58-.84a12.59,12.59,0,0,0,.42-12.59c-1.91-3.91-3.07-6.2-4.83-7.89-2.45-2.38-5.09-2.65-7.42-2.89l-.52-.06c-2.72-.29-16.5-2.85-26.68-4.87.62-1.3,3.21-6.34,5.5-10.79,2.47-4.8,4.8-9.33,5.61-11,2.51-5.14-1.28-9.52-3.72-12.08a25.87,25.87,0,0,0,5.12-2.73c1.18-.85,2.46-1.86,3.82-2.93,2.44-1.93,5.48-4.33,7.26-5.15,5.66-2.61,5.74-10.64,5.84-20.81,0-2.34.05-5.5.22-6.55,1.39-3.91,1.69-12.52-1.38-18.64a12.88,12.88,0,0,0-8.23-7c-6.85-1.84-17-3.78-22-3.84-8.52-.1-14.1-.15-18.65-.15Z"/><path class="cls-1" d="M157.11,162.41a5.13,5.13,0,0,1-2.37-1.15l-.68-.55-.27-.83a5.74,5.74,0,0,1,1.08-5.35l.08-.11,1.81-3,2.76,2.36,1.43,1.43-.31.9.16.22-.46,6.59Z"/><path class="cls-2" d="M157.5,156v0a1.37,1.37,0,0,0,.22,1.19l-.15,2.23a2.27,2.27,0,0,1-.94-.5,2.92,2.92,0,0,1,.66-2.65l.2-.29m-1.2-9.63-3.86,6.4a8.62,8.62,0,0,0-1.5,8l.54,1.67,1.35,1.11a8.21,8.21,0,0,0,3.81,1.8l6.47,1,.45-6.54.16-2.22.11-1.58.58-1.74-2.73-2.61-5.38-5.33Z"/></g></g></svg>