<svg xmlns="http://www.w3.org/2000/svg" viewBox="0 0 666.24 273.72"><defs><style>.cls-1{fill:#231f20;}.cls-2{fill:#fff;}</style></defs><title>Asset 38</title><g id="Layer_2" data-name="Layer 2"><g id="Layer_2-2" data-name="Layer 2"><path class="cls-1" d="M257.5,175.46a2.65,2.65,0,0,1-.26.21Z"/><path class="cls-1" d="M258.48,174.67l-.81.65Z"/><path class="cls-1" d="M259.49,173.85l-1,.82Z"/><path class="cls-1" d="M257.67,175.32l-.17.14Z"/><path class="cls-1" d="M262,171.84l-.26.21Z"/><path class="cls-1" d="M261.71,172.05l-1.9,1.54Z"/><path class="cls-1" d="M259.81,173.59l-.32.26Z"/><path class="cls-1" d="M256.55,176.24l-.37.3Z"/><path class="cls-1" d="M256.18,176.54Z"/><path class="cls-1" d="M257.24,175.67l-.51.42Z"/><path class="cls-1" d="M260.09,167.82l-2.85,2.23-3.8-3.12,1.9-6.23s-5.22,1.78-6.64,4-5.22-5.34-5.22-5.34l-3.12-4a4.05,4.05,0,0,0,0-3.56c-1-1.78,3.12-12,3.12-12s-7.62,7.57-9.52,8.9c-.45.32,3.54-7.22,10.07-18.86-.77-2.44-1.23-3.85-1.5-4.64.41.64,1.26,1.95,2.21,3.37l1-1.74c-.27-.62-.42-1.06-.35-1.21.21-.46,1.49-4.32,3.16-3.75,7.49-25.44,29.38-61.31,51.68-84-3.53-5.27-5.81-8.7-6.22-9.39-2.38-4,11.39,0,8.61-4.9-1.74-3.06,2.58-.72,7.57.91q1.49-1.83,2.85-3.38a20.66,20.66,0,0,1-2.9-1.53c-6.16-4,.95-7.13,0-14.25-.85-6.47,9.33,6.55,11.18,9l.07,0L313.46,0s5,4,16.34,15.57a9.47,9.47,0,0,1,5.3,6.06c32.91,27.65,54,64,71.47,103.17,2.68-.19,6.28,1.11,10.5-.68,5.09-2.14-.5,5.76-3.9,10.21l.32.46,10-9.25s-1.8,4-7.31,13.14l4.46,6.44-14.23,25.82-5.05-12C382.08,193.79,318.29,263,305.7,272.43c-9.63,7.21-2-18.21-2-18.21l6.72-11.29,1.27-4.2L276.5,198c-8-15.07-14.37-22.24-18-28.19M330.36,197c12.57-17.92,26.84-34.18,24.75-37.56C361,153,366,147.25,370.18,142.13a2.74,2.74,0,0,1-.32-.54c-5.47-18.21-25-46.14-42.17-64.15-12.79,21.27-36.82,62.19-19.76,30.07,20.79-39.13-8.48,12.94-12.72,19.27-3.3,4.92-6.56,9.72-9.71,14.26C293,155.32,283.76,153.76,330.36,197Z"/><path class="cls-1" d="M256.73,176.09l-.18.15Z"/><path class="cls-1" d="M242.53,125.18l-.25-.39S241.94,123.45,242.53,125.18Z"/><path class="cls-1" d="M5.4,39.89c6.45,14.71,17,34.66,4.2,83.29S-.13,162.79,1.7,164.9s6,9,10.1,11.49,23.92,15.94,27.16,15A5.89,5.89,0,0,0,43,188s0,4.13.39,3.89,3.32-3,3.67-4.8,2.22-.83,1.1,1.8-2.42,4.71-.36,2.19,4.22-6,4.17-5.18a13.13,13.13,0,0,1-2.2,4.43c-.85,1,.43,1.25,1.4-.16s1.85-4.94,9.47-13.48,9.51-13.84,10.38-14.12,19.64,29.74,36.11,34.82,25-8.54,26.94-10.49,8.68-4.85,9.14-7-1.08-2.83-1.08-2.83l-1.28-1.28,1.6-1.29-1.22-.05a13.17,13.17,0,0,1,3.4-1.73,9,9,0,0,0,3-1.74,20.75,20.75,0,0,1-3.89-.12c-1.73-.27,3.51-.84,4.74-1.45s3.19-2.35,2-2.7-3.87-2.52-3-2,5-.19,4.54-.4c-9.49-4.89-34-16-55-44,1.36-3,16.08-11.63,27.29-16.32s8.42-23.18,6.48-35.1-3.5-15.61-5.41-16.78-5.24-3.19-7-4.41-8.09.4-14.67,2.34-18.63,7.34-24,11.22-3-.06-3.94-2.78-3.87-17.68-7.47-23S64,25.91,44.6,23.62,21,20.39,14.79,20.94s-13.3,5.88-12.27,11A26.17,26.17,0,0,0,5.4,39.89Z"/><path class="cls-1" d="M474.92,243.09c-2.95,0-3-2.78-3.05-4.61l5.93-.69a7.16,7.16,0,0,1,.14,1.48c0,.7,0,1,0,1l-.17,2.82Z"/><path class="cls-2" d="M474.87,238.41a4.5,4.5,0,0,1,.07.85c0,.6,0,.83,0,.83s0-.9-.05-1.68m5.87-1.24-11.87,1.38c0,.4,0,.84,0,1.17.15,5,4,6.37,6,6.37h5.63l.36-5.69s0-.31,0-1.13a10.33,10.33,0,0,0-.2-2.1Z"/><path class="cls-1" d="M477.9,240.3a3.16,3.16,0,0,1-2.27-1,3.3,3.3,0,0,1-.95-2.34,3.52,3.52,0,0,1,1.2-2.52l4.89-4.69.21,6.75a3.65,3.65,0,0,1-.89,2.85l-.89.91Z"/><path class="cls-2" d="M478,236.61c0,.47,0,.69-.08.69s-.07,0-.12-.08c-.22-.21,0-.38.2-.61"/><path class="cls-1" d="M474.92,234.78l.91-.91a4,4,0,0,1,1.38-.93l3.43-1.33.61,3.63c0,.07,0,.12,0,.17l.25,1-.45,1a4.52,4.52,0,0,1-1,1.36l-4.87,4.76Z"/><path class="cls-2" d="M478.29,235.74a3.33,3.33,0,0,0,.08.39,1.71,1.71,0,0,1-.39.48c0-.17,0-.38,0-.63a1,1,0,0,1,.33-.24m4.71-8.25-6.89,2.66a6.85,6.85,0,0,0-2.41,1.61l-1.82,1.83.09,2.58v.61l.38,13.63,9.79-9.49a7.64,7.64,0,0,0,1.65-2.26l.89-1.91-.49-2L483,227.49Z"/><path class="cls-1" d="M458.77,249.48c-9.1,2.2-21.1,5.11-22.09,5.41a5.84,5.84,0,0,1-1.9.33c-2.18,0-4.75-1.47-4.82-5.6a27.84,27.84,0,0,0-.37-3.23c-.08-.5-.16-1-.22-1.44a3.76,3.76,0,0,1-1.32-1,4.53,4.53,0,0,1-.58-4.82c-2.66-1-3.26-3-3.44-6.28-.12-2.24,0-5.58.15-10.21.13-3.91.29-8.66.36-14.18h-.46l-.92-.9c-1.18-1.19-1.31-1.78-1.23-15.43,0-3.34,0-7.47-.06-8.5a6.71,6.71,0,0,0-.74-.9c-2.63-2.87-1.89-4.88-.76-6.08a5.78,5.78,0,0,0,.29-1.73v-1l.63-.82a3.87,3.87,0,0,0,.63-1.61h-.49l-.25,0c-.86-.11-2.12-.61-7.61-3.41l-.87-.45a3.13,3.13,0,0,1-1.7-3.52,4,4,0,0,1,2.51-2.52c-.52-.55-1-1.18-1.56-1.85-1.74-2.17-3.7-4.62-7.32-5.71-2.55-.76-5.31-1.69-8-2.59a106.75,106.75,0,0,0-10.41-3.18l-.22.8h-2.31c-1.3,0-8.85-3.08-10.39-5.14-2.42-3.25.21-8,1.46-9.94a14.56,14.56,0,0,1,2.53-2.89,7.73,7.73,0,0,0,1.46-1.63,1.19,1.19,0,0,0,.31-1,9.46,9.46,0,0,1,.32-2.59l.13-.5c1.39-5.35,3.71-12.93,7.72-17a24.46,24.46,0,0,0,2.71-3.18A11.63,11.63,0,0,1,395,101a31.85,31.85,0,0,1,6.37-2.77l.55-.12.55.08c4.49.69,9.37,1.23,27.63,1.49,12,.16,25.12,1,35.67,1.75,6.13.41,11.42.76,15.35.91,10.52.39,27.42,2.25,33.43,4.07a69.52,69.52,0,0,0,7.12,1.56c3.32.6,6,1.07,7.61,2.11h0l.48,0a3.53,3.53,0,0,1,2.6,1c1.15,1.18,1.2,2.81,1.15,4.67s-.07,3.91-.09,5.75c0,2.36,0,4.4-.12,5.73,0,.92-.68,9.1-6,13.56-3.88,3.26-10.24,7.67-12.72,9.29a18.08,18.08,0,0,1-5.85,2.37l-9.73,8.9h-.95l-.6.25L480.18,157c.49,8,1.51,24.85,1.58,29,.06,3.85.06,6.53.05,8.89,0,1.84,0,3.43,0,5.18,0,.6,0,1.67.07,3.08.34,13.31.61,27.51,0,31.94-.15,1.14-.42,3.26-1.95,4.09a4.16,4.16,0,0,1-1.06,2.58,3.27,3.27,0,0,1-2.41,1.07,3.09,3.09,0,0,0-3.36,1.11h-.07a2.71,2.71,0,0,1-.61.32,3.06,3.06,0,0,1-2.22.93,3.18,3.18,0,0,1-.87-.14,4.19,4.19,0,0,1-3.85,2.82,3.54,3.54,0,0,1-.83-.1,3.14,3.14,0,0,1-.64.39l-1.62,8.94Z"/><path class="cls-2" d="M402.06,101.18c4.37.67,9.29,1.26,28,1.52s40,2.25,50.95,2.65,27.32,2.33,32.67,4,12,2,14,3.36a2.54,2.54,0,0,0,1.44.45c.26,0,.47,0,.66,0,.57,0,.81.28.75,2.64-.11,4.31-.07,9.11-.2,11.38s-1.16,8.28-4.92,11.44-10,7.48-12.43,9.09a16.33,16.33,0,0,1-5.61,2.09L498,158.4a1.63,1.63,0,0,0-.61.09L476.93,153s1.74,27.68,1.83,33c.11,6.89,0,10.1.08,14.07s.86,28.93.14,34.59c-.17,1.33-.31,1.82-.44,1.82s-.12-.14-.17-.35a1.55,1.55,0,0,0,.07-.23c0-.12,0-.18-.08-.18l-.07,0c-.17-1-.27-2.66-.32-2.66a3.83,3.83,0,0,0,0,.58c0,1,0,1.75,0,2.32a3.34,3.34,0,0,0-.94,2.4c.06.88-.2,1.4-.48,1.4s-.54-.43-.62-1.4c-.09-1.15.11-1.51,0-1.51a9,9,0,0,1-1.07.44s0,.52,0,1.1c-.07-.32-.19-.46-.33-.46-.4,0-1,1.17-1,2.12,0,.58-.17.82-.33.82s-.58-.6-.76-1.47c0-.22-.09-.31-.14-.31-.23,0-.51,2.28-.88,2.28a.16.16,0,0,1-.1,0,.24.24,0,0,0-.17-.09c-.32,0-.63.89-.85.89s-.15-.13-.2-.49c-.19-1.47-1.69-1.93-.44-4.68.56-1.21,1-1.42,1.13-1.44h0s0,0,0,0h0a2.85,2.85,0,0,1-1.13-.9,1.54,1.54,0,0,0-1-.6c-1.06,0-1.36,2.83-1.43,6.52-.05,3-.89,4.27-1.66,4.27-.44,0-.85-.41-1.1-1.17A64.86,64.86,0,0,1,463,233.58c0-.62,0-1,0-1a.45.45,0,0,0,0,.1,8.12,8.12,0,0,0,0,.9c0,2.54,0,9.24-.07,11,0,.58,0,.78-.08.78s-.32-1.17-.61-1.17c-.07,0-.15.07-.23.25a16.42,16.42,0,0,0-.88,3.09L460.4,246s-23.76,5.71-24.64,6a2.89,2.89,0,0,1-1,.19c-.86,0-1.78-.5-1.82-2.65,0-3.06-1.39-7.08-.24-7.08h0c.48,0,1.34.16,2,.16.95,0,1.59-.28.52-1.63-1.55-2-2.25-5.94-2-5.94,0,0,.12.13.23.43s.26.47.41.47c.72,0,1.56-3.3.31-3.64s-2.34-1.72-2.72-1.72c-.13,0-.16.17-.05.62.44,1.75-.29,3.63-.06,5.3.21,1.47.22,5.72-.65,5.72a.64.64,0,0,1-.42-.27c-1.3-1.52,2.27-4-.05-5.06s-3,0-3.26-4.25.46-13.45.54-26.69-.3-28.64-.14-30c.14-1.15-.83-4.86-1.12-4.86-.05,0-.08.09-.09.3,0,1.55.22,32-.77,33.89,0,.08-.08.11-.11.11-.82,0-.12-20.6-.52-22.47s-3.28-3.26-2.22-4.33,1.07-3.73,1.07-3.73a6.39,6.39,0,0,0,1.23-4.32c-.32-2.34,0-5.14-1.5-5.17h0c-1.45,0-.89,3-1.72,3h0c-.91-.12-6.61-3.1-7.56-3.58s4.33-1.78,7.41-1.78h.35c2.74,0-2.36-1.94-4.73-2.67s-4.44-7.19-11.57-9.33-16.17-5.67-19.89-6c-.82-.08-1.42-.12-1.86-.12-1.56,0-1,.45-.12,1q.17.09.09.09c-.4,0-7-2.68-8-3.94s.18-4.39,1.56-6.5,2.74-2.56,4-4.54.46-2.37,1-4.4,2.89-11.91,7.08-16.12,2.72-4.6,7-6.82a29.86,29.86,0,0,1,5.64-2.51m-.2-6.1-1.09.24a35.52,35.52,0,0,0-7.1,3,14.5,14.5,0,0,0-6.12,5.08,21.22,21.22,0,0,1-2.42,2.84c-4.52,4.55-7,12.63-8.49,18.32l-.12.47a12.07,12.07,0,0,0-.43,3,6.66,6.66,0,0,1-.81.81,17.83,17.83,0,0,0-3,3.45c-3.37,5.14-3.86,10-1.35,13.37.92,1.24,2.39,2.45,6.53,4.32,4.49,2,5.43,2,6.26,2h4.59l.05-.17c2.19.64,4.94,1.57,7.34,2.38,2.7.91,5.48,1.84,8.07,2.62a11.05,11.05,0,0,1,5.41,4.18,6.16,6.16,0,0,0,2.2,9.24l.83.43c2.34,1.19,4,2,5.15,2.54l.3,1.68c0,.12,0,.25,0,.38-1.15,1.63-2.65,5.14,1.3,9.46h0c0,1.65,0,4.87,0,7.36-.08,13.6-.09,15.35,2.1,17.55l.48.49c-.07,4.76-.21,8.91-.33,12.39-.16,4.7-.27,8.09-.15,10.46a11.86,11.86,0,0,0,1.41,5.76,7.33,7.33,0,0,0,1.63,1.89,6.88,6.88,0,0,0,1.7,5.24,7.13,7.13,0,0,0,.83.82l0,.15a21.81,21.81,0,0,1,.34,2.8c.1,5.88,4.12,8.56,7.82,8.56a8.84,8.84,0,0,0,2.8-.47c1.39-.38,11.32-2.8,19.56-4.79l6.67,13.6,2.86-15.86a7.2,7.2,0,0,0,4.34-2.6,6,6,0,0,0,3-1.26,5.81,5.81,0,0,0,2.68-1.07,6.29,6.29,0,0,0,4.41-2,6.86,6.86,0,0,0,1.62-3,6.68,6.68,0,0,0,1.8-3.23,17,17,0,0,0,.37-2.12c.59-4.62.34-18.29,0-32.38,0-1.41-.06-2.48-.07-3.08,0-1.7,0-3.29,0-5.12,0-2.37,0-5.06-.05-8.94-.06-3.54-.81-16.28-1.33-24.94l12.35,3.32,2,.54,1-.42h1.5l1.72-1.57,8.3-7.59a20.73,20.73,0,0,0,6-2.6c2-1.32,8.71-5.89,13-9.5,6.13-5.16,6.95-14,7-15.69.08-1.4.1-3.46.12-5.86,0-1.79,0-3.83.09-5.71s.12-4.66-2-6.84a6.55,6.55,0,0,0-4.55-2c-2-1-4.64-1.47-7.81-2a63.82,63.82,0,0,1-6.79-1.48c-6.21-1.88-23.47-3.8-34.18-4.19-3.88-.14-9.15-.5-15.26-.91-10.58-.71-23.75-1.59-35.83-1.75-18-.25-23-.81-27.21-1.45l-1.11-.17Z"/><path class="cls-1" d="M513.21,206.72l-.28,9.5s42.79-18,42.79-26.26c-1,.55,0-3,0-2,1.87-2.51,8.5-18.83,8.5-18.83,1.34-2.11,2.91-4.6,4.58-7.11,7.35-3.4,15.22-9,23.21-9l8.81-3.67c-.41,10.14-6.08,28.55-6.7,21.38,0-.46-4,5.48-4.4,10.47-.32,4.64,38.32-17.91,47.75-26.85,8.54-8.65,9.28-16,5.69-25.61a3,3,0,0,0,.71-.42,17.29,17.29,0,0,1,3.45-1.87c1.49-.75,3-1.47,4.56-2.24,0,.15.06.46.14,1.1a4,4,0,0,0,.58-1.06c.16-1.24.88-1.39,1.37-1.23,1.18.41,1.77.17,2.5-1.44.39.89.81.74,1.08-.24.37-1.33.79-1.7,1.66-1,.23.18,1-.28,1.21-.72a14,14,0,0,0,.75-2.65l-2.53.34a7.34,7.34,0,0,1,3.38-4.19c.48-.26,1-.5,1.44-.81a5.94,5.94,0,0,0,2.61-4.9c.27-4,.39-8-.94-11.29a34.32,34.32,0,0,0-3.24-5.46c-2.16-3.48-5.33-5-8-7.54a60.67,60.67,0,0,0-5.07-3.95,2.53,2.53,0,0,0-.92-.5c-.86-.19-1.76-.26-1.29-1.69a53.94,53.94,0,0,0-3.09,5c-1,1.74-2.46,3.23-2.76,5.32l-.59-1.8a52.94,52.94,0,0,1-12.54,13.31q-1.47-2.76-3-5.73a40.24,40.24,0,0,0-1.68-5,24.9,24.9,0,0,0-2.34-4.57c-.55-1.62-1.13-3.17-1.77-4.69-.53-1.2-1.11-2.36-1.72-3.5s-1.28-2.24-2-3.32c-5.78-8.39-11.94-24.89-21.22-25.32l-2.1-.11-2.26.22c-1.87,2-12.41,6.35-13.64,8.58l-35.76,81.38a7,7,0,0,0-2.4,1,11,11,0,0,0,.78,2.68m41.24-16.85c-1.78-4.26,0-13.38,1.21-18.31.2-.85.42-1.7.66-2.56.69-2.44,1.58-5,2.44-7.52C586.8,97.13,600.55,122.85,579.79,123.59Z"/><path class="cls-1" d="M591.83,46.56l2.1-.2S588.72,46.36,591.83,46.56Z"/><path class="cls-1" d="M251.63,264c-.64,0-1.33,0-2-.08-1-.08-2.68-.27-4.58-.5l-.64.24a5.81,5.81,0,0,1-2,.27c-3,0-11.73-1-36.65-7.85-27.42-7.52-49.18-19-58.47-23.94-1.91-1-3.42-1.81-4.12-2.11a15.14,15.14,0,0,1-7-5.59c-.39-.51-.76-1-1.19-1.5a45.48,45.48,0,0,0-3.41-3.42,14.52,14.52,0,0,1-1.31-1.3c-1.34-1.65-1-2.49,2.66-12.73,1-2.68,2-5.45,2.41-6.9.81-2.67,5-6.63,23.65-18.79a4.08,4.08,0,0,1-3.16-2.19,3.75,3.75,0,0,1,.67-3.9l.16-.23s0,.07-.05.1a2.31,2.31,0,0,0,.1,1.87,2,2,0,0,0,1.05,1l.2-3.41a7.64,7.64,0,0,1-1.22-1.68v0l-.15-.32L155.24,168l1.87-.55a4.14,4.14,0,0,1,.44-2.13c-1.2-.12-2.21-.3-2.22-.3a3.83,3.83,0,0,1-3-4,4.16,4.16,0,0,1,.12-.72,3.41,3.41,0,0,1-1.07-2,3.54,3.54,0,0,1,0-.92c-.6-.15-1.26-.27-1.65-.35l-1.1-.22a3.78,3.78,0,0,1-2.46-1.82,4.36,4.36,0,0,1-.32-3.32,44.28,44.28,0,0,1-3.16-8.7,83.78,83.78,0,0,1-3.22-21.65c-.16-16.91,26.1-20.43,40.21-22.32,1.66-.23,3.13-.42,4.35-.62,8.38-1.32,13.57-1.77,27.79-1.77,4.56,0,10.12,0,18.62.15,4.74,0,14.72,2,21.25,3.74a10,10,0,0,1,6.33,5.5c2.82,5.61,2.26,13.71,1.16,16.48a53.7,53.7,0,0,0-.32,7.33c-.1,10.11-.35,16.39-4.1,18.12-2.1,1-5.16,3.38-7.86,5.51-1.33,1-2.59,2-3.72,2.85a23.23,23.23,0,0,1-4.83,2.53,10.18,10.18,0,0,0-3.28,1.8,21.49,21.49,0,0,0,2.16,2.46c2.26,2.36,5.35,5.58,3.61,9.15-.8,1.64-3.12,6.15-5.57,10.93s-5,9.79-5.6,11a7.37,7.37,0,0,1-3.3,3c10,2.07,29,5.65,32.42,6l.53.06c5.31.55,6.27,1.77,9.87,9.11a9.53,9.53,0,0,1-.28,9.69,11.8,11.8,0,0,1-2.57,2.88c2.9,1.16,4.56,4.11,4.53,8.19,0,2.09-1.1,9.32-4.09,11.53a9.36,9.36,0,0,1-.34,2.42,7.55,7.55,0,0,0-.24,1.21c.32,2-.63,3.62-2.82,4.85a6,6,0,0,1-1.82,1.61,3.53,3.53,0,0,1,0,.38,3.07,3.07,0,0,1-1.44,2.07,3.59,3.59,0,0,1-1.82,1.25,3.31,3.31,0,0,1,.21,2.72C257.71,263.07,255.55,264,251.63,264Z"/><path class="cls-2" d="M211.78,99.53c4.92,0,10.94.06,18.58.15,4.13,0,13.51,1.75,20.51,3.63s6.74,14.82,5.48,18,.63,22.2-2.88,23.82-8.62,6.17-12.08,8.66-7.78,2.72-9.34,5.86,7.68,7.86,6.06,11.19-10.06,19.55-11.19,22-11.44,4.71-7,6,34.16,6.89,38.48,7.36,4.43.15,8,7.5-5.1,11.28-7.16,11.28h0c-2.05,0-1.82,1.36,5,2.5s2.1,14.6.61,14.83-1.49.25-3,.49.12,1.3,1.39,1.42-.34,2.92-.06,4.52-2.3,2-2.27,2.48-1,1-2,1.63a1.42,1.42,0,0,1-.82.32l-.35,0a1.36,1.36,0,0,0-.69.22c-.9.51,2.16,1.23,1.29,1.28-.67,0-.38,1-1.27,1a3.31,3.31,0,0,1-1.11-.27,3.81,3.81,0,0,0-1.32-.35c-.76,0-.67.69-1.3,1.23-.88.76,1,2.54,2,3.4.89.74-.61,1.47-3.73,1.47-.55,0-1.15,0-1.79-.07-3.53-.27-15.47-2-16.58-2-.25,0,.05.08,1.1.29,5.75,1.12,9,1.6,9,1.6a3.31,3.31,0,0,1-1,.08c-2.44,0-10.59-.82-35.86-7.75-33.08-9.07-57.75-24-62.18-25.9s-5-3.88-7.11-6.31-4.19-4.09-4.64-4.63,4.39-12.85,5.61-16.89,25.58-19,26.9-20.08-.82-2-4.39-2.37-1.81-1.13-1.34-2.27-1.33-1.26-1.45-1.26H158a1.5,1.5,0,0,0,1.22-.47c.34-.54,2.41-.65,2.41-.65l-1.14-1a4.48,4.48,0,0,1-1.19-1.49l2-.58s-1.43-.07-1.26-1.11-.23-1.38.47-1.85.69-4-.38-4h-.08a4.74,4.74,0,0,1-.8.06,22.83,22.83,0,0,1-3.4-.35c-.61-.12-.9-1.27-.15-1.3s3.32-.73,2.57-.73h-.36c-.84,0-.36-.42-1.3-.83a6.73,6.73,0,0,1-1.93-1c-1.1-.74.44-.61.13-2.13s-4-1.93-5.56-2.29.24-2.91-.33-2.93-6.37-13.58-6.52-29.67,31.14-18.22,42-19.94c8.11-1.29,13-1.74,27.32-1.74m0-6c-14.42,0-19.7.45-28.26,1.81-1.17.18-2.61.38-4.28.6-6.64.89-16.66,2.24-25.05,5.29-14.78,5.38-17.82,13.86-17.76,20a86.68,86.68,0,0,0,3.33,22.44,66.81,66.81,0,0,0,2.4,7.06c.16.39.33.81.53,1.25a7,7,0,0,0,.82,4.37,6.8,6.8,0,0,0,4.4,3.26l.74.15a6.57,6.57,0,0,0,.63,1.32,6.93,6.93,0,0,0,2,4.87l-.09,0,2.67,6.23v0a6.49,6.49,0,0,0-.75,6.58,6.39,6.39,0,0,0,.5.9c-16.63,11-20.1,14.59-21.12,18-.42,1.38-1.4,4.11-2.36,6.75-.84,2.33-1.71,4.75-2.35,6.65-1.07,3.19-2.07,6.21.18,9a16,16,0,0,0,1.6,1.61,43.6,43.6,0,0,1,3.19,3.2c.36.42.7.86,1.05,1.33a18.21,18.21,0,0,0,8.17,6.53c.59.26,2.13,1.07,3.91,2,9.38,5,31.35,16.58,59.09,24.18,19,5.21,31.93,8,37.44,8a8.72,8.72,0,0,0,3-.44c1.63.19,3,.35,4,.42.77.06,1.53.09,2.25.09,5.21,0,8.44-1.65,9.61-4.9a6.38,6.38,0,0,0,.36-1.7l5.57-2.1-3.62-.53a6.23,6.23,0,0,0,.65-1.32,8.73,8.73,0,0,0,1.18-1.12,7.4,7.4,0,0,0,3.8-7.08l.13-.56a16.42,16.42,0,0,0,.34-1.68,14.12,14.12,0,0,0,2.68-4.88,25.66,25.66,0,0,0,1.5-8.07c0-4-1.2-6.78-3-8.66.21-.27.4-.56.58-.84a12.59,12.59,0,0,0,.42-12.59c-1.91-3.91-3.07-6.2-4.83-7.89-2.45-2.38-5.09-2.65-7.42-2.89l-.52-.06c-2.72-.29-16.5-2.85-26.68-4.87.62-1.3,3.21-6.34,5.5-10.79,2.47-4.8,4.8-9.33,5.61-11,2.5-5.14-1.28-9.52-3.72-12.08a25.6,25.6,0,0,0,5.12-2.73c1.18-.85,2.46-1.86,3.82-2.93,2.44-1.93,5.48-4.33,7.26-5.15,5.66-2.61,5.74-10.64,5.84-20.81,0-2.34.05-5.5.22-6.55,1.39-3.91,1.69-12.52-1.38-18.64a12.88,12.88,0,0,0-8.23-7c-6.85-1.84-17-3.78-22-3.84-8.52-.1-14.1-.15-18.65-.15Z"/><path class="cls-1" d="M157.11,180.41a5.23,5.23,0,0,1-2.37-1.14l-.68-.56-.27-.84a5.73,5.73,0,0,1,1.08-5.34l.08-.11,2-3.29,2.69,2.76,1.31,1.31-.29.91.16.23-.46,6.59Z"/><path class="cls-2" d="M157.5,174v0a1.37,1.37,0,0,0,.22,1.19l-.15,2.23a2.27,2.27,0,0,1-.94-.5,2.92,2.92,0,0,1,.66-2.65l.2-.29m-1.2-9.63-3.86,6.4a8.62,8.62,0,0,0-1.5,8l.54,1.67,1.35,1.11a8.21,8.21,0,0,0,3.81,1.8l6.47,1,.45-6.54.16-2.22.11-1.58.58-1.74-2.73-2.61-5.38-5.33Z"/><path class="cls-1" d="M345.64,147.45l.07.06Z"/><path class="cls-1" d="M345.38,147.23l.22.18Z"/><path class="cls-1" d="M345.1,147l.28.23Z"/><path class="cls-1" d="M345.6,147.41l0,0Z"/><path class="cls-1" d="M344.42,146.45l.07.06Z"/><path class="cls-1" d="M344.49,146.51l.52.42Z"/><path class="cls-1" d="M345,146.93l.09.07Z"/><path class="cls-1" d="M345.91,147.66l.1.08Z"/><path class="cls-1" d="M346,147.74Z"/><path class="cls-1" d="M345.71,147.51l.14.11Z"/><path class="cls-1" d="M325.63,153c-3.38-4.82-7.21-9.19-6.65-10.1-1.57-1.71-2.92-3.27-4.05-4.64,0,0,.07-.1.08-.15,1.47-4.9,6.72-12.41,11.34-17.25,3.44,5.72,9.9,16.72,5.31,8.09-5.59-10.52,2.28,3.48,3.42,5.18.89,1.32,1.77,2.61,2.61,3.83C335.67,141.8,338.16,141.38,325.63,153Z"/><path class="cls-1" d="M345.85,147.62l.06,0Z"/><path class="cls-1" d="M349.76,133.63l.07-.11S349.92,133.15,349.76,133.63Z"/></g></g></svg>