<svg xmlns="http://www.w3.org/2000/svg" viewBox="0 0 666.24 246.22"><defs><style>.cls-1{fill:#231f20;}.cls-2{fill:#fff;}</style></defs><title>diamond1_1</title><g id="Layer_2" data-name="Layer 2"><g id="Layer_2-2" data-name="Layer 2"><path class="cls-1" d="M261.4,146.74l-.21.17Z"/><path class="cls-1" d="M262.19,146.1l-.65.53Z"/><path class="cls-1" d="M263,145.43l-.82.67Z"/><path class="cls-1" d="M261.54,146.63l-.14.11Z"/><path class="cls-1" d="M265,143.8l-.21.17Z"/><path class="cls-1" d="M264.81,144l-1.54,1.25Z"/><path class="cls-1" d="M263.27,145.22l-.26.21Z"/><path class="cls-1" d="M260.63,147.37l-.3.24Z"/><path class="cls-1" d="M260.33,147.61Z"/><path class="cls-1" d="M261.19,146.91l-.41.34Z"/><path class="cls-1" d="M263.5,140.55l-2.31,1.8-3.08-2.53,1.54-5s-4.23,1.44-5.38,3.25-4.24-4.33-4.24-4.33l-2.53-3.25a3.3,3.3,0,0,0,0-2.89c-.77-1.44,2.53-9.75,2.53-9.75s-6.18,6.14-7.72,7.22c-.37.26,2.87-5.85,8.17-15.29-.62-2-1-3.13-1.22-3.76l1.79,2.73c.27-.46.53-.93.8-1.41a2.1,2.1,0,0,1-.29-1c.18-.37,1.21-3.5,2.57-3C260.2,82.64,278,53.55,296,35.17c-2.86-4.26-4.71-7-5-7.61-1.93-3.25,9.23,0,7-4-1.41-2.48,2.09-.58,6.14.74.8-1,1.58-1.91,2.31-2.74a17.18,17.18,0,0,1-2.35-1.25c-5-3.24.77-5.77,0-11.55-.7-5.25,7.56,5.31,9.07,7.27h.05L306.77,4.46S310.84,7.7,320,17.09a7.71,7.71,0,0,1,4.3,4.91c26.68,22.42,43.82,51.91,57.94,83.66,2.18-.16,5.1.9,8.52-.55,4.13-1.74-.4,4.67-3.16,8.27l.26.38,8.11-7.5s-1.46,3.2-5.93,10.65l3.62,5.23-11.54,20.93-4.1-9.75c-15.63,28.28-33.14,56.61-40.43,63.9-6.9,6.9,7.29,21.9,7.29,21.9s-14.59,7.29-29.19-7.3c-9.18-9.18-50.57-64.84-53.51-69.66m57.29,7.24c5.3-7.56,11.32-20.21,10.44-21.64,2.46-2.69,4.57-5.13,6.35-7.29a1.34,1.34,0,0,1-.13-.23c-2.31-7.68-10.53-19.46-17.79-27-5.39,9-15.53,26.23-8.33,12.68,8.77-16.51-3.58,5.46-5.37,8.13-1.39,2.07-2.76,4.09-4.09,6C303.74,126,301.84,122.83,319.5,149.4Z"/><path class="cls-1" d="M260.78,147.25l-.15.12Z"/><path class="cls-1" d="M249.26,106l-.2-.32S248.78,104.57,249.26,106Z"/><path class="cls-1" d="M5.4,19.1c6.45,14.71,17,34.66,4.2,83.3S-.13,142,1.7,144.11s6,9,10.1,11.5,23.92,15.94,27.16,15A5.91,5.91,0,0,0,43,167.23s0,4.12.39,3.88,3.32-3,3.67-4.79,2.22-.83,1.1,1.8-2.42,4.7-.36,2.19,4.22-6,4.17-5.19a13.13,13.13,0,0,1-2.2,4.43c-.85,1,.43,1.26,1.4-.16s1.85-4.93,9.47-13.47,9.51-13.84,10.38-14.12,19.64,29.73,36.11,34.82,25-8.54,26.94-10.5,8.68-4.85,9.14-7a2.32,2.32,0,0,0-1.08-2.83L140.88,155l1.6-1.29-1.22-.05a13.52,13.52,0,0,1,3.4-1.73,9,9,0,0,0,3-1.74,20.33,20.33,0,0,1-3.89-.11c-1.73-.27,3.51-.84,4.74-1.45s3.19-2.35,2-2.71-3.87-2.51-3-2,5-.19,4.54-.41c-9.49-4.88-34-16-55-43.95,1.36-3,16.08-11.63,27.29-16.32s8.42-23.18,6.48-35.1-3.5-15.61-5.41-16.78-5.24-3.19-7-4.42-8.09.41-14.67,2.35-18.63,7.33-24,11.21-3-.06-3.94-2.77S72,20,68.42,14.73,64,5.13,44.6,2.84,21-.4,14.79.15,1.49,6,2.52,11.11A26,26,0,0,0,5.4,19.1Z"/><path class="cls-1" d="M474.92,222.31c-2.95,0-3-2.78-3.05-4.62l5.93-.68a7.12,7.12,0,0,1,.14,1.47c0,.71,0,1,0,1l-.17,2.81Z"/><path class="cls-2" d="M474.87,217.63a4.38,4.38,0,0,1,.07.84c0,.6,0,.83,0,.83s0-.9-.05-1.67m5.87-1.24-11.87,1.37c0,.41,0,.84,0,1.18.15,5,4,6.36,6,6.36h5.63l.36-5.68s0-.32,0-1.14a10.3,10.3,0,0,0-.2-2.09Z"/><path class="cls-1" d="M477.9,219.52a3.15,3.15,0,0,1-2.25-1,3.27,3.27,0,0,1-1-2.35,3.46,3.46,0,0,1,1.2-2.51l4.89-4.72.21,6.77a3.64,3.64,0,0,1-.9,2.85l-.88.91Z"/><path class="cls-2" d="M478,215.83c0,.47,0,.69-.08.69s-.07,0-.12-.08c-.22-.22,0-.39.2-.61"/><path class="cls-1" d="M475,215.29l-.05-1.29.91-.92a4.1,4.1,0,0,1,1.38-.93l3.43-1.32.61,3.63,0,.17.25,1-.45,1a4.71,4.71,0,0,1-1,1.37l-4.91,4.76Z"/><path class="cls-2" d="M478.29,215a3,3,0,0,0,.08.39,1.76,1.76,0,0,1-.39.49c0-.18,0-.39,0-.63a1.18,1.18,0,0,1,.33-.25M483,206.7l-6.89,2.66A7,7,0,0,0,473.7,211l-1.82,1.83.09,2.58V216l.38,13.63,9.79-9.49a7.64,7.64,0,0,0,1.65-2.26l.89-1.92-.49-2L483,206.7Z"/><path class="cls-1" d="M458.77,228.7c-9.1,2.19-21.09,5.1-22.09,5.4a5.84,5.84,0,0,1-1.9.33c-2.18,0-4.75-1.46-4.82-5.6a27.68,27.68,0,0,0-.37-3.22c-.08-.5-.16-1-.22-1.44a3.88,3.88,0,0,1-1.32-1,4.53,4.53,0,0,1-.58-4.82c-2.66-1-3.26-3-3.44-6.29-.12-2.23,0-5.57.15-10.2.13-3.91.29-8.66.36-14.18h-.46l-.92-.91c-1.18-1.18-1.31-1.77-1.23-15.42,0-3.34,0-7.48-.06-8.51a6.68,6.68,0,0,0-.74-.89c-2.63-2.87-1.89-4.88-.76-6.09a5.72,5.72,0,0,0,.29-1.73v-1l.63-.82a3.87,3.87,0,0,0,.63-1.61h-.46l-.22,0c-.93-.12-2.19-.62-7.7-3.43l-.84-.43a3.13,3.13,0,0,1-1.7-3.52,4,4,0,0,1,2.51-2.52c-.52-.55-1-1.19-1.56-1.85-1.74-2.17-3.7-4.63-7.32-5.71-2.55-.77-5.31-1.7-8-2.6a105.42,105.42,0,0,0-10.41-3.17l-.21.8h-2.32c-1.3,0-8.85-3.08-10.39-5.15-2.42-3.25.21-8,1.46-9.93a14.28,14.28,0,0,1,2.53-2.89,8,8,0,0,0,1.46-1.63,1.26,1.26,0,0,0,.31-1,9.42,9.42,0,0,1,.32-2.59l.13-.5c1.39-5.35,3.71-12.93,7.72-17A23.71,23.71,0,0,0,390,84.42,11.62,11.62,0,0,1,395,80.24a31.61,31.61,0,0,1,6.37-2.78l.55-.12.55.09c4.49.68,9.38,1.23,27.63,1.48,12,.17,25.12,1,35.67,1.75,6.12.41,11.42.77,15.35.91,10.53.39,27.42,2.25,33.43,4.07a64.58,64.58,0,0,0,7.12,1.56c3.32.6,6,1.08,7.61,2.12h0l.48,0a3.53,3.53,0,0,1,2.6,1.06c1.15,1.18,1.2,2.81,1.15,4.67s-.07,3.93-.09,5.78c0,2.34,0,4.37-.12,5.69,0,.92-.68,9.11-6,13.57-3.87,3.25-10.24,7.66-12.71,9.29a18.68,18.68,0,0,1-5.86,2.37l-9.73,8.9h-.95l-.6.25-17.38-4.67c.49,8,1.51,24.85,1.58,29,.06,3.86.06,6.54.05,8.9,0,1.83,0,3.43,0,5.17,0,.6,0,1.68.07,3.09.34,13.31.61,27.5,0,31.93-.15,1.14-.42,3.27-1.95,4.1a4.18,4.18,0,0,1-1.06,2.58,3.26,3.26,0,0,1-2.41,1.06,3.07,3.07,0,0,0-3.36,1.12h-.05a2.56,2.56,0,0,1-.64.32,3.06,3.06,0,0,1-2.21.93,3.18,3.18,0,0,1-.87-.14,4.2,4.2,0,0,1-3.85,2.82,3.48,3.48,0,0,1-.83-.1,2.69,2.69,0,0,1-.64.38l-1.62,8.91Z"/><path class="cls-2" d="M402.06,80.39c4.37.67,9.29,1.26,28,1.52s40,2.26,50.95,2.66,27.32,2.32,32.67,3.94,12,2,14,3.37a2.52,2.52,0,0,0,1.44.44c.26,0,.47,0,.66,0,.57,0,.81.29.75,2.65-.11,4.3-.07,9.1-.2,11.38s-1.16,8.28-4.92,11.44-10,7.48-12.43,9.08a16.23,16.23,0,0,1-5.61,2.1L498,137.62a1.66,1.66,0,0,0-.61.08l-20.41-5.48s1.74,27.68,1.83,33c.11,6.89,0,10.1.08,14.08s.86,28.93.14,34.58c-.17,1.34-.31,1.82-.44,1.82s-.12-.13-.17-.35a1.25,1.25,0,0,0,.07-.23c0-.12,0-.17-.08-.17h-.07c-.17-1-.27-2.65-.32-2.65a3.83,3.83,0,0,0,0,.58c0,1,0,1.75,0,2.32a3.34,3.34,0,0,0-.94,2.4c.06.87-.2,1.39-.48,1.39s-.54-.42-.62-1.4c-.09-1.15.11-1.5,0-1.5s-.35.21-1.07.44c0,0,0,.51,0,1.1-.07-.33-.19-.46-.33-.46-.4,0-1,1.17-1,2.12,0,.57-.17.82-.33.82s-.58-.61-.76-1.47c0-.23-.09-.32-.14-.32-.23,0-.51,2.29-.88,2.29a.14.14,0,0,1-.1-.06.22.22,0,0,0-.17-.08c-.32,0-.63.89-.85.89s-.15-.13-.2-.49c-.19-1.47-1.69-1.93-.44-4.68.56-1.22,1-1.42,1.13-1.44h0s0,0,0,0h0a2.85,2.85,0,0,1-1.13-.9,1.52,1.52,0,0,0-1-.61c-1.06,0-1.36,2.84-1.43,6.52-.05,3-.89,4.28-1.66,4.28-.44,0-.85-.42-1.1-1.17A64.82,64.82,0,0,1,463,212.79c0-.62,0-1,0-1a.31.31,0,0,0,0,.09,8.06,8.06,0,0,0,0,.9c0,2.55,0,9.25-.07,11,0,.57,0,.78-.08.78s-.32-1.18-.61-1.18c-.07,0-.15.08-.23.25a16.65,16.65,0,0,0-.88,3.1l-.75-1.52s-23.76,5.72-24.64,6a3.17,3.17,0,0,1-1,.18c-.86,0-1.78-.5-1.82-2.65,0-3.06-1.39-7.07-.24-7.07h0c.48,0,1.34.16,2,.16.95,0,1.59-.29.52-1.63-1.55-2-2.25-5.94-2-5.94,0,0,.12.13.23.42s.26.47.41.47c.72,0,1.56-3.29.31-3.63s-2.34-1.72-2.72-1.72c-.13,0-.16.17-.05.62.44,1.74-.29,3.62-.06,5.3.21,1.47.22,5.71-.65,5.71a.6.6,0,0,1-.42-.27c-1.3-1.51,2.27-4-.05-5.06s-3,0-3.25-4.25.45-13.45.53-26.68-.3-28.64-.14-30c.14-1.16-.83-4.87-1.12-4.87-.05,0-.08.1-.09.31,0,1.55.22,32-.77,33.88,0,.08-.08.12-.11.12-.82,0-.12-20.6-.52-22.48s-3.28-3.25-2.22-4.32,1.07-3.74,1.07-3.74a6.37,6.37,0,0,0,1.23-4.32c-.32-2.34,0-5.13-1.5-5.16h0c-1.45,0-.89,3-1.72,3h0c-.91-.11-6.61-3.1-7.56-3.57s4.33-1.79,7.41-1.79h.35c2.74,0-2.36-1.94-4.73-2.67s-4.44-7.19-11.57-9.34-16.17-5.66-19.89-6c-.82-.07-1.42-.11-1.86-.11-1.56,0-1,.45-.12,1q.17.09.09.09c-.4,0-7-2.68-8-3.94s.18-4.39,1.56-6.5,2.74-2.56,4-4.54.46-2.37,1-4.41,2.89-11.91,7.08-16.12,2.72-4.6,7-6.81a30.69,30.69,0,0,1,5.64-2.52m-.2-6.1-1.09.24a36.79,36.79,0,0,0-7.1,3,14.44,14.44,0,0,0-6.12,5.09,21.3,21.3,0,0,1-2.42,2.83c-4.52,4.55-7,12.64-8.49,18.33l-.12.47a12,12,0,0,0-.43,2.95,7.35,7.35,0,0,1-.81.82,18,18,0,0,0-3,3.44c-3.37,5.15-3.86,10-1.35,13.38.92,1.24,2.39,2.44,6.53,4.32,4.49,2,5.43,2,6.26,2h4.59l.05-.18c2.19.65,4.94,1.58,7.34,2.39,2.7.9,5.48,1.84,8.07,2.62s4,2.44,5.41,4.18a6,6,0,0,0-1.09,2.35,6.11,6.11,0,0,0,3.29,6.89l.83.42c2.34,1.2,4,2,5.15,2.55l.3,1.68c0,.11,0,.25,0,.37-1.15,1.64-2.65,5.15,1.3,9.46h0c0,1.65,0,4.87,0,7.36-.08,13.6-.09,15.35,2.1,17.55l.48.48c-.07,4.77-.21,8.91-.33,12.4-.16,4.7-.27,8.09-.15,10.45a11.9,11.9,0,0,0,1.41,5.77,7.11,7.11,0,0,0,1.63,1.88,6.9,6.9,0,0,0,1.7,5.25,8,8,0,0,0,.83.82l0,.15a21.61,21.61,0,0,1,.34,2.8c.1,5.88,4.12,8.55,7.82,8.55a8.57,8.57,0,0,0,2.8-.47c1.39-.38,11.32-2.79,19.56-4.78l6.67,13.59,2.86-15.85a7.26,7.26,0,0,0,4.34-2.6,5.94,5.94,0,0,0,3-1.27,5.8,5.8,0,0,0,2.68-1.06,6.33,6.33,0,0,0,4.41-2,7,7,0,0,0,1.62-3,6.73,6.73,0,0,0,1.8-3.23,17.19,17.19,0,0,0,.37-2.13c.59-4.61.34-18.29,0-32.38,0-1.41-.06-2.48-.07-3.07,0-1.71,0-3.29,0-5.12,0-2.38,0-5.07-.05-8.95-.06-3.54-.81-16.27-1.33-24.93l12.35,3.32,2,.54,1-.42h1.5L502,142l8.3-7.59a20.67,20.67,0,0,0,6-2.59c2-1.32,8.71-5.9,13-9.51,6.13-5.15,6.95-14,7-15.68.08-1.4.1-3.47.12-5.86,0-1.8,0-3.83.09-5.71s.12-4.66-2-6.84a6.55,6.55,0,0,0-4.55-2c-2-1-4.64-1.48-7.81-2a63.82,63.82,0,0,1-6.79-1.48c-6.21-1.88-23.47-3.8-34.18-4.19-3.88-.15-9.15-.5-15.26-.91-10.58-.71-23.75-1.59-35.83-1.76-18-.25-23-.8-27.21-1.45l-1.11-.17Z"/><path class="cls-1" d="M513.21,185.94l-.28,9.49s42.79-18,42.79-26.25c-1,.55,0-3,0-2,1.87-2.5,8.5-18.82,8.5-18.82,1.34-2.12,2.91-4.6,4.58-7.12,7.35-3.4,15.22-9,23.21-8.95l8.81-3.68c-.41,10.15-6.08,28.55-6.7,21.38,0-.45-4,5.48-4.4,10.48-.32,4.63,38.32-17.91,47.75-26.86,8.54-8.64,9.28-16,5.69-25.6a3,3,0,0,0,.71-.42,17.86,17.86,0,0,1,3.45-1.88c1.49-.75,3-1.46,4.56-2.24l.14,1.11a3.85,3.85,0,0,0,.58-1.07c.16-1.23.88-1.39,1.37-1.22,1.18.4,1.77.17,2.5-1.45.39.9.81.75,1.08-.24.37-1.32.79-1.69,1.66-1,.23.18,1-.28,1.21-.72a14.17,14.17,0,0,0,.75-2.66l-2.53.35a7.4,7.4,0,0,1,3.38-4.2,15.92,15.92,0,0,0,1.44-.81,5.92,5.92,0,0,0,2.61-4.89c.27-4,.39-8-.94-11.29a34.87,34.87,0,0,0-3.24-5.47c-2.16-3.47-5.33-5-8-7.53a60.67,60.67,0,0,0-5.07-4,2.56,2.56,0,0,0-.92-.51c-.86-.18-1.76-.26-1.29-1.69a55.46,55.46,0,0,0-3.09,5c-1,1.74-2.46,3.22-2.76,5.31l-.59-1.79a52.73,52.73,0,0,1-12.54,13.3q-1.47-2.74-3-5.73a40.79,40.79,0,0,0-1.68-5,25.22,25.22,0,0,0-2.34-4.57c-.55-1.61-1.13-3.17-1.77-4.68-.53-1.2-1.11-2.37-1.72-3.5s-1.28-2.24-2-3.32c-5.78-8.39-11.94-24.9-21.22-25.32l-2.1-.11-2.26.22c-1.87,2-12.41,6.34-13.64,8.57L540.17,116a7,7,0,0,0-2.4,1,11.12,11.12,0,0,0,.78,2.68m41.24-16.85c-1.78-4.26,0-13.38,1.21-18.31.2-.85.42-1.7.66-2.56.69-2.44,1.58-5,2.44-7.53C586.8,76.35,600.55,102.07,579.79,102.81Z"/><path class="cls-1" d="M591.83,25.78l2.1-.21S588.72,25.57,591.83,25.78Z"/><path class="cls-1" d="M251.63,243.22c-.64,0-1.33,0-2-.08-1-.08-2.68-.27-4.58-.5l-.64.24a5.85,5.85,0,0,1-2,.26c-3,0-11.73-1-36.65-7.85-27.42-7.51-49.18-19-58.48-23.94-1.91-1-3.41-1.8-4.11-2.11a15.08,15.08,0,0,1-7-5.59c-.39-.51-.76-1-1.19-1.49a48,48,0,0,0-3.41-3.43,14.7,14.7,0,0,1-1.31-1.29c-1.34-1.66-1-2.49,2.66-12.74,1-2.68,2-5.44,2.41-6.9.81-2.66,5-6.63,23.65-18.78a4.11,4.11,0,0,1-3.16-2.19,3.75,3.75,0,0,1,.67-3.9l.16-.23-.05.09a2.31,2.31,0,0,0,.1,1.87,1.94,1.94,0,0,0,1.05,1l.2-3.41a7.4,7.4,0,0,1-1.22-1.67h0l-.15-.32-1.34-3.12,1.87-.54a4.13,4.13,0,0,1,.44-2.13c-1-.1-1.85-.24-2.22-.31a3.83,3.83,0,0,1-3-4,3.48,3.48,0,0,1,.13-.73,3.35,3.35,0,0,1-1.08-2,3.54,3.54,0,0,1,0-.92c-.6-.15-1.27-.28-1.65-.35l-1.1-.23a3.73,3.73,0,0,1-2.46-1.81,4.38,4.38,0,0,1-.32-3.33,43.85,43.85,0,0,1-3.16-8.69,83.85,83.85,0,0,1-3.22-21.65c-.16-16.91,26.1-20.44,40.21-22.33,1.66-.22,3.13-.42,4.35-.61,8.38-1.33,13.57-1.77,27.79-1.77,4.48,0,10.05,0,18.62.14,4.74.06,14.72,2,21.25,3.74a10.09,10.09,0,0,1,6.33,5.5c2.82,5.62,2.26,13.72,1.16,16.49a53.63,53.63,0,0,0-.32,7.32c-.1,10.11-.35,16.4-4.1,18.12-2.1,1-5.16,3.39-7.86,5.52-1.33,1-2.59,2-3.72,2.85a24.24,24.24,0,0,1-4.83,2.53,9.81,9.81,0,0,0-3.28,1.8,23.33,23.33,0,0,0,2.16,2.46c2.26,2.35,5.35,5.57,3.62,9.14-.8,1.65-3.12,6.15-5.57,10.92s-5,9.81-5.61,11a7.39,7.39,0,0,1-3.3,3c10,2.06,29,5.64,32.42,6l.53.06c5.31.55,6.28,1.77,9.87,9.11a9.51,9.51,0,0,1-.28,9.68,11.62,11.62,0,0,1-2.57,2.88c2.9,1.17,4.56,4.12,4.53,8.2,0,2.09-1.1,9.32-4.09,11.52a9.44,9.44,0,0,1-.34,2.43,6.41,6.41,0,0,0-.24,1.23c.34,1.94-.6,3.59-2.82,4.83a6.1,6.1,0,0,1-1.82,1.61c0,.14,0,.26,0,.38a3.05,3.05,0,0,1-1.44,2.06,3.59,3.59,0,0,1-1.82,1.25,3.34,3.34,0,0,1,.21,2.73C257.71,242.29,255.55,243.22,251.63,243.22Z"/><path class="cls-2" d="M211.78,78.75c4.92,0,10.94,0,18.58.14,4.13,0,13.51,1.76,20.51,3.64s6.74,14.81,5.48,18,.63,22.2-2.88,23.82-8.62,6.17-12.08,8.66-7.78,2.72-9.34,5.85,7.68,7.87,6.06,11.2S228.05,169.6,226.92,172s-11.44,4.72-7,6,34.16,6.89,38.48,7.35,4.43.16,8,7.51-5.1,11.27-7.16,11.27h0c-2.05,0-1.82,1.37,5,2.5s2.1,14.61.61,14.84-1.49.25-3,.49.12,1.3,1.39,1.41-.34,2.93-.06,4.53-2.3,1.95-2.27,2.47-1,1-2,1.63a1.45,1.45,0,0,1-.82.33l-.35,0a1.32,1.32,0,0,0-.69.21c-.9.51,2.16,1.24,1.29,1.28-.67,0-.38,1-1.27,1a3.15,3.15,0,0,1-1.11-.28,4,4,0,0,0-1.32-.34c-.76,0-.67.68-1.3,1.23-.88.76,1,2.54,2,3.4.89.73-.61,1.47-3.73,1.47-.55,0-1.15,0-1.79-.08-3.53-.26-15.47-2-16.58-2-.25,0,.05.08,1.1.29,5.75,1.12,9,1.6,9,1.6a3.76,3.76,0,0,1-1,.07c-2.44,0-10.59-.81-35.86-7.74-33.08-9.07-57.75-24-62.18-25.91s-5-3.88-7.11-6.31-4.19-4.08-4.64-4.63,4.39-12.84,5.61-16.88,25.58-19,26.9-20.08-.82-2.05-4.39-2.37-1.81-1.13-1.34-2.27-1.33-1.26-1.45-1.27H158a1.5,1.5,0,0,0,1.22-.47c.34-.54,2.41-.65,2.41-.65l-1.14-1a4.59,4.59,0,0,1-1.19-1.49l2-.58s-1.43-.08-1.26-1.11-.23-1.38.47-1.85.69-4-.38-4h-.08a4.82,4.82,0,0,1-.8.05,22.83,22.83,0,0,1-3.4-.35c-.61-.11-.9-1.26-.15-1.3s3.32-.72,2.57-.72h-.36c-.84,0-.36-.42-1.3-.83a6.68,6.68,0,0,1-1.93-.94c-1.1-.74.44-.61.13-2.14s-4-1.92-5.56-2.29.24-2.91-.33-2.93-6.37-13.57-6.52-29.66,31.14-18.22,42-20c8.11-1.28,13-1.73,27.32-1.73m0-6c-14.42,0-19.7.45-28.26,1.81-1.17.18-2.61.37-4.28.6-6.64.89-16.66,2.23-25.05,5.28-14.78,5.38-17.82,13.87-17.76,20a86.75,86.75,0,0,0,3.33,22.44,67.65,67.65,0,0,0,2.4,7.06c.16.39.33.81.53,1.24a7.06,7.06,0,0,0,.82,4.38,6.75,6.75,0,0,0,4.4,3.25l.74.16a6.84,6.84,0,0,0,.63,1.32,7,7,0,0,0,2,4.87l-.09,0,2.67,6.23v0a6.48,6.48,0,0,0-.75,6.57,7.14,7.14,0,0,0,.5.91c-16.63,11-20.1,14.59-21.12,18-.42,1.38-1.4,4.11-2.36,6.76-.84,2.33-1.71,4.74-2.35,6.65-1.07,3.19-2.07,6.2.18,9a16,16,0,0,0,1.6,1.61,41.69,41.69,0,0,1,3.19,3.2c.36.41.7.86,1.05,1.32a18.15,18.15,0,0,0,8.17,6.53c.59.26,2.13,1.08,3.91,2,9.38,5,31.35,16.57,59.09,24.18,19,5.2,31.93,7.95,37.44,7.95a8.49,8.49,0,0,0,3-.44c1.63.2,3,.35,4,.43q1.17.09,2.25.09c5.21,0,8.44-1.65,9.61-4.9a6.45,6.45,0,0,0,.36-1.71l5.57-2.09-3.62-.53a5.66,5.66,0,0,0,.65-1.33,7.63,7.63,0,0,0,1.18-1.12,7.38,7.38,0,0,0,3.8-7.07c0-.17.09-.4.13-.56a16.67,16.67,0,0,0,.34-1.69,14,14,0,0,0,2.68-4.87,25.72,25.72,0,0,0,1.5-8.07c0-4-1.2-6.78-3-8.66.21-.28.4-.56.58-.85a12.59,12.59,0,0,0,.42-12.59c-1.91-3.9-3.07-6.19-4.83-7.89-2.45-2.37-5.09-2.64-7.42-2.89l-.52-.05c-2.72-.3-16.5-2.85-26.68-4.87.62-1.3,3.21-6.34,5.5-10.8,2.47-4.8,4.8-9.33,5.61-11,2.51-5.14-1.28-9.53-3.72-12.09a25.35,25.35,0,0,0,5.12-2.73c1.18-.85,2.46-1.86,3.82-2.93,2.44-1.93,5.48-4.32,7.26-5.14,5.66-2.61,5.74-10.64,5.84-20.82,0-2.33.05-5.5.22-6.54,1.39-3.91,1.69-12.52-1.38-18.65a12.86,12.86,0,0,0-8.23-7c-6.85-1.85-17-3.79-22-3.85-8.52-.1-14.1-.14-18.65-.14Z"/><path class="cls-1" d="M157.11,159.63a5.23,5.23,0,0,1-2.37-1.15l-.68-.56-.27-.83a5.73,5.73,0,0,1,1.09-5.35l.07-.1,1.81-3,2.76,2.36,1.43,1.42-.31.91.16.21-.46,6.59Z"/><path class="cls-2" d="M157.5,153.22v0a1.4,1.4,0,0,0,.22,1.2l-.15,2.23a2.32,2.32,0,0,1-.94-.51,2.9,2.9,0,0,1,.66-2.64c.06-.1.15-.22.2-.3m-1.2-9.62L152.44,150a8.64,8.64,0,0,0-1.5,8l.54,1.66,1.35,1.11a8,8,0,0,0,3.81,1.8l6.47,1,.45-6.54.16-2.23.11-1.57.58-1.74-2.73-2.62-5.38-5.32Z"/></g></g></svg>