<svg xmlns="http://www.w3.org/2000/svg" viewBox="0 0 659.9 246.22"><defs><style>.cls-1{fill:#231f20;}.cls-2{fill:#fff;}</style></defs><title>diamond1</title><g id="Layer_2" data-name="Layer 2"><g id="Layer_2-2" data-name="Layer 2"><path class="cls-1" d="M262.66,147.81l-.21.16Z"/><path class="cls-1" d="M263.44,147.17l-.65.52Z"/><path class="cls-1" d="M264.25,146.51l-.81.66Z"/><path class="cls-1" d="M262.79,147.69l-.13.12Z"/><path class="cls-1" d="M266.24,144.89l-.21.17Z"/><path class="cls-1" d="M266,145.06l-1.52,1.24Z"/><path class="cls-1" d="M264.51,146.3l-.26.21Z"/><path class="cls-1" d="M261.89,148.43l-.3.24Z"/><path class="cls-1" d="M261.59,148.67Z"/><path class="cls-1" d="M262.45,148l-.41.34Z"/><path class="cls-1" d="M264.73,141.67l-2.29,1.79-3-2.51,1.52-5s-4.19,1.43-5.34,3.22-4.19-4.3-4.19-4.3l-2.5-3.21a3.27,3.27,0,0,0,0-2.86c-.77-1.43,2.5-9.66,2.5-9.66s-6.12,6.08-7.65,7.15c-.36.26,2.85-5.8,8.1-15.15-.62-2-1-3.1-1.21-3.72.33.5,1,1.56,1.77,2.7.26-.46.53-.92.79-1.4-.21-.49-.34-.85-.28-1,.17-.37,1.2-3.47,2.54-3,6-20.44,23.6-49.26,41.51-67.46-2.83-4.23-4.66-7-5-7.54-1.91-3.22,9.14,0,6.91-3.93-1.39-2.47,2.07-.59,6.08.73.8-1,1.57-1.89,2.3-2.72a16.27,16.27,0,0,1-2.33-1.23c-4.95-3.22.76-5.72,0-11.45-.69-5.2,7.49,5.26,9,7.21l.06,0L307.6,6.85s4,3.21,13.13,12.51A7.61,7.61,0,0,1,325,24.23c26.44,22.21,43.42,51.43,57.41,82.88,2.16-.16,5.05.89,8.44-.55,4.09-1.72-.4,4.63-3.14,8.2l.26.38,8-7.44s-1.45,3.17-5.87,10.56l3.58,5.17-11.43,20.74-4.06-9.66c-15.49,28-32.83,56.08-40.06,63.31-.31.31-3.15,3-3.15,3a8.76,8.76,0,0,0,1.7,4.69c1,1.45,1.25,3.49,2.18,5.16s-4.8-1.73-3.88-.46c2,2.73,10.38,9.31,10.38,9.31l-17.42-7,9.39,7-4.69-2.35.92,3.93a42.61,42.61,0,0,1-8.92-2.76,33.16,33.16,0,0,1-8.2-6.12c-9.09-9.09-50.1-64.24-53-69m56.76,7.17c5.25-7.48,11.22-20,10.34-21.44,2.45-2.66,4.53-5.08,6.3-7.22a.86.86,0,0,1-.13-.23c-2.29-7.6-10.44-19.27-17.62-26.8-5.35,8.89-15.39,26-8.26,12.56,8.69-16.35-3.54,5.41-5.32,8.06-1.37,2-2.74,4.06-4.06,6C304.6,127.3,302.72,124.12,320.21,150.44Z"/><path class="cls-1" d="M262,148.31l-.15.12Z"/><path class="cls-1" d="M250.63,107.42l-.21-.32S250.15,106,250.63,107.42Z"/><path class="cls-1" d="M5.4,19.1c6.45,14.71,17,34.66,4.2,83.3S-.13,142,1.7,144.11s6,9,10.1,11.5,23.92,15.94,27.16,15A5.91,5.91,0,0,0,43,167.23s0,4.12.39,3.88,3.32-3,3.67-4.79,2.22-.83,1.1,1.8-2.42,4.7-.36,2.19,4.22-6,4.17-5.19a13.13,13.13,0,0,1-2.2,4.43c-.85,1,.43,1.26,1.4-.16s1.85-4.93,9.47-13.47,9.51-13.84,10.38-14.12,19.64,29.73,36.11,34.82,25-8.54,26.94-10.5,8.68-4.85,9.14-7a2.32,2.32,0,0,0-1.08-2.83L140.88,155l1.6-1.29-1.22-.05a13.52,13.52,0,0,1,3.4-1.73,9,9,0,0,0,3-1.74,20.33,20.33,0,0,1-3.89-.11c-1.73-.27,3.51-.84,4.74-1.45s3.19-2.35,2-2.71-3.87-2.51-3-2,5-.19,4.54-.41c-9.49-4.88-34-16-55-43.95,1.36-3,16.08-11.63,27.29-16.32s8.42-23.18,6.48-35.1-3.5-15.61-5.41-16.78-5.24-3.19-7-4.42-8.09.41-14.67,2.35-18.63,7.33-24,11.21-3-.06-3.94-2.77S72,20,68.42,14.73,64,5.13,44.6,2.84,21-.4,14.79.15,1.49,6,2.52,11.11A26,26,0,0,0,5.4,19.1Z"/><path class="cls-1" d="M468.58,222.3c-3,0-3-2.77-3.06-4.61l5.94-.68a7.11,7.11,0,0,1,.13,1.47c0,.71,0,1,0,1l-.17,2.81Z"/><path class="cls-2" d="M468.52,217.63a4.38,4.38,0,0,1,.07.84c0,.6,0,.83,0,.83s0-.9-.06-1.67m5.87-1.24-11.87,1.37c0,.41,0,.84,0,1.18.15,5,4,6.36,6,6.36h5.63l.36-5.68s0-.32,0-1.14a9.63,9.63,0,0,0-.2-2.09Z"/><path class="cls-1" d="M471.55,219.52a3.13,3.13,0,0,1-2.24-1,3.28,3.28,0,0,1-1-2.35,3.5,3.5,0,0,1,1.2-2.51l4.9-4.72.21,6.77a3.67,3.67,0,0,1-.9,2.85l-.89.9Z"/><path class="cls-2" d="M471.64,215.83c0,.47,0,.69-.09.69s-.07,0-.12-.08c-.22-.22,0-.39.21-.61"/><path class="cls-1" d="M468.62,215.29l0-1.29.91-.92a4,4,0,0,1,1.37-.93l3.44-1.32.6,3.63,0,.17.26,1-.46,1a4.77,4.77,0,0,1-1,1.36l-4.9,4.76Z"/><path class="cls-2" d="M471.94,215c0,.15.05.28.08.39a1.73,1.73,0,0,1-.38.49c0-.18,0-.39,0-.63a1.17,1.17,0,0,1,.32-.25m4.71-8.26-6.9,2.68a6.91,6.91,0,0,0-2.4,1.61l-1.81,1.83.08,2.58V216l.38,13.64,9.79-9.5a7.6,7.6,0,0,0,1.65-2.26l.89-1.92-.49-2-1.21-7.29Z"/><path class="cls-1" d="M452.42,228.7c-9.1,2.19-21.09,5.1-22.09,5.4a5.79,5.79,0,0,1-1.9.33c-2.18,0-4.75-1.46-4.82-5.6a23.93,23.93,0,0,0-.37-3.22c-.08-.5-.16-1-.21-1.44a3.74,3.74,0,0,1-1.33-1,4.53,4.53,0,0,1-.58-4.81c-2.66-1-3.26-3-3.44-6.29-.12-2.23,0-5.57.15-10.2.13-3.91.29-8.66.36-14.18h-.46l-.92-.91c-1.18-1.18-1.31-1.77-1.23-15.42,0-3.34,0-7.48-.05-8.51a6.82,6.82,0,0,0-.75-.89c-2.62-2.87-1.89-4.88-.75-6.09a5.67,5.67,0,0,0,.28-1.72v-1l.64-.82a3.74,3.74,0,0,0,.63-1.61h-.46l-.22,0c-.92-.12-2.18-.62-7.68-3.42l-.86-.44a3.13,3.13,0,0,1-1.7-3.52,4,4,0,0,1,2.52-2.52c-.53-.55-1-1.19-1.57-1.85-1.73-2.17-3.7-4.63-7.32-5.71-2.55-.77-5.3-1.7-8-2.6-4-1.33-8.05-2.7-10.41-3.17l-.21.8h-2.32c-1.31,0-8.85-3.08-10.4-5.15-2.42-3.25.22-8,1.46-9.93a14.92,14.92,0,0,1,2.53-2.89,8,8,0,0,0,1.47-1.63,1.22,1.22,0,0,0,.3-1,9.53,9.53,0,0,1,.33-2.59l.13-.5c1.39-5.35,3.7-12.93,7.71-17a23,23,0,0,0,2.71-3.19,11.62,11.62,0,0,1,5.07-4.18c4.32-2.23,6-2.69,6.38-2.78l.54-.12.56.09c4.48.69,9.36,1.23,27.62,1.48,12,.17,25.13,1,35.68,1.75,6.13.41,11.41.77,15.34.91,10.53.39,27.42,2.25,33.43,4.07a64.58,64.58,0,0,0,7.12,1.56c3.32.6,6,1.08,7.61,2.12h0l.48,0a3.53,3.53,0,0,1,2.6,1.06c1.15,1.18,1.2,2.81,1.15,4.67s-.07,3.93-.09,5.78c0,2.34,0,4.37-.11,5.69-.06.92-.69,9.11-6,13.57-3.86,3.25-10.23,7.66-12.71,9.29a18.74,18.74,0,0,1-5.85,2.37l-9.73,8.9h-1l-.17.07-17.82.42c.49,6.26,1.52,19.89,1.59,24,.06,3.86.06,6.54,0,8.9,0,1.83,0,3.43,0,5.17,0,.6,0,1.68.07,3.09.34,13.3.62,27.5.05,31.93-.14,1.15-.42,3.27-1.94,4.1a4.17,4.17,0,0,1-1.07,2.58,3.24,3.24,0,0,1-2.41,1.06,3.12,3.12,0,0,1-.84-.13,3.25,3.25,0,0,1-2.51,1.25h-.06a2.56,2.56,0,0,1-.64.32,3,3,0,0,1-2.21.93,3.18,3.18,0,0,1-.87-.14,4.19,4.19,0,0,1-3.85,2.82,4,4,0,0,1-.82-.1,2.56,2.56,0,0,1-.65.38l-1.62,8.91Z"/><path class="cls-2" d="M395.71,80.39c4.38.67,9.29,1.26,28,1.52s40.05,2.26,50.95,2.66,27.32,2.32,32.67,3.94,12,2,14,3.37a2.53,2.53,0,0,0,1.45.44c.25,0,.47,0,.65,0,.57,0,.82.29.75,2.65-.11,4.3-.07,9.1-.2,11.38s-1.16,8.28-4.92,11.44-10,7.48-12.43,9.08a16.16,16.16,0,0,1-5.61,2.1l-9.49,8.68a1.66,1.66,0,0,0-.61.08l-20.41.49s1.74,21.71,1.83,27c.11,6.89,0,10.1.08,14.08s.87,28.93.15,34.58c-.17,1.34-.32,1.82-.44,1.82s-.13-.13-.18-.35a.78.78,0,0,0,.07-.23c0-.12,0-.17-.08-.17h-.07c-.16-1-.26-2.65-.31-2.65a2.14,2.14,0,0,0,0,.58c0,1,0,1.75,0,2.32a3.34,3.34,0,0,0-.94,2.4c.05.87-.21,1.39-.49,1.39s-.54-.42-.61-1.4c-.09-1.15.1-1.5,0-1.5h0c-.08,0-.35.21-1.07.44,0,0,0,.51,0,1.1-.07-.33-.18-.46-.32-.46-.41,0-1,1.17-1,2.12,0,.57-.16.82-.32.82s-.59-.61-.76-1.47c-.05-.23-.1-.32-.14-.32-.24,0-.52,2.29-.89,2.29,0,0-.06,0-.1-.06a.21.21,0,0,0-.16-.08c-.33,0-.64.89-.86.89s-.15-.13-.2-.49c-.19-1.47-1.69-1.93-.43-4.68.55-1.22,1-1.42,1.12-1.44h0s0,0,0,0h0a2.93,2.93,0,0,1-1.13-.9,1.5,1.5,0,0,0-1-.61c-1.06,0-1.36,2.84-1.42,6.52-.06,3-.89,4.28-1.67,4.28-.43,0-.85-.42-1.1-1.17a64.82,64.82,0,0,1-1.44-10.08c0-.62,0-1,0-1a.62.62,0,0,1,0,.09,8.06,8.06,0,0,0,0,.9c0,2.55,0,9.25-.07,11,0,.57,0,.78-.08.78s-.31-1.18-.6-1.18c-.08,0-.15.08-.23.26a16,16,0,0,0-.89,3.09l-.74-1.52s-23.77,5.72-24.65,6a3.11,3.11,0,0,1-1,.18c-.86,0-1.78-.5-1.82-2.65-.05-3.06-1.39-7.07-.24-7.07h0c.49,0,1.34.16,2,.16.95,0,1.59-.29.53-1.63-1.55-2-2.26-5.94-2-5.94.05,0,.12.13.23.42s.26.47.41.47c.73,0,1.56-3.29.31-3.63s-2.34-1.72-2.72-1.72c-.13,0-.16.17,0,.62.43,1.74-.3,3.62-.06,5.3.2,1.47.22,5.71-.66,5.71a.6.6,0,0,1-.42-.27c-1.3-1.51,2.27-4-.05-5.06s-3,0-3.25-4.25.45-13.45.53-26.68-.3-28.64-.14-30c.14-1.16-.82-4.87-1.12-4.87-.05,0-.08.1-.08.31-.05,1.55.22,32-.77,33.88-.05.08-.08.12-.12.12-.81,0-.12-20.6-.51-22.48s-3.28-3.25-2.22-4.32,1.06-3.74,1.06-3.74a6.35,6.35,0,0,0,1.24-4.32c-.32-2.34,0-5.13-1.5-5.16h0c-1.46,0-.89,3-1.73,3h-.05c-.91-.11-6.6-3.1-7.56-3.57s4.34-1.79,7.42-1.79h.34c2.75,0-2.35-1.94-4.73-2.67s-4.43-7.19-11.57-9.34-16.17-5.66-19.89-6c-.81-.07-1.42-.11-1.86-.11-1.56,0-1,.45-.11,1q.15.09.09.09c-.41,0-7.05-2.68-8-3.94s.18-4.39,1.56-6.5,2.75-2.56,4-4.54.46-2.37,1-4.41,2.89-11.91,7.08-16.12,2.73-4.6,7-6.81a30.69,30.69,0,0,1,5.64-2.52m-.2-6.1-1.09.24a36.79,36.79,0,0,0-7.1,3,14.44,14.44,0,0,0-6.12,5.09,21.3,21.3,0,0,1-2.42,2.83c-4.52,4.55-7,12.64-8.49,18.33l-.12.47a11.89,11.89,0,0,0-.42,2.95,8.78,8.78,0,0,1-.82.82,18,18,0,0,0-3,3.44c-3.36,5.15-3.86,10-1.35,13.38.92,1.24,2.39,2.44,6.53,4.32,4.49,2,5.43,2,6.27,2H382l.05-.18c2.19.65,4.95,1.58,7.35,2.39,2.69.9,5.47,1.84,8.07,2.62s4,2.44,5.41,4.18a5.89,5.89,0,0,0-1.1,2.35,6.11,6.11,0,0,0,3.29,6.89l.83.42c2.34,1.2,4,2,5.15,2.55l.3,1.68c0,.11,0,.25,0,.37-1.15,1.64-2.65,5.15,1.3,9.46h0c0,1.65,0,4.87,0,7.36-.08,13.6-.09,15.35,2.1,17.55l.49.48c-.08,4.77-.22,8.91-.34,12.4-.15,4.7-.27,8.09-.14,10.45a11.89,11.89,0,0,0,1.4,5.77,7,7,0,0,0,1.64,1.88,6.86,6.86,0,0,0,1.69,5.25,8,8,0,0,0,.83.82l0,.15a23.32,23.32,0,0,1,.33,2.8c.1,5.88,4.12,8.55,7.82,8.55a8.67,8.67,0,0,0,2.81-.47c1.38-.38,11.32-2.79,19.55-4.78l6.67,13.59,2.86-15.85a7.26,7.26,0,0,0,4.34-2.6,5.91,5.91,0,0,0,3-1.27,5.76,5.76,0,0,0,2.68-1.06,6.33,6.33,0,0,0,4.41-2,7,7,0,0,0,1.62-3,6.57,6.57,0,0,0,1.8-3.23,19,19,0,0,0,.38-2.13c.59-4.61.33-18.29,0-32.38,0-1.41-.06-2.48-.07-3.07,0-1.71,0-3.29,0-5.12,0-2.38,0-5.07,0-8.95-.06-3.62-.83-14.16-1.36-21.07l14.08-.34,1.16,0,.14-.06h1.5l1.72-1.58,8.3-7.59a20.67,20.67,0,0,0,6-2.59c2-1.32,8.71-5.9,13-9.51,6.14-5.15,7-14,7-15.68.08-1.4.1-3.47.12-5.86,0-1.8,0-3.83.09-5.71s.12-4.66-2-6.84a6.54,6.54,0,0,0-4.55-2c-2-1-4.63-1.48-7.8-2a63.29,63.29,0,0,1-6.79-1.48c-6.22-1.88-23.48-3.8-34.19-4.19-3.88-.15-9.15-.5-15.26-.91-10.58-.71-23.75-1.59-35.82-1.76-18-.25-23-.8-27.22-1.45l-1.11-.17Z"/><path class="cls-1" d="M506.86,185.94l-.28,9.49s42.79-18,42.79-26.25c-.94.55,0-3,0-2,1.87-2.5,8.5-18.82,8.5-18.82,1.34-2.12,2.91-4.6,4.58-7.12,7.35-3.4,15.22-9,23.21-8.95l8.82-3.68c-.42,10.15-6.09,28.55-6.71,21.38,0-.45-4,5.48-4.39,10.48-.33,4.63,38.31-17.91,47.75-26.86,8.54-8.64,9.27-16,5.68-25.6a3.3,3.3,0,0,0,.72-.42,17.5,17.5,0,0,1,3.44-1.88c1.49-.75,3-1.46,4.57-2.24l.14,1.11a4,4,0,0,0,.57-1.07c.16-1.23.88-1.39,1.37-1.22,1.18.4,1.77.17,2.5-1.45.39.9.81.75,1.09-.24.36-1.32.78-1.69,1.65-1,.23.18,1-.28,1.22-.72a14.23,14.23,0,0,0,.74-2.66l-2.53.35a7.48,7.48,0,0,1,3.38-4.2,14.66,14.66,0,0,0,1.44-.81,5.92,5.92,0,0,0,2.61-4.89c.28-4,.39-8-.94-11.29a34.83,34.83,0,0,0-3.23-5.47c-2.17-3.47-5.34-5-8-7.53a59.07,59.07,0,0,0-5.07-4,2.56,2.56,0,0,0-.92-.51c-.86-.18-1.75-.26-1.29-1.69a55.46,55.46,0,0,0-3.09,5c-.95,1.74-2.45,3.22-2.76,5.31l-.59-1.79a52.87,52.87,0,0,1-12.53,13.3c-1-1.83-2-3.74-3-5.73a44.44,44.44,0,0,0-1.68-5,25.92,25.92,0,0,0-2.35-4.57c-.55-1.61-1.12-3.17-1.77-4.68-.53-1.2-1.1-2.37-1.72-3.5s-1.27-2.24-2-3.32c-5.79-8.39-11.94-24.9-21.23-25.32l-2.1-.11-2.25.22c-1.88,2-31.33,1-31.33,8.57-6.66,38.25-12.62,64.25-18.07,81.39a7,7,0,0,0-2.41,1,11.12,11.12,0,0,0,.78,2.68m41.24-16.85c-1.77-4.26,0-13.38,1.22-18.31.19-.85.41-1.7.65-2.56.7-2.44,1.59-5,2.44-7.53C580.45,76.35,594.2,102.07,573.44,102.81Z"/><path class="cls-1" d="M585.48,25.78l2.1-.21S582.37,25.57,585.48,25.78Z"/><path class="cls-1" d="M251.63,243.22c-.64,0-1.32,0-2-.08-1-.08-2.69-.27-4.59-.5l-.61.23a5.74,5.74,0,0,1-2,.27c-3,0-11.73-1-36.65-7.85-27.42-7.51-49.18-19-58.47-23.93-1.91-1-3.42-1.81-4.12-2.12a15.08,15.08,0,0,1-7-5.59c-.39-.51-.76-1-1.19-1.49a48,48,0,0,0-3.41-3.43,14.7,14.7,0,0,1-1.31-1.29c-1.34-1.66-1-2.49,2.66-12.74,1-2.67,2-5.44,2.41-6.9.81-2.66,5-6.63,23.65-18.78a4.11,4.11,0,0,1-3.17-2.19,3.77,3.77,0,0,1,.68-3.9l.16-.23a.93.93,0,0,0-.05.1,2.29,2.29,0,0,0,.1,1.86,2.15,2.15,0,0,0,.85.94l.34-3.4a7.67,7.67,0,0,1-1.16-1.6h0l-.15-.32-1.34-3.11,1.87-.55a4.14,4.14,0,0,1,.44-2.13c-1.2-.12-2.2-.3-2.22-.31a3.83,3.83,0,0,1-3-4,4.16,4.16,0,0,1,.12-.72,3.38,3.38,0,0,1-1.07-2,3.54,3.54,0,0,1,0-.92c-.6-.15-1.26-.28-1.65-.35l-1.1-.23a3.77,3.77,0,0,1-2.47-1.81,4.42,4.42,0,0,1-.31-3.33,44.11,44.11,0,0,1-3.16-8.69,83.85,83.85,0,0,1-3.22-21.65c-.16-16.91,26.1-20.44,40.21-22.33,1.66-.22,3.13-.42,4.35-.61,8.38-1.33,13.57-1.77,27.79-1.77,4.54,0,10.11,0,18.62.14,4.74.06,14.72,2,21.25,3.74a10.09,10.09,0,0,1,6.33,5.5c2.82,5.62,2.26,13.72,1.16,16.49a53.63,53.63,0,0,0-.32,7.32c-.1,10.11-.35,16.4-4.1,18.12-2.1,1-5.16,3.39-7.86,5.52-1.33,1-2.59,2-3.72,2.85a24.24,24.24,0,0,1-4.83,2.53,9.81,9.81,0,0,0-3.28,1.8,23.33,23.33,0,0,0,2.16,2.46c2.26,2.35,5.35,5.57,3.62,9.14-.81,1.65-3.13,6.18-5.6,11s-5,9.76-5.58,11a7.43,7.43,0,0,1-3.3,3c10,2.06,29,5.64,32.42,6l.53.06c5.31.55,6.28,1.77,9.87,9.11a9.51,9.51,0,0,1-.28,9.68,11.85,11.85,0,0,1-2.57,2.89c2.89,1.16,4.56,4.11,4.53,8.18,0,2.1-1.1,9.33-4.09,11.53a9.44,9.44,0,0,1-.34,2.43,6.41,6.41,0,0,0-.24,1.23c.34,1.94-.6,3.59-2.82,4.83a6.1,6.1,0,0,1-1.82,1.61c0,.14,0,.26,0,.38a3.05,3.05,0,0,1-1.44,2.06,3.59,3.59,0,0,1-1.82,1.25,3.34,3.34,0,0,1,.21,2.73C257.7,242.29,255.55,243.22,251.63,243.22Z"/><path class="cls-2" d="M211.78,78.75c4.92,0,10.94,0,18.58.14,4.13,0,13.51,1.76,20.51,3.64s6.74,14.81,5.48,18,.63,22.2-2.88,23.82-8.62,6.17-12.08,8.66-7.78,2.72-9.34,5.85,7.68,7.87,6.06,11.2S228.05,169.6,226.92,172s-11.44,4.72-7,6,34.16,6.89,38.48,7.35,4.43.16,8,7.51-5.1,11.27-7.16,11.27h0c-2.05,0-1.82,1.37,5,2.5s2.1,14.61.61,14.84-1.49.25-3,.49.12,1.3,1.39,1.41-.34,2.93-.06,4.53-2.3,1.95-2.27,2.47-1,1-2,1.63a1.45,1.45,0,0,1-.82.33l-.35,0a1.32,1.32,0,0,0-.69.21c-.9.51,2.16,1.24,1.29,1.28-.67,0-.38,1-1.27,1a3.15,3.15,0,0,1-1.11-.28,4,4,0,0,0-1.32-.34c-.76,0-.67.68-1.3,1.23-.88.76,1,2.54,2,3.4.89.73-.61,1.47-3.73,1.47-.55,0-1.15,0-1.79-.08-3.53-.26-15.47-2-16.58-2-.25,0,.05.08,1.1.29,5.75,1.12,9,1.6,9,1.6a3.76,3.76,0,0,1-1,.07c-2.44,0-10.59-.81-35.86-7.74-33.08-9.07-57.75-24-62.18-25.91s-5-3.88-7.11-6.31-4.19-4.08-4.64-4.63,4.39-12.84,5.61-16.88,25.58-19,26.9-20.08-.82-2.05-4.39-2.37-1.81-1.13-1.34-2.27-1.33-1.26-1.45-1.27H158a1.5,1.5,0,0,0,1.22-.47c.34-.54,2.41-.65,2.41-.65l-1.14-1a4.59,4.59,0,0,1-1.19-1.49l2-.58s-1.43-.08-1.26-1.11-.23-1.38.47-1.85.69-4-.38-4h-.08a4.82,4.82,0,0,1-.8.05,22.68,22.68,0,0,1-3.4-.35c-.61-.11-.9-1.26-.15-1.3s3.32-.72,2.57-.72h-.36c-.84,0-.36-.42-1.3-.83a6.68,6.68,0,0,1-1.93-.94c-1.1-.74.44-.61.13-2.14s-4-1.92-5.56-2.29.24-2.91-.33-2.93-6.37-13.57-6.52-29.66,31.14-18.22,42-20c8.11-1.28,13-1.73,27.32-1.73m0-6c-14.42,0-19.7.45-28.26,1.81-1.17.18-2.61.37-4.28.6-6.64.89-16.66,2.23-25.05,5.28-14.78,5.38-17.82,13.87-17.76,20a86.75,86.75,0,0,0,3.33,22.44,67.65,67.65,0,0,0,2.4,7.06c.16.39.33.81.53,1.24a7.06,7.06,0,0,0,.82,4.38,6.75,6.75,0,0,0,4.4,3.25l.74.16a6.84,6.84,0,0,0,.63,1.32,7,7,0,0,0,2,4.87l-.09,0,2.67,6.23v0a6.48,6.48,0,0,0-.75,6.57,7.14,7.14,0,0,0,.5.91c-16.63,11-20.1,14.59-21.12,18-.42,1.38-1.4,4.11-2.36,6.76-.84,2.33-1.71,4.74-2.35,6.65-1.07,3.19-2.07,6.2.18,9a16,16,0,0,0,1.6,1.61,39.93,39.93,0,0,1,3.19,3.2c.36.41.7.86,1.05,1.32a18.15,18.15,0,0,0,8.17,6.53c.59.26,2.13,1.08,3.91,2,9.38,5,31.35,16.57,59.09,24.18,19,5.2,31.93,7.95,37.44,7.95a8.49,8.49,0,0,0,3-.44c1.63.2,3,.35,4,.43.77.06,1.53.09,2.25.09,5.21,0,8.44-1.65,9.61-4.9a6.53,6.53,0,0,0,.36-1.71l5.56-2.09-3.61-.53a5.66,5.66,0,0,0,.65-1.33,7.63,7.63,0,0,0,1.18-1.12,7.38,7.38,0,0,0,3.8-7.07c0-.17.09-.4.13-.56a16.67,16.67,0,0,0,.34-1.69,14,14,0,0,0,2.68-4.87,25.72,25.72,0,0,0,1.5-8.07c0-4-1.2-6.78-3-8.66.21-.28.4-.56.58-.85a12.59,12.59,0,0,0,.42-12.59c-1.91-3.9-3.07-6.19-4.83-7.89-2.45-2.37-5.09-2.64-7.42-2.89l-.52-.05c-2.72-.3-16.51-2.85-26.68-4.87.62-1.3,3.21-6.34,5.5-10.8,2.47-4.79,4.8-9.33,5.61-11,2.5-5.14-1.28-9.53-3.72-12.09a25.35,25.35,0,0,0,5.12-2.73c1.18-.85,2.46-1.86,3.82-2.93,2.44-1.93,5.48-4.32,7.26-5.14,5.66-2.61,5.74-10.64,5.84-20.82,0-2.33.05-5.5.22-6.54,1.39-3.91,1.69-12.52-1.38-18.65a12.86,12.86,0,0,0-8.23-7c-6.86-1.85-17-3.79-22-3.85-8.52-.1-14.1-.14-18.65-.14Z"/><path class="cls-1" d="M157.11,159.63a5.23,5.23,0,0,1-2.37-1.15l-.68-.56-.27-.83a5.73,5.73,0,0,1,1.09-5.35l.07-.1,2-3.31,2.71,2.79,1.31,1.31-.31.91.16.21-.45,6.59Z"/><path class="cls-2" d="M157.5,153.22v0a1.4,1.4,0,0,0,.22,1.2l-.15,2.23a2.32,2.32,0,0,1-.94-.51,2.9,2.9,0,0,1,.66-2.64c.06-.1.15-.22.2-.3m-1.18-9.65L152.44,150a8.64,8.64,0,0,0-1.5,8l.54,1.66,1.35,1.11a8,8,0,0,0,3.81,1.8l6.47,1,.45-6.54.16-2.23.11-1.57.58-1.74-2.72-2.6-5.37-5.37Z"/></g></g></svg>