<svg xmlns="http://www.w3.org/2000/svg" viewBox="0 0 659.9 252.03"><defs><style>.cls-1{fill:#231f20;}.cls-2{fill:#fff;}</style></defs><title>diamond1-3</title><g id="Layer_2" data-name="Layer 2"><g id="Layer_2-2" data-name="Layer 2"><path class="cls-1" d="M255.9,157.61l-.24.19Z"/><path class="cls-1" d="M256.77,156.9l-.72.59Z"/><path class="cls-1" d="M257.68,156.17l-.91.73Z"/><path class="cls-1" d="M256.05,157.49l-.15.12Z"/><path class="cls-1" d="M259.91,154.36l-.24.19Z"/><path class="cls-1" d="M259.67,154.55l-1.7,1.38Z"/><path class="cls-1" d="M258,155.93l-.29.24Z"/><path class="cls-1" d="M255,158.31l-.34.27Z"/><path class="cls-1" d="M254.7,158.58Z"/><path class="cls-1" d="M255.66,157.8l-.46.38Z"/><path class="cls-1" d="M258.21,150.75l-2.55,2-3.41-2.8,1.7-5.6s-4.68,1.6-6,3.6-4.69-4.8-4.69-4.8l-2.8-3.59a3.66,3.66,0,0,0,0-3.2c-.86-1.6,2.8-10.8,2.8-10.8s-6.85,6.8-8.55,8c-.41.29,3.18-6.49,9.05-17-.7-2.19-1.11-3.46-1.35-4.16.36.57,1.13,1.75,2,3l.88-1.57a2.31,2.31,0,0,1-.32-1.09c.2-.41,1.34-3.88,2.85-3.36C254.57,86.6,274.23,54.38,294.26,34c-3.17-4.73-5.22-7.81-5.59-8.43-2.13-3.6,10.23,0,7.73-4.4-1.56-2.75,2.32-.65,6.8.82.89-1.1,1.75-2.11,2.57-3a17.22,17.22,0,0,1-2.61-1.38c-5.53-3.59.85-6.39,0-12.79-.77-5.82,8.38,5.88,10,8.05h.06L306.16,0s4.5,3.59,14.68,14a8.52,8.52,0,0,1,4.76,5.44c29.56,24.83,48.55,57.51,64.19,92.67,2.42-.17,5.65,1,9.44-.6,4.57-1.93-.45,5.17-3.51,9.16l.29.42,9-8.31s-1.62,3.55-6.57,11.8l4,5.79-12.78,23.19-4.54-10.81c-17.32,31.33-36.71,62.71-44.8,70.8-.34.35-3.52,3.35-3.52,3.35a9.8,9.8,0,0,0,1.9,5.24c1.17,1.62,1.4,3.9,2.44,5.77.95,1.7-5.36-1.93-4.34-.52,2.23,3.06,11.61,10.41,11.61,10.41L328.93,230l10.5,7.87-5.25-2.62,1,4.39s-6.42-1.25-10-3.09a37.13,37.13,0,0,1-9.17-6.84c-10.17-10.17-56-71.83-59.28-77.17m63.78,16.31c7.43-10.6,15.88-28.35,14.64-30.36,3.46-3.77,6.41-7.19,8.91-10.22a1.45,1.45,0,0,1-.18-.32C340.7,117.18,329.16,100.65,319,90c-7.57,12.58-21.79,36.79-11.69,17.79,12.3-23.15-5,7.66-7.53,11.4-1.95,2.91-3.88,5.75-5.75,8.44C298.47,136.08,295.8,131.58,320.57,168.85Z"/><path class="cls-1" d="M255.2,158.18l-.16.13Z"/><path class="cls-1" d="M242.45,112.45c-.15-.22-.23-.36-.23-.36S241.91,110.9,242.45,112.45Z"/><path class="cls-1" d="M5.4,24.92c6.45,14.71,17,34.65,4.2,83.29s-9.73,39.61-7.9,41.72,6,9,10.1,11.49,23.92,15.94,27.16,15A5.89,5.89,0,0,0,43,173s0,4.12.39,3.89,3.32-3,3.67-4.8,2.22-.83,1.1,1.8-2.42,4.71-.36,2.19,4.22-6,4.17-5.18a13,13,0,0,1-2.2,4.42c-.85,1,.43,1.26,1.4-.16s1.85-4.93,9.47-13.47,9.51-13.84,10.38-14.12,19.64,29.74,36.11,34.82,25-8.54,26.94-10.49,8.68-4.86,9.14-7a2.33,2.33,0,0,0-1.08-2.84l-1.28-1.28,1.6-1.28-1.22-.05a13.41,13.41,0,0,1,3.4-1.74,8.86,8.86,0,0,0,3-1.73,20.75,20.75,0,0,1-3.89-.12c-1.73-.27,3.51-.84,4.74-1.45s3.19-2.35,2-2.7-3.87-2.52-3-2,5-.19,4.54-.4c-9.49-4.89-34-16-55-44,1.36-3,16.08-11.63,27.29-16.32s8.42-23.18,6.48-35.1-3.5-15.61-5.41-16.78-5.24-3.19-7-4.41-8.09.4-14.67,2.34-18.63,7.33-24,11.22-3-.06-3.94-2.78-3.87-17.68-7.47-23S64,10.94,44.6,8.65,21,5.41,14.79,6s-13.3,5.88-12.27,11A26.17,26.17,0,0,0,5.4,24.92Z"/><path class="cls-1" d="M468.58,228.12c-3,0-3-2.78-3.06-4.61l5.94-.69a7.17,7.17,0,0,1,.13,1.47c0,.71,0,1,0,1l-.17,2.82Z"/><path class="cls-2" d="M468.52,223.44a4.5,4.5,0,0,1,.07.85c0,.6,0,.83,0,.83s0-.9-.06-1.68m5.87-1.24-11.87,1.38c0,.4,0,.84,0,1.17.15,5,4,6.37,6,6.37h5.63l.36-5.69s0-.31,0-1.14a9.63,9.63,0,0,0-.2-2.09Z"/><path class="cls-1" d="M471.55,225.33a3.09,3.09,0,0,1-2.24-1,3.24,3.24,0,0,1-1-2.35,3.5,3.5,0,0,1,1.2-2.51l4.89-4.72.22,6.77a3.66,3.66,0,0,1-.9,2.85l-.89.91Z"/><path class="cls-2" d="M471.64,221.64c0,.47,0,.69-.09.69s-.07,0-.12-.08c-.22-.22,0-.38.21-.61"/><path class="cls-1" d="M468.62,221.1l0-1.29.91-.91a3.84,3.84,0,0,1,1.37-.93l3.44-1.33.6,3.63c0,.07,0,.12,0,.17l.26,1-.45,1a4.61,4.61,0,0,1-1,1.36l-4.9,4.77Z"/><path class="cls-2" d="M471.94,220.77c0,.14.05.28.08.39a1.83,1.83,0,0,1-.38.48c0-.17,0-.38,0-.63a.94.94,0,0,1,.32-.24m4.72-8.25-6.9,2.66a6.85,6.85,0,0,0-2.41,1.61l-1.81,1.83.08,2.58v.61l.38,13.63,9.79-9.49a7.47,7.47,0,0,0,1.65-2.26l.89-1.91-.49-2-1.2-7.27Z"/><path class="cls-1" d="M452.42,234.51c-9.09,2.2-21.09,5.11-22.09,5.41a5.79,5.79,0,0,1-1.9.33c-2.18,0-4.75-1.47-4.82-5.61a24.11,24.11,0,0,0-.37-3.22c-.08-.5-.16-1-.21-1.44a3.88,3.88,0,0,1-1.33-1,4.57,4.57,0,0,1-.58-4.82c-2.66-1-3.26-3-3.44-6.28-.12-2.24,0-5.58.15-10.2.13-3.92.29-8.67.36-14.19h-.46l-.92-.9c-1.18-1.19-1.31-1.78-1.23-15.43,0-3.34,0-7.47-.05-8.5a6.85,6.85,0,0,0-.75-.9c-2.62-2.87-1.89-4.88-.76-6.08a5.48,5.48,0,0,0,.29-1.73v-1l.63-.82a3.74,3.74,0,0,0,.63-1.61h-.46l-.22,0c-.92-.12-2.19-.62-7.7-3.44l-.84-.43a3.13,3.13,0,0,1-1.7-3.52,4.05,4.05,0,0,1,2.52-2.52c-.53-.55-1-1.18-1.57-1.85-1.73-2.17-3.7-4.62-7.32-5.71-2.55-.77-5.31-1.7-8-2.59a106.7,106.7,0,0,0-10.4-3.18l-.22.8h-2.31c-1.31,0-8.85-3.08-10.4-5.14-2.42-3.25.22-8,1.46-9.94a14.89,14.89,0,0,1,2.53-2.89,8,8,0,0,0,1.47-1.63,1.22,1.22,0,0,0,.3-1,9.57,9.57,0,0,1,.33-2.59l.13-.5c1.39-5.35,3.7-12.93,7.71-17a23.66,23.66,0,0,0,2.71-3.18,11.63,11.63,0,0,1,5.07-4.19,31.48,31.48,0,0,1,6.38-2.77l.54-.12.56.08c4.48.69,9.37,1.23,27.62,1.48,12,.17,25.12,1,35.67,1.76,6.13.41,11.42.76,15.35.91,10.53.38,27.43,2.25,33.43,4.07A69.13,69.13,0,0,0,515.37,93c3.32.59,6,1.07,7.6,2.11h0l.48,0a3.53,3.53,0,0,1,2.6,1c1.15,1.18,1.2,2.81,1.15,4.67s-.07,3.94-.09,5.78c0,2.35,0,4.37-.11,5.7-.06.92-.69,9.1-6,13.56-3.87,3.25-10.23,7.67-12.71,9.29a18.26,18.26,0,0,1-5.85,2.37l-9.73,8.9h-1l-.17.07-17.82.42c.49,6.26,1.52,19.89,1.59,24.06.06,3.85.06,6.53,0,8.89,0,1.84,0,3.43,0,5.18,0,.59,0,1.67.07,3.08.34,13.31.62,27.51.05,31.94-.14,1.14-.42,3.26-1.94,4.09a4.14,4.14,0,0,1-1.07,2.58,3.25,3.25,0,0,1-2.41,1.07,3.17,3.17,0,0,1-.84-.13,3.24,3.24,0,0,1-2.51,1.24h-.06a2.56,2.56,0,0,1-.64.32,3,3,0,0,1-2.21.93,3.18,3.18,0,0,1-.87-.14,4.17,4.17,0,0,1-3.85,2.82,3.4,3.4,0,0,1-.82-.1,2.56,2.56,0,0,1-.65.38L456.12,242Z"/><path class="cls-2" d="M395.71,86.21c4.38.67,9.29,1.26,28,1.51S463.8,90,474.7,90.38s27.32,2.33,32.67,4,12,2,14,3.36a2.55,2.55,0,0,0,1.45.45c.25,0,.47,0,.65,0,.57,0,.82.28.75,2.64-.11,4.3-.07,9.11-.2,11.38s-1.16,8.28-4.92,11.44-10,7.48-12.43,9.09a16.26,16.26,0,0,1-5.61,2.09l-9.49,8.68a1.63,1.63,0,0,0-.61.09l-20.41.48s1.74,21.71,1.83,27c.11,6.89,0,10.1.08,14.07s.87,28.93.15,34.59c-.17,1.33-.32,1.82-.44,1.82s-.13-.14-.18-.35a.88.88,0,0,0,.07-.23c0-.12,0-.18-.08-.18a.11.11,0,0,0-.07,0c-.16-1-.26-2.66-.31-2.66a2.14,2.14,0,0,0,0,.58c0,1,0,1.75,0,2.32a3.34,3.34,0,0,0-.94,2.4c.05.88-.21,1.4-.49,1.4s-.54-.43-.61-1.4c-.09-1.15.1-1.51,0-1.51a10.37,10.37,0,0,1-1.07.44s0,.52,0,1.1c-.07-.32-.18-.46-.32-.46-.41,0-1,1.17-1,2.12,0,.58-.16.82-.32.82s-.59-.6-.76-1.47c-.05-.22-.1-.31-.14-.31-.24,0-.52,2.28-.89,2.28a.19.19,0,0,1-.1,0,.19.19,0,0,0-.16-.09c-.33,0-.64.89-.86.89s-.15-.13-.2-.49c-.19-1.47-1.69-1.93-.43-4.68.55-1.21,1-1.42,1.12-1.44h0a2.93,2.93,0,0,1-1.13-.9,1.52,1.52,0,0,0-1-.6c-1.06,0-1.36,2.83-1.42,6.52-.06,3-.89,4.27-1.67,4.27-.43,0-.85-.41-1.1-1.17a64.86,64.86,0,0,1-1.44-10.07c0-.62,0-1,0-1a.82.82,0,0,1,0,.1,8.17,8.17,0,0,0,0,.9c0,2.54,0,9.24-.07,11,0,.58,0,.78-.08.78s-.31-1.17-.6-1.17c-.08,0-.15.07-.23.25a16,16,0,0,0-.89,3.09l-.74-1.52s-23.77,5.72-24.65,6a2.85,2.85,0,0,1-1,.19c-.86,0-1.78-.5-1.82-2.65-.05-3.07-1.39-7.08-.24-7.08h0c.49,0,1.34.16,2,.16.95,0,1.59-.29.53-1.63-1.55-2-2.26-5.94-2-5.94.05,0,.12.13.23.43s.26.47.41.47c.73,0,1.56-3.3.31-3.64s-2.34-1.72-2.72-1.72c-.13,0-.16.17,0,.62.43,1.75-.3,3.63-.06,5.3.2,1.47.22,5.71-.66,5.71A.62.62,0,0,1,424,227c-1.3-1.52,2.27-4-.05-5.06s-3,0-3.25-4.25.45-13.45.53-26.69-.3-28.64-.14-30c.14-1.15-.82-4.86-1.12-4.86-.05,0-.08.09-.08.3-.05,1.55.22,32-.77,33.89-.05.08-.08.11-.12.11-.81,0-.12-20.6-.51-22.47s-3.28-3.26-2.22-4.33,1.06-3.73,1.06-3.73a6.38,6.38,0,0,0,1.24-4.32c-.32-2.35,0-5.14-1.5-5.17h0c-1.46,0-.89,3-1.73,3h-.05c-.91-.12-6.6-3.1-7.56-3.58s4.34-1.78,7.42-1.78h.34c2.75,0-2.35-1.94-4.73-2.67s-4.43-7.19-11.57-9.33-16.17-5.67-19.89-6c-.81-.08-1.42-.12-1.86-.12-1.56,0-1,.45-.11,1q.15.09.09.09c-.41,0-7.05-2.68-8-3.94s.18-4.39,1.56-6.5,2.75-2.56,4-4.54.46-2.37,1-4.4,2.89-11.91,7.08-16.12,2.73-4.6,7-6.82a29.86,29.86,0,0,1,5.64-2.51m-.2-6.1-1.09.24a35.52,35.52,0,0,0-7.1,3,14.5,14.5,0,0,0-6.12,5.08,20.67,20.67,0,0,1-2.42,2.83c-4.52,4.56-7,12.64-8.49,18.33l-.12.47a12,12,0,0,0-.42,3,7.7,7.7,0,0,1-.82.82,17.83,17.83,0,0,0-3,3.45c-3.36,5.14-3.86,10-1.35,13.37.92,1.24,2.39,2.45,6.53,4.32,4.49,2,5.43,2,6.27,2H382l.05-.17c2.19.64,4.95,1.57,7.35,2.38,2.69.91,5.47,1.84,8.07,2.62s4,2.44,5.41,4.18a6.14,6.14,0,0,0,2.19,9.24l.83.43c2.34,1.19,4,2,5.15,2.54l.3,1.68c0,.11,0,.25,0,.38-1.15,1.63-2.65,5.14,1.3,9.46h0c0,1.65,0,4.87,0,7.36-.08,13.6-.09,15.35,2.1,17.55l.49.49c-.08,4.76-.22,8.91-.34,12.39-.15,4.7-.27,8.09-.14,10.46a11.88,11.88,0,0,0,1.4,5.76,7,7,0,0,0,1.64,1.88,6.85,6.85,0,0,0,1.69,5.25,7.13,7.13,0,0,0,.83.82l0,.15a23.55,23.55,0,0,1,.33,2.8c.1,5.88,4.12,8.56,7.82,8.56a9,9,0,0,0,2.81-.47c1.38-.38,11.32-2.8,19.55-4.79l6.67,13.6,2.86-15.86a7.2,7.2,0,0,0,4.34-2.6,5.91,5.91,0,0,0,3-1.27,5.66,5.66,0,0,0,2.68-1.06,6.29,6.29,0,0,0,4.41-2,6.86,6.86,0,0,0,1.62-3,6.53,6.53,0,0,0,1.8-3.23,19.16,19.16,0,0,0,.38-2.12c.59-4.62.33-18.29,0-32.38,0-1.41-.06-2.48-.07-3.08,0-1.71,0-3.29,0-5.12,0-2.37,0-5.06,0-8.94-.06-3.63-.83-14.17-1.36-21.08l14.08-.33,1.16,0,.14-.06h1.5l1.72-1.57,8.3-7.59a20.73,20.73,0,0,0,6-2.6c2-1.32,8.71-5.89,13-9.5,6.14-5.16,7-14,7-15.69.08-1.4.1-3.47.12-5.86,0-1.79,0-3.83.09-5.71s.12-4.66-2-6.84a6.54,6.54,0,0,0-4.55-2c-2-1-4.63-1.47-7.8-2a63.29,63.29,0,0,1-6.79-1.48c-6.22-1.88-23.48-3.8-34.19-4.19-3.88-.14-9.15-.5-15.25-.91-10.59-.71-23.76-1.59-35.83-1.76-18-.24-23-.8-27.22-1.44l-1.11-.17Z"/><path class="cls-1" d="M506.86,191.75l-.28,9.5s42.79-18,42.79-26.26c-.94.55,0-3,0-2,1.87-2.51,8.5-18.83,8.5-18.83,1.34-2.11,2.91-4.6,4.58-7.11,7.35-3.4,15.22-9,23.21-9l8.82-3.67c-.42,10.14-6.09,28.55-6.71,21.38,0-.46-4,5.48-4.39,10.47-.33,4.63,38.31-17.91,47.75-26.85,8.54-8.65,9.27-16,5.68-25.61a3.3,3.3,0,0,0,.72-.42,17,17,0,0,1,3.44-1.87c1.49-.75,3-1.47,4.57-2.25l.14,1.11a4.17,4.17,0,0,0,.57-1.06c.16-1.24.88-1.39,1.37-1.23,1.18.41,1.77.17,2.5-1.44.39.89.81.74,1.09-.24.36-1.33.78-1.7,1.65-1,.23.18,1-.28,1.22-.72a14.1,14.1,0,0,0,.74-2.65l-2.53.34a7.42,7.42,0,0,1,3.38-4.19c.49-.26,1-.51,1.44-.82a5.9,5.9,0,0,0,2.61-4.89c.28-4,.39-8-.94-11.29a34.28,34.28,0,0,0-3.23-5.46c-2.17-3.48-5.34-5-8-7.54a59.07,59.07,0,0,0-5.07-4,2.53,2.53,0,0,0-.92-.5c-.86-.19-1.75-.26-1.29-1.69a53.94,53.94,0,0,0-3.09,5c-.95,1.74-2.45,3.23-2.76,5.32l-.59-1.8a53.08,53.08,0,0,1-12.53,13.31c-1-1.84-2-3.75-3-5.73a43.79,43.79,0,0,0-1.68-5,25.57,25.57,0,0,0-2.35-4.57c-.55-1.62-1.12-3.17-1.77-4.69-.53-1.2-1.1-2.37-1.72-3.5s-1.27-2.24-2-3.32C603,48.63,596.87,32.13,587.58,31.7l-2.1-.11-2.25.22c-1.88,2-31.33,4.19-31.33,8.58l-18.07,81.38a7,7,0,0,0-2.41,1,11.12,11.12,0,0,0,.78,2.68m41.24-16.85c-1.77-4.26,0-13.38,1.22-18.31.19-.85.41-1.7.65-2.56.7-2.44,1.59-5,2.44-7.52C580.45,82.16,594.2,107.88,573.44,108.62Z"/><path class="cls-1" d="M585.48,31.59l2.1-.2S582.37,31.39,585.48,31.59Z"/><path class="cls-1" d="M251.63,249c-.65,0-1.33,0-2-.08-1-.08-2.69-.27-4.58-.5l-.63.24a5.92,5.92,0,0,1-2,.27c-3,0-11.73-1-36.65-7.85-27.42-7.52-49.18-19-58.47-23.94-1.91-1-3.42-1.81-4.12-2.11a15.14,15.14,0,0,1-7-5.59c-.39-.51-.76-1-1.19-1.5a45.48,45.48,0,0,0-3.41-3.42,14.52,14.52,0,0,1-1.31-1.3c-1.34-1.65-1-2.49,2.66-12.74,1-2.67,2-5.44,2.41-6.89.81-2.67,5-6.63,23.65-18.79a4.11,4.11,0,0,1-3.17-2.19,3.77,3.77,0,0,1,.68-3.9l.16-.23s0,.07-.05.1a2.31,2.31,0,0,0,.1,1.87,2,2,0,0,0,1.05,1l.2-3.41a8,8,0,0,1-1.22-1.68v0l-.15-.32L155.24,153l1.87-.55a4.14,4.14,0,0,1,.44-2.13c-1-.1-1.85-.24-2.22-.31a3.83,3.83,0,0,1-3-4,4.16,4.16,0,0,1,.12-.72,3.44,3.44,0,0,1-1.07-2,3.54,3.54,0,0,1,0-.92c-.6-.15-1.27-.28-1.65-.35l-1.1-.22a3.82,3.82,0,0,1-2.47-1.82,4.4,4.4,0,0,1-.31-3.32,44.28,44.28,0,0,1-3.16-8.7,83.78,83.78,0,0,1-3.22-21.65c-.16-16.91,26.1-20.43,40.21-22.32,1.66-.23,3.13-.43,4.35-.62,8.38-1.33,13.57-1.77,27.79-1.77,4.48,0,10.05,0,18.62.15,4.74.05,14.72,2,21.25,3.74A10,10,0,0,1,258,91c2.82,5.61,2.26,13.71,1.16,16.48a53.7,53.7,0,0,0-.32,7.33c-.1,10.11-.35,16.39-4.1,18.12-2.1,1-5.16,3.38-7.86,5.51-1.33,1.05-2.59,2-3.72,2.85a23.23,23.23,0,0,1-4.83,2.53,10.18,10.18,0,0,0-3.28,1.8,22.38,22.38,0,0,0,2.16,2.46c2.26,2.36,5.35,5.58,3.62,9.15-.81,1.64-3.13,6.16-5.59,10.95s-5,9.77-5.59,11a7.43,7.43,0,0,1-3.3,3c10,2.07,29,5.64,32.42,6l.53.06c5.31.55,6.28,1.77,9.87,9.11a9.53,9.53,0,0,1-.28,9.69,12,12,0,0,1-2.57,2.88c2.9,1.16,4.56,4.11,4.53,8.19,0,2.09-1.1,9.32-4.09,11.52a9.38,9.38,0,0,1-.34,2.43,6.71,6.71,0,0,0-.24,1.23c.34,1.94-.6,3.59-2.82,4.83a6,6,0,0,1-1.82,1.61,3.53,3.53,0,0,1,0,.38,3.07,3.07,0,0,1-1.44,2.07,3.59,3.59,0,0,1-1.82,1.25,3.31,3.31,0,0,1,.21,2.72C257.7,248.1,255.55,249,251.63,249Z"/><path class="cls-2" d="M211.78,84.56c4.92,0,10.94.06,18.58.15,4.13,0,13.51,1.75,20.51,3.63s6.74,14.82,5.48,18,.63,22.2-2.88,23.82-8.62,6.17-12.08,8.66-7.78,2.72-9.34,5.86,7.68,7.86,6.06,11.19-10.06,19.55-11.19,22-11.44,4.71-7,6,34.16,6.89,38.48,7.36,4.43.15,8,7.5-5.1,11.27-7.16,11.27h0c-2.05,0-1.82,1.37,5,2.5s2.1,14.61.61,14.84-1.49.25-3,.49.12,1.3,1.39,1.42-.34,2.92-.06,4.52-2.3,2-2.27,2.48-1,1-2,1.63a1.42,1.42,0,0,1-.82.32l-.35,0a1.42,1.42,0,0,0-.69.21c-.9.52,2.16,1.24,1.29,1.29-.67,0-.38,1-1.27,1a3.31,3.31,0,0,1-1.11-.27,3.81,3.81,0,0,0-1.32-.35c-.76,0-.67.69-1.3,1.23-.88.76,1,2.54,2,3.4.89.74-.61,1.47-3.73,1.47-.55,0-1.15,0-1.79-.07-3.53-.27-15.47-2-16.58-2-.25,0,.05.08,1.1.29,5.75,1.12,9,1.6,9,1.6a3.31,3.31,0,0,1-1,.08c-2.44,0-10.59-.82-35.86-7.75-33.08-9.07-57.75-24-62.18-25.9s-5-3.88-7.11-6.31-4.19-4.09-4.64-4.64,4.39-12.84,5.61-16.88,25.58-19,26.9-20.08-.82-2.05-4.39-2.37-1.81-1.13-1.34-2.27-1.33-1.26-1.45-1.26H158a1.5,1.5,0,0,0,1.22-.47c.34-.54,2.41-.65,2.41-.65l-1.14-1a4.48,4.48,0,0,1-1.19-1.49l2-.58s-1.43-.07-1.26-1.11-.23-1.38.47-1.85.69-4-.38-4h-.08a4.74,4.74,0,0,1-.8.06,22.68,22.68,0,0,1-3.4-.35c-.61-.12-.9-1.27-.15-1.3s3.32-.73,2.57-.73h-.36c-.84,0-.36-.42-1.3-.82a6.73,6.73,0,0,1-1.93-1c-1.1-.74.44-.61.13-2.13s-4-1.93-5.56-2.3.24-2.9-.33-2.92-6.37-13.58-6.52-29.67,31.14-18.22,42-19.95c8.11-1.28,13-1.73,27.32-1.73m0-6c-14.42,0-19.7.45-28.26,1.81-1.17.18-2.61.38-4.28.6-6.64.89-16.66,2.24-25.05,5.29-14.78,5.38-17.82,13.86-17.76,20a86.68,86.68,0,0,0,3.33,22.44,66.81,66.81,0,0,0,2.4,7.06c.16.39.33.81.53,1.25a7,7,0,0,0,.82,4.37,6.8,6.8,0,0,0,4.4,3.26l.74.15a6.57,6.57,0,0,0,.63,1.32,6.93,6.93,0,0,0,2,4.87l-.09,0,2.67,6.23v0a6.49,6.49,0,0,0-.75,6.58,7,7,0,0,0,.5.9c-16.63,11-20.1,14.59-21.12,18-.42,1.37-1.4,4.11-2.36,6.75-.84,2.33-1.71,4.75-2.35,6.65-1.07,3.19-2.07,6.21.18,9a16,16,0,0,0,1.6,1.61,43.6,43.6,0,0,1,3.19,3.2c.36.42.7.86,1.05,1.33a18.21,18.21,0,0,0,8.17,6.53c.59.26,2.13,1.07,3.91,2,9.38,5,31.35,16.58,59.09,24.18,19,5.21,31.93,8,37.44,8a8.72,8.72,0,0,0,3-.44c1.63.19,3,.35,4,.42.77.06,1.53.09,2.25.09,5.21,0,8.44-1.65,9.61-4.9a6.45,6.45,0,0,0,.36-1.71l5.56-2.09-3.61-.53a6.23,6.23,0,0,0,.65-1.32,8.73,8.73,0,0,0,1.18-1.12,7.4,7.4,0,0,0,3.8-7.08l.13-.56a16.42,16.42,0,0,0,.34-1.68,14.12,14.12,0,0,0,2.68-4.88,25.66,25.66,0,0,0,1.5-8.07c0-4-1.2-6.78-3-8.66a9.8,9.8,0,0,0,.58-.85,12.58,12.58,0,0,0,.42-12.59c-1.91-3.9-3.07-6.19-4.83-7.88-2.45-2.38-5.09-2.65-7.42-2.89l-.52-.06c-2.72-.29-16.51-2.85-26.68-4.87.62-1.3,3.21-6.34,5.5-10.79,2.47-4.8,4.8-9.33,5.61-11,2.5-5.14-1.28-9.52-3.72-12.08a26.41,26.41,0,0,0,5.12-2.73c1.18-.85,2.46-1.86,3.82-2.93,2.44-1.93,5.48-4.33,7.26-5.15,5.66-2.61,5.74-10.64,5.84-20.81,0-2.34.05-5.5.22-6.55,1.39-3.91,1.69-12.52-1.38-18.64a12.88,12.88,0,0,0-8.23-7c-6.85-1.84-17-3.78-22-3.84-8.52-.1-14.1-.15-18.65-.15Z"/><path class="cls-1" d="M157.11,165.44a5.13,5.13,0,0,1-2.37-1.15l-.68-.55-.27-.84a5.71,5.71,0,0,1,1.09-5.34l.07-.11,1.81-3,2.76,2.36,1.43,1.43-.3.9.15.22-.45,6.58Z"/><path class="cls-2" d="M157.5,159h0a1.39,1.39,0,0,0,.22,1.2l-.15,2.23a2.27,2.27,0,0,1-.94-.5,2.92,2.92,0,0,1,.66-2.65l.2-.29m-1.18-9.67-3.88,6.44a8.62,8.62,0,0,0-1.5,8l.54,1.67,1.35,1.11a8.11,8.11,0,0,0,3.81,1.79l6.47,1,.45-6.54.16-2.22.11-1.58.58-1.74-2.72-2.6-5.37-5.38Z"/><path class="cls-1" d="M339.61,138.45l.07.06Z"/><path class="cls-1" d="M339.35,138.23l.22.18Z"/><path class="cls-1" d="M339.07,138l.28.23Z"/><path class="cls-1" d="M339.57,138.41l0,0Z"/><path class="cls-1" d="M338.38,137.45l.08.06Z"/><path class="cls-1" d="M338.46,137.51l.52.42Z"/><path class="cls-1" d="M339,137.93l.09.07Z"/><path class="cls-1" d="M339.87,138.66l.11.08Z"/><path class="cls-1" d="M340,138.74Z"/><path class="cls-1" d="M339.68,138.51l.14.11Z"/><path class="cls-1" d="M319.6,144c-3.38-4.82-7.22-9.19-6.65-10.1-1.58-1.71-2.92-3.27-4.05-4.64,0,0,.06-.1.08-.15,1.47-4.9,6.72-12.41,11.34-17.25,3.44,5.72,9.9,16.72,5.31,8.09-5.59-10.52,2.28,3.48,3.42,5.18.89,1.32,1.76,2.61,2.61,3.83C329.64,132.8,332.13,132.38,319.6,144Z"/><path class="cls-1" d="M339.82,138.62l.05,0Z"/><path class="cls-1" d="M343.73,124.63l.07-.11S343.89,124.15,343.73,124.63Z"/></g></g></svg>