<svg xmlns="http://www.w3.org/2000/svg" viewBox="0 0 650.64 287.4"><defs><style>.cls-1{fill:#231f20;}.cls-2{fill:#fff;}</style></defs><title>diamond3</title><g id="Layer_2" data-name="Layer 2"><g id="Layer_2-2" data-name="Layer 2"><path class="cls-1" d="M298.51,27l-.27-.52S297.87,25,298.51,27Z"/><path class="cls-1" d="M406,170l-5.41-3.52c-10.48,14.8-41.65,56.48-61,76.22.68.91,1.11,1.51,1.25,1.71,1,1.53-2.05,1.24-4.36,1.38-.68.65-1.34,1.26-2,1.84.48.83.09,1-.84.76q-1.86,1.64-3.44,2.76c1.75,2.15-2,4.15-1.48,8.09.65,4.61-8.44-6.12-8.44-6.12l5.94,9.55s-4.53-3.21-14.87-12.8L264,189c-1.26,2.4-2.05,3.9-2.42,4.38-2.84,3.61-1.92-14.92-5.41-10.67-1.61,2-1.4-.76-1-5l-3.49-4.48a.75.75,0,0,1,0,.16c-2.2,8.58-5.91-.34-11.51,1.79s5.62-16.2,5.62-16.2l-10.5,12.51s2.92-8.68,12.43-29c0,0,33.12-51.23,59.17-92.44a143.18,143.18,0,0,1-5.48-13.65c-1.61-5.42-2.44-8.11-2.86-9.38,1.37,2.54,7.38,13.66,6.68,11.13-.8-2.85-3.87-8.86-3.58-9.27s2.31-4.9,4.71-.33,4.06,15.77,6.12,12a9,9,0,0,0-.21-9.28c-1.09-1.85,2.21,1.05,4.32,3.33,9.36-14.95,16.78-27.06,19.72-32.47,6.16-11.35.34,25.52.34,25.52l-6,13.65-.21.91c1,2.58,1.9,5.15,2.6,6.5,1.66,3.21-.25-6-.67-7.84-.33-1.44,46.55,81.29,65.64,115l.47.48a.81.81,0,0,0-.1.17l3.41,6a26,26,0,0,1,2.3-1.52c.17-.1-.43.87-1.66,2.66ZM272.55,181.6l7.14-.21c-.63-.91-1.35-2-2.18-3.19a75.79,75.79,0,0,1-4-6.48q-1.66,2.85-3.09,5.37Zm-19.4-21.85.57-.89C253.42,158.54,253.25,158.91,253.15,159.75Zm67.39-46.36c-5.09,9.22-14.72,28.65-13.92,31.65-2.15,3.11-4,6-5.63,8.57a23.82,23.82,0,0,1,3.31,4c1.4,2.2,8.43,11.58,14.85,20.08,4.34-5.44,17.86-23.21,9.89-11.72-8.66,12.5,3.53-4.13,5.29-6.14,2-2.25,3.9-4.42,5.71-6.39a3.15,3.15,0,0,1-.81-.79c-3.18-3.81-1.66-2.68.84-.29a4.37,4.37,0,0,1,.19.85l.33-.35-.52-.5c-1.47-4.76-11-23.35-12.86-26.6C325,121.84,322.66,117.55,320.54,113.39Zm76.51,50.76c-.73,1.63-1.44,3-1.44,3s1.25-.95,2.81-2.1Z"/><path class="cls-1" d="M460.55,260.62c-2.93,0-3-2.76-3.07-4.58l5.93-.75a7.12,7.12,0,0,1,.14,1.47c0,.71,0,1,0,1l-.14,2.86Z"/><path class="cls-2" d="M460.48,255.94a4.38,4.38,0,0,1,.07.84c0,.6,0,.84,0,.84h0s-.05-.9-.07-1.68m5.86-1.3-11.86,1.49c0,.41,0,.84,0,1.18.2,5,4,6.31,6,6.31h5.68l.31-5.75s0-.32,0-1.14a9.6,9.6,0,0,0-.21-2.09Z"/><path class="cls-1" d="M463.5,257.8a3.09,3.09,0,0,1-2.25-1,3.26,3.26,0,0,1-1-2.31,3.5,3.5,0,0,1,1.16-2.53l4.84-4.78.29,6.77a3.6,3.6,0,0,1-.86,2.86l-.88.92-1.31,0Z"/><path class="cls-2" d="M463.58,254.11c0,.47,0,.69-.08.69h0s-.07,0-.13-.08c-.21-.21,0-.38.21-.61"/><path class="cls-1" d="M460.58,254.21l-.08-1.89.89-.93a4,4,0,0,1,1.37-.95l3.41-1.35.69,3.79.25,1-.42,1a5,5,0,0,1-1,1.4l-4.87,4.8Z"/><path class="cls-2" d="M463.87,253.23c0,.15.06.28.08.39a1.71,1.71,0,0,1-.37.49q0-.27,0-.63a1,1,0,0,1,.32-.25m4.63-8.3-6.87,2.73a7,7,0,0,0-2.39,1.64l-1.79,1.85.1,2.58,0,.29v.31l.51,13.64,9.7-9.59a7.75,7.75,0,0,0,1.63-2.28l.87-1.92-.51-2-1.28-7.27Z"/><path class="cls-1" d="M444.49,267.17c-9.08,2.28-21.05,5.31-22,5.62a6,6,0,0,1-1.9.35h-.05c-2.15,0-4.71-1.46-4.82-5.56a24,24,0,0,0-.4-3.21c-.09-.5-.17-1-.23-1.44a3.83,3.83,0,0,1-1.33-1,4.51,4.51,0,0,1-.63-4.81c-2.67-1-3.29-2.93-3.5-6.25-.14-2.24-.06-5.57.05-10.19.09-3.93.2-8.72.21-14.28-2.48-.46-2.56-3.32-2.67-7.17-.07-2.58-.08-5.87-.1-9.06s0-7.47-.13-8.5a7.89,7.89,0,0,0-.76-.89c-2.65-2.84-1.94-4.86-.81-6.08a5.41,5.41,0,0,0,.26-1.72v-1l.64-.82a3.83,3.83,0,0,0,.61-1.62h-.5l-.21,0c-.89-.1-2.16-.59-7.67-3.34l-.88-.43a3.15,3.15,0,0,1-1.73-3.51,4,4,0,0,1,2.49-2.55c-.53-.54-1-1.17-1.58-1.83-1.76-2.15-3.75-4.58-7.38-5.64-2.55-.74-5.32-1.64-8-2.51-4-1.3-8.08-2.63-10.44-3.08l-.22.83h-2.33c-1.34,0-8.82-2.95-10.41-5-2.46-3.23.13-8,1.36-10a14.89,14.89,0,0,1,2.5-2.92,7.73,7.73,0,0,0,1.45-1.64,1.24,1.24,0,0,0,.29-1,9.72,9.72,0,0,1,.3-2.6l.12-.49c.78-3.09,3.12-12.5,7.55-17a24.14,24.14,0,0,0,2.69-3.22c1.14-1.61,2-2.6,5-4.23a32.86,32.86,0,0,1,6.35-2.84l.54-.12.56.08a63.31,63.31,0,0,0,8.78.36h4.55l8.45,0h5.87c17.89.07,39.87.19,51.05.49,10.53.29,27.45,2,33.47,3.74a70.77,70.77,0,0,1,14.74,6.54h.05l.48,0a3.53,3.53,0,0,1,2.62,1c1.15,1.17,1.22,2.79,1.19,4.64s0,3.86,0,5.61c0,2.19,0,4.08-.06,5.41,0,.92-.6,9.11-5.85,13.62-3.85,3.3-10.17,7.77-12.63,9.41a18.85,18.85,0,0,1-6.63,2.6l-27.94,7.07c.54,6.27,1.88,22.12,2,26.47.1,3.85.12,6.53.14,8.89,0,1.83,0,3.43.08,5.18,0,.6.05,1.67.1,3.08.47,13.3.89,27.5.36,31.94-.13,1.14-.38,3.26-1.9,4.11a4.19,4.19,0,0,1-1,2.59,3.27,3.27,0,0,1-2.4,1.09h0a3.46,3.46,0,0,1-.85-.12,3.26,3.26,0,0,1-2.49,1.27h-.06a2.53,2.53,0,0,1-.63.34,3,3,0,0,1-2.21.94h0a3,3,0,0,1-.87-.13,4.18,4.18,0,0,1-3.82,2.86,4,4,0,0,1-.82-.09,3,3,0,0,1-.65.39l-1.52,8.94Z"/><path class="cls-2" d="M386.32,119.43a66.62,66.62,0,0,0,9.21.39c3.13,0,7.26,0,13,0h5.82c18.75.07,40.08.19,51,.49s27.34,2,32.71,3.62a69.39,69.39,0,0,1,14,6.23,2.45,2.45,0,0,0,1.41.43h0c.26,0,.47,0,.66,0h0c.56,0,.8.3.77,2.63-.08,4.31,0,8.64-.09,10.92s-1.08,8.29-4.8,11.49-9.92,7.57-12.35,9.2a16.16,16.16,0,0,1-5.59,2.15l-30.51,7.73s2,23.51,2.19,28.83c.18,6.89.11,10.1.22,14.07s1.15,28.92.48,34.58c-.15,1.34-.29,1.83-.42,1.83h0c-.06,0-.12-.14-.18-.35a.62.62,0,0,0,.07-.23c0-.12,0-.18-.07-.18h0l-.07,0c-.17-1-.29-2.65-.34-2.65h0a3.83,3.83,0,0,0,0,.58c0,1,0,1.75.05,2.32a3.32,3.32,0,0,0-.92,2.41c.07.87-.19,1.4-.47,1.4h0c-.26,0-.54-.43-.63-1.39-.1-1.15.09-1.51,0-1.51h0a10.94,10.94,0,0,1-1.08.45s0,.51,0,1.1c-.07-.32-.19-.46-.33-.46h0c-.4,0-1,1.18-1,2.13,0,.58-.15.82-.31.83h0c-.26,0-.59-.61-.78-1.47,0-.22-.09-.31-.14-.31h0c-.24,0-.49,2.29-.86,2.29h0a.11.11,0,0,1-.1-.05.24.24,0,0,0-.17-.09h0c-.32,0-.63.9-.84.9h0c-.09,0-.16-.13-.21-.49-.21-1.46-1.71-1.91-.48-4.67.54-1.22,1-1.43,1.11-1.45h0a2.94,2.94,0,0,1-1.14-.89,1.52,1.52,0,0,0-1-.6h0c-1.06,0-1.33,2.85-1.37,6.54,0,3-.84,4.28-1.62,4.29h0c-.44,0-.85-.41-1.11-1.16a63.91,63.91,0,0,1-1.54-10.06c0-.62,0-1,0-1h0a.62.62,0,0,1,0,.09c0,.18,0,.49,0,.9,0,2.55.05,9.25,0,11,0,.57,0,.78-.07.78h0c-.11,0-.33-1.17-.62-1.17h0c-.07,0-.15.07-.23.25a16.38,16.38,0,0,0-.85,3.1l-.76-1.51s-23.71,6-24.59,6.27a3,3,0,0,1-1,.2h0c-.85,0-1.76-.5-1.82-2.63-.08-3.07-1.46-7.07-.31-7.08h0c.47,0,1.3.14,2,.14h0c.95,0,1.59-.3.51-1.63-1.57-1.94-2.31-5.92-2.06-5.92h0s.12.13.23.42.27.47.42.47h0c.72,0,1.52-3.31.27-3.64s-2.35-1.69-2.73-1.69h0c-.14,0-.16.17-.05.62.46,1.74-.25,3.62,0,5.3.21,1.46.27,5.71-.6,5.72h0A.64.64,0,0,1,416,260c-1.31-1.5,2.23-4-.1-5.06s-3,0-3.29-4.21.32-13.46.27-26.69-.58-28.64-.44-30c.13-1.16-.86-4.86-1.16-4.86h0c-.05,0-.08.1-.08.31,0,1.55.53,32-.44,33.89,0,.08-.08.12-.11.12h0c-.82,0-.33-20.6-.74-22.47s-3.31-3.22-2.26-4.3,1-3.75,1-3.75a6.37,6.37,0,0,0,1.2-4.33c-.34-2.34,0-5.13-1.55-5.15h0c-1.46,0-.86,3-1.7,3h-.05c-.91-.11-6.63-3-7.6-3.5s4.32-1.83,7.4-1.86h.35c2.74,0-2.37-1.91-4.76-2.62s-4.5-7.15-11.66-9.22-16.22-5.51-19.94-5.83c-.77-.07-1.35-.1-1.78-.1h-.09c-1.56,0-1,.46-.1,1,.11.06.13.09.09.09h0c-.42,0-7.08-2.61-8-3.86s.14-4.39,1.5-6.52,2.72-2.58,4-4.58.43-2.37,1-4.41,2.76-11.94,6.91-16.19,2.68-4.63,7-6.89a30.62,30.62,0,0,1,5.62-2.56m-.26-6.1-1.09.25a36.42,36.42,0,0,0-7.07,3.11,14.55,14.55,0,0,0-6.07,5.14,20.78,20.78,0,0,1-2.38,2.86c-4.48,4.6-6.89,12.71-8.31,18.41l-.12.47a12.23,12.23,0,0,0-.4,3,9,9,0,0,1-.8.83,17.15,17.15,0,0,0-3,3.47c-3.32,5.18-3.76,10.06-1.22,13.39.94,1.22,2.41,2.42,6.57,4.25,4.47,2,5.45,2,6.23,2h.06l4.58-.05.05-.17c2.2.62,5,1.53,7.37,2.31,2.7.88,5.49,1.79,8.09,2.54s4,2.4,5.46,4.13a6,6,0,0,0-1.08,2.36,6.12,6.12,0,0,0,3.36,6.86l.84.41c2.53,1.26,4.22,2.08,5.44,2.62l0,1.54a2.77,2.77,0,0,1,0,.39c-1.14,1.65-2.6,5.17,1.39,9.45h0c.05,1.65.06,4.87.07,7.36,0,3.2,0,6.51.1,9.13.05,1.51.1,2.66.18,3.5a7.35,7.35,0,0,0,2.49,5.34c0,4.78-.13,8.94-.21,12.44-.12,4.7-.2,8.09-.05,10.45a11.88,11.88,0,0,0,1.46,5.75,7,7,0,0,0,1.66,1.87,6.83,6.83,0,0,0,1.75,5.23,8,8,0,0,0,.83.82l0,.14a24.17,24.17,0,0,1,.36,2.8c.16,5.83,4.16,8.48,7.82,8.48h.08a9,9,0,0,0,2.81-.5c1.37-.39,11.29-2.91,19.5-5l6.8,13.52,2.71-15.88a7.24,7.24,0,0,0,4.32-2.64,5.92,5.92,0,0,0,3-1.3,5.75,5.75,0,0,0,2.67-1.09,6.35,6.35,0,0,0,4.39-2,6.94,6.94,0,0,0,1.59-3,6.58,6.58,0,0,0,1.77-3.24,16.13,16.13,0,0,0,.35-2.14c.55-4.61.16-18.29-.34-32.37-.05-1.41-.09-2.48-.1-3.08-.05-1.7-.06-3.29-.08-5.12,0-2.37,0-5.06-.14-8.94s-1.16-16.82-1.78-24.1l25.37-6.43a21.63,21.63,0,0,0,7.66-3c2-1.34,8.65-6,12.91-9.64,6.08-5.21,6.81-14,6.89-15.75.07-1.4.07-3.33.07-5.56,0-1.72,0-3.66,0-5.55s.08-4.64-2-6.79a6.5,6.5,0,0,0-4.51-1.94,76.9,76.9,0,0,0-14.68-6.39c-6.23-1.82-23.51-3.57-34.23-3.86-11.2-.3-33.21-.42-51.12-.49h-5.84l-8.49,0h-4.55a60.61,60.61,0,0,1-8.36-.33l-1.11-.16Z"/><path class="cls-1" d="M497.84,233.25l-.18,9.55s42.83-18.52,42.75-26.81c-.95.55-.06-3,0-2.05,1.85-2.54,8.35-19,8.35-19,1.33-2.14,2.89-4.65,4.54-7.19,7.35-3.49,15.21-9.24,23.24-9.23l8.82-3.78c-.32,10.2-5.83,28.75-6.53,21.55,0-.45-4,5.55-4.31,10.57-.28,4.66,38.34-18.38,47.73-27.46,8.49-8.78,9.16-16.17,5.46-25.79a3.45,3.45,0,0,0,.71-.43,17.26,17.26,0,0,1,3.45-1.92c1.49-.77,3-1.51,4.56-2.3,0,.15.07.47.16,1.11a3.72,3.72,0,0,0,.56-1.08c.15-1.24.88-1.4,1.37-1.24,1.18.4,1.78.15,2.5-1.48.39.9.82.74,1.08-.25.36-1.33.78-1.71,1.66-1,.23.19,1-.29,1.21-.73a14.31,14.31,0,0,0,.73-2.68l-2.54.37a7.4,7.4,0,0,1,3.35-4.24c.48-.27,1-.52,1.44-.84a5.91,5.91,0,0,0,2.57-4.94c.24-4,.32-8-1-11.34a34.64,34.64,0,0,0-3.31-5.46c-2.21-3.47-5.41-5-8.12-7.49a59.77,59.77,0,0,0-5.14-3.93,2.65,2.65,0,0,0-.92-.49c-.87-.18-1.77-.24-1.31-1.69a56.05,56.05,0,0,0-3.06,5.08c-.94,1.76-2.44,3.27-2.72,5.37l-.62-1.79a53.07,53.07,0,0,1-12.46,13.49c-1-1.83-2-3.74-3.07-5.73a44.78,44.78,0,0,0-1.74-5,26.12,26.12,0,0,0-2.4-4.57c-.57-1.62-1.16-3.17-1.83-4.69-.54-1.2-1.13-2.37-1.77-3.5s-1.3-2.24-2-3.32c-5.9-8.37-12.25-24.9-21.59-25.23l-2.1-.1-2.27.25c-1.87,2-12.41,6.5-13.63,8.75l-35.13,72.65c-.8.18-1.61,10-2.41,10.55a11.2,11.2,0,0,0,.81,2.69M564,149c-1.83-4.26-.13-13.44,1-18.41.19-.86.4-1.71.64-2.58.67-2.46,1.54-5,2.38-7.58C570.73,122.37,584.81,148.09,564,149Z"/><path class="cls-1" d="M575.29,71.49l2.1-.22S572.16,71.32,575.29,71.49Z"/><path class="cls-1" d="M4.19,62.7c6.59,14.65,17.35,34.49,5,83.25s-9.33,39.71-7.49,41.79,6.06,8.95,10.22,11.4S36,214.84,39.24,213.9a5.89,5.89,0,0,0,4-3.45s.1,4.12.43,3.88,3.29-3,3.62-4.83,2.22-.85,1.12,1.79-2.37,4.73-.34,2.19,4.16-6,4.12-5.22a13.12,13.12,0,0,1-2.16,4.45c-.83,1,.45,1.25,1.41-.18s1.79-4.95,9.33-13.57S70.17,185,71,184.74,91,214.29,107.49,219.21s24.87-8.79,26.84-10.76,8.63-4.94,9.07-7.13a2.33,2.33,0,0,0-1.11-2.82L141,197.23l1.59-1.3-1.23,0a13.65,13.65,0,0,1,3.39-1.77,8.83,8.83,0,0,0,3-1.77,20.52,20.52,0,0,1-3.89-.07c-1.74-.25,3.5-.87,4.72-1.49s3.17-2.39,2-2.73-3.89-2.48-3-2,5-.23,4.53-.45c-9.54-4.79-34.19-15.64-55.42-43.41,1.34-3,16-11.79,27.13-16.59S132,102.39,130,90.49s-3.66-15.58-5.58-16.72-5.27-3.14-7-4.35-8.08.48-14.65,2.49-18.56,7.51-23.9,11.45-3,0-4-2.74-4-17.64-7.7-22.91-4.55-9.56-23.93-11.66-23.68-3-29.84-2.39S.14,49.68,1.23,54.74A26.13,26.13,0,0,0,4.19,62.7Z"/><path class="cls-1" d="M243.22,284.4c-3.05,0-11.86-1-36.59-7.49-27.49-7.25-49.37-18.54-58.71-23.36-1.92-1-3.43-1.77-4.13-2.07a15.25,15.25,0,0,1-7-5.52c-.39-.51-.76-1-1.2-1.48a44,44,0,0,0-3.45-3.4,12.48,12.48,0,0,1-1.31-1.28c-1.36-1.64-1.07-2.48,2.53-12.76.94-2.69,1.92-5.47,2.34-6.92.78-2.67,4.92-6.68,23.47-19a4.11,4.11,0,0,1-3.19-2.16,3.79,3.79,0,0,1,.63-3.91,1.19,1.19,0,0,0,.16-.23l0,.1a2.32,2.32,0,0,0,.11,1.87,2,2,0,0,0,1,1l.21-3.41a7.75,7.75,0,0,1-1.23-1.65h0l-.15-.31-1.37-3.1,1.87-.57a4.07,4.07,0,0,1,.41-2.14c-1-.08-1.85-.22-2.22-.28a3.83,3.83,0,0,1-3.08-4,4.16,4.16,0,0,1,.12-.72,3.31,3.31,0,0,1-1.09-2,3.16,3.16,0,0,1,0-.92c-.6-.15-1.27-.27-1.66-.34s-.79-.14-1.1-.21a3.77,3.77,0,0,1-2.48-1.79,4.4,4.4,0,0,1-.35-3.33,43.76,43.76,0,0,1-3.25-8.66A83.41,83.41,0,0,1,139,142.73c-.32-16.91,25.9-20.69,40-22.72,1.66-.24,3.13-.45,4.34-.65,8.37-1.41,13.55-1.9,27.78-2,3.45,0,7.44,0,12.15,0h6.46c4.75,0,14.75,1.84,21.29,3.53a10,10,0,0,1,6.38,5.43c2.88,5.59,2.4,13.7,1.33,16.48a52.82,52.82,0,0,0-.26,7.32c0,10.12-.18,16.4-3.91,18.16-2.09,1-5.13,3.44-7.81,5.59-1.32,1.07-2.57,2.07-3.69,2.89a23.65,23.65,0,0,1-4.8,2.58,10,10,0,0,0-3.26,1.83,21.54,21.54,0,0,0,2.18,2.44c2.28,2.33,5.41,5.52,3.7,9.11-.78,1.65-3.06,6.2-5.48,11s-4.92,9.82-5.48,11a7.29,7.29,0,0,1-3.27,3.06c10,2,29,5.36,32.48,5.7l.53,0c5.32.5,6.29,1.71,10,9a9.52,9.52,0,0,1-.18,9.68,12,12,0,0,1-2.54,2.91c2.9,1.14,4.59,4.07,4.61,8.15,0,2.09-1,9.32-4,11.56a8.65,8.65,0,0,1-.31,2.43,7.51,7.51,0,0,0-.23,1.23c.36,1.94-.56,3.6-2.77,4.86A6,6,0,0,1,262.4,275a2.33,2.33,0,0,1,0,.38,3,3,0,0,1-1.42,2.08,3.56,3.56,0,0,1-1.81,1.26,3.34,3.34,0,0,1,.24,2.73c-.7,2-2.84,2.94-6.76,3h-.24c-.56,0-1.15,0-1.78-.06-1-.07-2.69-.24-4.59-.45l-.63.24a5.74,5.74,0,0,1-2,.29Zm-85.35-86.62.18-3.41h0Z"/><path class="cls-2" d="M223.13,120.27h6.6c4.13,0,13.52,1.62,20.54,3.43s6.88,14.75,5.66,17.93.85,22.2-2.65,23.85-8.56,6.25-12,8.78-7.76,2.8-9.29,5.95,7.76,7.79,6.17,11.13-9.86,19.65-11,22.07-11.39,4.82-6.91,6,34.23,6.55,38.55,7,4.43.12,8.1,7.43-5,11.32-7.05,11.34h0c-2.05,0-1.8,1.39,5,2.46s2.25,14.58.76,14.82-1.49.27-3,.52.13,1.3,1.4,1.4-.31,2.94,0,4.53-2.28,2-2.24,2.5-1,1-2,1.65a1.45,1.45,0,0,1-.82.33h0l-.32,0h0a1.3,1.3,0,0,0-.68.22c-.9.53,2.17,1.22,1.3,1.28-.67,0-.37,1-1.26,1h0a3.51,3.51,0,0,1-1.1-.26,3.8,3.8,0,0,0-1.31-.33h0c-.76,0-.66.69-1.29,1.24-.87.76,1,2.53,2,3.38.9.73-.6,1.47-3.72,1.5h-.2c-.49,0-1,0-1.59-.05-3.52-.24-15.41-1.81-16.59-1.81h0c-.25,0,.05.09,1.1.28,5.76,1.07,9,1.51,9,1.51a3.44,3.44,0,0,1-1,.09h-.11c-2.58,0-10.87-.81-35.82-7.39-33.17-8.74-58-23.4-62.44-25.29s-5-3.83-7.17-6.24-4.23-4-4.68-4.59S137.37,225,138.55,221s25.39-19.29,26.71-20.35-.84-2-4.42-2.33-1.82-1.11-1.36-2.26-1.35-1.24-1.47-1.25h.13c.28,0,.94-.06,1.2-.48s2.41-.68,2.41-.68l-1.15-1a4.69,4.69,0,0,1-1.21-1.47l2-.61s-1.43-.06-1.27-1.09-.26-1.38.45-1.85.65-4-.42-4h-.09a4.54,4.54,0,0,1-.79.06h-.09a22.21,22.21,0,0,1-3.32-.32c-.61-.1-.91-1.25-.16-1.29s3.29-.75,2.57-.75h-.4c-.8,0-.34-.42-1.27-.81a6.55,6.55,0,0,1-1.94-.93c-1.11-.73.43-.61.11-2.13s-4-1.89-5.59-2.24.21-2.91-.36-2.93-6.5-13.51-6.81-29.59,31-18.53,41.83-20.36c8.1-1.37,13-1.86,27.31-2,3.4,0,7.34,0,12,0m0-6c-4.95,0-8.78,0-12,0-14.42.14-19.7.64-28.25,2.08-1.16.2-2.6.4-4.27.64-6.63,1-16.64,2.4-25,5.53-14.74,5.53-17.69,14.05-17.57,20.22a86.76,86.76,0,0,0,3.55,22.41,67.81,67.81,0,0,0,2.47,7c.16.38.34.8.54,1.23a7.08,7.08,0,0,0,.87,4.37,6.69,6.69,0,0,0,4.43,3.21l.74.15a5.91,5.91,0,0,0,.65,1.31,6.9,6.9,0,0,0,2,4.85l-.09,0,2.73,6.2v0a6.47,6.47,0,0,0-.68,6.58,6.12,6.12,0,0,0,.51.91c-16.52,11.15-20,14.78-21,18.17-.4,1.38-1.36,4.12-2.29,6.77-.82,2.34-1.67,4.76-2.28,6.68-1,3.2-2,6.22.26,9a16.44,16.44,0,0,0,1.62,1.6,41.67,41.67,0,0,1,3.22,3.16c.37.42.71.86,1.07,1.32a18.1,18.1,0,0,0,8.23,6.45c.59.25,2.14,1,3.93,2,9.43,4.87,31.51,16.27,59.32,23.6,18.84,5,31.75,7.59,37.35,7.59h.17a8.56,8.56,0,0,0,3-.47c1.64.18,3,.32,4,.38.68.05,1.35.07,2,.07h.26c5.21-.05,8.42-1.73,9.56-5a6.51,6.51,0,0,0,.35-1.71l5.54-2.15-3.62-.5a6.16,6.16,0,0,0,.63-1.32,8.79,8.79,0,0,0,1.17-1.13,7.43,7.43,0,0,0,3.74-7.12c0-.17.08-.39.12-.56a14.7,14.7,0,0,0,.32-1.69,14.15,14.15,0,0,0,2.63-4.9,25.57,25.57,0,0,0,1.43-8.09c0-3.95-1.27-6.76-3.08-8.62.2-.28.39-.56.57-.86a12.59,12.59,0,0,0,.3-12.59c-1.95-3.88-3.14-6.16-4.91-7.84-2.48-2.35-5.12-2.6-7.44-2.82l-.53-.05c-2.72-.26-16.53-2.69-26.73-4.6.61-1.31,3.15-6.37,5.4-10.85,2.42-4.83,4.7-9.38,5.5-11.06,2.45-5.16-1.38-9.51-3.84-12.05a25.61,25.61,0,0,0,5.09-2.78c1.17-.86,2.44-1.88,3.79-3,2.43-1.95,5.44-4.38,7.21-5.21,5.64-2.67,5.63-10.7,5.63-20.87,0-2.34,0-5.5.17-6.55,1.35-3.92,1.57-12.54-1.57-18.63a12.87,12.87,0,0,0-8.3-7c-6.87-1.77-17-3.61-22-3.62Z"/><path class="cls-1" d="M157.27,201.73a5.23,5.23,0,0,1-2.38-1.13l-.68-.55-.28-.83a5.71,5.71,0,0,1,1-5.35l.08-.12,2.17-3.63,2.53,3.08,1.35,1.13-.34,1.07.15.21-.39,6.6Z"/><path class="cls-2" d="M157.6,195.32v0a1.4,1.4,0,0,0,.23,1.19l-.13,2.23a2.33,2.33,0,0,1-.94-.49,3,3,0,0,1,.63-2.66l.2-.29m-1.33-9.57-3.77,6.39a8.68,8.68,0,0,0-1.42,8l.56,1.66,1.36,1.1a8.24,8.24,0,0,0,3.83,1.76l6.48,1,.39-6.54.13-2.23.1-1.58.57-1.76L161.71,191l-5.44-5.21Z"/></g></g></svg>