<svg xmlns="http://www.w3.org/2000/svg" viewBox="0 0 683.7 606.72"><defs><style>.cls-1{fill:#231f20;}</style></defs><title>marks</title><g id="Layer_2" data-name="Layer 2"><g id="Layer_2-2" data-name="Layer 2"><path class="cls-1" d="M517.71,175.46l-.25.21Z"/><path class="cls-1" d="M518.69,174.67l-.8.65Z"/><path class="cls-1" d="M519.7,173.85l-1,.82Z"/><path class="cls-1" d="M517.89,175.32l-.18.14Z"/><path class="cls-1" d="M522.18,171.84l-.26.21Z"/><path class="cls-1" d="M521.92,172.05l-1.9,1.54Z"/><path class="cls-1" d="M520,173.59l-.32.26Z"/><path class="cls-1" d="M516.76,176.24l-.37.3Z"/><path class="cls-1" d="M516.39,176.54Z"/><path class="cls-1" d="M517.46,175.67l-.51.42Z"/><path class="cls-1" d="M520.3,167.82l-2.85,2.23-3.79-3.12,1.89-6.23s-5.22,1.78-6.64,4-5.22-5.34-5.22-5.34l-3.12-4a4.05,4.05,0,0,0,0-3.56c-.95-1.78,3.12-12,3.12-12s-7.62,7.57-9.52,8.9c-.45.32,3.54-7.22,10.07-18.86-.77-2.44-1.23-3.85-1.5-4.64.41.64,1.26,1.95,2.21,3.37l1-1.74c-.27-.62-.42-1.06-.35-1.21.21-.46,1.49-4.32,3.16-3.75,7.49-25.44,29.39-61.31,51.68-84-3.53-5.27-5.81-8.7-6.22-9.39-2.38-4,11.39,0,8.61-4.9-1.74-3.06,2.58-.72,7.57.91,1-1.22,2-2.35,2.86-3.38a20.77,20.77,0,0,1-2.91-1.53c-6.16-4,.95-7.13,0-14.25-.85-6.47,9.33,6.55,11.19,9l.07,0L573.67,0s5,4,16.34,15.57a9.47,9.47,0,0,1,5.3,6.06c32.91,27.65,54.05,64,71.47,103.17,2.68-.19,6.28,1.11,10.5-.68,5.09-2.14-.5,5.76-3.9,10.21l.32.46,10-9.25s-1.8,4-7.31,13.14l4.46,6.44-14.23,25.82-5-12C642.3,193.79,578.5,263,565.91,272.43c-9.63,7.21-2-18.21-2-18.21l6.72-11.29,1.27-4.2L536.71,198c-8-15.07-14.37-22.24-18-28.19M590.57,197c12.57-17.92,26.84-34.18,24.75-37.56,5.85-6.38,10.84-12.16,15.07-17.28a2.74,2.74,0,0,1-.32-.54c-5.47-18.21-25-46.14-42.17-64.15-12.79,21.27-36.82,62.19-19.76,30.07,20.79-39.13-8.48,12.94-12.72,19.27-3.3,4.92-6.56,9.72-9.71,14.26C553.22,155.32,544,153.76,590.57,197Z"/><path class="cls-1" d="M517,176.09l-.19.15A1.57,1.57,0,0,1,517,176.09Z"/><path class="cls-1" d="M502.74,125.18l-.25-.39S502.15,123.45,502.74,125.18Z"/><path class="cls-1" d="M605.85,147.45l.08.06Z"/><path class="cls-1" d="M605.59,147.23l.22.18Z"/><path class="cls-1" d="M605.31,147l.28.23Z"/><path class="cls-1" d="M605.81,147.41l0,0Z"/><path class="cls-1" d="M604.63,146.45l.07.06Z"/><path class="cls-1" d="M604.7,146.51l.52.42Z"/><path class="cls-1" d="M605.22,146.93l.09.07Z"/><path class="cls-1" d="M606.12,147.66l.1.08Z"/><path class="cls-1" d="M606.22,147.74Z"/><path class="cls-1" d="M605.93,147.51l.14.11Z"/><path class="cls-1" d="M585.84,153c-3.38-4.82-7.21-9.19-6.65-10.1-1.57-1.71-2.92-3.27-4.05-4.64a.55.55,0,0,0,.08-.15c1.47-4.9,6.72-12.41,11.34-17.25,3.44,5.72,9.9,16.72,5.31,8.09-5.59-10.52,2.28,3.48,3.42,5.18.89,1.32,1.77,2.61,2.61,3.83C595.89,141.8,598.37,141.38,585.84,153Z"/><path class="cls-1" d="M606.07,147.62l0,0Z"/><path class="cls-1" d="M610,133.63l.07-.11S610.13,133.15,610,133.63Z"/><path class="cls-1" d="M396.65,183.93l.22.19Z"/><path class="cls-1" d="M395.8,183.24l.7.57Z"/><path class="cls-1" d="M394.91,182.53l.89.71Z"/><path class="cls-1" d="M396.5,183.81l.15.12Z"/><path class="cls-1" d="M392.75,180.77l.23.18Z"/><path class="cls-1" d="M393,181l1.65,1.35Z"/><path class="cls-1" d="M394.63,182.3a3.11,3.11,0,0,1,.28.23Z"/><path class="cls-1" d="M397.48,184.61l.33.27Z"/><path class="cls-1" d="M397.81,184.88Z"/><path class="cls-1" d="M396.87,184.12l.45.36Z"/><path class="cls-1" d="M394.39,177.27l2.49,1.94,3.31-2.72-1.66-5.44s4.56,1.55,5.8,3.49,4.56-4.66,4.56-4.66l2.73-3.5a3.54,3.54,0,0,1,0-3.11c.82-1.55-2.73-10.49-2.73-10.49s6.66,6.6,8.31,7.77c.4.28-3.09-6.3-8.79-16.47.67-2.13,1.08-3.37,1.31-4.05-.36.55-1.1,1.7-1.93,2.95l-.86-1.53c.24-.54.37-.93.31-1.06-.18-.4-1.3-3.77-2.76-3.27-6.54-22.21-25.66-53.54-45.13-73.33,3.09-4.59,5.08-7.59,5.44-8.19,2.07-3.5-10,0-7.52-4.28,1.51-2.67-2.25-.63-6.61.8-.87-1.07-1.7-2.06-2.49-3a17.09,17.09,0,0,0,2.53-1.34c5.38-3.49-.83-6.22,0-12.43.75-5.66-8.14,5.71-9.76,7.83l-.07,0,6.92-12.48s-4.38,3.49-14.27,13.6a8.25,8.25,0,0,0-4.63,5.29c-28.73,24.14-47.2,55.9-62.4,90.09-2.35-.17-5.49,1-9.18-.59-4.44-1.88.44,5,3.41,8.9l-.28.41-8.74-8.08s1.58,3.45,6.39,11.48l-3.9,5.62L266.62,180,271,169.48c16.83,30.46,72.54,90.91,83.53,99.13a4.59,4.59,0,0,0,2.44,1.12c1.61,0-9-14-9-14h9.13l-9.13-9,2.44-3.87-1.11-3.67,30.73-35.56c7-13.17,12.55-19.43,15.72-24.62m-62,7c-7.45-10.63-15.93-20.28-14.68-22.29-3.47-3.79-6.44-7.22-8.95-10.26a1.5,1.5,0,0,0,.19-.32c3.25-10.81,14.82-27.38,25-38.07,7.59,12.62,21.85,36.91,11.73,17.84-12.34-23.22,5,7.69,7.55,11.44,1.95,2.92,3.89,5.77,5.76,8.46C355.9,161.28,361.39,160.36,333.73,186Z"/><path class="cls-1" d="M397.32,184.48l.16.13Z"/><path class="cls-1" d="M409.72,140l.22-.34S410.24,138.52,409.72,140Z"/><path class="cls-1" d="M63.27,257.32l-.28.52S62.62,259.31,63.27,257.32Z"/><path class="cls-1" d="M170.7,114.39l-5.4,3.52c-10.49-14.8-41.66-56.48-61-76.22.68-.91,1.12-1.51,1.26-1.71,1-1.53-2.06-1.24-4.37-1.38-.68-.65-1.34-1.26-2-1.84.49-.83.09-1-.84-.76C97.16,34.91,96,34,95,33.24c1.74-2.15-2-4.15-1.49-8.09.66-4.61-8.44,6.12-8.44,6.12L91,21.72s-4.53,3.21-14.86,12.8L28.74,95.34A46.54,46.54,0,0,0,26.31,91c-2.84-3.61-1.91,14.92-5.41,10.67-1.61-2-1.4.76-1,5l-3.48,4.48a1.24,1.24,0,0,1,0-.16c-2.2-8.58-5.92.34-11.52-1.79s5.63,16.2,5.63,16.2L0,112.88s2.92,8.67,12.43,29c0,0,33.13,51.23,59.18,92.44a141.29,141.29,0,0,0-5.49,13.65c-1.61,5.42-2.44,8.11-2.85,9.38,1.36-2.54,7.38-13.66,6.67-11.13-.8,2.85-3.87,8.86-3.58,9.27s2.32,4.9,4.72.33,4-15.77,6.11-12A9,9,0,0,1,77,253c-1.09,1.85,2.21-1.05,4.33-3.33,9.36,14.95,16.77,27.06,19.71,32.47,6.16,11.35.34-25.52.34-25.52L95.4,243l-.21-.91c1-2.58,1.9-5.15,2.6-6.5,1.66-3.21-.25,6-.66,7.84-.33,1.44,46.55-81.29,65.64-115l.46-.48-.1-.17,3.41-6c1,.7,1.84,1.27,2.3,1.52.18.1-.43-.87-1.66-2.66C169.42,116.67,170.7,114.39,170.7,114.39ZM17.9,124.59l.58.89C18.17,125.8,18,125.43,17.9,124.59Zm67.37,49.14c-5.53-10-16-31.13-15.12-34.39C67.8,136,65.78,132.84,64,130a25.61,25.61,0,0,0,3.59-4.3c1.52-2.39,9.16-12.59,16.13-21.81,4.72,5.9,19.41,25.21,10.75,12.72-9.41-13.58,3.83,4.49,5.75,6.68,2.13,2.44,4.23,4.8,6.21,6.93a3.29,3.29,0,0,0-.89.87c-3.46,4.14-1.8,2.91.91.31a4.1,4.1,0,0,0,.21-.92l.36.38-.57.54c-1.6,5.17-11.92,25.37-14,28.9C90.06,164.55,87.57,169.2,85.27,173.73Zm76.53-53.54c-.73-1.63-1.44-3-1.44-3l2.81,2.1Z"/><path class="cls-1" d="M354.42,482.55l.07.06Z"/><path class="cls-1" d="M354.15,482.33l.22.18Z"/><path class="cls-1" d="M353.88,482.11l.27.22Z"/><path class="cls-1" d="M354.37,482.51l.05,0Z"/><path class="cls-1" d="M353.19,481.55l.08.06Z"/><path class="cls-1" d="M353.27,481.61l.52.42Z"/><path class="cls-1" d="M353.79,482l.09.08Z"/><path class="cls-1" d="M354.68,482.76l.11.09Z"/><path class="cls-1" d="M354.79,482.85Z"/><path class="cls-1" d="M354.49,482.61l.14.11Z"/><path class="cls-1" d="M334.41,488.1c-3.38-4.82-7.22-9.19-6.65-10.1-1.58-1.71-2.92-3.27-4.06-4.64a1.19,1.19,0,0,0,.09-.15c1.47-4.89,6.71-12.4,11.34-17.24,3.44,5.71,9.9,16.72,5.31,8.08-5.59-10.52,2.28,3.48,3.42,5.18.89,1.32,1.76,2.61,2.61,3.83C344.45,476.9,346.94,476.49,334.41,488.1Z"/><path class="cls-1" d="M354.63,482.72l.05,0Z"/><path class="cls-1" d="M358.54,468.73l.07-.11S358.7,468.25,358.54,468.73Z"/><path class="cls-1" d="M103.49,469.69l.07.05Z"/><path class="cls-1" d="M103.22,469.47l.23.18Z"/><path class="cls-1" d="M103,469.24l.27.23Z"/><path class="cls-1" d="M103.45,469.65l0,0Z"/><path class="cls-1" d="M102.26,468.69l.08.06Z"/><path class="cls-1" d="M102.34,468.75l.52.42Z"/><path class="cls-1" d="M102.86,469.17l.09.07Z"/><path class="cls-1" d="M103.75,469.9l.11.08Z"/><path class="cls-1" d="M103.86,470Z"/><path class="cls-1" d="M103.56,469.74l.14.12Z"/><path class="cls-1" d="M83.48,475.24c-3.38-4.82-7.22-9.19-6.65-10.1-1.58-1.72-2.92-3.27-4.06-4.65a1.1,1.1,0,0,0,.09-.14c1.47-4.9,6.72-12.41,11.34-17.25,3.44,5.72,9.9,16.72,5.31,8.09-5.59-10.52,2.28,3.48,3.42,5.18.89,1.32,1.76,2.61,2.61,3.83C93.52,464,96,463.62,83.48,475.24Z"/><path class="cls-1" d="M103.7,469.86l0,0Z"/><path class="cls-1" d="M107.61,455.86l.07-.1S107.77,455.39,107.61,455.86Z"/><path class="cls-1" d="M396.65,506.32l.22.18Z"/><path class="cls-1" d="M395.8,505.63l.7.56Z"/><path class="cls-1" d="M394.91,504.91l.89.72Z"/><path class="cls-1" d="M396.5,506.19l.15.13Z"/><path class="cls-1" d="M392.75,503.15l.23.19Z"/><path class="cls-1" d="M393,503.34l1.65,1.34Z"/><path class="cls-1" d="M394.63,504.68l.28.23Z"/><path class="cls-1" d="M397.48,507l.33.27Z"/><path class="cls-1" d="M397.81,507.26Z"/><path class="cls-1" d="M396.87,506.5l.45.36Z"/><path class="cls-1" d="M394.39,499.65l2.49,1.94,3.31-2.72-1.66-5.44s4.56,1.55,5.8,3.49,4.56-4.66,4.56-4.66l2.73-3.5a3.54,3.54,0,0,1,0-3.11c.82-1.55-2.73-10.49-2.73-10.49s6.66,6.61,8.31,7.77c.4.28-3.09-6.3-8.79-16.47.67-2.13,1.08-3.36,1.31-4-.36.56-1.1,1.7-1.93,2.95l-.86-1.53c.24-.54.37-.93.31-1.06-.18-.4-1.3-3.77-2.76-3.27-6.54-22.21-25.66-53.54-45.13-73.33,3.09-4.59,5.08-7.59,5.44-8.19,2.07-3.5-10,0-7.52-4.28,1.51-2.67-2.25-.63-6.61.8-.87-1.07-1.7-2.06-2.49-3a18,18,0,0,0,2.53-1.33c5.38-3.5-.83-6.22,0-12.44.75-5.66-8.14,5.71-9.76,7.83l-.07,0,6.92-12.48s-4.38,3.49-14.27,13.6a8.28,8.28,0,0,0-4.63,5.29c-28.73,24.14-47.2,55.9-62.4,90.09-2.35-.17-5.49,1-9.18-.59-4.44-1.88.44,5,3.41,8.91l-.28.4-8.74-8.08s1.58,3.45,6.39,11.48l-3.9,5.62,12.43,22.55L271,491.86c16.83,30.46,72.54,90.92,83.53,99.13a4.7,4.7,0,0,0,2.44,1.13c1.61,0-9-14-9-14h9.13l-9.13-9,2.44-3.87-1.11-3.67L380.06,526c7-13.17,12.55-19.43,15.72-24.62m-62,7c-7.45-10.63-15.93-20.28-14.68-22.29-3.47-3.79-6.44-7.22-8.95-10.26a1.29,1.29,0,0,0,.19-.32c3.25-10.81,14.82-27.38,25-38.07,7.59,12.63,21.85,36.91,11.73,17.85-12.34-23.23,5,7.68,7.55,11.43,1.95,2.92,3.89,5.77,5.76,8.47C355.9,483.66,361.39,482.74,333.73,508.38Z"/><path class="cls-1" d="M397.32,506.86l.16.13Z"/><path class="cls-1" d="M409.72,462.41l.22-.34S410.24,460.9,409.72,462.41Z"/><path class="cls-1" d="M63.27,579.7l-.28.52S62.62,581.69,63.27,579.7Z"/><path class="cls-1" d="M170.7,436.77l-5.4,3.52c-10.49-14.8-41.66-56.48-61-76.22.68-.91,1.12-1.51,1.26-1.71,1-1.53-2.06-1.24-4.37-1.38-.68-.65-1.34-1.26-2-1.84.49-.83.09-1-.84-.76-1.24-1.08-2.39-2-3.43-2.76,1.74-2.15-2-4.15-1.49-8.09.66-4.61-8.44,6.12-8.44,6.12L91,344.1s-4.53,3.21-14.86,12.8L28.74,417.72a46.54,46.54,0,0,0-2.43-4.38c-2.84-3.61-1.91,14.92-5.41,10.67-1.61-2-1.4.76-1,5l-3.48,4.48a.94.94,0,0,1,0-.16c-2.2-8.58-5.92.34-11.52-1.79s5.63,16.2,5.63,16.2L0,435.26s2.92,8.68,12.43,29c0,0,33.13,51.23,59.18,92.44a141.29,141.29,0,0,0-5.49,13.65c-1.61,5.42-2.44,8.11-2.85,9.38,1.36-2.54,7.38-13.66,6.67-11.13-.8,2.85-3.87,8.86-3.58,9.27s2.32,4.9,4.72.34,4-15.78,6.11-12a9,9,0,0,1-.21,9.28c-1.09,1.85,2.21-1,4.33-3.33C90.67,587,98.08,599.14,101,604.55c6.16,11.35.34-25.51.34-25.51l-6-13.66-.21-.91c1-2.58,1.9-5.15,2.6-6.5,1.66-3.21-.25,6-.66,7.84-.33,1.44,46.55-81.29,65.64-115l.46-.48-.1-.17,3.41-6c1,.7,1.84,1.27,2.3,1.52.18.1-.43-.87-1.66-2.66C169.42,439.05,170.7,436.77,170.7,436.77ZM17.9,447l.58.89C18.17,448.18,18,447.81,17.9,447Zm67.37,49.14c-5.53-10-16-31.13-15.12-34.39-2.35-3.38-4.37-6.5-6.12-9.31a25.61,25.61,0,0,0,3.59-4.3c1.52-2.39,9.16-12.58,16.13-21.81,4.72,5.9,19.41,25.21,10.75,12.72-9.41-13.57,3.83,4.49,5.75,6.68,2.13,2.44,4.23,4.8,6.21,6.94a3.2,3.2,0,0,0-.89.86c-3.46,4.14-1.8,2.91.91.31a4,4,0,0,0,.21-.92l.36.38-.57.54c-1.6,5.18-11.92,25.37-14,28.9C90.06,486.93,87.57,491.58,85.27,496.11Zm76.53-53.54c-.73-1.63-1.44-3-1.44-3s1.25.95,2.81,2.1Z"/></g></g></svg>