<svg xmlns="http://www.w3.org/2000/svg" viewBox="0 0 683.32 245.83"><defs><style>.cls-1,.cls-2{fill:#231f20;}.cls-2{stroke:#231f20;stroke-miterlimit:10;}.cls-3{fill:#fff;}</style></defs><title>draft</title><g id="Layer_2" data-name="Layer 2"><g id="Layer_2-2" data-name="Layer 2"><path class="cls-1" d="M346.92,66.54c2.85-1,6-4.18,9.91-4.23a12.11,12.11,0,0,1,6.64,3.32A15.21,15.21,0,0,1,367,71.82c-.07,3.59,1.92,5.92,4.06,8,1.07,1.06,2.18,2.06,3.08,3.13,6.62,6.65-1.48,14.15-10.14,13-1.86.16-3.75.26-5.53.4a43,43,0,0,0-4.88.6c-1.69,0-3.37,0-5.06-.15a39.55,39.55,0,0,1-5-.68c-13-1-26.6-7.67-38.3-7.89a21.89,21.89,0,0,0-11,2.39,19.21,19.21,0,0,0-7.86,8.9,22.69,22.69,0,0,0-1.45,11.19c1.17,11.91,9.31,25.31,16.54,34.38,1,1.06,2,2.07,3.13,3a29.9,29.9,0,0,0,11.5,6.54c4.88,1.42,11.49-1,19.61-7.25,1.3-1,2.59-2.27,3.95-3.46-.51,1.46.13,1.21,1.2.25,1.4-1.26,2.56-2.08,3.25-1.35.18.2,1.05-.41,1.54-.51a14.88,14.88,0,0,1,1.81-.18l-.19.57,5.13-4-.79,1.47,1.8-.83-1,1.58.22.19,2.33-2.58,5.09-.66-.74,1.62.34.11,2.56-3.21,4.06-1.62c-1.06,1.82-2.67,3.76-1.85,4.7.06.07-.34.67-.56,1-1.29,2-2.52,4.06-3.9,6.07a28.66,28.66,0,0,1-3.26,4.24c-3.58,3.51-7.28,6.75-10.86,10.25-2.4,2.35-4.6,3.89-6.64,4.44-1.52.41-2.8.33-4.29.69s-3.19,1.05-4.74,1.47c-.43.12-.63-.24-1-.34s-.68-.46-1.17-.22c-3.29,1.63-5.55,1.32-8.13,1.62-3.56.41-6.81.27-10.92,1.69a15.38,15.38,0,0,1-3.16.34c-1.06.17-2.21.5-3.32.76l-.32.56,3.78.22-.28.6a5.61,5.61,0,0,1-1.59.58,25,25,0,0,1-3.74-.57,64.55,64.55,0,0,1-7.61-2,36.43,36.43,0,0,1-7.4-3.59,39.34,39.34,0,0,1-6.78-5.68,86.13,86.13,0,0,1-8.6-10.1,88.56,88.56,0,0,1-6.32-11.39,48,48,0,0,1-2.18-6.51c-.54-1.7-1-3.44-1.59-5.13a1.45,1.45,0,0,0-.53-.69c-.26-.21-1,0,0-1.19.1-.13.09-.56,0-.58-1.77-.22-1-2.64-.8-4.53a6.84,6.84,0,0,0-.32-2.3c-.22-.93-.52-1.79-.78-2.68l.5-.46.59,2a10.94,10.94,0,0,0,.22-3.95c0-1.29-5,1.2-3.28-1.19-3.17-25.64,18-52.88,48.72-48.39,2,0,3.93-.07,5.85,0s3.8.11,5.63.27A38.75,38.75,0,0,1,325.75,67a36.88,36.88,0,0,0,4.36,1.74c4,2.95,8.33,1.47,13.66-.24"/><path class="cls-1" d="M381.25,153.46c-3.38,3.74-6.53,7.67-10.07,11.27-8.45,8.59-16.88,17.21-29.93,21.59a28,28,0,0,1-5.36,1.23c-1.42.18-3,.35-5.57-1.7-2-1.62-3.9-4.77-3.53-6.34.65-2.74,1.24-5.58,2.69-7.7,2.39-3.5,5.72-6.24,8.18-9.69,3.46-4.87,6.49-10.07,9.67-15.17,3.38-5.42,6.88-10.75,10-16.37a48.26,48.26,0,0,0,4.3-10.53,191.92,191.92,0,0,0,5.31-22.5c.86-5.6.43-12.05.32-18.27a15.08,15.08,0,0,0-1.7-5.07c-1.34-2.89-3.59-5-7.29-6.66a55.53,55.53,0,0,0-15.1-4.86c-10-1.32-17.44.5-24.83,2.32A83.7,83.7,0,0,0,294.8,75.1a97.71,97.71,0,0,0-14.61,10.14c-6.53,5.8-12.12,12.44-15,21.18-2.34,7.07,1,16.68,10.11,28.5,1.45,1.88,3.31,3.77,5.06,5.74-2.18-.75-1.83.19-.43,1.74,1.85,2,3,3.72,1.89,4.72-.3.27.57,1.53.7,2.23a20.7,20.7,0,0,1,.19,2.62l-.86-.28,5.85,7.46L285.52,158l1.17,2.62-2.34-1.47-.29.31,3.79,3.39.78,7.39-2.41-1.09-.18.49,4.72,3.73,2.21,5.93c-2.65-1.56-5.48-3.93-6.93-2.74-.11.09-1-.49-1.51-.82-3-1.88-6-3.68-9-5.69a41.51,41.51,0,0,1-6.25-4.75c-5.13-5.21-9.86-10.59-15-15.81-3.44-3.49-5.67-6.69-6.41-9.65-.55-2.2-.38-4.06-.86-6.23s-1.45-4.64-2-6.88c-.16-.63.39-.91.55-1.4s.72-1,.38-1.7c-2.32-4.78-1.76-8.06-2.1-11.81-.48-5.17-.13-9.88-2.09-15.86-.56-1.71-.16-3-.38-4.58s-.67-3.21-1-4.82l-.84-.47L239,91.61l-.89-.41a7.77,7.77,0,0,1-.82-2.31,35.51,35.51,0,0,1,1-5.42,92.71,92.71,0,0,1,3.29-11,53.67,53.67,0,0,1,5.71-10.72,59.81,59.81,0,0,1,8.83-9.81,133.35,133.35,0,0,1,15.56-12.42c5.32-3.49,11.39-6.29,17.42-9.11,3-1.38,6.56-2.13,9.9-3.13,2.58-.78,5.22-1.49,7.8-2.27a2.26,2.26,0,0,0,1.06-.77c.32-.38,0-1.51,1.8-.06.19.15.84.14.87-.06.4-2.57,4-1.37,6.85-1.13a10.76,10.76,0,0,0,3.48-.45c1.41-.31,2.72-.74,4.07-1.12l.67.72-3.09.85c4.67,1.48,6.61-1.72,13.65,3.37l.63-1.36,4.26,1.13.74,1.82c.59.1,1.18.18,1.78.3,4.38.85,8.61,1.41,13.2,2.65a37,37,0,0,1,10.57,4.87c3,1.95,6.17,3.07,9,5.16a68.28,68.28,0,0,1,9.42,8.4A55,55,0,0,1,397.35,68.5a60.33,60.33,0,0,1,3.91,21c0,11.45-.66,22.46-4.4,31.4-4,9.45-8.79,18.26-13.23,27.36"/><path class="cls-1" d="M359.37,164c.13,3,2.24,6.94,1.12,10.72a12.11,12.11,0,0,1-5.13,5.37,15.21,15.21,0,0,1-7,1.6c-3.41-1.12-6.23.09-8.88,1.51-1.33.71-2.61,1.47-3.9,2-8.31,4.37-13.09-5.58-9.43-13.52.4-1.82.85-3.66,1.24-5.41a43,43,0,0,0,.87-4.84c.49-1.62,1-3.22,1.63-4.79a39.55,39.55,0,0,1,2.14-4.62c4.77-12.13,15.17-23.16,18.82-34.28a21.89,21.89,0,0,0,.95-11.19,19.21,19.21,0,0,0-6.19-10.14,22.69,22.69,0,0,0-10.26-4.69c-11.72-2.39-26.93,1.45-37.72,5.68-1.31.65-2.58,1.34-3.82,2.1a29.9,29.9,0,0,0-9.64,9.07c-2.79,4.24-2.45,11.27,1.15,20.88.57,1.53,1.4,3.14,2.15,4.79-1.25-.92-1.2-.23-.59,1.08.8,1.71,1.23,3.06.33,3.5-.24.12.08,1.13,0,1.62a14.88,14.88,0,0,1-.36,1.78l-.49-.35,2.33,6.09-1.17-1.18.26,2-1.21-1.43-.25.15,1.78,3-.87,5.06L286,154.3l-.21.29,2.31,3.39c.12,1.5.23,2.87.35,4.36-1.43-1.55-2.81-3.66-3.95-3.15-.08,0-.54-.52-.81-.83-1.56-1.83-3.13-3.61-4.65-5.51a28.66,28.66,0,0,1-3.09-4.36c-2.3-4.45-4.31-8.94-6.6-13.4-1.54-3-2.36-5.54-2.29-7.65.06-1.57.51-2.77.61-4.31s-.06-3.36,0-5c0-.45.41-.53.61-.82s.64-.51.55-1.06c-.59-3.62.38-5.69.85-8.25.65-3.52,1.75-6.58,1.6-10.94a15.38,15.38,0,0,1,.61-3.12c.15-1.07.17-2.26.25-3.4l-.44-.47-1.33,3.55-.49-.45a5.61,5.61,0,0,1-.09-1.69,25,25,0,0,1,1.65-3.4,64.55,64.55,0,0,1,4.13-6.69,36.43,36.43,0,0,1,5.61-6,39.34,39.34,0,0,1,7.42-4.81,86.13,86.13,0,0,1,12.18-5.24,88.56,88.56,0,0,1,12.75-2.68,48,48,0,0,1,6.87-.17c1.78,0,3.59,0,5.37,0a1.45,1.45,0,0,0,.81-.31c.28-.19.28-1,1.15.31.09.14.51.25.56.13.73-1.63,2.81-.13,4.56.57a6.84,6.84,0,0,0,2.29.38c1,.06,1.86,0,2.79,0l.29.61-2.12,0a10.94,10.94,0,0,0,3.71,1.37c1.23.39.33-5.16,2.1-2.78,25.44,4.52,45.23,32.8,31.9,60.81-.54,1.9-1.09,3.78-1.68,5.6s-1.22,3.6-1.92,5.3a38.75,38.75,0,0,1-5,9.11,36.88,36.88,0,0,0-2.95,3.65c-4,3-3.86,7.52-3.79,13.12"/><path class="cls-2" d="M313.65,61.49c16.3.35,47,13.17,50.2,28.56,0,0-2.63-32.63-20.94-35.94S313.65,61.49,313.65,61.49Z"/><path class="cls-2" d="M306.93,61.71c-13.77,4.44-36.09,20.41-34.15,30.84,0,0-7.58-21.07,7-27.88S306.93,61.71,306.93,61.71Z"/><path class="cls-1" d="M5.4,19.1c6.44,14.71,17,34.66,4.2,83.3S-.13,142,1.7,144.11s6,9,10.11,11.49,23.92,15.94,27.16,15A5.89,5.89,0,0,0,43,167.23s.05,4.12.39,3.89,3.32-3,3.67-4.8,2.22-.83,1.1,1.8-2.42,4.7-.36,2.19,4.22-6,4.17-5.19a13.06,13.06,0,0,1-2.2,4.43c-.84,1,.43,1.26,1.41-.16s1.85-4.93,9.47-13.48S70.18,142.08,71,141.8s19.65,29.74,36.11,34.82,25-8.54,26.94-10.5,8.69-4.85,9.14-7-1.08-2.83-1.08-2.83L140.88,155l1.6-1.29-1.22,0a13.45,13.45,0,0,1,3.4-1.73,8.93,8.93,0,0,0,3-1.74,20.66,20.66,0,0,1-3.89-.11c-1.73-.27,3.51-.84,4.74-1.45s3.19-2.35,2-2.71-3.87-2.51-3-2,5-.19,4.53-.41c-9.49-4.88-34-16-55-44,1.37-3,16.09-11.63,27.3-16.32s8.42-23.18,6.48-35.1-3.51-15.61-5.42-16.78-5.24-3.19-7-4.42-8.09.41-14.67,2.35-18.64,7.33-24,11.21-3-.06-3.94-2.78S72,20,68.42,14.73,64,5.13,44.6,2.84,21-.4,14.79.15,1.49,6,2.52,11.11A26,26,0,0,0,5.4,19.1Z"/><path class="cls-1" d="M251.63,240.83c-.69,0-1.42,0-2.18-.09-1-.07-2.46-.24-4.18-.45l-.17.06a7.57,7.57,0,0,1-2.73.4c-3.78,0-13.29-1.37-37.18-7.92-27.63-7.58-49.53-19.15-58.88-24.1-1.8-1-3.35-1.77-4-2a17.29,17.29,0,0,1-7.77-6.22c-.37-.48-.71-.94-1.1-1.38a42.36,42.36,0,0,0-3.26-3.28,14.75,14.75,0,0,1-1.5-1.5c-2.05-2.53-1.55-3.91,2.33-14.67,1-2.66,2-5.4,2.38-6.81,1-3.15,4.58-6.8,21.63-18a5.34,5.34,0,0,1-1.05-1.55,5.62,5.62,0,0,1,.88-5.91l.1-.13a2.53,2.53,0,0,0-.22.42,4.35,4.35,0,0,0,.35,3.88,3.67,3.67,0,0,0,2.31,1.74l.12-.08.2-2.81-.45-.39a9.44,9.44,0,0,1-2.54-3.32l-2.22-5.19.9-.26a5.91,5.91,0,0,1-3.12-5.57,5.26,5.26,0,0,1-.85-1.89l-.13,0-1.18-.24a5.75,5.75,0,0,1-3.75-2.78,6.11,6.11,0,0,1-.68-3.94,49.47,49.47,0,0,1-3-8.52,85.56,85.56,0,0,1-3.29-22.18c-.18-18.68,27.22-22.35,41.94-24.33,1.64-.22,3.1-.42,4.3-.61,8.5-1.35,13.75-1.79,28.1-1.79,4.54,0,10.12,0,18.64.14,5,.06,15,2,21.75,3.81a12,12,0,0,1,7.6,6.53c2.87,5.7,2.69,14.18,1.31,17.94a65.35,65.35,0,0,0-.26,6.79c-.11,11.22-.41,17.68-5.26,19.92-1.88.87-5,3.31-7.46,5.27-1.35,1.06-2.62,2.07-3.79,2.91a25.73,25.73,0,0,1-5.22,2.75l-1,.44.57.59c2.36,2.46,6.32,6.58,4,11.41-.81,1.66-3.14,6.19-5.6,11-2.35,4.57-5,9.74-5.56,10.91a6.44,6.44,0,0,1-.62,1c10.32,2.06,25.29,4.85,28.14,5.16l.53.06c6.51.68,7.84,2.84,11.46,10.22a11.62,11.62,0,0,1-.38,11.62,12.75,12.75,0,0,1-1.08,1.48c2,1.7,3.37,4.46,3.34,8.55,0,.11-.41,8.74-4.13,12.47a13.79,13.79,0,0,1-.36,1.93c-.05.22-.13.53-.17.73.19,1.69-.16,4.36-3.49,6.39a7.61,7.61,0,0,1-1.34,1.26,5,5,0,0,1-1.78,2.65l1.61.24-2.55,1a5.32,5.32,0,0,1-.31,2.07C258.78,240.83,253.4,240.83,251.63,240.83Z"/><path class="cls-3" d="M211.78,74.36c4.92,0,10.94.05,18.58.14,4.13,0,13.51,1.76,20.51,3.64s6.74,14.81,5.48,18,.63,22.2-2.89,23.82-8.62,6.17-12.08,8.66-7.78,2.72-9.34,5.86,7.68,7.86,6.06,11.2-10.05,19.55-11.19,22-11.44,4.72-7,6,34.16,6.89,38.48,7.35,4.43.16,8,7.51-5.09,11.27-7.16,11.27h0c-2.05,0-1.82,1.37,5,2.5s2.1,14.61.61,14.84-1.49.25-3,.49.12,1.3,1.39,1.41-.34,2.93-.06,4.53-2.3,2-2.26,2.47-1,1-2,1.63a1.4,1.4,0,0,1-.82.32l-.34,0a1.34,1.34,0,0,0-.69.21c-.91.51,2.16,1.24,1.29,1.28-.67,0-.38,1-1.27,1a3.21,3.21,0,0,1-1.11-.27,3.93,3.93,0,0,0-1.32-.34c-.76,0-.67.68-1.3,1.23-.88.76,1,2.54,2,3.4.89.73-.61,1.47-3.73,1.47-.55,0-1.15,0-1.79-.07-3.52-.27-15.47-2-16.58-2-.25,0,0,.08,1.1.29,5.75,1.12,9,1.6,9,1.6a3.38,3.38,0,0,1-1,.08c-2.44,0-10.59-.82-35.85-7.74-33.08-9.07-57.75-24-62.19-25.91s-5-3.88-7.11-6.31-4.2-4.08-4.64-4.63,4.39-12.84,5.61-16.88,25.58-19,26.9-20.08-.82-2-4.39-2.37-1.81-1.13-1.34-2.27-1.34-1.26-1.46-1.26H158a1.48,1.48,0,0,0,1.21-.47c.34-.54,2.41-.65,2.41-.65l-1.14-1a4.6,4.6,0,0,1-1.19-1.49l2-.58s-1.43-.07-1.26-1.1-.24-1.38.47-1.85.69-4-.38-4h-.08a5.15,5.15,0,0,1-.8.05,22.92,22.92,0,0,1-3.41-.35c-.61-.11-.89-1.26-.14-1.3s3.32-.73,2.56-.73h-.36c-.84,0-.35-.42-1.29-.83a6.59,6.59,0,0,1-1.93-.95c-1.1-.74.44-.61.13-2.13s-4-1.93-5.57-2.29.24-2.91-.33-2.93-6.36-13.58-6.52-29.66,31.13-18.22,42-19.95c8.11-1.28,13-1.73,27.32-1.73m-53.87,73.93h0m53.87-83.93c-14.69,0-20.1.46-28.89,1.86-1.12.18-2.54.37-4.19.59-6.81.91-17.09,2.29-25.88,5.49-17,6.18-20.46,16.37-20.39,23.84a90.63,90.63,0,0,0,3.48,23.5,71.5,71.5,0,0,0,2.54,7.48l.17.41a10.82,10.82,0,0,0,1.4,5.66,10.63,10.63,0,0,0,5.4,4.7,10.84,10.84,0,0,0,2.21,4.94l1.75,4.07a10.17,10.17,0,0,0-.69,6.13c-15.24,10.22-18.76,14-20.07,18.36-.39,1.28-1.35,4-2.29,6.55-.85,2.35-1.73,4.79-2.38,6.74-1.17,3.5-2.77,8.28.87,12.77a18.76,18.76,0,0,0,2,2,38.11,38.11,0,0,1,2.89,2.9c.27.31.55.68.87,1.1a22.2,22.2,0,0,0,9.76,7.78c.48.21,2.16,1.1,3.64,1.88,9.5,5,31.74,16.78,59.9,24.5,19.61,5.37,32.56,8.1,38.5,8.1a13.73,13.73,0,0,0,3.37-.37c1.34.16,2.49.28,3.33.34s1.74.1,2.56.1c8.81,0,12.14-4.1,13.38-7.55l0-.08,18-6.77-11.56-1.71a11.18,11.18,0,0,0,1.74-6.26h0c.06-.25.13-.54.2-.87a19.35,19.35,0,0,0,2.69-5.29,29.72,29.72,0,0,0,1.74-9.39,17.06,17.06,0,0,0-2.18-8.92,16.76,16.76,0,0,0-.21-15c-2-4.18-3.41-6.85-5.64-9-3.45-3.33-7.26-3.73-9.78-4l-.51-.05c-2.14-.23-12.08-2.05-21.16-3.8l3.11-6.06c2.48-4.82,4.81-9.37,5.65-11.08,2.41-4.94,1-9.27-1.1-12.49.41-.26.83-.53,1.24-.83,1.25-.9,2.57-1.94,4-3a53.9,53.9,0,0,1,6.46-4.65c8-3.67,8.06-13.28,8.16-24.41,0-2,0-4.6.15-5.72,1.53-4.9,1.76-14.35-1.74-21.3a17.07,17.07,0,0,0-10.76-9.12c-7-1.88-17.43-3.91-23-4-8.55-.1-14.14-.14-18.7-.14Z"/><path class="cls-1" d="M449.5,216.51c-8.08,3.8-8.75,4-9,4.12a8,8,0,0,1-2.64.47c-3.22,0-6.73-2.37-6.81-7.57a23.91,23.91,0,0,0-.35-2.94l-.08-.53a6.17,6.17,0,0,1-1-.94,6,6,0,0,1-1.4-5.07c-2.55-1.71-2.95-4.48-3.09-7.22a39.93,39.93,0,0,1,.11-5.45c.12-1.8.29-4.35.38-9.09l-.77-.76c-1.86-1.86-1.89-3-1.81-16.84,0-2.69,0-6.23,0-7.76l-.26-.28c-3.63-4-2.16-7-1.08-8.4a5.17,5.17,0,0,0,.08-.79l0-1.84.2-.23c-1.2-.49-3-1.38-6.21-3l-.85-.43a5.12,5.12,0,0,1-2.76-5.77,5.38,5.38,0,0,1,.31-.94L412,135c-5.16-2.23-12.23-5.28-16.51-6.57-2.58-.77-5.35-1.71-8-2.61-2.89-1-6-2-8.35-2.67l-.11.4h-3.84c-2,0-10.07-3.37-12-5.95-3.18-4.26-.09-10,1.39-12.23a16.69,16.69,0,0,1,2.84-3.26,6.22,6.22,0,0,0,1.13-1.22,11.38,11.38,0,0,1,.39-3l.13-.48c1.45-5.57,3.88-13.49,8.23-17.87a21.86,21.86,0,0,0,2.51-3,13.52,13.52,0,0,1,5.77-4.78,32.88,32.88,0,0,1,6.86-3l.91-.2.92.14c4.26.65,9.25,1.21,27.35,1.46,12.05.17,25.21,1,35.78,1.76,6.11.41,11.39.76,15.29.91,10.65.39,27.79,2.29,33.93,4.15a64.44,64.44,0,0,0,6.9,1.51c3.2.58,5.8,1,7.74,2.06h0a5.56,5.56,0,0,1,4,1.66c1.83,1.88,1.76,4.43,1.72,6.12,0,1.9-.07,3.89-.09,5.71,0,2.39,0,4.45-.12,5.83-.06,1-.75,10-6.69,15-2.94,2.47-7,5.4-9.92,7.41a13.59,13.59,0,0,1,2.87,2.23l0,0a4.86,4.86,0,0,1,2.56,1.61l13.61,7.5L521,134l-.38,1.33-.69,2.39a5.25,5.25,0,0,1,.46,2.92l-.6,4.31h-4.4a11.32,11.32,0,0,1-2.72-.48,5.49,5.49,0,0,1-.16.55,5.07,5.07,0,0,1-2.31,2.75,5.37,5.37,0,0,1-4.76,2.46,23.62,23.62,0,0,1-4-.51,5.27,5.27,0,0,1-3.35,1.11c-1.92,0-7-1.06-11.71-2.78a4.8,4.8,0,0,1,.84,2.89,5.22,5.22,0,0,1-4,5,5.86,5.86,0,0,1-1.69.24,8.77,8.77,0,0,1-2.25-.33,6.46,6.46,0,0,1-4.12,1.59c0,.24,0,1,0,1,.06,3.86.06,6.55.05,8.91,0,1.83,0,3.42,0,5.15,0,.81.06,2.13.12,3.77.31,9.09.57,18.35,0,22.86a8.58,8.58,0,0,1-1.76,4.65,4.93,4.93,0,0,1-.37.52,6,6,0,0,1-1.4,2.63,5.33,5.33,0,0,1-3.66,1.69L464.71,212l-.05-1.93a4.93,4.93,0,0,1-2.74,1,6.09,6.09,0,0,1-4.69,2.67l-2.45,13.57Z"/><path class="cls-3" d="M393.47,73.75c4.37.67,9.29,1.26,28,1.52s40,2.26,50.95,2.66,27.32,2.32,32.67,3.94,12,2,14,3.37a2.51,2.51,0,0,0,1.44.45c.25,0,.47,0,.65,0,.57,0,.81.29.75,2.65-.11,4.3-.07,9.1-.2,11.38s-1.16,8.28-4.92,11.44-10,7.48-12.43,9.08a16.25,16.25,0,0,1-5.61,2.1s7.41,3.71,8.86,4.41c1.15.56,2.41,2.19,3.35,2.71-1,0-2.49.32-1.5,1.06a69.84,69.84,0,0,0,6.26,3.51s0,0,0,0c-.34,0-2.9-.51-4.2-.51-.46,0-.77.06-.76.24,0,.73-3.46,1-2.27,1.59s4.19,3.85,6.32,4.46c.52.15.67.23.53.23a25.83,25.83,0,0,1-7.23-2.62c-4.4-2.27-15.67-6.42-18.83-6.42a1.62,1.62,0,0,0-.61.09c-1.51.65,4.46,3.51,9.88,5.44-4.83-1.47-12.27-3.64-13.3-3.64-.4,0,.16.33,2.2,1.15,10.88,4.37,17.58,6.35,18.46,7.41s2.48,2.05,1.57,2.11h0c-1,0-16.09-5.64-16.09-5.64s2.57,2.77,11,5.68c3.76,1.3,4,1.73,3,1.73a24.62,24.62,0,0,1-5.88-1.15c-2.21-.87-14.78-5.84-16.4-6.36a1.42,1.42,0,0,0-.43-.08c-1.07,0-.28,2,4,3.54,4.8,1.74,7.44,3.1,10.79,4.23.86.29.95.43.5.43a44.56,44.56,0,0,1-11.93-3.25c-6.4-2.78-13.68-5-13.68-5s-1.72,1.51-1.85,5.69,2.19,4,6.34,5.63,6.2,1.82,4.84,2.23a.89.89,0,0,1-.25,0c-1.64,0-7.11-2.71-8.55-2.71-.18,0-.3,0-.33.14-.34.92.4,2.19,2.52,2.89,1.43.47.75,1-.57,1a6.66,6.66,0,0,1-2.21-.39,4.22,4.22,0,0,0-1.28-.33c-1.08,0-1,1.47-.95,6.79.11,6.89,0,10.1.08,14.08s.87,20.25.15,25.9c-.17,1.33-.32,1.82-.44,1.82s-.12-.13-.18-.35a.9.9,0,0,0,.07-.23c0-.12,0-.18-.08-.18l-.07,0c-.17-1-.26-2.65-.31-2.65a2.45,2.45,0,0,0,0,.58c0,1,0,1.75,0,2.32a3.36,3.36,0,0,0-.94,2.4c.06.88-.2,1.4-.49,1.4s-.54-.43-.61-1.4c-.09-1.15.1-1.51,0-1.51a10.52,10.52,0,0,1-1.08.44s0,.51,0,1.1c-.07-.33-.19-.46-.32-.46-.4,0-1,1.17-1,2.12,0,.57-.16.82-.32.82s-.58-.6-.76-1.47c0-.22-.09-.31-.14-.31-.24,0-.51,2.29-.89,2.29a.14.14,0,0,1-.1-.06.22.22,0,0,0-.17-.09c-.32,0-.64.89-.85.89s-.15-.13-.2-.49c-.2-1.47-1.69-1.93-.44-4.68.55-1.21,1-1.42,1.13-1.44h0s0,0,0,0h0c-.12,0-.48-.19-1.13-.9a1.51,1.51,0,0,0-1-.61c-1.06,0-1.36,2.84-1.43,6.52-.06,3-.89,4.27-1.66,4.27-.44,0-.85-.41-1.1-1.17a65,65,0,0,1-1.44-10.07c0-.62,0-1,0-1a.41.41,0,0,0,0,.09c0,.18,0,.49,0,.9,0,2.55,0,9.25-.07,11,0,.57,0,.78-.08.78s-.32-1.17-.61-1.17c-.07,0-.15.07-.23.25a16.26,16.26,0,0,0-.89,3.09l-.74-1.51s-12.08,5.72-13,6a3,3,0,0,1-1,.18c-.85,0-1.78-.5-1.82-2.65,0-3.06-1.39-7.08-.24-7.08h0c.49,0,1.34.16,2,.16.95,0,1.58-.29.52-1.63-1.55-2-2.26-5.95-2-5.95,0,0,.12.13.23.43s.26.47.41.47c.72,0,1.56-3.29.31-3.63s-2.34-1.72-2.72-1.72c-.13,0-.16.17,0,.62.44,1.74-.29,3.62-.06,5.3.2,1.47.22,5.71-.65,5.71a.61.61,0,0,1-.42-.27c-1.3-1.51,2.27-4-.05-5.06s-3,0-3.25-4.25.46-4.77.53-18-.3-28.64-.14-30c.14-1.16-.82-4.87-1.12-4.87,0,0-.08.09-.08.31,0,1.55.22,32-.77,33.88,0,.08-.08.12-.11.12-.81,0-.12-20.6-.52-22.48s-3.28-3.25-2.22-4.32,1.06-3.74,1.06-3.74a6.38,6.38,0,0,0,1.24-4.32c-.32-2.34,0-5.13-1.5-5.16h0c-1.45,0-.89,3-1.73,3h0c-.91-.12-6.61-3.1-7.56-3.57s4.34-1.79,7.42-1.79h.35c2.74,0-2.35-1.94-4.73-2.67s-16.12-7.19-23.25-9.34-16.17-5.67-19.89-6c-.82-.08-1.43-.12-1.86-.12-1.56,0-1,.45-.11,1,.11.06.13.09.09.09-.4,0-7-2.68-8-3.94s.18-4.39,1.56-6.5,2.74-2.56,4-4.54.46-2.37,1-4.4,2.89-11.91,7.07-16.12,2.73-4.6,7-6.82a30.37,30.37,0,0,1,5.64-2.51m117.82,55.66c.46,0,.74.06.43.14l-.15,0a1.1,1.1,0,0,1-.51-.16h.23m-12.67,7.09c2.47.75,4.26,1.32,4.17,1.32l-.73-.2c-1.06-.3-2.24-.69-3.44-1.12M469.7,199.62c0,.15.05.28.08.39a1.7,1.7,0,0,1-.38.49c0-.18,0-.39,0-.63a1.08,1.08,0,0,1,.33-.24m-.31.88c0,.47,0,.69-.08.69s-.07,0-.13-.08c-.22-.22,0-.38.21-.61m-3.12,1.8a4.2,4.2,0,0,1,.07.84c0,.6,0,.83,0,.83s0-.9-.05-1.67M393.14,63.58l-1.82.4a38,38,0,0,0-8.07,3.39,18.45,18.45,0,0,0-7.53,6.29,16.94,16.94,0,0,1-2,2.36c-5.21,5.24-7.93,14-9.53,20.14l-.12.44a16.49,16.49,0,0,0-.43,2.19,20.68,20.68,0,0,0-3.29,3.87c-4.34,6.63-4.78,13.18-1.21,18,1.55,2.08,3.82,3.64,8.09,5.57,4.9,2.21,6.37,2.38,7.91,2.38h4.61c2,.61,4.28,1.39,6.09,2,2.72.92,5.54,1.86,8.19,2.66,3.24,1,8.59,3.2,13,5.11a10.13,10.13,0,0,0,5.64,8.07l.78.4,2.61,1.32C415,151,415,154.82,418,158.79c0,1.68,0,4,0,5.87,0,3.12,0,6.34,0,9,.07,4.24.12,7.67,2.54,10.63-.09,3.34-.22,5.32-.32,6.79a44.47,44.47,0,0,0-.11,6c.1,1.91.31,5.94,3.06,9.13a11,11,0,0,0,2.64,6.15l.11.13a10.68,10.68,0,0,1,.12,1.11c.13,8.2,6,12.49,11.81,12.49a12.94,12.94,0,0,0,4.3-.75c.37-.13.86-.3,5-2.23l9.82,20,3.65-20.24,9.87-9.56a10.38,10.38,0,0,0,5-2.95,10.78,10.78,0,0,0,2.25-3.69,10.45,10.45,0,0,0,1.58-2.64l.2-.21v-.29q.2-.55.35-1.14c.05-.21.1-.43.15-.66l.33-.71-.12-.49c0-.23.07-.48.1-.74.62-4.88.37-14.37,0-23.68-.05-1.6-.1-2.89-.11-3.67,0-1.67,0-3.23,0-5s0-3.69,0-6.14l.2-.1c.37,0,.75.05,1.12.05a10.86,10.86,0,0,0,3.14-.46,10.22,10.22,0,0,0,6.73-5.92,32.5,32.5,0,0,0,6.66,1,10.5,10.5,0,0,0,4.24-.89,22.23,22.23,0,0,0,3.15.28,10.3,10.3,0,0,0,8.28-3.81,10.16,10.16,0,0,0,1.6-1.47h.08a9.94,9.94,0,0,0,10-11.12l22.09-.82-28.63-15.78c1.58-1.18,3.14-2.39,4.48-3.52,7.39-6.21,8.35-16.51,8.46-18.51.09-1.5.11-3.62.13-6.06,0-1.87,0-3.79.09-5.64.05-2.06.17-6.35-3.13-9.74a10.46,10.46,0,0,0-6.39-3.11,37.57,37.57,0,0,0-8.12-2A59.91,59.91,0,0,1,508,72.29c-6.6-2-24-4-35.2-4.36-3.82-.14-9.07-.49-15.14-.9-10.63-.71-23.86-1.6-36-1.77-19.22-.26-23.35-.9-26.66-1.4l-1.84-.28Z"/><path class="cls-2" d="M47.09,166.32c5.93-8.05,18.43-21.55,19.43-26.05s-5.14.26-6.59,10.11S47.09,166.32,47.09,166.32Z"/><path class="cls-2" d="M115.06,136.31c8.5,5.65,23.76,18.39,27.6,18.6s-2.22-6.49-10.33-6S115.06,136.31,115.06,136.31Z"/><path class="cls-2" d="M42.47,169.47C39,168,52,142,57,136.47s-12.22,11.64-14.55,19.71C40,164.58,42.47,169.47,42.47,169.47Z"/><path class="cls-1" d="M521.78,169.33c-.58.11-14.6-7.71-19-8.71s.54-.77,2.19-1.49-8.08-3.73-10-4.87,4.73-1.42,7.32-.28,12.16-1.41,16.63.8,4.32-.13-1.91-1.73,3.39-2.33,6.95-.39,3.64-1.6-.75-3.52,3.18-2.18,4.73-1.89,11.81-16.07,13.18-18.16"/><path class="cls-1" d="M588.32,154.39c-.64,1.36-31.29,22.72-32,24.06-.57,1.12-5.06,14.64-5.68,15.74s-2.17-3-2.85-2c-2.28,4.7-.5,10.71.25,15.41.59,3.71-17.31-10.43-17.42-13.33,0,0,7.21,11.4,1.26,5.89-5.24-4.86-7.36,1-8.22.43-4.31-3.11-1.55.44-2.47-4.88-3.49-20.27,9-154.67,99.59-135.18q2.25.74,4.37,1.66a13.63,13.63,0,0,1,6,5.48,19.22,19.22,0,0,1,1.49,3.48q.94,1.32,1.76,2.62T636,76.39a76.23,76.23,0,0,1,3.52,14.15q.37,2.41.59,4.85a129.54,129.54,0,0,1-.52,27.24,65.31,65.31,0,0,1-1.73,9c-1.64,5.94-2.22,12.1-5.47,17.85q-.78,2.35-1.62,4.67-.76,1.81-1.63,3.61t-1.87,3.56q-1,1.77-2.12,3.52a68.8,68.8,0,0,1-5.88,6.87l-2.14,2.23c-4.68,4.22-10.68,6.82-16.71,9.32-1.51.62-3,1.24-4.53,1.89-11.11,4.21-20.67,10.47-30.3,15.88,8.69-4.43,18.37-9,25.21-15.48,1.06-1,2-1.85,2.82-2.78a25.26,25.26,0,0,0,4.28-6.17,24.33,24.33,0,0,1-4.47,5c-.86.75-1.75,1.48-2.66,2.2-3.19,2.63-6,5.55-9.84,7.72,3.85-2.16,5.6-5.84,9.18-8.14.78-.8,1.52-1.61,2.22-2.45a21.83,21.83,0,0,0,3.43-5.48c.53-1.14,1-2.27,1.54-3.38s1.39-2,2.16-2.94c2.7-3.45,6.38-8.2,3.05-13.07.29,4.33-1.46,8-2.21,11.57a49.28,49.28,0,0,1,.72-7.08,50.16,50.16,0,0,1,1.79-6.77,56.55,56.55,0,0,0,2.77-6.72,19.19,19.19,0,0,1,3.87-6.56c-1,.1-.93,1-1.92,1.07,2.51-7.25,11.2-11.68,11.66-19.57-1.81,2.81-3.56,6.49-7.41,8.65,3.85-2.16,8.63-5.3,8.33-10.21a14.17,14.17,0,0,0-.86-6.49,24.28,24.28,0,0,0-3.43-6.12,34,34,0,0,0-2.9-3.4c-3.6-4.86-5.86-10.26-12.8-8C584,101.69,578.6,135.55,588.32,154.39Zm-32.32,21c1.23-.67,3.45-1.09,3.14-2.88Z"/><path class="cls-1" d="M630.37,163.73A62.79,62.79,0,0,1,645,158.58c1.63-.85,3.11-1.09,4.45-.29.13.08.39.17.45.08,1.14-1.53,2.42-1,3.63-1.57a18.27,18.27,0,0,1,4-1.1c1.71-.42,3.43-.8,5.24-1.22l-.12,1.17c.37-.41.73-.65.85-1,.46-1.24,1.24-1.22,1.71-.93,1.12.7,1.79.6,2.92-.89.19,1,.66,1,1.18,0,.7-1.28,1.22-1.56,1.95-.63.19.25,1.09,0,1.43-.45a15.25,15.25,0,0,0,1.41-2.56l-2.69-.25a7.82,7.82,0,0,1,4.49-3.51c.56-.15,1.12-.28,1.68-.49a6.26,6.26,0,0,0,3.86-4.42c1.24-4,2.31-8.11,1.74-11.87a36.59,36.59,0,0,0-2-6.41c-1.4-4.1-4.29-6.46-6.44-9.69a64.3,64.3,0,0,0-4.28-5.29,2.65,2.65,0,0,0-.83-.74c-.84-.4-1.74-.69-.92-2a56.54,56.54,0,0,0-4.39,4.44c-1.4,1.56-3.31,2.74-4.13,4.82l-.18-2C645.2,126.16,624.28,128,605.89,135.7c1.72-3.17,2.08.82,3.08.73-1.72,3.17-5.25-2.54-6,.53.09,1,2.08.82,3.08.73a9,9,0,0,1-4.89,1.44c-.09-1,.91-1.09.83-2.07-1.91,1.16-4.18,1.11-5.9,1.52s-2.9,1.26-2.63,4.25c-3.17-1.72-6,.53-9.14-1.19,1.9-1.17,5.16,1.55,6.88-1.62-11,1-21.82,3-33,1.92-2,0-4,0-6.05,0-4,.07-8,.23-11.93.59,1-.09.91-1.09,1.9-1.17-5.8,2.53-13.22-1.83-18.51,2.13a3.23,3.23,0,0,0-1.38,3.46c.15.67.37,1.3.55,2,.07.23.24.59.17.68-1.49,2.06.14,3.11,0,4.76a15.07,15.07,0,0,0,.15,3.75c.28,1.88.8,3.63,1.05,5.52a11.47,11.47,0,0,1-.17,4.56,1.5,1.5,0,0,0,.15.82q1.1,3,2.22,6.06c13.29,5.68,31.5-4,47.52-4.42,1.09.91,2.81-2.26,1.64-4.16,2.08.82,1.44,4.89,5.43,4.53,3-.27,2.63-4.25,4.53-5.43.09,1-.73,3.08,1.35,3.89,2-.18,4-.36,4.8-2.44-2,.18-4.8,2.44-5.16-1.55l5-.45c5.07.55-3.72,3.34.36,4,2-.18,7.24,2.36,6.7-3.61-.09-1-5.62,4.52-3,.27,1.72-3.17,8-.71,11.77-3.06,1.17,1.9.36,4-1.55,5.16,1-.09,1.9-1.17,2.86-1.08m-7.85-33.06c.34-.54.67-1.41,1-1.57a12.66,12.66,0,0,1,3.15-.8c.2,0,.33.6.37.69l-3.46,2.69Zm43.75,23.48-3.9.5a5,5,0,0,1,.58-1.42C641.92,155.47,644.16,156.09,644.51,157.18Zm-36.27,6.16a4.36,4.36,0,0,1,.23-1.44,1.6,1.6,0,0,1,1-.57,3.8,3.8,0,0,1,1.49-.06c.25,0,.4.43.59.67-.25.22-.49.54-.74.63C610.1,162.84,609.35,163,608.24,163.33Zm12.33-34.57,2.9-.17C622.76,129.83,621.36,130,620.57,128.76Zm2-1.9c1.47-1.65,2-1.69,2.13-.3Z"/></g></g></svg>