<svg xmlns="http://www.w3.org/2000/svg" viewBox="0 0 663.96 245.83"><defs><style>.cls-1{fill:#231f20;}.cls-2{fill:#fff;}</style></defs><title>draftalt</title><g id="Layer_2" data-name="Layer 2"><g id="Layer_2-2" data-name="Layer 2"><path class="cls-1" d="M619.3,132.84a62.79,62.79,0,0,1,13.06-8.33c1.4-1.2,2.78-1.77,4.27-1.29.15,0,.42.07.46,0,.76-1.74,2.14-1.5,3.18-2.36a18.27,18.27,0,0,1,3.65-2c1.58-.79,3.16-1.55,4.83-2.37l.15,1.17a4.21,4.21,0,0,0,.61-1.13c.17-1.31.93-1.47,1.45-1.29,1.25.43,1.88.18,2.65-1.53.41.95.86.79,1.15-.26.39-1.4.83-1.8,1.75-1.06.24.2,1-.29,1.29-.76a15.25,15.25,0,0,0,.79-2.81l-2.68.36a7.82,7.82,0,0,1,3.58-4.44c.51-.27,1-.53,1.53-.86a6.26,6.26,0,0,0,2.76-5.18c.29-4.21.41-8.42-1-12A36.59,36.59,0,0,0,659.35,81c-2.29-3.68-5.65-5.32-8.47-8a64.3,64.3,0,0,0-5.37-4.18,2.65,2.65,0,0,0-1-.53c-.91-.2-1.85-.27-1.36-1.79a56.54,56.54,0,0,0-3.27,5.32c-1,1.84-2.6,3.42-2.93,5.63l-.63-1.9c-11.13,17.35-31.08,23.92-47.25,35.56,1-3.47,2.21.32,3.16,0-1,3.47-5.69-1.29-5.7,1.88.31.95,2.21.32,3.16,0a9,9,0,0,1-4.44,2.51c-.31-.95.64-1.26.34-2.2-1.6,1.56-3.82,2-5.4,2.81s-2.54,1.89-1.6,4.74c-3.47-1-5.7,1.88-9.17.91,1.59-1.58,5.37.34,6.34-3.14-10.45,3.44-20.58,7.83-31.7,9.35q-3,.69-5.89,1.42c-3.9,1-7.75,2-11.49,3.28.95-.31.64-1.26,1.59-1.58-5.07,3.78-13.29,1.22-17.55,6.27a3.23,3.23,0,0,0-.56,3.68c.3.62.65,1.19,1,1.78.12.21.37.52.32.62-1,2.34.85,3,1.05,4.64a15.07,15.07,0,0,0,1,3.62c.7,1.77,1.6,3.36,2.28,5.14a11.47,11.47,0,0,1,.87,4.48,1.5,1.5,0,0,0,.33.77q1.76,2.71,3.54,5.4c14.23,2.52,29.78-11,45.29-15.08,1.26.64,2.22-2.84.65-4.42,2.21.32,2.51,4.44,6.31,3.19,2.85-.94,1.6-4.74,3.19-6.31.31.95,0,3.16,2.2,3.49,1.9-.63,3.8-1.25,4.12-3.46-1.9.63-4.12,3.46-5.37-.34l4.75-1.56c5.06-.61-2.86,4.1,1.25,3.8,1.9-.63,7.59.66,5.71-5-.31-.95-4.45,5.68-2.85.94,1-3.47,7.6-2.5,10.77-5.65,1.58,1.59,1.25,3.8-.34,5.37.95-.31,1.59-1.58,2.54-1.7m-15.14-30.42c.21-.6.33-1.53.66-1.77a12.66,12.66,0,0,1,2.89-1.49c.19-.07.45.51.51.58L585,111Zm47.93,12.94-3.69,1.38a5,5,0,0,1,.24-1.52C628.68,122.18,631,122.28,631.59,123.26Zm-33.93,14.22a4.36,4.36,0,0,1-.1-1.45c.09-.34.55-.64.87-.79a3.8,3.8,0,0,1,1.44-.4c.26,0,.49.33.73.52a3.21,3.21,0,0,1-.58.78C599.36,136.57,598.67,136.92,597.66,137.48ZM601.83,101l2.78-.82C604.2,101.56,602.88,102.07,601.83,101Zm1.52-2.31c1.05-1.94,1.52-2.09,2-.78Z"/><path class="cls-1" d="M375.9,154.91c-3.38,3.74-6.53,7.67-10.07,11.27-8.45,8.59-16.88,17.21-29.93,21.59a28,28,0,0,1-5.36,1.23c-1.42.18-3,.35-5.57-1.7-2-1.62-3.9-4.77-3.53-6.34.65-2.74,1.24-5.58,2.69-7.7,2.39-3.5,5.72-6.24,8.18-9.69,3.46-4.87,6.49-10.07,9.67-15.17,3.38-5.42,6.88-10.75,10-16.37a48.26,48.26,0,0,0,4.3-10.53A191.92,191.92,0,0,0,361.58,99c.86-5.6.43-12.05.32-18.27a15.08,15.08,0,0,0-1.7-5.07c-1.34-2.89-3.59-5-7.29-6.66a55.53,55.53,0,0,0-15.1-4.86c-10-1.32-17.44.5-24.83,2.32a83.7,83.7,0,0,0-23.54,10.09,97.71,97.71,0,0,0-14.61,10.14c-6.53,5.8-12.12,12.44-15,21.18-2.34,7.07,1,16.68,10.11,28.5,1.45,1.88,3.31,3.77,5.06,5.74-2.18-.75-1.83.19-.43,1.74,1.85,2,3,3.72,1.89,4.72-.3.27.57,1.53.7,2.23a20.7,20.7,0,0,1,.19,2.62l-.86-.28,5.85,7.46-2.18-1.15,1.17,2.62L279,160.61l-.29.31,3.79,3.39.78,7.39-2.41-1.09-.18.49,4.72,3.73,2.21,5.93c-2.65-1.56-5.48-3.93-6.93-2.74-.11.09-1-.49-1.51-.82-3-1.88-6-3.68-9-5.69a41.51,41.51,0,0,1-6.25-4.75c-5.13-5.21-9.86-10.59-15-15.81-3.44-3.49-5.67-6.69-6.41-9.65-.55-2.2-.38-4.06-.86-6.23s-1.45-4.64-2-6.88c-.16-.63.39-.91.55-1.4s.72-1,.38-1.7c-2.32-4.78-1.76-8.06-2.1-11.81-.48-5.17-.13-9.88-2.09-15.86-.56-1.71-.16-3-.38-4.58s-.67-3.21-1-4.82l-.84-.47-.49,5.49-.89-.41a7.77,7.77,0,0,1-.82-2.31,35.51,35.51,0,0,1,1-5.42,92.71,92.71,0,0,1,3.29-11A53.67,53.67,0,0,1,242,63.17a59.81,59.81,0,0,1,8.83-9.81,133.35,133.35,0,0,1,15.56-12.42c5.32-3.49,11.39-6.29,17.42-9.11,3-1.38,6.56-2.13,9.9-3.13,2.58-.78,5.22-1.49,7.8-2.27a2.26,2.26,0,0,0,1.06-.77c.32-.38,0-1.51,1.8-.06.19.15.84.14.87-.06.4-2.57,4-1.37,6.85-1.13a10.76,10.76,0,0,0,3.48-.45c1.41-.31,2.72-.74,4.07-1.12l.67.72-3.09.85c4.67,1.48,6.61-1.72,13.65,3.37l.63-1.36,4.26,1.13.74,1.82c.59.1,1.18.18,1.78.3,4.38.85,8.61,1.41,13.2,2.65A37,37,0,0,1,362,37.19c3,1.95,6.17,3.07,9,5.16a68.28,68.28,0,0,1,9.42,8.4A55,55,0,0,1,392,69.95a60.33,60.33,0,0,1,3.91,21c0,11.45-.66,22.46-4.4,31.4-4,9.45-8.79,18.26-13.23,27.36"/><path class="cls-1" d="M355.6,163.88c.12,2.88,2,6.62,1,10.21A11.26,11.26,0,0,1,352,179.2a12.92,12.92,0,0,1-6.24,1.53c-3-1.07-5.57.09-7.94,1.44-1.19.68-2.34,1.4-3.49,1.92-7.43,4.16-11.71-5.31-8.43-12.88.36-1.74.76-3.49,1.11-5.15a43.41,43.41,0,0,0,.78-4.61c.44-1.54.91-3.07,1.46-4.56a38.92,38.92,0,0,1,1.91-4.41c4.27-11.56,13.57-22.08,16.84-32.67a22.16,22.16,0,0,0,.85-10.66,18.51,18.51,0,0,0-5.53-9.66A19.74,19.74,0,0,0,334.16,95c-10.48-2.28-24.09,1.38-33.75,5.42-1.17.62-2.31,1.28-3.42,2a27.54,27.54,0,0,0-8.62,8.64c-2.5,4-2.19,10.74,1,19.9.51,1.46,1.25,3,1.92,4.57-1.11-.87-1.07-.22-.53,1,.71,1.63,1.1,2.91.29,3.33-.22.11.07,1.07,0,1.54a15,15,0,0,1-.33,1.69l-.44-.33,2.09,5.8-1-1.13.23,1.88L290.53,148l-.22.14L291.9,151l-.78,4.82-1.19-1.13-.18.28,2.07,3.23c.1,1.43.2,2.74.31,4.15-1.28-1.47-2.51-3.49-3.53-3-.07,0-.48-.49-.72-.79-1.39-1.74-2.8-3.44-4.16-5.25a27.37,27.37,0,0,1-2.76-4.16c-2.05-4.25-3.85-8.52-5.9-12.77a16.41,16.41,0,0,1-2-7.29c.05-1.5.46-2.64.54-4.1s-.06-3.2,0-4.73c0-.43.37-.51.54-.78s.57-.49.5-1c-.52-3.45.34-5.43.76-7.86.58-3.36,1.56-6.27,1.44-10.42a15.51,15.51,0,0,1,.55-3c.13-1,.15-2.15.22-3.24l-.4-.45L276,96.89l-.44-.43a5.69,5.69,0,0,1-.08-1.61,24.55,24.55,0,0,1,1.48-3.24,62.37,62.37,0,0,1,3.7-6.37,34,34,0,0,1,5-5.74,35.06,35.06,0,0,1,6.64-4.59,74.66,74.66,0,0,1,10.9-5,75,75,0,0,1,11.4-2.56,40.28,40.28,0,0,1,6.14-.16c1.6,0,3.22,0,4.81,0a1.26,1.26,0,0,0,.73-.29c.25-.18.25-1,1,.29.08.13.45.24.5.12.65-1.55,2.51-.13,4.08.55a5.77,5.77,0,0,0,2.05.36c.85.06,1.67,0,2.5,0l.26.58-1.89,0a9.41,9.41,0,0,0,3.32,1.3c1.1.37.3-4.91,1.88-2.65,22.75,4.31,40.45,31.25,28.52,58-.48,1.81-1,3.6-1.5,5.34s-1.09,3.43-1.71,5a37.71,37.71,0,0,1-4.5,8.68,34.86,34.86,0,0,0-2.64,3.48c-3.59,2.86-3.46,7.17-3.4,12.51"/><path class="cls-1" d="M5.4,19.1c6.44,14.71,17,34.66,4.2,83.3S-.13,142,1.7,144.11s6,9,10.11,11.49,23.92,15.94,27.16,15A5.89,5.89,0,0,0,43,167.23s.05,4.12.39,3.89,3.32-3,3.67-4.8,2.22-.83,1.1,1.8-2.42,4.7-.36,2.19,4.22-6,4.17-5.19a13.06,13.06,0,0,1-2.2,4.43c-.84,1,.43,1.26,1.41-.16s1.85-4.93,9.47-13.48S70.18,142.08,71,141.8s19.65,29.74,36.11,34.82,25-8.54,26.94-10.5,8.69-4.85,9.14-7-1.08-2.83-1.08-2.83L140.88,155l1.6-1.29-1.22,0a13.45,13.45,0,0,1,3.4-1.73,8.93,8.93,0,0,0,3-1.74,20.66,20.66,0,0,1-3.89-.11c-1.73-.27,3.51-.84,4.74-1.45s3.19-2.35,2-2.71-3.87-2.51-3-2,5-.19,4.53-.41c-9.49-4.88-34-16-55-44,1.37-3,16.09-11.63,27.3-16.32s8.42-23.18,6.48-35.1-3.51-15.61-5.42-16.78-5.24-3.19-7-4.42-8.09.41-14.67,2.35-18.64,7.33-24,11.21-3-.06-3.94-2.78S72,20,68.42,14.73,64,5.13,44.6,2.84,21-.4,14.79.15,1.49,6,2.52,11.11A26,26,0,0,0,5.4,19.1Z"/><path class="cls-1" d="M251.63,240.83c-.69,0-1.42,0-2.17-.09-1-.07-2.46-.24-4.18-.45l-.17.06a7.56,7.56,0,0,1-2.72.4c-3.78,0-13.29-1.37-37.18-7.92-27.63-7.57-49.53-19.15-58.88-24.1-1.8-1-3.35-1.77-4-2a17.3,17.3,0,0,1-7.77-6.22c-.37-.48-.71-.94-1.1-1.38a42.43,42.43,0,0,0-3.26-3.27,14.71,14.71,0,0,1-1.5-1.51c-2-2.53-1.55-3.91,2.34-14.67,1-2.65,2-5.4,2.37-6.8,1-3.15,4.58-6.79,21.63-18a5.36,5.36,0,0,1-1.05-1.55,5.62,5.62,0,0,1,.88-5.91l.1-.13a2.43,2.43,0,0,0-.22.42,4.35,4.35,0,0,0,.35,3.88,3.67,3.67,0,0,0,2.31,1.74l.12-.08.2-2.81-.45-.39a9.42,9.42,0,0,1-2.53-3.32l-2.22-5.19.91-.26a5.91,5.91,0,0,1-3.13-5.57,5.26,5.26,0,0,1-.85-1.89l-.13,0-1.17-.24a5.76,5.76,0,0,1-3.75-2.78,6.1,6.1,0,0,1-.68-3.94,49.47,49.47,0,0,1-3-8.52,85.55,85.55,0,0,1-3.29-22.18c-.18-18.68,27.22-22.35,41.94-24.33,1.64-.22,3.1-.42,4.31-.61,8.5-1.35,13.75-1.79,28.11-1.79,4.54,0,10.12,0,18.64.14,5,.06,15,2,21.75,3.81a12,12,0,0,1,7.6,6.53c2.87,5.7,2.69,14.18,1.31,17.94a65.09,65.09,0,0,0-.26,6.79c-.11,11.22-.41,17.68-5.26,19.92-1.88.87-5,3.31-7.46,5.27-1.35,1.06-2.62,2.07-3.79,2.91a25.7,25.7,0,0,1-5.22,2.75l-1,.44.57.59c2.36,2.46,6.32,6.58,4,11.41-.81,1.67-3.14,6.2-5.61,11-2.35,4.56-5,9.74-5.55,10.9a6.5,6.5,0,0,1-.62,1c10.32,2.06,25.29,4.85,28.14,5.16l.53.06c6.51.68,7.84,2.84,11.45,10.22a11.62,11.62,0,0,1-.37,11.62,12.81,12.81,0,0,1-1.08,1.48c2,1.7,3.37,4.45,3.34,8.54,0,.11-.41,8.74-4.13,12.47a13.79,13.79,0,0,1-.36,1.93c-.05.22-.13.53-.17.73.19,1.68-.16,4.36-3.49,6.39a7.65,7.65,0,0,1-1.34,1.26,5,5,0,0,1-1.78,2.65l1.61.24-2.56,1a5.32,5.32,0,0,1-.31,2.07C258.78,240.83,253.4,240.83,251.63,240.83Z"/><path class="cls-2" d="M211.78,74.36c4.92,0,10.94.05,18.58.14,4.13,0,13.51,1.76,20.51,3.64s6.74,14.81,5.48,18,.63,22.2-2.89,23.82-8.62,6.17-12.08,8.66-7.78,2.72-9.34,5.86,7.68,7.86,6.06,11.2-10.05,19.55-11.19,22-11.44,4.72-7,6,34.16,6.89,38.48,7.35,4.43.16,8,7.51-5.09,11.27-7.16,11.27h0c-2.05,0-1.82,1.37,5,2.5s2.1,14.61.61,14.84-1.49.25-3,.49.12,1.3,1.39,1.41-.34,2.93-.06,4.53-2.3,2-2.26,2.47-1,1-2,1.63a1.4,1.4,0,0,1-.82.32l-.34,0a1.34,1.34,0,0,0-.69.21c-.91.51,2.16,1.24,1.29,1.28-.67,0-.38,1-1.27,1a3.21,3.21,0,0,1-1.11-.27,3.93,3.93,0,0,0-1.32-.34c-.76,0-.67.68-1.3,1.23-.88.76,1,2.54,2,3.4.89.73-.61,1.47-3.73,1.47-.55,0-1.15,0-1.79-.07-3.52-.27-15.47-2-16.58-2-.25,0,0,.09,1.1.29,5.75,1.12,9,1.6,9,1.6a3.38,3.38,0,0,1-1,.08c-2.44,0-10.59-.82-35.85-7.74-33.08-9.07-57.75-24-62.19-25.91s-5-3.88-7.11-6.31-4.2-4.08-4.64-4.63,4.39-12.84,5.61-16.88,25.58-19,26.9-20.08-.82-2-4.39-2.37-1.81-1.13-1.34-2.27-1.34-1.26-1.46-1.26H158a1.48,1.48,0,0,0,1.21-.47c.34-.54,2.41-.65,2.41-.65l-1.14-1a4.6,4.6,0,0,1-1.19-1.49l2-.58s-1.43-.07-1.26-1.1-.24-1.38.47-1.85.69-4-.38-4h-.08a5.16,5.16,0,0,1-.8.05,22.91,22.91,0,0,1-3.41-.35c-.61-.11-.89-1.26-.14-1.3s3.32-.73,2.56-.73h-.36c-.84,0-.35-.42-1.29-.83a6.59,6.59,0,0,1-1.93-.95c-1.1-.74.44-.61.13-2.13s-4-1.93-5.57-2.29.24-2.91-.33-2.93-6.36-13.58-6.52-29.66,31.13-18.22,42-19.95c8.11-1.28,13-1.73,27.32-1.73m-53.87,73.93h0m53.87-83.93c-14.69,0-20.1.46-28.88,1.86-1.12.18-2.54.37-4.19.59-6.81.91-17.09,2.29-25.88,5.49-17,6.18-20.46,16.37-20.39,23.84a90.63,90.63,0,0,0,3.48,23.5,71.5,71.5,0,0,0,2.54,7.48l.17.41a10.82,10.82,0,0,0,1.4,5.66,10.63,10.63,0,0,0,5.4,4.7,10.84,10.84,0,0,0,2.21,4.94l1.75,4.07a10.17,10.17,0,0,0-.69,6.13c-15.24,10.22-18.76,14-20.07,18.36-.39,1.28-1.35,4-2.29,6.55-.85,2.35-1.73,4.79-2.38,6.74-1.17,3.5-2.77,8.28.87,12.77a18.74,18.74,0,0,0,2,2,38.13,38.13,0,0,1,2.89,2.9c.27.31.55.68.87,1.1a22.2,22.2,0,0,0,9.76,7.78c.48.21,2.16,1.1,3.64,1.88,9.5,5,31.74,16.78,59.9,24.5,19.61,5.38,32.56,8.1,38.5,8.1a13.74,13.74,0,0,0,3.37-.37c1.34.16,2.49.28,3.33.34s1.74.1,2.56.1c8.81,0,12.14-4.1,13.38-7.55l0-.06,18.05-6.78-11.62-1.72a11.18,11.18,0,0,0,1.74-6.26h0c.06-.25.13-.54.2-.86a19.35,19.35,0,0,0,2.69-5.29,29.72,29.72,0,0,0,1.74-9.39,17.06,17.06,0,0,0-2.18-8.92,16.76,16.76,0,0,0-.21-15c-2-4.18-3.41-6.85-5.64-9-3.45-3.33-7.26-3.73-9.78-4l-.51-.05c-2.14-.23-12.08-2.05-21.16-3.8l3.11-6.05c2.48-4.82,4.82-9.37,5.65-11.08,2.41-4.94,1-9.27-1.1-12.49.41-.26.83-.53,1.24-.83,1.25-.9,2.57-1.94,4-3a53.9,53.9,0,0,1,6.46-4.65c8-3.67,8.06-13.28,8.16-24.41,0-2,0-4.6.15-5.72,1.53-4.9,1.76-14.35-1.74-21.3a17.07,17.07,0,0,0-10.76-9.11c-7-1.88-17.43-3.91-23-4-8.55-.1-14.14-.14-18.7-.14Z"/><path class="cls-1" d="M449.5,216.51c-8.08,3.8-8.75,4-9,4.12a8,8,0,0,1-2.64.47c-3.22,0-6.73-2.37-6.81-7.57a24.11,24.11,0,0,0-.35-2.94l-.08-.53a6.15,6.15,0,0,1-1-.94,6,6,0,0,1-1.4-5.07c-2.55-1.71-2.95-4.48-3.09-7.22a39.84,39.84,0,0,1,.11-5.45c.12-1.8.29-4.35.38-9.09l-.77-.76c-1.86-1.86-1.89-3-1.81-16.84,0-2.69,0-6.23,0-7.77l-.26-.28c-3.63-4-2.16-7-1.08-8.4a5.29,5.29,0,0,0,.08-.79l0-1.84.2-.23c-1.2-.49-3-1.38-6.21-3l-.85-.43a5.12,5.12,0,0,1-2.76-5.77,5.28,5.28,0,0,1,.31-.94L412,135c-5.16-2.23-12.23-5.28-16.51-6.57-2.58-.77-5.35-1.71-8-2.61-2.89-1-6-2-8.35-2.67l-.11.4h-3.84c-2,0-10.07-3.37-12-5.95-3.18-4.26-.09-10,1.39-12.23a16.66,16.66,0,0,1,2.84-3.26,6.25,6.25,0,0,0,1.13-1.23,11.34,11.34,0,0,1,.39-3l.13-.49c1.45-5.57,3.88-13.49,8.23-17.87a21.88,21.88,0,0,0,2.51-3,13.53,13.53,0,0,1,5.77-4.79,32.94,32.94,0,0,1,6.86-3l.91-.2.92.14c4.26.65,9.25,1.21,27.35,1.46,12.05.17,25.21,1,35.78,1.76,6.11.41,11.38.76,15.28.91,10.65.39,27.79,2.29,33.93,4.15a64.51,64.51,0,0,0,6.9,1.51c3.2.58,5.8,1,7.74,2.06h0a5.56,5.56,0,0,1,4,1.66c1.83,1.88,1.76,4.43,1.72,6.12-.05,1.91-.07,3.91-.09,5.75,0,2.37,0,4.42-.12,5.79-.06,1-.75,10-6.69,15-2.94,2.47-7,5.4-9.93,7.42a13.59,13.59,0,0,1,2.87,2.23l0,0a4.85,4.85,0,0,1,2.56,1.61l13.61,7.5L521,134l-.37,1.33-.69,2.39a5.26,5.26,0,0,1,.46,2.92l-.6,4.31h-4.4a11.32,11.32,0,0,1-2.72-.48c0,.18-.1.36-.16.54a5.07,5.07,0,0,1-2.31,2.76,5.37,5.37,0,0,1-4.76,2.46,23.64,23.64,0,0,1-4-.51,5.27,5.27,0,0,1-3.35,1.11c-1.92,0-7-1.06-11.71-2.78a4.81,4.81,0,0,1,.84,2.89,5.22,5.22,0,0,1-4,5,5.87,5.87,0,0,1-1.7.24,8.74,8.74,0,0,1-2.25-.33,6.47,6.47,0,0,1-4.12,1.59c0,.24,0,1,0,1,.06,3.87.06,6.56.05,8.93,0,1.82,0,3.4,0,5.13,0,.8.06,2.11.12,3.74.3,8.71.57,18.37,0,22.88a8.59,8.59,0,0,1-1.76,4.64,5.09,5.09,0,0,1-.37.52,6,6,0,0,1-1.4,2.63,5.34,5.34,0,0,1-3.67,1.69L464.71,212l-.05-1.93a4.93,4.93,0,0,1-2.74,1,6.09,6.09,0,0,1-4.7,2.67l-2.48,13.49Z"/><path class="cls-2" d="M393.47,73.75c4.37.67,9.29,1.26,28,1.52s40,2.26,50.95,2.66,27.32,2.32,32.67,3.94,12,2,14,3.37a2.51,2.51,0,0,0,1.44.44c.25,0,.47,0,.65,0,.57,0,.81.29.75,2.64-.11,4.3-.07,9.1-.2,11.38s-1.16,8.28-4.92,11.44-10,7.48-12.43,9.08a16.25,16.25,0,0,1-5.61,2.1s7.41,3.71,8.86,4.41c1.15.56,2.41,2.19,3.35,2.71-1,0-2.49.32-1.5,1.06a69.89,69.89,0,0,0,6.26,3.51s0,0,0,0c-.34,0-2.9-.51-4.2-.51-.46,0-.77.06-.76.24,0,.73-3.46,1-2.27,1.59s4.19,3.85,6.32,4.46c.52.15.67.23.53.23a25.83,25.83,0,0,1-7.23-2.62c-4.4-2.27-15.67-6.42-18.83-6.42a1.62,1.62,0,0,0-.61.09c-1.51.65,4.46,3.51,9.88,5.44-4.83-1.47-12.27-3.64-13.3-3.64-.4,0,.16.33,2.2,1.15,10.88,4.37,17.58,6.35,18.46,7.41s2.48,2.05,1.57,2.11h0c-1,0-16.09-5.64-16.09-5.64s2.57,2.77,11,5.68c3.76,1.3,4,1.73,3,1.73a24.62,24.62,0,0,1-5.88-1.15c-2.21-.87-14.78-5.84-16.4-6.36a1.42,1.42,0,0,0-.43-.08c-1.07,0-.28,2,4,3.54,4.8,1.74,7.44,3.1,10.79,4.23.86.29.95.43.5.43a44.56,44.56,0,0,1-11.93-3.25c-6.4-2.78-13.68-5-13.68-5s-1.72,1.51-1.85,5.69,2.19,4,6.34,5.63,6.2,1.82,4.84,2.23a.89.89,0,0,1-.25,0c-1.64,0-7.11-2.71-8.55-2.71-.18,0-.3,0-.33.14-.34.92.4,2.19,2.52,2.89,1.43.47.75,1-.57,1a6.66,6.66,0,0,1-2.21-.39,4.23,4.23,0,0,0-1.28-.33c-1.08,0-1,1.47-.95,6.79.11,6.89,0,10.1.08,14.08s.87,20.25.15,25.9c-.17,1.33-.32,1.82-.44,1.82s-.12-.13-.18-.35a.9.9,0,0,0,.07-.23c0-.12,0-.18-.08-.18l-.07,0c-.17-1-.26-2.65-.31-2.65a2.45,2.45,0,0,0,0,.58c0,1,0,1.75,0,2.32a3.36,3.36,0,0,0-.94,2.4c.06.88-.2,1.4-.49,1.4s-.54-.43-.61-1.4c-.09-1.15.1-1.51,0-1.51a10.51,10.51,0,0,1-1.08.44s0,.52,0,1.1c-.07-.33-.19-.46-.32-.46-.4,0-1,1.17-1,2.12,0,.57-.16.82-.32.82s-.58-.6-.76-1.47c0-.22-.09-.31-.14-.31-.24,0-.51,2.29-.89,2.29a.14.14,0,0,1-.1-.06.22.22,0,0,0-.17-.09c-.32,0-.64.89-.85.89s-.15-.13-.2-.49c-.2-1.47-1.69-1.93-.44-4.68.55-1.21,1-1.42,1.13-1.44h0s0,0,0,0h0c-.12,0-.48-.19-1.13-.9a1.51,1.51,0,0,0-1-.61c-1.06,0-1.36,2.84-1.43,6.52-.06,3-.89,4.27-1.66,4.27-.43,0-.85-.41-1.1-1.17a65,65,0,0,1-1.44-10.07c0-.62,0-1,0-1a.41.41,0,0,0,0,.09c0,.18,0,.49,0,.9,0,2.55,0,9.25-.07,11,0,.57,0,.78-.08.78s-.32-1.17-.61-1.17c-.07,0-.15.07-.23.25a16.25,16.25,0,0,0-.89,3.09l-.74-1.51s-12.08,5.72-13,6a3,3,0,0,1-1,.18c-.85,0-1.78-.5-1.82-2.65,0-3.06-1.39-7.08-.24-7.08h0c.49,0,1.34.16,2,.16.95,0,1.58-.29.52-1.63-1.55-2-2.26-5.95-2-5.95,0,0,.12.13.23.43s.26.47.41.47c.72,0,1.56-3.29.31-3.63s-2.34-1.72-2.72-1.72c-.13,0-.16.17,0,.62.44,1.74-.29,3.62-.06,5.3.2,1.47.22,5.71-.65,5.71a.61.61,0,0,1-.42-.27c-1.3-1.51,2.27-4-.05-5.06s-3,0-3.25-4.25.46-4.77.53-18-.3-28.64-.14-30c.14-1.16-.82-4.87-1.12-4.87,0,0-.08.09-.08.31,0,1.55.22,32-.77,33.88,0,.08-.08.12-.11.12-.81,0-.12-20.6-.52-22.48s-3.28-3.25-2.22-4.32,1.06-3.74,1.06-3.74a6.38,6.38,0,0,0,1.24-4.32c-.32-2.34,0-5.13-1.5-5.16h0c-1.45,0-.89,3-1.73,3h0c-.91-.12-6.61-3.1-7.56-3.57s4.34-1.79,7.42-1.79h.35c2.74,0-2.35-1.94-4.73-2.67s-16.12-7.19-23.25-9.34-16.17-5.67-19.89-6c-.82-.08-1.43-.12-1.86-.12-1.56,0-1,.45-.11,1,.11.06.13.09.09.09-.4,0-7-2.68-8-3.94s.18-4.39,1.56-6.5,2.74-2.56,4-4.54.46-2.37,1-4.4,2.89-11.91,7.07-16.12,2.73-4.6,7-6.82a30.37,30.37,0,0,1,5.64-2.51m117.82,55.66c.46,0,.74.06.43.14l-.15,0a1.09,1.09,0,0,1-.51-.16h.23m-12.67,7.09c2.47.75,4.26,1.32,4.17,1.32l-.73-.2c-1.06-.3-2.24-.69-3.44-1.12M469.7,199.62c0,.15.05.28.08.39a1.7,1.7,0,0,1-.38.49c0-.18,0-.39,0-.63a1.08,1.08,0,0,1,.33-.24m-.3.88c0,.47,0,.69-.08.69s-.07,0-.13-.08c-.22-.22,0-.38.21-.61m-3.12,1.8a4.19,4.19,0,0,1,.07.84c0,.6,0,.83,0,.83s0-.9-.05-1.67M393.14,63.58l-1.82.4a38,38,0,0,0-8.07,3.39,18.45,18.45,0,0,0-7.53,6.29,17,17,0,0,1-2,2.36c-5.21,5.24-7.93,14-9.53,20.14l-.12.45a16.47,16.47,0,0,0-.43,2.19,20.68,20.68,0,0,0-3.29,3.87c-4.34,6.63-4.78,13.18-1.21,18,1.55,2.08,3.82,3.64,8.09,5.57,4.9,2.21,6.37,2.38,7.91,2.38h4.61c2,.61,4.28,1.39,6.09,2,2.72.92,5.54,1.87,8.19,2.66,3.24,1,8.59,3.2,13,5.11a10.13,10.13,0,0,0,5.64,8.07l.78.4,2.61,1.32C415,151,415,154.82,418,158.79c0,1.68,0,4,0,5.87,0,3.12,0,6.34,0,9,.07,4.24.12,7.67,2.54,10.64-.09,3.34-.22,5.32-.32,6.79a44.46,44.46,0,0,0-.11,6c.1,1.91.31,5.94,3.06,9.13a11,11,0,0,0,2.64,6.15l.11.13a10.67,10.67,0,0,1,.12,1.11c.13,8.2,6,12.49,11.81,12.49a12.94,12.94,0,0,0,4.3-.75c.37-.13.86-.3,5-2.23l9.82,20,3.65-20.24,9.87-9.56a10.38,10.38,0,0,0,5-2.95,10.78,10.78,0,0,0,2.25-3.69,10.44,10.44,0,0,0,1.58-2.64l.2-.21v-.29q.2-.55.35-1.14c.05-.21.1-.43.15-.65l.33-.71-.12-.49c0-.23.07-.48.1-.74.62-4.88.37-14.37,0-23.68-.05-1.6-.1-2.89-.11-3.67,0-1.67,0-3.23,0-5s0-3.69,0-6.14l.2-.1c.37,0,.75.05,1.12.05a10.87,10.87,0,0,0,3.14-.46,10.23,10.23,0,0,0,6.74-5.92,32.5,32.5,0,0,0,6.66,1,10.5,10.5,0,0,0,4.24-.89,22.21,22.21,0,0,0,3.15.28,10.3,10.3,0,0,0,8.28-3.81,10.16,10.16,0,0,0,1.6-1.47h.08a9.94,9.94,0,0,0,10-11.12l22.09-.82-28.63-15.78c1.58-1.18,3.14-2.39,4.48-3.52,7.39-6.21,8.35-16.51,8.46-18.51.09-1.5.11-3.62.13-6.07,0-1.87,0-3.79.08-5.63.05-2.06.17-6.35-3.13-9.74a10.46,10.46,0,0,0-6.39-3.11,37.56,37.56,0,0,0-8.12-2A59.87,59.87,0,0,1,508,72.29c-6.6-2-24-4-35.2-4.36-3.82-.14-9.06-.49-15.13-.9-10.63-.71-23.86-1.6-36-1.77-19.23-.26-23.35-.9-26.66-1.4l-1.84-.28Z"/><path class="cls-1" d="M528.24,156.4c-4.63-1-8.63,5-13.59,4.47-.87.16-11.07-2-15.09-4.46-1-.43-1.91-.82-2.72-1.13a16,16,0,0,0-2.06-.67c-4.4-1,.54-.77,2.19-1.49s-8.08-3.73-10-4.87,4.73-1.42,7.32-.28c2.15.95,9.16-.66,14,.06a8.79,8.79,0,0,1,2.6.75c.7-.38,1.7.62,2.7.62,0,0-1-1-1.05-1.1a14.15,14.15,0,0,0-1.5-.63c-.59-.21-1.28-.42-2.06-.62-4.16-1.06-1.27-1.75,2.18-1.51a17.91,17.91,0,0,1,2.59.36,18,18,0,0,0,1.87.93c1,.56,2,1.56,3.13-.52a2.87,2.87,0,0,0-1.08-1.55,8,8,0,0,0-2.47-1.63c-4.38-1.92,3.18-2.18,4.73-1.89s11.81-16.07,13.18-18.16"/><path class="cls-1" d="M601.85,84.55C595.43,73.78,584,49,581.24,51.76c0-4-1.75-5.25-6.62-4.75a12.77,12.77,0,0,1-6.77-.88,19.37,19.37,0,0,1-4.61-5.37c-11,15-18,33-26.35,49.93q-1.09,2.35-2.08,4.71T533,100.16c-.69,2-1.3,4-1.88,6a51.18,51.18,0,0,0-2.48,6.27c-.71,2.11-1.28,4.23-1.78,6.36-17.74,44.86-17.62,70.82-.16,78.41,3.55-4.49,8.55,7.51,14.55,5.51-.44.44,26.78-15.69,28.28-11.47s-10.84-8.75-10.37-8.92c.81-.3,8.23,8,8.6,5.41.51-3.52,4.76,3.35,5.24,3.17l1.79-.64c2.61-.92-2.39-2.76-2.39-2.55-1.32-.93,6.23-.5,2.42-1.7-21.21-6.67-22.58-17.59-22.58-26.3,6,1,8-5,12-7a24,24,0,0,0-3.33,4,23.09,23.09,0,0,0,7.16-2.61q.88-.51,1.72-1.09t1.65-1.2c5.08-3.56-.92,1.44,4.91-2.77.63-.57,1.26-1.15,1.87-1.74s1.2-1.2,1.79-1.84q.79-.67,1.58-1.31c.6-.41,1.21-.8,1.82-1.15a18,18,0,0,1,5.83-2.24c5-1,8,10,13,15,0-1,6,2,6,6-2-1-2-5-5-5,2,2,9,10.5,11,12,0-1,3,1,2,1,7,6,16,12,25.3,9.25L639,175.66c.94-.29,2-.31,2.34-.81s-.35-1.35-.6-2.14c1.73.2,2.12,2.82,4.19,2.12l-2.06-3.3c2.2-.4,2.38-.82,1.44-2.4-.2-.33-.3-.72-.52-1-.77-1.09-.43-1.7.83-2a4.17,4.17,0,0,0,.81-.39l-2.49-4.69.58-.07c.1-.64.48-1.4.26-1.91a42.51,42.51,0,0,0-2.19-3.92c-.1-.18-.29-.45-.22-.57.85-1.72-.55-3-1-4.42a50.1,50.1,0,0,0-4.08-9.11c-1.66-1.28-3.31-2.57-5-3.87-.25-.2-.58-.44-.65-.77a12,12,0,0,0-2.4-5c-1.38-1.83-3-3.3-4.42-5.09a15.45,15.45,0,0,1-2.32-3.88m-48.43,3.7c-.42.8,7-6.07,6.2-5.55-31,21.41-10.08-26.34-9.13-24.58s-3.14-6.48-2.31-4.71c1.23,3.88,3.18,7.64,4.46,11.45.26.76.49,1.53.7,2.31C574.52,110.26,576.84,121,573.11,126.15Z"/><path class="cls-1" d="M557.25,78.46"/></g></g></svg>