<svg xmlns="http://www.w3.org/2000/svg" viewBox="0 0 670.02 244.22"><defs><style>.cls-1,.cls-2{fill:#231f20;}.cls-2,.cls-4{stroke:#231f20;stroke-miterlimit:10;}.cls-3{fill:#fff;}.cls-4{fill:none;}</style></defs><title>final2</title><g id="Layer_2" data-name="Layer 2"><g id="Layer_2-2" data-name="Layer 2"><path class="cls-1" d="M359.76,28.06c.12.48,2,1.11,1,1.71a20.29,20.29,0,0,1-4.57.85c-1.84.17-4,.24-6.23.24a49.2,49.2,0,0,0-7.94.22c-1.18.11-2.33.23-3.48.31-7.42.68-11.72-.92-8.46-2.18.35-.29.75-.58,1.1-.86a3.22,3.22,0,0,0,.77-.77,14.89,14.89,0,0,1,1.45-.76,17.67,17.67,0,0,1,1.9-.73c4.24-1.93,13.52-3.66,16.76-5.43,1.08-.59,1.49-1.18.82-1.78a14.93,14.93,0,0,0-5.56-1.63,85,85,0,0,0-9.19-.77c-10.49-.41-24.09.17-33.73.82-1.17.1-2.31.21-3.41.33A58.84,58.84,0,0,0,292.4,19c-2.49.67-2.17,1.79,1.07,3.34.52.25,1.26.5,1.93.77-1.12-.15-1.07,0-.53.17.72.28,1.11.49.3.56-.22,0,.08.18,0,.26s-.21.19-.32.28l-.44-.06,2.1,1-1-.19.24.31-1.09-.23-.22,0,1.6.48-.77.81-1.19-.19-.18,0,2.07.55c.11.24.21.46.32.7a14.79,14.79,0,0,0-3.54-.51A7,7,0,0,1,292,27c-1.4-.29-2.81-.58-4.17-.89-1-.22-2.08-.46-2.77-.7-2.06-.72-3.87-1.44-5.93-2.15-1.38-.48-2.13-.89-2.06-1.23s.45-.44.53-.69-.07-.54,0-.79c0-.07.37-.08.54-.13s.57-.08.49-.17c-.53-.58.32-.91.74-1.31.58-.56,1.55-1,1.41-1.74,0-.2.4-.32.54-.5a1.81,1.81,0,0,0,.22-.54l-.4-.08-1.18.56-.44-.07c0-.09-.21-.21-.09-.27a12.36,12.36,0,0,1,1.47-.54c1.19-.36,2.31-.74,3.68-1.06,1.52-.35,3.16-.68,5-.95,2-.3,4.27-.55,6.63-.75,3.51-.3,7.06-.6,10.88-.81,3.6-.2,7.51-.3,11.4-.4,1.91-.05,4.08,0,6.14,0h4.81a5.81,5.81,0,0,0,.73,0,1.45,1.45,0,0,1,1,.05,2.09,2.09,0,0,0,.5,0c.65-.26,2.51,0,4.08.1.75.06,1.4.06,2.05.07h2.5l.26.1h-1.89c1.21.15,2.22.16,3.32.23s.29-.82,1.87-.44c22.77.78,40.53,5.34,28.67,9.78-.48.3-1,.6-1.49.89s-1.09.57-1.7.84a24.92,24.92,0,0,1-4.48,1.44c-1,.18-1.83.38-2.63.58-3.58.47-3.44,1.19-3.36,2.09"/><path class="cls-1" d="M345.68,86.54c2.85-1,6-4.18,9.91-4.23a12.11,12.11,0,0,1,6.64,3.32,15.21,15.21,0,0,1,3.58,6.19c-.07,3.59,1.92,5.92,4.06,8,1.07,1.06,2.18,2.06,3.08,3.13,6.62,6.65-1.48,14.15-10.14,13-1.86.16-3.75.26-5.53.4a43,43,0,0,0-4.88.6c-1.69,0-3.37,0-5.06-.15a39.55,39.55,0,0,1-5-.68c-13-1-26.6-7.67-38.3-7.89a21.89,21.89,0,0,0-11,2.39,19.21,19.21,0,0,0-7.86,8.9,22.69,22.69,0,0,0-1.45,11.19c1.17,11.91,9.31,25.31,16.54,34.38,1,1.06,2,2.07,3.13,3a29.9,29.9,0,0,0,11.5,6.54c4.88,1.42,11.49-1,19.61-7.25,1.3-1,2.59-2.27,3.95-3.46-.51,1.46.13,1.21,1.2.25,1.4-1.26,2.56-2.08,3.25-1.35.18.2,1.05-.41,1.54-.51a14.88,14.88,0,0,1,1.81-.18l-.19.57,5.13-4-.79,1.47,1.8-.83-1,1.58.22.19,2.33-2.58,5.09-.66-.74,1.62.34.11,2.56-3.21,4.06-1.62c-1.06,1.82-2.67,3.76-1.85,4.7.06.07-.34.67-.56,1-1.29,2-2.52,4.06-3.9,6.07a28.66,28.66,0,0,1-3.26,4.24c-3.58,3.51-7.28,6.75-10.86,10.25-2.4,2.35-4.6,3.89-6.64,4.44-1.52.41-2.8.33-4.29.69s-3.19,1.05-4.74,1.47c-.43.12-.63-.24-1-.34s-.68-.46-1.17-.22c-3.29,1.63-5.55,1.32-8.13,1.62-3.56.41-6.81.27-10.92,1.69a15.38,15.38,0,0,1-3.16.34c-1.06.17-2.21.5-3.32.76l-.32.56,3.78.22-.28.6a5.61,5.61,0,0,1-1.59.58,25,25,0,0,1-3.74-.57,64.55,64.55,0,0,1-7.61-2,36.43,36.43,0,0,1-7.4-3.59,39.34,39.34,0,0,1-6.78-5.68,86.13,86.13,0,0,1-8.6-10.1,88.56,88.56,0,0,1-6.32-11.39,48,48,0,0,1-2.18-6.51c-.54-1.7-1-3.44-1.59-5.13a1.45,1.45,0,0,0-.53-.69c-.26-.21-1,0,0-1.19.1-.13.09-.56,0-.58-1.77-.22-1-2.64-.8-4.53a6.84,6.84,0,0,0-.32-2.3c-.22-.93-.52-1.79-.78-2.68l.5-.46.59,2a10.94,10.94,0,0,0,.22-3.95c0-1.29-5,1.2-3.28-1.19-3.17-25.64,18-52.88,48.72-48.39,2,0,3.93-.07,5.85,0s3.8.11,5.63.27A38.75,38.75,0,0,1,324.51,87a36.88,36.88,0,0,0,4.36,1.74c4,2.95,8.33,1.47,13.66-.24"/><path class="cls-1" d="M380,173.46c-3.38,3.74-6.53,7.67-10.07,11.27-8.45,8.59-16.88,17.21-29.93,21.59a28,28,0,0,1-5.36,1.23c-1.42.18-3,.35-5.57-1.7-2-1.62-3.9-4.77-3.53-6.34.65-2.74,1.24-5.58,2.69-7.7,2.39-3.5,5.72-6.24,8.18-9.69,3.46-4.87,6.49-10.07,9.67-15.17,3.38-5.42,6.88-10.75,10-16.37a48.26,48.26,0,0,0,4.3-10.53,191.92,191.92,0,0,0,5.31-22.5c.86-5.6.43-12.05.32-18.27a15.08,15.08,0,0,0-1.7-5.07c-1.34-2.89-3.59-5-7.29-6.66a55.53,55.53,0,0,0-15.1-4.86c-10-1.32-17.44.5-24.83,2.32A83.7,83.7,0,0,0,293.56,95.1,97.71,97.71,0,0,0,279,105.24c-6.53,5.8-12.12,12.44-15,21.18-2.34,7.07,1,16.68,10.11,28.5,1.45,1.88,3.31,3.77,5.06,5.74-2.18-.75-1.83.19-.43,1.74,1.85,2,3,3.72,1.89,4.72-.3.27.57,1.53.7,2.23a20.7,20.7,0,0,1,.19,2.62l-.86-.28,5.85,7.46L284.28,178l1.17,2.62-2.34-1.47-.29.31,3.79,3.39.78,7.39L285,189.18l-.18.49,4.72,3.73,2.21,5.93c-2.65-1.56-5.48-3.93-6.93-2.74-.11.09-1-.49-1.51-.82-3-1.88-6-3.68-9-5.69a41.51,41.51,0,0,1-6.25-4.75c-1.92-2-3.79-3.93-5.65-5.92-.62-.66-1.23-1.32-1.84-2-12.5-18.21-24.5-39.21-25.5-62.21,1,3-2,4-2,7,0-1,0-2,.08-3s.13-2,.24-2.94c1-9.73,4.51-18.83,8.65-27.6.3-.63.6-1.23.92-1.83a43.35,43.35,0,0,1,3.13-5.15,59.81,59.81,0,0,1,8.83-9.81,133.35,133.35,0,0,1,15.56-12.42c5.32-3.49,11.39-6.29,17.42-9.11,3-1.38,6.56-2.13,9.9-3.13,2.58-.78,5.22-1.49,7.8-2.27a2.26,2.26,0,0,0,1.06-.77c.32-.38,0-1.51,1.8-.06.19.15.84.14.87-.06.4-2.57,4-1.37,6.85-1.13a10.76,10.76,0,0,0,3.48-.45c1.41-.31,2.72-.74,4.07-1.12l.67.72L321.3,43c4.67,1.48,6.61-1.72,13.65,3.37l.63-1.36,4.26,1.13.74,1.82c.59.1,1.18.18,1.78.3,4.38.85,8.61,1.41,13.2,2.65a37,37,0,0,1,10.57,4.87c3,1.95,6.17,3.07,9,5.16a68.28,68.28,0,0,1,9.42,8.4A55,55,0,0,1,396.11,88.5a60.33,60.33,0,0,1,3.91,21c0,11.45-.66,22.46-4.4,31.4-4,9.45-8.79,18.26-13.23,27.36"/><path class="cls-2" d="M312.41,81.49c16.3.35,47,13.17,50.2,28.56,0,0-2.63-32.63-20.94-35.94S312.41,81.49,312.41,81.49Z"/><path class="cls-2" d="M305.69,81.71c-13.77,4.44-36.09,20.41-34.15,30.84,0,0-7.58-21.07,7-27.88S305.69,81.71,305.69,81.71Z"/><path class="cls-1" d="M627.84,118.89A59.32,59.32,0,0,1,640.18,111c1.32-1.13,2.63-1.67,4-1.22.14,0,.39.07.43,0,.72-1.65,2-1.42,3-2.23a17.26,17.26,0,0,1,3.45-1.87c1.49-.75,3-1.47,4.56-2.24l.14,1.1a4,4,0,0,0,.57-1.06c.16-1.24.88-1.39,1.37-1.22,1.18.4,1.77.17,2.5-1.45.39.9.81.74,1.08-.24.37-1.33.79-1.7,1.65-1,.23.18,1-.28,1.22-.72a14.4,14.4,0,0,0,.74-2.66l-2.53.34a7.39,7.39,0,0,1,3.38-4.19c.48-.26,1-.5,1.44-.81a5.91,5.91,0,0,0,2.6-4.9c.28-4,.39-8-.94-11.29a34.57,34.57,0,0,0-3.23-5.46c-2.16-3.47-5.33-5-8-7.53a60.74,60.74,0,0,0-5.07-4,2.5,2.5,0,0,0-.92-.5c-.86-.19-1.75-.26-1.28-1.69a53.41,53.41,0,0,0-3.09,5c-1,1.74-2.46,3.23-2.76,5.32l-.59-1.79c-6.84,10.65-17.19,17-27.79,23.16l-2.47,1.42c-7.9,4-14.51,8.75-22.07,13.47,1.89-1.89,3.78-1.89,5.67-1.89-.94,3.78-4.72,2.83-7.56,2.83,1.89,4.72,3.78-.94,3.78,0,.94,3.78-8.5-.94-7.56,5.67-2.83,0-4.72,2.83-7.56,0h3.78c-3.78-1.89-6.61.94-10.24,1.19l-2.4.74a79.86,79.86,0,0,1-12.73,2.95L554,115a23.24,23.24,0,0,1-4.36.6c-2.43.48-5.27-.47-8.1,1.42,0,.94.94,2.83.94,3.32.71,1.16,1.42,2.34.94,3.29a27.74,27.74,0,0,1-3.61,3.35c-.64.51-1.31,1-2,1.47-3.85,3.68-3.85,10.29-7.63,13.13-3.78,4.72-4.72,9.45-8.25,13.13a5.55,5.55,0,0,1-2.06.9,9.68,9.68,0,0,1-2.92.15,11.71,11.71,0,0,0,5.23,2.09,13.91,13.91,0,0,0,2.73.11c8.1-.31,13.76-5,19-10.22l1.77-1.81,1.76-1.84c1.76-1.84,3.53-3.67,5.42-5.32a4.17,4.17,0,0,1-.6,2.25c-.34.58-1.29.58-1.29,1.53l3.78-3.78c-.94,0-.94.94-1.89.94a20.26,20.26,0,0,1,2.24-2,20.19,20.19,0,0,0,1.54-2.72,8.85,8.85,0,0,1-1,2c-.4.62-.84,1.21-1.26,1.8-2.48,2.83-2.48,4.72,1.3,6.61-1.89-1.89-.94-2.83,0-4.72,11.34,10.39,25.51-8.5,40.07-8.34M594.16,97.6c.2-.57.31-1.44.62-1.67a12,12,0,0,1,2.73-1.41c.18-.07.43.48.49.55l-2.61,3.22Zm45.28,12.23-3.48,1.3a4.73,4.73,0,0,1,.22-1.43C636.69,108.81,638.88,108.9,639.44,109.83Zm-32,13.44a4.12,4.12,0,0,1-.1-1.37c.08-.32.52-.6.83-.74a3.59,3.59,0,0,1,1.36-.37c.24,0,.46.31.69.49a3,3,0,0,1-.54.74C609,122.41,608.34,122.73,607.39,123.26Zm3.94-34.45L614,88C613.57,89.33,612.32,89.82,611.33,88.81Zm1.44-2.18c1-1.83,1.44-2,1.89-.74Z"/><path class="cls-1" d="M5.4,19.1c6.44,14.71,17,34.66,4.2,83.3S-.13,142,1.7,144.11s6,9,10.11,11.49,23.92,15.94,27.16,15A5.89,5.89,0,0,0,43,167.23s.05,4.12.39,3.89,3.32-3,3.67-4.8,2.22-.83,1.1,1.8-2.42,4.7-.36,2.19,4.22-6,4.17-5.19a13.06,13.06,0,0,1-2.2,4.43c-.84,1,.43,1.26,1.41-.16s1.85-4.93,9.47-13.48S70.18,142.08,71,141.8s19.65,29.74,36.11,34.82,25-8.54,26.94-10.5,8.69-4.85,9.14-7-1.08-2.83-1.08-2.83L140.88,155l1.6-1.29-1.22,0a13.45,13.45,0,0,1,3.4-1.73,8.93,8.93,0,0,0,3-1.74,20.66,20.66,0,0,1-3.89-.11c-1.73-.27,3.51-.84,4.74-1.45s3.19-2.35,2-2.71-3.87-2.51-3-2,5-.19,4.53-.41c-9.49-4.88-34-16-55-44,1.37-3,16.09-11.63,27.3-16.32s8.42-23.18,6.48-35.1-3.51-15.61-5.42-16.78-5.24-3.19-7-4.42-8.09.41-14.67,2.35-18.64,7.33-24,11.21-3-.06-3.94-2.78S72,20,68.42,14.73,64,5.13,44.6,2.84,21-.4,14.79.15,1.49,6,2.52,11.11A26,26,0,0,0,5.4,19.1Z"/><path class="cls-1" d="M251.63,242.22c-.62,0-1.27,0-1.95-.08-1-.08-2.79-.28-4.78-.52l-.86.32a4.62,4.62,0,0,1-1.67.21c-2.94,0-11.58-1-36.38-7.82-27.31-7.49-49-19-58.27-23.86-2-1.06-3.45-1.82-4.18-2.14a14.33,14.33,0,0,1-6.58-5.28c-.38-.5-.78-1-1.23-1.55a45.82,45.82,0,0,0-3.48-3.5,13,13,0,0,1-1.2-1.19c-.92-1.13-.9-1.46,2.83-11.77,1-2.81,2-5.47,2.42-7,.87-2.88,7.56-8.08,24.69-19.18l.84-.54c-.37-.06-.8-.11-1.29-.16-1.58-.14-3.17-.4-3.8-1.8a2.83,2.83,0,0,1,.57-2.9,3.44,3.44,0,0,0,.23-.34,1.33,1.33,0,0,0,.15,1.19l.09.13.26-3.7,0-.06a1.4,1.4,0,0,0-.42.42,2.31,2.31,0,0,1,.38-.47,5.12,5.12,0,0,1-.45-.79l-.89-2.08,1.46-.43c0-.1,0-.2,0-.3a2,2,0,0,0,0-.46,2.84,2.84,0,0,1,.87-2.38,4.08,4.08,0,0,0,0-.67,25.76,25.76,0,0,1-3.51-.38,2.82,2.82,0,0,1-2.22-3,2.51,2.51,0,0,1,.34-1.1l0,0a2.69,2.69,0,0,1-1.26-1.81,2.22,2.22,0,0,1,.28-1.44,18.91,18.91,0,0,0-2.73-.68l-1.06-.22a2.79,2.79,0,0,1-1.83-1.33,3.76,3.76,0,0,1-.1-3c-.83-1.33-1.88-3.88-3.28-8.8a82.5,82.5,0,0,1-3.18-21.39c-.15-16,25.54-19.47,39.34-21.32,1.67-.22,3.15-.42,4.38-.62,8.32-1.32,13.48-1.76,27.63-1.76,4.53,0,10.1,0,18.61.14,4.16,0,13.58,1.71,21,3.71a9.07,9.07,0,0,1,5.69,5c2.69,5.35,2.17,13,1.13,15.67-.33.83-.37,4.79-.4,7.68-.1,9.75-.38,15.78-3.51,17.22-2.21,1-5.32,3.47-8.07,5.64-1.32,1-2.57,2-3.68,2.82a22.92,22.92,0,0,1-4.63,2.42c-2.1.89-3.44,1.5-4,2.63.13.68,1.72,2.34,2.59,3.24,2.28,2.38,4.87,5.07,3.44,8-.79,1.63-3.22,6.35-5.56,10.91-2.48,4.82-5,9.81-5.62,11-.72,1.54-2.61,2.53-5.41,3.84,8.67,1.89,31.53,6.22,35.33,6.63l.54.06c5,.52,5.59,1.45,9.07,8.56a8.57,8.57,0,0,1-.23,8.71,11.94,11.94,0,0,1-4.1,3.85l.66.11c3.36.56,5.28,3.34,5.25,7.63,0,3-1.46,9.86-4.17,11a6,6,0,0,1-.24,2.71,6.86,6.86,0,0,0-.26,1.54c.42,2.4-1.63,3.54-2.52,4a5,5,0,0,1-1.89,1.66l-.26.16a2.07,2.07,0,0,1,0,.75,2,2,0,0,1-1.13,1.47,2.61,2.61,0,0,1-2.27,1.19,4.21,4.21,0,0,1-1.19-.19c.21.2.45.43.74.66a2.44,2.44,0,0,1,.84,2.75C256.93,241.5,255.07,242.22,251.63,242.22Z"/><path class="cls-3" d="M211.78,78.75c4.92,0,10.94.05,18.58.14,4.13,0,13.51,1.76,20.51,3.64s6.74,14.81,5.48,18,.63,22.2-2.89,23.82-8.62,6.17-12.08,8.66-7.78,2.72-9.34,5.86,7.68,7.86,6.06,11.2-10.05,19.55-11.19,22-11.44,4.72-7,6,34.16,6.89,38.48,7.35,4.43.16,8,7.51-5.09,11.27-7.16,11.27h0c-2.05,0-1.82,1.37,5,2.5s2.1,14.61.61,14.84-1.49.25-3,.49.12,1.3,1.39,1.41-.34,2.93-.06,4.53-2.3,2-2.26,2.47-1,1-2,1.63a1.4,1.4,0,0,1-.82.32l-.34,0a1.34,1.34,0,0,0-.69.21c-.91.51,2.16,1.24,1.29,1.28-.67,0-.38,1-1.27,1a3.21,3.21,0,0,1-1.11-.27,3.93,3.93,0,0,0-1.32-.34c-.76,0-.67.68-1.3,1.23-.88.76,1,2.54,2,3.4.89.73-.61,1.47-3.73,1.47-.55,0-1.15,0-1.79-.07-3.52-.27-15.47-2-16.58-2-.25,0,0,.09,1.1.29,5.75,1.12,9,1.6,9,1.6a3.38,3.38,0,0,1-1,.08c-2.44,0-10.59-.82-35.85-7.74-33.08-9.07-57.75-24-62.19-25.91s-5-3.88-7.11-6.31-4.2-4.08-4.64-4.63,4.39-12.84,5.61-16.88,25.58-19,26.9-20.08-.82-2-4.39-2.37-1.81-1.13-1.34-2.27-1.34-1.26-1.46-1.26H158a1.48,1.48,0,0,0,1.21-.47c.34-.54,2.41-.65,2.41-.65l-1.14-1a4.6,4.6,0,0,1-1.19-1.49l2-.58s-1.43-.07-1.26-1.1-.24-1.38.47-1.85.69-4-.38-4h-.08a5.15,5.15,0,0,1-.8.05,22.92,22.92,0,0,1-3.41-.35c-.61-.11-.89-1.26-.14-1.3s3.32-.73,2.56-.73h-.36c-.84,0-.35-.42-1.29-.83a6.59,6.59,0,0,1-1.93-.95c-1.1-.74.44-.61.13-2.13s-4-1.93-5.57-2.29.24-2.91-.33-2.93-6.36-13.58-6.52-29.66,31.13-18.22,42-19.95c8.11-1.28,13-1.73,27.32-1.73m-53.87,73.93h0m53.87-77.93c-14.29,0-19.51.44-27.95,1.78-1.19.19-2.64.38-4.33.61-14.41,1.93-41.24,5.53-41.07,23.33a84.55,84.55,0,0,0,3.25,21.91,65.43,65.43,0,0,0,2.32,6.85c.23.56.47,1.15.74,1.7a5.25,5.25,0,0,0,.5,3.69,4.77,4.77,0,0,0,3.11,2.29l1.14.23.82.16q0,.13,0,.27a4.24,4.24,0,0,0,1,2.17c0,.11,0,.23,0,.34a4.84,4.84,0,0,0,3.85,5.07s.43.08,1.06.17q0,.26-.07.53l-2.26.66,1.78,4.15a8.46,8.46,0,0,0,2.14,2.84l-.22,3.15a2.7,2.7,0,0,1-1.62-1.28,3.33,3.33,0,0,1-.27-3,1.62,1.62,0,0,1,.12-.25l-.12.17a4.67,4.67,0,0,0-.78,4.9,4.38,4.38,0,0,0,1.86,2c-17.69,11.59-21.5,15.32-22.39,18.24-.43,1.43-1.43,4.19-2.39,6.85-.84,2.32-1.71,4.72-2.34,6.61-1,3.11-1.73,5.16-.16,7.1a14.21,14.21,0,0,0,1.4,1.4,43.26,43.26,0,0,1,3.34,3.35c.41.47.77.94,1.14,1.44a16.23,16.23,0,0,0,7.37,5.9c.66.29,2.16,1.08,4,2.08,9.32,4.93,31.16,16.47,58.68,24,25,6.86,33.87,7.89,36.91,7.89a6.64,6.64,0,0,0,2.37-.33l.4-.15c1.81.22,3.39.4,4.38.47.73.06,1.43.08,2.1.08,1.59,0,6.44,0,7.73-3.58a4.31,4.31,0,0,0,.13-2.52,4.54,4.54,0,0,0,1.23-1,4.07,4.07,0,0,0,1.74-2.62A6.61,6.61,0,0,0,264,233c2.94-1.73,3.36-4,3.13-5.63,0-.22.13-.65.2-.95a11.29,11.29,0,0,0,.36-2.16c3.28-2.89,4.09-10.35,4.1-12,0-3.87-1.35-6.83-3.8-8.43a12.13,12.13,0,0,0,1.69-2.12,10.66,10.66,0,0,0,.33-10.65c-3.57-7.3-4.64-9-10.66-9.67l-.53-.06c-3.16-.34-19.7-3.43-30-5.52a6.28,6.28,0,0,0,1.67-2.11c.56-1.18,3.11-6.14,5.57-10.94s4.79-9.32,5.59-11c2-4.2-1.47-7.86-3.79-10.28-.42-.44-1-1.06-1.47-1.59a20.9,20.9,0,0,1,2.27-1.06,24.53,24.53,0,0,0,5-2.64c1.15-.83,2.41-1.82,3.75-2.88,2.53-2,5.67-4.47,7.66-5.39,4.29-2,4.57-8.52,4.68-19a59.11,59.11,0,0,1,.29-7.06c1.35-3.54,1.53-11.71-1.24-17.21a11,11,0,0,0-7-6c-6.73-1.81-16.61-3.72-21.5-3.77-8.52-.1-14.09-.14-18.63-.14Z"/><path class="cls-1" d="M438.55,231.25c-1.81,0-3.76-1.21-3.82-4.62a25.71,25.71,0,0,0-.39-3.36c-.12-.76-.23-1.43-.28-2a2.63,2.63,0,0,1-1.49-.92c-1.44-1.68-.53-3.6,0-4.63l.07-.15-.47-.14c-2.43-.71-3.15-1.92-3.34-5.59-.11-2.14,0-4.9.14-8.72s.32-8.39.38-14.44h-1l-.63-.61c-.86-.86-1-1.44-.94-14.71,0-3.57,0-8-.08-8.77a4.59,4.59,0,0,0-1-1.32c-.72-.78-2.62-2.86-.69-4.8a5.23,5.23,0,0,0,.48-2.33v-.69l.42-.54a4.39,4.39,0,0,0,.83-2.81c0-.24-.06-.48-.08-.71a2.27,2.27,0,0,1-1.18.3h-.13l-.17,0c-.74-.09-2-.62-7.33-3.32l-.87-.44a2.14,2.14,0,0,1-1.17-2.4c.27-1.16,1.8-1.91,3.54-2.38a12.29,12.29,0,0,1-2.79-2.85c-1.73-2.17-3.89-4.87-7.81-6-2.53-.76-5.28-1.69-7.94-2.58-4.53-1.53-9.22-3.1-11.45-3.36l-.25.93H387.5c-1.08,0-8.23-2.92-9.59-4.74-2.11-2.82.61-7.44,1.49-8.79a13.66,13.66,0,0,1,2.38-2.7,8.86,8.86,0,0,0,1.62-1.82,2.11,2.11,0,0,0,.46-1.5,8.54,8.54,0,0,1,.29-2.34l.13-.5c.78-3,3.17-12.2,7.46-16.52a24.84,24.84,0,0,0,2.81-3.3,10.64,10.64,0,0,1,4.72-3.88,31,31,0,0,1,6.13-2.69l.37-.08.37.06c4.52.69,9.44,1.24,27.76,1.5,12,.16,25.09,1,35.63,1.75,6.13.41,11.43.77,15.37.91,10.25.38,27.34,2.26,33.17,4a66.47,66.47,0,0,0,7.24,1.59c3.26.59,5.84,1.05,7.31,2a.53.53,0,0,0,.35.12h.24l.41,0a2.55,2.55,0,0,1,1.88.75c.8.82.92,2,.87,3.94s-.07,3.95-.09,5.8c0,2.33,0,4.34-.12,5.65-.05.88-.65,8.67-5.63,12.86-3.83,3.22-10.16,7.61-12.62,9.22a13.16,13.16,0,0,1-1.45.82l4.47,2.22a10.24,10.24,0,0,1,2.41,1.86c.22.21.5.47.72.66a2.17,2.17,0,0,1,1.92,1.12l4.71,2.6-3.4.13,1,.51.95.5,1.27.8-.4,1.46-.42,1.45h-1.54a8.76,8.76,0,0,1-1.29-.16c-.66-.11-1.69-.27-2.43-.33a13.34,13.34,0,0,0,3.35,2.34c1.5.43,2.18,1.24,2,2.42l-.24,1.72h-1.79a25.82,25.82,0,0,1-8.15-2.84c-.69-.36-1.53-.75-2.47-1.16l-.06.44a7,7,0,0,1,2.79,1.68,10,10,0,0,0,.86.85c.77.71,1.83,1.68,1.33,3.1a2.17,2.17,0,0,1-1.74,1.41h0a2.23,2.23,0,0,1-2.5,1.8,26.12,26.12,0,0,1-5.22-.85,2.12,2.12,0,0,1-2.17,1.46c-1.71,0-7.84-1.29-12.72-3.41-4.57-2-9.66-3.7-12.06-4.48A9.13,9.13,0,0,0,485,150c-.06,1.91.1,2,2.83,2.9.68.23,1.43.49,2.25.81,1.47.58,2.67,1,3.55,1.26,1.6.52,3,1,3,2.61a2.22,2.22,0,0,1-1.84,2.13,2.84,2.84,0,0,1-.83.12,11.52,11.52,0,0,1-3.57-.92s0,.08,0,.11c-.1.63-.63,2.08-3.34,2.08a8.68,8.68,0,0,1-2.46-.37c0,1,0,2.48,0,4.12v.29c.06,3.84.06,6.5.05,8.86,0,1.85,0,3.46,0,5.21,0,.66,0,1.83.08,3.36.22,7.94.67,24.47,0,29.34-.14,1.11-.32,2.52-1.19,3.18a2.06,2.06,0,0,1-.41.59l-.35.36a3.23,3.23,0,0,1-.8,2,2.26,2.26,0,0,1-2.1.7,1.91,1.91,0,0,1-1.19.35h-.05a2.21,2.21,0,0,1-1.69.8,2.27,2.27,0,0,1-.37,0,1.89,1.89,0,0,1-.86.47,2.15,2.15,0,0,1-1.67.81h0a2.13,2.13,0,0,1-1.43-.57c-.8,3-2.63,3.25-3.29,3.25a2.73,2.73,0,0,1-1.11-.23,1.74,1.74,0,0,1-1.22.74c-.05.23-.09.42-.11.55l-1.08,6-2.71-5.53c-9.26,2.23-22,5.33-22.93,5.61A4.89,4.89,0,0,1,438.55,231.25Z"/><path class="cls-3" d="M405.83,80.39c4.37.67,9.29,1.26,28,1.52s40,2.26,50.95,2.66,27.32,2.32,32.67,3.94,12,2,14,3.37a2.51,2.51,0,0,0,1.44.45c.25,0,.47,0,.65,0,.57,0,.81.29.75,2.64-.11,4.3-.07,9.11-.2,11.38s-1.16,8.28-4.92,11.44-10,7.48-12.43,9.08a16.25,16.25,0,0,1-5.61,2.1s7.41,3.71,8.86,4.41c1.15.56,2.41,2.19,3.35,2.71-1,0-2.49.32-1.5,1.06a69.85,69.85,0,0,0,6.26,3.51s0,0,0,0c-.34,0-2.9-.51-4.2-.51-.46,0-.77.06-.76.24,0,.73-3.46,1-2.27,1.59s4.19,3.85,6.32,4.46c.52.15.67.23.53.23a25.83,25.83,0,0,1-7.23-2.62c-4.4-2.27-15.67-6.42-18.83-6.42a1.62,1.62,0,0,0-.61.09c-1.51.65,4.46,3.51,9.88,5.44-4.83-1.47-12.27-3.64-13.3-3.64-.4,0,.16.33,2.2,1.15,10.88,4.37,17.58,6.35,18.46,7.41s2.48,2.05,1.57,2.11h0c-1,0-16.09-5.64-16.09-5.64s2.57,2.77,11,5.68c3.76,1.3,4,1.73,3,1.73a24.62,24.62,0,0,1-5.88-1.15c-2.21-.87-14.78-5.84-16.4-6.36a1.42,1.42,0,0,0-.43-.08c-1.07,0-.28,2,4,3.54,4.8,1.74,7.44,3.1,10.79,4.23.86.29.95.43.5.43a44.56,44.56,0,0,1-11.93-3.25c-6.4-2.78-13.68-5-13.68-5s-1.72,1.51-1.85,5.69,2.19,4,6.34,5.63,6.2,1.82,4.84,2.23a.89.89,0,0,1-.25,0c-1.64,0-7.11-2.71-8.55-2.71-.18,0-.3,0-.33.14-.34.92.4,2.19,2.52,2.89,1.43.47.75,1-.57,1a6.66,6.66,0,0,1-2.21-.39,4.22,4.22,0,0,0-1.28-.33c-1.08,0-1,1.47-.95,6.79.11,6.89,0,10.1.08,14.08s.87,26.75.15,32.4c-.17,1.33-.32,1.82-.44,1.82s-.12-.13-.18-.35a.91.91,0,0,0,.07-.23c0-.12,0-.18-.08-.18l-.07,0c-.17-1-.26-2.65-.31-2.65a2.45,2.45,0,0,0,0,.58c0,1,0,1.75,0,2.32a3.36,3.36,0,0,0-.94,2.4c.06.88-.2,1.4-.49,1.4s-.54-.43-.61-1.4c-.09-1.15.1-1.51,0-1.51a10.54,10.54,0,0,1-1.08.44s0,.51,0,1.1c-.07-.33-.19-.46-.32-.46-.4,0-1,1.17-1,2.12,0,.57-.16.82-.32.82s-.58-.6-.76-1.47c0-.22-.09-.31-.14-.31-.24,0-.51,2.29-.89,2.29a.14.14,0,0,1-.1-.06.22.22,0,0,0-.17-.09c-.32,0-.64.89-.85.89s-.15-.13-.2-.49c-.2-1.47-1.69-1.93-.44-4.68.55-1.21,1-1.42,1.13-1.44h0s0,0,0,0h0c-.12,0-.48-.19-1.13-.9a1.51,1.51,0,0,0-1-.61c-1.06,0-1.36,2.84-1.43,6.52-.06,3-.89,4.27-1.66,4.27-.44,0-.85-.41-1.1-1.17a65.05,65.05,0,0,1-1.44-10.07c0-.62,0-1,0-1a.41.41,0,0,0,0,.09c0,.18,0,.49,0,.9,0,2.55,0,9.25-.07,11,0,.57,0,.78-.08.78s-.32-1.17-.61-1.17c-.07,0-.15.07-.23.25a16.26,16.26,0,0,0-.89,3.09l-.74-1.51s-23.77,5.72-24.65,6a3,3,0,0,1-1,.18c-.85,0-1.78-.5-1.81-2.65,0-3.06-1.39-7.08-.24-7.08h0c.49,0,1.34.16,2,.16.95,0,1.58-.29.52-1.63-1.55-2-2.26-5.95-2-5.95,0,0,.12.13.23.43s.26.47.41.47c.72,0,1.56-3.29.31-3.63s-2.34-1.72-2.72-1.72c-.13,0-.16.17,0,.62.44,1.74-.29,3.62-.06,5.3.2,1.47.22,5.71-.65,5.71a.61.61,0,0,1-.42-.27c-1.3-1.51,2.27-4-.05-5.06s-3,0-3.25-4.25.46-11.27.53-24.5-.3-28.64-.14-30c.14-1.16-.82-4.87-1.12-4.87,0,0-.08.09-.08.31,0,1.55.22,32-.77,33.88,0,.08-.08.12-.11.12-.81,0-.12-20.6-.52-22.48s-3.28-3.25-2.22-4.32,1.06-3.74,1.06-3.74a6.38,6.38,0,0,0,1.24-4.32c-.32-2.34,0-5.13-1.5-5.16h0c-1.45,0-.89,3-1.73,3h0c-.91-.12-6.6-3.1-7.56-3.57s4.34-1.79,7.42-1.79h.35c2.74,0-2.35-1.94-4.73-2.67s-4.43-7.19-11.57-9.34-16.17-5.67-19.89-6c-.82-.08-1.43-.12-1.86-.12-1.56,0-1,.45-.11,1,.11.06.13.09.09.09-.4,0-7-2.68-8-3.94s.18-4.39,1.56-6.5,2.74-2.56,4-4.54.46-2.37,1-4.4,2.89-11.91,7.07-16.12,2.73-4.6,7-6.82a30.36,30.36,0,0,1,5.64-2.51m117.82,55.66c.46,0,.74.06.43.14l-.15,0a1.1,1.1,0,0,1-.51-.16h.23M511,143.15c2.47.75,4.26,1.32,4.17,1.32l-.73-.2c-1.06-.3-2.24-.69-3.44-1.12m-28.92,69.63c0,.15.05.28.08.39a1.7,1.7,0,0,1-.38.49c0-.18,0-.39,0-.63a1.08,1.08,0,0,1,.33-.24m-.3.88c0,.47,0,.69-.08.69s-.07,0-.12-.08c-.22-.22,0-.38.21-.61m-3.12,1.8a4.2,4.2,0,0,1,.07.84c0,.6,0,.83,0,.83s0-.9-.05-1.68M405.7,76.33l-.73.16a32.12,32.12,0,0,0-6.62,2.86,12.6,12.6,0,0,0-5.42,4.48,22.78,22.78,0,0,1-2.61,3.07c-4.18,4.21-6.55,12-8,17.42l-.13.49a10.44,10.44,0,0,0-.36,2.84c0,.07,0,.13,0,.19l-.15.25a7.12,7.12,0,0,1-1.3,1.43,15.6,15.6,0,0,0-2.69,3.07c-1.36,2.08-4.23,7.33-1.42,11.08,1.7,2.27,9.4,5.54,11.19,5.54h3.06l.17-.63c2.4.59,6.06,1.82,9.39,2.94,2.68.9,5.45,1.83,8,2.6,3.32,1,5.19,3.33,6.83,5.38l.73.9a4.2,4.2,0,0,0-1.88,2.62,4.13,4.13,0,0,0,2.23,4.64l.85.43c4.76,2.43,6.41,3.17,7.46,3.43l-.07.11-.86,1.09v1.39a5.56,5.56,0,0,1-.16,1.2,4.75,4.75,0,0,0-.6,5.26,8.74,8.74,0,0,0,1.49,2c.15.17.37.4.5.57.07,1.32.05,5.08,0,8.16-.08,13.7,0,14.61,1.52,16.13l1.08,1.08c-.07,5.1-.23,9.12-.36,12.47-.15,3.87-.26,6.67-.14,8.91.22,4.07,1.33,5.83,3.21,6.8a5.2,5.2,0,0,0,1,4.9,5,5,0,0,0,1.16,1c0,.31.1.63.15,1a24.58,24.58,0,0,1,.36,3.08c.07,4.55,3,6.59,5.81,6.59a6.93,6.93,0,0,0,2.22-.38c1.25-.35,12.59-3.11,21.23-5.19l4.7,9.57,2.06-11.43a4.59,4.59,0,0,0,.58,0,5.12,5.12,0,0,0,4.39-2.69l.33,0a4,4,0,0,0,2.73-1,3.65,3.65,0,0,0,.43-.21,4.14,4.14,0,0,0,.76-.12l0,1,2-2,.21-.08h.08a4.32,4.32,0,0,0,3.14-1.38,5,5,0,0,0,1.21-2.42,4.05,4.05,0,0,0,.47-.62,7.43,7.43,0,0,0,1.59-4.2c.56-4.42.32-16.87,0-29.67,0-1.5-.07-2.66-.08-3.31,0-1.73,0-3.32,0-5.16,0-2.36,0-5-.05-8.9v-.28c0-.6,0-1.18,0-1.73H487a5.34,5.34,0,0,0,4.37-1.73,8.84,8.84,0,0,0,2.55.46,4.87,4.87,0,0,0,1.41-.2,4.25,4.25,0,0,0,3.26-4c0-3.1-2.71-4-4.34-4.53-.85-.28-2-.66-3.43-1.22-.88-.35-1.65-.61-2.34-.85-.51-.17-1.1-.38-1.48-.54,0-.1,0-.24,0-.4,0-.33,0-.62.07-.89,2.63.89,6.41,2.24,9.87,3.74,5,2.15,11.42,3.58,13.52,3.58a4.23,4.23,0,0,0,3.06-1.2,24.3,24.3,0,0,0,4.34.59,4.31,4.31,0,0,0,4-2.21,4.09,4.09,0,0,0,2.08-2.33,4.14,4.14,0,0,0,.25-1.51,13.94,13.94,0,0,0,3.58.78,4,4,0,0,0,3.44-6.16l.82-2.75.58-2,5.36-.2-10.64-5.86a4,4,0,0,0-2.37-1.46l-.25-.24a12,12,0,0,0-2.92-2.21l-1.24-.61c3-2.05,8-5.59,11.25-8.32,5.62-4.72,6.28-13.31,6.34-14.27.08-1.36.1-3.4.12-5.77,0-1.8,0-3.84.09-5.74,0-1.61.1-3.82-1.43-5.39a4.51,4.51,0,0,0-3.32-1.36h-.29c-1.81-1-4.42-1.5-7.67-2.08a65.08,65.08,0,0,1-7-1.53C512.58,82.85,495.56,81,485,80.57c-3.91-.14-9.2-.5-15.31-.91C459.1,79,446,78.08,433.93,77.91c-18.16-.25-23.2-.81-27.49-1.47l-.74-.11Z"/><path class="cls-1" d="M539,156.33c-3.51-.76-6.55,3.79-10.31,3.39-.66.12-8.4-1.49-11.45-3.38-.76-.33-1.45-.62-2.06-.86a12.14,12.14,0,0,0-1.56-.51c-3.34-.76.41-.58,1.66-1.13s-6.13-2.83-7.6-3.7,3.59-1.08,5.55-.21c1.63.72,7-.5,10.65,0a6.67,6.67,0,0,1,2,.57c.53-.29,1.29.47,2,.47,0,0-.76-.76-.8-.83a10.74,10.74,0,0,0-1.14-.48c-.45-.16-1-.32-1.56-.47-3.16-.81-1-1.32,1.65-1.14a13.59,13.59,0,0,1,2,.27,13.63,13.63,0,0,0,1.42.71c.74.43,1.5,1.19,2.37-.39a2.18,2.18,0,0,0-.82-1.18,6.07,6.07,0,0,0-1.88-1.24c-3.33-1.46,2.42-1.65,3.59-1.43s9-12.19,10-13.78"/><path class="cls-1" d="M561,75"/><path class="cls-1" d="M587,30.52A21.42,21.42,0,0,0,593.35,26a40.75,40.75,0,0,0,4.35-7.59c10.39,8.17,13.34,21.36,21.23,32.8.69,1.08,1.34,2.18,2,3.32s1.19,2.3,1.72,3.5c.65,1.52,1.22,3.07,1.77,4.69a25.39,25.39,0,0,1,2.34,4.57,41.61,41.61,0,0,1,1.68,5c16.76,32.7,29.33,46.63,12.84,63.33-9.43,8.95-48.08,29.4-47.75,24.77.35-5,4.36-10.93,4.39-10.48.71,8.2,8-17,6.53-25.13a10.36,10.36,0,0,1-2.42,1.39c-3.89,1.5-5.73-1.71-8.91-1.46a9.83,9.83,0,0,1,3.14,1.92,19.29,19.29,0,0,1-6.76,1.44c-.55,0-1.09,0-1.62-.09s-1-.13-1.56-.23c-4.8-.59.87.86-4.64.06-.6-.19-1.19-.4-1.76-.63s-1.14-.48-1.69-.76l-1.49-.38A16.31,16.31,0,0,0,575,126c-1.74,0,12,.29,10,1.06-4.72,1.78-12.28,13.81-17,21.26,0,0-6.63,16.32-8.5,18.83,0-.94-.94,2.58,0,2,0,8.25-42.51,25.26-42.51,25.26v-8.5c.18-.42,1.36-5.14.17-4.71a3,3,0,0,1-.77.08l2.35-5.79-.55.25c-.1-.55-.45-1.06-.24-1.66.56-1.61,1.37-3.27,2.07-4.9.1-.23.27-.58.21-.66-.8-1.16.52-3.17.94-4.72A85.67,85.67,0,0,1,525,153q2.35-3.17,4.68-6.36a3.15,3.15,0,0,0,.61-1.08,21,21,0,0,1,2.27-6c1.31-2.48,2.84-4.76,4.17-7.22m47.95-27.86c.4.53-6.58-1.94-5.86-1.86,29.33,3.3,9.52-30.38,8.62-28.2s3-7.84,2.18-5.71c-1.16,4.34-3,9-4.22,13.25-.24.86-.46,1.71-.66,2.56C583.38,90.22,581.19,101.6,584.71,104.46Z"/><ellipse class="cls-4" cx="328.02" cy="108.66" rx="279" ry="27"/></g></g></svg>