<svg xmlns="http://www.w3.org/2000/svg" viewBox="0 0 894.37 223.93"><defs><style>.cls-1,.cls-2{fill:#231f20;}.cls-2{stroke:#231f20;stroke-miterlimit:10;}</style></defs><title>halos</title><g id="Layer_2" data-name="Layer 2"><g id="Layer_2-2" data-name="Layer 2"><path class="cls-1" d="M355,54.16c2.85-1,6-4.18,9.91-4.23a12.11,12.11,0,0,1,6.64,3.32,15.21,15.21,0,0,1,3.58,6.19c-.07,3.59,1.92,5.92,4.06,8,1.07,1.06,2.18,2.06,3.08,3.13,6.62,6.65-1.48,14.15-10.14,13-1.86.16-3.75.26-5.53.4a43,43,0,0,0-4.88.6c-1.69,0-3.37,0-5.06-.15a39.55,39.55,0,0,1-5-.68c-13-1-26.6-7.67-38.3-7.89a21.89,21.89,0,0,0-11,2.39,19.21,19.21,0,0,0-7.86,8.9A22.69,22.69,0,0,0,293,98.36c1.17,11.91,9.31,25.31,16.54,34.38,1,1.06,2,2.07,3.13,3a29.9,29.9,0,0,0,11.5,6.54c4.88,1.42,11.49-1,19.61-7.25,1.3-1,2.59-2.27,3.95-3.46-.51,1.46.13,1.21,1.2.25,1.4-1.26,2.56-2.08,3.25-1.35.18.2,1.05-.41,1.54-.51a14.88,14.88,0,0,1,1.81-.18l-.19.57,5.13-4-.79,1.47,1.8-.83-1,1.58.22.19,2.33-2.58,5.09-.66-.74,1.62.34.11,2.56-3.21,4.06-1.62c-1.06,1.82-2.67,3.76-1.85,4.7.06.07-.34.67-.56,1-1.29,2-2.52,4.06-3.9,6.07a28.66,28.66,0,0,1-3.26,4.24c-3.58,3.51-7.28,6.75-10.86,10.25-2.4,2.35-4.6,3.89-6.64,4.44-1.52.41-2.8.33-4.29.69s-3.19,1.05-4.74,1.47c-.43.12-.63-.24-1-.34s-.68-.46-1.17-.22c-3.29,1.63-5.55,1.32-8.13,1.62-3.56.41-6.81.27-10.92,1.69a15.38,15.38,0,0,1-3.16.34c-1.06.17-2.21.5-3.32.76l-.32.56,3.78.22-.28.6a5.61,5.61,0,0,1-1.59.58,25,25,0,0,1-3.74-.57,64.55,64.55,0,0,1-7.61-2,36.43,36.43,0,0,1-7.4-3.59,39.34,39.34,0,0,1-6.78-5.68,86.13,86.13,0,0,1-8.6-10.1,88.56,88.56,0,0,1-6.32-11.39,48,48,0,0,1-2.18-6.51c-.54-1.7-1-3.44-1.59-5.13a1.45,1.45,0,0,0-.53-.69c-.26-.21-1,0,0-1.19.1-.13.09-.56,0-.58-1.77-.22-1-2.64-.8-4.53a6.84,6.84,0,0,0-.32-2.3c-.22-.93-.52-1.79-.78-2.68l.5-.46.59,2a10.94,10.94,0,0,0,.22-3.95c0-1.29-5,1.2-3.28-1.19-3.17-25.64,18-52.88,48.72-48.39,2,0,3.93-.07,5.85,0s3.8.11,5.63.27a38.75,38.75,0,0,1,10.18,2.13,36.88,36.88,0,0,0,4.36,1.74c4,2.95,8.33,1.47,13.66-.24"/><path class="cls-1" d="M389.36,141.09c-3.38,3.74-6.53,7.67-10.07,11.27-8.45,8.59-16.88,17.21-29.93,21.59a28,28,0,0,1-5.36,1.23c-1.42.18-3,.35-5.57-1.7-2-1.62-3.9-4.77-3.53-6.34.65-2.74,1.24-5.58,2.69-7.7,2.39-3.5,5.72-6.24,8.18-9.69,3.46-4.87,6.49-10.07,9.67-15.17,3.38-5.42,6.88-10.75,10-16.37a48.26,48.26,0,0,0,4.3-10.53A191.92,191.92,0,0,0,375,85.17c.86-5.6.43-12.05.32-18.27a15.08,15.08,0,0,0-1.7-5.07c-1.34-2.89-3.59-5-7.29-6.66a55.53,55.53,0,0,0-15.1-4.86c-10-1.32-17.44.5-24.83,2.32a83.7,83.7,0,0,0-23.54,10.09A97.71,97.71,0,0,0,288.3,72.86c-6.53,5.8-12.12,12.44-15,21.18-2.34,7.07,1,16.68,10.11,28.5,1.45,1.88,3.31,3.77,5.06,5.74-2.18-.75-1.83.19-.43,1.74,1.85,2,3,3.72,1.89,4.72-.3.27.57,1.53.7,2.23a20.7,20.7,0,0,1,.19,2.62l-.86-.28,5.85,7.46-2.18-1.15,1.17,2.62-2.34-1.47-.29.31L296,150.5l.78,7.39-2.41-1.09-.18.49,4.72,3.73,2.21,5.93c-2.65-1.56-5.48-3.93-6.93-2.74-.11.09-1-.49-1.51-.82-3-1.88-6-3.68-9-5.69a41.51,41.51,0,0,1-6.25-4.75c-5.13-5.21-9.86-10.59-15-15.81-3.44-3.49-5.67-6.69-6.41-9.65-.55-2.2-.38-4.06-.86-6.23s-1.45-4.64-2-6.88c-.16-.63.39-.91.55-1.4s.72-1,.38-1.7c-2.32-4.78-1.76-8.06-2.1-11.81-.48-5.17-.13-9.88-2.09-15.86-.56-1.71-.16-3-.38-4.58s-.67-3.21-1-4.82l-.84-.47-.49,5.49-.89-.41a7.77,7.77,0,0,1-.82-2.31,35.51,35.51,0,0,1,1-5.42,92.71,92.71,0,0,1,3.29-11,53.67,53.67,0,0,1,5.71-10.72,59.81,59.81,0,0,1,8.83-9.81A133.35,133.35,0,0,1,279.83,27.1c5.32-3.49,11.39-6.29,17.42-9.11,3-1.38,6.56-2.13,9.9-3.13,2.58-.78,5.22-1.49,7.8-2.27a2.26,2.26,0,0,0,1.06-.77c.32-.38,0-1.51,1.8-.06.19.15.84.14.87-.06.4-2.57,4-1.37,6.85-1.13a10.76,10.76,0,0,0,3.48-.45c1.41-.31,2.72-.74,4.07-1.12l.67.72-3.09.85c4.67,1.48,6.61-1.72,13.65,3.37l.63-1.36,4.26,1.13.74,1.82c.59.1,1.18.18,1.78.3,4.38.85,8.61,1.41,13.2,2.65a37,37,0,0,1,10.57,4.87c3,1.95,6.17,3.07,9,5.16a68.28,68.28,0,0,1,9.42,8.4,55,55,0,0,1,11.56,19.19,60.33,60.33,0,0,1,3.91,21c0,11.45-.66,22.46-4.4,31.4-4,9.45-8.79,18.26-13.23,27.36"/><path class="cls-1" d="M367.48,151.59c.13,3,2.24,6.94,1.12,10.72a12.11,12.11,0,0,1-5.13,5.37,15.21,15.21,0,0,1-7,1.6c-3.41-1.12-6.23.09-8.88,1.51-1.33.71-2.61,1.47-3.9,2-8.31,4.37-13.09-5.58-9.43-13.52.4-1.82.85-3.66,1.24-5.41a43,43,0,0,0,.87-4.84c.49-1.62,1-3.22,1.63-4.79a39.55,39.55,0,0,1,2.14-4.62c4.77-12.13,15.17-23.16,18.82-34.28a21.89,21.89,0,0,0,.95-11.19A19.21,19.21,0,0,0,353.75,84a22.69,22.69,0,0,0-10.26-4.69c-11.72-2.39-26.93,1.45-37.72,5.68-1.31.65-2.58,1.34-3.82,2.1a29.9,29.9,0,0,0-9.64,9.07c-2.79,4.24-2.45,11.27,1.15,20.88.57,1.53,1.4,3.14,2.15,4.79-1.25-.92-1.2-.23-.59,1.08.8,1.71,1.23,3.06.33,3.5-.24.12.08,1.13,0,1.62a14.88,14.88,0,0,1-.36,1.78l-.49-.35,2.33,6.09-1.17-1.18.26,2-1.21-1.43-.25.15,1.78,3-.87,5.06-1.33-1.19-.21.29,2.31,3.39c.12,1.5.23,2.87.35,4.36-1.43-1.55-2.81-3.66-3.95-3.15-.08,0-.54-.52-.81-.83-1.56-1.83-3.13-3.61-4.65-5.51A28.66,28.66,0,0,1,284,136.1c-2.3-4.45-4.31-8.94-6.6-13.4-1.54-3-2.36-5.54-2.29-7.65.06-1.57.51-2.77.61-4.31s-.06-3.36,0-5c0-.45.41-.53.61-.82s.64-.51.55-1.06c-.59-3.62.38-5.69.85-8.25.65-3.52,1.75-6.58,1.6-10.94a15.38,15.38,0,0,1,.61-3.12c.15-1.07.17-2.26.25-3.4l-.44-.47-1.33,3.55-.49-.45a5.61,5.61,0,0,1-.09-1.69,25,25,0,0,1,1.65-3.4,64.55,64.55,0,0,1,4.13-6.69,36.43,36.43,0,0,1,5.61-6,39.34,39.34,0,0,1,7.42-4.81A86.13,86.13,0,0,1,308.86,53a88.56,88.56,0,0,1,12.75-2.68,48,48,0,0,1,6.87-.17c1.78,0,3.59,0,5.37,0a1.45,1.45,0,0,0,.81-.31c.28-.19.28-1,1.15.31.09.14.51.25.56.13.73-1.63,2.81-.13,4.56.57a6.84,6.84,0,0,0,2.29.38c1,.06,1.86,0,2.79,0l.29.61-2.12,0a10.94,10.94,0,0,0,3.71,1.37c1.23.39.33-5.16,2.1-2.78,25.44,4.52,45.23,32.8,31.9,60.81-.54,1.9-1.09,3.78-1.68,5.6s-1.22,3.6-1.92,5.3a38.75,38.75,0,0,1-5,9.11,36.88,36.88,0,0,0-2.95,3.65c-4,3-3.86,7.52-3.79,13.12"/><path class="cls-2" d="M321.76,49.12c16.3.35,47,13.17,50.2,28.56,0,0-2.63-32.63-20.94-35.94S321.76,49.12,321.76,49.12Z"/><path class="cls-2" d="M315,49.33C301.26,53.77,279,69.73,280.89,80.17c0,0-7.58-21.07,7-27.88S315,49.33,315,49.33Z"/><path class="cls-1" d="M112.6,45.16c2.85-1,6-4.18,9.91-4.23a12.11,12.11,0,0,1,6.64,3.32,15.21,15.21,0,0,1,3.58,6.19c-.07,3.59,1.92,5.92,4.06,8,1.07,1.06,2.18,2.06,3.08,3.13,6.62,6.65-1.48,14.15-10.14,13-1.86.16-3.75.26-5.53.4a43,43,0,0,0-4.88.6c-1.69,0-3.37,0-5.06-.15a39.55,39.55,0,0,1-5-.68c-13-1-26.6-7.67-38.3-7.89a21.89,21.89,0,0,0-11,2.39,19.21,19.21,0,0,0-7.86,8.9,22.69,22.69,0,0,0-1.45,11.19c1.17,11.91,9.31,25.31,16.54,34.38,1,1.06,2,2.07,3.13,3a29.9,29.9,0,0,0,11.5,6.54c4.88,1.42,11.49-1,19.61-7.25,1.3-1,2.59-2.27,3.95-3.46-.51,1.46.13,1.21,1.2.25,1.4-1.26,2.56-2.08,3.25-1.35.18.2,1.05-.41,1.54-.51a14.88,14.88,0,0,1,1.81-.18l-.19.57,5.13-4-.79,1.47,1.8-.83-1,1.58.22.19,2.33-2.58,5.09-.66-.74,1.62.34.11,2.56-3.21,4.06-1.62c-1.06,1.82-2.67,3.76-1.85,4.7.06.07-.34.67-.56,1-1.29,2-2.52,4.06-3.9,6.07a28.66,28.66,0,0,1-3.26,4.24c-3.58,3.51-7.28,6.75-10.86,10.25-2.4,2.35-4.6,3.89-6.64,4.44-1.52.41-2.8.33-4.29.69s-3.19,1.05-4.74,1.47c-.43.12-.63-.24-1-.34s-.68-.46-1.17-.22c-3.29,1.63-5.55,1.32-8.13,1.62-3.56.41-6.81.27-10.92,1.69a15.38,15.38,0,0,1-3.16.34c-1.06.17-2.21.5-3.32.76l-.32.56,3.78.22-.28.6a5.61,5.61,0,0,1-1.59.58,25,25,0,0,1-3.74-.57,64.55,64.55,0,0,1-7.61-2A36.43,36.43,0,0,1,51,146a39.34,39.34,0,0,1-6.78-5.68,86.13,86.13,0,0,1-8.6-10.1,88.56,88.56,0,0,1-6.32-11.39,48,48,0,0,1-2.18-6.51c-.54-1.7-1-3.44-1.59-5.13a1.45,1.45,0,0,0-.53-.69c-.26-.21-1,0,0-1.19.1-.13.09-.56,0-.58-1.77-.22-1-2.64-.8-4.53a6.84,6.84,0,0,0-.32-2.3C23.6,97,23.3,96.1,23,95.21l.5-.46.59,2a10.94,10.94,0,0,0,.22-3.95c0-1.29-5,1.2-3.28-1.19C17.89,66,39.08,38.78,69.78,43.27c2,0,3.93-.07,5.85,0s3.8.11,5.63.27a38.75,38.75,0,0,1,10.18,2.13,36.88,36.88,0,0,0,4.36,1.74c4,2.95,8.33,1.47,13.66-.24"/><path class="cls-1" d="M146.94,132.09c-3.38,3.74-6.53,7.67-10.07,11.27-8.45,8.59-16.88,17.21-29.93,21.59a28,28,0,0,1-5.36,1.23c-1.42.18-3,.35-5.57-1.7-2-1.62-3.9-4.77-3.53-6.34.65-2.74,1.24-5.58,2.69-7.7,2.39-3.5,5.72-6.24,8.18-9.69,3.46-4.87,6.49-10.07,9.67-15.17,3.38-5.42,6.88-10.75,10-16.37a48.26,48.26,0,0,0,4.3-10.53,191.92,191.92,0,0,0,5.31-22.5c.86-5.6.43-12.05.32-18.27a15.08,15.08,0,0,0-1.7-5.07c-1.34-2.89-3.59-5-7.29-6.66a55.53,55.53,0,0,0-15.1-4.86c-10-1.32-17.44.5-24.83,2.32A83.7,83.7,0,0,0,60.49,53.72,97.71,97.71,0,0,0,45.88,63.86c-6.53,5.8-12.12,12.44-15,21.18-2.34,7.07,1,16.68,10.11,28.5,1.45,1.88,3.31,3.77,5.06,5.74-2.18-.75-1.83.19-.43,1.74,1.85,2,3,3.72,1.89,4.72-.3.27.57,1.53.7,2.23a20.7,20.7,0,0,1,.19,2.62l-.86-.28,5.85,7.46-2.18-1.15,1.17,2.62L50,137.79l-.29.31,3.79,3.39.78,7.39-2.41-1.09-.18.49L56.45,152l2.21,5.93c-2.65-1.56-5.48-3.93-6.93-2.74-.11.09-1-.49-1.51-.82-3-1.88-6-3.68-9-5.69A41.51,41.51,0,0,1,35,144c-1.92-2-3.79-3.93-5.65-5.92-.62-.66-1.23-1.32-1.84-2C15,117.85,3,96.85,2,73.85c1,3-2,4-2,7,0-1,0-2,.08-3s.13-2,.24-2.94c1-9.73,4.51-18.83,8.65-27.6.3-.63.6-1.23.92-1.83A43.35,43.35,0,0,1,13,40.34a59.81,59.81,0,0,1,8.83-9.81A133.35,133.35,0,0,1,37.41,18.1C42.73,14.61,48.8,11.81,54.83,9c3-1.38,6.56-2.13,9.9-3.13,2.58-.78,5.22-1.49,7.8-2.27a2.26,2.26,0,0,0,1.06-.77c.32-.38,0-1.51,1.8-.06.19.15.84.14.87-.06.4-2.57,4-1.37,6.85-1.13a10.76,10.76,0,0,0,3.48-.45C88,.81,89.29.38,90.64,0l.67.72-3.09.85c4.67,1.48,6.61-1.72,13.65,3.37l.63-1.36,4.26,1.13.74,1.82c.59.1,1.18.18,1.78.3,4.38.85,8.61,1.41,13.2,2.65A37,37,0,0,1,133,14.36c3,1.95,6.17,3.07,9,5.16a68.28,68.28,0,0,1,9.42,8.4A55,55,0,0,1,163,47.12a60.33,60.33,0,0,1,3.91,21c0,11.45-.66,22.46-4.4,31.4-4,9.45-8.79,18.26-13.23,27.36"/><path class="cls-2" d="M79.34,40.12c16.3.35,47,13.17,50.2,28.56,0,0-2.63-32.63-20.94-35.94S79.34,40.12,79.34,40.12Z"/><path class="cls-2" d="M72.61,40.33C58.84,44.77,36.53,60.73,38.46,71.17c0,0-7.58-21.07,7-27.88S72.61,40.33,72.61,40.33Z"/><path class="cls-1" d="M117.69,203.5c.12.48,2,1.11,1,1.71a20.29,20.29,0,0,1-4.57.85c-1.84.17-4,.24-6.23.24a49.2,49.2,0,0,0-7.94.22c-1.18.11-2.33.23-3.48.31-7.42.68-11.72-.92-8.46-2.18.35-.29.75-.58,1.1-.86a3.22,3.22,0,0,0,.77-.77,14.89,14.89,0,0,1,1.45-.76,17.67,17.67,0,0,1,1.9-.73c4.24-1.93,13.52-3.66,16.76-5.43,1.08-.59,1.49-1.18.82-1.78a14.93,14.93,0,0,0-5.56-1.63,85,85,0,0,0-9.19-.77c-10.49-.41-24.09.17-33.73.82-1.17.1-2.31.21-3.41.33a58.84,58.84,0,0,0-8.6,1.43c-2.49.67-2.17,1.79,1.07,3.34.52.25,1.26.5,1.93.77-1.12-.15-1.07,0-.53.17.72.28,1.11.49.3.56-.22,0,.08.18,0,.26s-.21.19-.32.28l-.44-.06,2.1,1-1-.19.24.31-1.09-.23-.22,0,1.6.48-.77.81L52,201.8l-.18,0,2.07.55c.11.24.21.46.32.7a14.79,14.79,0,0,0-3.54-.51,7,7,0,0,1-.73-.13c-1.4-.29-2.81-.58-4.17-.89-1-.22-2.08-.46-2.77-.7-2.06-.72-3.87-1.44-5.93-2.15-1.38-.48-2.13-.89-2.06-1.23s.45-.44.53-.69-.07-.54,0-.79c0-.07.37-.08.54-.13s.57-.08.49-.17c-.53-.58.32-.91.74-1.31.58-.56,1.55-1,1.41-1.74,0-.2.4-.32.54-.5a1.81,1.81,0,0,0,.22-.54l-.4-.08-1.18.56-.44-.07c0-.09-.21-.21-.09-.27a12.36,12.36,0,0,1,1.47-.54c1.19-.36,2.31-.74,3.68-1.06,1.52-.35,3.16-.68,5-.95,2-.3,4.27-.55,6.63-.75,3.51-.3,7.06-.6,10.88-.81,3.6-.2,7.51-.3,11.4-.4,1.91-.05,4.08,0,6.14,0h4.81a5.81,5.81,0,0,0,.73,0,1.45,1.45,0,0,1,1,.05,2.09,2.09,0,0,0,.5,0c.65-.26,2.51,0,4.08.1.75.06,1.4.06,2.05.07h2.5l.26.1H96.64c1.21.15,2.22.16,3.32.23s.29-.82,1.87-.44c22.77.78,40.53,5.34,28.67,9.78-.48.3-1,.6-1.49.89s-1.09.57-1.7.84a24.92,24.92,0,0,1-4.48,1.44c-1,.18-1.83.38-2.63.58-3.58.47-3.44,1.19-3.36,2.09"/><path class="cls-1" d="M360.4,212.5c.12.48,2,1.11,1,1.71a20.29,20.29,0,0,1-4.57.85c-1.84.17-4,.24-6.23.24a49.2,49.2,0,0,0-7.94.22c-1.18.11-2.33.23-3.48.31-7.42.68-11.72-.92-8.46-2.18.35-.29.75-.58,1.1-.86a3.22,3.22,0,0,0,.77-.77,14.89,14.89,0,0,1,1.45-.76,17.67,17.67,0,0,1,1.9-.73c4.24-1.93,13.52-3.66,16.76-5.43,1.08-.59,1.49-1.18.82-1.78a14.93,14.93,0,0,0-5.56-1.63,85,85,0,0,0-9.19-.77c-10.49-.41-24.09.17-33.73.82-1.17.1-2.31.21-3.41.33a58.84,58.84,0,0,0-8.6,1.43c-2.49.67-2.17,1.79,1.07,3.34.52.25,1.26.5,1.93.77-1.12-.15-1.07,0-.53.17.72.28,1.11.49.3.56-.22,0,.08.18,0,.26s-.21.19-.32.28l-.44-.06,2.1,1-1-.19.24.31-1.09-.23-.22,0,1.6.48-.77.81-1.19-.19-.18,0,2.07.55c.11.24.21.46.32.7a14.79,14.79,0,0,0-3.54-.51,7,7,0,0,1-.73-.13c-1.4-.29-2.81-.58-4.17-.89-1-.22-2.08-.46-2.77-.7-2.06-.72-3.87-1.44-5.93-2.15-1.38-.48-2.13-.89-2.06-1.23s.45-.44.53-.69-.07-.54,0-.79c0-.07.37-.08.54-.13s.57-.08.49-.17c-.53-.58.32-.91.74-1.31.58-.56,1.55-1,1.41-1.74,0-.2.4-.32.54-.5a1.81,1.81,0,0,0,.22-.54l-.4-.08-1.18.56-.44-.07c0-.09-.21-.21-.09-.27a12.36,12.36,0,0,1,1.47-.54c1.19-.36,2.31-.74,3.68-1.06,1.52-.35,3.16-.68,5-.95,2-.3,4.27-.55,6.63-.75,3.51-.3,7.06-.6,10.88-.81,3.6-.2,7.51-.3,11.4-.4,1.91-.05,4.08,0,6.14,0h4.81a5.81,5.81,0,0,0,.73,0,1.45,1.45,0,0,1,1,.05,2.09,2.09,0,0,0,.5,0c.65-.26,2.51,0,4.08.1.75.06,1.4.06,2.05.07H341l.26.1h-1.89c1.21.15,2.22.16,3.32.23s.29-.82,1.87-.44c22.77.78,40.53,5.34,28.67,9.78-.48.3-1,.6-1.49.89s-1.09.57-1.7.84a24.92,24.92,0,0,1-4.48,1.44c-1,.18-1.83.38-2.63.58-3.58.47-3.44,1.19-3.36,2.09"/><path class="cls-1" d="M840,102.8c2.85-1,6-4.18,9.91-4.23a12.11,12.11,0,0,1,6.64,3.32,15.21,15.21,0,0,1,3.58,6.19c-.07,3.59,1.92,5.92,4.06,8,1.07,1.06,2.18,2.06,3.08,3.13,6.62,6.65-1.48,14.15-10.14,13-1.86.16-3.75.26-5.53.4a43,43,0,0,0-4.88.6c-1.69,0-3.37,0-5.06-.15a39.55,39.55,0,0,1-5-.68c-13-1-26.6-7.67-38.3-7.89a21.89,21.89,0,0,0-11,2.39,19.21,19.21,0,0,0-7.86,8.9A22.69,22.69,0,0,0,778,147c1.17,11.91,9.31,25.31,16.54,34.38,1,1.06,2,2.07,3.13,3a29.9,29.9,0,0,0,11.5,6.54c4.88,1.42,11.49-1,19.61-7.25,1.3-1,2.59-2.27,3.95-3.46-.51,1.46.13,1.21,1.2.25,1.4-1.26,2.56-2.08,3.25-1.35.18.2,1.05-.41,1.54-.51a14.88,14.88,0,0,1,1.81-.18l-.19.57,5.13-4-.79,1.47,1.8-.83-1,1.58.22.19,2.33-2.58,5.09-.66-.74,1.62.34.11,2.56-3.21,4.06-1.62c-1.06,1.82-2.67,3.76-1.85,4.7.06.07-.34.67-.56,1-1.29,2-2.52,4.06-3.9,6.07a28.66,28.66,0,0,1-3.26,4.24c-3.58,3.51-7.28,6.75-10.86,10.25-2.4,2.35-4.6,3.89-6.64,4.44-1.52.41-2.8.33-4.29.69s-3.19,1.05-4.74,1.47c-.43.12-.63-.24-1-.34s-.68-.46-1.17-.22c-3.29,1.63-5.55,1.32-8.13,1.62-3.56.41-6.81.27-10.92,1.69a15.38,15.38,0,0,1-3.16.34c-1.06.17-2.21.5-3.32.76l-.32.56,3.78.22-.28.6a5.61,5.61,0,0,1-1.59.58,25,25,0,0,1-3.74-.57,64.55,64.55,0,0,1-7.61-2,36.43,36.43,0,0,1-7.4-3.59,39.34,39.34,0,0,1-6.78-5.68,86.13,86.13,0,0,1-8.6-10.1,88.56,88.56,0,0,1-6.32-11.39,48,48,0,0,1-2.18-6.51c-.54-1.7-1-3.44-1.59-5.13a1.45,1.45,0,0,0-.53-.69c-.26-.21-1,0,0-1.19.1-.13.09-.56,0-.58-1.77-.22-1-2.64-.8-4.53a6.84,6.84,0,0,0-.32-2.3c-.22-.93-.52-1.79-.78-2.68l.5-.46.59,2a10.94,10.94,0,0,0,.22-3.95c0-1.29-5,1.2-3.28-1.19-3.17-25.64,18-52.88,48.72-48.39,2,0,3.93-.07,5.85,0s3.8.11,5.63.27a38.75,38.75,0,0,1,10.18,2.13,36.88,36.88,0,0,0,4.36,1.74c4,2.95,8.33,1.47,13.66-.24"/><path class="cls-1" d="M874.36,189.73c-3.38,3.74-6.53,7.67-10.07,11.27-8.45,8.59-16.88,17.21-29.93,21.59a28,28,0,0,1-5.36,1.23c-1.42.18-3,.35-5.57-1.7-2-1.62-3.9-4.77-3.53-6.34.65-2.74,1.24-5.58,2.69-7.7,2.39-3.5,5.72-6.24,8.18-9.69,3.46-4.87,6.49-10.07,9.67-15.17,3.38-5.42,6.88-10.75,10-16.37a48.26,48.26,0,0,0,4.3-10.53,191.92,191.92,0,0,0,5.31-22.5c.86-5.6.43-12.05.32-18.27a15.08,15.08,0,0,0-1.7-5.07c-1.34-2.89-3.59-5-7.29-6.66A55.53,55.53,0,0,0,836.28,99c-10-1.32-17.44.5-24.83,2.32a83.7,83.7,0,0,0-23.54,10.09,97.71,97.71,0,0,0-14.61,10.14c-6.53,5.8-12.12,12.44-15,21.18-2.34,7.07,1,16.68,10.11,28.5,1.45,1.88,3.31,3.77,5.06,5.74-2.18-.75-1.83.19-.43,1.74,1.85,2,3,3.72,1.89,4.72-.3.27.57,1.53.7,2.23a20.7,20.7,0,0,1,.19,2.62L775,188l5.85,7.46-2.18-1.15,1.17,2.62-2.34-1.47-.29.31,3.79,3.39.78,7.39-2.41-1.09-.18.49,4.72,3.73,2.21,5.93c-2.65-1.56-5.48-3.93-6.93-2.74-.11.09-1-.49-1.51-.82-3-1.88-6-3.68-9-5.69a41.51,41.51,0,0,1-6.25-4.75c-5.13-5.21-9.86-10.59-15-15.81-3.44-3.49-5.67-6.69-6.41-9.65-.55-2.2-.38-4.06-.86-6.23s-1.45-4.64-2-6.88c-.16-.63.39-.91.55-1.4s.72-1,.38-1.7c-2.32-4.78-1.76-8.06-2.1-11.81-.48-5.17-.13-9.88-2.09-15.86-.56-1.71-.16-3-.38-4.58s-.67-3.21-1-4.82l-.84-.47-.49,5.49-.89-.41a7.77,7.77,0,0,1-.82-2.31,35.51,35.51,0,0,1,1-5.42,92.71,92.71,0,0,1,3.29-11A53.67,53.67,0,0,1,740.45,98a59.81,59.81,0,0,1,8.83-9.81,133.35,133.35,0,0,1,15.56-12.42c5.32-3.49,11.39-6.29,17.42-9.11,3-1.38,6.56-2.13,9.9-3.13,2.58-.78,5.22-1.49,7.8-2.27a2.26,2.26,0,0,0,1.06-.77c.32-.38,0-1.51,1.8-.06.19.15.84.14.87-.06.4-2.57,4-1.37,6.85-1.13a10.76,10.76,0,0,0,3.48-.45c1.41-.31,2.72-.74,4.07-1.12l.67.72-3.09.85c4.67,1.48,6.61-1.72,13.65,3.37l.63-1.36,4.26,1.13.74,1.82c.59.1,1.18.18,1.78.3,4.38.85,8.61,1.41,13.2,2.65A37,37,0,0,1,860.47,72c3,1.95,6.17,3.07,9,5.16a68.28,68.28,0,0,1,9.42,8.4,55,55,0,0,1,11.56,19.19,60.33,60.33,0,0,1,3.91,21c0,11.45-.66,22.46-4.4,31.4-4,9.45-8.79,18.26-13.23,27.36"/><path class="cls-1" d="M852.48,200.24c.13,3,2.24,6.94,1.12,10.72a12.11,12.11,0,0,1-5.13,5.37,15.21,15.21,0,0,1-7,1.6c-3.41-1.12-6.23.09-8.88,1.51-1.33.71-2.61,1.47-3.9,2-8.31,4.37-13.09-5.58-9.43-13.52.4-1.82.85-3.66,1.24-5.41a43,43,0,0,0,.87-4.84c.49-1.62,1-3.22,1.63-4.79a39.55,39.55,0,0,1,2.14-4.62c4.77-12.13,15.17-23.16,18.82-34.28a21.89,21.89,0,0,0,.95-11.19,19.21,19.21,0,0,0-6.19-10.14A22.69,22.69,0,0,0,828.49,128c-11.72-2.39-26.93,1.45-37.72,5.68-1.31.65-2.58,1.34-3.82,2.1a29.9,29.9,0,0,0-9.64,9.07c-2.79,4.24-2.45,11.27,1.15,20.88.57,1.53,1.4,3.14,2.15,4.79-1.25-.92-1.2-.23-.59,1.08.8,1.71,1.23,3.06.33,3.5-.24.12.08,1.13,0,1.62a14.88,14.88,0,0,1-.36,1.78l-.49-.35,2.33,6.09L780.68,183l.26,2-1.21-1.43-.25.15,1.78,3-.87,5.06-1.33-1.19-.21.29,2.31,3.39c.12,1.5.23,2.87.35,4.36-1.43-1.55-2.81-3.66-3.95-3.15-.08,0-.54-.52-.81-.83-1.56-1.83-3.13-3.61-4.65-5.51a28.66,28.66,0,0,1-3.09-4.36c-2.3-4.45-4.31-8.94-6.6-13.4-1.54-3-2.36-5.54-2.29-7.65.06-1.57.51-2.77.61-4.31s-.06-3.36,0-5c0-.45.41-.53.61-.82s.64-.51.55-1.06c-.59-3.62.38-5.69.85-8.25.65-3.52,1.75-6.58,1.6-10.94a15.38,15.38,0,0,1,.61-3.12c.15-1.07.17-2.26.25-3.4l-.44-.47-1.33,3.55-.49-.45a5.61,5.61,0,0,1-.09-1.69,25,25,0,0,1,1.65-3.4,64.55,64.55,0,0,1,4.13-6.69,36.43,36.43,0,0,1,5.61-6,39.34,39.34,0,0,1,7.42-4.81,86.13,86.13,0,0,1,12.18-5.24A88.56,88.56,0,0,1,806.6,99a48,48,0,0,1,6.87-.17c1.78,0,3.59,0,5.37,0a1.45,1.45,0,0,0,.81-.31c.28-.19.28-1,1.15.31.09.14.51.25.56.13.73-1.63,2.81-.13,4.56.57a6.84,6.84,0,0,0,2.29.38c1,.06,1.86,0,2.79,0l.29.61-2.12,0a10.94,10.94,0,0,0,3.71,1.37c1.23.39.33-5.16,2.1-2.78,25.44,4.52,45.23,32.8,31.9,60.81-.54,1.9-1.09,3.78-1.68,5.6s-1.22,3.6-1.92,5.3a38.75,38.75,0,0,1-5,9.11,36.88,36.88,0,0,0-2.95,3.65c-4,3-3.86,7.52-3.79,13.12"/><path class="cls-2" d="M806.76,97.76c16.3.35,47,13.17,50.2,28.56,0,0-2.63-32.63-20.94-35.94S806.76,97.76,806.76,97.76Z"/><path class="cls-2" d="M800,98c-13.77,4.44-36.09,20.41-34.15,30.84,0,0-7.58-21.07,7-27.88S800,98,800,98Z"/><path class="cls-1" d="M597.6,98.53c2.85-1,6-4.18,9.91-4.23a12.11,12.11,0,0,1,6.64,3.32,15.21,15.21,0,0,1,3.58,6.19c-.07,3.59,1.92,5.92,4.06,8,1.07,1.06,2.18,2.06,3.08,3.13,6.62,6.65-1.48,14.15-10.14,13-1.86.16-3.75.26-5.53.4a43,43,0,0,0-4.88.6c-1.69,0-3.37,0-5.06-.15a39.55,39.55,0,0,1-5-.68c-13-1-26.6-7.67-38.3-7.89a21.89,21.89,0,0,0-11,2.39,19.21,19.21,0,0,0-7.86,8.9,22.69,22.69,0,0,0-1.45,11.19c1.17,11.91,9.31,25.31,16.54,34.38,1,1.06,2,2.07,3.13,3a29.9,29.9,0,0,0,11.5,6.54c4.88,1.42,11.49-1,19.61-7.25,1.3-1,2.59-2.27,3.95-3.46-.51,1.46.13,1.21,1.2.25,1.4-1.26,2.56-2.08,3.25-1.35.18.2,1.05-.41,1.54-.51a14.88,14.88,0,0,1,1.81-.18l-.19.57,5.13-4-.79,1.47,1.8-.83-1,1.58.22.19,2.33-2.58,5.09-.66-.74,1.62.34.11,2.56-3.21,4.06-1.62c-1.06,1.82-2.67,3.76-1.85,4.7.06.07-.34.67-.56,1-1.29,2-2.52,4.06-3.9,6.07a28.66,28.66,0,0,1-3.26,4.24c-3.58,3.51-7.28,6.75-10.86,10.25-2.4,2.35-4.6,3.89-6.64,4.44-1.52.41-2.8.33-4.29.69s-3.19,1.05-4.74,1.47c-.43.12-.63-.24-1-.34s-.68-.46-1.17-.22c-3.29,1.63-5.55,1.32-8.13,1.62-3.56.41-6.81.27-10.92,1.69a15.38,15.38,0,0,1-3.16.34c-1.06.17-2.21.5-3.32.76l-.32.56,3.78.22-.28.6a5.61,5.61,0,0,1-1.59.58,25,25,0,0,1-3.74-.57,64.55,64.55,0,0,1-7.61-2,36.43,36.43,0,0,1-7.4-3.59,39.34,39.34,0,0,1-6.78-5.68,86.13,86.13,0,0,1-8.6-10.1,88.56,88.56,0,0,1-6.32-11.39,48,48,0,0,1-2.18-6.51c-.54-1.7-1-3.44-1.59-5.13a1.45,1.45,0,0,0-.53-.69c-.26-.21-1,0,0-1.19.1-.13.09-.56,0-.58-1.77-.22-1-2.64-.8-4.53a6.84,6.84,0,0,0-.32-2.3c-.22-.93-.52-1.79-.78-2.68l.5-.46.59,2a10.94,10.94,0,0,0,.22-3.95c0-1.29-5,1.2-3.28-1.19-3.17-25.64,18-52.88,48.72-48.39,2,0,3.93-.07,5.85,0s3.8.11,5.63.27A38.75,38.75,0,0,1,576.44,99a36.88,36.88,0,0,0,4.36,1.74c4,2.95,8.33,1.47,13.66-.24"/><path class="cls-1" d="M631.94,185.45c-3.38,3.74-6.53,7.67-10.07,11.27-8.45,8.59-16.88,17.21-29.93,21.59a28,28,0,0,1-5.36,1.23c-1.42.18-3,.35-5.57-1.7-2-1.62-3.9-4.77-3.53-6.34.65-2.74,1.24-5.58,2.69-7.7,2.39-3.5,5.72-6.24,8.18-9.69,3.46-4.87,6.49-10.07,9.67-15.17,3.38-5.42,6.88-10.75,10-16.37a48.26,48.26,0,0,0,4.3-10.53,191.92,191.92,0,0,0,5.31-22.5c.86-5.6.43-12.05.32-18.27a15.08,15.08,0,0,0-1.7-5.07c-1.34-2.89-3.59-5-7.29-6.66a55.53,55.53,0,0,0-15.1-4.86c-10-1.32-17.44.5-24.83,2.32a83.7,83.7,0,0,0-23.54,10.09,97.71,97.71,0,0,0-14.61,10.14c-6.53,5.8-12.12,12.44-15,21.18-2.34,7.07,1,16.68,10.11,28.5,1.45,1.88,3.31,3.77,5.06,5.74-2.18-.75-1.83.19-.43,1.74,1.85,2,3,3.72,1.89,4.72-.3.27.57,1.53.7,2.23a20.7,20.7,0,0,1,.19,2.62l-.86-.28,5.85,7.46L536.21,190l1.17,2.62L535,191.16l-.29.31,3.79,3.39.78,7.39-2.41-1.09-.18.49,4.72,3.73,2.21,5.93c-2.65-1.56-5.48-3.93-6.93-2.74-.11.09-1-.49-1.51-.82-3-1.88-6-3.68-9-5.69a41.51,41.51,0,0,1-6.25-4.75c-1.92-2-3.79-3.93-5.65-5.92-.62-.66-1.23-1.32-1.84-2C500,171.21,488,150.21,487,127.21c1,3-2,4-2,7,0-1,0-2,.08-3s.13-2,.24-2.94c1-9.73,4.51-18.83,8.65-27.6.3-.63.6-1.23.92-1.83A43.35,43.35,0,0,1,498,93.71a59.81,59.81,0,0,1,8.83-9.81,133.35,133.35,0,0,1,15.56-12.42c5.32-3.49,11.39-6.29,17.42-9.11,3-1.38,6.56-2.13,9.9-3.13,2.58-.78,5.22-1.49,7.8-2.27a2.26,2.26,0,0,0,1.06-.77c.32-.38,0-1.51,1.8-.06.19.15.84.14.87-.06.4-2.57,4-1.37,6.85-1.13a10.76,10.76,0,0,0,3.48-.45c1.41-.31,2.72-.74,4.07-1.12l.67.72-3.09.85c4.67,1.48,6.61-1.72,13.65,3.37L587.5,57l4.26,1.13.74,1.82c.59.1,1.18.18,1.78.3,4.38.85,8.61,1.41,13.2,2.65A37,37,0,0,1,618,67.73c3,1.95,6.17,3.07,9,5.16a68.28,68.28,0,0,1,9.42,8.4A55,55,0,0,1,648,100.49a60.33,60.33,0,0,1,3.91,21c0,11.45-.66,22.46-4.4,31.4-4,9.45-8.79,18.26-13.23,27.36"/><path class="cls-2" d="M564.34,93.49c16.3.35,47,13.17,50.2,28.56,0,0-2.63-32.63-20.94-35.94S564.34,93.49,564.34,93.49Z"/><path class="cls-2" d="M557.61,93.7c-13.77,4.44-36.09,20.41-34.15,30.84,0,0-7.58-21.07,7-27.88S557.61,93.7,557.61,93.7Z"/><path class="cls-1" d="M603.69,29c.12.48,2,1.11,1,1.71a20.29,20.29,0,0,1-4.57.85c-1.84.17-4,.24-6.23.24a49.2,49.2,0,0,0-7.94.22c-1.18.11-2.33.23-3.48.31-7.42.68-11.72-.92-8.46-2.18.35-.29.75-.58,1.1-.86a3.22,3.22,0,0,0,.77-.77,14.89,14.89,0,0,1,1.45-.76,17.67,17.67,0,0,1,1.9-.73c4.24-1.93,13.52-3.66,16.76-5.43,1.08-.59,1.49-1.18.82-1.78a14.93,14.93,0,0,0-5.56-1.63,85,85,0,0,0-9.19-.77c-10.49-.41-24.09.17-33.73.82-1.17.1-2.31.21-3.41.33a58.84,58.84,0,0,0-8.6,1.43c-2.49.67-2.17,1.79,1.07,3.34.52.25,1.26.5,1.93.77-1.12-.15-1.07,0-.53.17.72.28,1.11.49.3.56-.22,0,.08.18,0,.26s-.21.19-.32.28l-.44-.06,2.1,1-1-.19.24.31-1.09-.23-.22,0,1.6.48-.77.81L538,27.33l-.18,0,2.07.55c.11.24.21.46.32.7a14.79,14.79,0,0,0-3.54-.51,7,7,0,0,1-.73-.13c-1.4-.29-2.81-.58-4.17-.89-1-.22-2.08-.46-2.77-.7-2.06-.72-3.87-1.44-5.93-2.15-1.38-.48-2.13-.89-2.06-1.23s.45-.44.53-.69-.07-.54,0-.79c0-.07.37-.08.54-.13s.57-.08.49-.17c-.53-.58.32-.91.74-1.31.58-.56,1.55-1,1.41-1.74,0-.2.4-.32.54-.5a1.81,1.81,0,0,0,.22-.54l-.4-.08-1.18.56-.44-.07c0-.09-.21-.21-.09-.27a12.36,12.36,0,0,1,1.47-.54c1.19-.36,2.31-.74,3.68-1.06,1.52-.35,3.16-.68,5-.95,2-.3,4.27-.55,6.63-.75,3.51-.3,7.06-.6,10.88-.81,3.6-.2,7.51-.3,11.4-.4,1.91-.05,4.08,0,6.14,0h4.81a5.81,5.81,0,0,0,.73,0,1.45,1.45,0,0,1,1,.05,2.09,2.09,0,0,0,.5,0c.65-.26,2.51,0,4.08.1.75.06,1.4.06,2.05.07h2.5l.26.1h-1.89c1.21.15,2.22.16,3.32.23s.29-.82,1.87-.44c22.77.78,40.53,5.34,28.67,9.78-.48.3-1,.6-1.49.89s-1.09.57-1.7.84a24.92,24.92,0,0,1-4.48,1.44c-1,.18-1.83.38-2.63.58-3.58.47-3.44,1.19-3.36,2.09"/><path class="cls-1" d="M855.4,29c.12.48,2,1.11,1,1.71a20.29,20.29,0,0,1-4.57.85c-1.84.17-4,.24-6.23.24a49.2,49.2,0,0,0-7.94.22c-1.18.11-2.33.23-3.48.31-7.42.68-11.72-.92-8.46-2.18.35-.29.75-.58,1.1-.86a3.22,3.22,0,0,0,.77-.77A14.89,14.89,0,0,1,829,27.8a17.67,17.67,0,0,1,1.9-.73c4.24-1.93,13.52-3.66,16.76-5.43,1.08-.59,1.49-1.18.82-1.78A14.93,14.93,0,0,0,843,18.22a85,85,0,0,0-9.19-.77c-10.49-.41-24.09.17-33.73.82-1.17.1-2.31.21-3.41.33A58.84,58.84,0,0,0,788,20c-2.49.67-2.17,1.79,1.07,3.34.52.25,1.26.5,1.93.77-1.12-.15-1.07,0-.53.17.72.28,1.11.49.3.56-.22,0,.08.18,0,.26s-.21.19-.32.28l-.44-.06,2.1,1-1-.19.24.31-1.09-.23-.22,0,1.6.48-.77.81-1.19-.19-.18,0,2.07.55c.11.24.21.46.32.7a14.79,14.79,0,0,0-3.54-.51,7,7,0,0,1-.73-.13c-1.4-.29-2.81-.58-4.17-.89-1-.22-2.08-.46-2.77-.7-2.06-.72-3.87-1.44-5.93-2.15-1.38-.48-2.13-.89-2.06-1.23s.45-.44.53-.69-.07-.54,0-.79c0-.07.37-.08.54-.13s.57-.08.49-.17c-.53-.58.32-.91.74-1.31.58-.56,1.55-1,1.41-1.74,0-.2.4-.32.54-.5a1.81,1.81,0,0,0,.22-.54l-.4-.08-1.18.56-.44-.07c0-.09-.21-.21-.09-.27a12.36,12.36,0,0,1,1.47-.54c1.19-.36,2.31-.74,3.68-1.06,1.52-.35,3.16-.68,5-.95,2-.3,4.27-.55,6.63-.75,3.51-.3,7.06-.6,10.88-.81,3.6-.2,7.51-.3,11.4-.4,1.91-.05,4.08,0,6.14,0h4.81a5.81,5.81,0,0,0,.73,0,1.45,1.45,0,0,1,1,.05,2.09,2.09,0,0,0,.5,0c.65-.26,2.51,0,4.08.1.75.06,1.4.06,2.05.07H836l.26.1h-1.89c1.21.15,2.22.16,3.32.23s.29-.82,1.87-.44c22.77.78,40.53,5.34,28.67,9.78-.48.3-1,.6-1.49.89s-1.09.57-1.7.84a24.92,24.92,0,0,1-4.48,1.44c-1,.18-1.83.38-2.63.58-3.58.47-3.44,1.19-3.36,2.09"/></g></g></svg>