<svg xmlns="http://www.w3.org/2000/svg" viewBox="0 0 666.24 240.22"><defs><style>.cls-1{fill:#231f20;}</style></defs><title>logotype</title><g id="Layer_2" data-name="Layer 2"><g id="Layer_2-2" data-name="Layer 2"><path class="cls-1" d="M361.33,22.82c.12.48,2,1.11,1,1.71a20.29,20.29,0,0,1-4.57.85c-1.84.17-4,.24-6.23.24a49.2,49.2,0,0,0-7.94.22c-1.18.11-2.33.23-3.48.31-7.42.68-11.72-.92-8.46-2.18.35-.29.75-.58,1.1-.86a3.22,3.22,0,0,0,.77-.77,14.89,14.89,0,0,1,1.45-.76,17.67,17.67,0,0,1,1.9-.73c4.24-1.93,13.52-3.66,16.76-5.43,1.08-.59,1.49-1.18.82-1.78A14.93,14.93,0,0,0,348.9,12a85,85,0,0,0-9.19-.77c-10.49-.41-24.09.17-33.73.82-1.17.1-2.31.21-3.41.33a58.84,58.84,0,0,0-8.6,1.43c-2.49.67-2.17,1.79,1.07,3.34.52.25,1.26.5,1.93.77-1.12-.15-1.07,0-.53.17.72.28,1.11.49.3.56-.22,0,.08.18,0,.26s-.21.19-.32.28l-.44-.06,2.1,1-1-.19.24.31L296.21,20,296,20l1.6.48-.77.81-1.19-.19-.18,0,2.07.55c.11.24.21.46.32.7a14.79,14.79,0,0,0-3.54-.51,7,7,0,0,1-.73-.13c-1.4-.29-2.81-.58-4.17-.89-1-.22-2.08-.46-2.77-.7-2.06-.72-3.87-1.44-5.93-2.15-1.38-.48-2.13-.89-2.06-1.23s.45-.44.53-.69-.07-.54,0-.79c0-.07.37-.08.54-.13s.57-.08.49-.17c-.53-.58.32-.91.74-1.31.58-.56,1.55-1,1.41-1.74,0-.2.4-.32.54-.5a1.81,1.81,0,0,0,.22-.54l-.4-.08-1.18.56-.44-.07c0-.09-.21-.21-.09-.27a12.36,12.36,0,0,1,1.47-.54c1.19-.36,2.31-.74,3.68-1.06,1.52-.35,3.16-.68,5-.95,2-.3,4.27-.55,6.63-.75,3.51-.3,7.06-.6,10.88-.81,3.6-.2,7.51-.3,11.4-.4,1.91-.05,4.08,0,6.14,0H331a5.81,5.81,0,0,0,.73,0,1.45,1.45,0,0,1,1,.05,2.09,2.09,0,0,0,.5,0c.65-.26,2.51,0,4.08.1.75.06,1.4.06,2.05.07h2.5l.26.1h-1.89c1.21.15,2.22.16,3.32.23s.29-.82,1.87-.44c22.77.78,40.53,5.34,28.67,9.78-.48.3-1,.6-1.49.89s-1.09.57-1.7.84a24.92,24.92,0,0,1-4.48,1.44c-1,.18-1.83.38-2.63.58-3.58.47-3.44,1.19-3.36,2.09"/><path class="cls-1" d="M624.06,118.89A59.32,59.32,0,0,1,636.4,111c1.32-1.13,2.63-1.67,4-1.22.14,0,.39.07.43,0,.72-1.65,2-1.42,3-2.23a17.26,17.26,0,0,1,3.45-1.87c1.49-.75,3-1.47,4.56-2.24l.14,1.1a4,4,0,0,0,.57-1.06c.16-1.24.88-1.39,1.37-1.22,1.18.4,1.77.17,2.5-1.45.39.9.81.74,1.08-.24.37-1.33.79-1.7,1.65-1,.23.18,1-.28,1.22-.72a14.4,14.4,0,0,0,.74-2.66l-2.53.34A7.39,7.39,0,0,1,662,92.34c.48-.26,1-.5,1.44-.81a5.91,5.91,0,0,0,2.6-4.9c.28-4,.39-8-.94-11.29a34.57,34.57,0,0,0-3.23-5.46c-2.16-3.47-5.33-5-8-7.53a60.74,60.74,0,0,0-5.07-4,2.5,2.5,0,0,0-.92-.5c-.86-.19-1.75-.26-1.28-1.69a53.41,53.41,0,0,0-3.09,5c-1,1.74-2.46,3.23-2.76,5.32l-.59-1.79c-6.84,10.65-17.19,17-27.79,23.16l-2.47,1.42c-7.9,4-14.51,8.75-22.07,13.47,1.89-1.89,3.78-1.89,5.67-1.89-.94,3.78-4.72,2.83-7.56,2.83,1.89,4.72,3.78-.94,3.78,0,.94,3.78-8.5-.94-7.56,5.67-2.83,0-4.72,2.83-7.56,0h3.78c-3.78-1.89-6.61.94-10.24,1.19l-2.4.74A79.86,79.86,0,0,1,553,114.3l-2.78.66a23.24,23.24,0,0,1-4.36.6c-2.43.48-5.27-.47-8.1,1.42,0,.94.94,2.83.94,3.32.71,1.16,1.42,2.34.94,3.29a27.74,27.74,0,0,1-3.61,3.35c-.64.51-1.31,1-2,1.47-3.85,3.68-3.85,10.29-7.63,13.13-3.78,4.72-4.72,9.45-8.25,13.13a5.55,5.55,0,0,1-2.06.9,9.68,9.68,0,0,1-2.92.15,11.71,11.71,0,0,0,5.23,2.09,13.91,13.91,0,0,0,2.73.11c8.1-.31,13.76-5,19-10.22l1.77-1.81,1.76-1.84c1.76-1.84,3.53-3.67,5.42-5.32a4.17,4.17,0,0,1-.6,2.25c-.34.58-1.29.58-1.29,1.53L551,138.7c-.94,0-.94.94-1.89.94a20.26,20.26,0,0,1,2.24-2,20.19,20.19,0,0,0,1.54-2.72,8.85,8.85,0,0,1-1,2c-.4.62-.84,1.21-1.26,1.8-2.48,2.83-2.48,4.72,1.3,6.61-1.89-1.89-.94-2.83,0-4.72,11.34,10.39,25.51-8.5,40.07-8.34M590.39,97.6c.2-.57.31-1.44.62-1.67a12,12,0,0,1,2.73-1.41c.18-.07.43.48.49.55l-2.61,3.22Zm45.28,12.23-3.48,1.3a4.73,4.73,0,0,1,.22-1.43C632.91,108.81,635.11,108.9,635.67,109.83Zm-32,13.44a4.12,4.12,0,0,1-.1-1.37c.08-.32.52-.6.83-.74a3.59,3.59,0,0,1,1.36-.37c.24,0,.46.31.69.49a3,3,0,0,1-.54.74C605.22,122.41,604.57,122.73,603.62,123.26Zm3.94-34.45,2.63-.77C609.79,89.33,608.55,89.82,607.55,88.81ZM609,86.63c1-1.83,1.44-2,1.89-.74Z"/><path class="cls-1" d="M5.4,19.1c6.44,14.71,17,34.66,4.2,83.3S-.13,142,1.7,144.11s6,9,10.11,11.49,23.92,15.94,27.16,15A5.89,5.89,0,0,0,43,167.23s.05,4.12.39,3.89,3.32-3,3.67-4.8,2.22-.83,1.1,1.8-2.42,4.7-.36,2.19,4.22-6,4.17-5.19a13.06,13.06,0,0,1-2.2,4.43c-.84,1,.43,1.26,1.41-.16s1.85-4.93,9.47-13.48S70.18,142.08,71,141.8s19.65,29.74,36.11,34.82,25-8.54,26.94-10.5,8.69-4.85,9.14-7-1.08-2.83-1.08-2.83L140.88,155l1.6-1.29-1.22,0a13.45,13.45,0,0,1,3.4-1.73,8.93,8.93,0,0,0,3-1.74,20.66,20.66,0,0,1-3.89-.11c-1.73-.27,3.51-.84,4.74-1.45s3.19-2.35,2-2.71-3.87-2.51-3-2,5-.19,4.53-.41c-9.49-4.88-34-16-55-44,1.37-3,16.09-11.63,27.3-16.32s8.42-23.18,6.48-35.1-3.51-15.61-5.42-16.78-5.24-3.19-7-4.42-8.09.41-14.67,2.35-18.64,7.33-24,11.21-3-.06-3.94-2.78S72,20,68.42,14.73,64,5.13,44.6,2.84,21-.4,14.79.15,1.49,6,2.52,11.11A26,26,0,0,0,5.4,19.1Z"/><path class="cls-1" d="M520.32,136.2c.3-.09,0-.14-.43-.14h-.23a1.09,1.09,0,0,0,.51.16Z"/><path class="cls-1" d="M474.94,218.47a4.2,4.2,0,0,0-.07-.84c0,.78,0,1.68.05,1.68S474.94,219.07,474.94,218.47Z"/><path class="cls-1" d="M511.39,144.46c.08,0-1.71-.57-4.17-1.32,1.21.43,2.38.82,3.44,1.12Z"/><path class="cls-1" d="M477.78,216.44c.05.05.09.08.13.08s.1-.22.08-.69C477.75,216.05,477.56,216.22,477.78,216.44Z"/><path class="cls-1" d="M478,215.2c0,.25,0,.46,0,.63a1.69,1.69,0,0,0,.38-.49c0-.11-.05-.24-.08-.39A1.07,1.07,0,0,0,478,215.2Z"/><path class="cls-1" d="M523.48,146.43c-2.13-.61-5.13-3.9-6.32-4.46s2.32-.86,2.27-1.59c0-.18.29-.24.76-.24,1.3,0,3.86.51,4.2.51,0,0,0,0,0,0a69.9,69.9,0,0,1-6.26-3.51c-1-.74.49-1,1.5-1.06-.94-.52-2.2-2.15-3.35-2.71-1.45-.7-8.86-4.41-8.86-4.41a16.25,16.25,0,0,0,5.61-2.1c2.44-1.6,8.67-5.92,12.43-9.08s4.78-9.17,4.92-11.44.09-7.08.2-11.38c.06-2.36-.18-2.64-.75-2.64-.18,0-.4,0-.65,0a2.51,2.51,0,0,1-1.44-.45c-2.06-1.35-8.69-1.75-14-3.37S492,85,481,84.57s-32.2-2.4-50.95-2.66-23.67-.85-28-1.52a30.37,30.37,0,0,0-5.64,2.51c-4.3,2.22-2.84,2.6-7,6.82s-6.53,14.08-7.07,16.12.27,2.43-1,4.4-2.63,2.43-4,4.54-2.6,5.11-1.56,6.5,7.58,3.94,8,3.94c0,0,0,0-.09-.09-.88-.52-1.45-1,.11-1,.44,0,1,0,1.86.12,3.72.36,12.75,3.88,19.89,6s9.16,8.59,11.57,9.34,7.47,2.67,4.73,2.67h-.35c-3.08,0-8.35,1.32-7.42,1.79s6.65,3.46,7.56,3.57h0c.84,0,.27-3,1.73-3h0c1.51,0,1.18,2.82,1.5,5.16a6.38,6.38,0,0,1-1.24,4.32s0,2.67-1.06,3.74,1.8,2.37,2.22,4.32-.3,22.48.52,22.48c0,0,.07,0,.11-.12,1-1.92.72-32.33.77-33.88,0-.21,0-.31.08-.31.3,0,1.26,3.71,1.12,4.87-.16,1.34.22,16.75.14,30s-.76,22.47-.53,26.69.93,3.21,3.25,4.25-1.24,3.54.05,5.06a.61.61,0,0,0,.42.27c.87,0,.86-4.25.65-5.71-.23-1.67.5-3.55.06-5.3-.11-.45-.08-.62,0-.62.38,0,1.6,1.42,2.72,1.72s.42,3.63-.31,3.63c-.15,0-.29-.14-.41-.47s-.19-.43-.23-.43c-.25,0,.46,4,2,5.95,1.06,1.34.42,1.63-.52,1.63-.69,0-1.55-.15-2-.16h0c-1.14,0,.19,4,.24,7.08,0,2.15,1,2.65,1.81,2.65a3,3,0,0,0,1-.18c.88-.31,24.65-6,24.65-6l.74,1.51a16.26,16.26,0,0,1,.89-3.09c.08-.18.16-.25.23-.25.29,0,.5,1.17.61,1.17s.07-.2.08-.78c0-1.75.07-8.45.07-11,0-.41,0-.72,0-.9a.41.41,0,0,1,0-.09s0,.37,0,1a65.07,65.07,0,0,0,1.44,10.07c.25.76.67,1.17,1.1,1.17.77,0,1.61-1.3,1.66-4.27.07-3.68.37-6.52,1.43-6.52a1.51,1.51,0,0,1,1,.61c.66.71,1,.87,1.13.9h0s0,0,0,0h0c-.14,0-.57.23-1.13,1.44-1.25,2.75.24,3.21.44,4.68,0,.36.12.49.2.49s.53-.89.85-.89a.22.22,0,0,1,.17.09.14.14,0,0,0,.1.06c.37,0,.65-2.29.89-2.29,0,0,.09.09.14.31.18.87.51,1.47.76,1.47s.29-.24.32-.82c.06-1,.64-2.12,1-2.12.14,0,.25.14.32.46,0-.59,0-1.1,0-1.1a10.53,10.53,0,0,0,1.08-.44c.11,0-.09.36,0,1.51.08,1,.36,1.4.61,1.4s.54-.52.49-1.4a3.36,3.36,0,0,1,.94-2.4c0-.57,0-1.34,0-2.32a2.45,2.45,0,0,1,0-.58s.15,1.65.31,2.65l.07,0c.07,0,.1.06.08.18a.9.9,0,0,1-.07.23c.05.21.11.35.18.35s.27-.48.44-1.82c.72-5.65-.07-30.61-.15-34.58s0-7.19-.08-14.08c-.09-5.32-.13-6.79.95-6.79a4.22,4.22,0,0,1,1.28.33,6.66,6.66,0,0,0,2.21.39c1.32,0,2-.48.57-1-2.12-.7-2.86-2-2.52-2.89,0-.1.15-.14.33-.14,1.43,0,6.91,2.71,8.55,2.71a.89.89,0,0,0,.25,0c1.36-.41-.69-.58-4.84-2.23s-6.47-1.46-6.34-5.63,1.85-5.69,1.85-5.69,7.28,2.23,13.68,5a44.56,44.56,0,0,0,11.93,3.25c.45,0,.36-.14-.5-.43-3.35-1.14-6-2.49-10.79-4.23-4.31-1.56-5.1-3.54-4-3.54a1.42,1.42,0,0,1,.43.08c1.63.53,14.2,5.5,16.4,6.36a24.62,24.62,0,0,0,5.88,1.15c1,0,.77-.43-3-1.73-8.45-2.91-11-5.68-11-5.68s15,5.64,16.09,5.64h0c.91-.06-.68-1-1.57-2.11s-7.58-3-18.46-7.41c-2-.82-2.6-1.15-2.2-1.15,1,0,8.47,2.17,13.3,3.64-5.42-1.93-11.39-4.79-9.87-5.44a1.62,1.62,0,0,1,.61-.09c3.16,0,14.43,4.15,18.83,6.42a25.83,25.83,0,0,0,7.23,2.62C524.15,146.66,524,146.58,523.48,146.43Z"/><path class="cls-1" d="M535.2,156.33c-3.51-.76-6.55,3.79-10.31,3.39-.66.12-8.4-1.49-11.45-3.38-.76-.33-1.45-.62-2.06-.86a12.14,12.14,0,0,0-1.56-.51c-3.34-.76.41-.58,1.66-1.13s-6.13-2.83-7.6-3.7,3.59-1.08,5.55-.21c1.63.72,7-.5,10.65,0a6.67,6.67,0,0,1,2,.57c.53-.29,1.29.47,2,.47,0,0-.76-.76-.8-.83a10.74,10.74,0,0,0-1.14-.48c-.45-.16-1-.32-1.56-.47-3.16-.81-1-1.32,1.65-1.14a13.59,13.59,0,0,1,2,.27,13.63,13.63,0,0,0,1.42.71c.74.43,1.5,1.19,2.37-.39a2.18,2.18,0,0,0-.82-1.18,6.07,6.07,0,0,0-1.88-1.24c-3.33-1.46,2.42-1.65,3.59-1.43s9-12.19,10-13.78"/><path class="cls-1" d="M557.25,75"/><path class="cls-1" d="M575.93,34.57c1.24-2.23,11.77-6.6,13.65-8.57,0,0,4.34-.41,4.35-.43s-7,0,0,.32c9.29.42,15.44,16.93,21.23,25.32.69,1.08,1.34,2.18,2,3.32s1.19,2.3,1.72,3.5c.65,1.52,1.22,3.07,1.77,4.69A25.39,25.39,0,0,1,623,67.28a41.61,41.61,0,0,1,1.68,5c16.76,32.7,29.33,44.55,12.84,61.25-9.43,8.95-48.08,31.49-47.75,26.86.35-5,4.36-10.93,4.39-10.48.71,8.2,8-17,6.53-25.13a10.36,10.36,0,0,1-2.42,1.39c-3.89,1.5-5.73-1.71-8.91-1.46a9.83,9.83,0,0,1,3.14,1.92,19.29,19.29,0,0,1-6.76,1.44c-.55,0-1.09,0-1.62-.09s-1-.13-1.56-.23c-4.8-.59.87.86-4.64.06-.6-.19-1.19-.4-1.76-.63s-1.14-.48-1.69-.76l-1.49-.38a16.31,16.31,0,0,0-1.72-.1c-1.74,0,12,.29,10,1.06-4.72,1.78-12.28,13.81-17,21.26,0,0-6.63,16.32-8.5,18.83,0-.94-.94,2.58,0,2,0,8.25-42.79,26.25-42.79,26.25l.28-9.5c.18-.42,1.36-5.14.17-4.71a3,3,0,0,1-.77.08l2.35-5.79-.55.25c-.1-.55-.45-1.06-.24-1.66.56-1.61,1.37-3.27,2.07-4.9.1-.23.27-.58.21-.66-.8-1.16.52-3.17.94-4.72A85.67,85.67,0,0,1,521.25,153q2.35-3.17,4.68-6.36a3.15,3.15,0,0,0,.61-1.08,21,21,0,0,1,2.27-6c1.31-2.48,2.84-4.76,4.17-7.22m47.95-27.86c.4.53-6.58-1.94-5.86-1.86,29.33,3.3,9.52-30.38,8.62-28.2s3-7.84,2.18-5.71c-1.16,4.34-3,9-4.22,13.25-.24.86-.46,1.71-.66,2.56C579.6,90.22,577.41,101.6,580.93,104.46Z"/><path class="cls-1" d="M264.25,206.59c-6.79-1.13-7-2.5-5-2.5h0c2.06,0,10.75-3.92,7.16-11.27s-3.71-7-8-7.51-34-6.11-38.48-7.35,5.84-3.55,7-6,9.57-18.62,11.19-22-7.62-8.06-6.06-11.2,5.88-3.37,9.34-5.86,8.56-7,12.08-8.66,1.63-20.65,2.89-23.82,1.52-16.1-5.48-18-16.37-3.59-20.51-3.64c-7.64-.09-13.67-.14-18.58-.14-14.29,0-19.21.45-27.32,1.73-10.89,1.73-42.18,3.86-42,19.95s5.94,29.64,6.52,29.66-1.23,2.56.33,2.93,5.26.77,5.57,2.29-1.23,1.39-.13,2.13a6.59,6.59,0,0,0,1.93.95c.94.41.46.83,1.29.83h.36c.76,0-1.84.69-2.56.73s-.47,1.19.14,1.3a22.93,22.93,0,0,0,3.41.35,5.15,5.15,0,0,0,.8-.05h.08c1.07,0,1.07,3.58.38,4s-.3.82-.47,1.85,1.26,1.1,1.26,1.1l-2,.58a4.6,4.6,0,0,0,1.19,1.49l1.14,1s-2.07.11-2.41.65a1.48,1.48,0,0,1-1.21.47h-.13c.12,0,1.92.16,1.46,1.26s-2.24,2,1.34,2.27,5.72,1.32,4.4,2.37-25.68,16-26.9,20.08-6.05,16.33-5.61,16.88,2.51,2.2,4.64,4.63,2.67,4.38,7.11,6.31,29.1,16.84,62.19,25.91c25.26,6.93,33.41,7.74,35.85,7.74a3.38,3.38,0,0,0,1-.08s-3.23-.48-9-1.6c-1.05-.21-1.34-.29-1.1-.29,1.11,0,13.05,1.7,16.58,2,.65,0,1.24.07,1.79.07,3.12,0,4.62-.73,3.73-1.47-1-.86-2.88-2.64-2-3.4.63-.55.55-1.23,1.3-1.23a3.93,3.93,0,0,1,1.32.34,3.21,3.21,0,0,0,1.11.27c.89,0,.6-.93,1.27-1,.87,0-2.2-.77-1.29-1.28a1.34,1.34,0,0,1,.69-.21l.34,0a1.4,1.4,0,0,0,.82-.32c1-.66,2-1.11,2-1.63s2.55-.87,2.27-2.47,1.32-4.41.06-4.53-2.9-1.17-1.39-1.41,1.51-.26,3-.49S271,207.73,264.25,206.59Z"/><path class="cls-1" d="M395.7,133.44c-2.4-.81-5.16-1.74-7.35-2.38l0,.17h-4.58c-.83,0-1.78,0-6.26-2-4.14-1.87-5.61-3.08-6.53-4.32-2.51-3.36-2-8.23,1.35-13.38a17.57,17.57,0,0,1,3-3.44,8.14,8.14,0,0,0,.82-.82,12.13,12.13,0,0,1,.42-3l.12-.47c1.48-5.69,4-13.77,8.49-18.32a20.8,20.8,0,0,0,2.41-2.83,14.52,14.52,0,0,1,6.12-5.09l.71-.36a54.88,54.88,0,0,0-8-11.12,68.27,68.27,0,0,0-9.42-8.4c-2.84-2.1-6-3.22-9-5.16a37,37,0,0,0-10.57-4.87c-4.59-1.25-8.82-1.81-13.19-2.65-.6-.12-1.19-.2-1.78-.3l-.74-1.82-4.26-1.13-.63,1.36c-7-5.09-9-1.9-13.65-3.37l3.09-.85-.67-.72c-1.35.38-2.66.81-4.07,1.12a10.76,10.76,0,0,1-3.48.45c-2.83-.24-6.45-1.43-6.85,1.13,0,.2-.68.21-.87.06-1.8-1.45-1.47-.33-1.8.06a2.26,2.26,0,0,1-1.06.77c-2.57.79-5.22,1.5-7.8,2.27-3.34,1-6.94,1.75-9.9,3.13-6,2.82-12.1,5.61-17.42,9.11a133.36,133.36,0,0,0-15.56,12.42,60.29,60.29,0,0,0-7,7.38c.91.22,1.8.45,2.63.67a12.87,12.87,0,0,1,8.23,7c3.08,6.12,2.78,14.73,1.39,18.64-.17,1-.2,4.21-.23,6.55-.1,10.17-.18,18.21-5.84,20.82-1.77.82-4.82,3.22-7.26,5.14-1.16.92-2.27,1.79-3.31,2.55a18.89,18.89,0,0,0,1.15,3c.35.71-.2,1.16-.38,1.7s-.71.77-.55,1.4c.57,2.24,1.54,4.68,2,6.88s.3,4,.86,6.23c.75,3,3,6.16,6.41,9.65,5.13,5.21,9.86,10.59,15,15.81a41.52,41.52,0,0,0,6.25,4.75c3,2,6,3.81,9,5.69.52.33,1.41.9,1.51.82,1.45-1.19,4.28,1.17,6.93,2.74l-2.21-5.93-4.72-3.73.18-.49,2.41,1.09-.12-1.1c1.36.66,2.77,1.26,4.22,1.8a64.54,64.54,0,0,0,7.61,2,25,25,0,0,0,3.74.57,5.61,5.61,0,0,0,1.59-.58l.28-.6-3.78-.22.32-.56c1.11-.26,2.26-.59,3.32-.76a15.38,15.38,0,0,0,3.16-.34c4.12-1.42,7.36-1.27,10.92-1.69,2.34-.27,4.43-.06,7.24-1.23-.32,1.36-.64,2.74-.95,4.13-2.87,6.21-.56,13.65,4.56,14.5a6.16,6.16,0,0,0,5.14,1.39,28,28,0,0,0,5.36-1.23A51.83,51.83,0,0,0,352.64,198a13,13,0,0,0,3.34-1.2,11.93,11.93,0,0,0,4.79-4.76c3.9-3.31,7.46-6.93,11-10.55s6.69-7.54,10.07-11.27l2.37-5.23c4.44-9.1,9.28-17.9,13.23-27.36.44-1,.83-2.13,1.19-3.23ZM351.5,134.5C348.13,144.77,339,155,333.87,166c-7,4.91-12.78,6.72-17.16,5.44a29.9,29.9,0,0,1-11.5-6.54c-1.09-1-2.13-2-3.13-3-7.22-9.07-15.37-22.47-16.54-34.38a28.76,28.76,0,0,1-.14-3,30.3,30.3,0,0,1,9-8.23c1.24-.76,2.51-1.45,3.82-2.1a94.89,94.89,0,0,1,24-6.1c7.19,2,14.62,4.3,21.86,4.85.75.15,1.51.27,2.26.38a19.23,19.23,0,0,1,6,10A21.9,21.9,0,0,1,351.5,134.5Z"/></g></g></svg>