<svg xmlns="http://www.w3.org/2000/svg" viewBox="0 0 287.76 108.98"><defs><style>.cls-1{fill:#231f20;}</style></defs><title>logotype-small</title><g id="Layer_2" data-name="Layer 2"><g id="Layer_2-2" data-name="Layer 2"><path class="cls-1" d="M161.08,9.55c.07.28,1.18.65.6,1A11.83,11.83,0,0,1,159,11c-1.07.1-2.31.14-3.63.14a28.68,28.68,0,0,0-4.63.13c-.69.06-1.36.13-2,.18-4.33.4-6.83-.54-4.93-1.27l.64-.5a1.88,1.88,0,0,0,.45-.45,8.68,8.68,0,0,1,.84-.44,10.3,10.3,0,0,1,1.11-.43c2.47-1.12,7.88-2.14,9.77-3.17.63-.34.87-.69.48-1a8.7,8.7,0,0,0-3.24-1,49.57,49.57,0,0,0-5.36-.45c-6.11-.24-14,.1-19.66.48l-2,.19a34.3,34.3,0,0,0-5,.83c-1.45.39-1.26,1,.62,1.94.3.14.74.29,1.13.45-.65-.09-.63,0-.31.1s.65.29.18.33c-.13,0,0,.11,0,.15s-.12.11-.19.16l-.26,0,1.23.57-.61-.11.14.18-.63-.13H123l.93.28-.45.47-.69-.11-.11,0,1.21.32.19.41A8.62,8.62,0,0,0,122,9a4.07,4.07,0,0,1-.42-.08l-2.43-.52c-.57-.13-1.21-.27-1.62-.41-1.2-.42-2.26-.84-3.46-1.26-.81-.28-1.24-.52-1.2-.71s.26-.26.31-.4,0-.31,0-.46.22,0,.32-.08.33,0,.29-.1c-.31-.34.19-.53.43-.77s.9-.61.82-1c0-.12.24-.19.31-.29a1.05,1.05,0,0,0,.13-.32l-.23,0-.69.33-.26,0c0-.05-.12-.12,0-.16a7.21,7.21,0,0,1,.86-.31c.69-.21,1.35-.43,2.15-.62s1.84-.4,2.92-.55S122.67.89,124,.77c2-.18,4.12-.35,6.34-.47S134.76.13,137,.07c1.11,0,2.38,0,3.58,0h2.8a3.39,3.39,0,0,0,.42,0,.84.84,0,0,1,.6,0,1.22,1.22,0,0,0,.29,0,9,9,0,0,1,2.38.06c.44,0,.82,0,1.2,0h1.46l.15.06h-1.1c.7.09,1.29.09,1.93.13s.17-.48,1.09-.26c13.27.45,23.63,3.11,16.71,5.7-.28.18-.56.35-.87.52s-.63.33-1,.49a14.53,14.53,0,0,1-2.61.84c-.56.11-1.07.22-1.53.34-2.09.27-2,.7-2,1.22"/><path class="cls-1" d="M2.33,13.48c2.78,6.35,7.34,15,1.81,36s-4.2,17.11-3.41,18,2.58,3.89,4.37,5,10.33,6.88,11.73,6.49a2.54,2.54,0,0,0,1.76-1.47s0,1.78.17,1.68a5.58,5.58,0,0,0,1.59-2.07c.15-.78,1-.36.48.78s-1,2-.16.95,1.82-2.59,1.8-2.24a5.64,5.64,0,0,1-1,1.91c-.36.43.19.54.61-.07a23.61,23.61,0,0,1,4.09-5.82c3.29-3.69,4.11-6,4.48-6.1s8.49,12.84,15.6,15S57.06,77.83,57.92,77s3.75-2.1,3.95-3a1,1,0,0,0-.47-1.22l-.55-.55.69-.56-.53,0a5.81,5.81,0,0,1,1.47-.75,3.85,3.85,0,0,0,1.3-.75,8.92,8.92,0,0,1-1.68,0c-.75-.12,1.52-.36,2-.63s1.38-1,.87-1.17-1.67-1.09-1.29-.86a3.4,3.4,0,0,0,2-.18c-4.1-2.11-14.7-6.9-23.75-19,.59-1.29,6.95-5,11.79-7s3.64-10,2.8-15.16S55,19.28,54.19,18.77s-2.26-1.38-3-1.91-3.49.18-6.34,1a44.75,44.75,0,0,0-10.37,4.84c-2.32,1.68-1.31,0-1.7-1.2s-1.67-7.64-3.23-9.93S27.63,7.45,19.26,6.46,9.05,5.06,6.39,5.3.64,7.84,1.09,10A11.24,11.24,0,0,0,2.33,13.48Z"/><path class="cls-1" d="M224.73,64.06c.13,0,0-.06-.19-.06h-.1a.47.47,0,0,0,.22.07Z"/><path class="cls-1" d="M206.36,98.71l.05,0s0-.09,0-.3C206.35,98.55,206.26,98.62,206.36,98.71Z"/><path class="cls-1" d="M205.13,99.59a1.81,1.81,0,0,0,0-.36c0,.33,0,.72,0,.72S205.13,99.85,205.13,99.59Z"/><path class="cls-1" d="M220.87,67.63s-.74-.24-1.8-.57c.52.19,1,.35,1.49.48Z"/><path class="cls-1" d="M206.76,63c-.43-.32,17.25,1,17.69,1-.41-.22-1-.93-1.45-1.17l-3.83-1.91a7,7,0,0,0,2.42-.91c1.06-.69,3.75-2.56,5.37-3.92s2.07-4,2.12-4.94,0-3.06.09-4.91c0-1-.08-1.14-.32-1.14h-.28a1.08,1.08,0,0,1-.62-.19c-.89-.58-3.75-.75-6.06-1.45s-9.4-1.53-14.11-1.7-13.91-1-22-1.15-10.22-.37-12.11-.66A13.12,13.12,0,0,0,171.22,41c-1.86,1-1.23,1.12-3,2.94s-2.82,6.08-3.06,7,.11,1-.43,1.9-1.14,1.05-1.73,2-1.12,2.21-.68,2.81a12.77,12.77,0,0,0,3.45,1.7s0,0,0,0c-.38-.22-.62-.42,0-.42.19,0,.45,0,.81,0,1.61.16,5.51,1.68,8.59,2.6s4,3.71,5,4,3.23,1.15,2,1.15H182c-1.33,0-3.61.57-3.2.77A33.35,33.35,0,0,0,182.09,69h0c.36,0,.12-1.31.75-1.31h0c.65,0,.51,1.22.65,2.23A2.76,2.76,0,0,1,183,71.8a2.85,2.85,0,0,1-.46,1.61c-.46.46.78,1,1,1.87s-.13,9.71.22,9.71c0,0,0,0,0-.05.43-.83.31-14,.33-14.64,0-.09,0-.13,0-.13a5.18,5.18,0,0,1,.48,2.1c-.07.58.09,7.23.06,12.95s-.33,9.7-.23,11.53.4,1.39,1.4,1.84-.54,1.53,0,2.18a.27.27,0,0,0,.18.12c.38,0,.37-1.83.28-2.47a19.69,19.69,0,0,0,0-2.29c0-.19,0-.27,0-.27s.69.61,1.17.74.18,1.57-.13,1.57c-.06,0-.13-.06-.18-.2s-.08-.19-.1-.19a4.91,4.91,0,0,0,.87,2.57c.46.58.18.7-.23.7s-.67-.07-.88-.07h0c-.49,0,.08,1.73.11,3.06,0,.93.42,1.14.78,1.14a1.31,1.31,0,0,0,.42-.08c.38-.13,10.65-2.6,10.65-2.6l.32.65a7,7,0,0,1,.38-1.33c0-.08.07-.11.1-.11s.22.51.26.51,0-.09,0-.34c0-.76,0-3.65,0-4.75,0-.18,0-.31,0-.39a.17.17,0,0,1,0,0s0,.16,0,.43a28.1,28.1,0,0,0,.62,4.35c.11.33.29.5.48.5s.69-.56.72-1.85c0-1.59.16-2.82.62-2.82a.65.65,0,0,1,.43.26c.28.31.44.38.49.39h0c-.06,0-.25.1-.49.62-.54,1.19.1,1.39.19,2,0,.16.05.21.09.21s.23-.39.37-.39a.1.1,0,0,1,.07,0l0,0c.16,0,.28-1,.38-1s0,0,.06.14c.08.37.22.64.33.64s.12-.11.14-.35c0-.41.27-.92.45-.92s.11.06.14.2c0-.25,0-.48,0-.48a4.51,4.51,0,0,0,.46-.19s0,.15,0,.65.15.6.26.6.24-.22.21-.6a1.45,1.45,0,0,1,.41-1c0-.25,0-.58,0-1a1.07,1.07,0,0,1,0-.25s.06.71.14,1.15h0s0,0,0,.08a.39.39,0,0,1,0,.1c0,.09,0,.15.08.15s.12-.21.19-.79c.31-2.44,0-13.22-.06-14.94s0-3.1,0-6.08c0-2.3-.06-2.93.41-2.93a1.82,1.82,0,0,1,.55.14,2.88,2.88,0,0,0,1,.17c.57,0,.86-.21.25-.41-.92-.3-1.24-.85-1.09-1.25,0,0,.07-.06.14-.06.62,0,3,1.17,3.69,1.17h.11c.59-.18-.3-.25-2.09-1s-2.8-.63-2.74-2.43a3.46,3.46,0,0,1,.8-2.46s3.14,1,5.91,2.16a19.25,19.25,0,0,0,5.15,1.4c.19,0,.15-.06-.22-.19-1.45-.49-2.59-1.08-4.66-1.83-1.86-.68-2.2-1.53-1.74-1.53a.61.61,0,0,1,.19,0c.7.23,6.13,2.37,7.09,2.75"/><path class="cls-1" d="M206.44,98.18c0,.11,0,.2,0,.27a.74.74,0,0,0,.17-.21s0-.11,0-.17A.46.46,0,0,0,206.44,98.18Z"/><path class="cls-1" d="M240.68,37.64"/><path class="cls-1" d="M287.28,37.77a14.93,14.93,0,0,0-1.4-2.36c-.93-1.5-2.3-2.17-3.46-3.25a26.23,26.23,0,0,0-2.19-1.71,1.08,1.08,0,0,0-.4-.22c-.37-.08-.76-.11-.55-.73a23.08,23.08,0,0,0-1.34,2.17,7.05,7.05,0,0,0-1.19,2.3l-.26-.78a22.87,22.87,0,0,1-5.41,5.75q-.64-1.19-1.3-2.47a18,18,0,0,0-.73-2.18,11,11,0,0,0-1-2c-.24-.7-.49-1.37-.77-2s-.48-1-.74-1.51-.55-1-.85-1.43c-2.5-3.62-5.16-10.75-9.17-10.94l-.9,0-1,.1c-.81.85-5.36,2.74-5.9,3.7L233.31,55.32a3,3,0,0,0-1,.44,4.8,4.8,0,0,0,.34,1.16l-1.53,3.47-.41.3c-1.66,1.59-1.66,4.45-3.3,5.67a16,16,0,0,0-1.74,2.84h-.07c-1.13-.08-2.08.15-.71.49l.46.13-.17.31a3.43,3.43,0,0,0-.52-.12c-1.59-.24-3.89.29-4.6,0s-3-.28-2.4.09,3.82,1.36,3.28,1.6-2.16.16-.72.49a5.24,5.24,0,0,1,.67.22l.89.37a10.59,10.59,0,0,0,2.44.94c-.27.77-.52,1.53-.73,2.29s-.75,1.54-.41,2c0,0,0,.19-.09.29-.3.71-.65,1.42-.9,2.12-.09.26.06.48.11.72l.24-.11-1,2.5a1.28,1.28,0,0,0,.33,0c.52-.19,0,1.85-.07,2l-.12,4.1S240,81.87,240,78.3c-.41.24,0-1.29,0-.88.81-1.08,3.67-8.13,3.67-8.13.58-.91,1.26-2,2-3.07,3.17-1.47,6.57-3.9,10-3.87l3.81-1.59C259.32,65.15,261,75.1,260.76,72c0-.2.15-2.16,0,0-.14,2,13.93-5.14,18-9,3.43.08.58-7-1-11.14a1.34,1.34,0,0,0,.31-.18,7.46,7.46,0,0,1,1.49-.81l2-1,.06.48a1.72,1.72,0,0,0,.25-.46c.07-.53.38-.6.59-.53.51.17.77.07,1.08-.62.17.39.35.32.47-.1s.34-.73.71-.43c.1.08.43-.12.53-.31a6.22,6.22,0,0,0,.32-1.15l-1.09.15a3.19,3.19,0,0,1,1.46-1.81c.21-.11.42-.22.62-.35a2.55,2.55,0,0,0,1.12-2.11A11.29,11.29,0,0,0,287.28,37.77Zm-36.33,4c.08-.37.18-.73.28-1.11.3-1.05.68-2.15,1.05-3.25C251.76,27,278.76,54,250.42,49.63,249.65,47.8,250.42,43.86,250.94,41.73Z"/><path class="cls-1" d="M255.62,16.37l.9-.09S254.27,16.28,255.62,16.37Z"/><path class="cls-1" d="M113.1,101.08l1.3-.21c.64-.1,2.67-5.92-.26-6.41s-3-1.08-2.14-1.08h0c.89,0,4.64-1.69,3.09-4.87s-1.6-3-3.47-3.24S96.93,82.63,95,82.09s2.52-1.53,3-2.57,4.13-8,4.83-9.48-3.29-3.48-2.62-4.84,2.54-1.46,4-2.53,3.7-3,5.22-3.74.7-8.92,1.25-10.29.66-7-2.37-7.77a47.37,47.37,0,0,0-8.86-1.57c-3.3,0-5.9-.06-8-.06a62.84,62.84,0,0,0-11.8.75c-4.71.75-18.22,1.67-18.15,8.62s2.57,12.8,2.81,12.81-.53,1.11.14,1.26,2.27.33,2.4,1-.53.6-.06.92a2.84,2.84,0,0,0,.83.41c.41.18.2.36.56.36h.16c.33,0-.8.3-1.11.31s-.2.51.06.56a9.9,9.9,0,0,0,1.47.15l.34,0h0c.46,0,.46,1.55.17,1.74s-.13.35-.2.8.54.48.54.48l-.86.25a2,2,0,0,0,.52.64l.49.42s-.89,0-1,.28a.64.64,0,0,1-.52.2h-.05c.05,0,.83.07.63.55s-1,.84.58,1,2.47.57,1.9,1S60.22,80.66,59.69,82.4s-2.61,7.05-2.42,7.29,1.08,1,2,2,1.16,1.89,3.07,2.73,12.57,7.27,26.86,11.19c10.91,3,14.43,3.34,15.49,3.34a1.46,1.46,0,0,0,.42,0s-1.4-.21-3.88-.69c-.45-.09-.58-.13-.47-.13.48,0,5.64.73,7.16.85.28,0,.54,0,.77,0,1.35,0,2-.32,1.61-.63s-1.25-1.14-.87-1.47.24-.53.56-.53a1.7,1.7,0,0,1,.57.15,1.39,1.39,0,0,0,.48.12c.39,0,.26-.4.55-.42s-.95-.33-.56-.55a.58.58,0,0,1,.3-.09h.15a.6.6,0,0,0,.35-.14c.42-.29.88-.48.86-.7s1.1-.38,1-1.07.57-1.91,0-2S112.45,101.19,113.1,101.08Z"/><path class="cls-1" d="M170.46,64.2c-.8-.27-1.82-.61-2.68-.88h-2c-1.46,0-5.46-1.7-6.66-3.31-1.46-2-1.26-4.65.53-7.39a8.8,8.8,0,0,1,1.46-1.69,6.74,6.74,0,0,1,.19-1l.05-.19c.68-2.61,1.84-6.35,4-8.55a7.68,7.68,0,0,0,.9-1.06,7.69,7.69,0,0,1,3.14-2.62l.24-.12a24.2,24.2,0,0,0-2.73-3.59,29.49,29.49,0,0,0-4.07-3.63c-1.23-.91-2.6-1.39-3.89-2.23a16,16,0,0,0-4.56-2.1c-2-.54-3.81-.78-5.7-1.15l-.77-.13-.32-.79-1.84-.49-.27.59c-3-2.2-3.88-.82-5.89-1.46l1.33-.37-.29-.31c-.58.16-1.15.35-1.76.49a4.65,4.65,0,0,1-1.5.19c-1.22-.1-2.79-.62-3,.49,0,.09-.3.09-.38,0-.78-.63-.64-.14-.78,0a1,1,0,0,1-.46.33c-1.11.34-2.25.65-3.37,1a32.73,32.73,0,0,0-4.27,1.35,60.11,60.11,0,0,0-7.52,3.93,57.59,57.59,0,0,0-6.72,5.37,26.25,26.25,0,0,0-2,2l.49.13a6.93,6.93,0,0,1,4.45,3.77,13.49,13.49,0,0,1,.72,9c-.05.48-.06,1.65-.07,2.53,0,4.7-.09,8.76-3.34,10.26a22.71,22.71,0,0,0-2.85,2c-.6.47-1.16.92-1.7,1.3l-.09.06c.07.26-.11.44-.18.65a2.47,2.47,0,0,1-.2.33,5.27,5.27,0,0,1,.79,3.07l0,.17c.21.94.13,1.74.37,2.69a9.93,9.93,0,0,0,2.77,4.17c1.55,1.58,3,3.19,4.53,4.79a6.07,6.07,0,0,1,3,3c.52.39,1.08.77,1.6,1.12,1.28.86,2.58,1.65,3.88,2.46.22.14.61.39.65.35.63-.51,1.85.51,3,1.18l-1-2.56-2-1.61.08-.21,1,.47-.05-.48a19.8,19.8,0,0,0,1.82.78,27.86,27.86,0,0,0,3.29.86,10.8,10.8,0,0,0,1.61.25,2.42,2.42,0,0,0,.69-.25l.12-.26-1.63-.1.14-.24c.48-.11,1-.25,1.43-.33a6.64,6.64,0,0,0,1.36-.14,19.42,19.42,0,0,1,4.72-.73,9.71,9.71,0,0,0,3.13-.53c-.14.59-.28,1.19-.41,1.79-1.23,2.67-.25,5.85,1.94,6.25a2.67,2.67,0,0,0,2.25.62,12.1,12.1,0,0,0,2.32-.53,22.28,22.28,0,0,0,4.61-2.18,5.65,5.65,0,0,0,1.49-.53,5.17,5.17,0,0,0,2.06-2.06c1.69-1.43,3.23-3,4.77-4.55s2.89-3.26,4.35-4.87l1-2.26c1.92-3.93,4-7.73,5.72-11.82l0-.07Zm-18.64-.87c-1.46,4.43-5.39,8.83-7.61,13.61-3,2.12-5.52,2.91-7.42,2.36a12.91,12.91,0,0,1-5-2.82c-.47-.41-.92-.85-1.35-1.31-3.12-3.92-6.64-9.71-7.14-14.85a12.48,12.48,0,0,1-.06-1.28,13.1,13.1,0,0,1,3.91-3.58c.53-.33,1.09-.63,1.65-.91a41,41,0,0,1,10.37-2.63,51.17,51.17,0,0,0,9.44,2.1c.32.07.65.12,1,.16a8.3,8.3,0,0,1,2.62,4.32A9.46,9.46,0,0,1,151.82,63.33Z"/></g></g></svg>