<svg xmlns="http://www.w3.org/2000/svg" viewBox="0 0 404.04 82.95"><defs><style>.cls-1{fill:#fff;}</style></defs><title>nui</title><g id="Layer_2" data-name="Layer 2"><g id="Layer_1-2" data-name="Layer 1"><rect class="cls-1" x="21.92" y="26.04" width="19.36" height="58.65" transform="translate(-29.89 38.56) rotate(-45)"/><rect class="cls-1" x="266.48" y="34.66" width="19.36" height="43.72"/><rect class="cls-1" x="266.48" y="-14.42" width="19.36" height="58.65" transform="translate(291.06 -261.26) rotate(90)"/><rect class="cls-1" x="21.92" y="-1.74" width="19.36" height="58.65" transform="translate(28.76 -14.27) rotate(45)"/><rect class="cls-1" x="87.88" y="26.04" width="19.36" height="58.65" transform="translate(-10.57 85.2) rotate(-45)"/><rect class="cls-1" x="87.88" y="-1.74" width="19.36" height="58.65" transform="translate(48.08 -60.91) rotate(45)"/><rect class="cls-1" x="168.13" y="26.04" width="19.36" height="58.65" transform="translate(12.93 141.95) rotate(-45)"/><rect class="cls-1" x="168.13" y="-1.74" width="19.36" height="58.65" transform="translate(71.58 -117.65) rotate(45)"/><rect class="cls-1" x="195.71" y="-1.74" width="19.36" height="58.65" transform="translate(370.13 -98.15) rotate(135)"/><rect class="cls-1" x="195.72" y="26.04" width="19.36" height="58.65" transform="translate(311.48 239.75) rotate(-135)"/><rect class="cls-1" x="339.2" y="-1.74" width="19.36" height="58.65" transform="translate(121.69 -238.62) rotate(45)"/><rect class="cls-1" x="366.78" y="-1.74" width="19.36" height="58.65" transform="translate(662.16 -219.11) rotate(135)"/><rect class="cls-1" x="366.78" y="26.04" width="19.36" height="58.65" transform="translate(603.51 360.71) rotate(-135)"/><rect class="cls-1" x="107.84" y="33.74" width="19.36" height="15.26" transform="translate(76.14 158.89) rotate(-90)"/><rect class="cls-1" y="2.41" width="19.36" height="25.17"/><rect class="cls-1" y="55.36" width="19.36" height="26.55"/></g></g></svg>