<svg xmlns="http://www.w3.org/2000/svg" viewBox="0 0 412.17 84.36"><defs><style>.cls-1{fill:#fff;}</style></defs><title>nui2</title><g id="Layer_2" data-name="Layer 2"><g id="Layer_1-2" data-name="Layer 1"><rect class="cls-1" x="21.92" y="26.75" width="19.36" height="58.65" transform="translate(-30.39 38.77) rotate(-45)"/><rect class="cls-1" x="266.48" y="35.37" width="19.36" height="43.72"/><rect class="cls-1" x="266.48" y="-13.72" width="19.36" height="58.65" transform="translate(291.77 -260.56) rotate(90)"/><rect class="cls-1" x="21.92" y="-1.04" width="19.36" height="58.65" transform="translate(29.26 -14.06) rotate(45)"/><rect class="cls-1" x="87.88" y="26.75" width="19.36" height="58.65" transform="translate(-11.07 85.41) rotate(-45)"/><rect class="cls-1" x="87.88" y="-1.04" width="19.36" height="58.65" transform="translate(48.58 -60.7) rotate(45)"/><rect class="cls-1" x="168.13" y="26.75" width="19.36" height="58.65" transform="translate(12.43 142.16) rotate(-45)"/><rect class="cls-1" x="168.13" y="-1.04" width="19.36" height="58.65" transform="translate(72.08 -117.45) rotate(45)"/><rect class="cls-1" x="195.71" y="-1.04" width="19.36" height="58.65" transform="translate(370.63 -96.94) rotate(135)"/><rect class="cls-1" x="195.72" y="26.75" width="19.36" height="58.65" transform="translate(310.98 240.96) rotate(-135)"/><rect class="cls-1" x="339.2" y="-1.04" width="19.36" height="58.65" transform="translate(122.19 -238.41) rotate(45)"/><rect class="cls-1" x="366.78" y="-1.04" width="19.36" height="58.65" transform="translate(662.66 -217.91) rotate(135)"/><rect class="cls-1" x="366.78" y="26.75" width="19.36" height="58.65" transform="translate(603.01 361.92) rotate(-135)"/><rect class="cls-1" x="107.84" y="34.45" width="19.36" height="15.26" transform="translate(75.44 159.6) rotate(-90)"/><rect class="cls-1" y="3.12" width="19.36" height="25.17"/><rect class="cls-1" y="56.07" width="19.36" height="26.55"/><path class="cls-1" d="M52.92,84.36,10.74,42.18l14.4-14.4L67.31,70ZM12.15,42.18,52.92,82.95l13-13L25.13,29.2Z"/><path class="cls-1" d="M293.77,79.59H273.4V34.87h20.36Zm-19.36-1h18.36V35.87H274.4Z"/><path class="cls-1" d="M313.41,25.79H253.76V5.43h59.65Zm-58.65-1h57.65V6.43H254.76Z"/><path class="cls-1" d="M25.13,56.58l-14.4-14.4L52.91,0l14.4,14.4Zm-13-14.4,13,13L65.9,14.4l-13-13Z"/><path class="cls-1" d="M118.88,84.36,76.7,42.18l14.4-14.4L133.28,70ZM78.11,42.18l40.76,40.77,13-13L91.1,29.2Z"/><path class="cls-1" d="M91.09,56.58,76.7,42.18,118.88,0l14.4,14.4Zm-13-14.4,13,13L131.86,14.4l-13-13Z"/><path class="cls-1" d="M199.13,84.36,156.95,42.18l14.4-14.4L213.53,70ZM158.36,42.18l40.76,40.77,13-13L171.35,29.2Z"/><path class="cls-1" d="M171.34,56.58l-14.4-14.4L199.13,0l14.4,14.4Zm-13-14.4,13,13L212.11,14.4l-13-13Z"/><path class="cls-1" d="M226.71,56.58,184.53,14.4,198.93,0l42.18,42.18ZM185.94,14.4l40.76,40.76,13-13L198.93,1.41Z"/><path class="cls-1" d="M198.93,84.36,184.53,70l42.18-42.18,14.4,14.4Zm-13-14.4,13,13,40.76-40.77-13-13Z"/><path class="cls-1" d="M342.41,56.58,328,42.18,370.19,0l14.4,14.4Zm-13-14.4,13,13L383.18,14.4l-13-13Z"/><path class="cls-1" d="M397.77,56.58,355.59,14.4,370,0l42.18,42.18ZM357,14.4l40.76,40.76,13-13L370,1.41Z"/><path class="cls-1" d="M370,84.36,355.6,70l42.18-42.18,14.4,14.4ZM357,70l13,13,40.76-40.77-13-13Z"/><path class="cls-1" d="M133.07,52.26H116.81V31.9h16.26Zm-15.26-1h14.26V32.9H117.81Z"/><path class="cls-1" d="M27.28,28.79H6.92V2.62H27.28Zm-19.36-1H26.28V3.62H7.92Z"/><path class="cls-1" d="M27.28,83.12H6.92V55.57H27.28Zm-19.36-1H26.28V56.57H7.92Z"/><rect class="cls-1" x="45.49" y="0.21" width="7.42" height="1"/><rect class="cls-1" x="59.18" y="13.9" width="7.42" height="1"/><rect class="cls-1" x="59.18" y="69.46" width="7.42" height="1"/><rect class="cls-1" x="45.49" y="83.15" width="7.42" height="1"/><rect class="cls-1" x="111.45" y="0.21" width="7.42" height="1"/><rect class="cls-1" x="125.14" y="13.9" width="7.42" height="1"/><rect class="cls-1" x="125.15" y="69.46" width="7.42" height="1"/><rect class="cls-1" x="111.46" y="83.15" width="7.42" height="1"/><rect class="cls-1" x="191.7" y="0.21" width="7.42" height="1"/><rect class="cls-1" x="191.71" y="83.15" width="7.42" height="1"/><rect class="cls-1" x="362.77" y="0.21" width="7.42" height="1"/><rect class="cls-1" x="404.04" y="41.68" width="7.42" height="1"/><rect class="cls-1" x="362.57" y="83.15" width="7.42" height="1"/><rect class="cls-1" x="334.99" y="55.37" width="7.42" height="1"/></g></g></svg>