<svg xmlns="http://www.w3.org/2000/svg" viewBox="0 0 404.14 83.92"><defs><style>.cls-1{fill:#fff;}</style></defs><title>nui3</title><g id="Layer_2" data-name="Layer 2"><g id="Layer_1-2" data-name="Layer 1"><rect class="cls-1" x="22.02" y="26.52" width="19.36" height="58.65" transform="translate(-30.21 38.77) rotate(-45)"/><rect class="cls-1" x="266.58" y="35.15" width="19.36" height="43.72"/><rect class="cls-1" x="266.58" y="-13.94" width="19.36" height="58.65" transform="translate(291.65 -260.88) rotate(90)"/><rect class="cls-1" x="22.02" y="-1.26" width="19.36" height="58.65" transform="translate(29.13 -14.19) rotate(45)"/><rect class="cls-1" x="87.98" y="26.52" width="19.36" height="58.65" transform="translate(-10.89 85.42) rotate(-45)"/><rect class="cls-1" x="87.98" y="-1.26" width="19.36" height="58.65" transform="translate(48.45 -60.84) rotate(45)"/><rect class="cls-1" x="168.23" y="26.52" width="19.36" height="58.65" transform="translate(12.62 142.16) rotate(-45)"/><rect class="cls-1" x="168.23" y="-1.26" width="19.36" height="58.65" transform="translate(71.95 -117.58) rotate(45)"/><rect class="cls-1" x="195.81" y="-1.26" width="19.36" height="58.65" transform="translate(370.64 -97.39) rotate(135)"/><rect class="cls-1" x="195.81" y="26.52" width="19.36" height="58.65" transform="translate(311.31 240.65) rotate(-135)"/><rect class="cls-1" x="339.3" y="-1.26" width="19.36" height="58.65" transform="translate(122.06 -238.54) rotate(45)"/><rect class="cls-1" x="366.88" y="-1.26" width="19.36" height="58.65" transform="translate(662.67 -218.36) rotate(135)"/><rect class="cls-1" x="366.88" y="26.52" width="19.36" height="58.65" transform="translate(603.34 361.61) rotate(-135)"/><rect class="cls-1" x="107.93" y="34.23" width="19.36" height="15.26" transform="translate(75.76 159.47) rotate(-90)"/><rect class="cls-1" x="0.1" y="2.9" width="19.36" height="25.17"/><rect class="cls-1" x="0.1" y="55.85" width="19.36" height="26.55"/><path class="cls-1" d="M65.29,78.92l-37-37L41,29.28l37,37ZM29.75,42,65.29,77.5,76.55,66.24,41,30.7Z"/><path class="cls-1" d="M275.89,74.72H258V35.5h17.92Zm-16.92-1h15.92V36.5H259Z"/><path class="cls-1" d="M293.06,27.69H240.8V9.77h52.27Zm-51.27-1h50.27V10.77H241.8Z"/><path class="cls-1" d="M41,54.63,28.33,42l37-37L78,17.67ZM29.75,42,41,53.22,76.55,17.67,65.29,6.41Z"/><path class="cls-1" d="M123,78.92,86,42,98.67,29.28l37,37ZM87.41,42,123,77.5l11.26-11.26L98.67,30.7Z"/><path class="cls-1" d="M98.67,54.63,86,42,123,5l12.67,12.67ZM87.41,42,98.67,53.22l35.55-35.55L123,6.41Z"/><path class="cls-1" d="M193.1,78.92l-37-37,12.67-12.67,37,37ZM157.56,42,193.1,77.5l11.26-11.26L168.82,30.7Z"/><path class="cls-1" d="M168.82,54.63,156.14,42l37-37,12.67,12.67ZM157.56,42l11.26,11.26,35.54-35.55L193.1,6.41Z"/><path class="cls-1" d="M217.21,54.63l-37-37L192.93,5l37,37Zm-35.55-37,35.55,35.55L228.47,42,192.93,6.41Z"/><path class="cls-1" d="M192.93,78.92,180.25,66.24l37-37L229.89,42ZM181.67,66.24,192.93,77.5,228.47,42,217.21,30.7Z"/><path class="cls-1" d="M318.35,54.63,305.68,42l37-37,12.67,12.67ZM307.09,42l11.26,11.26L353.9,17.67,342.64,6.41Z"/><path class="cls-1" d="M366.75,54.63l-37-37L342.46,5l37,37Zm-35.54-37,35.54,35.55L378,42,342.46,6.41Z"/><path class="cls-1" d="M342.46,78.92,329.79,66.24l37-37L379.42,42ZM331.2,66.24,342.46,77.5,378,42,366.75,30.7Z"/><path class="cls-1" d="M135.42,50.83H121.08V32.91h14.34Zm-13.34-1h12.34V33.91H122.08Z"/><path class="cls-1" d="M42.95,30.31H25v-23H42.95ZM26,29.31H41.95v-21H26Z"/><path class="cls-1" d="M42.95,77.81H25V53.6H42.95ZM26,76.81H41.95V54.6H26Z"/><rect class="cls-1" x="240.49" y="7.49" width="7.26" height="1" transform="translate(49.31 155.32) rotate(-38.97)"/><rect class="cls-1" x="241.1" y="25.63" width="6.03" height="1" transform="translate(6.52 87.98) rotate(-20.7)"/><rect class="cls-1" x="258.45" y="35.08" width="8.16" height="1" transform="translate(-2.29 27.89) rotate(-6.06)"/><rect class="cls-1" x="262.02" y="71.87" width="1" height="9.35" transform="translate(65.64 266.32) rotate(-60.2)"/><rect class="cls-1" x="292.48" y="25.63" width="13.19" height="1" transform="matrix(0.99, -0.16, 0.16, 0.99, -0.3, 48.56)"/><rect class="cls-1" x="306.38" y="41.46" width="15.01" height="1"/><rect class="cls-1" x="326.22" y="46.37" width="1" height="16.82" transform="translate(238.77 374.18) rotate(-84.12)"/><rect class="cls-1" x="339.24" y="58.59" width="1" height="18.81" transform="translate(209.77 389.17) rotate(-79.29)"/><rect class="cls-1" x="352.07" y="70.39" width="1" height="20.87" transform="translate(186.14 401.97) rotate(-75.52)"/><rect class="cls-1" x="342.31" y="2.59" width="20.89" height="1" transform="translate(10.42 88.24) rotate(-14.47)"/><rect class="cls-1" x="116.75" y="-3.17" width="1" height="12.54" transform="translate(65.62 108.41) rotate(-65.4)"/><rect class="cls-1" x="129.58" y="10.78" width="1" height="10.29" transform="matrix(0.34, -0.94, 0.94, 0.34, 70.9, 132.85)"/><rect class="cls-1" x="124.94" y="67.49" width="10.29" height="1" transform="translate(-15.36 48.21) rotate(-19.85)"/><rect class="cls-1" x="110.99" y="80.32" width="12.54" height="1" transform="translate(-22.99 56.06) rotate(-24.56)"/><rect class="cls-1" x="129.58" y="27.92" width="1" height="9.75" transform="translate(81.14 157.7) rotate(-82.75)"/><rect class="cls-1" x="125.21" y="50.44" width="9.75" height="1" transform="translate(-5.28 16.4) rotate(-7.07)"/><rect class="cls-1" x="54.94" y="-7.1" width="1" height="20.38" transform="translate(38.25 55.89) rotate(-75.16)"/><rect class="cls-1" x="67.77" y="6.77" width="1" height="18.31" transform="translate(39.61 79.9) rotate(-79)"/><rect class="cls-1" x="59.11" y="67.49" width="18.31" height="1" transform="translate(-11.74 14.31) rotate(-11.02)"/><rect class="cls-1" x="45.25" y="80.32" width="20.38" height="1" transform="translate(-18.83 16.87) rotate(-14.82)"/><rect class="cls-1" x="12.31" y="-7.59" width="1" height="25.9" transform="translate(5.12 16.92) rotate(-79.06)"/><rect class="cls-1" x="30.45" y="-6.4" width="1" height="23.51" transform="translate(19.25 34.51) rotate(-77.93)"/><rect class="cls-1" x="12.31" y="16.2" width="1" height="25.49" transform="translate(-16.94 39.74) rotate(-86.07)"/><rect class="cls-1" x="29.73" y="18.21" width="1" height="21.63" transform="translate(-1.37 56.56) rotate(-84.9)"/><rect class="cls-1" x="-0.15" y="79.36" width="25.93" height="1" transform="matrix(0.98, -0.2, 0.2, 0.98, -15.43, 4.07)"/><rect class="cls-1" x="19.18" y="79.36" width="23.55" height="1" transform="translate(-16.57 8.61) rotate(-12.52)"/><rect class="cls-1" x="0.07" y="54.48" width="25.49" height="1" transform="translate(-3.73 1) rotate(-3.92)"/><rect class="cls-1" x="17.78" y="54.29" width="23.26" height="1" transform="translate(-3.98 2.33) rotate(-4.25)"/></g></g></svg>