<svg xmlns="http://www.w3.org/2000/svg" xmlns:xlink="http://www.w3.org/1999/xlink" viewBox="0 0 421.31 108.22"><defs><style>.cls-1{fill:none;}.cls-2{fill:#fff;}.cls-3{clip-path:url(#clip-path);}.cls-4{fill:#231f20;}</style><clipPath id="clip-path"><path class="cls-1" d="M21.29,41.47,35,27.78,76.45,69.26,62.76,82.95ZM283.75,78.38h19.36V34.66H283.75ZM264.11,5.22V24.58h58.65V5.22ZM21.29,41.47,35,55.16,76.45,13.69,62.76,0ZM128.73,82.95l13.69-13.69L100.94,27.78,87.25,41.47ZM87.25,41.47l13.69,13.69,41.47-41.47L128.72,0ZM209,82.95l13.69-13.69L181.19,27.78,167.5,41.47ZM167.5,41.47l13.69,13.69,41.47-41.47L209,0ZM208.77,0,195.08,13.69l41.47,41.47,13.69-13.69Zm41.47,41.47L236.56,27.78,195.09,69.26l13.69,13.69Zm88.32,0,13.69,13.69,41.47-41.47L380,0ZM379.84,0,366.15,13.69l41.47,41.47,13.69-13.69Zm41.47,41.47L407.62,27.78,366.15,69.26l13.69,13.69Zm-278.9,9.58V31.69H127.16V51.06ZM17.27,27.58H36.63V2.41H17.27Zm0,54.34H36.63V55.36H17.27Z"/></clipPath></defs><title>nui4</title><g id="Layer_2" data-name="Layer 2"><g id="Layer_1-2" data-name="Layer 1"><rect class="cls-2" x="39.19" y="26.04" width="19.36" height="58.65" transform="translate(-24.83 50.77) rotate(-45)"/><rect class="cls-2" x="283.75" y="34.66" width="19.36" height="43.72"/><rect class="cls-2" x="283.75" y="-14.42" width="19.36" height="58.65" transform="translate(308.33 -278.53) rotate(90)"/><rect class="cls-2" x="39.19" y="-1.74" width="19.36" height="58.65" transform="translate(33.82 -26.48) rotate(45)"/><rect class="cls-2" x="105.15" y="26.04" width="19.36" height="58.65" transform="translate(-5.51 97.42) rotate(-45)"/><rect class="cls-2" x="105.15" y="-1.74" width="19.36" height="58.65" transform="translate(53.14 -73.12) rotate(45)"/><rect class="cls-2" x="185.4" y="26.04" width="19.36" height="58.65" transform="translate(17.99 154.16) rotate(-45)"/><rect class="cls-2" x="185.4" y="-1.74" width="19.36" height="58.65" transform="translate(76.64 -129.87) rotate(45)"/><rect class="cls-2" x="212.98" y="-1.74" width="19.36" height="58.65" transform="translate(399.61 -110.36) rotate(135)"/><rect class="cls-2" x="212.99" y="26.04" width="19.36" height="58.65" transform="translate(340.97 251.96) rotate(-135)"/><rect class="cls-2" x="356.47" y="-1.74" width="19.36" height="58.65" transform="translate(126.75 -250.83) rotate(45)"/><rect class="cls-2" x="384.05" y="-1.74" width="19.36" height="58.65" transform="translate(691.64 -231.33) rotate(135)"/><rect class="cls-2" x="384.05" y="26.04" width="19.36" height="58.65" transform="translate(632.99 372.93) rotate(-135)"/><rect class="cls-2" x="125.11" y="33.74" width="19.36" height="15.26" transform="translate(93.41 176.16) rotate(-90)"/><rect class="cls-2" x="17.27" y="2.41" width="19.36" height="25.17"/><rect class="cls-2" x="17.27" y="55.36" width="19.36" height="26.55"/><g class="cls-3"><polygon class="cls-4" points="66.73 108.22 0 40.86 67.72 23.91 67.96 24.88 1.95 41.4 67.44 107.51 66.73 108.22"/><polygon class="cls-4" points="69.31 107.46 3.78 40.85 70.3 24.66 70.53 25.63 5.73 41.41 70.02 106.76 69.31 107.46"/><polygon class="cls-4" points="71.9 106.71 7.55 40.85 72.87 25.41 73.1 26.39 9.5 41.41 72.61 106.01 71.9 106.71"/><polygon class="cls-4" points="74.48 105.95 11.33 40.84 75.45 26.16 75.67 27.14 13.28 41.42 75.2 105.26 74.48 105.95"/><polygon class="cls-4" points="77.07 105.2 15.1 40.83 78.02 26.92 78.24 27.89 17.06 41.43 77.79 104.51 77.07 105.2"/><polygon class="cls-4" points="79.65 104.45 18.88 40.83 80.6 27.67 80.81 28.64 20.84 41.43 80.37 103.76 79.65 104.45"/><polygon class="cls-4" points="82.24 103.69 22.66 40.82 83.18 28.42 83.38 29.4 24.62 41.44 82.96 103.01 82.24 103.69"/><polygon class="cls-4" points="84.82 102.94 26.43 40.81 85.75 29.17 85.95 30.15 28.4 41.45 85.55 102.26 84.82 102.94"/><polygon class="cls-4" points="87.41 102.19 30.21 40.8 88.33 29.92 88.52 30.9 32.18 41.45 88.14 101.51 87.41 102.19"/><polygon class="cls-4" points="89.99 101.43 33.98 40.8 90.91 30.67 91.08 31.66 35.96 41.46 90.73 100.76 89.99 101.43"/><polygon class="cls-4" points="92.58 100.68 37.76 40.79 93.49 31.42 93.65 32.41 39.74 41.47 93.31 100.01 92.58 100.68"/><polygon class="cls-4" points="95.16 99.93 41.53 40.78 96.06 32.17 96.22 33.16 43.52 41.48 95.9 99.26 95.16 99.93"/><polygon class="cls-4" points="97.75 99.17 45.31 40.77 98.64 32.92 98.79 33.91 47.3 41.49 98.49 98.51 97.75 99.17"/><polygon class="cls-4" points="100.33 98.42 49.08 40.76 101.22 33.68 101.35 34.67 51.08 41.5 101.08 97.76 100.33 98.42"/><polygon class="cls-4" points="102.92 97.67 52.86 40.75 103.8 34.43 103.92 35.42 54.86 41.51 103.67 97.01 102.92 97.67"/><polygon class="cls-4" points="105.5 96.91 56.63 40.74 106.38 35.18 106.49 36.17 58.64 41.52 106.25 96.26 105.5 96.91"/><polygon class="cls-4" points="108.08 96.16 60.41 40.73 108.96 35.93 109.05 36.93 62.42 41.53 108.84 95.51 108.08 96.16"/><polygon class="cls-4" points="110.67 95.4 64.18 40.71 111.53 36.68 111.62 37.68 66.2 41.55 111.43 94.76 110.67 95.4"/><polygon class="cls-4" points="113.25 94.65 67.95 40.7 114.11 37.43 114.19 38.43 69.98 41.56 114.02 94.01 113.25 94.65"/><polygon class="cls-4" points="115.84 93.89 71.73 40.69 116.69 38.18 116.75 39.18 73.76 41.57 116.61 93.26 115.84 93.89"/><polygon class="cls-4" points="118.42 93.14 75.5 40.67 119.28 38.94 119.31 39.94 77.55 41.59 119.19 92.51 118.42 93.14"/><polygon class="cls-4" points="121 92.39 79.27 40.65 121.86 39.69 121.88 40.69 81.33 41.61 121.78 91.76 121 92.39"/><polygon class="cls-4" points="123.59 91.63 83.05 40.63 124.44 40.44 124.44 41.44 85.11 41.63 124.37 91.01 123.59 91.63"/><polygon class="cls-4" points="126.17 90.88 86.82 40.62 127.02 41.19 127.01 42.19 88.89 41.64 126.96 90.26 126.17 90.88"/><polygon class="cls-4" points="128.76 90.12 90.59 40.59 129.6 41.94 129.57 42.94 92.68 41.67 129.55 89.51 128.76 90.12"/><polygon class="cls-4" points="131.34 89.37 94.36 40.57 132.19 42.7 132.13 43.69 96.46 41.69 132.14 88.76 131.34 89.37"/><polygon class="cls-4" points="133.93 88.61 98.13 40.54 134.77 43.45 134.69 44.45 100.25 41.72 134.73 88.01 133.93 88.61"/><polygon class="cls-4" points="136.51 87.86 101.9 40.52 137.35 44.2 137.25 45.2 104.03 41.74 137.32 87.27 136.51 87.86"/><polygon class="cls-4" points="139.09 87.1 105.67 40.48 139.94 44.95 139.81 45.95 107.82 41.77 139.91 86.52 139.09 87.1"/><polygon class="cls-4" points="141.68 86.34 109.43 40.45 142.53 45.71 142.37 46.7 111.61 41.81 142.49 85.77 141.68 86.34"/><polygon class="cls-4" points="144.26 85.59 113.2 40.41 145.11 46.46 144.93 47.45 115.4 41.85 145.08 85.02 144.26 85.59"/><polygon class="cls-4" points="146.84 84.83 116.96 40.37 147.7 47.22 147.49 48.2 119.19 41.89 147.67 84.27 146.84 84.83"/><polygon class="cls-4" points="149.43 84.08 120.72 40.32 150.29 47.97 150.04 48.94 122.98 41.94 150.26 83.53 149.43 84.08"/><polygon class="cls-4" points="152.01 83.32 124.48 40.27 152.88 48.73 152.6 49.69 126.78 41.99 152.85 82.78 152.01 83.32"/><polygon class="cls-4" points="154.59 82.56 128.24 40.2 155.47 49.49 155.15 50.44 130.57 42.05 155.44 82.03 154.59 82.56"/><polygon class="cls-4" points="157.18 81.8 132 40.13 158.06 50.25 157.7 51.18 134.37 42.13 158.03 81.29 157.18 81.8"/><polygon class="cls-4" points="159.76 81.05 135.75 40.05 160.66 51.01 160.26 51.92 138.17 42.21 160.62 80.54 159.76 81.05"/><polygon class="cls-4" points="162.34 80.29 139.5 39.95 163.25 51.77 162.81 52.67 141.98 42.3 163.21 79.8 162.34 80.29"/><polygon class="cls-4" points="164.92 79.53 143.24 39.84 165.85 52.53 165.36 53.41 145.79 42.42 165.8 79.05 164.92 79.53"/><polygon class="cls-4" points="167.51 78.77 146.98 39.71 168.44 53.3 167.91 54.15 149.61 42.55 168.39 78.3 167.51 78.77"/><polygon class="cls-4" points="170.09 78.01 150.71 39.55 171.04 54.07 170.46 54.88 153.43 42.72 170.98 77.56 170.09 78.01"/><polygon class="cls-4" points="172.67 77.25 154.44 39.35 173.63 54.84 173.01 55.62 157.26 42.91 173.57 76.82 172.67 77.25"/><polygon class="cls-4" points="175.25 76.49 158.15 39.1 176.23 55.61 175.56 56.35 161.1 43.15 176.16 76.07 175.25 76.49"/><polygon class="cls-4" points="177.84 75.73 161.85 38.8 178.82 56.38 178.11 57.08 164.96 43.46 178.75 75.33 177.84 75.73"/><polygon class="cls-4" points="180.42 74.97 165.54 38.41 181.42 57.16 180.66 57.8 168.83 43.84 181.34 74.59 180.42 74.97"/><polygon class="cls-4" points="183 74.2 169.2 37.91 184.01 57.94 183.21 58.53 172.72 44.35 183.94 73.85 183 74.2"/><polygon class="cls-4" points="185.58 73.44 172.84 37.24 186.6 58.72 185.76 59.26 176.64 45.02 186.52 73.11 185.58 73.44"/><polygon class="cls-4" points="188.16 72.67 178.04 41.28 178.95 40.89 189.19 59.5 188.32 59.98 180.59 45.94 189.12 72.37 188.16 72.67"/><polygon class="cls-4" points="190.75 71.91 181.81 41.27 182.75 40.92 191.78 60.28 190.88 60.7 184.6 47.25 191.71 71.63 190.75 71.91"/><polygon class="cls-4" points="193.33 71.14 185.59 41.26 186.54 40.95 194.37 61.06 193.44 61.42 188.68 49.21 194.3 70.89 193.33 71.14"/><polygon class="cls-4" points="195.91 70.38 189.36 41.24 190.32 40.98 196.95 61.84 196 62.15 192.87 52.31 196.89 70.16 195.91 70.38"/><polygon class="cls-4" points="198.49 69.61 193.13 41.22 194.11 41.01 199.53 62.62 198.56 62.87 197.25 57.66 199.48 69.42 198.49 69.61"/><polygon class="cls-4" points="201.08 68.84 196.91 41.2 197.89 41.04 202.11 63.41 201.29 63.56 202.06 68.69 201.08 68.84"/><polygon class="cls-4" points="203.66 68.06 200.68 41.18 201.68 41.06 204.69 64.19 204.24 64.24 204.65 67.95 203.66 68.06"/><polygon class="cls-4" points="206.25 67.29 204.46 41.16 205.46 41.09 207.26 64.96 207.09 64.98 207.24 67.22 206.25 67.29"/><polygon class="cls-4" points="208.83 66.52 208.23 41.14 209.23 41.12 209.84 65.74 209.81 65.74 209.83 66.49 208.83 66.52"/><polygon class="cls-4" points="212.41 66.52 211.41 66.49 211.43 65.74 211.42 65.74 212.01 41.12 213.01 41.15 212.41 66.52"/><polygon class="cls-4" points="214.98 67.29 213.98 67.22 214.14 64.97 214 64.97 215.79 41.09 216.79 41.16 214.98 67.29"/><polygon class="cls-4" points="217.55 68.06 216.56 67.95 216.97 64.23 216.59 64.19 219.57 41.07 220.56 41.19 217.55 68.06"/><polygon class="cls-4" points="220.12 68.84 219.13 68.69 219.92 63.54 219.19 63.41 223.35 41.04 224.34 41.2 220.12 68.84"/><polygon class="cls-4" points="222.69 69.61 221.71 69.42 223.68 59.11 222.75 62.87 221.78 62.63 227.14 41.01 228.11 41.22 222.69 69.61"/><polygon class="cls-4" points="225.26 70.38 224.28 70.15 228.16 53.11 225.32 62.14 224.37 61.84 230.92 40.98 231.89 41.24 225.26 70.38"/><polygon class="cls-4" points="227.83 71.14 226.86 70.89 232.42 49.69 227.9 61.42 226.97 61.06 234.71 40.95 235.66 41.26 227.83 71.14"/><polygon class="cls-4" points="230.4 71.91 229.44 71.63 236.53 47.57 230.47 60.7 229.57 60.28 238.5 40.92 239.43 41.27 230.4 71.91"/><polygon class="cls-4" points="232.97 72.68 232.02 72.37 240.57 46.16 233.05 59.98 232.17 59.5 242.29 40.89 243.21 41.28 232.97 72.68"/><polygon class="cls-4" points="235.53 73.44 234.59 73.11 244.54 45.17 235.62 59.25 234.77 58.72 248.48 37.09 235.53 73.44"/><polygon class="cls-4" points="238.1 74.2 237.17 73.84 248.47 44.46 238.18 58.53 237.38 57.94 252.1 37.8 238.1 74.2"/><polygon class="cls-4" points="240.67 74.97 239.75 74.59 252.37 43.93 240.75 57.8 239.98 57.16 255.76 38.33 240.67 74.97"/><polygon class="cls-4" points="243.24 75.73 242.32 75.33 256.25 43.52 243.31 57.08 242.59 56.38 259.44 38.73 243.24 75.73"/><polygon class="cls-4" points="245.81 76.49 244.9 76.07 260.11 43.21 245.88 56.34 245.2 55.61 263.13 39.05 245.81 76.49"/><polygon class="cls-4" points="248.38 77.25 247.48 76.81 263.95 42.95 248.44 55.61 247.81 54.84 266.84 39.31 248.38 77.25"/><polygon class="cls-4" points="250.94 78.01 250.05 77.56 267.79 42.75 251 54.88 250.42 54.07 270.56 39.51 250.94 78.01"/><polygon class="cls-4" points="253.51 78.77 252.63 78.3 271.62 42.58 253.57 54.14 253.03 53.3 274.29 39.68 253.51 78.77"/><polygon class="cls-4" points="256.08 79.53 255.21 79.05 275.43 42.44 256.13 53.41 255.64 52.54 278.02 39.82 256.08 79.53"/><polygon class="cls-4" points="258.65 80.29 257.78 79.79 279.25 42.32 258.69 52.66 258.25 51.77 281.77 39.94 258.65 80.29"/><polygon class="cls-4" points="261.22 81.05 260.36 80.54 283.06 42.22 261.26 51.92 260.85 51.01 285.51 40.03 261.22 81.05"/><polygon class="cls-4" points="263.79 81.81 262.94 81.28 286.86 42.14 263.83 51.18 263.46 50.25 289.26 40.12 263.79 81.81"/><polygon class="cls-4" points="266.36 82.56 265.51 82.03 290.66 42.06 266.39 50.44 266.07 49.49 293.02 40.19 266.36 82.56"/><polygon class="cls-4" points="268.93 83.32 268.09 82.78 294.46 42 268.96 49.69 268.67 48.73 296.77 40.26 268.93 83.32"/><polygon class="cls-4" points="271.5 84.08 270.66 83.52 298.25 41.95 271.53 48.94 271.27 47.98 300.54 40.31 271.5 84.08"/><polygon class="cls-4" points="274.06 84.83 273.24 84.27 302.05 41.9 274.1 48.19 273.88 47.22 304.3 40.36 274.06 84.83"/><polygon class="cls-4" points="276.64 85.59 275.81 85.02 305.84 41.85 276.67 47.45 276.48 46.46 308.06 40.41 276.64 85.59"/><polygon class="cls-4" points="279.2 86.35 278.39 85.77 309.63 41.81 279.24 46.7 279.08 45.71 311.82 40.45 279.2 86.35"/><polygon class="cls-4" points="281.77 87.1 280.97 86.51 313.42 41.78 281.81 45.95 281.68 44.95 315.59 40.48 281.77 87.1"/><polygon class="cls-4" points="284.35 87.86 283.54 87.26 317.2 41.75 284.39 45.2 284.28 44.2 319.36 40.51 284.35 87.86"/><polygon class="cls-4" points="286.92 88.61 286.12 88.01 320.99 41.72 286.96 44.45 286.88 43.45 323.13 40.54 286.92 88.61"/><polygon class="cls-4" points="289.49 89.37 288.69 88.76 324.77 41.69 289.54 43.69 289.48 42.7 326.9 40.57 289.49 89.37"/><polygon class="cls-4" points="292.06 90.12 291.27 89.51 328.56 41.67 292.11 42.94 292.07 41.94 330.67 40.59 292.06 90.12"/><polygon class="cls-4" points="294.63 90.88 293.84 90.26 332.35 41.65 294.69 42.19 294.67 41.19 334.44 40.61 294.63 90.88"/><polygon class="cls-4" points="297.2 91.63 296.42 91.01 336.13 41.63 297.26 41.44 297.27 40.44 338.21 40.63 297.2 91.63"/><polygon class="cls-4" points="299.77 92.39 298.99 91.76 339.91 41.61 299.84 40.69 299.86 39.69 341.98 40.65 299.77 92.39"/><polygon class="cls-4" points="302.34 93.14 301.57 92.51 343.69 41.59 302.42 39.94 302.46 38.94 345.75 40.67 345.11 41.45 302.34 93.14"/><polygon class="cls-4" points="304.91 93.9 304.14 93.25 347.48 41.57 305 39.18 305.05 38.18 349.52 40.69 304.91 93.9"/><polygon class="cls-4" points="307.48 94.65 306.72 94 351.26 41.56 307.57 38.43 307.65 37.43 353.3 40.7 307.48 94.65"/><polygon class="cls-4" points="310.05 95.41 309.29 94.75 355.04 41.54 310.15 37.68 310.24 36.68 357.07 40.72 310.05 95.41"/><polygon class="cls-4" points="312.62 96.16 311.87 95.5 358.82 41.53 312.73 36.92 312.83 35.93 360.85 40.73 312.62 96.16"/><polygon class="cls-4" points="315.19 96.91 314.44 96.25 362.6 41.52 315.31 36.17 315.43 35.18 364.62 40.74 315.19 96.91"/><polygon class="cls-4" points="317.76 97.67 317.01 97 366.38 41.51 317.89 35.42 318.02 34.43 368.39 40.75 317.76 97.67"/><polygon class="cls-4" points="320.33 98.42 319.59 97.75 370.16 41.5 320.48 34.67 320.61 33.68 372.17 40.76 320.33 98.42"/><polygon class="cls-4" points="322.9 99.18 322.16 98.5 373.94 41.49 323.06 33.91 323.2 32.93 375.94 40.77 322.9 99.18"/><polygon class="cls-4" points="325.47 99.93 324.74 99.25 377.72 41.48 325.64 33.16 325.8 32.17 379.72 40.78 325.47 99.93"/><polygon class="cls-4" points="328.05 100.68 327.31 100 381.5 41.47 328.22 32.41 328.39 31.42 383.49 40.79 328.05 100.68"/><polygon class="cls-4" points="330.62 101.44 329.89 100.75 385.28 41.46 330.8 31.66 330.98 30.67 387.27 40.8 330.62 101.44"/><polygon class="cls-4" points="333.19 102.19 332.46 101.5 389.06 41.45 333.38 30.9 333.57 29.92 391.04 40.81 333.19 102.19"/><polygon class="cls-4" points="335.76 102.94 335.03 102.25 392.84 41.44 335.96 30.15 336.16 29.17 394.82 40.82 335.76 102.94"/><polygon class="cls-4" points="338.33 103.7 337.61 103.01 396.62 41.44 338.55 29.4 338.75 28.42 398.6 40.82 338.33 103.7"/><polygon class="cls-4" points="340.9 104.45 340.18 103.76 400.4 41.43 341.13 28.64 341.34 27.67 402.37 40.83 340.9 104.45"/><polygon class="cls-4" points="343.47 105.2 342.75 104.51 404.18 41.42 343.71 27.89 343.93 26.92 406.15 40.84 405.52 41.48 343.47 105.2"/><polygon class="cls-4" points="346.04 105.96 345.33 105.26 407.96 41.42 346.29 27.14 346.52 26.16 409.92 40.84 346.04 105.96"/><polygon class="cls-4" points="348.61 106.71 347.9 106.01 411.74 41.41 348.88 26.39 349.11 25.41 413.7 40.85 348.61 106.71"/><polygon class="cls-4" points="351.19 107.46 350.48 106.76 415.52 41.4 351.46 25.63 351.7 24.66 417.48 40.85 351.19 107.46"/><polygon class="cls-4" points="353.76 108.22 353.05 107.51 419.3 41.4 354.04 24.88 354.29 23.91 421.25 40.86 353.76 108.22"/></g></g></g></svg>