<svg xmlns="http://www.w3.org/2000/svg" xmlns:xlink="http://www.w3.org/1999/xlink" viewBox="0 0 418.07 176.27"><defs><style>.cls-1{fill:none;}.cls-2{fill:#fff;}.cls-3{clip-path:url(#clip-path);}.cls-4{fill:#231f20;}</style><clipPath id="clip-path"><path class="cls-1" d="M281.41,40.4h19.24V77.32H281.41ZM261.89,24.25h58.27V5.15H261.89ZM75.46,13.51,61.86,0l-26,25.78V2.38H16.67V27.21H34.46l-13.8,13.7h0l13.8,13.7H16.67V80.81H35.9V56l26,25.78,13.6-13.51L47.86,40.91Zm65.53,0L127.39,0,86.19,40.91h0l41.2,40.91L141,68.32l-27.6-27.41ZM248.12,40.91l-27.5,27.31.1.1-13.6,13.51-.1-.1-.1.1-13.6-13.51.1-.1-27.5-27.31h0l27.5-27.31-.1-.1L206.92,0l.1.1.1-.1,13.6,13.51-.1.1,27.5,27.31h0ZM207,54.72l13.9-13.8L207,27.11l-13.9,13.8Zm211-13.8h0L390.57,13.6l.1-.1L377.07,0l-.1.1-.1-.1-13.6,13.51.1.1-27.5,27.31,13.6,13.51L377,27.11l13.9,13.8-27.6,27.41,13.6,13.51,41.2-40.91ZM125.84,50.37H141V31.27H125.84Z"/></clipPath></defs><title>nui5</title><g id="Layer_2" data-name="Layer 2"><g id="Layer_1-2" data-name="Layer 1"><rect class="cls-2" x="281.41" y="40.4" width="19.24" height="36.92"/><rect class="cls-2" x="261.89" y="5.15" width="58.27" height="19.1"/><polygon class="cls-2" points="75.46 13.51 61.86 0 35.9 25.78 35.9 2.38 16.67 2.38 16.67 27.21 34.46 27.21 20.66 40.91 20.66 40.91 20.66 40.91 34.46 54.62 16.67 54.62 16.67 80.81 35.9 80.81 35.9 56.05 61.86 81.83 75.46 68.32 47.86 40.91 75.46 13.51"/><polygon class="cls-2" points="140.99 13.51 127.39 0 86.19 40.91 86.19 40.91 86.19 40.91 127.39 81.83 141 68.32 113.39 40.91 140.99 13.51"/><path class="cls-2" d="M248.12,40.91h0L220.62,13.6l.1-.1L207.12,0l-.1.1-.1-.1-13.6,13.51.1.1-27.5,27.31h0l27.5,27.31-.1.1,13.6,13.51.1-.1.1.1,13.6-13.51-.1-.1,27.5-27.31Zm-55,0L207,27.11l13.9,13.8L207,54.72Z"/><polygon class="cls-2" points="418.07 40.91 418.07 40.91 390.57 13.6 390.67 13.51 377.07 0 376.97 0.1 376.87 0 363.27 13.51 363.37 13.6 335.87 40.91 349.47 54.42 376.97 27.11 390.87 40.91 363.27 68.32 376.87 81.83 418.07 40.91 418.07 40.91"/><rect class="cls-2" x="125.84" y="31.27" width="15.16" height="19.1"/><g class="cls-3"><polygon class="cls-4" points="44.45 176.27 0 40.73 0.95 40.42 23.18 108.19 23.18 108.19 45.4 175.96 44.45 176.27"/><polygon class="cls-4" points="47.41 176.1 25.63 108.58 25.5 108.62 3.75 40.73 4.7 40.42 48.36 175.79 47.41 176.1"/><polygon class="cls-4" points="50.37 175.93 29.04 108.65 28.78 108.73 7.5 40.72 8.46 40.42 51.32 175.63 50.37 175.93"/><polygon class="cls-4" points="53.32 175.76 32.44 108.73 32.06 108.85 11.26 40.72 12.21 40.43 54.28 175.46 53.32 175.76"/><polygon class="cls-4" points="56.28 175.59 35.85 108.82 35.34 108.97 15.01 40.72 15.97 40.43 57.24 175.29 56.28 175.59"/><polygon class="cls-4" points="59.24 175.41 39.25 108.9 38.62 109.08 18.76 40.71 19.72 40.43 60.2 175.13 59.24 175.41"/><polygon class="cls-4" points="62.2 175.24 42.65 108.99 41.89 109.2 22.51 40.71 23.47 40.43 63.15 174.96 62.2 175.24"/><polygon class="cls-4" points="65.15 175.07 46.05 109.08 45.17 109.32 26.26 40.71 27.23 40.44 66.11 174.79 65.15 175.07"/><polygon class="cls-4" points="68.11 174.9 48.77 106.79 49.41 109.17 48.45 109.43 30.02 40.7 30.98 40.44 69.07 174.63 68.11 174.9"/><polygon class="cls-4" points="71.07 174.73 50.26 99.96 52.69 109.3 51.73 109.55 33.77 40.7 34.73 40.44 72.03 174.46 71.07 174.73"/><polygon class="cls-4" points="74.02 174.56 52.18 94.46 55.97 109.42 55.01 109.67 37.52 40.7 38.49 40.44 74.99 174.29 74.02 174.56"/><polygon class="cls-4" points="76.98 174.39 54.44 90.01 59.25 109.55 58.28 109.78 41.27 40.69 42.24 40.45 77.95 174.13 76.98 174.39"/><polygon class="cls-4" points="79.94 174.22 56.94 86.27 62.53 109.67 61.56 109.9 45.02 40.69 45.99 40.45 80.91 173.96 79.94 174.22"/><polygon class="cls-4" points="82.9 174.04 59.64 83.15 65.81 109.79 64.84 110.02 48.77 40.69 49.75 40.45 83.87 173.79 82.9 174.04"/><polygon class="cls-4" points="85.85 173.87 62.48 80.48 69.09 109.92 68.12 110.13 52.53 40.68 53.5 40.45 86.83 173.63 85.85 173.87"/><polygon class="cls-4" points="88.81 173.7 65.45 78.18 72.37 110.04 71.4 110.25 56.28 40.68 57.25 40.45 89.78 173.46 88.81 173.7"/><polygon class="cls-4" points="91.77 173.53 68.51 76.16 75.65 110.16 74.67 110.37 60.03 40.68 61.01 40.46 92.74 173.3 91.77 173.53"/><polygon class="cls-4" points="94.73 173.36 71.65 74.4 78.93 110.28 77.95 110.48 63.78 40.67 64.76 40.46 95.7 173.13 94.73 173.36"/><polygon class="cls-4" points="97.69 173.19 74.85 72.83 82.21 110.41 81.23 110.6 67.54 40.67 68.51 40.46 98.66 172.96 97.69 173.19"/><polygon class="cls-4" points="100.64 173.01 78.11 71.44 85.49 110.53 84.51 110.72 71.29 40.67 72.27 40.47 101.62 172.8 100.64 173.01"/><polygon class="cls-4" points="103.6 172.84 81.42 70.19 88.77 110.66 87.78 110.83 75.04 40.66 76.02 40.47 104.58 172.63 103.6 172.84"/><polygon class="cls-4" points="106.56 172.67 84.77 69.08 92.05 110.78 91.06 110.95 78.79 40.66 79.77 40.47 107.53 172.47 106.56 172.67"/><polygon class="cls-4" points="109.51 172.5 88.15 68.07 95.33 110.9 94.34 111.07 82.55 40.66 83.53 40.47 110.49 172.3 109.51 172.5"/><polygon class="cls-4" points="112.47 172.33 91.56 67.16 98.61 111.03 97.62 111.18 86.3 40.65 87.28 40.48 113.45 172.13 112.47 172.33"/><polygon class="cls-4" points="115.43 172.16 95 66.33 101.89 111.15 100.9 111.3 90.05 40.65 91.03 40.48 116.41 171.97 115.43 172.16"/><polygon class="cls-4" points="118.39 171.99 98.47 65.56 105.17 111.27 104.18 111.42 93.8 40.65 94.79 40.48 119.37 171.8 118.39 171.99"/><polygon class="cls-4" points="121.34 171.81 101.95 64.88 108.45 111.39 107.46 111.53 97.55 40.64 98.54 40.49 122.33 171.64 121.34 171.81"/><polygon class="cls-4" points="124.3 171.64 105.45 64.24 111.73 111.52 110.73 111.65 101.31 40.64 102.29 40.49 125.29 171.47 124.3 171.64"/><polygon class="cls-4" points="127.26 171.47 108.96 63.66 115 111.64 114.01 111.77 105.06 40.64 106.05 40.49 128.25 171.3 127.26 171.47"/><polygon class="cls-4" points="130.22 171.3 112.49 63.12 118.28 111.77 117.29 111.88 108.81 40.63 109.8 40.49 131.2 171.14 130.22 171.3"/><polygon class="cls-4" points="133.17 171.13 116.04 62.63 121.56 111.89 120.57 112 112.56 40.63 113.56 40.5 134.16 170.97 133.17 171.13"/><polygon class="cls-4" points="136.13 170.96 119.59 62.17 124.84 112.01 123.85 112.12 116.32 40.63 117.31 40.5 137.12 170.81 136.13 170.96"/><polygon class="cls-4" points="139.09 170.78 123.16 61.76 128.12 112.14 127.13 112.23 120.07 40.62 121.06 40.5 140.08 170.64 139.09 170.78"/><polygon class="cls-4" points="142.05 170.61 126.73 61.37 131.4 112.26 130.4 112.35 123.82 40.62 124.81 40.51 143.04 170.47 142.05 170.61"/><polygon class="cls-4" points="145 170.44 130.31 61.02 134.68 112.38 133.68 112.47 127.57 40.62 128.57 40.51 146 170.31 145 170.44"/><polygon class="cls-4" points="147.96 170.27 133.9 60.68 137.96 112.5 136.96 112.58 131.33 40.61 132.32 40.51 148.95 170.14 147.96 170.27"/><polygon class="cls-4" points="150.92 170.1 137.5 60.38 141.24 112.63 140.24 112.7 135.08 40.61 136.07 40.51 151.91 169.97 150.92 170.1"/><polygon class="cls-4" points="153.88 169.93 141.1 60.1 144.52 112.75 143.52 112.82 138.83 40.61 139.83 40.52 154.87 169.81 153.88 169.93"/><polygon class="cls-4" points="156.84 169.75 144.71 59.84 147.8 112.87 146.8 112.93 142.58 40.6 143.58 40.52 157.83 169.64 156.84 169.75"/><polygon class="cls-4" points="159.79 169.58 148.32 59.6 151.07 113 150.08 113.05 146.34 40.6 147.33 40.52 160.79 169.48 159.79 169.58"/><polygon class="cls-4" points="162.75 169.41 151.94 59.39 154.35 113.12 153.35 113.17 150.09 40.6 151.09 40.53 163.75 169.31 162.75 169.41"/><polygon class="cls-4" points="165.71 169.24 155.56 59.19 157.63 113.24 156.63 113.28 153.84 40.59 154.84 40.53 166.71 169.15 165.71 169.24"/><polygon class="cls-4" points="168.67 169.07 159.18 59.01 160.91 113.37 159.91 113.4 157.59 40.59 158.59 40.53 169.66 168.98 168.67 169.07"/><polygon class="cls-4" points="171.63 168.89 162.81 58.85 164.19 113.49 163.19 113.52 161.35 40.59 162.34 40.53 172.62 168.81 171.63 168.89"/><polygon class="cls-4" points="174.58 168.72 166.44 58.7 167.47 113.61 166.47 113.63 165.1 40.58 166.1 40.54 175.58 168.65 174.58 168.72"/><polygon class="cls-4" points="177.54 168.55 170.07 58.57 170.75 113.74 169.75 113.75 168.85 40.58 169.85 40.54 178.54 168.48 177.54 168.55"/><polygon class="cls-4" points="180.5 168.38 173.71 58.45 174.03 113.86 173.03 113.87 172.6 40.58 173.6 40.54 181.5 168.32 180.5 168.38"/><polygon class="cls-4" points="183.46 168.21 177.35 58.34 177.31 113.98 176.31 113.98 176.36 40.57 177.36 40.55 184.45 168.15 183.46 168.21"/><polygon class="cls-4" points="186.41 168.03 180.98 58.25 180.59 114.11 179.59 114.1 180.11 40.57 181.11 40.55 187.41 167.99 186.41 168.03"/><polygon class="cls-4" points="189.37 167.86 184.63 58.17 183.86 114.23 182.86 114.22 183.86 40.57 184.86 40.55 190.37 167.82 189.37 167.86"/><polygon class="cls-4" points="192.33 167.69 188.27 58.11 187.14 114.35 186.14 114.33 187.62 40.56 188.62 40.56 193.33 167.65 192.33 167.69"/><polygon class="cls-4" points="195.29 167.52 191.91 58.06 190.42 114.48 189.42 114.45 191.37 40.56 192.37 40.56 196.29 167.49 195.29 167.52"/><polygon class="cls-4" points="198.25 167.35 195.55 58.02 193.7 114.6 192.7 114.57 195.12 40.56 196.12 40.56 199.25 167.32 198.25 167.35"/><polygon class="cls-4" points="201.2 167.17 199.19 57.99 196.98 114.72 195.98 114.68 198.88 40.55 199.88 40.57 202.2 167.16 201.2 167.17"/><polygon class="cls-4" points="204.16 167 202.84 57.97 200.26 114.85 199.26 114.8 202.63 40.55 203.63 40.57 205.16 166.99 204.16 167"/><polygon class="cls-4" points="207.12 166.83 206.48 57.97 203.54 114.97 202.54 114.92 206.38 40.55 207.38 40.57 208.12 166.82 207.12 166.83"/><polygon class="cls-4" points="211.08 166.66 210.08 166.66 210.13 57.97 206.81 115.09 205.82 115.03 210.13 40.55 211.13 40.57 211.08 166.66"/><polygon class="cls-4" points="214.03 166.49 213.03 166.49 213.77 57.99 210.09 115.22 209.1 115.15 213.89 40.54 214.89 40.58 214.03 166.49"/><polygon class="cls-4" points="216.99 166.33 215.99 166.31 217.41 58.02 213.37 115.34 212.37 115.27 217.64 40.54 218.64 40.58 216.99 166.33"/><polygon class="cls-4" points="219.95 166.16 218.95 166.14 221.05 58.07 216.65 115.46 215.65 115.39 221.4 40.54 222.39 40.58 219.95 166.16"/><polygon class="cls-4" points="222.91 166 221.91 165.97 224.69 58.12 219.93 115.58 218.93 115.5 225.15 40.53 226.15 40.59 222.91 166"/><polygon class="cls-4" points="225.87 165.83 224.87 165.8 228.33 58.2 223.21 115.71 222.21 115.62 228.9 40.53 229.9 40.59 225.87 165.83"/><polygon class="cls-4" points="228.82 165.66 227.82 165.63 231.97 58.27 226.49 115.83 225.49 115.74 232.65 40.53 233.65 40.59 228.82 165.66"/><polygon class="cls-4" points="231.78 165.5 230.78 165.45 235.6 58.37 229.76 115.95 228.77 115.85 236.41 40.52 237.4 40.6 231.78 165.5"/><polygon class="cls-4" points="234.74 165.33 233.74 165.28 239.24 58.47 233.04 116.08 232.05 115.97 240.16 40.52 241.16 40.6 234.74 165.33"/><polygon class="cls-4" points="237.7 165.17 236.7 165.11 242.87 58.59 236.32 116.2 235.33 116.09 243.91 40.52 244.91 40.6 237.7 165.17"/><polygon class="cls-4" points="240.66 165 239.66 164.94 246.49 58.73 239.6 116.32 238.61 116.2 247.67 40.52 248.66 40.61 240.66 165"/><polygon class="cls-4" points="243.62 164.84 242.62 164.77 250.12 58.88 242.88 116.45 241.89 116.32 251.42 40.51 252.41 40.61 243.62 164.84"/><polygon class="cls-4" points="246.57 164.67 245.58 164.59 253.74 59.05 246.16 116.57 245.17 116.44 255.17 40.51 256.17 40.61 246.57 164.67"/><polygon class="cls-4" points="249.53 164.5 248.53 164.42 257.35 59.23 249.44 116.69 248.44 116.56 258.93 40.51 259.92 40.62 249.53 164.5"/><polygon class="cls-4" points="252.49 164.34 251.49 164.25 260.97 59.43 252.72 116.81 251.72 116.67 262.68 40.5 263.67 40.62 252.49 164.34"/><polygon class="cls-4" points="255.45 164.17 254.45 164.08 264.57 59.65 255.99 116.94 255 116.79 266.43 40.5 267.42 40.62 255.45 164.17"/><polygon class="cls-4" points="258.4 164.01 257.41 163.91 268.18 59.88 259.27 117.06 258.28 116.91 270.19 40.5 271.18 40.63 258.4 164.01"/><polygon class="cls-4" points="261.36 163.84 260.37 163.73 271.77 60.14 262.55 117.18 261.56 117.02 273.94 40.49 274.93 40.63 261.36 163.84"/><polygon class="cls-4" points="264.32 163.68 263.32 163.56 275.37 60.42 265.83 117.31 264.84 117.14 277.69 40.49 278.68 40.63 264.32 163.68"/><polygon class="cls-4" points="267.28 163.51 266.28 163.39 278.95 60.72 269.11 117.43 268.12 117.26 281.44 40.49 282.43 40.64 267.28 163.51"/><polygon class="cls-4" points="270.23 163.35 269.24 163.22 282.52 61.04 272.38 117.55 271.4 117.38 285.2 40.49 286.19 40.64 270.23 163.35"/><polygon class="cls-4" points="273.19 163.18 272.2 163.04 286.09 61.39 275.66 117.67 274.68 117.49 288.95 40.48 289.94 40.64 273.19 163.18"/><polygon class="cls-4" points="276.15 163.01 275.16 162.87 289.65 61.78 278.94 117.8 277.96 117.61 292.7 40.48 293.69 40.65 276.15 163.01"/><polygon class="cls-4" points="279.11 162.85 278.12 162.7 293.2 62.19 282.22 117.92 281.24 117.73 296.46 40.48 297.44 40.65 279.11 162.85"/><polygon class="cls-4" points="282.06 162.68 281.08 162.53 296.74 62.63 285.5 118.04 284.52 117.84 300.21 40.48 301.19 40.65 282.06 162.68"/><polygon class="cls-4" points="285.02 162.52 284.04 162.36 300.26 63.12 288.77 118.17 287.8 117.96 303.96 40.47 304.95 40.66 285.02 162.52"/><polygon class="cls-4" points="287.98 162.35 286.99 162.18 303.77 63.64 292.06 118.29 291.08 118.08 307.72 40.47 308.7 40.66 287.98 162.35"/><polygon class="cls-4" points="290.94 162.19 289.95 162.01 307.27 64.2 295.33 118.41 294.36 118.2 311.47 40.47 312.45 40.66 290.94 162.19"/><polygon class="cls-4" points="293.89 162.02 292.91 161.84 310.75 64.82 298.61 118.53 297.64 118.31 315.23 40.46 316.2 40.66 293.89 162.02"/><polygon class="cls-4" points="296.85 161.86 295.87 161.67 314.21 65.49 301.89 118.66 300.91 118.43 318.98 40.46 319.96 40.67 296.85 161.86"/><polygon class="cls-4" points="299.81 161.69 298.83 161.5 317.64 66.22 305.17 118.78 304.19 118.55 322.73 40.46 323.71 40.67 299.81 161.69"/><polygon class="cls-4" points="302.77 161.52 301.79 161.32 321.06 67.02 308.44 118.9 307.47 118.67 326.48 40.46 327.46 40.67 302.77 161.52"/><polygon class="cls-4" points="305.72 161.36 304.75 161.15 324.44 67.91 311.72 119.03 310.75 118.78 330.24 40.45 331.21 40.68 305.72 161.36"/><polygon class="cls-4" points="308.68 161.19 307.7 160.98 327.79 68.87 315 119.15 314.03 118.9 333.99 40.45 334.96 40.68 308.68 161.19"/><polygon class="cls-4" points="311.64 161.03 310.66 160.81 331.11 69.92 318.28 119.27 317.31 119.02 337.75 40.45 338.72 40.68 311.64 161.03"/><polygon class="cls-4" points="314.6 160.86 313.62 160.63 334.39 71.11 321.56 119.39 320.59 119.14 341.5 40.45 342.47 40.69 314.6 160.86"/><polygon class="cls-4" points="317.55 160.7 316.58 160.46 337.62 72.41 324.84 119.51 323.87 119.25 345.25 40.44 346.22 40.69 317.55 160.7"/><polygon class="cls-4" points="320.51 160.53 319.54 160.29 340.79 73.88 328.11 119.64 327.15 119.37 349.01 40.44 349.97 40.69 320.51 160.53"/><polygon class="cls-4" points="323.47 160.37 322.5 160.12 343.89 75.51 331.39 119.76 330.43 119.49 352.76 40.44 353.73 40.7 323.47 160.37"/><polygon class="cls-4" points="326.43 160.2 325.46 159.95 346.92 77.37 334.67 119.88 333.71 119.61 356.51 40.44 357.48 40.7 326.43 160.2"/><polygon class="cls-4" points="329.38 160.03 328.42 159.78 349.85 79.48 337.95 120 336.99 119.72 360.27 40.43 361.23 40.7 329.38 160.03"/><polygon class="cls-4" points="332.34 159.87 331.38 159.6 352.66 81.9 341.23 120.13 340.27 119.84 364.02 40.43 364.98 40.71 332.34 159.87"/><polygon class="cls-4" points="335.3 159.7 334.33 159.43 355.33 84.69 344.5 120.25 343.55 119.96 367.77 40.43 368.73 40.71 335.3 159.7"/><polygon class="cls-4" points="338.25 159.54 337.29 159.26 357.82 87.99 347.78 120.37 346.83 120.07 371.53 40.43 372.49 40.71 338.25 159.54"/><polygon class="cls-4" points="341.21 159.37 340.25 159.09 360.1 91.86 351.06 120.49 350.11 120.19 375.28 40.42 376.24 40.72 341.21 159.37"/><polygon class="cls-4" points="344.17 159.2 343.21 158.91 362.06 96.55 354.34 120.62 353.39 120.31 379.04 40.42 379.99 40.72 344.17 159.2"/><polygon class="cls-4" points="347.13 159.04 346.17 158.74 363.65 102.25 357.62 120.74 356.67 120.43 382.79 40.42 383.74 40.72 347.13 159.04"/><polygon class="cls-4" points="350.08 158.87 349.13 158.57 364.68 109.45 360.9 120.86 359.95 120.55 386.54 40.42 387.49 40.73 350.08 158.87"/><polygon class="cls-4" points="353.04 158.71 352.09 158.4 364.96 118.65 364.17 120.98 363.23 120.66 390.3 40.41 391.25 40.73 353.04 158.71"/><polygon class="cls-4" points="356 158.54 355.05 158.23 367.35 121.07 366.51 120.78 394.05 40.41 395 40.73 356 158.54"/><polygon class="cls-4" points="358.95 158.38 358.01 158.06 370.49 121.14 369.78 120.9 397.8 40.41 398.75 40.73 358.95 158.38"/><polygon class="cls-4" points="361.91 158.21 360.96 157.88 373.63 121.22 373.06 121.02 401.56 40.41 402.5 40.74 361.91 158.21"/><polygon class="cls-4" points="364.87 158.04 363.92 157.71 376.77 121.29 376.34 121.13 405.31 40.41 406.25 40.74 364.87 158.04"/><polygon class="cls-4" points="367.82 157.88 366.88 157.54 379.91 121.36 379.62 121.25 409.06 40.4 410 40.74 367.82 157.88"/><polygon class="cls-4" points="370.78 157.71 369.84 157.37 383.05 121.42 382.9 121.37 412.82 40.4 413.76 40.75 413.75 40.75 370.78 157.71"/><rect class="cls-4" x="332.79" y="98.47" width="124.73" height="1" transform="translate(163.51 434.06) rotate(-69.4)"/></g></g></g></svg>