<svg xmlns="http://www.w3.org/2000/svg" viewBox="0 0 537.14 95.93"><defs><style>.cls-1{fill:#fff;}.cls-2{fill:#231f20;}</style></defs><title>paint2</title><g id="Layer_2" data-name="Layer 2"><g id="Layer_2-2" data-name="Layer 2"><path class="cls-1" d="M195.61,48.18c-.43.1-.86.23-1.29.36,0,0-.11,0-.11.08-.09.81-.64.58-.94.93a2.92,2.92,0,0,1-1.51.8c-.84.23-1.69.34-2.54.5-1.1.2-2.21.35-3.3.59-.8.17-1.59.44-2.38.67a26.17,26.17,0,0,0-2.77.86,13.65,13.65,0,0,0-2.24,1.3,7.7,7.7,0,0,0-.82.9,1.34,1.34,0,0,1-.45.21,4,4,0,0,0,0-.57,1.32,1.32,0,0,0-.57-.18.76.76,0,0,0-.44.2c-.26.21-.57.26-.57,1,0,.93-.17,1.13-.77.93a2.65,2.65,0,0,0-2,.3,3.56,3.56,0,0,1-.87.15,2.69,2.69,0,0,0-.58.13,9.34,9.34,0,0,1-1.34.59c-2.67.62-5.35,1.27-8,1.78-2.15.41-4.31.68-6.48.91a18.44,18.44,0,0,1-2.64-.16,2.72,2.72,0,0,0-2.42.92,4.46,4.46,0,0,0-.35.62.66.66,0,0,0-.34.11c2.18-1.84,7.33-4.49,5-2.86a18.08,18.08,0,0,0-3.35,2.49A24.4,24.4,0,0,0,149,64.34a1.34,1.34,0,0,0-.37,1.41,1.25,1.25,0,0,0,1.22.78,18.37,18.37,0,0,0,5.88-.63c2.18-.46,4.37-.93,6.55-1.38,3.64-.74,7.27-1.62,10.93-2.16,4-.59,8.07-.87,12.11-1.24,1.65-.15,3.3-.2,5-.24a20.41,20.41,0,0,1,3.61.22,3.4,3.4,0,0,0-.64.07,3,3,0,0,0-.6.29c-.39.21-.77.45-1.16.65a8.51,8.51,0,0,1-1.84.85c-.75.17-1.1,1.23-2,1-.71.82-1.78.79-2.56,1.34-1.55,1.1-3.36,1.07-5,1.79l-.41.19,0,.26,2.78-.25.05.17-3,1,.18.27c-1.6.47-3.18.9-4.75,1.42-1.31.43-2.58,1.06-3.9,1.44a56,56,0,0,1-10.13,2c-1.42-.57-2.85,0-4.28.07-3.4.19-6.8.45-10.2.68-1.47.1-2.93.23-4.4.23-1.18,0-2.36-.16-3.54-.26a2.08,2.08,0,0,1-.41-.1c-1-.3-1.08-.66-.47-1.62a43.69,43.69,0,0,1,12.32-12.83,19.34,19.34,0,0,1-3.72-.37c-.47,0-.86.22-1.38.2a3.29,3.29,0,0,1,.1-.7c1.25-2.86,2.92-4.88,5.07-5.9a22,22,0,0,1,2.3-1.11,4.46,4.46,0,0,0,1.91-.93,1.55,1.55,0,0,1,.81-.3c.1,0,.22.11.43.22l1.2-.75.06.18-.26.25,0,.1.47-.1,0,.13-.79.39v.13a.9.9,0,0,0,.31,0c1.19-.5,2.37-1.08,3.58-1.51.88-.31,11.92-3.16,12.74-3.62,1.16-.64,18.18-7.31,19.86-8a2.38,2.38,0,0,0,.32-.26,3.76,3.76,0,0,0-.6,0c-1.3.16-2.61.28-3.91.52s-2.59.68-3.9.91c-2.92.51-5.86.9-8.78,1.43-2.31.42-4.6,1-6.9,1.5-3.28.71-6.54,1.47-9.83,2.1a44.73,44.73,0,0,1-5.71.74c-3,.18-6,.23-9.05.29-1,0-1.65-.54-1.56-1.43a3.87,3.87,0,0,1,.63-1.58,19.52,19.52,0,0,1,1.83-2.55c1.6-1.8,3.1-3.77,5.47-4.38,3.55-.91,7.07-2,10.63-2.85,2.68-.66,5.4-1.17,8.11-1.67,4-.75,8.08-1.56,12.15-2.09s8.43-.87,12.66-1.13c3-.19,6-.21,9.07-.16a24.41,24.41,0,0,1,4.35.65,3.09,3.09,0,0,1,1.31.77,1.16,1.16,0,0,1,0,1.73,14.47,14.47,0,0,1-2,1.62,32.05,32.05,0,0,1-3,1.71c-.92.47-1.87.83-2.81,1.24-1.09.48-2.17,1-3.27,1.43-1.51.61-3,1.16-4.57,1.75-.27.1-.53.23-.83.36.07.18-16.71,7.08-17.64,7.55.71-.06,2.43-.32,3.76-.39l3.43-.17c.82,0,1.63-.13,2.45-.15a.86.86,0,0,1,.53.3c.26.26,1.11.1,1.37,0a2.41,2.41,0,0,1,1.13,0c.24,0,.49.12.73.13a6,6,0,0,0,.68-.09c.78-.06,1.55.52,2.35.28.25-.07.73-.35,1,.33a.21.21,0,0,0,.25.07c.79-.34,1.62.2,2.42.07.16,0,.36.17.54.28.42.27.44.9.84.51"/><path class="cls-1" d="M142.19,77.64c-1,0-1.91-.09-2.8-.18l-1-.09a4.41,4.41,0,0,1-1-.2,4,4,0,0,1-2.83-2.37,4.22,4.22,0,0,1,.63-3.75,49.24,49.24,0,0,1,6.83-8.47h-.5l.46-3.42a4.15,4.15,0,0,1,.31-1.37c1.59-3.62,3.79-6.11,6.54-7.41l.68-.35a12.37,12.37,0,0,1,2-.89l.33-.11a4.42,4.42,0,0,0,.49-.17,3.61,3.61,0,0,1,1.4-.83h0c-2.68.16-5.37.22-8,.27l-1.19,0A4.51,4.51,0,0,1,141,46.89,4.21,4.21,0,0,1,140,43.57,6.7,6.7,0,0,1,141,40.68a22.35,22.35,0,0,1,2.13-2.94l.5-.57c1.54-1.76,3.45-4,6.48-4.73,1.58-.4,3.16-.84,4.73-1.28,1.93-.53,3.93-1.09,5.92-1.58,2.74-.67,5.48-1.19,8.28-1.71l2.34-.44c3.25-.61,6.6-1.24,10-1.68,4.47-.58,9-.91,12.85-1.15,2.78-.18,5.74-.23,9.31-.16a23.59,23.59,0,0,1,4.41.61l.48.1a5.93,5.93,0,0,1,2.69,1.46,4.16,4.16,0,0,1,.11,6.16,17.22,17.22,0,0,1-2.44,2,34.93,34.93,0,0,1-3.27,1.87c-.73.37-1.43.67-2.12,1l-.85.36-1,.45c-.78.35-1.55.7-2.34,1-1,.41-2,.79-3.06,1.18l-1.56.59-.38.17-.32.14h0a9.86,9.86,0,0,1-1,.53l-2.51,1.09c.25.05.46.11.64.17h0a3.46,3.46,0,0,1,2.63.29,7.28,7.28,0,0,1,1.08.15l.18,0a3.44,3.44,0,0,1,2.47.76,4.09,4.09,0,0,1,1.19,1.23,2.75,2.75,0,0,0-1.94-1.07,2.83,2.83,0,0,0-1.58.3,4.11,4.11,0,0,1,.21.41,2.91,2.91,0,0,0-.22-.4,2.49,2.49,0,0,0-.57.41l0,0,.49-.12.18.81,3.49,3.59a3.29,3.29,0,0,1-2,1,3.55,3.55,0,0,1-.37.49h0a3.75,3.75,0,0,1-1.18.86,6.13,6.13,0,0,1-2.51,1.26,20,20,0,0,1-2.21.46l-.61.1-1.19.2c-.67.11-1.34.22-2,.36-.47.1-1,.26-1.52.42l-.64.19-.83.23a14.14,14.14,0,0,0-1.63.52,10.15,10.15,0,0,0-1.52.89l0,0a7.15,7.15,0,0,1-.58.67,3.66,3.66,0,0,1-1.42.85l-.31.14a3.29,3.29,0,0,1-.42.53c1.63-.17,3.26-.31,4.85-.45l2.6-.23c1.77-.16,3.52-.21,5.16-.25a23.21,23.21,0,0,1,4.14.25L194.21,64l.19-.08-.19.14h-.07l-.37.21c-.29.17-.57.33-.86.48l-.39.21a9.32,9.32,0,0,1-1.62.75A4.73,4.73,0,0,1,189,66.89a7.36,7.36,0,0,1-1.73.81,3.28,3.28,0,0,0-.38.14,7.78,7.78,0,0,1-.78.49l.29.91-2,.81.29.43-3.91,1.16-1.46.42c-1.08.31-2.14.62-3.2,1-.51.17-1,.38-1.52.58a24.64,24.64,0,0,1-2.49.9,58.33,58.33,0,0,1-10.67,2.14l-.72.07-.67-.27a4.19,4.19,0,0,0-1.42.09,15.51,15.51,0,0,1-1.57.19c-2.15.12-4.3.27-6.45.42l-3.72.25-.94.07c-1.18.08-2.4.17-3.65.17Zm-.06-6h.07c1,0,2.11-.08,3.24-.16l1-.07,3.7-.25c2.17-.15,4.35-.3,6.52-.43a9.8,9.8,0,0,0,1-.13,9.12,9.12,0,0,1,3.78,0,54.18,54.18,0,0,0,9-1.87,19.89,19.89,0,0,0,1.89-.69c.62-.25,1.25-.5,1.88-.71l.9-.29-.1-.14,1.68-.56-.11-.84,1.54-.7c-1.47.15-2.94.32-4.38.54-2.51.37-5,.9-7.6,1.46l-3.16.67-4.61,1-2.23.47a20.11,20.11,0,0,1-6.54.61A4.17,4.17,0,0,1,146,67.15,43.21,43.21,0,0,0,142.14,71.64Zm48.23-5.75h0ZM150.5,65h0Zm5.15-9.2a2.5,2.5,0,0,1,.91.16l1.67.66.08.67c1.18-.16,2.23-.33,3.23-.52,2.25-.43,4.56-1,6.79-1.49l1-.25.23-.12c.24-.12.48-.24.72-.34a4.93,4.93,0,0,1,1.13-.3l.52-.07a7,7,0,0,1,1.17-.39,3.88,3.88,0,0,1,1.27-1.35,3.72,3.72,0,0,1,2.62-.8,15.35,15.35,0,0,1,2.55-1.44,19,19,0,0,1,2.36-.77l.72-.2.58-.18,1-.3-.32-.14-.57,0-1,.06-1.62.08-1.8.09c-.79,0-1.78.17-2.58.26l-1.08.12-.22-.78-.68.3c-.62.34-1.87.73-9.39,2.76-1.62.44-3.45.93-3.78,1-.68.24-1.41.56-2.18.91l-1.21.53a3.48,3.48,0,0,1-1.45.26l-.5,0-.18.11-.17-.09-.88,0a10.42,10.42,0,0,1-1,.36l-.25.08a7.89,7.89,0,0,0-1,.49c-.31.17-.62.33-.94.48a5.26,5.26,0,0,0-1.46,1l2.14-.2.09.25A7.93,7.93,0,0,1,155.64,55.79ZM169.45,55h0Zm2.25-.7h0Zm4.12-.41h0Zm19.34-2.48h0Zm1-.79,0,.22.22-.22ZM183.1,48h0Zm8.63-4.16-.21.08Zm9-13.4c-2.23,0-4.2.06-6.08.18-3.75.24-8.16.56-12.46,1.11-3.19.42-6.46,1-9.63,1.63l-2.36.44c-2.71.5-5.35,1-7.94,1.64-1.91.47-3.87,1-5.76,1.53-1.61.45-3.23.89-4.84,1.31-1.22.31-2.25,1.49-3.44,2.86l-.53.6c-.14.16-.28.33-.42.51,2,0,4.12-.1,6.15-.23a41.79,41.79,0,0,0,5.32-.69c2.37-.45,4.78-1,7.12-1.5l2.65-.58,2.25-.51c1.54-.35,3.13-.71,4.74-1s3.24-.55,4.81-.79c1.33-.21,2.66-.41,4-.64.56-.1,1.15-.25,1.78-.42s1.35-.35,2.09-.49c1.05-.2,2.08-.32,3.07-.43l1-.12a4.31,4.31,0,0,1,1,0l.94.07c.93-.35,1.86-.7,2.78-1.07.71-.29,1.42-.6,2.12-.92l1.06-.48.93-.4c.61-.26,1.19-.5,1.73-.77s1-.51,1.42-.76c-.27,0-.53,0-.79-.05Zm6.54.62h0Zm-.12-2.62h0ZM195.25,45.35h0Z"/><path class="cls-2" d="M142.19,75.64c-.89,0-1.76-.09-2.6-.17l-1-.09a2.5,2.5,0,0,1-.54-.12,2.12,2.12,0,0,1-1.55-1.16,2.24,2.24,0,0,1,.44-2,46.08,46.08,0,0,1,10.4-11.52c-.35-.06-.7-.11-1.06-.15a1.23,1.23,0,0,0-.33.07,4,4,0,0,1-1,.14l-1.11,0,.15-1.1c0-.08,0-.15,0-.22a2.25,2.25,0,0,1,.15-.74c1.39-3.16,3.26-5.32,5.56-6.4.26-.12.51-.26.76-.39a10.72,10.72,0,0,1,1.65-.76l.31-.1a2.88,2.88,0,0,0,1.22-.6,2.15,2.15,0,0,1,1.17-.53l.12,0a1.08,1.08,0,0,1,.61,0l1.8-1.12.27.83.24,0,0,.18c.65-.29,1.32-.57,2-.82.34-.12,1.69-.49,4-1.12,3-.8,8-2.15,8.56-2.44s5.49-2.3,12.29-5c-1.32.23-2.63.43-4,.64-1.57.24-3.14.49-4.7.77s-3.07.63-4.57,1l-2.3.52-2.63.58c-2.36.52-4.8,1.06-7.22,1.53a45.88,45.88,0,0,1-5.84.76c-2.64.16-5.31.21-7.9.27l-1.19,0a2.79,2.79,0,0,1-2-.76,2.23,2.23,0,0,1-.55-1.77,4.74,4.74,0,0,1,.77-2,20.57,20.57,0,0,1,1.93-2.68l.51-.58c1.5-1.71,3-3.48,5.46-4.1,1.59-.41,3.18-.85,4.77-1.29,1.92-.53,3.9-1.08,5.87-1.56,2.69-.66,5.4-1.18,8.17-1.69l2.35-.44c3.22-.6,6.55-1.23,9.85-1.66,4.41-.57,8.91-.9,12.72-1.14,2.72-.17,5.63-.22,9.15-.16a22.17,22.17,0,0,1,4,.57l.49.1a4.07,4.07,0,0,1,1.77,1,2.16,2.16,0,0,1,.05,3.2,15.27,15.27,0,0,1-2.16,1.74,33.07,33.07,0,0,1-3.08,1.76c-.66.34-1.34.62-2,.89l-.87.37-1,.46c-.75.34-1.5.68-2.27,1-1,.4-2,.78-3,1.16l-1.57.59-.49.21-.3.13h0c-.63.36-1.8.86-3.86,1.74-2.26,1-5.17,2.18-7.74,3.26l-.32.13,1-.05.89-.06c.53,0,1.06-.08,1.59-.09a1.63,1.63,0,0,1,1.1.44,1.89,1.89,0,0,0,.46-.08,2.42,2.42,0,0,1,1.36-.05l.24,0a3.48,3.48,0,0,1,.44.08,1.14,1.14,0,0,0,.21,0l.18,0L189,45a3.91,3.91,0,0,1,1.38.2,1.78,1.78,0,0,0,.77.12,1.63,1.63,0,0,1,1.81.27,3.93,3.93,0,0,1,1.31.1,2.16,2.16,0,0,0,.69.08,1.5,1.5,0,0,1,1.16.37l.08.06a2.17,2.17,0,0,1,.64.67.93.93,0,0,0-.5-.19.82.82,0,0,0-.54.16l1.39,1.43a1.24,1.24,0,0,1-1,.4,1.14,1.14,0,0,1-.54-.2l.16.74c-.27.06-.53.13-.79.21a1.69,1.69,0,0,1-1,.89h0a3.91,3.91,0,0,1-1.93,1,18.36,18.36,0,0,1-2,.41l-.64.11-1.17.2c-.7.12-1.4.23-2.1.38s-1.1.29-1.69.47l-.62.19-.79.22a15.3,15.3,0,0,0-1.87.6,12.8,12.8,0,0,0-2.07,1.21,2.64,2.64,0,0,0-.27.31,4.84,4.84,0,0,1-.41.48,1.69,1.69,0,0,1-.69.39l-1.13.5a1.44,1.44,0,0,1-.53.79,1.59,1.59,0,0,1-1.45.14c-.34-.11-.66,0-1.26.26a2.61,2.61,0,0,1-.89.2l-.21,0-.12,0-.25.05c-.14.06-.28.13-.42.2a4.62,4.62,0,0,1-1.08.44l-1.12.26c-2.27.53-4.62,1.09-7,1.53-1.88.36-3.91.64-6.56.92a8.54,8.54,0,0,1-1.89-.07l-.46,0-1.18,1A23.74,23.74,0,0,0,149.8,65c-.24.28-.21.35-.19.4s.13.12.4.15a16.51,16.51,0,0,0,5.26-.55l2.22-.47,4.63-1,3.12-.66c2.57-.55,5.22-1.12,7.86-1.51,3.18-.47,6.42-.75,9.55-1l2.61-.23c1.71-.16,3.42-.21,5-.25a21.16,21.16,0,0,1,3.79.23l-.07,2h-.24l-.21,0a1.81,1.81,0,0,0-.27.14l-.12.07-.43.25c-.25.15-.51.29-.76.42l-.45.24a6.23,6.23,0,0,1-1.62.69,2,2,0,0,0-.34.28,2.49,2.49,0,0,1-1.45.8,4.76,4.76,0,0,1-1.55.79,3.42,3.42,0,0,0-.82.36,7.26,7.26,0,0,1-2.16,1l.25.79-.88.48-1.74.58.21.31-1.3.39-1.44.42c-1.1.32-2.19.63-3.27,1-.55.18-1.1.4-1.64.62a23.41,23.41,0,0,1-2.29.83,56.52,56.52,0,0,1-10.31,2.07l-.24,0-.22-.09a4.67,4.67,0,0,0-2.48,0,13.62,13.62,0,0,1-1.37.17c-2.16.12-4.31.27-6.47.42l-3.72.25-1,.07c-1.15.08-2.33.17-3.51.17Zm-3.64-2.32.09,0,.12,0,1,.09c.83.08,1.62.16,2.41.16h0c1.11,0,2.26-.08,3.38-.16l1-.07,3.71-.25c2.17-.15,4.33-.3,6.5-.42.39,0,.78-.09,1.17-.15a6.73,6.73,0,0,1,3.29.06,55.08,55.08,0,0,0,9.73-2A21.43,21.43,0,0,0,173,69.9c.58-.24,1.17-.47,1.76-.67,1.11-.37,2.22-.69,3.35-1l.12,0-.15-.22.73-.25-.13-1,1.09-.5a12.66,12.66,0,0,1,2.17-.68,7.53,7.53,0,0,0,2.63-1,5.07,5.07,0,0,1,1.31-.61,2.32,2.32,0,0,0,1.07-.57l.39-.45L188,63a1.53,1.53,0,0,1,.25-.26,2.72,2.72,0,0,1,1.27-.78l.27-.09c-1.39,0-2.85.09-4.29.22l-2.62.23c-3.1.27-6.31.55-9.44,1-2.58.38-5.2.94-7.73,1.49l-3.14.66-4.62,1-2.23.47a18.08,18.08,0,0,1-5.9.58,2.23,2.23,0,0,1-2-1.42,2.28,2.28,0,0,1,.54-2.43c.46-.54,1-1.11,1.5-1.68l-.39-.46A44.3,44.3,0,0,0,138.63,73.2Zm12.23-14.56.26.73a1.09,1.09,0,0,1,.06.25,3.66,3.66,0,0,1,.73-.22c1.55-1,3.34-2,4-1.72l.56.22.08.6a1.05,1.05,0,0,1-.35.92c2.31-.25,4.12-.51,5.8-.83,2.29-.44,4.62-1,6.87-1.51l1.12-.26a3.1,3.1,0,0,0,.62-.27c.19-.1.38-.19.57-.27a3,3,0,0,1,.69-.18,4.6,4.6,0,0,1,.48-.06l.25,0a4,4,0,0,1,2.16-.46,1.8,1.8,0,0,1,.87-1.58,1.74,1.74,0,0,1,2-.27,2.43,2.43,0,0,1,.44-.39A14.7,14.7,0,0,1,180.37,52a17.11,17.11,0,0,1,2.12-.69l.75-.21.6-.18c.6-.18,1.22-.37,1.86-.51s1.46-.28,2.2-.4l1.14-.19.66-.11a16.67,16.67,0,0,0,1.79-.36,2.08,2.08,0,0,0,1-.49,1.73,1.73,0,0,1,.72-.48,1.1,1.1,0,0,1,.7-.79h0a1.59,1.59,0,0,0-.78-.05,1.21,1.21,0,0,1-.92,0,1.16,1.16,0,0,1-.5-.36,3.21,3.21,0,0,1-1.86-.12,2.31,2.31,0,0,0-.67-.13L189,47a2.37,2.37,0,0,1-.63.06,3,3,0,0,1-.6-.1l-.2,0-.36-.06-.33,0s-1.59.58-2.4-.23h0c-.43,0-.86,0-1.29.08l-.93.06-1.6.08-1.83.09c-.86,0-1.88.17-2.71.27l-1,.12-.25-.87c-.75.31-1.25.53-1.4.61-.54.3-3.21,1-9,2.61-1.78.48-3.62,1-3.9,1.08-.78.28-1.54.61-2.34,1l-1.18.51a1.43,1.43,0,0,1-.65.1l-1,0,0-.34-.3-.16-.09,0h0a4.49,4.49,0,0,1-2,1l-.28.09a9,9,0,0,0-1.34.63c-.28.15-.57.3-.85.44a9.4,9.4,0,0,0-4.16,4.49h0c.42,0,.85.11,1.28.18a9.11,9.11,0,0,0,2.25.19Zm4.62-7.05h0Zm37-6h0Zm8.32-17.29c-2.27,0-4.29.06-6.21.18-3.78.24-8.24.56-12.59,1.13-3.25.42-6.55,1-9.74,1.64l-2.36.44c-2.74.5-5.42,1-8.05,1.66-1.94.48-3.91,1-5.81,1.55-1.6.44-3.2.88-4.81,1.3-1.82.47-3.1,1.93-4.45,3.48l-.52.59a18.84,18.84,0,0,0-1.74,2.42,2.91,2.91,0,0,0-.48,1.15s0,.16,0,.21a.82.82,0,0,0,.51.12l1.19,0c2.57-.05,5.22-.1,7.82-.26a43.84,43.84,0,0,0,5.58-.73c2.39-.46,4.82-1,7.17-1.51l2.64-.58,2.27-.51c1.52-.35,3.09-.71,4.66-1s3.17-.54,4.76-.78c1.35-.21,2.69-.42,4-.65.64-.11,1.27-.28,1.94-.45s1.28-.33,1.95-.46c1-.18,2-.3,2.94-.41l1-.12a2.24,2.24,0,0,1,.57,0l1.45.11.26-.1c1-.37,2-.75,3-1.14.74-.3,1.46-.62,2.19-1l1-.47.9-.38c.65-.27,1.26-.53,1.86-.83a30.89,30.89,0,0,0,2.9-1.66,13.4,13.4,0,0,0,1.87-1.51.17.17,0,0,0,.06-.12.17.17,0,0,0-.06-.13,2.12,2.12,0,0,0-.84-.54l-.5-.1a20.35,20.35,0,0,0-3.67-.53Z"/><path class="cls-1" d="M298.07,55.6c-.94,1.79-1.78,3.59-2.8,5.36-2.43,4.23-4.84,8.47-9.39,12.26A16.67,16.67,0,0,1,284,74.61a3,3,0,0,1-2.26.52c-.9-.12-1.91-.74-1.91-1.3A7.76,7.76,0,0,1,280.1,71c.59-1.53,1.61-3,2.22-4.52.87-2.15,1.55-4.32,2.3-6.49s1.64-4.6,2.32-6.92a17,17,0,0,0,.68-4.05,58.06,58.06,0,0,0,0-7.93,28.94,28.94,0,0,0-1.52-5.7,3.41,3.41,0,0,0-1.1-1.25,4.22,4.22,0,0,0-3.36-.69,26,26,0,0,0-6.16,1.33,35.89,35.89,0,0,0-9.2,5.36,49.24,49.24,0,0,0-8,7.52,54,54,0,0,0-4.62,5.86,21.34,21.34,0,0,0-3.78,9.34c-.25,2.62,1.88,5,6.39,6.9.72.31,1.59.54,2.43.83-.89.18-.68.4,0,.62.88.28,1.48.58,1.14,1.1-.09.14.36.36.47.56a4.92,4.92,0,0,1,.31.77l-.35.07,2.89,1.21-.93.05.68.59-1,0-.08.15,1.74.34,1,2.13-1,.11,0,.19,2.12.27L267,80.1c-1.15,0-2.43-.19-2.87.45a2.26,2.26,0,0,1-.65,0c-1.3,0-2.61,0-3.91-.07a14.24,14.24,0,0,1-2.79-.3c-2.41-.65-4.69-1.42-7.1-2.07a5.82,5.82,0,0,1-3.3-1.78c-.41-.58-.51-1.18-.89-1.76s-1-1.16-1.39-1.75c-.12-.16.06-.35.08-.53s.19-.44,0-.59c-1.31-1-1.39-2.16-1.86-3.25-.65-1.5-.94-3-2.22-4.5-.37-.42-.33-.9-.55-1.34s-.54-.87-.82-1.3h-.36l.31,1.78-.38,0c-.18-.19-.49-.38-.52-.56a10.29,10.29,0,0,1-.1-1.86,29.7,29.7,0,0,1,.25-4,20.91,20.91,0,0,1,1.2-4.38,28.71,28.71,0,0,1,2.46-4.68,71.25,71.25,0,0,1,4.77-6.74,80.6,80.6,0,0,1,5.78-6.07c1-1,2.29-1.88,3.47-2.82.91-.72,1.85-1.44,2.75-2.16a1.22,1.22,0,0,0,.33-.44c.09-.18-.14-.47.68-.35.08,0,.33-.11.32-.18-.08-.87,1.4-1.17,2.49-1.63a6.3,6.3,0,0,0,1.28-.79c.51-.36,1-.74,1.44-1.11l.32.1-1.09.84c1.9-.42,2.35-1.77,5.47-1.51l.12-.54,1.72-.45.44.42.7-.24c1.73-.56,3.39-1.18,5.24-1.65a15.69,15.69,0,0,1,4.44-.48c1.3,0,2.61-.21,3.88-.09a21.68,21.68,0,0,1,4.33.83,13.53,13.53,0,0,1,6.11,3.76,13.8,13.8,0,0,1,3.37,5.74c1,3.52,1.77,7.05,1.16,10.51-.65,3.66-1.69,7.28-2.55,10.92"/><path class="cls-1" d="M263.7,83.59h-1.3c-1,0-2,0-3-.07h-.19a15.36,15.36,0,0,1-3.24-.39c-1.24-.33-2.44-.7-3.64-1.06s-2.28-.69-3.46-1c-2.43-.65-4-1.59-5-2.94a7.34,7.34,0,0,1-.8-1.51c-.05-.13-.13-.3-.16-.35a7.9,7.9,0,0,0-.51-.64c-.28-.33-.56-.67-.8-1a3.19,3.19,0,0,1-.59-1.77,8.43,8.43,0,0,1-1.29-2.58c-.07-.19-.13-.38-.21-.58-.19-.45-.36-.9-.52-1.34a8.06,8.06,0,0,0-1-2.1l-.89.1-1-1A3.59,3.59,0,0,1,234.76,63a13.26,13.26,0,0,1-.13-2.4c0-.29,0-.58,0-.86a22.81,22.81,0,0,1,1.65-8.56A31.85,31.85,0,0,1,239,46.06a74.15,74.15,0,0,1,5-7,80.63,80.63,0,0,1,5.82-6.13l.18-.18a28.73,28.73,0,0,1,2.71-2.26l1-.77,1.28-1,1-.79a3.13,3.13,0,0,1,.87-1.11,3.22,3.22,0,0,1,.8-.48,7.19,7.19,0,0,1,2.75-1.59l.57-.22a3.08,3.08,0,0,0,.52-.34l.17-.13c.32-.22.6-.45.89-.68l1.68-1.3,1.21.37a7.87,7.87,0,0,1,1.66-.5l0-.1,5.12-1.34.34.33.51-.17c1.23-.42,2.51-.85,3.92-1.21a18.37,18.37,0,0,1,5.29-.57c.43,0,.92,0,1.44-.05a16,16,0,0,1,2.61,0,24.62,24.62,0,0,1,4.95,1,16.4,16.4,0,0,1,7.38,4.55,16.79,16.79,0,0,1,4.07,7c1,3.5,2,7.64,1.24,11.89-.47,2.63-1.12,5.24-1.76,7.75-.28,1.11-.56,2.22-.83,3.33l-5.84-1.39c.27-1.14.56-2.28.85-3.42.64-2.53,1.24-4.91,1.67-7.33.54-3-.25-6.31-1.08-9.14a10.78,10.78,0,0,0-2.66-4.52,10.45,10.45,0,0,0-4.83-3,18.69,18.69,0,0,0-3.7-.71,10.91,10.91,0,0,0-1.65,0,20.25,20.25,0,0,1-2,.06,12.7,12.7,0,0,0-3.6.38c-1.19.31-2.31.68-3.49,1.08l-1.57.52-1.38.47-.15.67-2.61-.21a2.9,2.9,0,0,0-2.11.46,8.88,8.88,0,0,1-2.48,1h0a7.53,7.53,0,0,1-1.42.8l-.83.32-.77.76a3.57,3.57,0,0,1-1.08.7,4,4,0,0,1-.43.4l-1.51,1.19-1.24,1-1.08.84A24,24,0,0,0,254.2,37l-.18.18a76.41,76.41,0,0,0-5.38,5.66,69,69,0,0,0-4.57,6.47,25.77,25.77,0,0,0-2.2,4.19,17.77,17.77,0,0,0-1,3.75,12.93,12.93,0,0,0-.16,1.67l.74,1.14a11.27,11.27,0,0,1,.75,1.23,5.3,5.3,0,0,1,.38,1,13,13,0,0,1,2.08,4c.13.35.25.69.4,1s.26.67.37,1c.25.72.31.86.6,1.09A3.26,3.26,0,0,1,247.22,72a9.91,9.91,0,0,1,.74,1,7.83,7.83,0,0,1,.66,1.31c.05.12.12.29.15.35a6.3,6.3,0,0,0,1.63.61c1.24.33,2.44.7,3.64,1.06s2.24.68,3.39,1l.71-1.27-7.95-3.32,3.7-.78c-6.21-3-7.27-6.75-7-9.4.32-3.31,1.67-6.71,4.25-10.69a56.84,56.84,0,0,1,4.88-6.2,52,52,0,0,1,8.49-8,38.5,38.5,0,0,1,9.92-5.75,28.71,28.71,0,0,1,6.88-1.5,7.1,7.1,0,0,1,5.62,1.37,5.92,5.92,0,0,1,2,2.65c.12.38.24.76.37,1.13a23.54,23.54,0,0,1,1.28,5.19,57.68,57.68,0,0,1,0,8l0,.36a20,20,0,0,1-.8,4.77c-.54,1.84-1.17,3.66-1.79,5.42l-.57,1.64-.54,1.59c-.55,1.65-1.13,3.35-1.82,5.05A24.91,24.91,0,0,1,283.88,70c-.29.53-.57,1-.79,1.53q.44-.31.85-.66c4.11-3.42,6.32-7.28,8.67-11.37.64-1.12,1.17-2.17,1.74-3.29.35-.69.69-1.37,1.06-2.06l5.3,2.81c-.34.65-.67,1.3-1,2-.58,1.14-1.17,2.32-1.85,3.5-2.55,4.44-5.14,9-10.08,13.07a19.82,19.82,0,0,1-2.26,1.63,6,6,0,0,1-4.25.94c-2.18-.3-4.5-1.9-4.5-4.26v-.2a9.84,9.84,0,0,1,.53-3.77,23.46,23.46,0,0,1,1.3-2.67,20.1,20.1,0,0,0,.94-1.89c.62-1.53,1.14-3.08,1.69-4.71l.55-1.63.58-1.67c.62-1.76,1.2-3.43,1.69-5.11a14.1,14.1,0,0,0,.56-3.34v-.36a52.22,52.22,0,0,0,0-7.16,19,19,0,0,0-1-3.87l-.26-.8-.29-.25h0a2.7,2.7,0,0,0-1.1,0,23,23,0,0,0-5.44,1.15,33.11,33.11,0,0,0-8.47,5,46.18,46.18,0,0,0-7.52,7.07,51.29,51.29,0,0,0-4.37,5.53c-2,3.15-3.09,5.69-3.31,8-.11,1.11,1.65,2.59,4.59,3.86.35.15.83.3,1.33.46l.87.28,10.71,3.59-6.12,1.21,0,.17.57.5.86.17.42.94,5.06,4.36-1.42,0L274,83l-7,.08h-1.28A3.64,3.64,0,0,1,263.7,83.59Zm19.08-9.77h0ZM256.43,27.55h0Zm3.28-1.42h0Z"/><path class="cls-2" d="M263.75,81.59h-1.33c-1,0-2,0-2.94-.06h-.19a13.82,13.82,0,0,1-2.82-.32c-1.22-.33-2.4-.69-3.58-1s-2.32-.71-3.52-1c-2-.53-3.18-1.21-3.85-2.16a5.48,5.48,0,0,1-.58-1.12,4.19,4.19,0,0,0-.33-.67,8.85,8.85,0,0,0-.67-.85c-.24-.29-.49-.57-.69-.86a1.27,1.27,0,0,1-.11-1.25,5.85,5.85,0,0,1-1.52-2.59c-.08-.24-.16-.48-.27-.72-.18-.41-.33-.83-.48-1.24a8.81,8.81,0,0,0-1.58-3,2.34,2.34,0,0,1-.35-.53l-1.08.12-.34-.35-.12-.11a1.63,1.63,0,0,1-.66-1,11.18,11.18,0,0,1-.11-2c0-.3,0-.59,0-.89a22.14,22.14,0,0,1,.24-3.27A21.68,21.68,0,0,1,238.15,52a29.82,29.82,0,0,1,2.54-4.84,72.61,72.61,0,0,1,4.84-6.84,79.2,79.2,0,0,1,5.67-6l.18-.17a27.1,27.1,0,0,1,2.52-2.1l1-.79,1.27-1,1.48-1.16h0a1.16,1.16,0,0,1,.42-.75,1.3,1.3,0,0,1,.71-.28,4,4,0,0,1,2.27-1.47l.66-.25a4.54,4.54,0,0,0,.92-.56l.16-.12c.34-.24.66-.49,1-.74l.84-.66,1,.29a6.24,6.24,0,0,1,3.14-.79l.07-.32,2.85-.74.4.39.15,0,1.52-.5c1.2-.4,2.44-.82,3.78-1.16a16.7,16.7,0,0,1,4.72-.51,16.06,16.06,0,0,0,1.64-.06,14.66,14.66,0,0,1,2.29,0,22.56,22.56,0,0,1,4.53.87,14.51,14.51,0,0,1,6.53,4,14.83,14.83,0,0,1,3.6,6.14c1,3.27,1.86,7.14,1.18,11-.45,2.56-1.1,5.13-1.73,7.61-.28,1.12-.57,2.24-.83,3.36l-1.95-.46c.27-1.13.55-2.26.84-3.39.62-2.45,1.26-5,1.7-7.47.61-3.43-.23-7-1.13-10.05a12.86,12.86,0,0,0-3.13-5.33,12.45,12.45,0,0,0-5.68-3.49,20.81,20.81,0,0,0-4.12-.79,12.35,12.35,0,0,0-2,0c-.6,0-1.21.08-1.85.06a14.81,14.81,0,0,0-4.16.45c-1.27.32-2.47.73-3.63,1.12l-1.54.51-.44.15-.82.28-.48-.46-.58.15-.17.79-.87-.07a4.84,4.84,0,0,0-3.23.7,7,7,0,0,1-1.95.79l-.07-.16-.23.16-.15.11a6.32,6.32,0,0,1-1.32.79l-.75.29a6.47,6.47,0,0,0-1.12.48l0,.33-.37.38a1.57,1.57,0,0,1-.87.4,2.11,2.11,0,0,1-.5.58l-1.5,1.18-1.25,1-1,.81a25.41,25.41,0,0,0-2.34,1.94l-.18.18a77.79,77.79,0,0,0-5.53,5.81,70.76,70.76,0,0,0-4.71,6.65A27.82,27.82,0,0,0,240,52.74a19.73,19.73,0,0,0-1.14,4.17,20.16,20.16,0,0,0-.21,3v.46l.57,0,.55.85a9.49,9.49,0,0,1,.62,1,3.55,3.55,0,0,1,.26.73,1,1,0,0,0,.16.41,10.57,10.57,0,0,1,1.94,3.62c.14.38.28.76.44,1.14s.22.57.32.86a3.7,3.7,0,0,0,1.24,2,1.29,1.29,0,0,1,.39,1.48,1.45,1.45,0,0,1,0,.16l.35.41a10.29,10.29,0,0,1,.83,1.06,5.91,5.91,0,0,1,.49,1,3.72,3.72,0,0,0,.37.74c.26.37.95.91,2.74,1.39,1.22.33,2.4.69,3.58,1s2.32.71,3.52,1a12.49,12.49,0,0,0,2.39.25h.19c1,0,1.91.05,2.87.06h1.2l.17-.12-1.46-.18.22-1.77.48-.16-.22-.48-2.59-.5.68-1.23-.24-.21-3.79-1.58,2.1-.44a1.09,1.09,0,0,1-.2-.64l-.43-.15c-.29-.09-1.08-.35-1.25-1-.44-.14-.87-.29-1.27-.46-4.94-2.12-7.29-4.79-7-7.91.28-3,1.53-6.09,3.94-9.79a54.44,54.44,0,0,1,4.71-6,50,50,0,0,1,8.17-7.67,36.86,36.86,0,0,1,9.44-5.49,26.84,26.84,0,0,1,6.4-1.38,5.18,5.18,0,0,1,4.11.92A4.05,4.05,0,0,1,287,35c.12.39.25.77.38,1.16a22,22,0,0,1,1.19,4.75,56.13,56.13,0,0,1,0,7.71l0,.36a18.05,18.05,0,0,1-.72,4.29c-.52,1.79-1.15,3.58-1.75,5.31l-.58,1.65-.54,1.6c-.54,1.62-1.11,3.29-1.77,4.94a23.18,23.18,0,0,1-1.13,2.29A19.92,19.92,0,0,0,281,71.31a6.35,6.35,0,0,0-.26,2.3v.06a2.16,2.16,0,0,0,1,.46,2.06,2.06,0,0,0,1.6-.38,15.68,15.68,0,0,0,1.81-1.3c4.38-3.65,6.69-7.67,9.12-11.91.67-1.17,1.24-2.29,1.79-3.39.34-.67.68-1.35,1-2l1.77.94c-.35.66-.69,1.33-1,2-.56,1.12-1.15,2.27-1.8,3.4-2.46,4.29-5,8.65-9.62,12.53a17.82,17.82,0,0,1-2,1.47,4,4,0,0,1-2.92.66c-1.12-.16-2.77-1-2.77-2.29v-.21a8.09,8.09,0,0,1,.39-3,22.08,22.08,0,0,1,1.19-2.44,21.47,21.47,0,0,0,1-2.09c.64-1.59,1.2-3.23,1.73-4.82.18-.54.36-1.08.55-1.61l.58-1.66c.6-1.71,1.22-3.48,1.72-5.21a16,16,0,0,0,.64-3.82l0-.36a54.76,54.76,0,0,0,0-7.43,20.34,20.34,0,0,0-1.1-4.31c-.13-.39-.26-.79-.38-1.18a4.19,4.19,0,0,0-.79-.78c-.37-.31-1-.65-2.61-.46a24.87,24.87,0,0,0-5.92,1.27,34.72,34.72,0,0,0-9,5.23A48.1,48.1,0,0,0,259,48.26,52.71,52.71,0,0,0,254.48,54c-2.22,3.43-3.37,6.25-3.62,8.9s3,4.69,5.8,5.88c.44.19,1,.36,1.52.53l.83.27,3.57,1.2-1.92.38a1.44,1.44,0,0,1,.19.36,1.34,1.34,0,0,1,.08.48,1.44,1.44,0,0,1,.24.3,3.76,3.76,0,0,1,.31.72l0,.06,2,.85-.12.69.46.4.36.07.18.4,1.22,1.05h-.75l.5,1.11.68.08,3.23,3.34-2.32,0h-.75a4.51,4.51,0,0,0-1.36.08A1.17,1.17,0,0,1,263.75,81.59ZM263.27,80h0Zm17.51-6.15h0Zm-37.64-1.61h0Zm15.85-.5h0Zm.45-43.6h0Z"/><path class="cls-1" d="M171.67,49.79l2.08-.39a.88.88,0,0,1,.41,0,5.3,5.3,0,0,0,.73.31,11.38,11.38,0,0,0,1.86.15c.72,0,1.43-.14,2.15-.21h0c.35-.17.69-.32,1-.51.09,0,.16-.18.25-.28-.08-.09-.17-.25-.25-.26-.71,0-1.43,0-2.14,0-.11,0-.26.07-.33,0-.36-.44-.78-.27-1.16-.29-1-.05-1.93-.08-2.9,0a9.3,9.3,0,0,0-1.63.31c-.42.1-.83.24-1.25.33a1.78,1.78,0,0,1-.59,0c-.2,0-.42-.16-.44.37a.76.76,0,0,0-1.25.2c.8.56,1.63.16,2.45.1a1.25,1.25,0,0,0,.59-.22C171.59,49.14,171.75,49.15,171.67,49.79Z"/><path class="cls-1" d="M173.84,62.81c-.25,0-.29-.07-.33-.06-.77.25-1.52.69-2.27-.06-.39-.39-1.24,0-1.36.57l3.16.12c.1,0,.23,0,.3,0A5.62,5.62,0,0,0,173.84,62.81Z"/><path class="cls-1" d="M163.18,63v.23l2.56-.12V62.8Z"/><path class="cls-1" d="M42.48,55.88a2.44,2.44,0,0,0-1.57.74c-.51.42-1.05.8-1.57,1.21-.15.12-.4.32-.38.41.27.88-.86,1-.91,1.69,0,.06-.4.13-.61.12a1.62,1.62,0,0,0-1.79,1c-.33.66-1.26,1-1.3,1.95a2.08,2.08,0,0,0-1.55,1.75c-.07.27-.81.37-1.25.54-.22.08-.45.13-.67.21a7.33,7.33,0,0,1-1.13.38,12.37,12.37,0,0,1-1.51.07l.19.54a5.57,5.57,0,0,0-1.18.52,6.88,6.88,0,0,0-1.06,1.1.37.37,0,0,0,.07.35.8.8,0,0,0,.48.08c.32,0,.63-.14,1-.21l.21.32c-.14.06-.32.2-.4.16-.81-.43-1,.31-1.32.72s-.58.82-1.2.68a.58.58,0,0,0-.31.05l-1.62.66.05.19.15.53a1.85,1.85,0,0,1-.67.17c-.48-.07-.91-.16-.91.56,0,.07-.24.22-.36.21-.58,0-.71.3-.76.78s-.12.85-.78.62c-.15-.05-.44.31-.69.5-.35-.43-.1-.72.21-1s.53-.62.86-1a1.08,1.08,0,0,0-1.28.56,1,1,0,0,1-1.23.39,1.22,1.22,0,0,1-.61-.7c-.06-.17.19-.44.36-.78a1.54,1.54,0,0,0-.47,0,6.46,6.46,0,0,0-2.47,2.15C13.62,75,12.82,76,12,76.93q-1.66,1.91-3.33,3.8a1.47,1.47,0,0,1-.61.44c2.53-3.51,5.15-7,7.55-10.55s4.57-7.32,6.86-11c-1.64-.69-2.38-.58-2.34.33a2.74,2.74,0,0,0-2.6.7c-1.47,1.06-2.92,2.14-4.38,3.21,0,0-.08,0-.29,0,.49-.48.92-.88,1.31-1.3A56.58,56.58,0,0,1,21,56.41l4.65-3.65a11.91,11.91,0,0,1,1.46-1c1.64-.92,2.45-2.53,3.44-4,1.8-2.64,3.58-5.29,5.38-7.93,1-1.48,2-3,3.07-4.43,1.55-2.22,3.07-4.47,4.67-6.66,1.78-2.44,3.61-4.84,5.44-7.23q3.3-4.3,6.66-8.56c1.08-1.38,2.23-2.7,3.3-4.09.91-1.2,1.72-2.47,2.62-3.68a17.08,17.08,0,0,1,1.57-1.81c.48-.49.92-.42,1.22.2,1.11,2.25,2.18,4.49,1.74,7.15a14,14,0,0,0,.11,2.78,33.24,33.24,0,0,1,.1,4.62,11.13,11.13,0,0,1-1.1,3.18c-1.17,2.66-2.38,5.3-3.6,7.93-.35.76-.8,1.48-1.2,2.22a3.67,3.67,0,0,0-.17.49,2.81,2.81,0,0,0,.38-.07c3-1.08,5.9-2.18,8.86-3.24,1.57-.56,3.17-1,4.76-1.56,2.33-.76,4.66-1.56,7-2.27,1.35-.41,2.74-.67,4.12-1,1.66-.39,3.31-.79,5-1.16.47-.11,1-.11,1.44-.22s1-.35,1.48-.48a2.38,2.38,0,0,1,1-.05c.11,0,.23.4.2.59a6.75,6.75,0,0,1-.33,1.45,3.4,3.4,0,0,1-.58.77c.86.13.6,1,.93,1.44a5.44,5.44,0,0,1,.48,1.06c.06.15.16.37.1.49-.48.93-.13,1.87-.07,2.81,0,.12.17.22.19.24L95,32.32c-.45.29-1,.72-1.69,1.08-.14.08-.44-.1-.47-.11a6.56,6.56,0,0,1-1.11.67c-.86.29-1.75.49-2.61.77s-2,.73-3,1.06c-.72.24-1.45.4-2.18.61a1.46,1.46,0,0,0-.35.23l0,.19,1.16-.13.07.13-1.06.6c.17.6.42.32.72.14a2,2,0,0,1,.81-.23c-.82.89-1.47,1-2.26.64-.68.46-1.33.88-2,1.34-.09.07-.09.37,0,.5s.29.16.44.23l.06.22-1.33.47c-.14,0-.33,0-.42.13a.87.87,0,0,1-1,.26c-.26-.06-.61.24-.91.4a2.75,2.75,0,0,0-.4.35l0-.58c-.06,0-.15-.07-.21,0-.36.11-.64-.72-1.07-.05a3.26,3.26,0,0,1-.87.84,3.75,3.75,0,0,1-1.14.51,1.6,1.6,0,0,1-1.39.85,2.18,2.18,0,0,0-1.49.7,1.18,1.18,0,0,1-1.8,0c-.41.37-.81.76-1.24,1.12a1.88,1.88,0,0,1-.59.27c-.14,0-.32,0-.45.09-.62.35-.62.36-.83-.24-.75,0-.44.68-.71.85l-4.06,1.56-.05-.53c-.23.28-.45.42-.47.58-.08.54-.29.57-.71.32-.14-.08-.35,0-.53-.05l.12.22c-.1.16-.16.38-.3.47a10.08,10.08,0,0,1-1.12.54l-3.48,1.55.38-1.27c-.67-.17-1,.18-1.47.66l.62.11a1.71,1.71,0,0,1-1.56,1.15c-.55,0-1.06.84-1.54,1.34a1.49,1.49,0,0,0,.45.62c1.94,1.37,3.84,2.8,5.85,4.05,5.21,3.26,10.47,6.44,15.71,9.65,4.39,2.69,8.79,5.36,13.14,8.1,2,1.25,3.87,2.67,5.8,4a5.59,5.59,0,0,1,1,.75l-.84-.25-.07.14,1.27.71c0,.26-.83.17-.22.71l-.63,0-.06.18c.77.59,1.87.41,2.76,1.05-.37-.06-.62-.12-.87-.15s-.77-.3-1,.31c0,.14-.47.15-.76.24l.67,1.52-.38,2.15-.58,0,.53.42-1.22.34,1.16.87-.86,1.23c-.71-.44-.72.22-.93.64s-.38.7-.62,1.12l.64.39a9.48,9.48,0,0,1-4.3-.48A8.34,8.34,0,0,0,85.64,91c-.14,0-.24-.24-.38-.3a2.37,2.37,0,0,0-.87-.27c-.4,0-.82.18-.86-.47,0-.08-.27-.18-.43-.21A1.48,1.48,0,0,1,81.86,89c-.06-.13-.29-.29-.4-.26-1,.24-1.64-.51-2.38-.9s-1.25-.95-1.9-1.38c-.44-.29-1.25-.4-1.35-.74-.22-.83-.93-.88-1.44-1.22a5.81,5.81,0,0,0-1.51-.66,1.39,1.39,0,0,0-1.77.69L68.59,83.2c0-.08.05-.23.07-.37s.12-.76,0-.78c-.33-.13-.69-.49-1.08.05-.12.17-.71.17-1,0a2,2,0,0,1-.63-.86c0-.05.27-.24.37-.4a4.51,4.51,0,0,0,.28-.6,1.57,1.57,0,0,0-.51-.11c-.54.07-1.07.18-1.64.28l.16.49a1.66,1.66,0,0,1-.4-.14c-1.84-1.32-3.73-2.56-5.49-4A32.48,32.48,0,0,1,52.93,71c-1.1-1.49-2.09-3.06-3.06-4.64a3.5,3.5,0,0,1-.17-1.37c0-.12,0-.3,0-.36a12.82,12.82,0,0,1-2.75-4.25C46.27,58.9,45.65,57.46,45,56c-.25-.59-.47-1.19-.68-1.79s-.54-.37-.72-.15A20.24,20.24,0,0,0,42.48,55.88Zm10.73-5.5-.46.28-1.32-.76-.14.19.67.8c-.8.5-1.7-.43-2.59.33.33.11.56.28.71.22.7-.26.61.12.4.74,1-.53,2-.94,2.82-1.45.38-.23.18-.81-.33-1ZM85.69,24.47a2.75,2.75,0,0,1,1,0c.62.25.86-.11,1.18-.54C85.81,23.89,85.81,23.89,85.69,24.47ZM90,33.9c.78.24,1.05.13,1.3-.49A1,1,0,0,0,90,33.9ZM56.23,49.07a.8.8,0,0,0,1.12-.85Zm21,36.56V86l.7.11v-.6ZM25.34,69.49c.39-.64.32-.78-.58-1ZM55.45,49c-.3-.24-.5-.41-.71-.56a.58.58,0,0,0-.29-.08s-.11.13-.1.14a2.9,2.9,0,0,0,.57.6C55,49.14,55.25,49,55.45,49ZM63.9,79.27l0,.15c.16.1.31.21.47.29a1,1,0,0,0,.39.13s.15-.23.13-.25a.92.92,0,0,0-.38-.28A2.61,2.61,0,0,0,63.9,79.27Z"/><path class="cls-1" d="M90.2,94.74a10.66,10.66,0,0,1-4.05-.7L86,94A8.46,8.46,0,0,1,85,93.9a3.25,3.25,0,0,1-1.13-.48,3.37,3.37,0,0,1-2.16-.81l-.24-.22a4.39,4.39,0,0,1-1.25-.71,6,6,0,0,1-2.29-1,3.27,3.27,0,0,0-.28-.18,10.06,10.06,0,0,1-1.6-1.11c-.15-.12-.3-.24-.45-.35l-.12,0a7,7,0,0,1-.68-.29l-.51-.08v-.22a3.37,3.37,0,0,1-1-1.09L73,87.1l-.84,1.24-6.9-3.49,0-.08h0a3.78,3.78,0,0,1-1.06-.86l-.41-.14a3.53,3.53,0,0,1-1.21-.55L61,82.11c-1.34-.93-2.72-1.9-4-3a35.7,35.7,0,0,1-6.42-6.4c-1.21-1.63-2.26-3.3-3.21-4.87a4.23,4.23,0,0,1-.58-2,17.38,17.38,0,0,1-2.56-4.28q-.59-1.31-1.15-2.64h-.18c-.34.29-.7.56-1.06.83h0a4.19,4.19,0,0,1-1.05,1.55A3.29,3.29,0,0,1,37.93,63a5.92,5.92,0,0,1-.6.68l-.07,1.62-1.63.41A3.83,3.83,0,0,1,32.81,68l-.21.06c-.18.07-.38.13-.59.19l-.15,0-.23.09-.23.09,1,1.49L29.2,71.34a3.81,3.81,0,0,1-.91.36,4.48,4.48,0,0,1-1.52,1.2l0,0,.22.76-.83.23-.92,1.52-.61-1.09-.55.15a4.23,4.23,0,0,1-.43.15,3.52,3.52,0,0,1-.42.32,3.33,3.33,0,0,1-1.29,1.52,3.38,3.38,0,0,1-1.19.47l-2.15,1.61-1.82-2.22-.12-.16h-.05c-.44.5-.88,1-1.31,1.52l-1,1.19q-1.66,1.92-3.34,3.82A4.44,4.44,0,0,1,9.06,84L0,87.22l5.62-7.8Q6.78,77.79,8,76.18c1.72-2.35,3.51-4.79,5.14-7.23.57-.85,1.13-1.71,1.68-2.58a3.05,3.05,0,0,1-2.29.43l-6-.82,4.76-4.76c.26-.25.5-.49.73-.73a59.43,59.43,0,0,1,7.21-6.43l2.08-1.63,2.58-2,.19-.15a12.48,12.48,0,0,1,1.64-1.15,6.36,6.36,0,0,0,1.86-2.19c.19-.29.38-.58.57-.87l2.73-4,2.64-3.9c1-1.45,2-2.89,3-4.33l1.36-2c1.11-1.6,2.25-3.26,3.43-4.87,1.69-2.33,3.42-4.6,5.49-7.29q3.31-4.32,6.68-8.59c.49-.62,1-1.24,1.5-1.85S56.12,7.75,56.69,7s.9-1.24,1.34-1.88.82-1.19,1.25-1.77a19.92,19.92,0,0,1,1.84-2.12,3.63,3.63,0,0,1,6.05,1c1.17,2.37,2.62,5.32,2,9a5.72,5.72,0,0,0,.06,1c0,.38.08.77.1,1.15s0,.82.07,1.23a22.44,22.44,0,0,1,0,3.82,12,12,0,0,1-1.16,3.69l-.17.39c-.61,1.4-1.24,2.79-1.87,4.16l2.38-.86c1.12-.4,2.25-.76,3.38-1.12l1.45-.47,2.06-.68c1.63-.54,3.32-1.1,5-1.61,1.05-.32,2.09-.55,3.1-.77l1.2-.27.89-.21,4.11-1a9.87,9.87,0,0,1,1-.16,3.14,3.14,0,0,0,.38-.05,4.58,4.58,0,0,0,.44-.15,10.52,10.52,0,0,1,1-.32,5.44,5.44,0,0,1,2.27-.1,3.49,3.49,0,0,1,2.64,3.93,10.12,10.12,0,0,1-.34,1.63c0,.1.06.21.08.33a7.69,7.69,0,0,1,.48,1.06l.07.19a3.49,3.49,0,0,1,.07,2.8c0,.1,0,.26,0,.39l.55.67-.9,4.25-1.36.9c-.42.29-1,.64-1.55,1a3.19,3.19,0,0,1-1.22.38,4.84,4.84,0,0,1-.86.39c-.5.17-1,.32-1.54.46s-.74.2-1.1.32-.86.3-1.28.45l-1.22,1.33A5.41,5.41,0,0,1,84.88,41l.29,1.12-3.92,1.39a3.69,3.69,0,0,1-1.79.6l-4.7,4.19L74.67,46a4.46,4.46,0,0,1-1.39.38l-.14.11a4.31,4.31,0,0,1-2.91,1l0,0a4.37,4.37,0,0,1-1.45.76,4.13,4.13,0,0,1-.47.13,3.85,3.85,0,0,1-1,.35l-.18.11L63,50.47a3.22,3.22,0,0,1-1.53.75l-.17.11A10.6,10.6,0,0,1,60,52L57,53.32c.83.58,1.64,1.13,2.48,1.66,3.53,2.21,7.08,4.38,10.64,6.55l5.06,3.09,3.23,2c3.26,2,6.64,4.06,9.94,6.14,1.42.89,2.77,1.86,4.08,2.79l1.83,1.29.14.1A7.32,7.32,0,0,1,95.64,78l.5.53.69.39v.34l6.44,6.84L97,84.23h-.21l-.28,1.6,3.28,2.57-3.72,1-.76,1.09,6.17,3.72-9.91.45C91.18,94.72,90.71,94.74,90.2,94.74Zm-6.14-1.33h0Zm-1.5-.75h0Zm-3.41-2.41v0Zm1.38-.14s0,.08,0,.11Zm6.25-2a5.46,5.46,0,0,1,1.57.38l.16.06L85.4,86.18l1.38-.38L84.46,84l5.66-.2-.39-.89-.35-.27.1-.3-.39-.89-.55-.31.36-.69h0c-1.3-.93-2.53-1.8-3.8-2.6-3.26-2.06-6.62-4.11-9.87-6.1l-3.24-2-5-3.09c-3.57-2.18-7.14-4.36-10.69-6.58-1.59-1-3.1-2.08-4.56-3.12l-1.1-.79-.2.09.06-.19-.19-.13-.2-.16-1.53.77q.56,1.29,1.12,2.57a10.17,10.17,0,0,0,2.07,3.29,3.17,3.17,0,0,1,1,2.41c0,.13,0,.27,0,.41.8,1.3,1.67,2.66,2.62,4a30.12,30.12,0,0,0,5.36,5.29c.74.6,1.51,1.17,2.31,1.73l1.08.07a4.41,4.41,0,0,1,1.27.17,3.67,3.67,0,0,1,1.31.73,4,4,0,0,1,.79.19l3.45.83-.59,1.31a2.81,2.81,0,0,1,1.13,1.29,4.66,4.66,0,0,1,2.3.13,8.61,8.61,0,0,1,2.29,1h0a5.62,5.62,0,0,1,1.11.64L81,81.92,81,85.43l.35.23,0,0A3.47,3.47,0,0,1,84,86.85a3.75,3.75,0,0,1,1.35.66,5.88,5.88,0,0,1,1,.36A4,4,0,0,1,86.78,88.08ZM6.41,78.75h0Zm57.65-1.81.36.25.24.17.59-.1.2-.31a2.2,2.2,0,0,0-.47-.09,2.94,2.94,0,0,0-.91.07Zm-45.24-.13h0ZM28.5,70l0,0ZM21,67.8l-.61,1,.58,0,.36-.37Zm26.62-1.06,0,0Zm-24.75-2,1.83.54.13-.13-.73-2.08,4.08-.14h1.07l.19-.07.52-.2.42-.13.15,0A4.81,4.81,0,0,1,32,60.82a6,6,0,0,1,1-1.26l.07-.07a4.37,4.37,0,0,1,3.07-2.32,4,4,0,0,1,1.33-1.68l.71-.54c.27-.2.54-.4.8-.62a7.06,7.06,0,0,1,1.56-1,10.91,10.91,0,0,1,.75-1.09A3.38,3.38,0,0,1,45,51.06L47.42,49A4.2,4.2,0,0,1,49,48.08l-1.15-2.84,2.67.76,0,0,.14.08,1.38.39a3.09,3.09,0,0,1,2.51-1.09l.28,0-.4-.71,2.36.18,3.06-2.32.15,1.87,3.79-4.51.34,3.21a3.67,3.67,0,0,1,2.23-.75H67l.13-.12,2.19-2,1.09.8a4.54,4.54,0,0,1,1.47-.57l.23-.45,1.25-.36a1.54,1.54,0,0,0,.26-.09l.12-.1A3.42,3.42,0,0,1,76,38a3.21,3.21,0,0,1,1.91.24l.42-.08a3.09,3.09,0,0,1,1-1.22c.33-.24.66-.48,1-.71L80.23,36l.06,0-.16-.63,1.69-1.14a3.64,3.64,0,0,1,1.24-.65l.93-.25c.39-.1.77-.2,1.15-.33s.93-.33,1.39-.5L87.69,32a3.92,3.92,0,0,1,4.07-1.62l.3-.18v0a7.33,7.33,0,0,1,0-2.52l-.14-.23-3-.43a3.51,3.51,0,0,1-2.71.44l-.39,0-3.39.12-.15,0c-1.62.49-3.26,1-4.86,1.57l-2.08.69-1.49.48c-1.07.34-2.14.68-3.19,1.06-2,.71-4,1.44-5.93,2.16l-2.91,1.07a3.82,3.82,0,0,1-.81.2l-5,.9,1.59-4.91A4.3,4.3,0,0,1,57.9,30l.47-.84c.23-.4.46-.8.65-1.22,1.16-2.5,2.4-5.19,3.58-7.87l.19-.43a7.63,7.63,0,0,0,.67-1.85,17.79,17.79,0,0,0,0-2.82c0-.46-.06-.92-.08-1.38,0-.25,0-.49-.07-.74a9.46,9.46,0,0,1,0-2.65,4.8,4.8,0,0,0-.09-1.95l-.21.3c-.49.71-1,1.42-1.5,2.11S60.2,12.23,59.55,13c-.48.58-1,1.16-1.41,1.74Q54.8,19,51.5,23.3c-2,2.66-3.74,4.9-5.4,7.17C45,32,43.84,33.65,42.76,35.23l-1.38,2c-1,1.42-2,2.85-3,4.28l-2.63,3.88-2.74,4-.49.75a11.44,11.44,0,0,1-4,4.17,7.81,7.81,0,0,0-.87.63l-.21.17-2.55,2-.23.18,2.13.89-1.85,3-1.68,2.75v.27l-.15-.05-.25.41ZM29.91,64h0ZM11.4,61.42l-.05,0Zm23.67-1.79v0Zm6.76-2.27,0,.07Zm26.91-9.17h0ZM55.28,46.54l.3,0-.09-.16Zm-.42-.44,0,.21.28-.21Zm23.32-2-.28.07Zm1.15.06h0Zm2.73-1.31-.07.07Zm-3.32-.06h0ZM90.63,31a2.55,2.55,0,0,0-1.51.58l.4-.11c.36-.1.71-.2,1.06-.31l.12-.08L90.8,31Zm.09.11h0Zm-31-2.1h0ZM87.83,26.3v0l0,0Zm4.69,0v0Z"/><path class="cls-2" d="M90.21,92.74a8.45,8.45,0,0,1-3.43-.6,2.47,2.47,0,0,0-.64-.11,6.37,6.37,0,0,1-.71-.1,1.34,1.34,0,0,1-.7-.42,1.88,1.88,0,0,0-.35-.13h-.13A1.58,1.58,0,0,1,83,91.09a1.32,1.32,0,0,1-.33-.43,2.47,2.47,0,0,1-1.54-.92A3.33,3.33,0,0,1,79.07,89a5.06,5.06,0,0,0-.46-.29,8.12,8.12,0,0,1-1.28-.9c-.23-.18-.46-.37-.7-.53a3.07,3.07,0,0,0-.42-.18,1.85,1.85,0,0,1-1.34-1.14c0-.12,0-.15-.44-.33a4.39,4.39,0,0,1-.57-.3,4.8,4.8,0,0,0-1.25-.54c-.33-.1-.38-.11-.66.29l-.49.73-4-2,.1-.56A2.26,2.26,0,0,1,66.19,83a2.08,2.08,0,0,1-.78-.8l-1.12-.36a1.65,1.65,0,0,1-.58-.25l-1.6-1.12c-1.31-.91-2.66-1.86-3.94-2.89a33.79,33.79,0,0,1-6.06-6C51,70,49.94,68.36,49,66.84a2.64,2.64,0,0,1-.3-1.44,3.55,3.55,0,0,0,0-.36h0A14.42,14.42,0,0,1,46,60.74c-.64-1.44-1.26-2.89-1.88-4.33-.11-.26-.21-.52-.31-.78l-.1.16-.38.62-.32.5-.59,0s-.26,0-.87.51c-.31.26-.64.51-1,.76l-.58.44A2,2,0,0,1,39.18,60l-.14.13c-.13.71-.91,1-1.62.93s-.67,0-.86.42a3.48,3.48,0,0,1-.76.95c-.31.3-.43.43-.44.59l0,.75-.72.18c-.4.1-.63.29-.82,1s-1,1-1.51,1.12l-.36.11-.46.15-.24.07-.32.12a4.54,4.54,0,0,1-1,.3l-.27,0,0,.14-.87.36-.42.16,1,1.53-1.09.47a1.33,1.33,0,0,1-1.09.2l0,0c-.06.11-.13.21-.19.31a2.29,2.29,0,0,1-1.55,1.12l-.16.26-.14-.25-.19,0-.71.29.24.83-1,.27-.12,0a3.08,3.08,0,0,1-.77.17l-.31.36a1.59,1.59,0,0,1-.78.39,1.66,1.66,0,0,1-.69,1.27A1.4,1.4,0,0,1,20,75l-.28.24-.77.57-.61-.74a1.77,1.77,0,0,1-.35-.64,2.2,2.2,0,0,1-.65-.13,2,2,0,0,1-1-.84c-.25.24-.48.51-.74.81l-.39.45c-.49.55-1,1.12-1.45,1.68l-1,1.17q-1.66,1.91-3.33,3.8a2.44,2.44,0,0,1-1,.72l-3,1.07,1.87-2.6C8,79.51,8.8,78.43,9.58,77.36c1.74-2.37,3.53-4.82,5.19-7.3S18,65,19.53,62.49l.86-1.42-.59-.18c-.52-.18-.94,0-1.69.57l-2.71,2-1.67,1.22a1.07,1.07,0,0,1-.87.17l-.14,0-2-.27,1.91-1.88c.29-.28.56-.54.81-.81a57.54,57.54,0,0,1,7-6.21L22.48,54l2.57-2,.2-.15a10.79,10.79,0,0,1,1.38-1A7.9,7.9,0,0,0,29.19,48c.18-.28.36-.56.54-.83l2.74-4,2.64-3.89c1-1.45,2-2.88,3-4.31l1.37-2c1.1-1.59,2.24-3.24,3.4-4.83,1.68-2.31,3.4-4.57,5.46-7.25q3.31-4.31,6.67-8.57c.48-.61,1-1.21,1.47-1.81S57.69,9,58.28,8.21s.94-1.29,1.39-2,.8-1.16,1.21-1.72a18,18,0,0,1,1.66-1.91,1.64,1.64,0,0,1,2.83.46c1.09,2.22,2.33,4.74,1.83,7.76a6,6,0,0,0,0,1.56c0,.34.07.68.08,1s0,.85.07,1.28a21,21,0,0,1,0,3.48,10.14,10.14,0,0,1-1,3.07l-.18.41c-1.19,2.72-2.44,5.43-3.61,7.95-.09.19-.18.38-.28.56l.94-.34c2-.73,4-1.46,6-2.18,1.1-.39,2.21-.75,3.32-1.1l1.47-.47,2.07-.68c1.62-.54,3.3-1.09,5-1.6,1-.3,2-.52,2.95-.73l1.23-.28.89-.21c1.36-.32,2.73-.64,4.09-1a7.83,7.83,0,0,1,.8-.12,5,5,0,0,0,.63-.1,6.35,6.35,0,0,0,.65-.21c.27-.1.54-.19.82-.26a3.37,3.37,0,0,1,1.41-.07c.86.16,1.08,1.19,1,1.7a7.65,7.65,0,0,1-.38,1.66,1.84,1.84,0,0,1-.11.25,2.63,2.63,0,0,1,.3.84,1.86,1.86,0,0,0,.06.24,4.66,4.66,0,0,1,.49,1l.08.22a1.51,1.51,0,0,1,.06,1.32A2.44,2.44,0,0,0,96,29.6c0,.15,0,.3.06.46l.3.37-.53,2.51-.7.46c-.39.27-.88.6-1.4.88a1.21,1.21,0,0,1-.82.12,3.82,3.82,0,0,1-.93.5c-.47.16-.95.29-1.43.42s-.8.22-1.19.35-1,.34-1.48.53l-.32.12L86,38a2.84,2.84,0,0,1-2.86,1.08l-.07,0-.68.46.34,1.31-2.2.78-.21.06a1.83,1.83,0,0,1-1.54.41l-.12.08-.31.19a1.44,1.44,0,0,1-.2.21L76.6,44l-.06-1.68a5.85,5.85,0,0,1-.61.49,4.27,4.27,0,0,1-1.08.54,2.64,2.64,0,0,1-2.06,1c-.2,0-.3.06-.64.33l-.21.17a2.09,2.09,0,0,1-2.27.46c-.24.22-.49.44-.74.65a2.46,2.46,0,0,1-.82.41,2,2,0,0,1-.47.11,1.6,1.6,0,0,1-1.11.29,1.18,1.18,0,0,1-.27.24l-.17.09-4.25,1.63a1.21,1.21,0,0,1-.48.4,1.24,1.24,0,0,1-.73.1,1.28,1.28,0,0,1-.38.35,8.59,8.59,0,0,1-1,.51l-5.67,2.53.06-.21a3.44,3.44,0,0,1-.45.06l-.29.35,1.17.83c1.41,1,2.87,2.06,4.35,3,3.54,2.21,7.09,4.38,10.65,6.56l5.05,3.09,3.23,2c3.26,2,6.63,4.05,9.92,6.13,1.37.86,2.7,1.81,4,2.73l1.85,1.31.15.11a5.49,5.49,0,0,1,1,.78l2.54,2.7-.52-.15-.12.29,0,0h-.06l-.57,1.35-.35-.07a4.36,4.36,0,0,0-.44-.07l-.13,0a1.08,1.08,0,0,1-.17.16l.35.81-.4,2.28,1.11.87-1.17.33.31.23-1.95,2.8-.33-.21-.14.27,2.64,1.59-3.3.15C91.07,92.73,90.64,92.74,90.21,92.74Zm-5.36-1.17h0ZM86.06,90l.27,0a4,4,0,0,1,1.24.26,6.19,6.19,0,0,0,2.44.44l.18-.31c.14-.23.26-.45.37-.67a1.52,1.52,0,0,0,.06-.17,1.61,1.61,0,0,1,.93-1.11l.17,0L89.85,87l1.27-.35L90,85.79l2.5-.09.18-1.05-1-2.29.46-.13-.42-.32.36-1.08-.88-.5.27-.52-1.43-1c-1.26-.9-2.57-1.83-3.89-2.67C82.89,74.06,79.52,72,76.27,70L73,68l-5-3.09c-3.57-2.18-7.13-4.35-10.67-6.57-1.53-1-3-2-4.46-3.05l-1.44-1a2.67,2.67,0,0,1-.8-1l-1.85.94.63-1.87-.11,0-.22-.09-1.67-.56,1.34-1.15a2.22,2.22,0,0,1,1.46-.55l1-1.33.33.19-.21-.51,2,.56.11,0-.21-.25.33-.64a1.08,1.08,0,0,1,1-.63,1.51,1.51,0,0,1,.81.26c.17.12.33.25.52.4l.08.06,2.3-1.74,0,.63,1.71.13a3,3,0,0,1,.42,0,2.35,2.35,0,0,1,.28-.32l.17-.19,1.54-1.83.15,1.6,2.42-.93a1.45,1.45,0,0,1,1.48-1.08h.71l.07.21.2,0a1.32,1.32,0,0,0,.27-.09c.27-.22.55-.48.83-.74l1-.88.66.48a2,2,0,0,0,.32.2,2.62,2.62,0,0,1,.29-.22l.17-.14a2.91,2.91,0,0,1,2-.77c.12,0,.37-.11.47-.3l.2-.39.42-.12a2.81,2.81,0,0,0,.84-.37,2.58,2.58,0,0,0,.61-.56,1.45,1.45,0,0,1,1-.7,1.4,1.4,0,0,1,1.09.3,1.37,1.37,0,0,1,.37.09l.1,0a1.59,1.59,0,0,1,1.17-.22h0a1.4,1.4,0,0,1,.8-.38l.11,0a1.31,1.31,0,0,1,.46-1.23c.49-.36,1-.7,1.51-1l.62-.42,0-.1h0l-.19-.74L83,35.8a1.8,1.8,0,0,1,.63-.36l.88-.24c.42-.11.85-.22,1.26-.36s1-.34,1.46-.52,1-.38,1.55-.55l.19-.06.25-.37a2,2,0,0,1,2.49-.87l.33.13.25-.16.37-.22.47.12c.33-.2.64-.41.92-.6l0,0,.16-.78a1.14,1.14,0,0,1-.11-.42c0-.21,0-.42-.08-.63a4.56,4.56,0,0,1,.11-2.38l-.09-.23a3.19,3.19,0,0,0-.28-.62,2.46,2.46,0,0,1-.35-.95l0-.09-1.57-.23L92.89,24l.26-.31a2.13,2.13,0,0,0,.18-.21,4.62,4.62,0,0,0,.17-.61l-.48.17a8.46,8.46,0,0,1-.86.28,7.27,7.27,0,0,1-.87.14,5.65,5.65,0,0,0-.59.09l-1.61.37-.44.57a1.88,1.88,0,0,1-2.28.88l-.21,0-.43,0-1.28,0,.11-.51-.08,0c-1,.22-1.9.42-2.8.69-1.64.5-3.3,1-4.91,1.58L74.68,28l-1.48.48c-1.09.35-2.18.7-3.25,1.08-2,.71-4,1.44-6,2.17l-2.9,1.07a2,2,0,0,1-.41.09l-1.8.32.6-1.78a2.37,2.37,0,0,1,.18-.48l.45-.8c.25-.45.51-.9.72-1.36,1.17-2.51,2.41-5.21,3.59-7.91l.19-.42A8.68,8.68,0,0,0,65.44,18a19.08,19.08,0,0,0,0-3.15c0-.44-.06-.89-.07-1.33,0-.29,0-.59-.08-.88a7.6,7.6,0,0,1,0-2.11c.38-2.26-.54-4.28-1.49-6.23A14.67,14.67,0,0,0,62.5,5.73c-.4.55-.79,1.11-1.18,1.67s-.94,1.37-1.45,2S58.64,11,58,11.75c-.49.59-1,1.18-1.44,1.78q-3.35,4.26-6.66,8.56c-2,2.67-3.76,4.92-5.43,7.21-1.15,1.58-2.28,3.21-3.37,4.79l-1.37,2c-1,1.43-2,2.86-3,4.3l-2.64,3.89-2.74,4c-.18.26-.35.52-.52.79a9.53,9.53,0,0,1-3.26,3.51,9.1,9.1,0,0,0-1.13.8l-.2.16-2.56,2L21.63,57.2l-1.28,1a4.34,4.34,0,0,1,2.49.47l1.08.45-.62,1c-.7,1.13-1.39,2.26-2.07,3.39-1.5,2.47-3,5-4.68,7.46h0a1.81,1.81,0,0,1,.72-.08L19,70.83l-.5,1.1a1.93,1.93,0,0,1,1.91-.48l.45.11a1.35,1.35,0,0,1,.35-.47,1.4,1.4,0,0,1,.88-.34.93.93,0,0,1,.28-.56l.41-.41.25.07.13-.05,1-.41-1.44-2.6,2.35.7.3.09.1-.14.14-.17a6.5,6.5,0,0,1,1.08-1.09,2.77,2.77,0,0,1,.51-.29l-.32-.9,1.36,0h.53a5.87,5.87,0,0,0,.85,0,3,3,0,0,0,.55-.18l.42-.16.33-.1.3-.09c.16-.06.34-.11.53-.17l.22-.06a3,3,0,0,1,1.55-1.88A3.4,3.4,0,0,1,34.4,61a2.12,2.12,0,0,0,.36-.4,2.55,2.55,0,0,1,2.57-1.54,2.84,2.84,0,0,1,.54-.57l.1-.08c-.12-.67.43-1.1.74-1.34l.67-.51c.3-.22.6-.45.88-.69a4.11,4.11,0,0,1,1.62-.92l.11-.18a11.72,11.72,0,0,1,.86-1.3,1.44,1.44,0,0,1,1.35-.55,1.42,1.42,0,0,1,1.09,1c.21.58.42,1.16.66,1.73.61,1.44,1.23,2.88,1.86,4.3a11.91,11.91,0,0,0,2.53,3.93,1.25,1.25,0,0,1,.35,1c0,.18,0,.37,0,.55a2.38,2.38,0,0,0,0,.44c.88,1.44,1.88,3,3,4.53A31.92,31.92,0,0,0,59.44,76c1.14.92,2.37,1.79,3.57,2.63l.09-.44,1,.06a2.37,2.37,0,0,1,.67.09,1.86,1.86,0,0,1,.83.56,1.12,1.12,0,0,1,.17.28l.28,0a1.7,1.7,0,0,1,.79.11l1.17.28-.48,1.28,0,.11a1.65,1.65,0,0,1,1.48.13l.1,0c.75.3.69,1,.62,1.53l1.19.6a2.29,2.29,0,0,1,2.29-.41,6.69,6.69,0,0,1,1.77.78,2.4,2.4,0,0,0,.31.16,2.7,2.7,0,0,1,1.26,1L79,84.31l0,2.21a4.28,4.28,0,0,0,.59.39,7.32,7.32,0,0,1,.65.4c.52.35.74.47,1,.41a1.45,1.45,0,0,1,1.54.81c0,.06.06.12.52.2a1.55,1.55,0,0,1,1.1.66h0a2.89,2.89,0,0,1,1.17.31A1.68,1.68,0,0,1,86.06,90Zm-3.53,0v0ZM81,89.39h0ZM66.81,81.52h0Zm.12-.71h0Zm-3-1.53h0l.12-.18A.77.77,0,0,0,63.93,79.27ZM19.46,74.91h0Zm1.94-3.35h0ZM24.56,69v0ZM49,65.3h0ZM12.56,63h0Zm24.49-3.19v0Zm2.86-1.9h0Zm12.34-4.4h0Zm6-6.28.07.88c0,.06,0,.12,0,.17l0,0,.37-.17Zm-1.79.87a.28.28,0,0,0-.14.18h.09Zm21.09-5.95h0Zm3-.67h0ZM94.21,27.68Zm.08-.5h0Zm-.7-4.87h0Z"/><path class="cls-1" d="M394.69,30.29c.43,0,.87,0,1.3,0,3.17-.17,6.33-.37,9.5-.52a125.06,125.06,0,0,1,13.31-.06c1.58.09,3.16.18,4.74.28a5.64,5.64,0,0,1,.84.18l0,.22-2.12.55c-.68.18-1.35.34-2,.55-1.14.34-2.26.73-3.4,1.05s-2.21.52-3.29.82c-.27.08-.47.37-.72.55a1.23,1.23,0,0,1-.48.19c-2.07.32-4.15.59-6.21.94-.93.16-1.84.47-2.76.67s-1.58.28-2.37.42c-1.08.19-2.16.41-3.24.59s-2,.27-3.06.48c-.82.17-1.6.51-2.43.67q-4,.75-7.93,1.41c-.57.09-.62.28-.48.74.57,2,1.1,4,1.65,6,.09.34.25.67.34,1s.44.75.07,1.26c-.17.23.06.71.16,1.06,0,0,.32,0,.51,0,.3.51.46,1-.3,1.51a12.63,12.63,0,0,1,1,.91c.25.28.55.58.17,1a.83.83,0,0,0-.09.65c0,.07.34.08.59.13,0,.34.32.78-.25,1.14-.13,0-.28-.15-.39-.12a1.37,1.37,0,0,0-.4.28c.09.1.17.25.29.3a1.08,1.08,0,0,0,.44,0c.53,0,.85.13.79.68a.47.47,0,0,0,.05.27c.3.53-.11.67-.51.8.35.3,1,.61,1,.92,0,.52.35.67.59.92l-.42.86c1.14,0,.77.84,1,1.28s.14.82-.28,1.6l.7,0c.09,1.46,1.13,2.74.83,4.36l-.46-.3c-.14.35-.2.58.32.57.14,0,.36,0,.41.08a1.16,1.16,0,0,1,.25.61c0,.07-.35.15-.69.29l.78,1,.27-.61c.27.42.25.44-.21.84a1.67,1.67,0,0,0-.27.45,1.82,1.82,0,0,1,.43.2,1.53,1.53,0,0,1,.44.5,2.65,2.65,0,0,1,.09.73l-.35.16.42,1.14c-.6.61.1,1.18.2,1.79.06.35.16.59-.1,1s.24.69.57,1.08l.08-.46c.09.11.21.18.22.27,0,.54,0,1.09,0,1.69l.37.09a1.12,1.12,0,0,0,.66,1.39l-1.08.34.48,1a2.18,2.18,0,0,0-.43,0,2,2,0,0,0-.49.19s0,.24,0,.25.31,0,.47,0,.33.06.49.09l0,.18-.44.15v.15l.87.08a4.41,4.41,0,0,0-.62.47,3.74,3.74,0,0,0-.38.67l-1.32,0c.48-.49.56-.82.12-1.12-.47.38-.06,1.15-.8,1.37a5.35,5.35,0,0,1-.56.1l-.06-.13.76-.56a3,3,0,0,0-.76-.22,2.3,2.3,0,0,0-.86.16c-.64.26-1.21-.05-1.81-.11-.3,0-.6,0-1,0l-.36-.76-.11.1-.67-.63s0,0,0,0a3.55,3.55,0,0,1-1.63-1.9l.2-.27a1.72,1.72,0,0,0-.37,0c-.79.21-.94.14-1.12-.54,0-.07-.05-.2-.1-.2-.88-.15-.32-.57-.19-.85L382,77.07c-.13-.34-.22-.57-.3-.8,0-.07-.07-.19,0-.21.67-.58-.16-1-.18-1.47,0-.09-.18-.18-.3-.23s-.23.13-.22.15a1.14,1.14,0,0,0,.21.3.72.72,0,0,0,.15.1,1,1,0,0,0,0,1.46.72.72,0,0,1,.08.63c0,.11-.37.2-.56.19s-.6-.17-.9-.16a3.64,3.64,0,0,0-.93.22,1.65,1.65,0,0,0,.08.32c.27,0,.54-.1.87-.17a2.37,2.37,0,0,1,.05.31c0,.15,0,.31,0,.46-.46.06-.94.08-1,.67,0,.08-.35.23-.41.19a.76.76,0,0,1-.28-.44,2.27,2.27,0,0,1,0-.59l-1,.11v.14l.55.32c-.3.13-.65.19-.76.36a1.37,1.37,0,0,0-.13.81,6.68,6.68,0,0,0,.2,1,5.66,5.66,0,0,0-1-.29,4,4,0,0,0-.86.08l-1.25-2.72c-.38.46-.62.3-.8,0s-.29-.55-.45-.87l.41-.4c-.19-.07-.34-.18-.46-.16-.54.08-.73-.13-.69-.6s-.61-.74-.93-1.11c-.08-.09-.25-.12-.45-.2l.35-.21-1.41-1.56a2.94,2.94,0,0,0,.57,0,2.36,2.36,0,0,0,.44-.21c-.12-.15-.22-.4-.37-.44-.84-.21-.83-.19-.57-1a3.59,3.59,0,0,0,0-.88l-.4.36A13.88,13.88,0,0,1,367.43,66c-.7-.18-.67-.81-.81-1.29a44.84,44.84,0,0,0-1.35-4.46c-.42-1-.58-2.15-.91-3.22-.27-.89-.63-1.75-.94-2.64-.61-1.78-1.15-3.6-1.84-5.35s-1.73-3.6-2.39-5.46a2.37,2.37,0,0,0-2.82-1.76c-1.3.09-2.62-.17-3.92-.09a28.25,28.25,0,0,0-3.49.58c-.63.12-1.24.27-1.87.4l-.09-.23,1.67-.79,0-.2c-.79,0-1.59,0-2.36.11a57.22,57.22,0,0,1-9.74.7,14.53,14.53,0,0,1-4.81-.52c-1.2-.46-1.25-.54-.47-1.54a6.3,6.3,0,0,1,.78-.85c1.36-1.19,2.66-2.44,4.12-3.51a8.09,8.09,0,0,1,2.55-1c2.27-.65,4.55-1.31,6.86-1.82,2.62-.57,5.27-1,7.92-1.45.63-.1.64-.29.48-.76-.46-1.31-.88-2.64-1.32-4l1.16-.22c.1-.57-.47-1.37.57-1.73.22-.51.45-1.05.68-1.6a.44.44,0,0,0,0-.28c-.17-.46-.16-.8.51-.84.09,0,.21-.24.23-.38,0-.32.05-.64.54-.43l.28-1.18,1,.66-.26-1.21,1-.47-.21-.86.14-.07.65.82.08,0L358.93,18l.24-.07c1.83,2.33,2.91,5,4.19,7.66l-.36.35.84.27c.12.41.18.72.29,1,.27.66.58,1.31.83,2a2.09,2.09,0,0,1,0,.68l.92-.31c.23.42.61.24.87,0a8.8,8.8,0,0,1-.74-1.25,9.74,9.74,0,0,0-1.89-3.48c-.48-.5,0-1.09.31-1.49a17.18,17.18,0,0,1,2.11-2.1c1.07-.9,2.22-1.73,3.33-2.6.61-.48,1.19-1,1.78-1.47a1.62,1.62,0,0,1,2.22,0l-.73-.09c.86.57.31,1.06.23,1.33.41.7.75,1.23,1,1.78s.43,1,.63,1.49a10.57,10.57,0,0,1,.47,1.21c.12.43.47.59,1.13.28a4.38,4.38,0,0,1-.19.74c-.28.6-.11,1,.37,1.21.16.44.27.79.42,1.13.25.59.5,1.18.81,1.75a.77.77,0,0,0,.58.33c3.88-.31,7.75-.72,11.64-.95,3.31-.2,6.63-.2,9.94-.28.06,0,.14,0,.19,0,.28.16.74.3.78.5.08.44-.41.33-.72.42s-1.06-.13-1.34.5c-.06.13-.46.13-.7.22-.5.19-1,.42-1.47.6s-1,.31-1.5.48c-.26.09-.52.19-.78.29ZM391.4,81.9l0-.13-.9-.39-1.16-.1v.36c.58.13,1,.25,1.49.33A2.44,2.44,0,0,0,391.4,81.9Zm-12.31-6.29,1.59-.38C380.51,74.79,379.61,74.91,379.09,75.61Zm-3.38,4.51c.46-.46.41-.59-.46-1ZM380.84,77l.2-.11c-.17-.29-.33-.57-.52-.85,0,0-.27.13-.42.2Zm1.74-.61.08.16.5-.14c.15,0,.3-.07.44-.12s0-.19,0-.2a1.18,1.18,0,0,0-.53,0A1.75,1.75,0,0,0,382.58,76.39Zm-6.82-49-.09.16,1,.48C376.49,27.36,376.34,27.27,375.76,27.34Z"/><path class="cls-1" d="M389.53,86.59l-.37-.74-3.76-.06.47-.47h-.32l-.73-1.53-.33-.31a5.56,5.56,0,0,1-1.77-1.71,3.41,3.41,0,0,1-.54-.25,3.35,3.35,0,0,1-.69-.52l-.41.07a3.4,3.4,0,0,1-.66.5l.76,3.53-4.72-1.43-1.7,1.73-.75-1.7-.51.05-1.38-3a3.6,3.6,0,0,1-1.42-1.39c-.14-.23-.26-.47-.39-.73l-.13-.12a3.39,3.39,0,0,1-.89-1.36l-5.18-2.2,2.27-1.36-3.45-3.82,2.58,0,0-.08c-.32-.75-.54-1.34-.69-1.83a4.54,4.54,0,0,1-1-2.13l0-.1c-.13-.43-.25-.89-.37-1.36a23.84,23.84,0,0,0-.86-2.79,16,16,0,0,1-.71-2.39c-.09-.36-.17-.73-.28-1.09s-.33-1-.5-1.43-.27-.74-.4-1.11c-.21-.61-.41-1.22-.61-1.83-.39-1.19-.75-2.31-1.19-3.39-.29-.74-.64-1.47-1-2.26-.46-1-.93-2-1.33-3.07a18.4,18.4,0,0,1-2.3-.05,13.29,13.29,0,0,0-1.53,0,15.73,15.73,0,0,0-2.14.34l-1,.19c-.39.07-.78.16-1.16.25l-3.15.69-.51-1.36a53.37,53.37,0,0,1-8.26.46l-.95,0a13.25,13.25,0,0,1-4.84-.7,4,4,0,0,1-2.8-2.58,4,4,0,0,1,1-3.61,9.13,9.13,0,0,1,1.16-1.25l1-.88c1-.94,2.13-1.9,3.34-2.79a9.67,9.67,0,0,1,3.26-1.4l.92-.26c2.06-.59,4.19-1.2,6.36-1.67,1.76-.39,3.55-.71,5.3-1l-.06-.2-1.43-4.36,2.37-.45A3.56,3.56,0,0,1,352,23l.06-.13A3.34,3.34,0,0,1,353.34,20a3.13,3.13,0,0,1,.47-.65l.23-1L354,18l.21-.09.61-2.53.77.52v0l2.46-.7,1.21-.6.18.23.91-.25,1.22,1.55a23.69,23.69,0,0,1,2.3,3.6q.38-.35.79-.7c.74-.62,1.49-1.2,2.22-1.75l1.18-.91c.35-.27.68-.56,1-.84l.72-.6a4.83,4.83,0,0,1,3.66-1.06,4.16,4.16,0,0,1,2.88,1.64l2.52,3.42L381,17.8l-.74,3.06.17.23-.22,0-.69,2.84.24.68c.07.19.13.37.2.53l.06.13L382.6,25c2.44-.22,5-.44,7.48-.59,2.35-.14,4.71-.18,7-.22l3-.06a3.16,3.16,0,0,1,1.88.41h0a3.62,3.62,0,0,1,2.14,2.29l1.29-.06A127.09,127.09,0,0,1,419,26.72l1.76.1,3,.18a5.77,5.77,0,0,1,1.15.21l.15,0,2,.44.78,4.93L422.51,34c-.46.12-.92.24-1.38.38l-1.36.43c-.7.22-1.4.45-2.1.64s-1.15.3-1.73.43l-1,.25a3.93,3.93,0,0,1-.36.28,4.22,4.22,0,0,1-1.72.67l-2.18.32c-1.33.19-2.66.39-4,.61-.4.07-.86.19-1.33.32s-.86.23-1.29.32-1.11.21-1.66.3l-.81.14-1.22.23-2,.37-1.29.2c-.55.08-1.11.15-1.66.27a8.94,8.94,0,0,0-.88.25,13.69,13.69,0,0,1-1.59.43c-1.72.33-3.49.65-5.36,1l.36,1.33.56,2c0,.08.05.15.08.22.09.25.18.5.25.75a4.69,4.69,0,0,1,.35,1.5l.11.19a4.42,4.42,0,0,1,.66,2.32,4.38,4.38,0,0,1,.49.84l.38.08.22,2.06a4.64,4.64,0,0,1,.12.92,3.59,3.59,0,0,1,.38,1.33,3.47,3.47,0,0,1,.16.95,3.21,3.21,0,0,1,.18.41l1.41,1.45-.41.83a4.47,4.47,0,0,1,.17.61l.47,0,.16,2.7a5.14,5.14,0,0,0,.27.94,9.25,9.25,0,0,1,.61,2.75,4.15,4.15,0,0,1,.34.85l0,0a3.65,3.65,0,0,1,.62,2.41,4.08,4.08,0,0,1,.32,1.52l.13,1.26.43,1.18-.35.36c0,.06,0,.13,0,.2s0,.18.05.3a3.16,3.16,0,0,1,.67,1.32l1.27.31-.49,1.64,3.15,1.88,2.24.21-.85.62.09.05-.29.09-3.23,2.36.55,1.1-2,0-.67.49-.09.06-.05.1-.87,1.58-2.56,0-.37.13a5.87,5.87,0,0,1-.78.16ZM389,78.24l.76.07-.2-.4,1-.32a3.74,3.74,0,0,1-.47-.83ZM373.57,78h0Zm17.28-1.69h0ZM387,75.85l2.87,0a3.34,3.34,0,0,1,.1-1.15,4.16,4.16,0,0,1-.32-2.18l-.17-.46-1.94-.86,1-1.68-2.1-2.7,1.5-.6a4.45,4.45,0,0,1,.24-.79v0L385,65.3l1.39-2.59-2.14.07L386,59.18l-4-3.48,1.24-.4-.82-.91,1.81-1.31-3-2.68,1.71-1a3.83,3.83,0,0,1,0-1.64v0c0-.06,0-.14-.08-.21-.09-.24-.17-.47-.24-.71l-.57-2.08c-.35-1.29-.7-2.57-1.07-3.85a3.49,3.49,0,0,1,.33-2.95,3.53,3.53,0,0,1,2.55-1.58c2.83-.47,5.41-.93,7.87-1.39a9.13,9.13,0,0,0,.91-.25,14.44,14.44,0,0,1,1.47-.4c.67-.14,1.34-.24,2-.33l1.13-.17,1.94-.35,1.26-.23.9-.15.33-.06-2,.12-3.56.2c-.37,0-.75,0-1.12,0l-2.74,0-.66-2.92-1.19.06c-2.42.14-4.91.37-7.31.58l-2.71.24.5,2.23-9.38-4.67,1.87-3.41c0-.07,0-.14,0-.21a3.68,3.68,0,0,1-.76-1.45c0-.1-.12-.32-.2-.51l-.31-.76c-.11-.29-.22-.58-.37-.85l-.23-.42-1,.8c-.67.51-1.34,1-2,1.57q-.51.43-1,.87a16.89,16.89,0,0,1,1.23,2.71l.05.13.18.26c.11.17.22.34.33.52l1.31,2.19-1.95,1.65a3.69,3.69,0,0,1-3,.9l-4,1.32.2-4.36-.18-.42-.31-.73-4.1-1.33,1.77-1.73-.54-.36-.1.43-.93-.4-.27.64-.46,1.08q0,.15,0,.31l-.3,1.7.33,1a3.49,3.49,0,0,1-.2,3.05A3.54,3.54,0,0,1,354,34.61l-.53.09c-2.4.4-4.87.81-7.24,1.33-2,.44-3.94,1-6,1.58l-.95.27a6.83,6.83,0,0,0-1.33.46c-.43.31-.84.65-1.26,1a54.82,54.82,0,0,0,9.19-.67,16.23,16.23,0,0,1,2-.12l.67,0,2.67-.11.07.45c.33,0,.68-.08,1-.1a17.5,17.5,0,0,1,2.28.05,12.2,12.2,0,0,0,1.6,0A5.31,5.31,0,0,1,362,42.61c.32.9.75,1.8,1.2,2.77s.79,1.69,1.15,2.6c.5,1.26.91,2.52,1.31,3.74.19.58.38,1.16.58,1.74.11.32.23.65.35,1,.22.58.43,1.17.62,1.76s.27,1,.38,1.45a11.2,11.2,0,0,0,.43,1.52,28.59,28.59,0,0,1,1.1,3.5l.21.79,1.34.35-.18,1.59,2.37-2.14-.17,7a4.18,4.18,0,0,1,.31.43l1.52,1.85.25-.3.93,2,.51.19.43-.59a4.62,4.62,0,0,1,2.45-1.71,3.12,3.12,0,0,1,3.13-.56,3.42,3.42,0,0,1,1.87,1.58,3,3,0,0,1,2.13,1.61l1.19.2Zm3.52-2.32,0,0Zm-1.76-27.26h0ZM374.87,28.37l-1.17.26a2.52,2.52,0,0,0,2.36,1.7,3.52,3.52,0,0,1-.66-.85C375.21,29.1,375,28.73,374.87,28.37Zm5.8-1.78h0Zm-24.8-1.37h0Zm-3.58-3v0Zm26.1-.08v0Zm-6.55-3.41-.38.28a2.08,2.08,0,0,0,.2.23Z"/><path class="cls-2" d="M390.62,84.37l-.23-.5h-.29l.2-.2,0-.11a3.23,3.23,0,0,1-1.44-.09,3.21,3.21,0,0,0-.42-.08c-.18,0-.35,0-.56,0l-1,0-.39-.83-.13-.09-.62-.59A4.08,4.08,0,0,1,384,79.95a1.61,1.61,0,0,1-.79-.19,1.57,1.57,0,0,1-.67-.86,1.24,1.24,0,0,1-.63-.65,1.26,1.26,0,0,1-.06-.2l-.13,0a2.06,2.06,0,0,1-.65.16v.86l-.86.12-.2,0a1.25,1.25,0,0,1-.72.71,1.16,1.16,0,0,1-1.19,0l0,0c0,.1,0,.2.07.31s.06.24.09.37l.36,1.66-1.62-.49-.38-.13a2.3,2.3,0,0,0-.42-.12l-.28,0-.41.42-.15-.35-.53.05-1.15-2.51h0a1.43,1.43,0,0,1-1.14-.79c-.12-.2-.23-.41-.34-.64l-.22-.43a1.33,1.33,0,0,1-.33-.22,1.48,1.48,0,0,1-.45-1.15l-.1-.06a3.35,3.35,0,0,1-.43-.33l-.24-.09-1.81-.77,1-.59-2.09-2.31h1.15a1.84,1.84,0,0,1,.07-.51,13.22,13.22,0,0,1-2-4.43,2.2,2.2,0,0,1-.86-1.49c0-.08,0-.15-.05-.22-.13-.45-.25-.9-.37-1.34a25.32,25.32,0,0,0-.94-3,14.22,14.22,0,0,1-.62-2.1c-.1-.4-.19-.81-.32-1.21s-.35-1-.54-1.54c-.13-.35-.26-.71-.39-1.07-.21-.6-.4-1.2-.6-1.8-.38-1.16-.77-2.37-1.23-3.51-.31-.79-.69-1.59-1.05-2.37-.47-1-1-2-1.35-3.13-.31-.88-.63-1.19-1.81-1.1a15.16,15.16,0,0,1-2.16,0,14,14,0,0,0-1.78-.05,17.19,17.19,0,0,0-2.42.38l-.94.19c-.42.08-.83.17-1.24.26l-1.44.32L346,42.68a57,57,0,0,1-9.5.65l-1,0a11.48,11.48,0,0,1-4.14-.56c-.72-.28-1.39-.54-1.59-1.25s.25-1.29.69-1.84a7.19,7.19,0,0,1,.91-1l1-.89c1-.91,2.06-1.84,3.19-2.67A8,8,0,0,1,338.19,34l.93-.26c2-.58,4.13-1.18,6.24-1.64,2.47-.54,5-1,7.44-1.37h.07c-.27-.79-.53-1.6-.79-2.4l-.72-2.2,1.41-.27a1.73,1.73,0,0,1,.85-1.65l.47-1.1a1.51,1.51,0,0,1,.16-1.21,1.38,1.38,0,0,1,.69-.55,1.27,1.27,0,0,1,.61-.86l.06,0,.45-1.87.53.36.69-.31-.2-.83.76-.38,0-.19,1.75-.49.41.52a29.5,29.5,0,0,1,3.37,5.87,4.44,4.44,0,0,1,.34-.46,18.2,18.2,0,0,1,2.24-2.22c.7-.59,1.43-1.15,2.14-1.69l1.21-.93c.36-.29.72-.58,1.07-.88l.7-.58a2.92,2.92,0,0,1,2.15-.62,2.18,2.18,0,0,1,1.51.84l1.39,1.88-1.54-.2,0,.09.1.18c.26.43.49.82.69,1.21s.36.79.52,1.19l.27.65c.09.2.17.4.25.62l1.76-.84-.49,2c0,.09,0,.18-.05.25a2.9,2.9,0,0,1-.17.62l.16.07.21.42.15.43c.08.24.16.45.25.66l.08.19c.19.44.37.87.58,1.27l4-.34c2.43-.22,4.94-.44,7.42-.59,2.31-.14,4.65-.18,6.91-.22l3.06-.06a1.11,1.11,0,0,1,.72.14l.18.09a1.6,1.6,0,0,1,1.07,1.1,1.27,1.27,0,0,1-.23,1,1.48,1.48,0,0,1-1.12.52h-.12c1.59-.09,3.18-.18,4.76-.25a126.47,126.47,0,0,1,13.42-.06l1.77.1,3,.18a4,4,0,0,1,.77.15l.89.21.28,1.79-3.53.92c-.49.13-1,.25-1.45.4l-1.39.44c-.67.22-1.35.43-2,.62s-1.1.28-1.65.41-1.05.25-1.57.39l-.11.1a3.28,3.28,0,0,1-.4.33,2.24,2.24,0,0,1-.89.35l-2.17.32c-1.34.2-2.69.39-4,.62-.5.08-1,.22-1.52.36s-.79.21-1.2.3-1,.2-1.56.28l-.84.14-1.24.23-2,.36-1.24.19c-.6.08-1.19.17-1.78.29a11.16,11.16,0,0,0-1.08.3,11.93,11.93,0,0,1-1.36.37c-2.36.45-4.82.88-7.51,1.34.33,1.15.64,2.3,1,3.46l.56,2.06c0,.13.08.26.13.39a5.91,5.91,0,0,1,.21.66,1.17,1.17,0,0,0,.06.16,1.92,1.92,0,0,1,.11,1.45h.2l.27.47a2,2,0,0,1,.24,1.91c.12.11.23.22.34.35a1.81,1.81,0,0,1,.58,1.58l.26.05.1.82a2,2,0,0,1,0,1l0,0a1.53,1.53,0,0,1,.41,1.15,1.43,1.43,0,0,1,.09,1.07,1.38,1.38,0,0,1,.43.93l.07.06.24.22.49.51-.25.51a2,2,0,0,1,.52,1.23,1.39,1.39,0,0,0,0,.17,1.72,1.72,0,0,1,.26,1.08h.21l.05.9a5.8,5.8,0,0,0,.38,1.48,6.46,6.46,0,0,1,.5,2.67l0,0a2.21,2.21,0,0,1,.43,1l.22.35a1.31,1.31,0,0,1,.12,1.6,1.89,1.89,0,0,1,.35.52,2.14,2.14,0,0,1,.16.83c0,.07,0,.13,0,.21l.07.71-.16.07.32.86-.36.36.08.16a3,3,0,0,1,.31.85l0,.12a2.36,2.36,0,0,1,.05.67l.25.31a1.26,1.26,0,0,1,.45.87c0,.31,0,.62,0,.94l.65.16-.3,1c0,.06,0,.13.21.24l1.92,1.14-2.1.67,0,.08.28.06-.07.35,0,.06,2,.18-2.13,1.56-.25.17a2,2,0,0,0-.23.17l-.07.15-.17.33-.29.53-1.83,0a1.77,1.77,0,0,1-.48.21,4,4,0,0,1-.51.1Zm-2.52-3h.21V80.18l2.41.22L392,81l.41-.33a1,1,0,0,1,.45-.62l-.45-.9.84-.27,0-.08-.35-.08,0-1.21c0-.11,0-.22,0-.33l-.09-.1a1.65,1.65,0,0,0-.19-.17c-1-.84-.8-1.6-.46-2.1v-.07l0-.17a2.08,2.08,0,0,0-.13-.29,2.09,2.09,0,0,1-.19-1.78l-.56-1.54.27-.12,0,0-1-.45.53-.92-1.29-1.67.38-.15a1.46,1.46,0,0,1,0-1.35l.31-.77c-.07-.27-.17-.56-.27-.85s-.25-.72-.34-1.11l-1.48-.06L389,62a4.52,4.52,0,0,0,.32-.65,1.61,1.61,0,0,1-.26-.75l-1.56.05.84-1.71a1.75,1.75,0,0,1-.35-.79l-.2-.14a5.73,5.73,0,0,1-.47-.35L386,56.51l1.08-.35-.24-.07a1.49,1.49,0,0,1-.63-.53l-.61-.81.74-.7.16-.13a1.1,1.1,0,0,1-.1-.29,2,2,0,0,1,.13-1.22,6.39,6.39,0,0,0-.55-.5l-.35-.3-1-.9.91-.55a1,1,0,0,1-.41-.57l-.06-.2a1.87,1.87,0,0,1,0-1.64l0-.07a3.23,3.23,0,0,1-.15-.44,4.2,4.2,0,0,0-.14-.43c-.07-.18-.13-.36-.19-.55L384,44.18c-.35-1.3-.71-2.59-1.08-3.88A1.59,1.59,0,0,1,383,39a1.65,1.65,0,0,1,1.18-.67c2.85-.47,5.44-.93,7.91-1.4a10.23,10.23,0,0,0,1.14-.31,12.94,12.94,0,0,1,1.27-.35c.63-.13,1.26-.22,1.9-.31l1.19-.18,2-.36,1.25-.23.87-.15c.49-.08,1-.16,1.46-.27s.73-.18,1.1-.28c.55-.15,1.12-.3,1.71-.4,1.35-.23,2.71-.43,4.07-.62l2.16-.32a.85.85,0,0,0,.22-.16,2.06,2.06,0,0,1,.87-.55c.57-.16,1.15-.3,1.72-.43s1.05-.25,1.57-.39,1.31-.39,2-.6l.75-.24-.57,0a124.33,124.33,0,0,0-13.2.06c-2,.09-4,.21-5.94.32l-3.55.2c-.32,0-.64,0-1,0h-1.2l-.38-1.7,1-.46.58-.22.62-.19c.29-.09.57-.17.85-.28l.6-.24h0c-2.24,0-4.56.08-6.83.22-2.45.15-5,.37-7.37.58l-4.25.37a1.51,1.51,0,0,1-.78-.16l.13.59-3.76-1.87.75-1.36.6-.21a2.78,2.78,0,0,1,.53,0l-.15-.43,0-.06a1.65,1.65,0,0,1-.56-.71,1.76,1.76,0,0,1-.11-.93,1.56,1.56,0,0,1-.79-1,6.38,6.38,0,0,0-.3-.77l-.29-.71c-.14-.34-.27-.69-.44-1s-.39-.7-.62-1.09l-.6-1,.13-.42a1.82,1.82,0,0,1,.17-.37.83.83,0,0,0-.3.15l-.68.57c-.37.31-.74.62-1.12.92l-1.24,1c-.7.53-1.4,1.07-2.06,1.63a16.17,16.17,0,0,0-2,2,3.38,3.38,0,0,0-.22.3,10.54,10.54,0,0,1,1.92,3.54l.05.13a3.79,3.79,0,0,0,.37.65c.1.14.19.29.29.45l.44.73-.65.55a1.65,1.65,0,0,1-1.4.45,1.35,1.35,0,0,1-.33-.11l-1.78.59.07-1.46c0-.14,0-.26,0-.37v0c-.12-.31-.25-.61-.39-.91s-.27-.61-.39-.92A4.86,4.86,0,0,1,363,27l-1.9-.62,1-1-.46-1A40.37,40.37,0,0,0,359.42,20l-.68.34-.11-.13-.09,0,.62,2.86-1.86-1.25-.22.93-.47-.2a1.33,1.33,0,0,1-.5.5,1.54,1.54,0,0,1-.14.64c-.18.43-.37.87-.55,1.29l-.31.72-.36.13,0,.11a2.62,2.62,0,0,1,0,.87l-.12.68-.72.14v0c.31,1,.61,1.9.94,2.83a1.57,1.57,0,0,1,0,1.37,1.67,1.67,0,0,1-1.23.71l-.53.09c-2.42.4-4.92.82-7.34,1.35-2.05.45-4.12,1-6.12,1.61l-.94.27a6.48,6.48,0,0,0-2,.77c-1.06.78-2.07,1.68-3,2.55l-1,.9a5.23,5.23,0,0,0-.64.69h0a9.83,9.83,0,0,0,3.44.43l1,0a56.64,56.64,0,0,0,9.57-.69,14.49,14.49,0,0,1,1.74-.1l.72,0,.89,0,.11.71.08,0a18.72,18.72,0,0,1,2.71-.42,15.79,15.79,0,0,1,2,.05,13.31,13.31,0,0,0,1.88,0,3.34,3.34,0,0,1,3.84,2.42c.35,1,.8,1.94,1.27,2.95.38.8.77,1.63,1.1,2.48.48,1.2.88,2.43,1.27,3.62.19.59.39,1.18.59,1.77.12.34.24.68.37,1,.2.55.41,1.09.58,1.65s.24.88.35,1.33a12.57,12.57,0,0,0,.53,1.81,27.06,27.06,0,0,1,1,3.26c.12.43.23.87.36,1.3,0,.12.06.24.09.37s0,.17.06.24l.78.2-.07.79A17.7,17.7,0,0,0,369.54,69l1.24-1.12-.06,2.33c0,.12,0,.22,0,.31a2.88,2.88,0,0,1,0,.64,1.55,1.55,0,0,1,.67.64l.8,1-.76.42,1.17,1.29,0,0a1.64,1.64,0,0,1,.5.9,1.76,1.76,0,0,1,.43.15l.1,0,1.5.55-.48.47.67,1.39.45.23c.17.08.34.17.51.28l.06-.1,0-.06-.12-1.08.48-.05,1.6-2.17a2.54,2.54,0,0,1,1.8-1l.2-.2a1.17,1.17,0,0,1,1.26-.34,1.31,1.31,0,0,1,.93,1l0,.07.31.21-.11.13a2.22,2.22,0,0,1,.1.23,1.85,1.85,0,0,1,.86,0,1.08,1.08,0,0,1,.92,1l.08.75-.41.21-.2.43a1.32,1.32,0,0,1,.2.37,1.59,1.59,0,0,1,.47,0h2.09l-1,1.34a1.79,1.79,0,0,0,.84.9l.39.2.25-.23Zm-10-4.49-1.18.28L378,77A1,1,0,0,1,378.08,76.88ZM370,69.79Zm-1.56-3.67v0Zm0-.08h0ZM388,57.84h0Zm.25-4.39h0ZM387.07,49h0Zm-.31-.19h0Zm-11-20.66.14.09v-.12Zm3.18-.64v0Zm-.36-.16h0Zm-24.37-4h0Zm22.29-.75h0Zm-.44-.29ZM372.7,18Zm-.08-.25a.48.48,0,0,0,0,.09l0-.1Z"/><path class="cls-1" d="M474.82,85.26l-.12-.17.07.26Z"/><path class="cls-1" d="M533.19,48.53c-.62-1.31-2-2.12-2.93-3.18a25.46,25.46,0,0,0-2-1.76,1.26,1.26,0,0,0-.38-.25c-.39-.15-.81-.26-.41-.66-.26.13-.61.28-.91.48s-.23.31-.39.43a5.73,5.73,0,0,1-1,.66c-.37.18-.8.25-1.18.42-.14.06-.22.27-.38.49l-.37-.36c-.5,0-1,.58-1.52.23a6,6,0,0,1-2.76,1c-.44.1-.86-.15-1.34.2-.06,0-.28-.12-.44-.12a6.71,6.71,0,0,0-.87.1,2.2,2.2,0,0,0-.56.15c-.37.11-.73.25-1.1.32-.06,0-.12-.24-.21-.44a5.31,5.31,0,0,1-.7.32q-1.11-1.86-2.31-3.66a63,63,0,0,0-7.77-9.65c-1.72-1.72-3.36-3.65-5.14-5.17a71.54,71.54,0,0,0-12.05-8.72,14,14,0,0,0-5.49-2,50.42,50.42,0,0,0-6.53.12c-2.38.18-4,1.7-5.41,3.56a23.49,23.49,0,0,0-3.45,6.53c-.63,1.85-1.22,3.74-1.71,5.7a35.81,35.81,0,0,0-.93,8c0,2.33-.11,4.67.07,7.08.06.81.15,1.63.22,2.44l-1.18-.08c-.2,0-.38-.12-.58-.13s-.59,0-.87,0c-.47,0-.78.31-1.16.47-.55.23-.81.61-.67,1,.07.21.16.42.24.62s.11.19.08.22c-.71.6,0,1,0,1.48a3.17,3.17,0,0,0,0,1.17c.12.59.35,1.15.45,1.75a2.41,2.41,0,0,1-.11,1.42c0,.08,0,.18.06.26l1,1.95a.69.69,0,0,0,.16.23c.28.22.59.42.84.66A1.51,1.51,0,0,0,463,62a6.87,6.87,0,0,1,1.67-.25c.2,1,.41,2.07.62,3.1.34,1.66.73,3.33,1.16,5,.48,1.84,1,3.68,1.56,5.52.34,1.11.76,2.22,1.18,3.32.22.58.53,1.15.85,1.82l.27-.59,2.14,2.66,0-.93a2.83,2.83,0,0,1,.51.78,5.47,5.47,0,0,0,.37.76c.45.64.92,1.26,1.39,1.88l-.23-.81.16,0,.81,1.42a4.2,4.2,0,0,0-.18-1.63,1.28,1.28,0,0,1,0-1.25l.64,1.44.18,0L475,79.88c.65.35.48,1,.92,1.61l-.25-2.64.65,1.08.12-1.5-.37-1.24.17,0,.52.54.07-.57c.75.4.95.31.89-.36l.79.15-.91-1.79a2.76,2.76,0,0,0,.62.16c.11,0,.25-.11.25-.22,0-.45-.14-.93-.16-1.38,0-.84-.53-1.78-.32-2.58.14-.52.24-.63.73-.16.17.16.36.28.63.49,0-.58-.06-1-.1-1.41a66.74,66.74,0,0,1-.58-6.81s-.21-1-.44-2.73l4.36-.23c.49,0,1,0,1.25-.61l-.47-.34.09-.13a1.76,1.76,0,0,1,.59.11,9.15,9.15,0,0,1,.87.72c.07.06.12.16.22.2a3.17,3.17,0,0,0,2.59-.71l-.38-.28a2.71,2.71,0,0,1,.6-.2c.1,0,.27.14.24.2-.21.58.09.68.69.74a2.43,2.43,0,0,0,1.43-.28,2.18,2.18,0,0,1,.59-.12c.06.42.49.4.87.39.87,0,1.76-.08,2.64-.13.07-.5-.09-.6-.67-.55s-.93,0-1.39,0v-.19a1.77,1.77,0,0,1,.51-.18c1.24,0,2.47,0,3.7,0,.43,0,.89-.1,1.32-.11.77,0,.78,0,.33.64a6.22,6.22,0,0,1-.48.51l1.17-.12,10.25.11a5.4,5.4,0,0,0,1.49-.25l.11.22.16-.35,1.1,2.15.33-.39,1.42,3.87c-.45-1.5,0-2.87-.92-4.48a.78.78,0,0,1,.44.31c.46,1,.9,2,1.32,3s.85,2.09,1.27,3.13c0,.09.12.23.16.24.63.07.71.74.94,1.25a15.39,15.39,0,0,1,.88,2c.46,1.7.82,3.4,1.23,5.12.4.3.48,0,.45-.32-.06-.69-.14-1.4-.24-2.1-.14-.9-.31-1.8-.46-2.68.8.29.09-.64.35-.88.08.33.12.59.2.85a10,10,0,0,0,.48,1.51c.09.2.46.27.67.47a1.74,1.74,0,0,1,.42.64c.2.62.33,1.24.52,1.86.25.82.52,1.65.77,2.47,0,.07,0,.14,0,.2a6.14,6.14,0,0,0,.79,1.59,4,4,0,0,1,1.29,2.68c0,.72.12,1.48.18,2.22l.15.07c0-.12.05-.23.07-.36,0-.29,0-.59.08-.88a3.5,3.5,0,0,0,.09-.47c0-1.21.05-2.39-.07-3.64-.21-2.14-.45-4.29-.82-6.47A69.74,69.74,0,0,0,520.68,61c-.27-.76-.84-1.48-1.19-2.25l0-.08a2.61,2.61,0,0,0,.57-.07,11.84,11.84,0,0,1,1.88-.24l2.46-.25-.07.36c.18-.12.35-.18.4-.28a.6.6,0,0,1,.8-.25,1.08,1.08,0,0,0,1.37-.2c.08.32.3.32.55,0s.58-.46.91-.15c.09.08.51,0,.67-.1a4.46,4.46,0,0,0,.68-.76l-1.25-.15a3.71,3.71,0,0,1,2.12-1c.26,0,.53-.06.79-.11a2.39,2.39,0,0,0,1.84-1.28,6,6,0,0,0,.9-3.65A9.26,9.26,0,0,0,533.19,48.53ZM478.78,70.24c0,.12-.19.28-.25.23a8.32,8.32,0,0,1-.73-.7l.76-.36A5,5,0,0,1,478.78,70.24Zm12.12-10.69c-.08-.06-.14-.15-.24-.16-.46,0-.94,0-1.4,0a8.12,8.12,0,0,1-.84-.12l.1-.24,1.29,0a1.66,1.66,0,0,0,.56,0c.66-.23,1-.18,1.41.23Zm5.2-9.16-.5-.34c.16-.16.32-.42.5-.46a8.31,8.31,0,0,1,1.48-.17c.09,0,.15.19.17.22Zm4,8.91c-.35.07-.7.1-1.22.17,0-.13,0-.31.12-.44a.86.86,0,0,1,.48-.15,2.63,2.63,0,0,1,.7,0c.12,0,.18.15.27.22A1.46,1.46,0,0,1,500.07,59.3Zm3.28-10.76c-.12,0-.33,0-.35-.06a2.07,2.07,0,0,1-.09-.56l-.51.05.32.8c-.5,0-.85,0-1.21,0a2.61,2.61,0,0,0-.59.2l0,.13.55-.12c0,.16.12.34,0,.49a.89.89,0,0,1-.52.26c-.63.11-.86-.15-.85-.65,0-.14-.21-.36-.26-.34a4.42,4.42,0,0,0-.7.39l.92.66L500,50c-.56-.28-1.62.33-2-.55l.69,0,.08-.17a8.45,8.45,0,0,0-1.38-.22,9.54,9.54,0,0,0-1.65.19c-.51.09-1,.24-1.55.36v.21a1.47,1.47,0,0,1,.53,0,2,2,0,0,1,.48.36,2.79,2.79,0,0,1-.66.24c-.74.06-1.47.07-2.2.12s-1.49.18-2.22.19a2,2,0,0,1-1-.34c.57.1,1.17-.57,1.73-.2.11.08.37,0,.56,0,.65,0,1.35-.44,2-.16.05,0,.26-.15.55-.33a3,3,0,0,0-.8-.15c-.9.1-1.81.25-2.71.36a6.75,6.75,0,0,1-1.29.06c-.52,0-1.11.23-1.59,0-.15-.08-.57.18-.86.21-1.2.13-2.39.22-3.59.34-.48,0-1,.17-1.21-.26-.54.51-1,.71-1.47.56-.14,0-.15-.29-.28-.55l-1.21,0-.07.16.42.4c-.46.05-.94.31-1.1-.22a.34.34,0,0,0-.46-.27c.26-5.7,1.58-12,5.53-15.84a2.5,2.5,0,0,1,.17-1.17c.06-.22.25-.33.38-.49a8,8,0,0,1,6.8-3.22,2,2,0,0,1,2,1.5c.26-.44.45.11.6.32,1,1.45,2,2.91,3,4.37.77,1.13,1.57,2.24,2.32,3.39,1,1.52,2.05,3,2.92,4.62.76,1.4,1.49,2.81,2.21,4.22h0Z"/><polygon class="cls-1" points="473.73 92.89 471.8 85.88 473.93 84.85 472.19 83.8 472.24 83.71 474.04 84.79 477.11 83.31 478.42 85.09 473.73 92.89"/><path class="cls-1" d="M477.84,95.93l-3.68-6.46L471,85.6l-.93,2.05-2.76-5.85-.28-.57c-.22-.46-.46-.93-.66-1.45-.47-1.23-.9-2.34-1.25-3.52-.59-1.94-1.13-3.84-1.6-5.64s-.86-3.49-1.2-5.15l-.06-.3a3.92,3.92,0,0,1-2.81-1l-.23-.18-.44-.34a3.61,3.61,0,0,1-1-1.21c-.33-.64-.67-1.3-1-2a3.23,3.23,0,0,1-.23-2.54,5.5,5.5,0,0,0-.15-.56c-.11-.36-.21-.72-.28-1.09a6.59,6.59,0,0,1-.13-1.48,3.64,3.64,0,0,1-.15-1.89,3.82,3.82,0,0,1,2.31-4.47,4.68,4.68,0,0,1,1.79-.71c-.1-1.94-.06-3.81,0-5.63v-.79a38.54,38.54,0,0,1,1-8.7c.45-1.81,1-3.7,1.78-5.94a26.66,26.66,0,0,1,3.88-7.35c1.42-1.91,3.76-4.48,7.59-4.76a52.86,52.86,0,0,1,6.92-.12,16.59,16.59,0,0,1,6.75,2.35,75.51,75.51,0,0,1,12.58,9.08,47.73,47.73,0,0,1,3.58,3.54c.57.61,1.14,1.21,1.72,1.79A65.6,65.6,0,0,1,514,41.29l.88,1.34,1-.56.54,1.16a7,7,0,0,1,.82-.06h.25a4.5,4.5,0,0,1,1.2-.08h0a4.16,4.16,0,0,0,1.17-.34l1.73-1.45.91.61a3.75,3.75,0,0,1,.65-.09l.58-.19.23-.07.15-.11a3.56,3.56,0,0,1,.88-.79,9.15,9.15,0,0,1,1-.53l.18-.09,3.51,4.77a2.76,2.76,0,0,0-.86-4.32l.17.07a4.21,4.21,0,0,1,1.3.8l.54.46a17.79,17.79,0,0,1,1.65,1.53c.23.24.53.51.84.8a9.87,9.87,0,0,1,2.6,3.14h0c.07.15.15.3.23.45A8.31,8.31,0,0,1,537,50a8.76,8.76,0,0,1-1.16,5.58,5.27,5.27,0,0,1-3.63,2.82l-.39.47a5.09,5.09,0,0,1-1.08,1.1,4.09,4.09,0,0,1-2.27.71A3.4,3.4,0,0,1,527,61a3.61,3.61,0,0,1-1.26.11l-1.52,1a65.33,65.33,0,0,1,2.68,10c.42,2.45.67,4.86.85,6.69a26.94,26.94,0,0,1,.08,3c0,.32,0,.63,0,1a3.74,3.74,0,0,1-.13,1c0,.08,0,.16,0,.24s0,.31,0,.46a5.29,5.29,0,0,1-.09.55l-.8,3.8-5.15-2.42-.14-1.71c0-.22,0-.43-.06-.65-.06-.56-.11-1.14-.12-1.75a1.42,1.42,0,0,0-.42-.62,5.82,5.82,0,0,1-1.24-2.09c0-.12-.09-.24-.15-.35l-.08-.16a3.46,3.46,0,0,1-2.15-.74l-.87-.65L515.81,75c-.28-1.23-.55-2.39-.86-3.55a7,7,0,0,0-.39-.89c-.12-.24-.23-.48-.33-.71l0-.1a3.46,3.46,0,0,1-1.1-1.49l-.47-1.17-.38-1-.78.93-.33-.62-.22.5-2-4L499,62.9l-9,.9.86-.91-.28-.05-.22.08-.09-.07a5.42,5.42,0,0,1-1.7.1,5.59,5.59,0,0,1-.71-.1,5.5,5.5,0,0,1-3.78.19,5.56,5.56,0,0,1-1.31.21l-1.14.06a33.54,33.54,0,0,0,.33,4.21c.09.75.18,1.5.24,2.25,0,.3,0,.59.07.94l.51,7.22-.69-.53L484,81l-4.47-.84-.38,3.21.06.65.7,2.73-.44.06.47,5.06-1.7-2.28Zm49.91-12.41h0Zm-56.94-9.31,1.47.79-.08-.27,1.7-.26-2.1-4.12,3.13.89v-.07l-2.3-2.28,3.29-1.55a34.45,34.45,0,0,1-.27-3.85c-.08-.46-.24-1.37-.41-2.6l-.43-3.21,3.23-.19,3-.16,1-1.43,1.91.33a3.61,3.61,0,0,1,1.57.47l.77-.28h0l.18-.44L489,56l.78,0a4.26,4.26,0,0,1,2.38,0,3.42,3.42,0,0,1,.71-.08l1.8,0,1.9,0,.34,0c.31,0,.62-.07.92-.08a5,5,0,0,1,1,.06l.36,0a5.44,5.44,0,0,1,1.51.06,3.25,3.25,0,0,1,1.78,1l4.71.05-1.14-2,3.1,1.16,1.56-3.51,1.89,3.7.74-.89,1,2.66A3.52,3.52,0,0,1,516,59.81c.47,1,.93,2,1.36,3.07.28.66.55,1.33.82,2l.15.37a3.84,3.84,0,0,1,.62.68l.2-.19c-.42-1.3-.86-2.57-1.28-3.75a6.54,6.54,0,0,0-.41-.75,12.68,12.68,0,0,1-.69-1.27l-.08-.19-1.54-3.9,4.18-.22s0,0,0,0a10.26,10.26,0,0,1,1.87-.28l.43,0,1.74-.18.58-.06a3.61,3.61,0,0,1,1.71-.23l3-2.45.13.52a6.91,6.91,0,0,1,1.39-.31l.13,0,.33,0a3.57,3.57,0,0,0,.5-1.43,5.66,5.66,0,0,0-.32-.67c-.12-.22-.23-.45-.34-.67a5.6,5.6,0,0,0-1.16-1.22,17.44,17.44,0,0,1-1.26-1.21,10.32,10.32,0,0,0-.87-.8,6.19,6.19,0,0,1-.64.36,5.92,5.92,0,0,1-.68.28L524,49.7l-1.56-1.54a10.19,10.19,0,0,1-2.51.79l-.27.06a4.84,4.84,0,0,1-1,.09,3.07,3.07,0,0,1-1.74.11h0l-.49.15a10.66,10.66,0,0,1-1.14.31,3.19,3.19,0,0,1-1.09,0l-1.68.67-1.31-2.19c-.71-1.18-1.46-2.37-2.23-3.53a59.67,59.67,0,0,0-7.4-9.19c-.62-.62-1.23-1.27-1.85-1.92a42.39,42.39,0,0,0-3.12-3.1l-.83-.71q.91,1.32,1.81,2.67l1.06,1.57.86,1.25c.5.72,1,1.45,1.49,2.18l.66,1c.81,1.22,1.65,2.48,2.39,3.84.46.84.9,1.68,1.3,2.46l.16,0,.05.43.73,1.42,2,3.91-1.61.16.53,1.3-1.85,0h0l-1.84,0a4.13,4.13,0,0,1-1.85.87l-.88,1-1.56-.78a5.48,5.48,0,0,1-1.15-.08l-2.2,1-.8-.55-.22,0c-.44,0-.88.06-1.33.08l-.91,0-.76.07c-.49.05-1,.11-1.62.12a4.33,4.33,0,0,1-2.42-.68l-.18,0a3.79,3.79,0,0,1-.56.1l-2,.19-1.63.15h-.13a6,6,0,0,1-1,0,4,4,0,0,1-2.52.19h-.12a3.89,3.89,0,0,1-2.53-.21l-2.55.67.18-4.07c.34-7.45,2.23-13.16,5.63-17,.06-.26.12-.47.17-.64a3.83,3.83,0,0,1,1-1.68,11.07,11.07,0,0,1,9.16-4.26,5.79,5.79,0,0,1,1.26.17,53.2,53.2,0,0,0-6.88-4.56,12,12,0,0,0-4.23-1.63,47.14,47.14,0,0,0-6.14.12c-1.1.08-2,.77-3.22,2.36a20.39,20.39,0,0,0-3,5.7c-.71,2.08-1.23,3.81-1.64,5.46A32.58,32.58,0,0,0,466,41.4v.8c0,2.06-.07,4,.07,6,0,.52.09,1.05.14,1.58l.4,4.31-3.83-.26-.71,0h0a3.49,3.49,0,0,1,0,1.25s0,0,0,.06c0,.19.1.38.15.56a11.21,11.21,0,0,1,.31,1.25,5.79,5.79,0,0,1,.07,1.63l.21.42a11.3,11.3,0,0,1,1.67-.2l2.63-.15.49,2.58c.15.79.31,1.58.47,2.38l.14.69c.32,1.55.69,3.18,1.12,4.84S470.28,72.45,470.81,74.21Zm44.64-3.85.26,0ZM518.64,66h0Zm-55.43-6.35h0Zm-6.48-2h0Zm65.45-1.13-.06.09Zm-32.81-.38h0Zm29.87-.48h0ZM456.16,54h0Zm4.53-.08h0Zm25.4-1.44h0Zm-10.77-1.12,0,.05Zm-18.1-.59-.15.14Zm59.57-1.53Zm-32.28-.53,0,.06Zm34.94,0-.06,0Zm-36.78-3.44,1.1,2.06.71-.06,1.62-.15a3.59,3.59,0,0,1,2.16-.17,5.2,5.2,0,0,1,1.09,0,7,7,0,0,0,.7,0l1.16-.16c.53-.08,1.06-.15,1.59-.21a3.86,3.86,0,0,1,1.08,0h0c.43-.11.86-.21,1.28-.29a10,10,0,0,1,2.18-.24,6.35,6.35,0,0,1,1,.09l-.28-.68.82-.08-.13-.25c-.61-1.13-1.34-2.22-2.11-3.38l-.68-1c-.45-.69-.92-1.37-1.4-2l-.9-1.3L493,36.24l-.85,1.45L490,32.44a4.93,4.93,0,0,0-3.68,1.91l.18,1-1.13,1.11c-2.21,2.17-3.69,5.71-4.32,10.34Zm3.69,1.82h0Zm32-3.93h0ZM486.31,34v0Zm-4.83-3.24h0Z"/><polygon class="cls-2" points="474.46 87.88 473.73 85.35 474.31 85.07 473.91 84.83 474.36 85.05 475.5 84.5 476.02 85.2 475.67 85.77 474.9 85.31 474.9 85.31 475.66 85.8 474.46 87.88"/><path class="cls-2" d="M476.23,89.08l-2-3.55-.32.16-.3-.39v.31l-3-3.78-.49,1.08-.92-2-.29-.6c-.22-.45-.42-.86-.59-1.29-.46-1.19-.87-2.27-1.21-3.39-.58-1.92-1.11-3.78-1.57-5.56s-.84-3.42-1.17-5l-.14-.68-.31-1.53a3.72,3.72,0,0,0-.56.13,2.36,2.36,0,0,1-2.45-.29,4.6,4.6,0,0,0-.42-.33l-.37-.28a1.64,1.64,0,0,1-.43-.56c-.33-.64-.67-1.29-1-1.95a1.28,1.28,0,0,1-.09-1.1,1.41,1.41,0,0,0,0-.85,7.36,7.36,0,0,0-.21-.81c-.09-.3-.17-.6-.24-.91a4.27,4.27,0,0,1-.06-1.41l0,0a1.68,1.68,0,0,1-.06-1.56c0-.12-.1-.24-.14-.37a1.83,1.83,0,0,1,1.23-2.27,1.66,1.66,0,0,0,.22-.12,2.18,2.18,0,0,1,1.42-.42H461a5.17,5.17,0,0,1,.55,0,2.06,2.06,0,0,1,.54.11h0c0-.43-.08-.85-.11-1.28-.16-2.19-.12-4.31-.08-6.37v-.8a36.56,36.56,0,0,1,1-8.25c.44-1.75,1-3.59,1.73-5.78a24.65,24.65,0,0,1,3.59-6.8c1.29-1.73,3.15-3.74,6.13-4a50.67,50.67,0,0,1,6.66-.12A14.9,14.9,0,0,1,487,18.53a73.78,73.78,0,0,1,12.23,8.84,46.22,46.22,0,0,1,3.43,3.39c.58.62,1.17,1.24,1.76,1.83a63.6,63.6,0,0,1,7.9,9.8c.64,1,1.26,1.94,1.86,2.92l.76-.43.3.65.21-.07a3.21,3.21,0,0,1,.77-.21l.11,0a6.7,6.7,0,0,1,.89-.09,1.29,1.29,0,0,1,.35,0,2.34,2.34,0,0,1,1-.11h.2l.29-.06a4.5,4.5,0,0,0,2-.77l.58-.48.49.33.14-.06a2.52,2.52,0,0,1,.9-.25l.34,0,.06,0a6,6,0,0,1,.67-.24,3.29,3.29,0,0,0,.48-.17,4.78,4.78,0,0,0,.77-.53,1.66,1.66,0,0,1,.49-.51,7.57,7.57,0,0,1,.78-.42l.22-.11,1.17,1.59A.79.79,0,0,0,528,42.3l.18.07a2.35,2.35,0,0,1,.77.46l.57.48A16,16,0,0,1,531,44.67c.29.32.63.62,1,.93a8,8,0,0,1,2.12,2.5h0c.08.18.17.35.27.52a6.57,6.57,0,0,1,.71,1.76,6.84,6.84,0,0,1-1,4.3,3.37,3.37,0,0,1-2.54,1.82l-.37.06-.72.84-.19.23a3.18,3.18,0,0,1-.67.69,1.92,1.92,0,0,1-1.56.25,1.29,1.29,0,0,1-1.22.37h0a1.89,1.89,0,0,1-1.46,0,2,2,0,0,1-.38.27l-.12.07-1.95,1.29.24-1.36-1.13.12-.53,0-.46,0a7.35,7.35,0,0,1,.6,1.22A71.46,71.46,0,0,1,525,72.41c.41,2.39.66,4.75.83,6.55a25.38,25.38,0,0,1,.07,2.74c0,.33,0,.66,0,1a1.86,1.86,0,0,1-.09.55c0,.2,0,.35-.06.5l0,.41a3.23,3.23,0,0,1-.06.35l-.24,1.3L523.53,85l0-.57c0-.23,0-.46-.06-.68-.05-.54-.11-1.08-.12-1.6a3,3,0,0,0-1-2,4.07,4.07,0,0,1-.8-1.42c-.06-.16-.12-.31-.19-.46l-.14-.29,0-.22L521,77c-.15-.47-.3-.93-.44-1.4a1.25,1.25,0,0,1-.62,1.2,1.26,1.26,0,0,1-1.44-.19l-.29-.22-.42-1.81c-.27-1.19-.56-2.42-.88-3.63a7.61,7.61,0,0,0-.52-1.24c-.1-.22-.21-.43-.31-.65s-.11-.26-.16-.4-.07-.21-.11-.28a1.33,1.33,0,0,1-.85-.84l-.48-1.18L514,65.2l-1.17.39L512,63.34l-.14.16L511,61.94l-.14.32-.7-1.33-.36,0a2.63,2.63,0,0,0-.4,0l-.11,0-10.3-.11-3.73.37L496.4,60h-1l-.1.8-1.58.09c-.64,0-1.28.08-1.92.09a2.42,2.42,0,0,1-1.27-.27,3.32,3.32,0,0,1-1.73.28,2.42,2.42,0,0,1-1-.27,4,4,0,0,1-3,.45,1.33,1.33,0,0,1-.52-.39,2.44,2.44,0,0,1-1.54.5l-1.37.07-2,.1c.15,1,.27,1.58.27,1.59l0,.11v.11a35,35,0,0,0,.34,4.51c.09.73.17,1.47.24,2.19,0,.28,0,.56.07.89l.19,2.77-1.38-1.07a5.52,5.52,0,0,1,.19,1.11,6,6,0,0,0,.07.62c0,.25.07.5.09.74a1.16,1.16,0,0,1-.32.86l0,0,1.21,2.37-1.89-.36a1.22,1.22,0,0,1-.27.25,1.19,1.19,0,0,1-.47.18l-.18,1.55-.17-.17-.27,3.36.12,1.27.18.68-.93.12c0,.18,0,.36,0,.56Zm-4.92-10L473.16,81a3.82,3.82,0,0,1,.68,1c0,.1.1.21.14.32a2.3,2.3,0,0,0,.14.3l.08.11a2,2,0,0,1,.28-.55l.07-.1-1.08-4.19,1.64.89.31-.1v-.17l-.65-2.17,1.15-.17.07-.64.64.34,0-.36.08,0-1-2,1.66.47c0-.09,0-.19,0-.28a4.67,4.67,0,0,0-.16-.83,4.08,4.08,0,0,1-.14-2,3.09,3.09,0,0,1,.1-.34l-1-1,2-.95L478,68a37.27,37.27,0,0,1-.35-4.67c-.06-.31-.24-1.27-.43-2.69l-.14-1.07,1.08-.06,3.06-.16.94,0,.82-1.19.75.12a1.76,1.76,0,0,1,.86.25,6.69,6.69,0,0,1,.75.61l.22.19,0,0h.12l-.49-.35,1.93-.72a2.23,2.23,0,0,1,.66-.19v0l1.07,0,.9,0h.26a2.18,2.18,0,0,1,2,.12h0a1.77,1.77,0,0,1,.77-.21l1.77,0,1.93,0a4.88,4.88,0,0,0,.58,0c.24,0,.49-.06.73-.06a2.48,2.48,0,0,1,1,.11,2.39,2.39,0,0,1,.54-.1,3.43,3.43,0,0,1,1,0,1.32,1.32,0,0,1,.75.46l.63.55,7.34.08a5.17,5.17,0,0,1,.59-.06,1.87,1.87,0,0,0,.49-.06l.7-1.58,1,2,.65.24.14-.17.09.25.42.16a1.67,1.67,0,0,1,1,.83c.46,1,.91,2,1.33,3,.28.65.54,1.31.8,2l.38.95A2.3,2.3,0,0,1,517.78,68c0,.09.06.18.1.27s.18.39.28.59l.19.4.13-.14,1.27-1.18.46,2c0,.17.07.33.11.48l.1.36c.08.29.15.56.24.8a2.2,2.2,0,0,1,.53.36,2.71,2.71,0,0,1,.68,1.06c.12.36.21.73.31,1.1s.14.52.21.78c.15.5.31,1,.47,1.51l.37,1.19v.09l.12.31a3.37,3.37,0,0,0,.36.74l.06.06c-.18-1.79-.41-3.88-.77-6a69.8,69.8,0,0,0-3.25-11.43,6.84,6.84,0,0,0-.57-1.09,11.35,11.35,0,0,1-.58-1.08l0-.1-.51-1.3,1.39-.09a1.82,1.82,0,0,0,.35,0,8.26,8.26,0,0,1,1.55-.23l.48,0,1.72-.17.9-.09a1.63,1.63,0,0,1,1.51-.05l.14.06.18-.14,1.23-1,0,.13.25-.23a4.72,4.72,0,0,1,2.67-1.23l.12,0c.2,0,.4,0,.6-.09a1.38,1.38,0,0,0,1.13-.74,5.2,5.2,0,0,0,.82-3,4.92,4.92,0,0,0-.51-1.22c-.1-.2-.21-.4-.3-.6h0a6.42,6.42,0,0,0-1.64-1.86c-.38-.33-.76-.68-1.12-1.07a14.26,14.26,0,0,0-1.29-1.18l-.59-.5-.1-.08a3.8,3.8,0,0,1-.43-.18,1.64,1.64,0,0,1-.29.29,6.59,6.59,0,0,1-1.15.77,5.3,5.3,0,0,1-.77.29l-.27.08-.17.24-.69.91-.74-.73a2.15,2.15,0,0,1-1.08.2,7.16,7.16,0,0,1-2.44.85l-.28.06a2.53,2.53,0,0,1-.75,0h-.21a1.12,1.12,0,0,1-1.14.08l-.5.06-.12,0a1.16,1.16,0,0,0-.3.08l-.38.13a8.47,8.47,0,0,1-.92.26,1,1,0,0,1-.77-.15l-.76.3-.44-.73c-.72-1.21-1.49-2.43-2.29-3.62A61.57,61.57,0,0,0,503,34c-.61-.61-1.21-1.24-1.81-1.88a44.73,44.73,0,0,0-3.28-3.24A71.93,71.93,0,0,0,486,20.29,13.28,13.28,0,0,0,481,18.42a49.51,49.51,0,0,0-6.4.12c-1.72.13-3.12,1.07-4.68,3.16a22.34,22.34,0,0,0-3.3,6.25c-.73,2.13-1.26,3.92-1.68,5.62a34.5,34.5,0,0,0-.9,7.8v.8c0,2-.07,4.1.08,6.2,0,.54.09,1.09.15,1.63l.18,2-1.49-.1L462,51.8a2.15,2.15,0,0,1-.51-.11,1.17,1.17,0,0,0-.33,0,3.72,3.72,0,0,1-.61,0l-.2.13a3.65,3.65,0,0,1-.49.26l0,0,.06.15.09.21a1.05,1.05,0,0,1-.08,1.22,1.69,1.69,0,0,1,.16,1,2.19,2.19,0,0,0,0,.8c0,.25.12.49.19.74a9.54,9.54,0,0,1,.26,1,3.6,3.6,0,0,1,0,1.6l.88,1.72.21.15c.19.14.38.28.55.43a2,2,0,0,0,.54-.1,7.75,7.75,0,0,1,1.92-.29l.88-.05.17.86c.15.8.32,1.6.48,2.4l.14.69c.32,1.59.71,3.25,1.15,4.94s1,3.59,1.55,5.48c.3,1,.66,2,1.07,3l0-.08,1.24,1.54Zm44.6-10.63h0ZM458.13,54.35h0Zm.39-2.07h0Zm65.94-6.69h0Zm-45.84,6.16a1.34,1.34,0,0,1-1.12-.49l-.83.21.06-1.35c.33-7.27,2.18-12.71,5.51-16.19a4,4,0,0,1,.2-1l0-.1a1.77,1.77,0,0,1,.5-.77,9.15,9.15,0,0,1,7.67-3.66,2.87,2.87,0,0,1,2.52,1.39,1.59,1.59,0,0,1,.83.79l1.95,2.87L497,35.06l.87,1.27c.49.71,1,1.42,1.46,2.14l.66,1c.79,1.18,1.6,2.41,2.3,3.69s1.5,2.82,2.22,4.25l.66,1.3-.86.09-.25.68.14.34-1.72,0-.06.15a1.78,1.78,0,0,1-1.24.79,2.56,2.56,0,0,1-.57,0l-.39.45-.69-.35s-.15,0-.25,0a2.71,2.71,0,0,1-1.42-.21l-1.86.86-.65-.44a2.21,2.21,0,0,1-.73.21c-.42,0-.83.05-1.25.07l-1,.05-.83.08c-.48.05-1,.1-1.44.11a3.1,3.1,0,0,1-1.48-.47l.09-.26h-.06a2.88,2.88,0,0,1-1.25,0,2.58,2.58,0,0,1-.64.17l-1.94.18-1.66.16-.16,0a2.83,2.83,0,0,1-1.11,0,2.06,2.06,0,0,1-1.83.27l-.13-.05-.56.07-.21,0A2.78,2.78,0,0,1,478.62,51.75Zm.17-2.66,2,.08.2.42.21-.18,1-.91.49.95.15,0,.19,0,1.68-.16,1.9-.18.17-.06A1.46,1.46,0,0,1,488,49l.39,0a4,4,0,0,1,.8,0,5.68,5.68,0,0,0,1.1-.06l1.2-.16c.51-.07,1-.14,1.52-.2a2.14,2.14,0,0,1,.85.1h0l.5-.12c.38-.1.76-.19,1.14-.26a7.25,7.25,0,0,1,1.82-.21,5.61,5.61,0,0,1,1.16.16l.27.06.05,0a3.58,3.58,0,0,1,.69-.37l.49-.18.49.33.09.07.09,0a2.69,2.69,0,0,1,.52-.18l-.28-.68,1.11-.11c-.5-1-1-1.94-1.53-2.9-.65-1.2-1.44-2.39-2.2-3.54l-.67-1c-.46-.71-.95-1.4-1.43-2.09l-.88-1.28-1.07-1.58-1.43-2.11-.41.69-.76-1.88c-.35-.85-.7-.86-1.11-.88a7,7,0,0,0-6,2.85,2.69,2.69,0,0,1-.21.23l0,0h0a1.6,1.6,0,0,0-.11.59l.09.52L484,35C481,38,479.24,42.68,478.79,49.08Zm5.6-15.64h0Z"/></g></g></svg>