<svg xmlns="http://www.w3.org/2000/svg" viewBox="0 0 537.12 108.96"><defs><style>.cls-1{fill:#fff;}.cls-2{fill:#231f20;}</style></defs><title>paint3</title><g id="Layer_2" data-name="Layer 2"><g id="Layer_2-2" data-name="Layer 2"><path class="cls-1" d="M195.62,56.64c-.43.1-.86.23-1.29.36,0,0-.11,0-.11.08-.09.81-.64.58-.94.93a2.92,2.92,0,0,1-1.51.8c-.84.23-1.69.34-2.54.5-1.1.2-2.21.35-3.3.59-.8.17-1.59.44-2.38.67a26.17,26.17,0,0,0-2.77.86,13.65,13.65,0,0,0-2.24,1.3,7.7,7.7,0,0,0-.82.9,1.34,1.34,0,0,1-.45.21,4,4,0,0,0,0-.57,1.32,1.32,0,0,0-.57-.18.76.76,0,0,0-.44.2c-.26.21-.57.26-.57,1,0,.93-.17,1.13-.77.93a2.65,2.65,0,0,0-2,.3,3.56,3.56,0,0,1-.87.15,2.69,2.69,0,0,0-.58.13,9.34,9.34,0,0,1-1.34.59c-2.67.62-5.35,1.27-8,1.78-2.15.41-4.31.68-6.48.91a18.44,18.44,0,0,1-2.64-.16,2.72,2.72,0,0,0-2.42.92,4.46,4.46,0,0,0-.35.62.66.66,0,0,0-.34.11c2.18-1.84,7.33-4.49,5-2.86a18.08,18.08,0,0,0-3.35,2.49A24.4,24.4,0,0,0,149,72.8a1.34,1.34,0,0,0-.37,1.41,1.25,1.25,0,0,0,1.22.78,18.37,18.37,0,0,0,5.88-.63c2.18-.46,4.37-.93,6.55-1.38,3.64-.74,7.27-1.62,10.93-2.16,4-.59,8.07-.87,12.11-1.24,1.65-.15,3.3-.2,5-.24a20.41,20.41,0,0,1,3.61.22,3.4,3.4,0,0,0-.64.07,3,3,0,0,0-.6.29c-.39.21-.77.45-1.16.65a8.51,8.51,0,0,1-1.84.85c-.75.17-1.1,1.23-2,1-.71.82-1.78.79-2.56,1.34-1.55,1.1-3.36,1.07-5,1.79l-.41.19,0,.26,2.78-.25.05.17-3,1,.18.27c-1.6.47-3.18.9-4.75,1.42-1.31.43-2.58,1.06-3.9,1.44a56,56,0,0,1-10.13,2c-1.42-.57-2.85,0-4.28.07-3.4.19-6.8.45-10.2.68-1.47.1-2.93.23-4.4.23-1.18,0-2.36-.16-3.54-.26a2.08,2.08,0,0,1-.41-.1c-1-.3-1.08-.66-.47-1.62a43.69,43.69,0,0,1,12.32-12.83,19.34,19.34,0,0,1-3.72-.37c-.47,0-.86.22-1.38.2a3.29,3.29,0,0,1,.1-.7c1.25-2.86,2.92-4.88,5.07-5.9a22,22,0,0,1,2.3-1.11,4.46,4.46,0,0,0,1.91-.93,1.55,1.55,0,0,1,.81-.3c.1,0,.22.11.43.22l1.2-.75.06.18-.26.25,0,.1.47-.1,0,.13-.79.39v.13a.9.9,0,0,0,.31,0c1.19-.5,2.37-1.08,3.58-1.51.88-.31,11.92-3.16,12.74-3.62,1.16-.64,18.18-7.31,19.86-8a2.38,2.38,0,0,0,.32-.26,3.76,3.76,0,0,0-.6,0c-1.3.16-2.61.28-3.91.52s-2.59.68-3.9.91c-2.92.51-5.86.9-8.78,1.43-2.31.42-4.6,1-6.9,1.5-3.28.71-6.54,1.47-9.83,2.1a44.73,44.73,0,0,1-5.71.74c-3,.18-6,.23-9.05.29-1,0-1.65-.54-1.56-1.43a3.87,3.87,0,0,1,.63-1.58,19.52,19.52,0,0,1,1.83-2.55c1.6-1.8,3.1-3.77,5.47-4.38,3.55-.91,7.07-2,10.63-2.85,2.68-.66,5.4-1.17,8.11-1.67,4-.75,8.08-1.56,12.15-2.09s8.43-.87,12.66-1.13c3-.19,6-.21,9.07-.16a24.41,24.41,0,0,1,4.35.65,3.09,3.09,0,0,1,1.31.77,1.16,1.16,0,0,1,0,1.73,14.47,14.47,0,0,1-2,1.62,32.05,32.05,0,0,1-3,1.71c-.92.47-1.87.83-2.81,1.24-1.09.48-2.17,1-3.27,1.43-1.51.61-3,1.16-4.57,1.75-.27.1-.53.23-.83.36.07.18-16.71,7.08-17.64,7.55.71-.06,2.43-.32,3.76-.39l3.43-.17c.82,0,1.63-.13,2.45-.15a.86.86,0,0,1,.53.3c.26.26,1.11.1,1.37,0a2.41,2.41,0,0,1,1.13,0c.24,0,.49.12.73.13a6,6,0,0,0,.68-.09c.78-.06,1.55.52,2.35.28.25-.07.73-.35,1,.33a.21.21,0,0,0,.25.07c.79-.34,1.62.2,2.42.07.16,0,.36.17.54.28.42.27.44.9.84.51"/><path class="cls-1" d="M142.2,86.1c-1,0-1.91-.09-2.8-.18l-1-.09c-.45,0-.8-.15-.77.41-.95-.84-1.54-1.14-.57,4.09-1.91-6-2.25-6.51-3.46-1.14.67-6.81.75-7.62-.27-13.84,1.42,4.91,1.74,4.4,3.45-5.1-.81,8.1-.05,7,.94,5.68.55-.7,1.32-1.64,2.08-2.5s1.52-1.67,2.26-2.39h-.5L142,67.6a4.11,4.11,0,0,1,.32-1.38,51.05,51.05,0,0,1,2.7-5c1.22-.8,2.46-1.74,3.55-7.83.52,5.32.74,5.2.52.19,1,4.59,1.65,4.25,2.11,4,.29,0,.63-.07.21,4.1.59-4.22.83-4.3.3,7.39,1.05-12.18,1.57-12.42,2.9,2q-1.36-21.79,0,.08c-2.23-14.52-3.56-14.46-5.36-19.45-.86,5.07-2.18,5.09-3.66,3.64.18,1.48-1,1.5-1,1.5a4.46,4.46,0,0,1-3.53-1.4A4.2,4.2,0,0,1,140,52,6.69,6.69,0,0,1,141,49.14a22.35,22.35,0,0,1,2.13-2.94l.5-.57a23.17,23.17,0,0,1,2.68-2.73,16,16,0,0,0,3.78-3.72c.81,1.53,1.6,1.32,1.76-6.39,1.42,7.27,2.21,7.06,3.47,3.5.49,3.07,1.47,2.8,2.46,2.54s2-.52,2.28-8.81c2.05,7.7,3.42,7.4,4.34-.71,1.84,7.56,3.23,7.3,4.64,7l2.39-.45,4.92-.93,2.49-.39c.83-.13,1.67-.25,1.58-7.45,2.4,6.9,3.87,6.74,5.33,6.6s2.89-.26,4.3-.37,2.8-.2,4-2.71a4.34,4.34,0,0,0,4.52,2.26,8.14,8.14,0,0,0,2.29-.25c.92.23,1.77.24,2.9-12.18.55,12.46,1.3,12.54,2,12.11,0,1,.3.88.6,1.33.6.9,1.08,3.95,1.54,12.9,0-13.29.48-13.19,1.59-5,.1-8,1-7.27,1.58-6.76a4.16,4.16,0,0,1,.11,6.15c-.84.8-1.64,1.44-2,8.38-.91-6.1-1.42-5.79-2.31,1.67a24.52,24.52,0,0,0-.54-5.76c-.25-.71-.55-.5-.55.76-1-.85-1.72-.56-2.45,11.88-.24-12-.52-11.91-1.59-5.05.44-6.58.1-6.43-.6-4.74-.41-1.19-1.18-.84-2-.52-.34.14-.68.27-1,0a4.91,4.91,0,0,1-1-2.54,16.64,16.64,0,0,1-.36-6.23c-.72,2.32-.87,4.94-.57,10.93-.76-2.64-1.08-1.91-1.08,6-.59-7.81-.87-8.42-1.19.48.52-6.84.4-6.78-.24-.24.51-6.48.2-6.34-.15-.24q.53-9.14,0,0c-.05-5.86-.44-5.69-.88-3.63-.45-1.66-1.32-1.28-2.34-.85.24.05.46.11.64.17h0c1-.26,1.9-.12,2.42,4.29.41-4,.62-4,.65,1.32.17-6.08.15-6.91-.24-.74.55-6.13.76-5.27.88.68-.08-6.19-.25-7.29-.76-.61,1.18-6.74,1.92-5.5,2.62-5,.58-.28,1.12-1.34,1.74-3.79-.28,5.55.1,6.12.46,5.92-.32,0-.74-.23-1-3.94-.14-1.86-.25-4.58-.3-8.57-.46,3.94-.82,6.57-1,9-.47.71-.78,1.26-.9,5.08-.57-4.31-1-5.34-1.57,1.36.66-5.72.94-4.42,1.11.17-.12-4.79-.36-6.29-1-.1.6-6.2.84-4.69,1,.11-.16-4.59-.45-5.87-1.11-.19.52-5.7.66-4.42.65.88-.1-4.45-.35-4.88-.9-.91.79-2.87.8-2.85,0,0,.55-3.92.8-3.42.88,1,0-5-.15-6.1-.7-.93.63-5.19.91-3.89,1,.56-.07-4.23-.31-5.29-1-.48.69-4.81,1.19-3.32,1.93-1.8.54-1.1,1.34-2.18,2.48-4.79-.55,7,.32,7.91.52,7.82-.89.77-1.62,1-.43.11-1.87,1.1-2,1.26-1.18,5.76-1-4.34-1-4.33,0,.06-1-4.39-1-4.39-.11.19-.58-2.13-1-3.12-1.43-3.29-.47-.36-1,.1-1.9,1,.36-.56-.68-.27-1.22-.11a20.27,20.27,0,0,1-2.23.46l-.6.1-1.18.2c-.67.11-1.35.22-2,.37-.47.1-1,.26-1.54.43l-.62.19-.82.23a3.21,3.21,0,0,0-1.64.82c-.46-.11-1,.24-1.51.58l0,0a7.13,7.13,0,0,1-.58.67,6.71,6.71,0,0,1-1.36.91c0-.07-.37.07-.18.44-.3-.19-.44,0-.19,1.31.41-1.24,1.22-1.31,2-1.39l2.42-.21,2.59-.23c1.79-.16,3.6-.22,5.16-.25.72,0,1.42,0,2.11,0s1.36.12,1.51,2.31c.52-2.09.47-.62.1,2.56.27-.23.22,1.24.08,2.13.25-.93.31-1,.1.62.22-1.59,0-1.45-.1-.58.11-.87.09-.87,0-.21,0-.58-.15-.51-.28-.44-.28.16-.57.33-.85.47l-.39.21a9.32,9.32,0,0,1-1.62.75A4.74,4.74,0,0,1,189,75.35a7.32,7.32,0,0,1-1.73.81,3.28,3.28,0,0,0-.38.14,7.78,7.78,0,0,1-.78.49l.34,1.08-2,.68.26.39-3.93,1.17-1.45.42c-1.08.31-2.15.62-3.18,3.45-.55-2.3-1.05-2.1-1.58-1.27a3.06,3.06,0,0,0-2.47.47c-1.35.19-2.63.53-3.86.81a3.38,3.38,0,0,0-1.72.76c-.51.49-.94,1.33-1.14,3.32-.93-1.8-1.63-2.45-1.88,11.22-1.15-13.34-1.85-12.34-2.82-9.11.43-3.18.41-4.1,0-.7.17-4.13,0-3.95-.3-2,.34-2.25-.34-2.53-.38-2.28-.19-.34-.82-.24-1.38-.15a15.72,15.72,0,0,1-1.56.19l-3.27.2a3.23,3.23,0,0,0-3.17,2c-.71-1.71-1.31-1.67-1.89,1.92-.63-3.51-1.24-3.46-1.92-.8.08-2.63-.84-2.56-.91-1.79a1.67,1.67,0,0,0-1.74-.66c-.61,0-1.23.06-1.86.06Zm-.06-6h.07a4.75,4.75,0,0,1,3.11.65c.14-.81,1.1-.88.79,2.7.91-3.62,1.51-3.66,2.22,3,.49-6.75,1.09-6.79,1.83-1.54,1-5.37,2.06-5.44,3.18-5.16a10.31,10.31,0,0,1,3.29-.56c.32,0,.65-.08,1-.13.5-.08,1.09-.17,1.65,1.43.71-1.65,1.41-1.61.86,4.82,1.44-5.28,2.37-5.89,4.74,6.69-.71-13.32,0-13.44.84-12.56a3,3,0,0,1,2.21-1.58c.79-.21,1.62-.43,2.48-.67.59-.17,1.22-.42,1.79,1,.73-1.93,1.35-2.18,1.92.8.37-3.29.67-3.38.75,2,.22-5.44.14-5.56-.09-.26.23-5.29,1.89-5.86,2.22-1.05-.33-4.81-.43-5.68-.07,0-.36-5.64,1.16-6.32,1.22-6-.79-.21-1.52-.13-2.14,8-.84-7.95-1.57-7.85-2.28-4.53-1.26-3-2.51-2.81-3.77-2.56l-1.9.39a2.2,2.2,0,0,0-1.85,1.6c-1.14-1-2.19-.73-1.45,16.67-2.57-17-3.34-16.87-4.72-8.77-.14-7.78-.91-7.61-1.67-7.45l-2.25.47a4.85,4.85,0,0,0-3,1.6c-1.16-.9-2.31-.85-3.42,5.51-1.12-6.62-1.88-7-2.64-1.14-.38-6.69-.75-7.23-1.43-5.56-.18-1.54-.83-.85-1.48-.11S142.79,79.23,142.14,80.1Zm8.48,1.63q-.2-12.43,0,0Q150.41,69.29,150.62,81.73Zm5.16-16.9c.19-.59.5-.54.78-.43,0,0,1.67.66,1.26,2,.41-1.36.49-.69.05,1,1-1.77,1.59-1.85,1.3,11.23,1.2-14.41,1.56-15.66,5.32,16.35-2.7-32.21-2-31.16,1.08-18.62-1.72-12-1.09-12.54,0-4.79.49-7.32,1.61-7.58,2.71-7.84l1.11-.26.24-.12c.24-.12.48-.24.72-.34a2.57,2.57,0,0,1,.9-.24c.45-.1.61-.12.43,0,.65-.24,1-.4,1.35-.2.44-.83.86-1.28.75-.86A8,8,0,0,1,178,59.51a10.48,10.48,0,0,1,1.64-.86c.83-.35,1.65-.57,2.32,3.62.28-4.46.52-4.52.88-.57-.12-4,.44-4.19.6-1.7.18-2.59.52-2.7.87-2.8-.11,0-.22-.09-.27.34-.24-.47-.43-.46-.46,1.79-.48-2.21-.8-2.19-1.05,2.7-.63-4.85-1.18-4.82-1.86-3.31-.46-1.46-1-1.43-1.64-1.4-.8,0-1.79.17-1.49-3.83-1.54,4.15-1.92,4.2-2.66-2.94.49,7.16.27,6.38-.34-.58.28,7.11,0,7.21-.65,3.27.26,4.18-.21,4.36-1.83,3.28a4.88,4.88,0,0,1-2.47,2.06c-.57.26-1.23.49-1.65,2.69-1.08-1.79-1.91-1.6-2.41,7.82-.84-9.06-1.27-8.91,0-1.21-2.07-9.44-2.5-11.34-.41-7-2.79-4.11-3.06-2,.49,20.1-4.06-20.47-4.29-20.92-.12,3.56-4.59-24.33-4.88-23.69-5.89-4.73.34-18.16,0-18-1.61-14.07.79-3.58.38-3.4-.23-2.87a7.34,7.34,0,0,0-1.24-.1s-.5,0-.42.25c-.08-.23-.26-.12-.12.35-.13-.47-.31-.56-.09.41-.22-1-1.1-.93-.5,4.48-1-5.26-1.32-5.15-1.37,6-.23-11.09-.48-11-.4.65-.35-11.57-.72-11.37-1.28.3-.14-11.3-.45-11.13-.62-2.78-.66-8-1.14-7.62-1.64-.45,0-6.71,2.18-6.91,2.1,3.09.08-10,.17-9.75.09.27.66-10.33,1.26-10.6,2.21-2C154.58,64.36,155.14,64.24,155.78,64.83Zm20.73,3.86q-1-9.52,0,0Q175.48,59.18,176.51,68.7Zm17.29-7.84c1.37-1,1.37-1,0,0Q195.85,59.38,193.8,60.86Zm1.59-3.9c.35.23.57,1.23.7,1.85.11.43.12.49.12.5l1.94-1.9c-.91.84-1.39,1.26-1.75,1S195.77,57.19,195.38,57ZM183.3,60q-.31-5.32,0,0Q183,54.67,183.3,60Zm8.28-7.65h0Zm2.24,4.23c.52-6,.69-5.19.75.82-.06-6-.24-6.82-.75-.83.52-6,.7-5.18.75.83C194.51,51.38,194.33,50.55,193.82,56.57Zm6.85-17.69a6,6,0,0,1-3.11-.54c-1,.61-2,.66-2.07,14.57C194,39,193.29,39.12,192,41.66c0-2.43-.69-2.38-1.37-2.33-1.37.1-2.77.22-4.17.36s-2.83.29-4.25.48c-.79.1-1.59.22-2.58.37l-2.22.36a13.45,13.45,0,0,1-4.8.3c0,.58-2.39,1-2.39,1-1.36.25-2.7.5-3.13-11.4-2.22,12.43-3.52,12.72-4.72-10-1,23.28-2,23.53-3.38,17.59-.54,6.46-1.5,6.73-2.44,7s-1.62.45-1.18-7.45c-2.06,8.33-2.88,8.55-4.43,3.75.13,5.16-.43,5.54-1.09,1.77-.46,4.78-1,5.41-1.78,4,.17,2.13-.36,2.73-.45.47-.05,2.42-.19,2.59-.38.45,1.07,2.3,2.1,2.28,3-3.49,1.16,5.69,2.19,5.65,3.19,2.32.85,3.21,1.71,3.13,2.74,2.87.75,0,1.66-.12,1.95-3.79,1.82,3.26,3,3,6.57-12-1.21,14.48,0,14.22,1.27,11.64.76,2.12,1.66,1.92,2.6,1.72l2.22-.5c.77-.18,1.55-.35,2.31-2.68.82,2,1.63,1.82,2.42-3.64.82,5.17,1.63,5,2.44,4.87s1.61-.23,1.91,1c1.14-1.44,1.81-1.54,2.78,11,.36-12.72,1-12.83,2-12.22.22-.83.81-1,1.44-1.15s1.35-.35,2.09-.49c1.05-.2,2.08-.32,3.07-.43,0,0,1-.12.77,1.06.69-1.23,1.06-1.19.61,5.53.67-6.69,1.6-6.62,1.41,6.08.64-13,1.12-13.12,2.41-8.82-.3-5.65.21-6.89.79-9.2.23,2,.54,2.9.86,3.27s.68.22,1,.06l1.08-.48a2.67,2.67,0,0,1,.72-.25c.83-.4,1.41-.64.54.91,1.91-2.08,2.38-2.33,4.17-2.49-1.62-.12-1.88-.14-2.14-.14Zm5.91,9.62q1-13.5,0,0Q207.58,35,206.58,48.5Z"/><path class="cls-2" d="M142.2,84.1c-.89,0-1.76-.09-2.6-.17l-1-.09a2.53,2.53,0,0,1-.55-.12,2.11,2.11,0,0,1-1.54-1.16,2.24,2.24,0,0,1,.44-2,46.09,46.09,0,0,1,10.4-11.52c-.35-.06-.7-.11-1.06-.15A1.09,1.09,0,0,0,146,69a3.58,3.58,0,0,1-1,.14l-1.11,0L144,68c0-.08,0-.15,0-.22a2.23,2.23,0,0,1,.15-.74c1.39-3.16,3.26-5.31,5.56-6.4.26-.12.51-.26.76-.39a10.72,10.72,0,0,1,1.65-.76l.31-.1a2.88,2.88,0,0,0,1.22-.6,2.15,2.15,0,0,1,1.17-.53l.12,0a1.09,1.09,0,0,1,.61,0l1.79-1.12.27.83.24,0,0,.18c.65-.29,1.32-.57,2-.82.34-.12,1.69-.49,4-1.12,3-.81,8-2.15,8.56-2.44s5.49-2.3,12.29-5c-1.31.23-2.62.43-3.94.63-1.55.24-3.15.49-4.72.77s-3.07.63-4.57,1l-2.3.52-2.7.59c-2.34.52-4.76,1.05-7.16,1.51a46.29,46.29,0,0,1-5.83.76c-2.63.16-5.29.21-7.86.26l-1.23,0a2.65,2.65,0,0,1-2-.76,2.23,2.23,0,0,1-.55-1.77,4.74,4.74,0,0,1,.77-2,20.57,20.57,0,0,1,1.93-2.68l.51-.58c1.5-1.71,3-3.48,5.46-4.1,1.6-.41,3.2-.85,4.8-1.29,1.91-.53,3.88-1.07,5.84-1.55,2.67-.66,5.39-1.17,8.17-1.69l2.4-.45c3.2-.6,6.52-1.22,9.81-1.65,4.38-.57,8.7-.88,12.72-1.14,2.73-.17,5.63-.22,9.15-.16a22.17,22.17,0,0,1,4,.57l.49.1a4.05,4.05,0,0,1,1.77,1,2.16,2.16,0,0,1,.05,3.2,15.35,15.35,0,0,1-2.16,1.74,32.84,32.84,0,0,1-3.08,1.76c-.66.34-1.34.62-2,.89l-.87.37-1,.46c-.75.34-1.5.67-2.26,1-1,.41-2,.79-3,1.17l-1.54.58-.5.22-.28.13h0c-.63.36-1.8.86-3.85,1.73-2.25,1-5.15,2.18-7.72,3.25l-.36.15,1-.05.9-.06c.53,0,1.05-.08,1.58-.09a1.67,1.67,0,0,1,1.1.44,1.89,1.89,0,0,0,.46-.08,2.42,2.42,0,0,1,1.36-.05l.24,0a3.56,3.56,0,0,1,.44.08,1.15,1.15,0,0,0,.21,0l.18,0,.38-.06a4.05,4.05,0,0,1,1.38.2,1.74,1.74,0,0,0,.77.12A1.63,1.63,0,0,1,193,54a4.05,4.05,0,0,1,1.32.1,2.19,2.19,0,0,0,.69.08,1.5,1.5,0,0,1,1.16.37l.08.06a2.18,2.18,0,0,1,.64.67.94.94,0,0,0-.49-.19.74.74,0,0,0-.54.16l1.39,1.44a1.27,1.27,0,0,1-1,.4,1.13,1.13,0,0,1-.54-.21l.16.74c-.27.06-.53.13-.79.21a1.69,1.69,0,0,1-1,.89h0a4,4,0,0,1-1.93,1,18.85,18.85,0,0,1-2,.41l-.62.11-1.16.2c-.71.12-1.41.23-2.11.38s-1.12.29-1.71.47l-.6.18-.79.22a15.3,15.3,0,0,0-1.88.6,12.8,12.8,0,0,0-2.07,1.21,2.65,2.65,0,0,0-.27.31,4.84,4.84,0,0,1-.41.48,1.67,1.67,0,0,1-.69.39l-1.14.51A1.44,1.44,0,0,1,176,66a1.58,1.58,0,0,1-1.45.14c-.34-.11-.66,0-1.26.26a2.6,2.6,0,0,1-.89.2l-.21,0-.12,0-.25.05c-.14.06-.28.13-.42.2a4.69,4.69,0,0,1-1.08.44l-1.19.28c-2.25.53-4.58,1.07-6.89,1.51-1.89.36-3.91.64-6.56.92a8.28,8.28,0,0,1-1.89-.07l-.46-.05-1.18,1a23.64,23.64,0,0,0-2.38,2.5c-.24.28-.21.35-.19.4s.13.12.4.15a16.51,16.51,0,0,0,5.26-.55l2.24-.47,4.62-1,3.13-.66c2.56-.55,5.21-1.12,7.85-1.51,3.19-.47,6.43-.75,9.57-1l2.6-.23c1.73-.16,3.43-.21,5-.25a21.36,21.36,0,0,1,3.79.23l-.07,2h-.24l-.22,0a1.83,1.83,0,0,0-.27.14l-.12.07-.44.25c-.25.14-.5.29-.76.42l-.45.24a6.26,6.26,0,0,1-1.62.69,2,2,0,0,0-.34.28,2.5,2.5,0,0,1-1.45.8,4.77,4.77,0,0,1-1.55.79,3.41,3.41,0,0,0-.82.36,7.25,7.25,0,0,1-2.16,1l.3,1-2.67.89.21.31-1.31.39-1.43.42c-1.1.32-2.2.64-3.28,1-.55.18-1.1.4-1.65.62a23.31,23.31,0,0,1-2.29.83,56.52,56.52,0,0,1-10.31,2.07l-.24,0-.22-.09a4.63,4.63,0,0,0-2.48,0c-.44.07-.9.14-1.37.17-2.19.13-4.38.28-6.57.43l-3.62.25-.94.06c-1.15.08-2.34.17-3.53.17Zm-3.64-2.32.21.06,1,.1c.83.08,1.62.16,2.41.16h0c1.12,0,2.27-.08,3.39-.16l.95-.07,3.61-.25c2.2-.15,4.39-.31,6.59-.43.39,0,.78-.09,1.17-.15a6.74,6.74,0,0,1,3.29.06,55.08,55.08,0,0,0,9.73-2,21.19,21.19,0,0,0,2.09-.76c.58-.24,1.17-.47,1.77-.67,1.11-.37,2.25-.7,3.36-1l.1,0-.14-.2.72-.26-.13-1,1.09-.49A12.87,12.87,0,0,1,182,74a7.52,7.52,0,0,0,2.64-1,5.07,5.07,0,0,1,1.31-.61A2.33,2.33,0,0,0,187,71.8l.39-.45.58.13a1.59,1.59,0,0,1,.25-.26,2.73,2.73,0,0,1,1.27-.78l.28-.09c-1.39,0-2.84.09-4.29.22l-2.61.23c-3.11.27-6.32.55-9.45,1-2.58.38-5.19.94-7.72,1.48l-3.15.67-4.6,1-2.25.48a18.14,18.14,0,0,1-5.91.58,2.23,2.23,0,0,1-2-1.42,2.28,2.28,0,0,1,.54-2.43c.46-.54,1-1.12,1.5-1.68L149.4,70a44.28,44.28,0,0,0-10.77,11.64Zm12.23-14.56.26.73a1.09,1.09,0,0,1,.06.25,3.6,3.6,0,0,1,.73-.22c1.55-1,3.34-2,4-1.72l.56.22.08.6a1.05,1.05,0,0,1-.35.92c2.31-.25,4.11-.51,5.8-.83,2.27-.43,4.58-1,6.81-1.49l1.19-.28a3.21,3.21,0,0,0,.62-.27c.19-.1.38-.19.57-.27a3,3,0,0,1,.7-.18,4.62,4.62,0,0,1,.48-.06l.25,0a4,4,0,0,1,2.16-.46,2.29,2.29,0,0,1,2-2.05,2,2,0,0,1,.84.2,2.39,2.39,0,0,1,.44-.39,14.68,14.68,0,0,1,2.41-1.39,17.25,17.25,0,0,1,2.13-.69l.75-.21.58-.18c.6-.19,1.23-.38,1.87-.52s1.47-.28,2.2-.4l1.13-.19.65-.11a17,17,0,0,0,1.8-.36,2.08,2.08,0,0,0,1-.49,1.73,1.73,0,0,1,.72-.48,1.1,1.1,0,0,1,.7-.79h0a1.56,1.56,0,0,0-.77-.05,1.22,1.22,0,0,1-1.42-.35,3.24,3.24,0,0,1-1.86-.12,2.21,2.21,0,0,0-.67-.13l-.17,0a2.67,2.67,0,0,1-.62.06,3.06,3.06,0,0,1-.6-.1l-.2,0-.36-.06-.33,0s-1.59.58-2.4-.23h0c-.43,0-.85,0-1.28.08l-.93.06-1.65.08-1.78.09c-.86,0-1.89.18-2.72.28l-1,.12-.25-.87c-.75.31-1.25.53-1.4.61-.54.3-3.21,1-9,2.61-1.78.48-3.62,1-3.9,1.08-.77.27-1.53.61-2.33,1l-1.19.52a1.48,1.48,0,0,1-.65.1l-1,0,0-.34-.3-.16-.09,0h0a4.49,4.49,0,0,1-2,1l-.28.09a9,9,0,0,0-1.34.63c-.28.15-.57.3-.85.44a9.41,9.41,0,0,0-4.16,4.49h0c.43,0,.85.11,1.28.18a9,9,0,0,0,2.25.19Zm4.62-7.05h0Zm37-6h0Zm8.32-17.3c-2.26,0-4.27.06-6.19.18-4,.25-8.27.57-12.59,1.13-3.23.42-6.52,1-9.7,1.63l-2.4.45c-2.75.51-5.43,1-8.05,1.66-1.93.48-3.89,1-5.79,1.54-1.61.45-3.22.89-4.84,1.3-1.82.47-3.1,1.93-4.45,3.48l-.52.59a18.84,18.84,0,0,0-1.74,2.42,2.92,2.92,0,0,0-.48,1.15s0,.16,0,.21a.9.9,0,0,0,.51.12l1.24,0c2.55-.05,5.2-.1,7.78-.26a44.28,44.28,0,0,0,5.58-.73c2.37-.46,4.78-1,7.1-1.5l2.7-.59,2.27-.51c1.52-.35,3.09-.71,4.66-1s3.21-.54,4.77-.78c1.34-.21,2.68-.41,4-.65.64-.11,1.27-.28,1.94-.45s1.28-.33,1.95-.46c1-.18,2-.3,2.94-.41l1-.12a2.37,2.37,0,0,1,.58,0l1.44.11.23-.09c1-.38,2-.76,3-1.16.73-.29,1.46-.62,2.18-.95l1.06-.47.9-.38c.65-.27,1.26-.53,1.86-.83a30.91,30.91,0,0,0,2.9-1.66,13.43,13.43,0,0,0,1.87-1.51.17.17,0,0,0,.06-.12.17.17,0,0,0-.06-.12,2.1,2.1,0,0,0-.84-.54l-.5-.1a20.35,20.35,0,0,0-3.67-.53Z"/><path class="cls-1" d="M298.07,64.06c-.94,1.79-1.78,3.59-2.8,5.36-2.43,4.23-4.84,8.47-9.39,12.26A16.67,16.67,0,0,1,284,83.06a3,3,0,0,1-2.26.52c-.9-.12-1.91-.74-1.91-1.3a7.76,7.76,0,0,1,.33-2.88c.59-1.53,1.61-3,2.22-4.52.87-2.15,1.55-4.32,2.3-6.49s1.64-4.6,2.32-6.92a17,17,0,0,0,.68-4.05,58.06,58.06,0,0,0,0-7.93,28.94,28.94,0,0,0-1.52-5.7,3.41,3.41,0,0,0-1.1-1.25,4.22,4.22,0,0,0-3.36-.69,26,26,0,0,0-6.16,1.33,35.89,35.89,0,0,0-9.2,5.36,49.24,49.24,0,0,0-8,7.52,54,54,0,0,0-4.62,5.86,21.34,21.34,0,0,0-3.78,9.34c-.25,2.62,1.88,5,6.39,6.9.72.31,1.59.54,2.43.83-.89.18-.68.4,0,.62.88.28,1.48.58,1.14,1.1-.09.14.36.36.47.56a4.92,4.92,0,0,1,.31.77l-.35.07,2.89,1.21-.93.05.68.59-1,0-.08.15,1.74.34,1,2.13-1,.11,0,.19,2.12.27L267,88.56c-1.15,0-2.43-.19-2.87.45a2.26,2.26,0,0,1-.65,0c-1.3,0-2.61,0-3.91-.07a14.24,14.24,0,0,1-2.79-.3c-2.41-.65-4.69-1.42-7.1-2.07a5.82,5.82,0,0,1-3.3-1.78c-.41-.58-.51-1.18-.89-1.76s-1-1.16-1.39-1.75c-.12-.16.06-.35.08-.53s.19-.44,0-.59c-1.31-1-1.39-2.16-1.86-3.25-.65-1.5-.94-3-2.22-4.5-.37-.42-.33-.9-.55-1.34s-.54-.87-.82-1.3h-.36l.31,1.78-.38,0c-.18-.19-.49-.38-.52-.56a10.29,10.29,0,0,1-.1-1.86,29.7,29.7,0,0,1,.25-4,20.91,20.91,0,0,1,1.2-4.38,28.71,28.71,0,0,1,2.46-4.68,71.25,71.25,0,0,1,4.77-6.74,80.6,80.6,0,0,1,5.78-6.07c1-1,2.29-1.88,3.47-2.82.91-.72,1.85-1.44,2.75-2.16a1.22,1.22,0,0,0,.33-.44c.09-.18-.14-.47.68-.35.08,0,.33-.11.32-.18-.08-.87,1.4-1.17,2.49-1.63a6.3,6.3,0,0,0,1.28-.79c.51-.36,1-.74,1.44-1.11l.32.1-1.09.84c1.9-.42,2.35-1.77,5.47-1.51l.12-.54,1.72-.45.44.42.7-.24c1.73-.56,3.39-1.18,5.24-1.65a15.69,15.69,0,0,1,4.44-.48c1.3,0,2.61-.21,3.88-.09a21.68,21.68,0,0,1,4.33.83,13.53,13.53,0,0,1,6.11,3.76,13.8,13.8,0,0,1,3.37,5.74c1,3.52,1.77,7.05,1.16,10.51-.65,3.66-1.69,7.28-2.55,10.92"/><path class="cls-1" d="M265.17,95.63c-1.56-3.59-1.63-3.59-.28.61-1.42-4.21-2.52-4.22-3.15-3.17C261.38,92,260.38,92,259.38,92h-.19a15.36,15.36,0,0,1-3.24-.39c-1.24-.33-2.44-.7-3.64-1.06s-2.28-.69-3.46-1-2.22-.72-2.69-8.86a18.25,18.25,0,0,1-1,4.42c-.3.5-.58,0-.85-1.66a38.77,38.77,0,0,1-.42-8.21,33.76,33.76,0,0,0-.22,8.53c-.34-.45-.42-.47-.21.65-.47-3.54-.65-5.93-.26-7.14-.46,1-.36,3.24,0,7.34-.34-1.91-.36-1.91-.06.17-.45-4.25-.58-6.4-.2-6.57-.43.1-.36,2.17,0,6.87-.35-2.57-.41-2.49-.26.75-.42-4.91-.62-6.65-.79-3,.06-2.63.06-.93,0,4.3-.15-4.74-.42-5.95-1.25-2.65.59-3.64.58-2.84.18,2,.22-4.94,0-5.87-.64-3,.11-3-.21-4-.76-2.76.25-2.09.18-2.28-.15-.89.06-2-.1-2.48-.41-2.17a5.3,5.3,0,0,0-.85-2.86l-.89.1-1-1a3.59,3.59,0,0,1-1.37-2.27,13.32,13.32,0,0,1-.13-2.4c0-.29,0-.58,0-.86a22.8,22.8,0,0,1,1.65-8.56q.53-1.3,1.21-2.6a7.66,7.66,0,0,0,1.05-3.87c1.18.17,1.94-1,3.11-14.37.47,11,1.35,9.83,2.32,8.65a10.48,10.48,0,0,0,2.47-4.41c1.32.28,2.33-.71,3.49-1.86l.15-.14a28.84,28.84,0,0,1,2.6-2.15l1-.77,1.3-1,1-.77a5.31,5.31,0,0,0,.72-1.66c.42.35.69.19.7-1.68,1.14.85,2.37.4,3.09-2.46.11,2.56.3,2.49.53.54.07,1.83.22,1.72.53.26-.06,1.29.12,1.16.18.12.25.82.54.59.83.33,0,0,1.68-1.28,1.68-1.28l1.21.37a7.87,7.87,0,0,1,1.66-.5l0-.1s1.28-.33,2-7.18c1.88,6.18,3.16,5.84,3.54,3.51-.38,2.34,0,2.66.19,1.54-.05,1.06.12,1,.3.92.61-.18,1.24-.39,1.39-3.54,1.15,2.74,1.82,2.54,3-7.45.42,9.59,1.29,9.43,2.17,9.34a18.37,18.37,0,0,1,2.68-.09c.43,0,.92,0,1.44-.05a16,16,0,0,1,2.61,0,24.62,24.62,0,0,1,4.95,1,16.43,16.43,0,0,1,7.38,4.55c1,1,1.81,2.11,2.06-2.33,1.1,6.75,1.63,8,2.37-.64,0,11.09.33,12.33,1.13,8.58-.26,6.32-.07,7.66.4,6.74-.33,3.67-.39,5.08-.09,5.37-.78,2.44-1.07,3.75-.81,9.92-.86-3.59-1.18-2.31-1.89,6.88.11-6.82-.17-5.71-.77-.32.33-4.27-1.13-4.62-2.56-5.06-1.49-.25-2.95-.6-2.89-8.06.21,6.32.5,5.18,1-.37.09,3.15.4,1.92.77-.35a8.78,8.78,0,0,0,.67-2.56c.54-3-.25-6.31-1.08-9.14a10.78,10.78,0,0,0-2.66-4.52,10.47,10.47,0,0,0-4.83-3,18.67,18.67,0,0,0-3.7-.71,11,11,0,0,0-1.65,0,19.17,19.17,0,0,1-2,.06,13.57,13.57,0,0,0-1.83.07c-.6.06-1.2.17-1.26-.79-1.11,1.26-1.68,1.43-1.61-11.8-1.23,13.6-1.8,13.79-3.21,12.36.3,1.8-.22,2-.75,2.15-.14,0-.28.09-.29-.06-.13.2-1.09.54-.28-1.34-.81,1.88-1,2.55,0,.61-.94,1.94-3.55,1.73-4.51-.54-.14,2.18-.43,2.34-1.14,2.73a8.87,8.87,0,0,1-2.48,1h0a2,2,0,0,1-1.4.48c-.29.43-.58.54-.75-1.28-.11,1.92-.12,1.92,0,0-.11,1.94-.86,2.68-.73-1.13-.4,4.08-.78,4.34-1.14.23-.21,4.43-.35,4.57-.4.75-.6,4.34-1.11,4.73-1.78,4.47a3.05,3.05,0,0,1-1.41,1.9l-.82.63a23,23,0,0,0-2.08,1.72l-.21.2c-1,1-1.93,1.9-2.84,2.83A7.25,7.25,0,0,0,248.94,53c-1.17-.61-2,.48-3-.43a14.59,14.59,0,0,1-.84,3.38c-.32.79-.67,1.32-.93,1.4-.52,1.14-.93,1.84-.73-1.46-.94,4.7-1.26,5.4-.52-5.75-1.25,12.38-1.44,12.94-1.9-2.53C241.12,64.29,241,65,239.2,62c1.55,4.27,1.51,4.83,0,5.22,1.49.2,2.22,1.34,2,1.49.46.2.73.61,1.91-4-.74,5.51-.63,5.88.24,1.71-.51,3.84-.27,4.65.51,4.75-.35.56-.16.39.33-.32a4.71,4.71,0,0,0,.22,2.66,4.93,4.93,0,0,0,.23-1.16,13.09,13.09,0,0,0,.17,2.31c.06.13.11-.39.15-1.6.21,3.1.32,3.44.37.94.32,3.56.38,3.69.68,2,.11,2.94.45,2.79.82,1.83.2,1.74.43,2.69.53,3.27.11-.27.37.06.64.89.29,0,.49.5.63.85.05.12.12.29.15.35a6.4,6.4,0,0,0,1.63.61c1.24.33,2.44.7,3.64,1.06s2.22.67,3.36,1l.72-1.27-7.93-3.32,3.7-.78a16.45,16.45,0,0,1-4.64-3.2c-1.07-1.1-1.71-2.21-1.94-.58-.23-1.85-.37-3-.42-3.51s0-.2,0,.82a27.25,27.25,0,0,1,.24-4c.14-.72.35-.88.66-.65.06-2.76.52-3.93,1.23-5a18.6,18.6,0,0,1,2.07-4,56.84,56.84,0,0,1,4.88-6.2c.94-1.08,1.87-2.08,2.57.21,1.15-4.16,2.08-5,3-14.7,1,8,1.95,7.26,2.94,6.53s1.85-1.36,2.84-2,2-1.33,3,10.17c.89-8.51,1.76-11.61,2.66-12.89.45-.64.91-.83,1-.59,1.31-.77,2.32-1.06,4.8.95-.21-2.51,1-2.7,2.44-2.86a7.12,7.12,0,0,1,5.62,1.37,5.92,5.92,0,0,1,2,2.65c.12.38.24.75.37,1.13a23.6,23.6,0,0,1,1.28,5.19,57.71,57.71,0,0,1,0,8l0,.36a20,20,0,0,1-.8,4.77c-.54,1.84-1.17,3.66-1.79,5.42l-.57,1.64L286.93,71c-.28.82-.56,1.66-.86,2.51s-.62,1.7-.65,1.92c-.68,1.52-1.11,2.33-.61,1.3-1.22,2.34-1.5,2.86-1.72,3.34.29-.21.58-.43,1.8-1.38.43-.42,1.59-1.61,2.61-2.84A36.36,36.36,0,0,0,290.25,72c.83-1.3,1.6-2.64,2.16-3.59s.83-1.51.57-1.66c.83-.93,1.1-1.47.64-4,1.09,1.28,1.44.6,1.74-7.31.06,7.22,1.39,7.92,2.85,8.19,1.19,1.13,2.51,1.83,2.39,3.11-.23-.63-.56,0-.89.68l-.88,1.73a5.75,5.75,0,0,0-.73,1.9c-1.08,1.35-1.94,2.83-3.22,10.8-.6-5-1.64-3.54-2.85-2.09A33.39,33.39,0,0,1,287.79,84c-.71.59-1.47,1.14-2.19,1.81-.41,0-.91.33-.94,5.27-1.37-4.5-2.27-4.37-3.75-3.23-.73-1.44-1.86-1.91-2.71-2.65a3.82,3.82,0,0,1-1.44-2.91v-.2a9.85,9.85,0,0,1,.53-3.77,23.43,23.43,0,0,1,1.3-2.67,20.08,20.08,0,0,0,.94-1.89c.31-.77.6-1.54.87-2.32a10.37,10.37,0,0,0,.63-3.53c.37.59.55.05.46-3.19.28,2.7.86,1,.64-3.19.52,3.34.82,2.48,1.15-2.24.25,3,.52,2.18.82.09.27.12.45-1,.5-2.09v-.36a52.25,52.25,0,0,0,0-7.16,19,19,0,0,0-1-3.87l-.26-.8-.29-.25h0a2.77,2.77,0,0,0-1.1,0,5.12,5.12,0,0,0-2.9.94c-1-.27-1.84,0-2.62,12.76-.79-12.21-1.61-11.85-2.34-10.82-.65.71-1.21,2.1-1.6,4.49-1.94-3.1-3.18-2.19-4.45-1.25a41.74,41.74,0,0,1-3.63,2.61,38.7,38.7,0,0,0-4.7,6.65c0-1.26-.79-.33-1.56,1.59-.71-.08-1.4.83-2,1.75-2,3.15-3.09,5.69-3.31,8-.11,1.13,1.61,2.57,4.59,3.86.35.15.83.3,1.34.46l.86.28a3,3,0,0,1,.77.46c.54.9,1.24,2.06,1.92-3.85.91,6.44,1.79,5.81,3.06,2.14a5.93,5.93,0,0,0,.91,2.89c.45.74.87.88,1-.8,1.89,2.35,3.08,2.75,3.95-4.94-.87,7.68-2.4,8-4.21,7.26-.48,1.18-1.24,1.33-1.74.53s-.73-2.57-.43-6.24c-.6,7.35-.63,7.52,0,0-.61,7.52,0,8,.58,3.4a10.06,10.06,0,0,0-.07,3.94c.18.45.48.15.63-.56-.32,1.39.1,2.33.21,1.79a1.62,1.62,0,0,0,.47.95c.69.68,1.32,1.23,1-.05,2.17,2.91,3.42,4,4.58,3.16-1.15.84-2.55.82-.91,1.59-1.64-.77-.57.34,1.09,1.49A9.45,9.45,0,0,0,274,91.47s-1.74,0-2.08,6.91c-3.15-6.85-4.89-6.83-5.1-6-.06-.88-.34-.88-.51-.5-.24-.39-.41-.4-.17.18-.54-.09-1-.1-1.23.36S264.69,93.84,265.17,95.63Zm-23.32-13.7c.17-2.85.29-1.13.48,3.68-.19-4.81-.31-6.54-.47-3.71.16-2.83.28-1.1.47,3.71C242.14,80.81,242,79.08,241.85,81.93Zm40.3,4.81q1-6.71,0,0Q283.1,80,282.15,86.75Z"/><path class="cls-2" d="M264.2,94.3c-.54-4.25-.62-4.26-.23,1.24-.47-5.49-1.58-5.51-1.73,3.11C261.42,90,260.45,90,259.48,90h-.19a13.82,13.82,0,0,1-2.82-.32c-1.22-.33-2.4-.68-3.58-1s-2.32-.7-3.52-1c-2-.53-3.18-1.21-3.86-2.17a5.45,5.45,0,0,1-.58-1.12,4.19,4.19,0,0,0-.33-.67,8.85,8.85,0,0,0-.67-.85c-.24-.29-.49-.57-.61.14-.45-1.51-.28-2,0-.49-1.08-2.64-1.4-3.58-1.74,2.6,0-7.19-.1-7.43-.41-.76,0-7.32-.11-7.74-.69-2.66,0-6.55-.33-7.54-1.2-8.34a4.82,4.82,0,0,0-.3-.68l-1.08.11-.34-.35-.12-.11a1.64,1.64,0,0,1-.66-1,11.27,11.27,0,0,1-.11-2c0-.3,0-.59,0-.89A22.14,22.14,0,0,1,236.9,65a21.58,21.58,0,0,1,1.26-4.58c.33-.81.71-1.63,1.06-2.63.5-.62,1-1.42.89-7.28,1.3,4,2,2.82,3.2-2,.44,2.53,1.29,1.37,2.23.23a79,79,0,0,1,5.65-5.95l.21-.2a27.1,27.1,0,0,1,2.52-2.1l1-.79,1.29-1,1.46-1.15h0a1.17,1.17,0,0,1,.42-.75,1.29,1.29,0,0,1,.71-.27,4,4,0,0,1,2.27-1.47l.66-.25a4.54,4.54,0,0,0,.92-.56l.17-.12c.34-.24.65-.49,1-.74l.85-.66,1,.29c.75-.4,1.65-.78,3-8.45.12,7.66.19,7.34.13-.27.07,7.61,2.92,6.86,2.92,6.86l.41.39.15,0a1.68,1.68,0,0,0,1.31-1.38c.8.67,1.41.47,1.71-10.34,1,10.41,1.6,10.22,2.69,7.41.34,2.44,1.12,2.3,1.91,2.22a17.31,17.31,0,0,1,2.39-.09,16.06,16.06,0,0,0,1.64-.06,14.54,14.54,0,0,1,2.29,0,22.56,22.56,0,0,1,4.53.87,14.53,14.53,0,0,1,6.53,4c.87.91,1.6,1.87,2.21,2.63a26.59,26.59,0,0,1,1.39,3.52c1,3.27,1.86,7.13,1.18,11-.23,1.28-.5,2.56-.8,3.83a12,12,0,0,0-.33,1.68,2.88,2.88,0,0,0-.1,1.83c-.49.86-.71,1.41-.32,1.63-.6,1.38-.6,2.45,0,4.53-.76-1.52-1.39-2.14-2-2.2s-1.27.43-2,2.14a10.38,10.38,0,0,0,.82-6.35c.8,1.16.95.6.95-4.62.3,4,.45,3.42,1-2.62-.1,4.19.2,3,.93-1-.44,2.72-.45,2.7-.05-.13-.21,1.86,0,.92.34-1-.09.43-.1-.12-.06-1.44a22.86,22.86,0,0,1-.17-3c-.21-.14-.42-.72-.59-2.31a12.91,12.91,0,0,1-.63-3.69c-.37,1.35-.77.41-1.33-1.47-.49.12-1.12-.71-1.88-1.51A12.47,12.47,0,0,0,290.11,32a20.79,20.79,0,0,0-4.12-.79,12.24,12.24,0,0,0-2,0,18.39,18.39,0,0,1-1.85.06,15.41,15.41,0,0,0-2.11.08c-.7.07-1.38.2-1.82-.55-.87,1.08-1.48,1.26-1.67-10.39-1,12-1.62,12.24-2.86,9.21.15,3.39-.36,3.57-.88,3.73l-.47.16-.79.27a1.15,1.15,0,0,1-.35-1c-.12.5-.71.65-.33-1.39-.38,2-.55,2.84-.07.2-.48,2.64-1.35,2.57-.87-4.23-2.17,6.67-2.88,7-3.7,7.49a6.78,6.78,0,0,1-1.95.8l-.07-.16-.23.16-.16.11a6.33,6.33,0,0,1-1.32.78l-.75.29a6.47,6.47,0,0,0-1.12.48l0,.32-.37.38a1.58,1.58,0,0,1-.88.41,2.08,2.08,0,0,1-.49.57l-1.48,1.17-1.27,1-1,.81A25.41,25.41,0,0,0,252.8,44l-.21.2a77.46,77.46,0,0,0-5.5,5.79c-.9,1.1-1.73,2.22-2.51,3.34S243.08,55.6,243,49c-1.09,8.38-1.53,9.13-2.76,3,.43,7.64.08,8.4-.79,8.06.32,1.7.11,2.34-.25,2.92a16.55,16.55,0,0,1-.33,2.35,20.16,20.16,0,0,0-.21,3v.46s.57,0,.5.09c.07-.11.62.74.25,1.67.58-.61.81-.27.3,3.13.82-2.78.89-2.53.21,2.2.8-4.28.83-4.18.17,1.44,1.26-4.94,1.64-4.33,2.21,5.61,0-8.73.24-8.13.93-2.46-.33-4.7-.19-4.32.31-1.19-.21-2.47-.11-2.18.18-.51.08-.6.29,0,1.05.62a1.28,1.28,0,0,1,.39,1.48,1.45,1.45,0,0,1,0,.16l.35.41a10.29,10.29,0,0,1,.83,1.06,5.91,5.91,0,0,1,.49,1,3.72,3.72,0,0,0,.37.74c.26.37.95.91,2.74,1.39,1.22.33,2.4.68,3.58,1s2.32.7,3.52,1a12.51,12.51,0,0,0,2.39.25h.19c.95,0,1.89.05,2.65,9.79.19-9.73,1.24-9.72,1.84-3.65-.54-6.07-.48-6.07.18-1.06-.55-5.06-.49-5.1.15-1-.58-4.09-2-4.27-2.3,5.41.26-9.68.49-11.45.48-.68,0-10.77.5-10.94,1.13-2.24-.63-8.69-.85-9.18-.42.93-.43-10.11-3-10.61-3.17-10.27.14-.34.84-1.57.24,0,.6-1.59.35-1.8-.09-.82.45-1-.5-1.38-1.44-1.77l-1.89-.79,2.11-.44a1.1,1.1,0,0,1-.2-.64l-.43-.15c-.32-.1-1.09-.35-1.25-1-.43-.14-.87-.29-1.27-.46-4.94-2.12-7.29-4.79-7-7.91.28-3,1.53-6.09,3.94-9.79a54.44,54.44,0,0,1,4.71-6,50.07,50.07,0,0,1,8.17-7.67c.88-.65,1.78-1.31,2,3.23,1.7-5.83,2.7-6.46,3.87-7,.49-.34,1.06-.63,1.5-.44s.72.87.69,2.49c2.26-4.08,3.21-4.36,4.7-4.34a7,7,0,0,1,3.11-.81,5.19,5.19,0,0,1,4.11.92A4.06,4.06,0,0,1,287,43.49c.12.39.25.77.38,1.16a22,22,0,0,1,1.19,4.75,56.16,56.16,0,0,1,0,7.71l0,.36a18.05,18.05,0,0,1-.72,4.29c-.52,1.79-1.15,3.59-1.76,5.32l-.57,1.65L285,70.32c-.54,1.62-1.11,3.3-1.78,4.95a23.25,23.25,0,0,1-1.13,2.29A19.94,19.94,0,0,0,281,79.77a6.36,6.36,0,0,0-.26,2.3v.06a2.14,2.14,0,0,0,1,.46,2,2,0,0,0,1.6-.38,15.75,15.75,0,0,0,1.81-1.3c4.39-3.66,6.69-7.67,9.13-11.92.33-.58.64-1.15.93-1.71a11.32,11.32,0,0,1,.68-1.22c.52-1.12.86-1.8.36.44.59-1.76,1.16-2.1,1.25,1,1-2.05,1.58-.69,2.29,5.11-.88-5.47-1.16-6.26-1.46-1.11-.22-4.29-.45-2.63-1.13,4.34.36-6.35.29-7.4-.37-4.68.37-2.87.14-2-.43.71.28-3.06,0-2.48-.43-1.58-.34.47-.75,1.14-1.16,1.83s-.85,1.41-1.3,2.12a34.34,34.34,0,0,1-7.07,8.24,17.78,17.78,0,0,1-2,1.47,4,4,0,0,1-2.92.66c-1.12-.15-2.77-1-2.77-2.29v-.21a8.09,8.09,0,0,1,.39-3,21.78,21.78,0,0,1,1.19-2.45,21.54,21.54,0,0,0,1-2.09c.65-1.59,1.2-3.24,1.74-4.83l.54-1.61.58-1.66c.6-1.71,1.22-3.48,1.73-5.22a16,16,0,0,0,.64-3.82l0-.36a54.77,54.77,0,0,0,0-7.44,20.31,20.31,0,0,0-1.1-4.31c-.13-.39-.26-.79-.38-1.18a4.19,4.19,0,0,0-.79-.78c-.37-.31-1-.65-2.61-.46a15.38,15.38,0,0,0-3.21.62c-1.06.11-1.93.36-2.92,15.16-1.12-9.2-2.21-11.89-3.24-12.4-.51-.25-1,0-1.16,1.08-1.06-.3-1.75.16-2.57,9-.5-7.91-1.14-7.44-2-6.19-.68-.12-1.57.59-2.44,1.35A52.48,52.48,0,0,0,259,56.72a52.71,52.71,0,0,0-4.54,5.75c-2.22,3.43-3.37,6.25-3.62,8.9-.21,2.16,1.74,4.14,5.8,5.88.44.19,1,.36,1.53.53L259,78l1.21.41,2.36.79-2.4.47c.56,0,.62.13.06.52.67-.1.69.06,0,.71.75-.41.83-.31.08.69,1-.62,1.06-.36.14,1.85,1-2,1-2,0,.17,1-2.12,3-1.27,4.06,2.11-1-3.38-1.14-2.69-.14,1.93-1-4.62-.54-4.22.27-1.56-.81-2.67-.45-2.59.15-1-.59-1.55-.41-1.14.05.05-.47-1.2.74-.15.74-.15s-.74,0-.58.39c-.16-.4.34.72.34.72l.67.08,3.23,3.34-2.32,0h-.75c-.44,0-1.17,0-1.29.4C264.62,90,264.21,90,264.2,94.3Zm-.39,1.27c-.54-7.14-.54-7.13,0,.06C263.26,88.44,263.27,88.43,263.8,95.57Zm17-13.29h0Zm-37.49.1q-.22-2.56,0,0Q243.07,79.81,243.29,82.37Z"/><path class="cls-1" d="M171.67,58.25l2.08-.39a.88.88,0,0,1,.41,0,5.3,5.3,0,0,0,.73.31,11.38,11.38,0,0,0,1.86.15c.72,0,1.43-.14,2.15-.21h0c.35-.17.69-.32,1-.51.09,0,.16-.18.25-.28-.08-.09-.17-.25-.25-.26-.71,0-1.43,0-2.14,0-.11,0-.26.07-.33,0-.36-.44-.78-.27-1.16-.29-1-.05-1.93-.08-2.9,0a9.3,9.3,0,0,0-1.63.31c-.42.1-.83.24-1.25.33a1.78,1.78,0,0,1-.59,0c-.2,0-.42-.16-.44.37a.76.76,0,0,0-1.25.2c.8.56,1.63.16,2.45.1a1.25,1.25,0,0,0,.59-.22C171.59,57.6,171.76,57.6,171.67,58.25Z"/><path class="cls-1" d="M173.84,71.27c-.25,0-.29-.07-.33-.06-.77.25-1.52.69-2.27-.06-.39-.39-1.24,0-1.36.57l3.16.12c.1,0,.23,0,.3,0A5.62,5.62,0,0,0,173.84,71.27Z"/><path class="cls-1" d="M163.18,71.46v.23l2.56-.12v-.32Z"/><path class="cls-1" d="M42.72,66.12c-.75-1.82-1.29-1.48-2,1.66-.35-2.28-.9-1.9-1.47-1.22-.09-.16-.35,0-.32.15.28.86-.86,1-.91,1.67,0,.06-.4.13-.6.07-.81,0-1.37.15-1.64-1.6-.48,3.29-1.42,3.64-1.67,2.23A23,23,0,0,1,32.76,73c0,.43-.75.53-1.12.51-.29.28-.52.33-.4-.78-.72,1.31-1.08,1.5-1-2.81-.91,4.45-1.4,4.42-2.32-.94.44,5.57.5,5.72.2.44,0,5.64-.48,5.74-1.07,2.5-.15,3.79-.47,4.2-1.07,2.67.21,2,.26,2.23.08.34.39,2,.58,2,.54-.4.52,2.36.83,2.27.78-1.4.44,3.71.51,3.82.18.24.27,3.74.08,3.89-.34.76-.47,2.65-.69,3.39-1.26,2.27,0,2-.3,2.36-1,1.83,0,.37-.16.41-.17.12-.61.53-1.13.74-1.51.06-.22.88-.19,1,.07.3-.17,1-.12,1.17.2.83-.5.59-.73.72-1,.15-.46.48-.88.39-1.22.94.34.23.1.38-.34.31-.26,0-.39.36-.58.87.09.4,0,.81-.65.59-.15-.05-.44.31-.69.5-.35-.43-.1-.72.21-1a8.62,8.62,0,0,0,.82-1,1.06,1.06,0,0,0-1.24.57,1,1,0,0,1-1.22.38c-.27-.09-.52-.41-.52-1.11-.15.25.1,0,.29-.45-.16.09-.34.06-.39-.43-1.2.94-1.84,1.87-2.77.22C14,83,13.63,83.47,13.19,83c-.38,1.43-.78,1.91-.68-.37-1.07,3.39-1.62,4-2.53-1.22-.2,6.51-.76,7.14-1.8,7.34.32.61.13.77-.44.81,1.16-1.12,2-2.28,2.78-10.43.94,5.82,1.79,4.66,2.62,2.55.84-.24,1.67-1.42,2.59-5.24.28,2,.67,1.42,1.13.26.32-.05.7-.66,1.08-1.27.76-1.22,1.51-2.45,2.25-3.72s1.51-2.43,2.23-6.27c-1.61,1.93-2.35,2-2.3,3a2.74,2.74,0,0,0-2.6.7c-.73.53-1.46,1.06-2.18.64a6,6,0,0,1-2.2,2.56s-.08,0-.29,0a4.37,4.37,0,0,0,1.28-1.89c.55,0,1.09-.52,1.65-1.48a4.43,4.43,0,0,0,1.68-1.12A44.18,44.18,0,0,0,21,64.55,4.42,4.42,0,0,0,23.38,62c.73.4,1.51-.21,2.28-.89a5.13,5.13,0,0,0,1.46-1.37c.82-.06,1.43-.69,2-2.33.54.24,1-.53,1.48-1.26,1.8-2.64,3.58-5.29,5.38-7.93L37.47,46c.51-.74,1-1.48,1.41-2.14.91-1.19,1.68-2.3,2.54-7.44.68,2.91,1.46,1.8,2.27.68s1.78-2.41,2.69-3.61,1.83-2.4,2.74-3.6l2.21-2.86a7.14,7.14,0,0,0,1.74-4.18c1.23.38,2-.57,2.58-16.76.67,14.55,1.23,13.88,2.63,9.12-.28,3.41.27,2.73.84,2,.41-.52.84-1.14,1.27-1.76s.85-1.24,1.3-1.85a5.62,5.62,0,0,0,1.3-3c.76.69,1.19.76.81-6.4,1.24,8.9,1.78,10,2.67-.47-.19,12.85,0,14.07.61,6.4-1,9.9-.79,10.85.26,7.79-1,4.77-.92,5.54,0,7.42-.84-.34-.83.43-.3,6.57-.72-4.29-1.26-3.23-2,8-.28-8.84-.87-7.52-1.7-4.71-.38-.16-1,1.15-1.6,2.47-.35.76-.8,1.48-1.2,2.22a3.67,3.67,0,0,0-.17.49,2.81,2.81,0,0,0,.38-.07c1.48-.54,3-1.09,4.37,2.56,1.54-4.73,3-5.27,4.53-5.63a11,11,0,0,1,2.34-1l2.39-.77c2.33-.76,4.66-1.56,7-2.27,1.35-.41,2.74-.67,4.12-1,.83-.2,1.66-.39,2-6.83,1.29,6.05,2.12,5.86,3.23,3.81.19,1.76.69,1.76,1.16,1.64s1-.35,1.48-.48a2.38,2.38,0,0,1,1-.05c.11,0,.23.4.2.59a6.75,6.75,0,0,1-.33,1.45,3.4,3.4,0,0,1-.58.77c.86.13.6,1,.93,1.44a5.44,5.44,0,0,1,.48,1.06c.06.15.16.37.1.49C94.7,37,95,38,95.12,38.9c0,.12.17.22.19.24L95,40.78c-.45.29-1,.72-1.69,1.08-.14.08-.44-.1-.47-.11a6.56,6.56,0,0,1-1.11.67c-.86.29-1.75.49-1.61,3.82-2-2.72-3-2.32-4-2-.69.22-1.43.39-2.16.6a1.46,1.46,0,0,0-.35.23l0,.19,1.16-.13.07.13-1.06.6c.17.6.42.32.72.14a2,2,0,0,1,.81-.23c-.82.89-1.47,1-2.26.64-.68.46-1.33.88-2,1.34-.09.07-.09.37,0,.5s.29.16.44.23l.06.22-1.33.47c-.14,0-.33,0-.42.13a.87.87,0,0,1-1,.26c-.26-.06-.61.24-.91.4a2.75,2.75,0,0,0-.4.35l0-.58c-.06,0-.15-.07-.21,0-.36.11-.64-.72-1.07-.05a3.26,3.26,0,0,1-.87.84,3.75,3.75,0,0,1-1.14.51,1.6,1.6,0,0,1-1.39.85,2.18,2.18,0,0,0-1.49.7,1.18,1.18,0,0,1-1.8,0c-.41.37-.81.76-1.24,1.12a1.88,1.88,0,0,1-.59.27c-.14,0-.32,0-.45.09-.62.35-.62.36-.83-.24-.75,0-.44.68-.71.85l-4.06,1.56-.05-.53c-.23.28-.45.42-.47.58-.08.54-.29.57-.71.32-.14-.08-.35,0-.53-.05l.12.22c-.1.16-.16.38-.3.47a10.08,10.08,0,0,1-1.12.54l-3.48,1.55L55.49,58c-.67-.17-1,.18-1.47.66l.62.11A1.71,1.71,0,0,1,53.08,60c-.55,0-1.06.84-1.54,1.34a1.49,1.49,0,0,0,.45.62c1.94,1.37,3.84,2.8,5.85,4.05l3.92,2.43c1.31.81,2.62,1.61,3.84,1a10.45,10.45,0,0,0,4,3.85l3.93,2.41,4.39,2.69a30.1,30.1,0,0,0,4.33,2.35,16.46,16.46,0,0,0,4.5,2.74c.91.95,1.88,1.62,2.59-3.14,1.21,6.11,2.16,6.8,3.16,7.39.29.31.63.52.92.83-.28-.08-.56-.17-.82-.27,0,.07-.06.12-.06.11a10.7,10.7,0,0,0,1.24.77c0,.26-.83.17-.22.71l-.63,0L92.9,90c.77.59,1.87.41,2.76,1.05-.37-.06-.62-.12-.87-.15s-.77-.3-1,.31c0,.14-.47.15-.76.24L93.73,93l-.38,2.15-.58,0,.53.42c-.45.12-.8.22-1,.53l.92.68a5.56,5.56,0,0,0-.76,1.37c-.8-.59-.81.08-.55,1.92-.64-1.06-.85-.73-.57,3.18-.45-3.44-.22-3.3.54-1.42-1.19-1.64-1.92-1.62-3.12,2.25-.22-4-.91-4.12-1.59-4.41-.46-.2-1-.16-1.08,2.47-.6-2.76-.69-3-.37.95-.74-4.1-1-4.24-1.41,1.49-.33-5.74-.74-5.56-1.3-3,.51-3.32.24-3.42-.37-1.54-.06-2-.53-2.13-.63-2.24-.23-.55-.46-.71-.25-.32-1.32-.12-2-.87-3-1.12a6,6,0,0,0-1.56-1.53c-.44-.29-1.25-.4-1.35-.74-.22-.83-.93-.88-1.44-1.22a5.81,5.81,0,0,0-1.51-.66,1.39,1.39,0,0,0-1.77.69c-.83-.42-1.66-.85-1.89-.69-.62-.67-.58-.82,0-.56-.56-.68-.46-1.17,0-1-.88-.28-1.24-.64-.3.83-1.45-.75-2-.75-3.18,2.88.6-3.93.43-4.32-1.1-5.1,1.33.41,1.63.22.33-2.22,1.52,2.1,1.59,1.89,1-5.68.54,7.33.37,7.23-1.17,4.28.84,3,.31,3.16-.54,3.13.34.33.37.44,0,.51.23.06.09,0-.13-.06-.8-.62-1.73-1.26-2.66-1.92s-1.84-1.32-2.72-2a32.48,32.48,0,0,1-5.89-5.85c-1.1-1.49-2.09-3.06-3.06-4.64a3.5,3.5,0,0,1-.17-1.37c0-.12,0-.3,0-.36a12.82,12.82,0,0,1-2.75-4.25c-.64-1.43-1.26-2.87-1.87-4.32-.25-.59-.47-1.19-.68-1.79s-.54-.37-.65,0C43.23,63.05,42.92,63.64,42.72,66.12Zm10.5-7.28-.46.28-1.32-.76-.14.19.67.8c-.8.5-1.7-.43-2.59.33.33.11.56.28.71.22.7-.26.61.12.4.74,1-.53,2-.94,2.82-1.45.38-.23.18-.81-.33-1ZM85.69,32.92c.37,0,.72-.12.81-.79.79,1,1,.66.82-5.45C85.81,32.35,85.81,32.35,85.69,32.92ZM91,42.45c-.15.14.12,0,.44-.6C90.76,41.63,90.37,41.87,91,42.45ZM56.23,57.52a.8.8,0,0,0,1.12-.85Zm21,36.56v.36a2.84,2.84,0,0,0,.6.05.7.7,0,0,0,0-.62A1.37,1.37,0,0,1,77.26,94.09ZM25.14,77.3c.59,0,.52-.13-.33-.86C25,77.32,25.14,77.58,25.14,77.3ZM55.45,57.44c-.3-.24-.5-.41-.71-.56a.58.58,0,0,0-.29-.08s-.11.13-.1.14a2.9,2.9,0,0,0,.57.6C55,57.6,55.25,57.48,55.45,57.44Zm8.45,30.29,0,.15a1.4,1.4,0,0,0,.33.19c.26.16.39.22.12-.09.44.33.55.1,0-.42.39.37.26.26-.1,0C64.3,87.72,64.1,87.73,63.91,87.72Z"/><path class="cls-1" d="M90.33,109c-.74-5.76-1.4-5.79-2.32-4.7-.45-1.29-1.15-1.47-1.64-.42-.28-1.34-.35-1.35-.14.5-.59-1.88-.91-1.92-.94,2.89-.74-5-1.12-5.16-1.71-.55-.25-4.82-1.09-5-1.63-4.76-.31-.92-.39-1-.19,0-.67-1.24-1.11-1.46-1.5.3-1.08-2.3-1.86-2.83-2.4-3a.25.25,0,0,0-.22-.27,13.85,13.85,0,0,1-1.58-1.14l-.45-.35-.12,0a7.14,7.14,0,0,1-.66-.28L74.31,97V96.8a3.37,3.37,0,0,1-1-1.09l-.3-.16-.84,1.24a4.57,4.57,0,0,0-3-.43c-2.21-2.19-3.93-3.06-4.68-1.48.75-1.58.76-1.66,0-.08.76-1.59.75-1.59,0,0,.31-1.8,0-2.1-.35-2.37,0,0-.36-.18-.36-.18a3.52,3.52,0,0,1-1.2-.54L61,90.56c-1.33-.93-2.71-1.89-4-3a35.7,35.7,0,0,1-6.42-6.4c-1.2-1.62-2.25-3.3-3.21-4.86a4.23,4.23,0,0,1-.58-2A17.35,17.35,0,0,1,44.17,70c-.39-.87-.77-1.75-1-1.8-.12-.84-.29-.85-.14.26-.15-1.11-.15-1.1,0,0-.49-.84-.84-.57-1.12,2.39q-.13-4,0,0c-.27-2.19-.6-1.66-1.24.93-.34-1.19-1.27-.45-2.69-.34-.21.28-.42.5-.54.51a6.29,6.29,0,0,0,0,1.58c-.08.21-1.71.62-1.49-1.4-.51,2.84-1.06,3.37-1.92,2.48-.25,1.56-.81,1.72-1.21,1.71,0,.12-.06.14-.16.12a1.81,1.81,0,0,1-.55.23s-.16,0-.14,0-.17.08-.17,0c-.15.12-.22.15-.14,0-.17.22.79,1.71.79,1.71S29.21,79.8,29.3,79.7a1,1,0,0,1-1.38,0c-.09,1-.59,1.44-1.37,1.36.23.34.21.37,0,0,.23.32.45,1.09.2,1.34.24-.26-.58,0-.9.06.32-.09-.61,1.44-.77,1.73.17-.3-.44-1.39-.32-1.22-.12-.17-.66,0-.36.34-.39-.32-.53-.26-.39.41-.46-.5-.6-.39-.49.68-.49-.45-.87.11-1.82,2,0-1.29-.39-1.09-1.08-.62.17-.37-2,1.25-2,1.25S16.76,84.81,17,84.15c-.25.61-.29.56-.1-.32-.24.82-.24.82,0,0-.24.84-.25.84,0-.05-.69,1.4-1.13,1.91-1.48.47-.42,2.36-.75,2.75-1.4,2.06a3.94,3.94,0,0,1-1,2.47,8.22,8.22,0,0,0-1.79,2.68,6.74,6.74,0,0,0-2.77,2.42c.62-1.39-1.64-.59-3.91.22L0,95.67l5.62-7.8c.39-.54.78-1.07,1.16-1.62a4.1,4.1,0,0,0,.93-2.5c1.12-.27,2-1.47,2.79-9.57.94,5.68,1.8,4.46,2.59,2.88.59-.49,1.15-1.35,1.66-4.28,0,2.05-.87,2.72-1,1.63a.61.61,0,1,1-1.21.15c-.07.7-1.59.5-3.19-2.64C8,74.66,6.44,74.46,6.44,74.46a14,14,0,0,0,2.35-3.62,2.55,2.55,0,0,0,2.44-2c.25.59.49.36.73,0,1.13-1.11,2.34-2.25,3.55-3.32s2.45-2,3.65-3c0,0,2-1.59,2-1.64.88-.63,1.76-1.33,2.64-2A1.32,1.32,0,0,0,24,58.7a12.49,12.49,0,0,1,1.65-1.15,6.37,6.37,0,0,0,1.85-2.19l.57-.87,2.73-4,2.64-3.9c1-1.49,2.05-3,3.09-4.46l1.26-1.82a8,8,0,0,0,1.46-3.14c.81-.12,1.39-.94,2-5.33.8,2.41,1.66,1.25,2.56.06s1.85-2.43,2.88-3.77q2.21-2.88,4.45-5.73a8.83,8.83,0,0,0,2-4.27c.74.79,1.24.18,1.29-8.38,1.06,7.22,1.66,6.48,2.67-3.39,0,8.51.47,7.87,1.25,5.31.07,1.33.48.74.91.16a20.07,20.07,0,0,1,1.84-2.13A15.16,15.16,0,0,1,62.94,8.3c.64.12,1.15.15,1-6.1.78,6.37,1.27,6.5,2.05-1.83.23,9,.75,9.48,1.32,7,.4,4.52,1.05,5.85,1.61,6.26A27.18,27.18,0,0,1,69.35,19c-.2.86-.15,1.32.06,1.13-.13.95-.09,1.33.09,1.31-.14.82-.12,1.23.06,1.36a4.84,4.84,0,0,0,.08,2,6.7,6.7,0,0,0,0,2.09,5.7,5.7,0,0,0-.35,2.38c-.49.22-.74.79-.67,2.68-.3-1.39-.47-1-.21.7-.57-1-.88-.29-1.15,4.17-.35-3.07-.66-2.38-1,4.26.82-6.25,1.61-6.54,2.65-5.26.32-1.77.88-2,1.45-2.14L72,33.1l1.44-.46L75.5,32c1.63-.54,3.32-1.1,5-1.61,1.05-.32,2.09-.55,3.1-.77l1.2-.27L85.9,29c.65-.15,1.3-.31,1.65-5,1,4.35,1.61,4.2,2.54.25,0,3.73.39,3.69.78,3.3.08.33.21.32.33.29a4.45,4.45,0,0,0,.44-.15c.33-.12.67-.24,1-.32a5.36,5.36,0,0,1,2.27-.1,3.49,3.49,0,0,1,2.63,3.93,10.13,10.13,0,0,1-.34,1.63c0,.1.06.21.08.33a7.53,7.53,0,0,1,.48,1.06l.07.18a3.49,3.49,0,0,1,.07,2.8c0,.1,0,.26,0,.39l.55.67-.89,4.25-1.35.89c-.43.29-1,.65-1.56,1a3.17,3.17,0,0,1-1.22.38,4.77,4.77,0,0,1-.85.39,2.91,2.91,0,0,0-1.37.72c-.54-.16-.91-.06-.42,2.68-1.29-2.48-1.71-2.32-2.24,8.47.1-10.63-1.12-9.3-1.88-6-.14-2.37-1-1.87-1.88-1.66l.29,1.13-3,1.06-.9.32a3.7,3.7,0,0,1-1.79.6l-4.7,4.19-.09-2.36a4.48,4.48,0,0,1-1.39.38l-.14.11a4.34,4.34,0,0,1-2.91,1l0,0a4.36,4.36,0,0,1-1.45.76,4.42,4.42,0,0,1-.47.13,3.91,3.91,0,0,1-1,.34l-.18.11L63,58.92a3.22,3.22,0,0,1-1.53.75l-.15.1a10.67,10.67,0,0,1-1.26.63L57,61.78c.83.58,1.64,1.13,2.48,1.66L63,65.65c1.19.73,2.38,1.46,3.56.95A9.22,9.22,0,0,0,70.14,70l5,3.05,3.32,2a32.33,32.33,0,0,0,3.28,1.84c1.08.84,2.18,1.51,3.45-1.84.94,4.72,2,5.41,3,5.14.84,1.41,1.53,1.87,2.37-2.54.52,5.35,1.19,5.83,1.87,6.21a18.88,18.88,0,0,0,1.8,1.37l.14.1a7.31,7.31,0,0,1,1.29,1.06l.49.52.69.39v.34l6.44,6.84L97,92.69h-.21l-.28,1.6,3.25,2.55-3.67,1L95.35,99l6.17,3.72-5,.22c-2.48.11-5,.22-4.67,1.77C91.18,103.18,90.71,103.2,90.33,109Zm-3.91-5.3Zm-2.59,3.51q.35-8,0,0Q84.18,99.21,83.84,107.17Zm-1.43-5q.23-1.55,0,0Q82.65,100.6,82.41,102.16Zm-3.58-2.53c.33-.9.34-.89,0,.06C79.17,98.74,79.16,98.73,78.83,99.63Zm1.88.32c-.17-1.33-.16-1.29,0,.16C80.54,98.66,80.54,98.62,80.71,100Zm6.2-3.22c.32-.15.87-.06,1,.88.48-.66.53-.64.1.29.49-.91-.29-1.5-1-2-.83-.66-1.61-1.25-1,.26-.64-1.51.75-1.89.88-1.8l-2.45-1.94,2.82-.1c1.42,0,2.84-.08,3-2.69-.16,2.6-.55,1.72-.86-1.67.31,3.38,0,3.11-.59.26.56,2.85.66,2.55.16-.78.5,3.33.1,2.43-.47-.32.57,2.75,0,2.43-.45,1,.45,1.42.82.73.29-1.8-.12,2.07-.75,1.62-1.34,1.1-.67-.35-1.29-.77-1.48-5.57-1.52,3.72-2.61,3-3.6,1.58-1.19.1-2.28-.57-3.45-1.84a7.82,7.82,0,0,1-3.18-1.39l-3.33-2L69.5,76.67c-.83-.51-1.66-1-2.4-8.1-1.29,5.85-2.48,5.12-3.68,4.39q-3.59-2.2-7.16-4.42c-1.59-1-3.1-2.08-4.56-3.12l-1.11-.79-.2.09.06-.19-.19-.13-.2-.15L48.53,65q.56,1.29,1.12,2.57a10.14,10.14,0,0,0,2.07,3.29,3.19,3.19,0,0,1,1,2.41c0,.13,0,.27,0,.41.8,1.3,1.67,2.67,2.62,3.95a30.12,30.12,0,0,0,5.36,5.29c.75.6,1.52,1.17,2.32,1.74l1.07.06c.3,0,.74,0,.51-2.45,1.23,2.78,1.67,3,1.65-9,.78,12.42,1,12.51,2.3,5.4-1.09,7.16-.23,7.37.82,7.29a5.15,5.15,0,0,0,1.56.69L70.32,88a2.85,2.85,0,0,1,1.12,1.29,4.63,4.63,0,0,1,2.31.12,8.61,8.61,0,0,1,2.29,1h0a5.62,5.62,0,0,1,1.11.64s1-.17,1.62-1.72c1.25,1.2,2.21,1,2.48-.76-.27,1.79-.33,5.32,0,4.57-.19.82-.08.9.37.48-.31.5-.3.51,0,.07.73.39,1.67.91,1.82,4.57,1-2.83,1.46-2.6,2.44.13-.18-2.34.17-2.19.71-1.46-.3-.62-.21-.58.05-.07C86.57,96.41,86.69,96.47,86.9,96.73Zm-14-1.83h0Zm-8.87-9.5c.11.08.23.16.19,0,.23.32.32.38.09-.17.51.57.71.54.18-1.47.72,2,.92,1.67.08-1.14.71,2.77.55,2.73-.16,1.4.2,1.3-.1,1.32-.38,1.38C64.07,85.38,64.07,85.4,64.07,85.4Zm0,0h0Zm-45.22-.12h0Zm9.35-9.54c.34,2.75.32,2.77,0,0C28.49,78.48,28.5,78.48,28.17,75.72Zm-7.42-.1c0,1-.19,1.3-.47,1.5.07.12.65.1.43-.41.22.52.58.15.3-.79C21.3,76.85,21,76.26,20.75,75.62Zm2.16-5.34c-.07,2.92,1.76,3.47,1.83,3,0,.48,0,.43.08-.12,0,.51-.76-1.58-.58-2.76-.17,1.18.85,1.14,1.7-1,1.2,2.12,2.22,2.08,1.91-3,.68,5.1,1.13,5.11,1.38-.84.05,5.92.11,5.89.31.08,0,5.72.21,5.65.75,1.2C30.07,71,30.21,71,30.73,68c-.38,2.95-.23,2.9.13.45.05,1.71.57,1.18,1.11.81.35-.59.77-1,1-1.5.07.21.09.19.06-.14.4-.33.83-.85,1.23-3.4.63,1.78,1.23,1.51,2-.08.1.92.5.34,1.22-.23l.69-.53c.27-.2.54-.4.77-.55.43-.41,1-.8,1.29,1,.51-2.44.75-2.8,1-.24.45-3.43,1-3.8,1.82-3.27a1.14,1.14,0,0,1,1.49-.94,3.25,3.25,0,0,1,.48.12l2.41-2.1A4.2,4.2,0,0,1,49,56.54l-1.16-2.86,2.68.76,0,0,.12.07,1.4.4a3,3,0,0,1,2.5-1.08.33.33,0,0,1,.31.16,3.78,3.78,0,0,0-.4-.82s2.32.15,2.33.2a18.86,18.86,0,0,1,1.53-1.2L59.92,51l.15,1.85,3.79-4.52.34,3.23a3.67,3.67,0,0,1,2.22-.75,2.88,2.88,0,0,1,.6,0c0-.08.08-.12.12-.09s2.19-2.06,2.19-2.06l1.09.8a4.53,4.53,0,0,1,1.47-.57l.23-.45,1.25-.36a1.37,1.37,0,0,0,.26-.09l.13-.1A3.42,3.42,0,0,1,76,46.42a3.21,3.21,0,0,1,1.91.24l.42-.08a3.09,3.09,0,0,1,1-1.23c.31-.23.64-.46,1-.69l-.06-.21.06,0-.16-.65,1.71-1.13A3.63,3.63,0,0,1,83,42l1-.26c.38-.1.77-.2,1.14-.33a2.13,2.13,0,0,0,1.13-.64c.64,0,1-.14.4-1.93,1.53,1,2.16.49,3.91-4.27-.36,4.2.4,4.14,1.18,4.31l.3-.19v0a7.33,7.33,0,0,1,0-2.52l-.14-.23s-3-.43-2.8-11c-1.19,11.2-2.17,11.19-2.94,11a.64.64,0,0,1-.37.09L82.4,36l-.15,0c-1.62.49-3.26,1-4.86,1.57l-2.08.69-1.48.48c-1.07.34-2.14.68-3.2,1.06s-2,.72-3,3.45c-1-2-2-1.64-3.07.19.05-1.46-2.81-.41-2.81-.41a3.82,3.82,0,0,1-.81.2l-2.5.45c-1.25.23-2.5.45-2.39,6.93-.11-6.47.29-7.7,1.12-4.18,0-6,.36-7.21.73-5.09-.31-2.3-.21-2.62.22-1.71-.09-1.53.07-1.82.28-1.7a6.41,6.41,0,0,1,.6-1.62c.58-1.25,1.18-2.54,1.78-3.86s1.21-2.66,1.8-4c0,0,.19-.44.15-.3.35-.81.67-1.52.22-.78.59-2,.52-3-.09-3.5.52-1,.49-1.45,0-1.76.5-.39.47-.64,0-.91.38-.72.28-1.64,0-3.2.56-.1.52-.73,0-2.1.29.81.22.91-.07.65a6.52,6.52,0,0,1-1.29,2.46c-.62.81-1.27,1.6-1.92,2.39-.47.58-.95,1.15-.89,1.72-1.26,1-2,1.91-2.34-14.29C55.18,27,54.44,28,53,28.83a5.89,5.89,0,0,1-1.53,2.92c-2,2.65-3.73,4.88-5.4,7.17-.57.78-1.14,1.58-1.7,2.38s-1.12,1.6-1.31,1.21c-.35,1.18-1.62,3-1.41,0-.72,3.74-1.23,4.47-2.22,5a4.56,4.56,0,0,1-1,2.45L37.1,51.88l-1.31,1.94c-.46.68-.91,1.35-1.37,2S33.5,57.2,33,57.87l-.49.75A17.23,17.23,0,0,1,31,60.77c-.63.76-1.4,1.46-2.48-.39-.16,2.54-.46,2.78-.84,1.49,0,1.54-.15,1.7-.18.26a7,7,0,0,1-2.59,3.49s-.17.14-.16.11,2.12.92,2.11-1.2c0,2.12-1.83,5.11-1.87,4.79-.53,1.23-1.09,2.15-1.45.62-.19,2.45-.18,2.71,0,.3-.2,2.41-.34,2.36-.17-.26-.25,2.76-.33,2.89-.3.16C22.92,73.07,22.88,73.14,22.91,70.28Zm12.16-5.19c0,3,0,3.05,0,.13Q35.07,69.6,35.07,65.09Zm6.88,3.53c-.11-2.78-.09-2.73.05.1C41.86,65.89,41.84,65.85,41.95,68.62Zm26.79-12h0ZM55.28,55.06a.24.24,0,0,1,.32.08c0-.11-.09-.28-.1-.14C55.43,54.89,55.36,54.94,55.28,55.06Zm-.41-.49,0,.2s.27-.21.27-.1A.32.32,0,0,0,54.87,54.56ZM78.1,52.47h0Zm4-1.17-.07.07Zm-15.69.05h0Zm12.37-.11h0Zm4.16-1.1,0,0Zm-10-1.31h0Zm3.77-2.08-.26.07Zm14.47-8c-1,.73-1.58,1-1.06-4.64-.82,5.91-.68,5.88.57,2.39-.76,3.35-.41,3.26.48,2.37-.49.74-.45.71,0,.06-.42.6-.39.58,0,0C90.75,39.46,90.69,39.46,91.13,38.73ZM59.72,37.47h0Zm27.4-8.29c.71,5.57.71,5.59,0,0,.72,5.55.73,5.54,0-.27C87.85,34.75,87.84,34.75,87.12,29.18Zm5.39,5.54v0ZM61.79,13.3h0Z"/><path class="cls-2" d="M90.38,106.9c-1.36-5.7-2.48-5.82-3.54-6.08-.21-.28-.45-.31-.42,1-.52-1.4-.77-1.42-.57,2.08-.78-3.62-1-3.84-.93,1.71-.32-5.73-.49-5.81-.63.08,0-5.9,0-5.89-.23-.14-.1-5.72-.62-5.68-1.44-4.14.25-2,.14-2.18-.21-1.16-.2-1.28-.83-1.49-.94-1.28-1.2-.76-1.9-1.24-2.75-1.1.18-.59,0-.7-.4-.56a3.23,3.23,0,0,0-1-1.13c-.23-.18-.46-.37-.7-.53a2.91,2.91,0,0,0-.42-.18,1.85,1.85,0,0,1-1.34-1.14c0-.12,0-.15-.44-.33a4.39,4.39,0,0,1-.57-.3,4.8,4.8,0,0,0-1.25-.54c-.33-.1-.38-.11-.66.29l-.49.73s-1-.51-2-1-2-1.06-.72,3.33c-1.3-4.39-1.2-4.95.12-2.09-1.83-2.76-2.39-2.87-4.07.24,1-3.47.77-3.77-.35-3.61.94-.46-.18-.82-.29-.81s-.24-.11-.46-.26l-1.61-1.14c-1.3-.91-2.65-1.86-3.93-2.88a33.79,33.79,0,0,1-6.06-6C51,78.45,49.95,76.82,49,75.29a2.64,2.64,0,0,1-.3-1.44,3.55,3.55,0,0,0,0-.36h0A14.39,14.39,0,0,1,46,69.2c-.64-1.44-1.26-2.88-1.88-4.33l-.29-.69c-.06,0-.09,0-.08.22-.16.06-.28.26-.31,1-.11-.48-.42,0-.26.94-.16-.92-.75-1-.54,1-.24-1.92-.48-1.93-1,1.6-.36-2.76-.69-2.51-1.19,0,0-2.07-.21-1.92-.55-.6.12-.43-.42,0-.69.31,0,0-.09,0-.13.07a1.27,1.27,0,0,1-1.6.83c-.61.06-.69.13-.7-.61-.38,1.52-.67,1.81-.73-.32-.51,2.68-.63,2.82-.54.13-.1,2.84-.13,3.59,0,.83-.1,2.76-.82,2.94-1,.41-.22,2.63-.46,2.82-.92,2.36.07,1.94-.68,2.16-1.24,2.31l-.36.11c-.15.06-.31.11-.33-.12-.21.3-.29.32-.14-.2-.34.59-.44.63-.18-.37-.65,1.16-1,1.29-.79-2-.63,3.41-.72,3.42-.39-.75-.42,4.18-.37,4.32.08.36-.46,4-1.33,4.33-1.55-.8C28.7,75.9,28.55,76,28,71c.38,5,1.37,6.5,1.61,3.67-.25,2.83-1.34,3.3-1.73,0,.19,3.38-.23,3.62-1,1.2.28,2.28.28,2.29,0,.07.22,2.34.16,2.44-.16.6,0,2.32-.48,3-1.55,2.59.25.47.09.74-.1.39.19.35,0,.1-.08-.24.07.33,0,.33-.1,0-.19.37-.42.46-.41.35-.26.21,0,1,.15,1-.17.08-1.14.35-.81.27-.37.09-.41.11-.14.06a6.15,6.15,0,0,1-1.08.24l-.48.54s-.29.15-.95.43c.29.11.18.7-.57,1.28,0-.08-.34,0-.69,0l-.27.23-.77.57-.61-.74a1.8,1.8,0,0,1-.35-.64.66.66,0,0,1-.6-.32c-.49,0-.82-.31-.82-2.14-.47,1.72-.71,2-.78-.29-.3,2.74-.43,2.89-.51.21-.55,3.38-1,4-1.77,3.41-.07,1.5-.4,1.89-.47,1.22-.82,1.69-1.37,2.32-1.57-1.35-.91,4.94-1.47,5.58-2.77,5.55.44,1,.1,1.23-.68,1.58.39-.21-2.63.87-2.63.87A29.45,29.45,0,0,0,7.13,89,2.94,2.94,0,0,0,8,86.6c.76.3,1.15-.23.94-5.13,1.48,3.18,2.37,2,3.6-1.73.52,1.25,1.38,0,2.14-4,.9,1.54,1.71.27,2.5-1s1.57-2.53,2.33-3.79c.28-.47.57-.94.84-1.49,0,.08-.57-.09-.57-.09-.53-.18-1,0-1.69.57-.92.66-1.83,1.33-2.72.73a3.73,3.73,0,0,1-2,2.53c0,.2-.65.09-.64,0,0,.09-2-.18-2-2.8,0,2.63,1.92.74,1.92.73.29-.28.56-.54.81-.82A46.12,46.12,0,0,1,16.86,67c1.18-1,2.38-2,3.54-2.9,0,0,2-1.59,2-2.78.89.5,1.76-.19,2.64-.88l.19-.15a16,16,0,0,0,1.39-1.19,2.28,2.28,0,0,0,1.42-1.16,4.67,4.67,0,0,0,1.14-1.8c.18,0,.36-.24.55-.57.46-.62.91-1.29,1.37-2l1.37-2,2.64-3.89c1-1.49,2-3,3.07-4.44,0,0,1.26-1.82,1-2.15.82-.47,1.38-1.29,1.93-6.06.59,3.14,1.17,2.33,1.93.82a14.69,14.69,0,0,0,2.41-2.79c.9-1.19,1.84-2.42,2.86-3.76l2.21-2.87a18.6,18.6,0,0,0,2.09-3.12c.88-.69,1.62-1.64,1.71-12.19,1.13,9,1.62,8.39,2.7-4.25,0,11.29.65,10.54,1.59,8.7.14.43.6-.23,1.06-.9s.79-1.15,1.21-1.71a18.11,18.11,0,0,1,1.66-1.91c.6-.61,1.18-.66,1-5.62C64.48,10.54,65,10.77,65.43,0c.5,12.65,1.09,13.83,1.91,9.06-.05,7.34.13,8.73.31,5.85-.51,4.84-.45,5.38.06,2.39-.41,3.9-.38,4.24,0,1.78-.39,3.22-.37,3.64,0,2.19a25.91,25.91,0,0,0-.06,5.94c-.39.52-.84,1.52-1,9.69-.24-7.2-.43-6.79-.25,1.31-.77-6.73-1.38-5.37-2.37.88-.23-3.59-.83-2.28-1.41-1q-.13.28-.28.56a6.39,6.39,0,0,1,.89-.28c1-.42,2-.79,3,3.43,1-4.95,2.05-5.31,3.16-5.12A7.65,7.65,0,0,1,72.61,35l1.46-.47,2.07-.68c1.62-.54,3.3-1.09,5-1.6,1-.3,2-.52,2.95-.73l1.23-.28a5.91,5.91,0,0,0,1.07-.33c.66-.08,1.31-.24,1.67-7.66.94,7.12,1.59,7,2.55,4.27,0,2.5.22,2.47.52,2.27a.65.65,0,0,0,.59.07,6.3,6.3,0,0,0,.65-.21c.27-.1.54-.19.82-.27a3.38,3.38,0,0,1,1.42-.07c.85.16,1.08,1.19,1,1.7a7.65,7.65,0,0,1-.38,1.66,1.77,1.77,0,0,1-.11.25,2.62,2.62,0,0,1,.3.84,1.82,1.82,0,0,0,.06.24,4.69,4.69,0,0,1,.49,1l.08.22a1.51,1.51,0,0,1,.06,1.32,2.44,2.44,0,0,0-.05,1.5c0,.15,0,.3.06.46l.3.37-.53,2.51-.68.45c-.4.27-.89.6-1.42.89a1.21,1.21,0,0,1-.82.12,3.82,3.82,0,0,1-.92.5c-.47.16-1,.29-.88.89-.95-.36-1.35-.25-.59,3.39-1.65-3.35-2.14-3.16-3.72.06,1-3,.88-3-.17-.9.94-2-.61-.34-.61-.33a2.84,2.84,0,0,1-2.86,1.07l-.07,0-.67.45.34,1.31-2.2.77-.21.06a1.82,1.82,0,0,1-1.54.41l-.12.08-.31.19v0l-.2.19L76.6,52.48l-.06-1.68a5.66,5.66,0,0,1-.61.5,4.27,4.27,0,0,1-1.08.54,2.67,2.67,0,0,1-2.06,1c-.21,0-.3.06-.64.33l-.21.17a2.09,2.09,0,0,1-2.27.46c-.24.22-.49.44-.74.65a2.45,2.45,0,0,1-.82.41,2,2,0,0,1-.47.11,1.66,1.66,0,0,1-1.11.29,1.2,1.2,0,0,1-.27.24l-.17.09-4.25,1.63a1.24,1.24,0,0,1-1.21.5,1.32,1.32,0,0,1-.38.35,8.76,8.76,0,0,1-1,.51l-5.67,2.53.06-.21a3.4,3.4,0,0,1-.45.06l-.29.35,1.17.83c1.41,1,2.87,2.06,4.35,3l3.56,2.21a12.26,12.26,0,0,0,3.55,1.72,18.2,18.2,0,0,0,3.61,2.67l5,3,3.32,2c1.08.66,2.17,1.32,3.3.46,1.05,2.21,2.15,2.88,3-1,1.31,5.27,2.4,6,3.49,6.64.69.43,1.36.89,1.71-2.92,1,4.73,1.64,5.2,2.67,3,.23,3.11.84,3.55,1.46,4l.16.11a5.45,5.45,0,0,1,1,.78l2.54,2.7-.52-.15-.12.29,0,0h-.06L95.5,92,95.14,92a4.36,4.36,0,0,0-.44-.07l-.13,0a1.08,1.08,0,0,1-.17.16l.35.81-.4,2.28,1.08.84-1.16.34.32.24s-1.95,2.79-1.94,2.81-.34-.22-.24,0c-.15-.12-.19,0-.09.42-.15-.36,2.49,1.23,2.49,1.23s-3.3.15-2.93,1.84C91.08,101.18,90.64,101.2,90.38,106.9Zm-5.25-1.46q-.41-8.11,0,0Q84.72,97.33,85.13,105.44Zm1.3-5.54c-.28-1.42-.19-1.41.17-.52.11-.84.54-.8.9-.49.83.2,1.61.3,2.51,5.51,0-5.2.17-5.51.36-.63-.06-5.12.06-5.33.67-2-.47-3.65-.45-3.71.1-.46-.43-3.61-.22-4.19.86-3.6-.41-.83-.35-.85.1-.25-.39-.61-2.26-2-2.46-.36.2-1.65,1.47-2,2.1-1.51L90,94.24l2.56-.08a5.16,5.16,0,0,1,.14-1.06s-1-2.28-.62-3.09c-.4.8.07.67.25.36-.19.31-.6,0-.23-.84-.37.83,0-.26.19-.71-.19.45-1.08,0-.57-2.35-.51,2.3-.23,1.78.18.11-.89,1.34-1.36,1-1.77-5.19-.69,5.41-1.33,4.95-2.19,3.56-.44.49-1.1,0-1.48-1.7-1.37.65-2.46,0-3.81-2.31-.84.92-1.94.24-3.1-2.28-1,1.18-2.11.51-3.18-.14l-3.32-2L70.55,75c-.83-.51-1.66-1-2.32-3.84-1.37,1.58-2.57.85-3.76.12q-3.58-2.19-7.15-4.42c-1.53-1-3-2-4.45-3.05l-1.45-1a2.65,2.65,0,0,1-.8-1l-1.85.94.63-1.87-.11,0-.22-.09-1.68-.56,1.34-1.15a2.22,2.22,0,0,1,1.46-.55l1-1.33.33.19-.21-.51,2,.56.11,0-.21-.25.33-.64a1.08,1.08,0,0,1,1-.63,1.51,1.51,0,0,1,.81.26c.17.12.32.24.51.4l.08.07,2.3-1.74,0,.62,1.71.13a2.64,2.64,0,0,1,.42,0,2.33,2.33,0,0,1,.28-.32l.18-.19,1.54-1.83.15,1.6,2.42-.93a1.45,1.45,0,0,1,1.48-1.08h.71l.07.21.2,0a1.31,1.31,0,0,0,.27-.09c.27-.23.55-.48.83-.74l1-.88.66.48a2,2,0,0,0,.32.2,2.62,2.62,0,0,1,.29-.22l.17-.14a3,3,0,0,1,1.95-.77h0a.62.62,0,0,0,.46-.3l.2-.39.42-.12a2.79,2.79,0,0,0,.84-.37,2.56,2.56,0,0,0,.61-.57,1.45,1.45,0,0,1,1-.7,1.4,1.4,0,0,1,1.09.3,1.31,1.31,0,0,1,.38.1l.09,0a1.6,1.6,0,0,1,1.18-.22h0a1.4,1.4,0,0,1,.8-.38l.11,0A1.31,1.31,0,0,1,80.5,47c.48-.36,1-.69,1.5-1l.63-.42,0-.1h0l-.19-.75.59-.39a1.81,1.81,0,0,1,.62-.35l.9-.25c.42-.11.84-.22,1.26-.36a4.07,4.07,0,0,0,.71-.25c1.25-.45,1.77-.64,2.29-.81l1-.31c-.77.25-.52-.12.64-1.26-.31-.13.76.05,1.33.27l.33.13.25-.16.37-.22.47.12c.33-.2.65-.42.94-.61l0-.05.16-.73a1.14,1.14,0,0,1-.11-.42c0-.21,0-.42-.08-.63A4.56,4.56,0,0,1,94.15,36l-.09-.23a3.19,3.19,0,0,0-.28-.62,2.47,2.47,0,0,1-.36-.95l0-.09-1.57-.23,1.06-1.36.26-.31a2.4,2.4,0,0,0,.18-.21,4.76,4.76,0,0,0,.17-.61l-.48.17a8.24,8.24,0,0,1-.86.28,4.05,4.05,0,0,1-.86.11c-.21.05-.4.07-.37-1.11-.77,1.34-1.3,1.47-1.56-7.21-.28,8.8-.72,9.38-.85-.22-.2,10-.89,10.95-2.21,10.26,0,.21-.07.23-.15.22a2.25,2.25,0,0,1-.43.05l-1.28,0,.11-.51-.08,0c-1,.22-1.9.42-2.8.69-1.64.5-3.3,1-4.91,1.58l-2.08.68-1.47.47c-1.09.35-2.19.7-3.27,1.08s-2,.72-3.07,3.9c-.93-2.46-1.92-2.09-3-.88.07-.84-2.8.21-2.8.21a2,2,0,0,1-.41.09l-1.8.32.6-1.78a2.37,2.37,0,0,1,.19-.48l.44-.8c.25-.45.51-.9.72-1.36.58-1.25,1.18-2.55,1.78-3.87s1.21-2.68,1.06,1.77c.75-5.81.94-6.23.17.76,1.14-7.81,1.52-8.67,1.26,1.79.44-12.25.38-13.29-.25-7.6.52-7.24.5-7.68-.39-9.07.86.65.83.36-.25-5.84,1,5.22.89,4.52.3-8.85.9,11.51.77,10.44-.24-2.81.4,11.19-.06,10.2-1.12,6.12.07,3.63-.33,4.1-.67,4.55s-.78,1.1-1.17,1.66-.95,1.38-1.46,2-1.24,1.56-1.3,1.26C57.52,20.8,57,21.38,57.63,11c-1.81,12-2.55,12.91-4.27,9.73.24,5.08-.5,6-1.25,7l-2.2,2.86c-2,2.66-3.75,4.9-5.43,7.21-.58.79-1.15,1.6-1.44,1.35-.84,1.86-1.4,2.67-2-.26.09,3.72-1.18,5.55-1.6,5a5.07,5.07,0,0,1-1.12,2.8l-1.53,2.22L34.13,52.7l-2.74,4-.52.79c-.42.65-.85,1.31-1.34.62-.54,1.9-1.14,2.46-1.92,2.31-.37.79-.74,1.08-1.14.72,0,.67-.18.82-.2.24-.86,1.27-1.73,2-2.55,1.75-.05.89-2.08,2.48-2.16,1.25-.34,1.57-.77,1.91-1.2,2.25.76-.18,1.67.13,2.53-1.93,0,2.41,1,2.86,1.15,1.76-.1,1.1-.72,2.1-.6-.13-.47,2.79-.81,3.35-1.25,1.11-.25,3.37-.59,3.94-1.12,3.24a14.26,14.26,0,0,1-2.11,5l-1.18,1.88c-.4.62-.8,1.24-1.07.8-.13,1.05-.12,1,0,0,.16.9.42.91.61.81a7.74,7.74,0,0,0,1.65.06l-.5,1.1a2,2,0,0,1,1.82-.53c.09.05.54.16.32,0,.3,0,.41-.19.27-.66.57.1.88,0,.91-.91.28.74.35.54.39-.94.15,1.3.56.89.61-.66-.05,1.55.2,1.61.38.19-.17,1.43,0,1.37.18,0,.12,1.23.45,1.09,1.05.35-.27.62-1.71-2-1.69-4.6,0,2.62,2.33,3.32,2.25,2.72.17.63.27.66.19-.13.22.78.25.73.08-.27.22.95.36.78.11-.36.55.78.89.37,1.18-2.8.32,2.73.49,2.63.45-1,.21,3.58-.11,2.67-.25-.53.14,3.2,1.5,3.15,1.15-2.27.53,5.42.71,5.42.6-.47.6,5.88.88,5.88,1.44.65-.17,5.16,0,5.09.72,1.6-.34,3.35-.2,3.29.36,1.16-.31,2-.2,2,.22.73-.21,1.22-.1,1.19.18.49,0,.61.15.55.36.44a.25.25,0,0,0,.19,0,20.19,20.19,0,0,1,1.37-2.83c.39.38.78,0,.9-2.77.32,2.33.48,2.18.44-.82a2.2,2.2,0,0,0,2.68,1.28,5.39,5.39,0,0,1,.53-.5l.1-.08c-.12-.67.44-1.11.75-1.35s.44-.33.58-.15c.38-.57.68-.8.73.61.67-2,1.22-2.41,2,0-.13-2.66-.1-2.71.14-.34.08-2.9.34-3.33.91-2.75.09-1.41.6-1.62,1.1-1.53a1.41,1.41,0,0,1,1.09,1c.21.58.42,1.16.66,1.73.61,1.44,1.23,2.88,1.86,4.3a11.89,11.89,0,0,0,2.53,3.93,1.24,1.24,0,0,1,.35,1c0,.18,0,.37,0,.55a2.38,2.38,0,0,0,0,.44c.89,1.45,1.88,3,3,4.53a31.92,31.92,0,0,0,5.71,5.66c1.14.92,2.37,1.79,3.57,2.62l.09-.42s1,0,1,0c.19,0,.42,0,.27-.53.71.72,1,.92.22-1,1.08,2.25,1.15,2.35.06-.1,1.24,2.56,1.33,2.54.15-1.41,1.6,3.9,1.89,4,2.19-7.19C66.84,87.72,68,88,69.07,86.27c-1,1.72-1.53,3-.16,1.69-1.39,1.36-1.4,1.39,0,.22-1,1-.54,1,.44,1.26-.35.08-.25.12,0,.07.47.34.41,1.09.34,1.58l1.19.6a2.29,2.29,0,0,1,2.29-.41,6.68,6.68,0,0,1,1.77.78,2.46,2.46,0,0,0,.31.16,2.7,2.7,0,0,1,1.26,1S79,92.76,78.67,92c.32.79.28,3,0,2.79a4.25,4.25,0,0,0,.63.42c.51.3.72.44.93.58a2.42,2.42,0,0,0,1.37.54c.3-.29,1,.17.85,1.68.38-1,.4-.9.34,1.32,1.05-2,1.44-1.8,1.55,3.92q.13-8.1,0,0,.13-8.1,0,0c.54-5.4.93-5.23,1.76-2.37-.51-2.73-.42-2.69.08-.24C85.83,98.27,86,98.38,86.44,99.9Zm-4.1-.54q.3-1.36,0,0Q82.63,98,82.34,99.36Zm-.4-.71q-.37-.78,0,0Q81.56,97.87,81.93,98.65Zm-.67,0q-.46-1.24,0,0Q80.81,97.44,81.26,98.68ZM69.17,92.21c-.83-.79-.82-.79,0,0C68.35,91.43,68.34,91.42,69.17,92.21Zm-2.3-2.31-.05.08Zm.84-5.28c-.77,4.64-.76,4.65,0,.09C66.93,89.26,66.93,89.26,67.7,84.61Zm-3.77,3.11h0a1,1,0,0,0,.11-.2A1.9,1.9,0,0,0,63.93,87.73ZM19.46,83.37h0Zm1.61-3.67q.49.49,0,0Q21.56,80.19,21.07,79.7Zm3.75-.31c0,.24,0,.24,0,0C24.77,79.63,24.77,79.63,24.82,79.39ZM24.7,77c-.13.45-.13.47,0,.06-.13.43-.12.39,0,0C24.58,77.49,24.56,77.48,24.7,77Zm1.74-3.6q.27,3.8,0,0Q26.7,77.25,26.44,73.45ZM37.12,68c-.06.35-.06.36,0,0C37.06,68.31,37.06,68.31,37.12,68Zm2.65-.5c.16-1.05.16-1,0,0C39.92,66.41,39.92,66.41,39.76,67.46ZM52.26,62h0Zm6-6.3.07.9c0,.06,0,.12,0,.17l.05,0,.37-.16Zm-1.79.89a.27.27,0,0,0-.14.18h.09ZM67.74,54.9h0Zm10.85-4.37h0Zm2-.56h0ZM77,48.72h0Zm4.67-.16h0ZM94.22,36.14Zm.08-.5h0Zm-.7-4.87h0Z"/><path class="cls-1" d="M394.69,38.75c.43,0,.87,0,1.3,0,3.17-.17,6.33-.37,9.5-.52a125.06,125.06,0,0,1,13.31-.06c1.58.09,3.16.18,4.74.28a5.64,5.64,0,0,1,.84.18l0,.22-2.12.55c-.68.18-1.35.34-2,.55-1.14.34-2.26.73-3.4,1.05s-2.21.52-3.29.82c-.27.08-.47.37-.72.55a1.23,1.23,0,0,1-.48.19c-2.07.32-4.15.59-6.21.94-.93.16-1.84.47-2.76.67s-1.58.28-2.37.42c-1.08.19-2.16.41-3.24.59s-2,.27-3.06.48c-.82.17-1.6.51-2.43.67q-4,.75-7.93,1.41c-.57.09-.62.28-.48.74.57,2,1.1,4,1.65,6,.09.34.25.67.34,1s.44.75.07,1.26c-.17.23.06.71.16,1.06,0,0,.32,0,.51,0,.3.51.46,1-.3,1.51a12.63,12.63,0,0,1,1,.91c.25.28.55.58.17,1a.83.83,0,0,0-.09.65c0,.07.34.08.59.13,0,.34.32.78-.25,1.14-.13,0-.28-.15-.39-.12a1.37,1.37,0,0,0-.4.28c.09.1.17.25.29.3a1.08,1.08,0,0,0,.44,0c.53,0,.85.13.79.68a.47.47,0,0,0,.05.27c.3.53-.11.67-.51.8.35.3,1,.61,1,.92,0,.52.35.67.59.92l-.42.86c1.14,0,.77.84,1,1.28s.14.82-.28,1.6l.7,0c.09,1.46,1.13,2.74.83,4.36l-.46-.3c-.14.35-.2.58.32.57.14,0,.36,0,.41.08a1.16,1.16,0,0,1,.25.61c0,.07-.35.15-.69.29l.78,1,.27-.61c.27.42.25.44-.21.84a1.67,1.67,0,0,0-.27.45,1.82,1.82,0,0,1,.43.2,1.53,1.53,0,0,1,.44.5,2.65,2.65,0,0,1,.09.73l-.35.16.42,1.14c-.6.61.1,1.18.2,1.79.06.35.16.59-.1,1s.24.69.57,1.08l.08-.46c.09.11.21.18.22.27,0,.54,0,1.09,0,1.69l.37.09a1.12,1.12,0,0,0,.66,1.39l-1.08.34.48,1a2.18,2.18,0,0,0-.43,0,2,2,0,0,0-.49.19s0,.24,0,.25.31,0,.47,0,.33.06.49.09l0,.18-.44.15v.15l.87.08a4.41,4.41,0,0,0-.62.47,3.74,3.74,0,0,0-.38.67l-1.32,0c.48-.49.56-.82.12-1.12-.47.38-.06,1.15-.8,1.37a5.35,5.35,0,0,1-.56.1l-.06-.13.76-.56a3,3,0,0,0-.76-.22,2.3,2.3,0,0,0-.86.16c-.64.26-1.21-.05-1.81-.11-.3,0-.6,0-1,0l-.36-.76-.11.1-.67-.63s0,0,0,0a3.55,3.55,0,0,1-1.63-1.9l.2-.27a1.72,1.72,0,0,0-.37,0c-.79.21-.94.14-1.12-.54,0-.07-.05-.2-.1-.2-.88-.15-.32-.57-.19-.85L382,85.53c-.13-.34-.22-.57-.3-.8,0-.07-.07-.19,0-.21.67-.58-.16-1-.18-1.47,0-.09-.18-.18-.3-.23s-.23.13-.22.15a1.14,1.14,0,0,0,.21.3.72.72,0,0,0,.15.1,1,1,0,0,0,0,1.46.72.72,0,0,1,.08.63c0,.11-.37.2-.56.19s-.6-.17-.9-.16a3.64,3.64,0,0,0-.93.22,1.65,1.65,0,0,0,.08.32c.27,0,.54-.1.87-.17a2.37,2.37,0,0,1,.05.31c0,.15,0,.31,0,.46-.46.06-.94.08-1,.67,0,.08-.35.23-.41.19a.76.76,0,0,1-.28-.44,2.27,2.27,0,0,1,0-.59l-1,.11v.14l.55.32c-.3.13-.65.19-.76.36a1.37,1.37,0,0,0-.13.81,6.68,6.68,0,0,0,.2,1,5.66,5.66,0,0,0-1-.29,4,4,0,0,0-.86.08l-1.25-2.72c-.38.46-.62.3-.8,0s-.29-.55-.45-.87l.41-.4c-.19-.07-.34-.18-.46-.16-.54.08-.73-.13-.69-.6s-.61-.74-.93-1.11c-.08-.09-.25-.12-.45-.2l.35-.21-1.41-1.56a2.94,2.94,0,0,0,.57,0,2.36,2.36,0,0,0,.44-.21c-.12-.15-.22-.4-.37-.44-.84-.21-.83-.19-.57-1a3.59,3.59,0,0,0,0-.88l-.4.36a13.88,13.88,0,0,1-1.89-4.47c-.7-.18-.67-.81-.81-1.29a44.84,44.84,0,0,0-1.35-4.46c-.42-1-.58-2.15-.91-3.22-.27-.89-.63-1.75-.94-2.64-.61-1.78-1.15-3.6-1.84-5.35s-1.73-3.6-2.39-5.46a2.37,2.37,0,0,0-2.82-1.76c-1.3.09-2.62-.17-3.92-.09a28.25,28.25,0,0,0-3.49.58c-.63.12-1.24.27-1.87.4L347,51l1.67-.79,0-.2c-.79,0-1.59,0-2.36.11a57.22,57.22,0,0,1-9.74.7,14.53,14.53,0,0,1-4.81-.52c-1.2-.46-1.25-.54-.47-1.54a6.3,6.3,0,0,1,.78-.85c1.36-1.19,2.66-2.44,4.12-3.51a8.09,8.09,0,0,1,2.55-1c2.27-.65,4.55-1.31,6.86-1.82,2.62-.57,5.27-1,7.92-1.45.63-.1.64-.29.48-.76-.46-1.31-.88-2.64-1.32-4l1.16-.22c.1-.57-.47-1.37.57-1.73.22-.51.45-1.05.68-1.6a.44.44,0,0,0,0-.28c-.17-.46-.16-.8.51-.84.09,0,.21-.24.23-.38,0-.32.05-.64.54-.43l.28-1.18,1,.66-.26-1.21,1-.47-.21-.86.14-.07.65.82.08,0-.18-1.09.24-.07c1.83,2.33,2.91,5,4.19,7.66l-.36.35.84.27c.12.41.18.72.29,1,.27.66.58,1.31.83,2a2.09,2.09,0,0,1,0,.68l.92-.31c.23.42.61.24.87,0a8.8,8.8,0,0,1-.74-1.25,9.74,9.74,0,0,0-1.89-3.48c-.48-.5,0-1.09.31-1.49a17.18,17.18,0,0,1,2.11-2.1c1.07-.9,2.22-1.73,3.33-2.6.61-.48,1.19-1,1.78-1.47a1.62,1.62,0,0,1,2.22,0l-.73-.09c.86.57.31,1.06.23,1.33.41.7.75,1.23,1,1.78s.43,1,.63,1.49a10.57,10.57,0,0,1,.47,1.21c.12.43.47.59,1.13.28a4.38,4.38,0,0,1-.19.74c-.28.6-.11,1,.37,1.21.16.44.27.79.42,1.13.25.59.5,1.18.81,1.75a.77.77,0,0,0,.58.33c3.88-.31,7.75-.72,11.64-.95,3.31-.2,6.63-.2,9.94-.28.06,0,.14,0,.19,0,.28.16.74.3.78.5.08.44-.41.33-.72.42s-1.06-.13-1.34.5c-.06.13-.46.13-.7.22-.5.19-1,.42-1.47.6s-1,.31-1.5.48c-.26.09-.52.19-.78.29ZM391.4,90.36l0-.13-.9-.39-1.16-.1v.36c.58.13,1,.25,1.49.33A2.44,2.44,0,0,0,391.4,90.36Zm-12.31-6.29,1.59-.38C380.51,83.24,379.61,83.36,379.09,84.07Zm-3.38,4.51c.46-.46.41-.59-.46-1Zm5.13-3.12.2-.11c-.17-.29-.33-.57-.52-.85,0,0-.27.13-.42.2Zm1.74-.61.08.16.5-.14c.15,0,.3-.07.44-.12s0-.19,0-.2a1.18,1.18,0,0,0-.53,0A1.75,1.75,0,0,0,382.58,84.85Zm-6.82-49-.09.16,1,.48C376.5,35.82,376.34,35.73,375.76,35.8Z"/><path class="cls-1" d="M389.53,95l-.37-.73-3.77-.05.48-.49h-.33l-.73-1.53-.25-2a8.83,8.83,0,0,1-.81-4.66c-1,3-3,6-2,10-2,0-2-2-2.94-2.76l-2.36-.72-1.7,1.72-.75-1.7-.51.05-1.38-3a3.61,3.61,0,0,1-1.42-1.4,2.9,2.9,0,0,1-.37-1.06c-2.56-3.11.44-6.11-.56-9.11-4,2,1,8-4.69,8.6-.59-1.94-.94-2.84-.94-2.84a20,20,0,0,1,1.38,2.84c.25,1.39,1.25,1.39,1.25,2.39-.25-.75-.5-1.44-.73-2.09-.27-2.91-2.27-4.91-2.5-7.43l-.6-.88a17,17,0,0,1,1.57,3.24c.26,1.16.26,2.16,1.26,3.16,1-5-2-9-2.78-13.24a20.9,20.9,0,0,1-.4-3.91c1.18-2.85-1.82-5.85-.82-8.85-2,2-1,6-3,8-2-3,0-8-1.65-11.49-.22-.69-.44-1.24-.64-1.78a18.36,18.36,0,0,1-2.3-.05,12.88,12.88,0,0,0-1.53,0,15.64,15.64,0,0,0-2.13.34l-1,.19c-.39.07-.79.16-1.14-1.2-1.63,1-1.63,2-2.63,4-2,1-2-2-3-2.55a5.14,5.14,0,0,0-2.08-.32c-1.39.09-2.81.13-4.23.08l-.95,0a13.25,13.25,0,0,1-4.84-.7,3.6,3.6,0,0,1-1.75-6.19,9.06,9.06,0,0,1,1.16-1.25l1-.87c1-.94,2.13-1.91,3.35-2.8a9.72,9.72,0,0,1,3.27-1.41l.92-.26c1-.29,2.08-.59,3.14-.88s2,2.25,2.94,1.1c.74-.93,1.63-4.39,2.72-3.62a3.59,3.59,0,0,0,2.87.71l-.07-.22L348.75,33l2.37-.45a3.55,3.55,0,0,1,.86-1.17l.06-.13a3.34,3.34,0,0,1,1.31-2.85,3,3,0,0,1,.47-.65l.23-1-.09-.41.21-.09.61-2.53.77.52v0l2.38-.68,1.27-.66.2.25.69.62c-1.32,3.76,4.68-1.24,3.62,2.88.38,1.18.65.94.92.71.74-.63,1.5-1.2,2.23-1.76l1.18-.91c.34-.27.68-.55,1-.83l.73-.6a4.87,4.87,0,0,1,3.67-1.06,4.16,4.16,0,0,1,2.87,1.64l2.52,3.42L381,26.26l-.74,3.05.14.2-.19,0-.69,2.87.25.68c.07.19.13.36.2.53l.06.13,2.59-.23c2.43-.22,4.94-.44,7.44-.59s4.73-.18,7-.22a2.59,2.59,0,0,1,2.83,1.63c2.81-4.71,3.81,1.29,5.81,2.29a5.88,5.88,0,0,0,3.93-2.41A2.63,2.63,0,0,0,412,35c2.28,0,4.62,0,7,.15a18.14,18.14,0,0,1,.81,2.51,3.45,3.45,0,0,1,1,2.89c2-3,2-6,2-10,1,1,2,1,2.22,3.42L427,36.15l.78,4.92s-1.32.34-2.73-2.69c-.32.2-1.32-.8-1.32-.8-2,4-1,8-2,12-1-1-1-3-1.91-3.75-.75-2.36-1.45-2.13-2.17-1.94s-1.16.3-1.74.44l-1,.25a4.45,4.45,0,0,1-.37.28,4.19,4.19,0,0,1-1.71.67l-2.23.33c-5.84-.28-2.84,4.72-7.84-.28-1,1-1,3-2.3,4.08-.74-.32-1.48-1.63-2.16-1.51l-1.3.2c-.55.08-1.11.15-1.65.27a9,9,0,0,0-.88.25,13.75,13.75,0,0,1-1.59.43c-1.74.33-3.51.65-5.36,1l.37,1.34.56,2c0,.07.05.15.08.22.09.25.18.5.25.75a4.67,4.67,0,0,1,.35,1.5l.11.19a4.42,4.42,0,0,1,.66,2.31,4.31,4.31,0,0,1,.5.85l.37.08.22,2a4.67,4.67,0,0,1,.12.92,3.57,3.57,0,0,1,.38,1.33,3.46,3.46,0,0,1,.16.95,3.26,3.26,0,0,1,.18.41s.24.85.44,2a61.3,61.3,0,0,1,.5,9.37c2-1,0-4,2-5,0,.5.5,1,.84,2.18a15.92,15.92,0,0,1,.16,2.82v-1c1,7,0,11,7,12l-1-1c-1,2-2,6-4,5-2,0-1-4-2-6a25.6,25.6,0,0,1-.28,4.77c-.2,1.3-.46,3.15-.75,5s-.63,3.59-1,5.26a8.76,8.76,0,0,1-1.68-2s-.69-1.57-1.4-3.71ZM389,86.7l.76.07-.2-.4,1-.32a3.72,3.72,0,0,1-.46-.82Zm-15.45-.23h0ZM369,76.5Zm18,7.82,2.87,0a3.33,3.33,0,0,1,.1-1.18,4.16,4.16,0,0,1-.32-2.18l-.17-.46-1.94-.86,1-1.68-2.09-2.69,1.5-.6a4.52,4.52,0,0,1,.25-.79v0L385,73.75l1.39-2.59L384,67.61s.64,1.77,1.14,1.82l.89-1.8a18.6,18.6,0,0,1-2.3-2.61c-1.31-1.74-2.33.82-2.33.82l1.4-4.13-.95,1.22,2.45-1.4s-1-2-1.86-1.63a2.65,2.65,0,0,0-1.69-.33c1-1,3-2,1.86-4.41l-.52-2c-.35-1.29-.7-2.58-1.07-3.86a3.5,3.5,0,0,1,.33-2.95,3.53,3.53,0,0,1,2.55-1.58c2.79-.46,5.36-.92,7.87-1.39a9.21,9.21,0,0,0,.92-.26,14.63,14.63,0,0,1,1.47-.4c.67-.14,1.34-.23,2-.33l1.14-.17a1.74,1.74,0,0,1,1.93.54c.52-.19,2.52,1.81,2.52-1.19,0,1,0,2-2,1.79-.6-1.14-1.2-1.75-1.79-1.72l-1.78.1c-.38,0-.76,0-1.14,0l-2.73,0-.66-2.91-1.19.06c-2.41.14-4.88.36-7.27.58l-2.75.24.5,2.23-9.36-4.65,1.86-3.43,0-.21a3.69,3.69,0,0,1-.76-1.45c0-.1-.12-.32-.2-.51l-.31-.75c-.11-.29-.22-.58-.37-.85l-.23-.42-1,.79c-.68.51-1.35,1-2,1.57q-.51.43-.95.87a16.78,16.78,0,0,1,1.23,2.71l.05.14L369,36l.33.52,1.31,2.19-1.95,1.65a1.83,1.83,0,0,1-1.69.15c-1.25.11-2.25.11-2.25,2.11-2-1-1-3-1.13-4A1.59,1.59,0,0,0,362,39.83a11.27,11.27,0,0,0-.28,2.42,13.76,13.76,0,0,0,0-1.67v-2a5.18,5.18,0,0,1-.25,1.88c-.46-.26-1.24.21-2.32,2.41a6.33,6.33,0,0,0-.11-2.46,9.83,9.83,0,0,0-.44-2.92c-.69-1.6-1.26-1.78-1.26-1.78l1.76-1.31-.52-.79-.11.44-.93-.4-.27.62-.47,1.09q0,.15,0,.31l-.3,1.7.33,1a3.49,3.49,0,0,1-.2,3.05A3.54,3.54,0,0,1,354,43.06l-.49.08-1.82.3-1.83.32c-1.1-.19-2.1-2.19-3.1-2.19-3,0,2,7-3.51,5.79-1-1.89-2-1.61-3-1.31l-.94.27a6.75,6.75,0,0,0-1.33.46c-.42.31-.84.65-1.25,1a38.24,38.24,0,0,0,4.66-.14c.77-.07,1.54.4,2.32,1.68,4.08.26,1.08-5.74,4.08-5.74a2.84,2.84,0,0,1,.77,2.28l2.67,1,.07.45c.33,0,.68-.08,1-.1a18.06,18.06,0,0,1,2.28.05,12.52,12.52,0,0,0,1.6,0,1.38,1.38,0,0,1,1.23.67,35.33,35.33,0,0,0,1.36,7.59c0-3,1-6,2-9,2-3,2,0,2,1a17,17,0,0,1,.58,2.25c1,5.25-.33,10.5,1.42,15.75-1-2,2-5,1-7,0,1,0,3,1,4v-4c2,2,0,5,2,7a6.16,6.16,0,0,0,.14,1.55,4.92,4.92,0,0,0,1,1.86c.47,2,.87,3.25.87,3.25l-.18,1.58,2.37-2.13-.17,7a4.18,4.18,0,0,1,.31.43L374.55,81l.25-.3.94,2,.51.19.43-.59a4.63,4.63,0,0,1,2.45-1.71c-.38,1,.62,4,1.62,4,3-2-1-7,3-9,0,2,1,4,1.58,6.22a13.27,13.27,0,0,1,.93,1.42l1.19.21Zm-30.15-31Zm-.58-.39Zm18.57-16.08-1.17.26a2.53,2.53,0,0,0,2.36,1.7,3.5,3.5,0,0,1-.65-.85C375.21,37.56,375,37.18,374.87,36.82ZM352.3,30.66h0Zm26.1-.08v0Zm-6.55-3.41-.39.29a2,2,0,0,0,.2.23Z"/><path class="cls-2" d="M392,81.71a21.87,21.87,0,0,0-.22,3.87v-2c0,5,0,9-2,14-2-1,0-4-1.92-5.76l-1,0-.36-.76-.79-.75A4.14,4.14,0,0,1,384,88.4a1.54,1.54,0,0,1-.79-.19c-.19-.11-.33-.77-.45-2.5,0-4.14,0-8.14-2-12.14-4,9,3,20-2,29,2-4-2-6-1.55-10.12a20.35,20.35,0,0,0-.32-2.32L376.5,90a2.25,2.25,0,0,0-.43-.12,1.24,1.24,0,0,0-.28,0l-.41.42-.14-.53c-.5-3.21-.5-5.21-1.5-8.21,0,3,0,6-2,8-1-1-1-2-1.37-3.11L368.49,83l1-.59-2.09-2.31h1.15a1.84,1.84,0,0,1,.07-.51,13.22,13.22,0,0,1-2-4.43,2.2,2.2,0,0,1-.86-1.49c0-.08,0-.15-.05-.22-.13-.45-.25-.89-.37-1.34a25.07,25.07,0,0,0-.95-3,14.34,14.34,0,0,1-.62-2.1c-.1-.4-.19-.81-.32-1.21s-.35-1-.54-1.54c-.13-.35-.26-.71-.38-1.06-.21-.6-.4-1.2-.6-1.79-.38-1.16-.77-2.37-1.23-3.51-.31-.79-.69-1.59-1.05-2.37-.47-1-1-2-1.35-3.12-.31-.89-.64-1.18-1.81-1.1a15.13,15.13,0,0,1-2.15,0,14.81,14.81,0,0,0-1.78,0c-.78,0-1.53-1.62-2.3-3.2-1.47,2.57-.47,5.57-3.47,7.57,0-1-1-2-.7-3.05a2.87,2.87,0,0,0-2.28-1.11,48,48,0,0,1-7.25.37l-1,0a2,2,0,0,1-2-1,4.68,4.68,0,0,0-3.75.83c2-2,1-6,4.18-6.7.53-.45,1.08-.9,1.65-1.31a8,8,0,0,1,2.62-1.09l.93-.26c1-.29,2-.58,3.09-.86s2.1-.55,3.15-.78c.39,1,1.39,2,1.39,3,2-2,1-5,4.14-5.58.7,1,1.34,1.3,2,1.2h0c-.28-.8-.54-1.61-.8-2.42l-.71-2.19,1.41-.27a1.73,1.73,0,0,1,.85-1.65l.47-1.1a1.51,1.51,0,0,1,.16-1.21,1.38,1.38,0,0,1,.69-.55,1.27,1.27,0,0,1,.61-.86l.06,0,.45-1.87.54.36.69-.31-.2-.83.76-.38,0-.19,1.74-.49.41.53a29.53,29.53,0,0,1,3.37,5.88,4.32,4.32,0,0,1,.34-.46q.47-.56,1-1.12c.15.66.33,1,.5,1.58,1.55,2,.55,5,.55,7,2-6,1-12,3-18,0,1,1,2,1.39,2.64.41,2,.64,1.83.88,1.64a2.92,2.92,0,0,1,2.15-.62,2.18,2.18,0,0,1,1.51.84s.08.47.18,1.86c-.11,3.64,1.89,8.64.89,12.64,1-4-1-8-1-11.68-.13-.74-.22-1.14-.22-1.14l0,.09.11.18c.14,4.54.14,9.54,2.14,14.54,2-5,1-9,1-14v6c0-3-1-7,1-10a54.22,54.22,0,0,1,2.07,12.06l2-.18c2.42-.21,4.92-.44,7.38-.58.58,0,1.13.56,1.65,1-.11.65.89,2.65.89,3.65,1-3,1-6,3-8,0,1,0,2,1.18,2,1.11-.46,2.24,1,3.25,1a1.11,1.11,0,0,1,.71.13l.2.1a1.6,1.6,0,0,1,1.07,1.1,1.27,1.27,0,0,1-.23,1,1.48,1.48,0,0,1-1.12.52h-.12c1.59-.09,3.18-.18,4.76-.25,2.82-.13,5.78-.24,8.82-.21a3.07,3.07,0,0,1,2.26.79c.23,3.76,1.23,6.76,2.23,10.76,0-5-1-11,3-16,0,2,2,3,2.6,3.84l.91,1.38.28,1.79A4.17,4.17,0,0,1,423.76,38c-2-1.4-1-4.4-2-4.4-5,5,0,12-3,18-1-2-1-5-1.6-6.73-.56-2.06-1.11-2.59-1.67-2.46s-1,.25-1.56.39l-.1.1a3.17,3.17,0,0,1-.4.33,2.21,2.21,0,0,1-.89.35l-2.22.33c-1.33.19-2.65.39-4,.61-.5.08-1,.22-1.52.36s-.8.21-1.2.3-1,.2-1.57.28l-.84.14-1.25.23c-.67.13-1.32-1.29-2-1.69-.22-1.54-1.22-3.54-2.22-3.54-3,3,1,9-2,13-2-1-2-3-2.11-4.72a3.36,3.36,0,0,0-1-1.2c-1.83.34-3.71.67-5.7,1,.33,1.15.64,2.31,1,3.47l.56,2.05c0,.13.08.26.13.38a6,6,0,0,1,.21.66,1,1,0,0,0,.06.16,2,2,0,0,1,.1,1.45h.21l.27.46a2,2,0,0,1,.24,1.91c.12.11.23.22.34.35,1.67,7,.67,13,.67,20v-2c3-4-2-10,3-14,2,4,1,7,1.4,11,.49,2.59.42,3.08.14,3.47a1.89,1.89,0,0,1,.35.52,2.14,2.14,0,0,1,.16.83c0,.07,0,.13,0,.21l.07.7-.16.08.32.87-.36.36.08.16a3,3,0,0,1,.31.85l0,.12a2.35,2.35,0,0,1,.05.67l.25.31a1.26,1.26,0,0,1,.45.87c0,.31,0,.62,0,.94l.65.15-.3,1c0,.06,0,.13.21.25l1.92,1.14-2.1.66,0,.07.28.05-.07.35,0,.06,2,.18L395.36,91l-.25.17a2.07,2.07,0,0,0-.23.17l-.07.15-.17.32-.29.53-.92,0c-.3-2.35-.6-5.14-.6-5.14a71.12,71.12,0,0,0-.5-8Zm-3.6,11.9c.38,1,.38,3,.38,2,4-6,3-13,3-20,3,3,0,6,1,9v-9a89.09,89.09,0,0,0,.42,10.71c.06.66.1,1,.1,1l0-.11s-.05-1-.11-2.19c-.38-6.41.62-12.41-2.38-18.41a12.68,12.68,0,0,1-1,6c0-1,1-2,1-3-2,3,0,6,0,9a3.67,3.67,0,0,1-1-3c0,3,2,7,1,10a3.67,3.67,0,0,0-1-3v4c-1-1-1-3-2-4,0,1,1,3,1,4,1-5-2-11-1-16.47-.11-.64-.19-1-.19-1s.14,1.12.26,2.95c0,.5,0,2.5,0,3.5,0-2,0-5,.18-7.32a5.16,5.16,0,0,0-.11-1.78,5.36,5.36,0,0,1-.47-.35L386,65l1.07-.35-.25-.08a1.49,1.49,0,0,1-.62-.52l-.61-.81.74-.7.16-.13a1,1,0,0,1-.1-.29,2,2,0,0,1,.13-1.23,6.44,6.44,0,0,0-.55-.51l-.35-.3-1-.9.92-.56a1,1,0,0,1-.41-.57l-.06-.2a1.87,1.87,0,0,1,0-1.64l0-.07a3.23,3.23,0,0,1-.15-.44,3.94,3.94,0,0,0-.15-.44c-.07-.18-.13-.36-.18-.55L384,52.64c-.35-1.3-.71-2.59-1.08-3.89a1.59,1.59,0,0,1,.1-1.33,1.65,1.65,0,0,1,1.18-.67c2.45-.41,4.74-.81,7-1.22a31.45,31.45,0,0,1,1,4.27c-.44.78-.44,3.78,1.56,2.78,3-4-1-10,2-14,2,1,2,4,3.84,5.27l1.26-.23.87-.15c.49-.08,1-.16,1.46-.27s.74-.18,1.1-.28c.55-.15,1.12-.3,1.71-.4,1.33-.22,2.68-.42,4-.62l2.21-.33a.81.81,0,0,0,.22-.16,2.06,2.06,0,0,1,.87-.55c.57-.16,1.14-.29,1.72-.43a1.43,1.43,0,0,1,1.58.29,42.54,42.54,0,0,0,2.15,9.85c-1-4-2-7-2.29-10.86a3.34,3.34,0,0,0-2.23-.69c-3,0-5.91.08-8.69.21l-3,.15-3,.17c-1.85-1-2.85-3-3.85-5-2,4-2,8-2,12,0-5-2-10,2-14,1,0,1,2,1,3-1-1,1-3-1-2-2,2-2,6-2,9-2,0-2-2-1.83-2.81-.48-2.16-1-2.93-1.59-2.89-2.44.15-4.92.37-7.33.58l-2.15.19c-1.11-4.07-.11-8.07-2.11-12.07-2,6,1,13-3,18,0-1-1-3-.69-3.71-.49-2.58-.75-3.48-.75-3.48l.93,3.47c2.51.71-1.49,3.71,1.51,4.71a32.29,32.29,0,0,1-1.89-10.49,14.74,14.74,0,0,0-.31-2.43,6.36,6.36,0,0,0-.3-.78l-.29-.7c-.14-.34-.27-.69-.44-1s-.39-.7-.62-1.09l-.6-1,.13-.42a1.85,1.85,0,0,1,.17-.37.83.83,0,0,0-.3.15l-.69.57c-.37.31-.73.61-1.36-2.05-.49-1.35-1.49-1.35-1.49-2.35-2,7-2,13-2,20-2-3,0-7-2-10,3,5-1,11,3,15v2c-3-2-1-6-2.94-7.8l-.93-2,.07-1.46c0-.14,0-.26,0-.37v0c-.12-.31-.25-.61-.39-.91s-.27-.61-.39-.92a5,5,0,0,1-.19-.6l-1.9-.62,1-1-.46-1a40.65,40.65,0,0,0-2.26-4.36l-.59.32-.14-.14-.15.07.62,2.86-1.86-1.25-.22.93-.47-.2a1.34,1.34,0,0,1-.5.5,1.54,1.54,0,0,1-.14.64l-.54,1.28-.32.74-.36.13,0,.11a2.62,2.62,0,0,1,0,.87l-.12.68-.72.14v0c.31,1,.62,1.91.95,2.85a1.57,1.57,0,0,1,0,1.37,1.67,1.67,0,0,1-1.23.71l-.49.08a5.84,5.84,0,0,1-1.86-.26c-3.56-2.34-1.56,5.66-5.54,3.61-1-1.77-2-1.51-3.05-1.24s-2,.57-3,.85l-.93.27a6.49,6.49,0,0,0-2,.78c-.53.39-1,.81-1.56,1.25a2.88,2.88,0,0,1-1.49.89c-1-.73-1-.73-1.54,0,1,.87,2.14,2.43,3.36,2.44l1,0a47.76,47.76,0,0,0,7.25-.39,3.5,3.5,0,0,1,2.4,2.2c5.51,0,.51-6,3.51-7a7.6,7.6,0,0,0,0,.79c.84.66,1.7,3.9,2.63,3.85a16.59,16.59,0,0,1,2,.05,13.88,13.88,0,0,0,1.88,0,3.34,3.34,0,0,1,3.84,2.42c.35,1,.8,1.94,1.27,2.94.38.8.77,1.63,1.1,2.48.48,1.2.88,2.44,1.27,3.63.19.59.39,1.18.59,1.77.12.34.24.68.37,1,.21.55.41,1.1.58,1.65s.24.88.35,1.33a12.57,12.57,0,0,0,.53,1.81,27.16,27.16,0,0,1,1,3.26c.12.43.23.87.36,1.3,0,.12.06.24.09.37s0,.17.06.24l.78.2-.07.79a17.7,17.7,0,0,0,1.11,2.89L370.8,82a7.91,7.91,0,0,0,1,4.61c0-1,1-2,1-3,0,1-1,3-1,4,1-3,2-6,2-9,0,1,1,2,1,3v-2a20.35,20.35,0,0,0,.55,5.49l.41,1.59c.16.08.34.17.51.28l.06-.09,0-.06-.12-1.08.48-.05.25-.34c.07,1.5.16,2,.26,3.18.55,3.1.55,7.1,1.55,10.1,2-9-1-17,1-26,3,2,3,5,2.86,8.35.12,1.32.23,2.24.23,2.24l-.12-.36a2.56,2.56,0,0,0,.11.72,1.86,1.86,0,0,1,.86,0,1.08,1.08,0,0,1,.92,1.05l.06.77-.41.18-.19.4a1.37,1.37,0,0,1,.2.37,1.56,1.56,0,0,1,.48,0h.11l2,0-1,1.33a1.8,1.8,0,0,0,.84.9l.39.2.37-.33.42,1.92Zm-9.74,6.19c-1.88-4.23.12-8.23-1.51-12.51C377,86,377,85.61,377,85.61s.07.39.17,1.58c2.63,4.38-1.37,8.38,1.44,12.51Zm-8.12-12.75Zm-2.08-12.48v0Zm0-.08ZM388,67.06Zm.3-5.16h0Zm-1.18-4.42h0Zm-.31-.19h0ZM376.67,46Zm2-22.49Zm-.39,1.11Zm-24.08,7.23h0Zm23,9.49Zm-.61,1.23Zm-21-12.91h0Zm17.07-3.45a.5.5,0,0,0,0,.09l0-.1Z"/><path class="cls-1" d="M474.72,93.71l-.12-.17.07.26Z"/><path class="cls-1" d="M533.09,57c-.62-1.31-2-2.12-2.93-3.18a25.46,25.46,0,0,0-2-1.76,1.26,1.26,0,0,0-.38-.25c-.39-.15-.81-.26-.41-.66-.26.13-.61.28-.91.48s-.23.31-.39.43a5.73,5.73,0,0,1-1,.66c-.37.18-.8.25-1.18.42-.14.06-.22.27-.38.49l-.37-.36c-.5,0-1,.58-1.52.23a6,6,0,0,1-2.76,1c-.44.1-.86-.15-1.34.2-.06,0-.28-.12-.44-.12a6.71,6.71,0,0,0-.87.1,2.2,2.2,0,0,0-.56.15c-.37.11-.73.25-1.1.32-.06,0-.12-.24-.21-.44a5.31,5.31,0,0,1-.7.32q-1.11-1.86-2.31-3.66a63,63,0,0,0-7.77-9.65c-1.72-1.72-3.36-3.65-5.14-5.17a71.54,71.54,0,0,0-12.05-8.72,14,14,0,0,0-5.49-2,50.42,50.42,0,0,0-6.53.12c-2.38.18-4,1.7-5.41,3.56a23.49,23.49,0,0,0-3.45,6.53c-.63,1.85-1.22,3.74-1.71,5.7a35.81,35.81,0,0,0-.93,8c0,2.33-.11,4.67.07,7.08.06.81.15,1.63.22,2.44L462,59.25c-.2,0-.38-.12-.58-.13s-.59,0-.87,0c-.47,0-.78.31-1.16.47-.55.23-.81.61-.67,1,.07.21.16.42.24.62s.11.19.08.22c-.71.6,0,1,0,1.48a3.17,3.17,0,0,0,0,1.17c.12.59.35,1.15.45,1.75a2.41,2.41,0,0,1-.11,1.42c0,.08,0,.18.06.26l1,1.95a.69.69,0,0,0,.16.23c.28.22.59.42.84.66a1.51,1.51,0,0,0,1.47.07,6.87,6.87,0,0,1,1.67-.25c.2,1,.41,2.07.62,3.1.34,1.66.73,3.33,1.16,5,.48,1.84,1,3.68,1.56,5.52.34,1.11.76,2.22,1.18,3.32.22.58.53,1.15.85,1.82l.27-.59,2.14,2.66,0-.93a2.83,2.83,0,0,1,.51.78,5.47,5.47,0,0,0,.37.76c.45.64.92,1.26,1.39,1.88l-.23-.81.16,0,.81,1.42a4.2,4.2,0,0,0-.18-1.63,1.28,1.28,0,0,1,0-1.25l.64,1.44.18,0-1.11-4.31c.65.35.48,1,.92,1.61l-.25-2.64.65,1.08.12-1.5L476,85.63l.17,0,.52.54.07-.57c.75.4.95.31.89-.36l.79.15-.91-1.79a2.76,2.76,0,0,0,.62.16c.11,0,.25-.11.25-.22,0-.45-.14-.93-.16-1.38,0-.84-.53-1.78-.32-2.58.14-.52.24-.63.73-.16.17.16.36.28.63.49,0-.58-.06-1-.1-1.41a66.74,66.74,0,0,1-.58-6.81s-.21-1-.44-2.73l4.36-.23c.49,0,1,0,1.25-.61l-.47-.34.09-.13a1.76,1.76,0,0,1,.59.11,9.15,9.15,0,0,1,.87.72c.07.06.12.16.22.2a3.17,3.17,0,0,0,2.59-.71l-.38-.28a2.71,2.71,0,0,1,.6-.2c.1,0,.27.14.24.2-.21.58.09.68.69.74a2.43,2.43,0,0,0,1.43-.28,2.18,2.18,0,0,1,.59-.12c.06.42.49.4.87.39.87,0,1.76-.08,2.64-.13.07-.5-.09-.6-.67-.55s-.93,0-1.39,0v-.19a1.77,1.77,0,0,1,.51-.18c1.24,0,2.47,0,3.7,0,.43,0,.89-.1,1.32-.11.77,0,.78,0,.33.64a6.22,6.22,0,0,1-.48.51l1.17-.12,10.25.11a5.4,5.4,0,0,0,1.49-.25l.11.22.16-.35,1.1,2.15.33-.39,1.42,3.87c-.45-1.5,0-2.87-.92-4.48a.78.78,0,0,1,.44.31c.46,1,.9,2,1.32,3s.85,2.09,1.27,3.13c0,.09.12.23.16.24.63.07.71.74.94,1.25a15.39,15.39,0,0,1,.88,2c.46,1.7.82,3.4,1.23,5.12.4.3.48,0,.45-.32-.06-.69-.14-1.4-.24-2.1-.14-.9-.31-1.8-.46-2.68.8.29.09-.64.35-.88.08.33.12.59.2.85a10,10,0,0,0,.48,1.51c.09.2.46.27.67.47a1.74,1.74,0,0,1,.42.64c.2.62.33,1.24.52,1.86.25.82.52,1.65.77,2.47,0,.07,0,.14,0,.2a6.14,6.14,0,0,0,.79,1.59,4,4,0,0,1,1.29,2.68c0,.72.12,1.48.18,2.22l.15.07c0-.12.05-.23.07-.36,0-.29,0-.59.08-.88a3.5,3.5,0,0,0,.09-.47c0-1.21.05-2.39-.07-3.64-.21-2.14-.45-4.29-.82-6.47a69.74,69.74,0,0,0-3.29-11.6c-.27-.76-.84-1.48-1.19-2.25l0-.08a2.61,2.61,0,0,0,.57-.07,11.84,11.84,0,0,1,1.88-.24l2.46-.25-.07.36c.18-.12.35-.18.4-.28a.6.6,0,0,1,.8-.25,1.08,1.08,0,0,0,1.37-.2c.08.32.3.32.55,0s.58-.46.91-.15c.09.08.51,0,.67-.1a4.46,4.46,0,0,0,.68-.76l-1.25-.15a3.71,3.71,0,0,1,2.12-1c.26,0,.53-.06.79-.11a2.39,2.39,0,0,0,1.84-1.28A6,6,0,0,0,534,59,9.26,9.26,0,0,0,533.09,57ZM478.68,78.7c0,.12-.19.28-.25.23a8.32,8.32,0,0,1-.73-.7l.76-.36A5,5,0,0,1,478.68,78.7ZM490.8,68c-.08-.06-.14-.15-.24-.16-.46,0-.94,0-1.4,0a8.12,8.12,0,0,1-.84-.12l.1-.24,1.29,0a1.66,1.66,0,0,0,.56,0c.66-.23,1-.18,1.41.23Zm5.2-9.16-.5-.34c.16-.16.32-.42.5-.46a8.31,8.31,0,0,1,1.48-.17c.09,0,.15.19.17.22Zm4,8.91c-.35.07-.7.1-1.22.17,0-.13,0-.31.12-.44a.86.86,0,0,1,.48-.15,2.63,2.63,0,0,1,.7,0c.12,0,.18.15.27.22A1.46,1.46,0,0,1,500,67.76ZM503.25,57c-.12,0-.33,0-.35-.06a2.07,2.07,0,0,1-.09-.56l-.51.05.32.8c-.5,0-.85,0-1.21,0a2.61,2.61,0,0,0-.59.2l0,.13.55-.12c0,.16.12.34,0,.49a.89.89,0,0,1-.52.26c-.63.11-.86-.15-.85-.65,0-.14-.21-.36-.26-.34a4.42,4.42,0,0,0-.7.39l.92.66-.14.16c-.56-.28-1.62.33-2-.55l.69,0,.08-.17a8.45,8.45,0,0,0-1.38-.22,9.54,9.54,0,0,0-1.65.19c-.51.09-1,.24-1.55.36v.21a1.47,1.47,0,0,1,.53,0,2,2,0,0,1,.48.36,2.79,2.79,0,0,1-.66.24c-.74.06-1.47.07-2.2.12s-1.49.18-2.22.19a2,2,0,0,1-1-.34c.57.1,1.17-.57,1.73-.2.11.08.37,0,.56,0,.65,0,1.35-.44,2-.16.05,0,.26-.15.55-.33a3,3,0,0,0-.8-.15c-.9.1-1.81.25-2.71.36a6.75,6.75,0,0,1-1.29.06c-.52,0-1.11.23-1.59,0-.15-.08-.57.18-.86.21-1.2.13-2.39.22-3.59.34-.48,0-1,.17-1.21-.26-.54.51-1,.71-1.47.56-.14,0-.15-.29-.28-.55l-1.21,0-.07.16.42.4c-.46.05-.94.31-1.1-.22a.34.34,0,0,0-.46-.27c.26-5.7,1.58-12,5.53-15.84a2.5,2.5,0,0,1,.17-1.17c.06-.22.25-.33.38-.49a8,8,0,0,1,6.8-3.22,2,2,0,0,1,2,1.5c.26-.44.45.11.6.32,1,1.45,2,2.91,3,4.37.77,1.13,1.57,2.24,2.32,3.39,1,1.52,2.05,3,2.92,4.62.76,1.4,1.49,2.81,2.21,4.22h0Z"/><polygon class="cls-1" points="473.84 101.66 471.64 93.72 473.7 93.12 471.92 91.88 471.97 91.79 473.82 93.09 476.95 92.19 478.38 94.11 473.84 101.66"/><path class="cls-1" d="M478,105.17c-.08-1.08-1-2.74-2-4.4l-1.9-3.32L471.31,94l-1,2.22-3.1-6.56-.27-.56c-.23-.47-.47-1-.68-1.5-.48-1.25-.91-2.38-1.27-3.56-.3-1-.58-1.94-.81-2.82a19.57,19.57,0,0,1-.64-2.6,8.5,8.5,0,0,1-.56-2.45,7.39,7.39,0,0,1-.55-2.52,5.22,5.22,0,0,1-2.82-1.33l-.43-.3a10.1,10.1,0,0,0-1.25-1c.3.17,0-.52-1.11-1.76.61.36.27-.3-.59-1.69a15,15,0,0,0-.64-3.77c.85,1.64.79,1.47-.13-.61.76,1.54.66,1.17-.22-1.09.7,1.36.66.88-.31-2.18.73,1.84.72,1.21-.33-2.81,1,2.82,1,2.06-.08-3.59,1.63,4.27,2.2,3.64,3.06,2.36.11.86.15.83.07.1.44.5,1.16,0,2.24.08-.14-2.18-.1-4.26-.07-6.28v-.77a38,38,0,0,1,1-8.6c.45-1.8,1-3.67,1.76-5.89a25.88,25.88,0,0,1,3.77-7.14c.72-1,1.61-2,.85-10.66,3.08,7,4.5,6.34,6.28,6.2,1.33-.1,2.55-.16,3.69-.18s2.2,0,3-.75c1.46.88,2.66,1.19,3.71.85a14.54,14.54,0,0,0,3.52,2.39c1.62.88,3.2,1.87,4.7,2.89s3,2.15,3.73.31c2,4,3.21,5,4.33,5.74a25.06,25.06,0,0,0,1.92,2.05c.61.61,1.2,1.23,1.52,1.12.82,1.33,1.38,1.93.74-2,2.18,5.5,3.12,6.51,3.44,4.11,1.54,4.55,2.45,5.69,3.36,6.77.91,1.32,1.81,2.6,2.71,3.94l.5.76s1.07-.61.54-.9c.54.3,1.12,1.56.45,1.58.8,0,.93,0,.12,0,1,0,1.11,0,.11,0,1.58-.14,2-.13,3.08-.27-.8.16-.73.14.15,0-.14,0,.29-.11.6,0,0-.33,1.52-1.62,1.52-1.62l1.63,1.1c-.6-.55-.41-.58.42-.36-.63-.23-.59-.23,0,0-.42-.29-.21-.36.28-.38-.18-.07-.08-.09.14-.12,0-.06.12-.17.28-.29a2.71,2.71,0,0,1,.72-.68,8.67,8.67,0,0,1,.91-.49l.19-.09s1.08,1.26.9-.57c2.34,4.35,3.43,5.61,1.27-5,2.58,10.18,2.83,9.27,1.86,2.81.11,4.17-.92,3.5-3.63-4.57,2.22,7.88,2.39,7.95.1-.65,3,8.87,3.59,9.3,3.35,4.52.74,5.22.91,5.37.91,2.5.73,3.47,1.35,4,2,4.65.18.2.46.45.76.71a11,11,0,0,1,2.86,3.47h0l.21.42a8.92,8.92,0,0,1,.95,2.42,8.13,8.13,0,0,1-1.09,5.33,4.69,4.69,0,0,0-.77,2.68c-1.12-.68-1.79-.4-.59,9.64-2-9.87-2.43-9.36-1.52-2.75-1-6.54-1-6.47-.44-1-.83-5.13-1.1-4.78-1.52-3.71-.46-.44-1.24-.14-2.06-.18a3,3,0,0,1-1.43.32c-.42.11-.86.15-1,1.15-.28-1-2.43.37-2.43.37a66.51,66.51,0,0,1,2.78,10.27c.41,2.43.66,4.75.85,6.69.1,1,.09,2,.14,2.52-.06.73-.07,1.05.07.61-.12,1.18-.2,1.51,0,.35-.24,1.43-.25,1.53,0,.14-.27,1.48-.31,1.94,0,.24-.34,1.87-.37,2,0,.2L527,97s-1.34-.63-2.75-1.14a2.5,2.5,0,0,0-1.68-.55c-.47.14-.7.79-.48,2.42l-1.27-9.31c.39,2.72.33,2.14-.16-3.32.48,4.82.43,4.73-.51-1.08,0,4.88-.37,4-2.64-2.59,1.34,5.85.63,5.55-.15,4.82.13.23-1.05-.65-1.06-.75,0,.1-.65-2.68-.65-2.7-.14-.6-.28-1.19-.42-1.78s-.29-1.17-.44-1.75a7,7,0,0,0-.35-.79l-.3-.63A4.44,4.44,0,0,1,512.91,76a7.85,7.85,0,0,1-.48-1.15c0,.09,0,.06,0-.1,0,.12-.76,1.05-1-.36.27,1.41-.06.74-.32-.53.25,1.27.06,1.7-.32-.13.38,1.83-.13.81-.85-1.13-.3-.11-.81-1.14-.83-1.2a6,6,0,0,1-1.46,0l-3.24,0c-2.36,0-4.71-.05-4.9,1.9.19-2-1-1.84-2.5-1.68l-7.69.77.94-1a5.92,5.92,0,0,1-1,0,6.06,6.06,0,0,1-.73-.11,7.94,7.94,0,0,1-1.61.46c-.83,0-1.5,0-1.35-.38-1.33.29-1.81.32-1.34-.13-.76.46-2,.52-1.81-2.54-.36,3.07-.56,3.08-1.7-.5,1,3.59,1,3.87.44,2.05.58,1.82.57,2.14.28,2.25.28.53.32,1.21.61,7.28-.17-4.64-.08-3.9.48,3.06-.39-5.44-.3-4.69.25,1.51-.45-5.16-.43-4.87,0,.26-.41-4.79-.3-3.26,0,.72-.09-.91,0,.62.05,1,0-.43-1.4-1.48-1.4-1.48l0,.08,1.09,2.13c.54,1.07,1.09,2.13,1.09,2.18a18.49,18.49,0,0,0-2-.42,14.09,14.09,0,0,1-2-.43c0,.05-.13,1-.14,1.63-.23,1.4-.35,2.4.2,2.1-.55.3-.48,1,.2,1-.68,0-.15,2.07.67,2.91-.82-.84-1.15-.79,0,.73-1.19-1.52-1.08-.4.82,4.67-1.69-2.83-1.59-1.71.68,4.85-2.27-6.57-3.81-8.63-1.55,1.71-2.26-10.34-2.36-8.75-1.82-2.15C478,102.49,477.87,104.08,478,105.17ZM470.68,83s1.77,1,1.76.94-.25-.84-.25-.84,1.7-.25.07-5.24c1.63,5,1.65,4.81,0-.45,1.68,5.26,1.23,4.38-.21.65.55,2,.1,1.11-.25.16.35.95,3,1.7,1.86-4.57,1.13,6,1.12,5.75.17.07,1,5.4-1.14,3.31-2.16-.3,1,3.61,1.81,3.24,2-.63,1.42,3.12,2.21,2.75,2.2,2.7-.07-.65-.15-1.36-.21-2.07s-.1-1.42-.09-2.13c-.09-.46-.24-1.37-.41-2.61l-.34-2.56,2.53-.15c1.08-.06,2.15-.12.93-11.79,2.29,11.62,2.38,11.59.16,0,2.23,11.62,3.17,10.28,1.53,1.21,1.63,9.07,3.23,9.34,2.64,4.39.94,5,1.57,5,2.31,4.59,0,.82.9.48.9.47l.23-.08.08-.21h2.16l.77,0c.9-.26,1.7-.22,2.84,1.85-.25-1.92,0-2,.5-1.07.14-.88.54-.88.93-.87h.63c.63,0,1.25,0,1.88,0l.36,0c.3,0,.61-.07.74-.22.52.14.86.16.17-1.14,1.13,1.33,1.26,1.32,0-1.06,1.92,2.32,2.44,2.34,2.77-1.75a12.14,12.14,0,0,0,1.07,3.93,2.59,2.59,0,0,0,1.23,1.09c-.16.15,1.2.16,2.74,1a5,5,0,0,1,2.57-.81,10.9,10.9,0,0,0-.83-1.31c-.09-.27,2.13.57,2.13.57s.41-.91.89-.72c.35-2,.76-2.92,1.4,2-.65-5-.19-4.07,1.37,3.12-.65-5.4-.19-4.5,1.1,1.72-1.29-6.22-.47-7.2.63-3.18-1.1-4,.08-.8.82,1.79.3-2,.81-1.12,1.12-.51a10.18,10.18,0,0,0,1.13,2.2c.43,1.43.7,2.1.81,1.86.16.92.23,1.09.07.18.22,1,.28,1,.22.37.12.74.76.14.76.13-.22-.67-.44-1.34-.66-2s-.45-1.29-.67-1.91a7,7,0,0,0-.35-.62,13.54,13.54,0,0,1-.73-1.35l-.78-1.73c-.42-.94-.83-1.83-.65-1.45-.18-.38.72-.42,1.62-.47s1.8-.08,1.87.83c.58-1.08,1.2-1.13,3.44,6.63-1.59-7.82-1.45-7.83.61-.47-1.3-7.44-.68-7.5.24-5.85-.29-1.71.17-1.75.6.95.11-2.94.73-3,2.29.13-.9-3.06-.05-3.74.8-4.43l1.71-1.37.16.65c.28-.07.58-.13.6.23.28-.4.41-.41.07.11.51-.55.67-.56.29.6.69-1.23.74-1.26.16.34,1.23-2.9,1.33-3.42,1.31-3.63,0-.06-.16-.33-1.41-2.79,1,2,.9,1.79-1.09-2.16q2.82,5.57,0,0c1.8,3.56,1.28,3.1-.54.72,1.11,1.74.64,1.32-.29.28.33.41.18.26-.16-.07a.74.74,0,0,1-.5.56,5.87,5.87,0,0,1-.82.32s-1.79,2.36-1,4.22c-.76-1.86-2.26-3.32-.74,2.13-2.37-5-3.22-4.85-2.58-.67-1.32-4-1.59-4,.11.79-2.06-4.69-2.4-4.68.11,5.58-3.16-10.11-3.74-10-4.53-7.73,0-2.43,0-2.42,0-.11.06-2.31-.48-2.15-.56-1.42-.29-.62-.66-.5-1-.43l-1.2.24-.2-.12s-1.66.66-1.13,1.54c-.53-.88-2.21-3.69-1.41-2.42a29,29,0,0,1-1.59-2.66c-.66-.95-1-1.53-2.44-3.72-.17-.17-1.36-1.8-2.65-3.41-.56-.69-1.15-1.38-1.74-2A7.4,7.4,0,0,1,501.82,43c-.8-.05-1.42-.71-2.49-3.66-.07,1.73-.58,1.19-1.59-1.68,0,1.86-.49,1.38-1.41-.52-.6.6-1.74-.35-3-1.32s-2.51-1.94-3.84-2.87a12,12,0,0,1-4.31-4.57c-.46,1.66-1.18,1.29-3.67-7.31,1.12,8,.46,7.82-.84,5.55-.15,2.19-1.08,2.18-2.09,2.2s-2.1.07-3.3.16a3.56,3.56,0,0,0-1.76.65c-.66.5-1.27,1.14-1.1,3.12-1.51-.18-2.12.77-2.67,3.91-.49-1.18-.92-.16-1.29.91-.71,2.09-1.24,3.84-1.65,5.51a33.07,33.07,0,0,0-.85,7.45v.78c0,2.08-.07,4,.07,6.06,0,.51.09,1,.14,1.55l.33,3.6-3-.19-1.08-.08-.31,0a2.53,2.53,0,0,1-.11.71,3.31,3.31,0,0,1,0,1.2h0s0,0,0,.13.09.37.15.55a11.39,11.39,0,0,1,.32,1.28,6.08,6.08,0,0,1,.09,1.26c.39-.05.75-.08,1.09-.1L467,67l.63,3.3c.16.85.34,1.71.51,2.56l.1.5c.32,1.56.69,3.18,1.12,4.83S470.19,81.33,470.68,83Zm-8.52-16.2h0Zm26.53-2.16h0Zm29.87.19c0-.66,0-.66,0,0C518.52,64.13,518.52,64.13,518.56,64.79Zm-57.13-.9,0,0ZM461,62.13h0Zm64.71-6.22h0Zm-8.07-4.32-.08,0ZM474.33,62.76l.22-4.94q.06-1.39.2-2.7a9.2,9.2,0,0,1,.41-2.21c.07-1.13.23-1.91.72-1.29-.13-2.18.07-2.95.67-2.36-.13-2,.13-2.62.46-3.13a10.78,10.78,0,0,1,.87-1.93,17.09,17.09,0,0,1,2.25-3.14,6.46,6.46,0,0,1,.2-.77l0-.09a2.91,2.91,0,0,1,.8-1.28c.74-.93,1.56-1.7.48-7.31,2.87,4.39,3.84,3.94,4.92,1.63,1,1.73,2.15,1.6,3.35,1.64a5.8,5.8,0,0,1,2.37.57,6,6,0,0,1,1.81,1.34,4.6,4.6,0,0,1,1.05,1c1.1,1.6,1.7,2.49,2.15,3.16l1.2,1.78.88,1.27c.52.74,1,1.48,1.62,2.37l.88,1.33c.09.13.51.76,1.4,2.15-.08-.09.33.58.94,1.64.09.23.42.84.79,1.55,0,0,.41-.08.41-.08l.14,1.15.68,1.33,1,1.9a8.94,8.94,0,0,1,.94,2.16c0-.26-1.63-.26-1.63-.26l.4,1s-3-.06-2.5,2.38c-1.11-1.82-1.94-1.61-2.11-.64-.26-.9-.3-.89-.15,0-.2-.89-1,0-.87,0-.1-.15-.49-.24-.9-.9a8.39,8.39,0,0,1-1-3.77c-.11,1.85-.23,2.9-.64,2.38s-1.12-2.64-2.35-6.85c2.13,8.36-.13,9.39-.16,9.35s-.79-.51-.79-.51h-.11c-.45,0-.89.06-1.33.08l-.92,0a.73.73,0,0,0-.69.36c-.56-.24-1.11-.18-.82,3.45-.89-3.61-.91-3.61-.07,0-1.93-3.65-2.81-4.06-3.33-4.34h-.09a3.43,3.43,0,0,1-.55.11l-2,.19a1.52,1.52,0,0,1-1.7-.87c.07,1-.05,1-.16-.2-.26,1.28-.6,1.29-1.44-2.56-.26,4.18-1.09,4.25-3.6-4.75,1.63,8.78,1.5,8.8-.17-.15,1.23,9,.26,9.25-1.81,6.35.91,2.4.09,2.62-.74,2.83Zm15.3-.31q-1.76-10,0,0-1.79-10.1,0,0Zm-7.35-9c0,.07,1.16,2.3,1.16,2.3l.27,0,1.67-.16c.35-.13,1.12-.41,2.4,2.46,0-2.66.37-2.7,2.33,5.26-1.41-7.91-1.17-7.93,1.37.63-1.78-8.65-1.39-8.71.29-4.94-.77-3.89-.25-4,.29-3.94a2.2,2.2,0,0,1,1.06,0h.06c.42-.11.84-.21,1.26-.28.6-.11,1.39-.22.63-5.84,1,2.8,1.56,4.22,1.81,4.25s.18-1.31-.16-4a30.91,30.91,0,0,0,1,4.22c.14.21.1-.69-.06-2.06.24,1.34.41,2.19.49,2.44a5,5,0,0,0-.13-1.53,4.51,4.51,0,0,1,.13,1.37c-.07-.37-.23-1.23-.41-2.18.39,2.4,1.25,2.32,1.41,3.41-.29-1.33-.41-1.56-.47-1.25-.36-1.08-.68-1.62-1.31-3.57,0,.19-.14.39-.37,0a27.56,27.56,0,0,1-1-3.31c.3,1.5.28,2,.1,1.75a11.09,11.09,0,0,1-.84-2.71c.2,2.24-.27,1.57-1-.19,0,.65-.3.22-.6-.22,0,0-.38-.55-.38-.55l-.95,1.61-2.2-5.41c-.74.1-1.41.34-1.41.74a2.53,2.53,0,0,0-2.08,2.46c-.32-.85-.33-.84-.43.17.09-1,.26,0,1.53,7.62-1.27-7.65-2.13-6.82-2.83-5,0-1.14-.65-.32-1.21.61a16.8,16.8,0,0,0-1.45,3.13c-.4,1.15-.73,2.42-1.29,2.17C481.23,54.49,482.29,53.49,482.28,53.43Zm12.79-15.68q.72,1.06,0,0Q495.79,38.81,495.07,37.75Z"/><path class="cls-2" d="M474.66,101.19c-.22-4.74-1-7.58-1.46-5.2.41-2.38,1-2.54,1,2.78,0-5.32-.41-5.6-.85-2.63.44-3,.91-2.7,1,3.14-.12-5.84,1-6.18,3.57-.71-2.52-5.46-2-4.71,0-.93-2-3.78-2.28-3.27.56,4.24-2.84-7.51-3.65-8.07-1.2,4.15-2.44-12.22-1.66-11.63,1.24-3.83C475.62,94.38,474.44,96.45,474.66,101.19Z"/><path class="cls-2" d="M479.22,106.51c-3-9.08-3.55-10-.43,2.17-4.13-13.9-4.63-14.78-3.82-7.33-.82-7.45-1.17-7.35-1.27-3.63.11-3.72-.19-4.12-.65-2.18.47-1.94.48-1.63.09.44A4.33,4.33,0,0,0,472,92c-.18-.5-.61-.87-.89-1.62a12.78,12.78,0,0,1-.46-3.86,16.23,16.23,0,0,1-.29,3.9,5.63,5.63,0,0,1-.28,1l-3.58-7.57c2.45,5.18,2.35,5-.18-.33,2.21,4.68,2,4.27-.27-.67,1.64,3.28,1.23,2.2-.57-2.42,1.17,2.55.89,1.6-.41-2,.77,1.77.53.86-.35-1.81.42.92.21.07-.32-1.76.14.14,0-.7-.33-1.88.12.37,0-.13-.07-.4a11.87,11.87,0,0,0-.22-1.24,1.4,1.4,0,0,1-.37.15,2.54,2.54,0,0,1-2.59-.39,4.18,4.18,0,0,0-.38-.3l-.39-.29a2,2,0,0,1-.52-.67l-1-2a1.29,1.29,0,0,1-.12-1.07,1.54,1.54,0,0,0,.06-.92,7.3,7.3,0,0,0-.21-.8c-.09-.3-.18-.61-.24-.92a4.12,4.12,0,0,1-.07-1.4,1.67,1.67,0,0,1-.07-1.59c-.05-.13-.1-.26-.14-.39a1.61,1.61,0,0,1,1.07-2.06,2,2,0,0,0,.25-.14,2.08,2.08,0,0,1,1.34-.39,1.64,1.64,0,0,0,.29,0,4,4,0,0,1,.55,0,2.24,2.24,0,0,1,.58.12l.24,0c-.05-.51-.1-1-.14-1.53-.08-1.1-.11-2.18-.11-3.24a17.72,17.72,0,0,0-.17-3.12c.2,0,.22-.8-.1-.88.34-1.51.43-3-.79-8.16,1.54,2.45,1.77,1.19,1.14-5,1.15,4.12,1.39,3.22.9-.71,1.06,2,1.39,1,1.59-1.37.58.09,1.08-1.07,1.65-2.21.31-.53.63-1.08-.26-4.39,1.57,2.23,1.94,1.7.55-7.19,1,4,1.66,5.85,1.47,5.24.95,1.66,1.09.83-1-7.1,2.8,8.52,3.24,8.11.59-6.53C471,26,471.51,25.7,472,23.23c.57,1.29,1.05.43,1.42-1,2,2.68,3.17,2.62,4.27,2.6s2.12,0,3.1.05a15.1,15.1,0,0,1,6,2.14A74.14,74.14,0,0,1,499,35.9a46.35,46.35,0,0,1,3.46,3.42c.58.62,1.17,1.24,1.76,1.83q1.38,1.37,2.71,2.91c.89,1,1.77,2.12,1.94,2.29,1.57,2.14,2.43,3.36,3.3,4.66.59.89,1.18,1.8,3,4.71-1.28-2-.49-2.43-.06-2-.43-.39-.12.28.2.61-.32-.33-.17-.38,0-.19-.06-.27.21-.34.49-.38l.11,0a6.45,6.45,0,0,1,.88-.09,1.09,1.09,0,0,1,.36,0,2.28,2.28,0,0,1,1-.12,1,1,0,0,0,.21,0l.29-.06a4.65,4.65,0,0,0,2.14-.82l.51-.43.48.32.16-.07c.23-.1.51-.22.07-2.37.78,2.13,1.15,2.11-.15-1.76,1.32,3.85,1.35,3.84,0-.48,1.62,4.22,1.84,4.15-.08-3.83,2.31,7.85,2.49,7.8.59-1.4,2.33,9,2.59,8.79,1.92,2.74,1,5.8,1,5.77.15.31.95,5.32,1.07,5.15.62,1.31.9,3.56,1.16,3.43.76.94.65,2.37.87,2.26.21-.3.66,2.56,2.1,4.24,1.7,1.86.43,2.35.52,2.12.05-.33.22,1.8,0,1.63-.61-1,.53,2.56.59,2.58.21.22.86,2.54,1.13,2.75,1,1.36.5,1.7.68,1.86.2.17,1.18,2.27,1.71,2.72-.06-2.86,2.53,6.39,2.86,6.69.54-4,3.45,11.67,4.34,12.46,5.19,10.7-.24,3.05-.15,3.22.35,1.21-.14,2.71.17,3.3.91,3.33-.45,1.41-.53,2.13.88,4.89-1.8-1.35-2.12-.67.31,11.78-3.2-10.9-4-10.34-4.71-9.25-.56-.84-.7-.82-.37,0-.48-.83-1.26.1-1,1.59-.36-1.41-.42-1.33,0,.5-.62-1.53-.8-1.3.28,2.12-1.51-3.11-2.2-2.8.94,10.27-4.21-12.87-4.66-12.86-5.36-10,0-2.75-.49-2.7-1.15-2.87a1.89,1.89,0,0,1-.37.25l-.13.08-2.2,1.45.28-1.53-.83.09-.53,0c-.26,0-.52,0-.76.08a8.19,8.19,0,0,1,.7,1.39,71.63,71.63,0,0,1,3.34,11.78c.4,2.36.64,4.63.83,6.55a25.47,25.47,0,0,1,.07,2.73c0,.33,0,.66,0,1a1.75,1.75,0,0,1-.08.51c0,.22-.05.38-.06.53l0,.41a3,3,0,0,1-.06.34l-.2,1-1.11-.44-.69-.33-.2-.76-.06-.67c-.05-.54-.11-1.08-.12-1.61a2.81,2.81,0,0,0-.92-1.87,4.32,4.32,0,0,1-.88-1.52c-.06-.15-.12-.3-.19-.45a1.14,1.14,0,0,1-.11-.53l-.25-.8c-.13-.42-.27-.85-.4-1.27l0,.17c.07.81-.27,1.12-.58,1.24a1.42,1.42,0,0,1-1.4-.32l-.39-.3-.44-1.89c-.27-1.19-.56-2.43-.88-3.63a7.49,7.49,0,0,0-.5-1.2c-.11-.22-.22-.45-.31-.67s-.11-.27-.16-.41l0-.12a1.71,1.71,0,0,1-.91-1l-.48-1.18L514,73.7l-1.28.13-.72-2-.17.2L511,70.43l-.16.35-.71-1.39h-.21a2.69,2.69,0,0,0-.41,0l-.1,0-10.3-.11-4.24.42,1.28-1.34h-.78c0,.08,0,.14,0,.19l-.08.63-1.4.08c-.64,0-1.28.08-1.92.09a2.4,2.4,0,0,1-1.31-.26,3.31,3.31,0,0,1-1.7.27,2.7,2.7,0,0,1-1-.26,3.86,3.86,0,0,1-3,.43,1.68,1.68,0,0,1-.54-.36,2.18,2.18,0,0,1-1.47.48l-1.22.06-2.35.12c.17,1.13.31,1.8.31,1.81l0,.21a35.14,35.14,0,0,0,.34,4.52,16.82,16.82,0,0,1,.16,1.8c.1.67.12.94-.07.23.21,1,.38,3.45-.33.22.72,3.24-.75,2.11-1,1.13.3,1.08.32,1.18,0,.13.42,1.53.52,2,.06.72.49,1.87.52,2.08,0,.48.56,2.05.6,2.3,0,.62.6,2.29.44,2.58.05,2.31.15.44,1.24,2.59.14-1,1.11,3.57-.51,3.27-.51,3.27a.9.9,0,0,1-.36.34,1.09,1.09,0,0,1-.49.12l-.17,1.45-.18-.19-.14,1.7a9.49,9.49,0,0,0-.08,1.72c-.06,0-.11-.1,0-.08a4.37,4.37,0,0,0,.32,1.86c-.24-.21-.12.24.11.47-.23-.23-1.11-.1.13,1.69-1.23-1.56-1.23-1.31.3,1.67-1.54-2.72-1.59-2,.77,4.93C476.31,96.8,476.35,97.69,479.22,106.51Zm-9.06-23c.79,2.52,1.37,3.79.79,3.2,1.54,1.86,1.92,1.86-.47-3.49,2.9,6.69,3.11,7.08,1.24,1,2.09,6.5,2.14,6.61,1.19,3,1,3.77,1.08,3.9,1.25,3.13-.14.81-.14.81,0,.06-.13.52,0,.28,1.28-2.32-1.16,2.37-1,2.2.17.14-1.21,2.06-1.46,1.09-2.06-7.69.11,6.85-.14,5.88-1.67-5.29,1.53,11.18,2.72,11.82,3.1,9.2-.38,2.62.27,2.55.57,1.64-.3.9-.28.58,0-.22-.25.8-.85-1.19-.71-2.63-.14,1.44.94,1.28.94,1.28l.06-.53.69.37,0-.42.2,0-1-2,1.53.43c0-.19,0-.38-.06-.57a4.6,4.6,0,0,0-.16-.83,4.11,4.11,0,0,1-.14-2,3,3,0,0,1,.1-.33l-1-1,2-.93-.08-.68a37.55,37.55,0,0,1-.35-4.67c-.06-.32-.24-1.28-.43-2.69L477,68l.85,0,3.21-.17.89,0,.8-1.17s.67.1.69.22c.22-.09.58-.06,1,.35a1.73,1.73,0,0,1,.77.48l.17.15a2.28,2.28,0,0,0,.38-.07l-.55-.4,1.69-.63a2,2,0,0,1,.65-.18,1,1,0,0,1,.32,0l.35,0h.41l.86,0h.26a2.29,2.29,0,0,1,2,.11l0,0a1.61,1.61,0,0,1,.71-.19h0l1.79,0c.63,0,1.28,0,1.91,0a5,5,0,0,0,.58,0c.24,0,.48-.06.72-.06a2.67,2.67,0,0,1,1,.11,2.25,2.25,0,0,1,.53-.1,3.6,3.6,0,0,1,1,0,1.68,1.68,0,0,1,.94.57l.51.44,7.27.08a5.13,5.13,0,0,1,.59-.06,1.51,1.51,0,0,0,.6-.1l0,0,.7-1.54,1.07,2.1.54.21.22-.26.15.4.28.11a2,2,0,0,1,1.19,1c.46,1,.91,2,1.33,3,.28.66.54,1.32.81,2l.34.83a2.74,2.74,0,0,1,1.12,1.54c0,.09.06.17.1.25s.18.4.28.6l.07.14a1,1,0,0,1,.13-.15l1.32-1.24.54,2.35c0,.17.07.32.11.47l.1.38c.06.24.12.46.2.67a2.41,2.41,0,0,1,.49.35,3.06,3.06,0,0,1,.77,1.19c.12.37.22.74.31,1.11s.13.52.21.77c.14.49.3,1,.45,1.46l.32,1a1.15,1.15,0,0,1,.05.3l.13.32a4.21,4.21,0,0,0,.3.65l.1.11v0c-.18-1.88-.42-4.1-.81-6.4a69.59,69.59,0,0,0-3.24-11.41,6.76,6.76,0,0,0-.55-1.05,11.08,11.08,0,0,1-.6-1.1l0-.1L518,66.19l1.11-.08a1.85,1.85,0,0,0,.37,0,8.16,8.16,0,0,1,1.53-.23l.48,0,1.85-.19.8-.08c.39-.25.88-.26,1,0,.29-.16.43-.18.05.05.38-.23.37-.17,0,.06.4-.22.44-.2.06.13.47-.29.5-.27,0,.1.47-.39.56-.43.06,0,.68-.54,2-1.58,1.68-1.5.29-.08.32,0,.36,1.52,0-1.48.15-1.66,1.33-1.86-.43-.48.39-.85,1.38-1l.2,0,.83-.11c.36-.09.76-.36.69.68.82-2.54,1.34-3.7.79-5,.29,0,.1-.37-1.94-5.06,1.7,4.05,1.59,3.85-.63-1.07h0c1.83,4.08,1.25,3.56-.54,1,.73,1.58.33,1.23-.44-1,.18,1,0,1.09-.27.7a13,13,0,0,1-1.14-2.92c.35,2.69.16,2.52-.76-.66.6,3,.44,2.9-.47,0,.68,2.88.58,3-.31-.12.39,3.53,0,3.81-1.57-3.61,1,7.73.72,7.81-2-2.93,2.31,10.85,2.19,10.89-.54,1,2.6,10,2.6,10,0,.18,2.56,9.91,2.5,10-.05,1.56,2.48,8.54,1.87,9.34.48,5.7,1.39,3.64.66,2.93.13,1.68.27,1.35-.1,1.48-.52,1.43a6.9,6.9,0,0,1-2.43.86l-.28.06a2.6,2.6,0,0,1-.74,0c-.23,0-.24,0-.3,0a1.07,1.07,0,0,1-1.07,0l-.49.06-.12,0a1.31,1.31,0,0,0-.35.09s-.34.11-.3.16c-.34,0-.65.15-.09,1.8-.87-1.59-1.27-1.51.1,1.45-1.36-3-1.75-3.19,0,1.16-1.76-4.35-2.6-4-.74,4.36-1.86-8.37-2.42-9.3-1.48-2.67-1.31-7.24-1.68-7.85-2.44-6.47,0-2.58-.39-3.18-1.2-3.56a11.59,11.59,0,0,0-2.08-3.73,55.56,55.56,0,0,0-5.1-5.91c-.61-.61-1.21-1.25-1.82-1.89a43.56,43.56,0,0,0-3.24-3.21,71.61,71.61,0,0,0-11.81-8.55,13.07,13.07,0,0,0-5-1.84c-.94-.05-1.91-.07-3,0s-2.19.07-4.46-4a9.73,9.73,0,0,1-.37,3.9c-.28.67-.68.87-1.13-2.61-.34,4-.73,4.34-4.68-11.61,3.17,16.74,2.78,17.2-.38,8.34,2.41,8.9,2.06,9.89,1.56,10.32s-1.15.31-2.13-.44c.85,3.61.38,4.69,0,5.83s-.68,2-1,1.69c-.19,2.22-.43,3.09-1.22,1.43.3,3.63.08,4.83-.55,3a58.65,58.65,0,0,1,.22,7.34s0,.77,0,1.8c0,0,0,1,0,4.5,0-1.4.06-.35.15,2.32,0-1.08.08-.55.16,1.12,0-1.13.14.61.16,1.19,0-.57-1.11-.65-1.11-.65l-1-.07a2.37,2.37,0,0,1-.54-.12,1.15,1.15,0,0,0-.3,0,4.25,4.25,0,0,1-.61,0l-.27.16a3.44,3.44,0,0,1-.45.25.86.86,0,0,0-.23.14l.09.22.09.22a.91.91,0,0,1-.09,1.18,1.78,1.78,0,0,1,.18,1.06,2.23,2.23,0,0,0,0,.82c.05.25.12.49.19.73a9.4,9.4,0,0,1,.26,1,3.49,3.49,0,0,1,0,1.58l.82,1.62.13.1c.16.12.33.24.48.37a2.24,2.24,0,0,0,.5-.11c.64-.2,1.31-.25,1.67-1.11.21.82,1.3.76,1.08-.28.22,1,.43,2.14.06.39.54,2.61.71,3.47.11.7.78,3.63.88,4.13,0,.12,1,4.81,1.2,5.63.13.56,1.45,6.71,1.66,7.55.29.73,1.81,8.52,2.05,9.42.6,1.33,2,9.92,2.25,10.85,1.17,2.91,1.09,6.52,1.6,9.09,1.71,8.31a29.08,29.08,0,0,0-.12-3.64,27.85,27.85,0,0,0,1.27,6.54c.38.9.61.53-.11-1.86.72,2.39.82,3,.49,2.56C471.09,87,471,86,470.16,83.53ZM523,86.06v0Zm-45.69-2.72h0Zm38.46-8.46h0ZM485.61,68h0Zm39.53-.74h0Zm3.68,9.31c-1.19-9.86-1.19-9.85,0,.07C527.63,66.72,527.63,66.72,528.82,76.58Zm-11.44-21h0Zm4.59-11q3.85,14.11,0,0Q525.82,58.75,522,44.65Zm-5.12,9.24h0Zm-38.12,6.33a1.65,1.65,0,0,1-.89-.26,3.06,3.06,0,0,1-.28-.23l-1,.27.07-1.65c0-.91.11-1.79.69-.31-.41-3.18-.3-4,.87-.81-.9-4.77-.74-5.53,0-4.29-.42-2.43-.22-2.86,0-3,.52-2.46,1.07-3.68,3.38-1.67-1-4.22-.27-5.2.56-6.06a3.72,3.72,0,0,1,.2-1l0-.1a1.5,1.5,0,0,1,.43-.66l.08-.09a8.8,8.8,0,0,1,7.46-3.51A3.19,3.19,0,0,1,493,38.33a2,2,0,0,1,.91.91L495.8,42l1.1,1.63.86,1.24c.5.72,1,1.44,1.48,2.17l.66,1c.79,1.19,1.61,2.42,2.31,3.71s1.35,2.53,2.22,4.25l.64,1.27h-.77l-.28.77h0l.08.19-1.57,0a1,1,0,0,1-.1.29,1.53,1.53,0,0,1-1.07.65,2.43,2.43,0,0,1-.62,0l-.39.44-.61-.31a1.57,1.57,0,0,0-.28,0,3,3,0,0,1-1.44-.2L496.1,60l-.65-.44a2.08,2.08,0,0,1-.69.21c-.42,0-.83.05-1.24.07l-1,.05-.84.08c-.48.05-1,.1-1.43.11h0a3.16,3.16,0,0,1-1.54-.5l0-.21a2.78,2.78,0,0,1-1.17,0h0a2.52,2.52,0,0,1-.62.17l-1.95.18c-.55,0-1.1.1-.83,3.15-.82-3-1-3-.11.3-1.08-3.26-1.53-3.21-1.36-.26-1.07-2.79-1.71-2.54-2.49-2.81l-.11,0-.55.06-.22,0A2.78,2.78,0,0,1,478.73,60.21Zm21-.88Zm-21-1.73c0-.05,1.87,0,2.08,1.52-.22-1.5,0-1.15.2.5-.19-1.69-.12-1.75.36.6-.4-2.43.56-3.33,1.86,2.15-1.3-5.48-.8-4.5.41.26q-1.81-7.14,0,0c-1.21-4.74-1-4.76.17-.31-.63-4.51-.07-4.56.56-4.4a5.82,5.82,0,0,1,1.84-.38l.2-.07a1.45,1.45,0,0,1,1.33,0s.18-.05.31-.07a3.67,3.67,0,0,1,.79,0,5.74,5.74,0,0,0,1.1-.06l1.23-.16c.5-.07,1-.14,1.49-.2a2.24,2.24,0,0,1,.87.11h0l.51-.12c.38-.09.76-.19,1.14-.26a8.46,8.46,0,0,1,1.82-.21,5.72,5.72,0,0,1,1.18.16l.28.06.11-.07a3.31,3.31,0,0,1,.65-.35l.51-.19.55.39.09,0a2.06,2.06,0,0,1,.68-.19h.08l-.27-.67,1.12-.11c-.6-1.16-1.11-2.13-1.61-3-.65-1.19-1.4-2.32-2.19-3.51l-.67-1c-.47-.71-1-1.41-1.44-2.11l-.87-1.26-1.11-1.64-1.3-1.92-.43.67-.85-2c-.27-.65-.42-.66-.86-.67a7.16,7.16,0,0,0-6.14,2.94l-.19.21-.08.09v.06a1.73,1.73,0,0,0-.12.64l.08.45-.29.28c-1,1-1.86,2.16-1.72,4.94-1.59-.05-2.17,1.51-2.15,7.06-.45-1-.75-1.06-1-.57A9.77,9.77,0,0,0,478.75,57.6Z"/></g></g></svg>