<svg xmlns="http://www.w3.org/2000/svg" viewBox="0 0 522.09 88.74"><defs><style>.cls-1{fill:#fff;}</style></defs><title>paint</title><g id="Layer_2" data-name="Layer 2"><g id="Layer_2-2" data-name="Layer 2"><path class="cls-1" d="M187.56,45.18c-.43.1-.86.23-1.29.36,0,0-.11,0-.11.08-.09.81-.64.58-.94.93a2.92,2.92,0,0,1-1.51.8c-.84.23-1.69.34-2.54.5-1.1.2-2.21.35-3.3.59-.8.17-1.59.44-2.38.67a26.17,26.17,0,0,0-2.77.86,13.65,13.65,0,0,0-2.24,1.3,7.7,7.7,0,0,0-.82.9,1.34,1.34,0,0,1-.45.21,4,4,0,0,0,0-.57,1.32,1.32,0,0,0-.57-.18.76.76,0,0,0-.44.2c-.26.21-.57.26-.57,1,0,.93-.17,1.13-.77.93a2.65,2.65,0,0,0-2,.3,3.56,3.56,0,0,1-.87.15,2.69,2.69,0,0,0-.58.13,9.34,9.34,0,0,1-1.34.59c-2.67.62-5.35,1.27-8,1.78-2.15.41-4.31.68-6.48.91a18.44,18.44,0,0,1-2.64-.16,2.72,2.72,0,0,0-2.42.92,4.46,4.46,0,0,0-.35.62.66.66,0,0,0-.34.11c2.18-1.84,7.33-4.49,5-2.86a18.08,18.08,0,0,0-3.35,2.49A24.4,24.4,0,0,0,141,61.34a1.34,1.34,0,0,0-.37,1.41,1.25,1.25,0,0,0,1.22.78,18.37,18.37,0,0,0,5.88-.63c2.18-.46,4.37-.93,6.55-1.38,3.64-.74,7.27-1.62,10.93-2.16,4-.59,8.07-.87,12.11-1.24,1.65-.15,3.3-.2,5-.24a20.41,20.41,0,0,1,3.61.22,3.4,3.4,0,0,0-.64.07,3,3,0,0,0-.6.29c-.39.21-.77.45-1.16.65a8.51,8.51,0,0,1-1.84.85c-.75.17-1.1,1.23-2,1-.71.82-1.78.79-2.56,1.34-1.55,1.1-3.36,1.07-5,1.79l-.41.19,0,.26,2.78-.25.05.17-3,1,.18.27c-1.6.47-3.18.9-4.75,1.42-1.31.43-2.58,1.06-3.9,1.44a56,56,0,0,1-10.13,2c-1.42-.57-2.85,0-4.28.07-3.4.19-6.8.45-10.2.68-1.47.1-2.93.23-4.4.23-1.18,0-2.36-.16-3.54-.26a2.08,2.08,0,0,1-.41-.1c-1-.3-1.08-.66-.47-1.62a43.69,43.69,0,0,1,12.32-12.83,19.34,19.34,0,0,1-3.72-.37c-.47,0-.86.22-1.38.2a3.29,3.29,0,0,1,.1-.7c1.25-2.86,2.92-4.88,5.07-5.9a22,22,0,0,1,2.3-1.11,4.46,4.46,0,0,0,1.91-.93,1.55,1.55,0,0,1,.81-.3c.1,0,.22.11.43.22l1.2-.75.06.18-.26.25,0,.1.47-.1,0,.13-.79.39v.13a.9.9,0,0,0,.31,0c1.19-.5,2.37-1.08,3.58-1.51.88-.31,11.92-3.16,12.74-3.62,1.16-.64,18.18-7.31,19.86-8a2.38,2.38,0,0,0,.32-.26,3.76,3.76,0,0,0-.6,0c-1.3.16-2.61.28-3.91.52s-2.59.68-3.9.91c-2.92.51-5.86.9-8.78,1.43-2.31.42-4.6,1-6.9,1.5-3.28.71-6.54,1.47-9.83,2.1a44.73,44.73,0,0,1-5.71.74c-3,.18-6,.23-9.05.29-1,0-1.65-.54-1.56-1.43a3.87,3.87,0,0,1,.63-1.58,19.52,19.52,0,0,1,1.83-2.55c1.6-1.8,3.1-3.77,5.47-4.38,3.55-.91,7.07-2,10.63-2.85,2.68-.66,5.4-1.17,8.11-1.67,4-.75,8.08-1.56,12.15-2.09s8.43-.87,12.66-1.13c3-.19,6-.21,9.07-.16a24.41,24.41,0,0,1,4.35.65,3.09,3.09,0,0,1,1.31.77,1.16,1.16,0,0,1,0,1.73,14.47,14.47,0,0,1-2,1.62,32.05,32.05,0,0,1-3,1.71c-.92.47-1.87.83-2.81,1.24-1.09.48-2.17,1-3.27,1.43-1.51.61-3,1.16-4.57,1.75-.27.1-.53.23-.83.36.07.18-16.71,7.08-17.64,7.55.71-.06,2.43-.32,3.76-.39l3.43-.17c.82,0,1.63-.13,2.45-.15a.86.86,0,0,1,.53.3c.26.26,1.11.1,1.37,0a2.41,2.41,0,0,1,1.13,0c.24,0,.49.12.73.13a6,6,0,0,0,.68-.09c.78-.06,1.55.52,2.35.28.25-.07.73-.35,1,.33a.21.21,0,0,0,.25.07c.79-.34,1.62.2,2.42.07.16,0,.36.17.54.28.42.27.44.9.84.51"/><path class="cls-1" d="M290,52.6c-.94,1.79-1.78,3.59-2.8,5.36-2.43,4.23-4.84,8.47-9.39,12.26a16.67,16.67,0,0,1-1.92,1.38,3,3,0,0,1-2.26.52c-.9-.12-1.91-.74-1.91-1.3a7.76,7.76,0,0,1,.33-2.88c.59-1.53,1.61-3,2.22-4.52.87-2.15,1.55-4.32,2.3-6.49s1.64-4.6,2.32-6.92a17,17,0,0,0,.68-4.05,58.06,58.06,0,0,0,0-7.93,28.94,28.94,0,0,0-1.52-5.7,3.41,3.41,0,0,0-1.1-1.25,4.22,4.22,0,0,0-3.36-.69,26,26,0,0,0-6.16,1.33,35.89,35.89,0,0,0-9.2,5.36,49.24,49.24,0,0,0-8,7.52,54,54,0,0,0-4.62,5.86,21.34,21.34,0,0,0-3.78,9.34c-.25,2.62,1.88,5,6.39,6.9.72.31,1.59.54,2.43.83-.89.18-.68.4,0,.62.88.28,1.48.58,1.14,1.1-.09.14.36.36.47.56a4.92,4.92,0,0,1,.31.77l-.35.07,2.89,1.21-.93.05.68.59-1,0-.08.15,1.74.34,1,2.13-1,.11,0,.19,2.12.27,1.37,1.42c-1.15,0-2.43-.19-2.87.45a2.26,2.26,0,0,1-.65,0c-1.3,0-2.61,0-3.91-.07a14.24,14.24,0,0,1-2.79-.3c-2.41-.65-4.69-1.42-7.1-2.07a5.82,5.82,0,0,1-3.3-1.78c-.41-.58-.51-1.18-.89-1.76s-1-1.16-1.39-1.75c-.12-.16.06-.35.08-.53s.19-.44,0-.59c-1.31-1-1.39-2.16-1.86-3.25-.65-1.5-.94-3-2.22-4.5-.37-.42-.33-.9-.55-1.34s-.54-.87-.82-1.3h-.36l.31,1.78-.38,0c-.18-.19-.49-.38-.52-.56a10.29,10.29,0,0,1-.1-1.86,29.7,29.7,0,0,1,.25-4,20.91,20.91,0,0,1,1.2-4.38,28.71,28.71,0,0,1,2.46-4.68,71.25,71.25,0,0,1,4.77-6.74A80.6,80.6,0,0,1,244,31.87c1-1,2.29-1.88,3.47-2.82.91-.72,1.85-1.44,2.75-2.16a1.22,1.22,0,0,0,.33-.44c.09-.18-.14-.47.68-.35.08,0,.33-.11.32-.18-.08-.87,1.4-1.17,2.49-1.63a6.3,6.3,0,0,0,1.28-.79c.51-.36,1-.74,1.44-1.11l.32.1-1.09.84c1.9-.42,2.35-1.77,5.47-1.51l.12-.54,1.72-.45.44.42.7-.24c1.73-.56,3.39-1.18,5.24-1.65a15.69,15.69,0,0,1,4.44-.48c1.3,0,2.61-.21,3.88-.09a21.68,21.68,0,0,1,4.33.83,13.53,13.53,0,0,1,6.11,3.76,13.8,13.8,0,0,1,3.37,5.74c1,3.52,1.77,7.05,1.16,10.51-.65,3.66-1.69,7.28-2.55,10.92"/><path class="cls-1" d="M163.62,46.79l2.08-.39a.88.88,0,0,1,.41,0,5.3,5.3,0,0,0,.73.31,11.38,11.38,0,0,0,1.86.15c.72,0,1.43-.14,2.15-.21h0c.35-.17.69-.32,1-.51.09,0,.16-.18.25-.28-.08-.09-.17-.25-.25-.26-.71,0-1.43,0-2.14,0-.11,0-.26.07-.33,0-.36-.44-.78-.27-1.16-.29-1-.05-1.93-.08-2.9,0a9.3,9.3,0,0,0-1.63.31c-.42.1-.83.24-1.25.33a1.78,1.78,0,0,1-.59,0c-.2,0-.42-.16-.44.37a.76.76,0,0,0-1.25.2c.8.56,1.63.16,2.45.1a1.25,1.25,0,0,0,.59-.22C163.54,46.14,163.7,46.15,163.62,46.79Z"/><path class="cls-1" d="M165.79,59.81c-.25,0-.29-.07-.33-.06-.77.25-1.52.69-2.27-.06-.39-.39-1.24,0-1.36.57l3.16.12c.1,0,.23,0,.3,0A5.62,5.62,0,0,0,165.79,59.81Z"/><path class="cls-1" d="M155.13,60v.23l2.56-.12V59.8Z"/><path class="cls-1" d="M34.43,52.88a2.44,2.44,0,0,0-1.57.74c-.51.42-1.05.8-1.57,1.21-.15.12-.4.32-.38.41.27.88-.86,1-.91,1.69,0,.06-.4.13-.61.12a1.62,1.62,0,0,0-1.79,1c-.33.66-1.26,1-1.3,1.95a2.08,2.08,0,0,0-1.55,1.75c-.07.27-.81.37-1.25.54-.22.08-.45.13-.67.21a7.33,7.33,0,0,1-1.13.38,12.37,12.37,0,0,1-1.51.07l.19.54a5.57,5.57,0,0,0-1.18.52,6.88,6.88,0,0,0-1.06,1.1.37.37,0,0,0,.07.35.8.8,0,0,0,.48.08c.32,0,.63-.14,1-.21l.21.32c-.14.06-.32.2-.4.16-.81-.43-1,.31-1.32.72s-.58.82-1.2.68a.58.58,0,0,0-.31.05L15,67.91l.05.19.15.53a1.85,1.85,0,0,1-.67.17c-.48-.07-.91-.16-.91.56,0,.07-.24.22-.36.21-.58,0-.71.3-.76.78s-.12.85-.78.62c-.15-.05-.44.31-.69.5-.35-.43-.1-.72.21-1s.53-.62.86-1a1.08,1.08,0,0,0-1.28.56,1,1,0,0,1-1.23.39,1.22,1.22,0,0,1-.61-.7c-.06-.17.19-.44.36-.78a1.54,1.54,0,0,0-.47,0,6.46,6.46,0,0,0-2.47,2.15C5.57,72,4.77,73,3.94,73.93Q2.29,75.84.61,77.73a1.47,1.47,0,0,1-.61.44c2.53-3.51,5.15-7,7.55-10.55s4.57-7.32,6.86-11c-1.64-.69-2.38-.58-2.34.33a2.74,2.74,0,0,0-2.6.7C8,58.71,6.56,59.79,5.1,60.85c0,0-.08,0-.29,0,.49-.48.92-.88,1.31-1.3A56.58,56.58,0,0,1,13,53.41l4.65-3.65a11.91,11.91,0,0,1,1.46-1c1.64-.92,2.45-2.53,3.44-4,1.8-2.64,3.58-5.29,5.38-7.93,1-1.48,2-3,3.07-4.43,1.55-2.22,3.07-4.47,4.67-6.66,1.78-2.44,3.61-4.84,5.44-7.23q3.3-4.3,6.66-8.56C48.81,8.53,50,7.21,51,5.81c.91-1.2,1.72-2.47,2.62-3.68A17.08,17.08,0,0,1,55.21.32c.48-.49.92-.42,1.22.2C57.54,2.77,58.61,5,58.17,7.67a14,14,0,0,0,.11,2.78,33.24,33.24,0,0,1,.1,4.62,11.13,11.13,0,0,1-1.1,3.18c-1.17,2.66-2.38,5.3-3.6,7.93-.35.76-.8,1.48-1.2,2.22a3.67,3.67,0,0,0-.17.49,2.81,2.81,0,0,0,.38-.07c3-1.08,5.9-2.18,8.86-3.24,1.57-.56,3.17-1,4.76-1.56,2.33-.76,4.66-1.56,7-2.27,1.35-.41,2.74-.67,4.12-1,1.66-.39,3.31-.79,5-1.16.47-.11,1-.11,1.44-.22s1-.35,1.48-.48a2.38,2.38,0,0,1,1-.05c.11,0,.23.4.2.59a6.75,6.75,0,0,1-.33,1.45,3.4,3.4,0,0,1-.58.77c.86.13.6,1,.93,1.44A5.44,5.44,0,0,1,87,24.15c.06.15.16.37.1.49-.48.93-.13,1.87-.07,2.81,0,.12.17.22.19.24l-.34,1.63c-.45.29-1,.72-1.69,1.08-.14.08-.44-.1-.47-.11a6.56,6.56,0,0,1-1.11.67c-.86.29-1.75.49-2.61.77s-2,.73-3,1.06c-.72.24-1.45.4-2.18.61a1.46,1.46,0,0,0-.35.23l0,.19,1.16-.13.07.13-1.06.6c.17.6.42.32.72.14a2,2,0,0,1,.81-.23c-.82.89-1.47,1-2.26.64-.68.46-1.33.88-2,1.34-.09.07-.09.37,0,.5s.29.16.44.23l.06.22-1.33.47c-.14,0-.33,0-.42.13a.87.87,0,0,1-1,.26c-.26-.06-.61.24-.91.4a2.75,2.75,0,0,0-.4.35l0-.58c-.06,0-.15-.07-.21,0-.36.11-.64-.72-1.07-.05a3.26,3.26,0,0,1-.87.84,3.75,3.75,0,0,1-1.14.51,1.6,1.6,0,0,1-1.39.85,2.18,2.18,0,0,0-1.49.7,1.18,1.18,0,0,1-1.8,0c-.41.37-.81.76-1.24,1.12a1.88,1.88,0,0,1-.59.27c-.14,0-.32,0-.45.09-.62.35-.62.36-.83-.24-.75,0-.44.68-.71.85L53.6,44.76l-.05-.53c-.23.28-.45.42-.47.58-.08.54-.29.57-.71.32-.14-.08-.35,0-.53-.05l.12.22c-.1.16-.16.38-.3.47a10.08,10.08,0,0,1-1.12.54l-3.48,1.55.38-1.27c-.67-.17-1,.18-1.47.66l.62.11A1.71,1.71,0,0,1,45,48.51c-.55,0-1.06.84-1.54,1.34a1.49,1.49,0,0,0,.45.62c1.94,1.37,3.84,2.8,5.85,4.05C55,57.78,60.27,61,65.51,64.18c4.39,2.69,8.79,5.36,13.14,8.1,2,1.25,3.87,2.67,5.8,4a5.59,5.59,0,0,1,1,.75l-.84-.25-.07.14,1.27.71c0,.26-.83.17-.22.71l-.63,0-.06.18c.77.59,1.87.41,2.76,1.05-.37-.06-.62-.12-.87-.15s-.77-.3-1,.31c0,.14-.47.15-.76.24l.67,1.52-.38,2.15-.58,0,.53.42L84,84.45l1.16.87-.86,1.23c-.71-.44-.72.22-.93.64s-.38.7-.62,1.12l.64.39a9.48,9.48,0,0,1-4.3-.48A8.34,8.34,0,0,0,77.59,88c-.14,0-.24-.24-.38-.3a2.37,2.37,0,0,0-.87-.27c-.4,0-.82.18-.86-.47,0-.08-.27-.18-.43-.21A1.48,1.48,0,0,1,73.81,86c-.06-.13-.29-.29-.4-.26-1,.24-1.64-.51-2.38-.9s-1.25-.95-1.9-1.38c-.44-.29-1.25-.4-1.35-.74-.22-.83-.93-.88-1.44-1.22a5.81,5.81,0,0,0-1.51-.66,1.39,1.39,0,0,0-1.77.69L60.54,80.2c0-.08.05-.23.07-.37s.12-.76,0-.78c-.33-.13-.69-.49-1.08.05-.12.17-.71.17-1,0a2,2,0,0,1-.63-.86c0-.05.27-.24.37-.4a4.51,4.51,0,0,0,.28-.6,1.57,1.57,0,0,0-.51-.11c-.54.07-1.07.18-1.64.28l.16.49a1.66,1.66,0,0,1-.4-.14c-1.84-1.32-3.73-2.56-5.49-4A32.48,32.48,0,0,1,44.88,68c-1.1-1.49-2.09-3.06-3.06-4.64a3.5,3.5,0,0,1-.17-1.37c0-.12,0-.3,0-.36a12.82,12.82,0,0,1-2.75-4.25C38.22,55.9,37.6,54.46,37,53c-.25-.59-.47-1.19-.68-1.79s-.54-.37-.72-.15A20.24,20.24,0,0,0,34.43,52.88Zm10.73-5.5-.46.28-1.32-.76-.14.19.67.8c-.8.5-1.7-.43-2.59.33.33.11.56.28.71.22.7-.26.61.12.4.74,1-.53,2-.94,2.82-1.45.38-.23.18-.81-.33-1ZM77.64,21.47a2.75,2.75,0,0,1,1,0c.62.25.86-.11,1.18-.54C77.76,20.89,77.76,20.89,77.64,21.47ZM82,30.9c.78.24,1.05.13,1.3-.49A1,1,0,0,0,82,30.9ZM48.18,46.07a.8.8,0,0,0,1.12-.85Zm21,36.56V83l.7.11v-.6ZM17.29,66.49c.39-.64.32-.78-.58-1ZM47.4,46c-.3-.24-.5-.41-.71-.56a.58.58,0,0,0-.29-.08s-.11.13-.1.14a2.9,2.9,0,0,0,.57.6C47,46.14,47.2,46,47.4,46Zm8.45,30.29,0,.15c.16.1.31.21.47.29a1,1,0,0,0,.39.13s.15-.23.13-.25a.92.92,0,0,0-.38-.28A2.61,2.61,0,0,0,55.85,76.27Z"/><path class="cls-1" d="M386.64,27.29c.43,0,.87,0,1.3,0,3.17-.17,6.33-.37,9.5-.52a125.06,125.06,0,0,1,13.31-.06c1.58.09,3.16.18,4.74.28a5.64,5.64,0,0,1,.84.18l0,.22-2.12.55c-.68.18-1.35.34-2,.55-1.14.34-2.26.73-3.4,1.05s-2.21.52-3.29.82c-.27.08-.47.37-.72.55a1.23,1.23,0,0,1-.48.19c-2.07.32-4.15.59-6.21.94-.93.16-1.84.47-2.76.67s-1.58.28-2.37.42c-1.08.19-2.16.41-3.24.59s-2,.27-3.06.48c-.82.17-1.6.51-2.43.67q-4,.75-7.93,1.41c-.57.09-.62.28-.48.74.57,2,1.1,4,1.65,6,.09.34.25.67.34,1s.44.75.07,1.26c-.17.23.06.71.16,1.06,0,0,.32,0,.51,0,.3.51.46,1-.3,1.51a12.63,12.63,0,0,1,1,.91c.25.28.55.58.17,1a.83.83,0,0,0-.09.65c0,.07.34.08.59.13,0,.34.32.78-.25,1.14-.13,0-.28-.15-.39-.12a1.37,1.37,0,0,0-.4.28c.09.1.17.25.29.3a1.08,1.08,0,0,0,.44,0c.53,0,.85.13.79.68a.47.47,0,0,0,.05.27c.3.53-.11.67-.51.8.35.3,1,.61,1,.92,0,.52.35.67.59.92l-.42.86c1.14,0,.77.84,1,1.28s.14.82-.28,1.6l.7,0c.09,1.46,1.13,2.74.83,4.36l-.46-.3c-.14.35-.2.58.32.57.14,0,.36,0,.41.08a1.16,1.16,0,0,1,.25.61c0,.07-.35.15-.69.29l.78,1,.27-.61c.27.42.25.44-.21.84a1.67,1.67,0,0,0-.27.45,1.82,1.82,0,0,1,.43.2,1.53,1.53,0,0,1,.44.5,2.65,2.65,0,0,1,.09.73l-.35.16.42,1.14c-.6.61.1,1.18.2,1.79.06.35.16.59-.1,1s.24.69.57,1.08l.08-.46c.09.11.21.18.22.27,0,.54,0,1.09,0,1.69l.37.09a1.12,1.12,0,0,0,.66,1.39l-1.08.34.48,1a2.18,2.18,0,0,0-.43,0,2,2,0,0,0-.49.19s0,.24,0,.25.31,0,.47,0,.33.06.49.09l0,.18-.44.15v.15l.87.08a4.41,4.41,0,0,0-.62.47,3.74,3.74,0,0,0-.38.67l-1.32,0c.48-.49.56-.82.12-1.12-.47.38-.06,1.15-.8,1.37a5.35,5.35,0,0,1-.56.1l-.06-.13.76-.56a3,3,0,0,0-.76-.22,2.3,2.3,0,0,0-.86.16c-.64.26-1.21-.05-1.81-.11-.3,0-.6,0-1,0L379,78.6l-.11.1-.67-.63s0,0,0,0a3.55,3.55,0,0,1-1.63-1.9l.2-.27a1.72,1.72,0,0,0-.37,0c-.79.21-.94.14-1.12-.54,0-.07-.05-.2-.1-.2-.88-.15-.32-.57-.19-.85L374,74.07c-.13-.34-.22-.57-.3-.8,0-.07-.07-.19,0-.21.67-.58-.16-1-.18-1.47,0-.09-.18-.18-.3-.23s-.23.13-.22.15a1.14,1.14,0,0,0,.21.3.72.72,0,0,0,.15.1,1,1,0,0,0,0,1.46.72.72,0,0,1,.08.63c0,.11-.37.2-.56.19s-.6-.17-.9-.16a3.64,3.64,0,0,0-.93.22,1.65,1.65,0,0,0,.08.32c.27,0,.54-.1.87-.17a2.37,2.37,0,0,1,.05.31c0,.15,0,.31,0,.46-.46.06-.94.08-1,.67,0,.08-.35.23-.41.19a.76.76,0,0,1-.28-.44,2.27,2.27,0,0,1,0-.59l-1,.11v.14l.55.32c-.3.13-.65.19-.76.36a1.37,1.37,0,0,0-.13.81,6.68,6.68,0,0,0,.2,1,5.66,5.66,0,0,0-1-.29,4,4,0,0,0-.86.08L366,74.79c-.38.46-.62.3-.8,0s-.29-.55-.45-.87l.41-.4c-.19-.07-.34-.18-.46-.16-.54.08-.73-.13-.69-.6s-.61-.74-.93-1.11c-.08-.09-.25-.12-.45-.2l.35-.21-1.41-1.56a2.94,2.94,0,0,0,.57,0,2.36,2.36,0,0,0,.44-.21c-.12-.15-.22-.4-.37-.44-.84-.21-.83-.19-.57-1a3.59,3.59,0,0,0,0-.88l-.4.36A13.88,13.88,0,0,1,359.38,63c-.7-.18-.67-.81-.81-1.29a44.84,44.84,0,0,0-1.35-4.46c-.42-1-.58-2.15-.91-3.22-.27-.89-.63-1.75-.94-2.64-.61-1.78-1.15-3.6-1.84-5.35s-1.73-3.6-2.39-5.46a2.37,2.37,0,0,0-2.82-1.76c-1.3.09-2.62-.17-3.92-.09a28.25,28.25,0,0,0-3.49.58c-.63.12-1.24.27-1.87.4l-.09-.23,1.67-.79,0-.2c-.79,0-1.59,0-2.36.11a57.22,57.22,0,0,1-9.74.7,14.53,14.53,0,0,1-4.81-.52c-1.2-.46-1.25-.54-.47-1.54a6.3,6.3,0,0,1,.78-.85c1.36-1.19,2.66-2.44,4.12-3.51a8.09,8.09,0,0,1,2.55-1c2.27-.65,4.55-1.31,6.86-1.82,2.62-.57,5.27-1,7.92-1.45.63-.1.64-.29.48-.76-.46-1.31-.88-2.64-1.32-4l1.16-.22c.1-.57-.47-1.37.57-1.73.22-.51.45-1.05.68-1.6a.44.44,0,0,0,0-.28c-.17-.46-.16-.8.51-.84.09,0,.21-.24.23-.38,0-.32.05-.64.54-.43l.28-1.18,1,.66-.26-1.21,1-.47-.21-.86.14-.07.65.82.08,0L350.88,15l.24-.07c1.83,2.33,2.91,5,4.19,7.66l-.36.35.84.27c.12.41.18.72.29,1,.27.66.58,1.31.83,2a2.09,2.09,0,0,1,0,.68l.92-.31c.23.42.61.24.87,0a8.8,8.8,0,0,1-.74-1.25,9.74,9.74,0,0,0-1.89-3.48c-.48-.5,0-1.09.31-1.49a17.18,17.18,0,0,1,2.11-2.1c1.07-.9,2.22-1.73,3.33-2.6.61-.48,1.19-1,1.78-1.47a1.62,1.62,0,0,1,2.22,0l-.73-.09c.86.57.31,1.06.23,1.33.41.7.75,1.23,1,1.78s.43,1,.63,1.49a10.57,10.57,0,0,1,.47,1.21c.12.43.47.59,1.13.28a4.38,4.38,0,0,1-.19.74c-.28.6-.11,1,.37,1.21.16.44.27.79.42,1.13.25.59.5,1.18.81,1.75a.77.77,0,0,0,.58.33c3.88-.31,7.75-.72,11.64-.95,3.31-.2,6.63-.2,9.94-.28.06,0,.14,0,.19,0,.28.16.74.3.78.5.08.44-.41.33-.72.42s-1.06-.13-1.34.5c-.06.13-.46.13-.7.22-.5.19-1,.42-1.47.6s-1,.31-1.5.48c-.26.09-.52.19-.78.29ZM383.35,78.9l0-.13-.9-.39-1.16-.1v.36c.58.13,1,.25,1.49.33A2.44,2.44,0,0,0,383.35,78.9ZM371,72.61l1.59-.38C372.45,71.78,371.56,71.91,371,72.61Zm-3.38,4.51c.46-.46.41-.59-.46-1ZM372.79,74l.2-.11c-.17-.29-.33-.57-.52-.85,0,0-.27.13-.42.2Zm1.74-.61.08.16.5-.14c.15,0,.3-.07.44-.12s0-.19,0-.2a1.18,1.18,0,0,0-.53,0A1.75,1.75,0,0,0,374.52,73.39Zm-6.82-49-.09.16,1,.48C368.44,24.36,368.29,24.27,367.71,24.34Z"/><path class="cls-1" d="M466.62,60.21A66.74,66.74,0,0,0,467.2,67c0,.42.06.83.1,1.41-.27-.21-.46-.33-.63-.49-.5-.47-.6-.36-.73.16-.21.8.29,1.74.32,2.58,0,.44.13.93.16,1.38,0,.11-.14.22-.25.22a2.76,2.76,0,0,1-.62-.16l.91,1.79-.79-.15c.06.67-.14.76-.89.36l-.07.57-.52-.54-.17,0,.37,1.24-.12,1.5-.65-1.08.25,2.64c-.43-.58-.27-1.26-.92-1.61l1.11,4.31-.18,0-.64-1.44a1.28,1.28,0,0,0,0,1.25,4.2,4.2,0,0,1,.18,1.63l-.81-1.42-.16,0,.3,1.07.05-.09c-.51-.68-1-1.35-1.51-2a5.44,5.44,0,0,1-.37-.76,2.83,2.83,0,0,0-.51-.78l0,.93-2.14-2.66-.27.59c-.32-.67-.63-1.24-.85-1.82-.42-1.1-.85-2.21-1.18-3.32-.56-1.84-1.08-3.68-1.56-5.52-.43-1.67-.82-3.34-1.16-5-.43-2.14-.89-4.29-1.16-6.38-.44-3.37-.83-6.74-1.07-10-.17-2.42-.1-4.75-.07-7.08a35.81,35.81,0,0,1,.93-8c.49-2,1.08-3.85,1.71-5.7A23.49,23.49,0,0,1,457,18.1c1.39-1.86,3-3.39,5.41-3.56a50.42,50.42,0,0,1,6.53-.12,14,14,0,0,1,5.49,2,71.54,71.54,0,0,1,12.05,8.72c1.78,1.52,3.42,3.46,5.14,5.17A63,63,0,0,1,499.43,40a78.69,78.69,0,0,1,4.21,7c1,1.91,1.83,3.85,2.62,5.81.4,1,.74,2,1.18,2.93.35.77.91,1.49,1.19,2.25a69.74,69.74,0,0,1,3.29,11.6c.37,2.18.61,4.34.82,6.47.12,1.24.06,2.43.07,3.64a3.5,3.5,0,0,1-.09.47c0,.29-.05.59-.08.88,0,.13,0,.24-.07.36l-.15-.07c-.06-.74-.16-1.5-.18-2.22A4,4,0,0,0,511,76.43a6.13,6.13,0,0,1-.79-1.59c0-.06,0-.13,0-.2-.26-.82-.53-1.65-.77-2.47-.19-.62-.32-1.24-.52-1.86a1.74,1.74,0,0,0-.42-.64c-.21-.2-.58-.27-.67-.47a10,10,0,0,1-.48-1.51c-.07-.26-.12-.52-.2-.85-.26.24.45,1.18-.35.88.15.88.33,1.78.46,2.68.11.71.18,1.41.24,2.1,0,.36-.05.62-.45.32-.4-1.71-.77-3.41-1.23-5.12a15.38,15.38,0,0,0-.88-2c-.22-.51-.3-1.18-.94-1.25,0,0-.13-.15-.16-.24-.43-1-.83-2.09-1.27-3.13s-.86-2-1.32-3a.78.78,0,0,0-.44-.31c.93,1.62.47,3,.92,4.48l-1.42-3.87-.33.39-1.1-2.15-.16.35-1.19-2.44-.17.13A16.37,16.37,0,0,0,496,52c-1.17-1.56-1.73-3.38-2.74-5l1.64,4.27-.16,0c-.34-.74-.67-1.49-1-2.22-1.44-2.84-2.84-5.7-4.36-8.5-.87-1.6-1.92-3.1-2.92-4.62-.75-1.15-1.55-2.26-2.32-3.39-1-1.45-2-2.92-3-4.37-.15-.21-.34-.76-.6-.32a2,2,0,0,0-2-1.5,8,8,0,0,0-6.8,3.22c-.13.16-.32.28-.38.49a2.49,2.49,0,0,0-.17,1.16C462.44,39.91,466.62,60.21,466.62,60.21Zm-.87,6.56a8.36,8.36,0,0,0,.73.7c.06,0,.26-.11.25-.23a5.07,5.07,0,0,0-.23-.83Z"/><path class="cls-1" d="M497.1,57c.6-.13,1.2.06,1.8-.45.18-.15.61-.11.92-.15l2.4-.33c.25,0,.5,0,.74-.06a5.18,5.18,0,0,0,1-.1,2.93,2.93,0,0,1,2.08,0c.06,0,.18.06.21,0,.54-.45,1.14-.24,1.71-.4a11.86,11.86,0,0,1,1.88-.24l2.46-.25-.07.36c.18-.12.35-.18.4-.28a.6.6,0,0,1,.8-.25,1.08,1.08,0,0,0,1.37-.2c.08.32.3.32.55,0s.58-.46.91-.15c.09.08.51,0,.67-.1a4.46,4.46,0,0,0,.68-.76l-1.25-.15a3.71,3.71,0,0,1,2.12-1c.26,0,.53-.06.79-.11a2.39,2.39,0,0,0,1.84-1.28,6,6,0,0,0,.9-3.65,9.26,9.26,0,0,0-.89-2c-.62-1.31-2-2.12-2.93-3.18a25.49,25.49,0,0,0-2-1.76,1.26,1.26,0,0,0-.38-.25c-.39-.14-.81-.26-.41-.66-.26.13-.61.28-.91.48s-.23.31-.39.43a5.74,5.74,0,0,1-1,.66c-.37.18-.8.25-1.18.42-.14.06-.22.27-.38.49l-.37-.36c-.5,0-1,.58-1.52.23a6,6,0,0,1-2.76,1c-.44.1-.86-.15-1.34.2-.06,0-.28-.12-.44-.12a6.69,6.69,0,0,0-.87.1,2.2,2.2,0,0,0-.56.15c-.37.11-.73.25-1.1.32-.06,0-.12-.24-.21-.44a14.56,14.56,0,0,1-4.16,1.12v.34l-.36-.24c-.08-.06-.15-.13-.26-.24l-.23.42c-.46-.53-1.2-.35-1.87-.28a4.13,4.13,0,0,0-1.22.31,2.21,2.21,0,0,0-.75.61.71.71,0,0,1-1,.11l.75-.47c-.57-.35-1.25-.12-1.82-.12l-.25.68c-.12,0-.33,0-.35-.06a2.08,2.08,0,0,1-.09-.56l-.51.05.32.8c-.5,0-.85,0-1.21,0a2.61,2.61,0,0,0-.59.2l0,.13.55-.12c0,.16.12.34,0,.49a.89.89,0,0,1-.52.26c-.63.11-.86-.15-.85-.65,0-.14-.21-.36-.26-.34a4.45,4.45,0,0,0-.7.39l.92.66-.14.16c-.56-.28-1.62.33-2-.55l.69,0,.08-.17a8.45,8.45,0,0,0-1.38-.22,9.54,9.54,0,0,0-1.65.19c-.51.09-1,.24-1.55.36v.21a1.48,1.48,0,0,1,.53,0,2,2,0,0,1,.48.36,2.79,2.79,0,0,1-.66.24c-.74.06-1.47.07-2.2.12s-1.49.18-2.22.19a2,2,0,0,1-1-.34c.57.1,1.17-.57,1.73-.2.11.08.37,0,.56,0,.65,0,1.35-.44,2-.16.05,0,.26-.15.55-.33a3,3,0,0,0-.8-.15c-.9.1-1.81.25-2.71.36a6.74,6.74,0,0,1-1.29.06c-.52,0-1.11.23-1.59,0-.15-.08-.57.18-.86.21-1.2.13-2.39.22-3.59.34-.48,0-1,.17-1.21-.26-.54.51-1,.71-1.47.56-.14,0-.15-.29-.28-.55l-1.21,0-.07.16.42.4c-.46.05-.94.31-1.1-.22s-.54-.37-.94,0a35.44,35.44,0,0,0-4,.32,10,10,0,0,1-1.51.1c-.43,0-.83-.29-1.32.17-.05,0-.4-.08-.58-.17s-.17-.18-.26-.28a1.71,1.71,0,0,1-2.5.23l.83-.33a.75.75,0,0,0-1,.27.67.67,0,0,1-.34.23,2.19,2.19,0,0,1-1.7,0,.59.59,0,0,0-.26-.08l-2.49-.17c-.2,0-.38-.12-.58-.13s-.59,0-.87,0c-.47,0-.78.31-1.16.47-.55.23-.81.61-.67,1,.07.21.16.42.24.62s.11.19.08.22c-.71.6,0,1,0,1.48a3.17,3.17,0,0,0,0,1.17c.12.59.35,1.15.45,1.75a2.41,2.41,0,0,1-.11,1.42c0,.08,0,.18.06.26l1,1.95a.69.69,0,0,0,.16.23c.28.22.59.42.84.66A1.51,1.51,0,0,0,451,59a8,8,0,0,1,2-.27,14.81,14.81,0,0,1,1.57.07v-.15a4.87,4.87,0,0,1,1-.37c1.17-.14,2.34-.25,3.5-.34q3.24-.24,6.47-.44c1.69-.1,3.37-.18,5.06-.27.49,0,1,0,1.25-.61l-.47-.34.09-.13a1.76,1.76,0,0,1,.59.11,9.15,9.15,0,0,1,.87.72c.07.06.12.16.22.2a3.17,3.17,0,0,0,2.59-.71l-.38-.28a2.71,2.71,0,0,1,.6-.2c.1,0,.27.14.24.2-.21.58.09.68.69.74a2.43,2.43,0,0,0,1.43-.28,2.26,2.26,0,0,1,.6-.12c-.08-.06-.15-.16-.24-.16-.46,0-.94,0-1.4,0a8.08,8.08,0,0,1-.84-.12l.1-.24,1.29,0a1.67,1.67,0,0,0,.56,0c.66-.23,1-.18,1.41.23l-.89.32c.05.43.49.41.87.4.87,0,1.76-.08,2.64-.13.06-.5-.09-.6-.67-.55s-.93,0-1.39,0v-.19a1.77,1.77,0,0,1,.51-.18c1.24,0,2.47,0,3.7,0,.43,0,.89-.1,1.32-.11.77,0,.78,0,.33.64a6.28,6.28,0,0,1-.48.51l1.17-.12M483.54,47c.16-.16.32-.42.5-.46a8.29,8.29,0,0,1,1.48-.17c.09,0,.15.19.17.22l-1.64.75Zm20.24,8.42-1.83.06c.09-.15.15-.34.28-.43A1.51,1.51,0,0,1,503.77,55.47Zm-17,1c0-.13,0-.31.12-.44a.87.87,0,0,1,.48-.15,2.64,2.64,0,0,1,.7,0c.12,0,.18.15.27.22a1.45,1.45,0,0,1-.35.18C487.67,56.37,487.32,56.4,486.8,56.47Zm6-10.46,1.35,0A.93.93,0,0,1,492.82,46Zm1-.54c.7-.48.93-.48,1,0Z"/></g></g></svg>