<svg xmlns="http://www.w3.org/2000/svg" viewBox="0 0 313.71 251.81"><defs><style>.a{fill:#00aeef;}.b{fill:#5652a3;}.c{fill:#aadff1;}.d{fill:#fff;}.e{fill:#0a1e2f;}</style></defs><title>icon_phone_alt</title><path class="a" d="M3599.12,5263l1.79-2a15.35,15.35,0,0,0,1.6-2.35,1.69,1.69,0,0,0-2.65-2,15.29,15.29,0,0,0-1.92,2.1l-1.54,2.19c-1.13,1.61,1.41,3.56,2.72,2.1h0Z" transform="translate(-3423.42 -5224.85)"/><path class="b" d="M3550.92,5355.5c2.1-3,1.91-6.32,2.95-9.81h-10.5c5.4,21.63,11.43,43.24,19,64.21l12.84-3.54a128.83,128.83,0,0,1-9.42-44.76l-11.79,3.19c5.94,12.82,11.54,25.88,18,38.44,5.71,11.07,12.88,21.15,23.21,28.32,6.73,4.67,12.94-6.25,6.38-10.92l-8.1-5.77c-6.07-4.32-12.11,4.8-7.6,9.85a44.21,44.21,0,0,0,21.78,13.36l1.74-12.83c-4-.21-15.78-0.7-13.23-7.38l-10.11,4.11c12.67,8.39,28.52,14.73,41.75,3.8,3.68-3,1.81-10.28-2.93-11.09-8.92-1.52-17.94-2.79-26.8-4.62-6.73-1.39-16-4.38-15.32-12.9,0.55-6.94-11-8.58-12.25-1.66-5.11,27.66,32.77,29,50.84,32l-2.93-11.09c-7.73,6.45-19-2-25.42-6.31-4-2.64-8.66.2-10.11,4.11-2.41,6.52.21,13.75,5.27,18.24,5.84,5.19,13.78,5.76,21.24,5.87,7.24,0.11,9-11.22,1.74-12.83a29.19,29.19,0,0,1-16.39-9.63l-7.6,9.85,8,5.86,6.38-10.92c-9.32-6.53-15.12-16.58-20.07-26.57-5.82-11.74-11.11-23.76-16.62-35.65-2.7-5.82-11.93-2.79-11.79,3.19a142.32,142.32,0,0,0,9.24,48.3c3,7.86,15.79,4.59,12.84-3.54-7.63-21-15.09-42.07-21.37-63.56-1.43-4.89-9.4-5.48-10.5,0-0.8,4-1,9.17,2.55,12.07,1,0.8,4,2.1,5,.64h0Z" transform="translate(-3423.42 -5224.85)"/><path class="b" d="M3566.27,5333.75c-1.32-5.79-6.82-10.11-9-15.71l-12.64,7.36a52,52,0,0,0,26.78,16.19c5.88,1.52,12-4,10.09-10.09a13.4,13.4,0,0,0-4.11-6.53c-1.64-1.44-3.87-2.15-5.43-3.61-2.9-2.72-3.56-7.61-4.66-11.22-1.43-4.71-3-10.15-7.56-12.77-5.83-3.38-11.41-.14-13.72,5.51a6.92,6.92,0,0,0,1.85,7l0.46,0.38c2.06,1.66,5.46,2.84,7.9,1q1.11-.75-0.91.17l-3.89-1.05c-1.92-1.23-.71-0.67-0.07,1.33,0.41,1.3.77,2.62,1.12,3.93a72.28,72.28,0,0,0,2.6,8.32,27.19,27.19,0,0,0,4.63,7.89,20.13,20.13,0,0,0,3.42,3,16,16,0,0,0,2.16,1.45q2.09,1.62.41-.5l10.09-10.09a45.33,45.33,0,0,1-20.45-11.07c-6.22-5.73-16.25,1.52-11.88,9.16,3.73,6.51,10,15.67,18.3,15.82a4.74,4.74,0,0,0,4.52-5.93h0Z" transform="translate(-3423.42 -5224.85)"/><path class="a" d="M3551.62,5356c-0.34-3.63-.9-7-0.52-10.66,0.56-5.44-8.58-5.66-8.65,0-0.14,11.65,6.39,22.64,13.19,31.65,7.23,9.57,14.91,18.52,21.51,28.56l7-7L3583,5398a4.87,4.87,0,0,0-5.87,7.61l0.85,1c4,4.6,10.35-1.25,8-6.17-4.7-9.78-12.82-17.94-19.55-26.33-7.36-9.17-12.47-18.51-15.45-29.9l-7.9,3.33c1.74,2.72,1.69,5.4,1.45,8.48-0.37,4.6,7.55,4.57,7.13,0h0Z" transform="translate(-3423.42 -5224.85)"/><path class="a" d="M3601.31,5424.54c-1.9-6.66-7.11-10.89-12.71-14.42-3.52-2.21-6.89,3.56-3.25,5.56,8.55,4.7,17.53,8.5,26.41,12.51,5,2.24,9.39-5,4.36-7.45-10.7-5.27-18.88-15.4-20.21-27.48-0.48-4.31-6.21-6.73-8.7-2.36A34.6,34.6,0,0,1,3585,5395c-1.37,1.74-.67,4.81,2,4.72,3-.1,5.58-0.78,7.54-3.18l-7.81-2.06a43.79,43.79,0,0,0,25,33.69l3.32-7.89c-9-3.68-18-7.56-27.25-10.51l-0.86,6.33c5.59,0.72,9.68,5.07,13,9.19a0.8,0.8,0,0,0,1.33-.78h0Z" transform="translate(-3423.42 -5224.85)"/><path class="a" d="M3549.64,5308.62c4.22,6.62,9.86,12.49,15.13,18.28,3.48,3.82,8.78-1,6.77-5.23-4.71-9.82-5.16-19.07-4.12-29.69,0.52-5.33-7.89-6.26-9.21-1.25-3.06,11.66-.22,25.11,5.88,35.29l6.77-5.23c-5.78-5.27-11.66-10.91-18.27-15.13a2.17,2.17,0,0,0-3,3h0Z" transform="translate(-3423.42 -5224.85)"/><path class="c" d="M3581.86,5305.81l-0.07.11,4.65,0.61,0-.22a2.65,2.65,0,0,0-1.9-1.9c-3-.65-5.34,1.81-5.84,4.58-0.67,3.73,1.47,7.8,4.29,10.08,2.1,1.7,5.53,1.86,7-.9,6.34-12.06-7.44-24.75-15.62-32-2.12-1.87-6.13-2-7.53,1-4.86,10.29-3,22.33,8.5,26.77,2.85,1.1,6.75-1.78,6.39-4.87-0.54-4.64-1.35-9.24-2.08-13.86-0.63-4-.2-8.65-2-12.3L3577,5288l0.43-.5-5.08.66,0.57,0.32-2-3.54,0,0.64c0.1,3.74,5.45,5.58,7.34,2l0.29-.55a4.21,4.21,0,0,0-.64-5l-0.46-.46a4.27,4.27,0,0,0-5.93,0l-0.48.45a4.15,4.15,0,0,0-1.09,4.11c1.23,3.4.89,7.62,1,11.19,0.18,3.9.27,7.82,0.61,11.71l6.39-4.87c-5.1-1.85-4.72-8.11-2.9-12.19l-7.53,1c4,3.37,17.9,14.35,14.73,20.7l7-.9c-1.62-1.25-1.46-2-2-3.8-0.47-1.54,0-3.62-.83-1.23l-2.62,2H3584c2.1-.08,3.48-2.78,1.8-4.34l-0.09-.08a2.48,2.48,0,0,0-3.83.49h0Z" transform="translate(-3423.42 -5224.85)"/><path class="c" d="M3601.71,5403c-0.17,3.84,4.78,4.74,6.6,1.67,2.72-4.6-2.79-9.9-6.32-12-3.68-2.2-7.33,2.07-5.58,5.58,5.61,11.24,16.91,17.75,29,19.33,5.4,0.7,6.57-7.17,2.61-9.62-2-1.25-19.19-10.39-18.49-12.31l-5.06,3.85c1.14,0,.12.35-0.51,1-3.08,3.37-.11,9.3,4.61,7.91,11.53-3.39,7-19.57-4.1-19.44a5.43,5.43,0,0,0-5.06,3.85c-2,5.32,1.33,10.05,5.49,13.13,5.57,4.12,12,7.35,17.9,10.88l2.61-9.62c-8.94-1-16.61-6.09-22-13.12l-4.61,6a5.46,5.46,0,0,1,2.9,1.75q1.38,3.52,3.38-1l1.9,1.9-0.15-.5a2.64,2.64,0,0,0-5.16.7h0Z" transform="translate(-3423.42 -5224.85)"/><path class="c" d="M3577.26,5389.08a3,3,0,0,0,4-2.85,4.76,4.76,0,0,0-1.53-3c-1.87-2.15-3.68-3.73-5.13-6.28-2.64-4.67-4.18-10-5.68-15.09-1.74-6-3.8-12.2-4.65-18.35-0.42-3-4.32-3.88-6.56-2.67-6.38,3.45-.81,11.84,1.08,16.45,2.85,7,5.09,15.41,10.55,20.82a3.46,3.46,0,0,0,5.84-2.42c0-5.39-2.35-10.16-4.45-15l-3.08-7.12c-0.46-1.07-3.79-6.59-3.38-7.67l-8.16,1.07c4.3,7.87,6.58,16.95,9.88,25.26a40.13,40.13,0,0,0,4.55,8.88,24.49,24.49,0,0,0,2.89,3.4,15.31,15.31,0,0,0,1.65,1.41q1.27,1.91,2.17-.15a1.75,1.75,0,0,0,0,3.34h0Z" transform="translate(-3423.42 -5224.85)"/><path class="d" d="M3574.29,5290.25c-3.27,2.77-.25,8.35,3.5,8.9a2.15,2.15,0,0,0,2.56-1.45c1-3.16-.64-7.7-4.16-8.43a1.06,1.06,0,0,0-1.27.72c-0.78,2.21-2.62,3.83-3.27,6.17a7.86,7.86,0,0,0,.2,5.11,6,6,0,0,0,7.76,3.58c3.2-1.32,4.75-5.4,4.15-8.65-0.76-4.1-4.3-6.8-7.54-9a2.61,2.61,0,0,0-3.52.92,6.49,6.49,0,0,0,.59,8.42,2.13,2.13,0,0,0,3.53-2.05c-0.58-2-3.37-3.49-5-1.67a0.61,0.61,0,0,0,.59,1l0.86-.28,3.53,0.93a3.72,3.72,0,0,1,.32-3.77l-3.52.92c2.22,1.58,6.76,5,4.46,8.18-1.43,2-3.34.38-3.92-1.43-0.73-2.31.7-5.88,2.49-7.4h-1.46c1.43,1.55,2.39,3,1.37,5.1l1.8-1c-2.35-.29-3.4-2.43-3.57-4.61a0.29,0.29,0,0,0-.48-0.2h0Z" transform="translate(-3423.42 -5224.85)"/><path class="d" d="M3562.2,5317.88l-1.92-4c-0.18-.38-0.77,0-0.57.33l2.08,4c0.14,0.27.53,0,.4-0.24h0Z" transform="translate(-3423.42 -5224.85)"/><path class="d" d="M3566.29,5322.34a1.82,1.82,0,0,0-.37-2.87c-1.91-1-4,.52-5,2.08a2.64,2.64,0,0,0,1.57,3.86,5,5,0,0,0,5.22-2.77,6.43,6.43,0,0,0,.75-2.82,5,5,0,0,0-1.35-3.32,2.87,2.87,0,0,0-4.8,2.8c0.05,0.15.32,0.84,0,0,0.1,0.31,0,.7.13,1-0.2-.55-0.06-0.34-0.06,0,0-.38.15-0.41,0-0.06s0.36-.61,0,0,0.25-.23,0,0,0.45-.24,0,0a6,6,0,0,0-.52.33l3.86,1.57c0.08,0.42.11-.15,0,0.07,0.07-.14.07-0.2,0.12-0.31a2.44,2.44,0,0,0,.28-0.49l-0.35.1q0.21,0.07,0,.27a0.38,0.38,0,0,0,.53.53h0Z" transform="translate(-3423.42 -5224.85)"/><path class="d" d="M3564.29,5357.83c-0.33-.67-0.41-2.35-0.72-3.2a1.39,1.39,0,0,0-2.66,0,6.07,6.07,0,0,0,4.09,7.73,1.91,1.91,0,0,0,2.13-2.77,63,63,0,0,0-7.83-10.93l-3.23,3.23a11.84,11.84,0,0,0,5.5,3.25l-1.94-2.54a10,10,0,0,0,1.33,5.61c1.32,2.42,5.54.77,4.54-1.91a9.42,9.42,0,0,1-.6-3.7,2.67,2.67,0,0,0-1.94-2.54,12.57,12.57,0,0,1-4.13-1.76c-2.17-1.48-4.58,1.79-2.77,3.59a57.82,57.82,0,0,1,7.8,9.6l2.13-2.77a3.18,3.18,0,0,1-2.39-3.73l-2.35,1c0.6,0.67,2.11,1.56,2.54,2.15a0.28,0.28,0,0,0,.49-0.28h0Z" transform="translate(-3423.42 -5224.85)"/><path class="d" d="M3572,5370.43a4,4,0,0,0-.35.85l0.35-.59a2.07,2.07,0,0,0-.39,2.23,4.83,4.83,0,0,0,1,1.65,3.54,3.54,0,0,0,3.66,1,1.82,1.82,0,0,0,1.28-1.68,1.75,1.75,0,0,0-1.28-1.68c-0.26,0-.53,0-0.79-0.1,0.42,0.09-.1-0.06-0.14-0.08,0.4,0.13-.18-0.07-0.37-0.17a0.66,0.66,0,1,1,.07,0l-0.21-.12a0.31,0.31,0,0,1-.09-0.08c-0.25-.17,0,0.1-0.15-0.16a2.42,2.42,0,0,0-1-1.1l0.48,0.48a1.09,1.09,0,0,0,0-.26,1.14,1.14,0,0,0-2.06-.27h0Z" transform="translate(-3423.42 -5224.85)"/><path class="d" d="M3607.13,5404.89a19,19,0,0,0-3.36-8.84,2.15,2.15,0,0,0-2.84-.74,5.21,5.21,0,0,0-2.88,3.31,2.18,2.18,0,0,0,.58,2.19c5.11,4.28,11.75-1.45,8.53-7.23-1.43-2.56-5.09-1.25-5.25,1.42a6.58,6.58,0,0,0,5.27,6.91,3.23,3.23,0,0,0,3.49-1.42c3.62-5.74-4.88-10.81-8.4-5a3.13,3.13,0,0,0,2.67,4.66c2.85,0.16,5.92-1.38,8.45-2.62l-4.27-1.74c0.5,1.24.89,2.5,1.28,3.78,1.21,4,7.82,3.45,7.53-1s-4.1-9-8.86-8.58c-2,.19-3.85,2.38-2.51,4.37s2.86,4,4.23,6.14l6-4.65c-1-.93-1.94-1.86-2.83-2.88a2.94,2.94,0,0,0-4.11,0c-1.49,1.49-3,1.1-4.92,1l2.67,4.66-2.28-1.23,3.49-1.42c-0.62-.11-1.24-0.17-1.28-0.94l-5.25,1.42c0.74,1,.07,1.51-0.94.85l1,2.54,0.63-.92h-2.1a12.32,12.32,0,0,1,5.24,6.26,0.52,0.52,0,0,0,1-.26h0Z" transform="translate(-3423.42 -5224.85)"/><path class="d" d="M3598.2,5421.8l-1-1a0.28,0.28,0,0,0-.4.4l1,1a0.28,0.28,0,0,0,.4-0.4h0Z" transform="translate(-3423.42 -5224.85)"/><path class="d" d="M3591.44,5402.89l-0.13.27a0.9,0.9,0,0,0,0,.9c1,1.37,2.78.88,2.73-.9,0-1.61-1.34-3.4-2-4.84l-2.67-6.36a0.89,0.89,0,1,0-1.63.69l2.23,5.05c0.37,0.84.75,1.68,1.12,2.53,0.16,0.37,1.8,3.65,1.84,3.58,0.49-1-1-1.93-1.54-.9h0Z" transform="translate(-3423.42 -5224.85)"/><path class="a" d="M3588.35,5260.18c2.3-12.25,6.11-24.09,16.65-31.61a2,2,0,0,0-2-3.48c-12.65,5.91-14.93,22.26-17,34.44-0.25,1.53,2.06,2.2,2.35.65h0Z" transform="translate(-3423.42 -5224.85)"/><path class="a" d="M3502.45,5264.23c-3.65-2.05-7.11-4.36-10.62-6.65-1.8-1.17-3.56,2-1.66,2.83,3.83,1.72,7.66,3.39,11.38,5.35a0.89,0.89,0,0,0,.9-1.54h0Z" transform="translate(-3423.42 -5224.85)"/><path class="a" d="M3510.6,5461.63c-5.13,3.84-10.49,7.4-14.85,12.12a1.74,1.74,0,0,0,2.1,2.72c5.61-2.68,10.43-6.59,15.45-10.23,2.77-2,0-6.67-2.7-4.61h0Z" transform="translate(-3423.42 -5224.85)"/><path class="b" d="M3688.49,5398.85c17.31,4.31,36.29-4.9,47.78-17.59,2.74-3-1.62-7.46-4.51-4.51-11.82,12.11-26.5,16.18-42.76,18.32-2,.26-2.81,3.2-0.51,3.78h0Z" transform="translate(-3423.42 -5224.85)"/><path class="b" d="M3521,5357.72a5,5,0,0,0,4.67-2.38,2.07,2.07,0,0,0-.32-2.5c-1.86-1.44-4.68-2-6.71-.48a2.8,2.8,0,1,0,3.39,4.4c0.1-.11.79-0.65,0.25-0.29a3.32,3.32,0,0,1,.37-0.22,0.92,0.92,0,1,0-.11,0l0.31-.09q-0.41,0,0,0t0.06,0a2.27,2.27,0,0,1,.41.11l-0.49-3.77c-0.31.18,0,0-.18,0.08-0.37.1,0.53,0-.13,0,0.28,0,.22.13,0,0,0.52,0.37-.06-0.06-0.14-0.11a2.83,2.83,0,0,0-4.13,1.68,2.91,2.91,0,0,0,.28,2.17,2.94,2.94,0,0,0,2.43,1.39h0Z" transform="translate(-3423.42 -5224.85)"/><path class="b" d="M3629,5313c5.13,0,5.14-8,0-8s-5.14,8,0,8h0Z" transform="translate(-3423.42 -5224.85)"/><path class="b" d="M3477.56,5282l0.9-.36a1.79,1.79,0,0,0,1.27-1.67,1.83,1.83,0,0,0-1.27-1.67l-0.9-.36a2.11,2.11,0,1,0,0,4.07h0Z" transform="translate(-3423.42 -5224.85)"/><path class="c" d="M3674.36,5323.31q13.57-3.79,27.19-7.3c2.75-.71,1.52-5.14-1.17-4.25q-13.38,4.44-26.82,8.65a1.5,1.5,0,0,0,.8,2.89h0Z" transform="translate(-3423.42 -5224.85)"/><path class="c" d="M3464.63,5345.61a49.19,49.19,0,0,0-19.27-6.78,53.48,53.48,0,0,0-20,.76c-3.07.72-2.08,4.88,0.7,5.16,12.69,1.25,25.5,1.85,38.19,2.44a0.85,0.85,0,0,0,.43-1.57h0Z" transform="translate(-3423.42 -5224.85)"/><path class="c" d="M3557.28,5364.16c2.78,3.93,5.26,8.08,7.9,12.1,0.85,1.29,3.31.49,2.66-1.12a56.29,56.29,0,0,0-7.48-12.78c-1.35-1.8-4.42-.1-3.08,1.8h0Z" transform="translate(-3423.42 -5224.85)"/><path class="c" d="M3565.73,5371.07a49.28,49.28,0,0,1-5.56-18.56c-0.34-3.23-5.17-2.47-4.33.59a69.61,69.61,0,0,0,8.52,18.78,0.8,0.8,0,0,0,1.38-.8h0Z" transform="translate(-3423.42 -5224.85)"/><path class="c" d="M3558.77,5359.46a3.34,3.34,0,0,1,.46,2.22l1.93,1.1c-1.62-6-4.84-11.78-7.37-17.46-1.43-3.23-7-.92-5.75,2.42a109.24,109.24,0,0,0,6.58,15.14c1.47,2.68,5.66.85,4.88-2.06a109.3,109.3,0,0,0-5.71-15.5l-5.43,3.17c3.24,5.27,6.16,11.09,10.17,15.82a1.58,1.58,0,0,0,2.47-.32c0.91-1.95.35-3.64-.86-5.34a0.8,0.8,0,0,0-1.38.8h0Z" transform="translate(-3423.42 -5224.85)"/><path class="c" d="M3564.64,5375.87l-2.3-2.7a1.87,1.87,0,0,0-2.46-.15,1.89,1.89,0,0,0-.48,2.42l1.64,3.21a2.29,2.29,0,1,0,3.61-2.78h0Z" transform="translate(-3423.42 -5224.85)"/><path class="c" d="M3582.24,5396.22a3.54,3.54,0,0,0,.3-2.42,2.82,2.82,0,0,0-1.51-1.71,1.12,1.12,0,0,0-1.31.17,1.09,1.09,0,0,0-.17,1.31,1.29,1.29,0,0,1,.16.31q0,0.24,0,0a2.74,2.74,0,0,0,.06.51q0.05,0.25,0,0a2.11,2.11,0,0,1,0,.27c0-.32-0.14.34,0,0.08a1.45,1.45,0,0,0,.5,1.92,1.42,1.42,0,0,0,1.92-.5h0Z" transform="translate(-3423.42 -5224.85)"/><path class="e" d="M3584.06,5293.16c2.15-5.44-1.25-11.15-6.2-13.72-6.06-3.15-13.21-.14-18.15,3.75-12.23,9.62-21.84,27.06-18.71,42.89,2.89,14.6,16.8,26.25,32,22,14.84-4.19,29.1-22.57,27.41-38.25a23.83,23.83,0,0,0-14.24-19.26c-7.22-3-20.74-3.2-23.63,5.91-0.81,2.56,1.34,4.66,3.71,4.87,3.26,0.28,5.9-1.41,9.05-1.87a12.86,12.86,0,0,1,9.39,2.15c5.5,3.94,6.58,10.64,4.52,16.75-3.66,10.88-16.69,25.8-29.53,19.88-13.3-6.13-13.12-23-7.95-34.47a50.56,50.56,0,0,1,11.57-16.53c2.74-2.47,6.45-4.77,10.3-4.55,5.19,0.31,10.28,4.46,9,10.06a0.8,0.8,0,0,0,1.54.42h0Z" transform="translate(-3423.42 -5224.85)"/><path class="e" d="M3548.9,5304.49c-2.27-2.49-5.19.34-6.23,2.68-2.3,5.16-2.52,12.17-3,17.74a138.59,138.59,0,0,0,2.46,38.47c5.24,25.7,17.55,49.68,36.13,68.25,2.57,2.57,6.48-1.36,4-4a140,140,0,0,1-33-56.56,135.85,135.85,0,0,1-5.51-32.22,131.72,131.72,0,0,1,.17-15.51c0.2-2.84.53-5.66,0.86-8.48,0.1-.83,1-10.58,3.07-9.07,0.81,0.59,1.64-.65,1-1.33h0Z" transform="translate(-3423.42 -5224.85)"/><path class="e" d="M3616.7,5393.51c-16.64-22.44-56.44,12.18-42.37,34.35,6.91,10.89,23.51,16.69,35.86,16.91,13.77,0.25,22.94-10.61,22.49-24-0.54-16.07-14.13-27.85-27-35.5-2.64-1.57-5.75,2.23-3.35,4.34,9.07,8,21.38,15.89,22.24,29.22,0.32,5-1,10.69-5,14.1-5.59,4.8-14.2,3-20.64,1.35-11.82-3.12-25.23-10.91-19.7-25.23,4.77-12.35,24.24-27.56,35.81-14.31,0.76,0.87,2.32-.3,1.62-1.25h0Z" transform="translate(-3423.42 -5224.85)"/><path class="e" d="M3585.55,5394.32a108.11,108.11,0,0,1-13-49.89c0-3.63-5.48-3.61-5.62,0a75.2,75.2,0,0,0,17.19,51c0.67,0.8,1.85-.22,1.4-1.08h0Z" transform="translate(-3423.42 -5224.85)"/><path class="e" d="M3583.36,5296.06c-6.23-6.42-14.33,6.14-16.06,11a27.41,27.41,0,0,0,5.25,26.81c2,2.36,5.63-1.16,3.45-3.45a22.66,22.66,0,0,1-6.12-17.06,25.57,25.57,0,0,1,2.1-8.86c1.45-3.3,6.07-11,10.88-7.81a0.42,0.42,0,0,0,.51-0.66h0Z" transform="translate(-3423.42 -5224.85)"/><path class="e" d="M3617,5408c3.83-6.95-1.88-14.14-7.74-17.89-7.94-5.08-13,6.06-13.91,12.31-2.54,17,14.27,34.85,31.6,27.69,2.2-.91,2.27-4.85-0.62-4.6-10.52.9-21.57-2.78-24.78-13.87-1.23-4.26-1.55-12.32,1.86-15.87s6.83,0.29,9.22,2.84,4.54,5.37,3.35,9a0.57,0.57,0,0,0,1,.43h0Z" transform="translate(-3423.42 -5224.85)"/><path class="e" d="M3590.32,5294.17c-0.71-1.54-1.42-3.08-2.09-4.64a1.48,1.48,0,0,0-2-.53c-9.71,7.47-20.21,23.48-13.1,35.88,5.48,9.55,21.5,8.7,23-3.17,0.54-4.32-6-4.75-7.27-1-0.79,2.42-4.19,2.87-6.37,2.37-3.73-.86-5-5.09-5.07-8.5-0.24-8.71,5.14-17,10.62-23.27l-2.32-.3c0.87,1.45,1.7,2.91,2.53,4.38s2.75,0.17,2.1-1.23h0Z" transform="translate(-3423.42 -5224.85)"/><path class="e" d="M3603.36,5401.54c6.56,5.24,11.94,11.79,19.14,16.26a0.75,0.75,0,0,0,.91-1.18c-5.9-6.05-13.46-9.89-20-15.15,0,0-.12,0-0.07.07h0Z" transform="translate(-3423.42 -5224.85)"/><path class="e" d="M3618.53,5397.71c-4.42,7.28-10.44,13.3-15,20.39-1.07,1.66,1.23,3.11,2.58,2,6.47-5.39,10.51-14,13.82-21.58a0.8,0.8,0,0,0-1.38-.8h0Z" transform="translate(-3423.42 -5224.85)"/></svg>