<svg xmlns="http://www.w3.org/2000/svg" viewBox="0 0 228.98 232.72"><defs><style>.a{fill:#0a1e2f;}</style></defs><title>icon_sketch</title><path class="a" d="M3481.28,2485.54q-1.29-.79-2.6-1.55-3.16,4-6.31,8C3475.25,2489.72,3478.25,2487.61,3481.28,2485.54Z" transform="translate(-3325.81 -2445.26)"/><path class="a" d="M3469.82,2528.43c8.56-11,17-22.09,23.81-34.13q-1.78-1.45-3.61-2.82c-6.41,4.33-12.74,8.75-18.17,14.42-8,8.39-14.93,17.8-23.2,26a214.86,214.86,0,0,1-12,22.91l-0.49.94Z" transform="translate(-3325.81 -2445.26)"/><path class="a" d="M3464,2464.73a4.24,4.24,0,0,1-.24.66q2.62,1,5.21,2.06l0.61-.32A52.75,52.75,0,0,1,3464,2464.73Z" transform="translate(-3325.81 -2445.26)"/><path class="a" d="M3389.27,2554.47l5.14,5,2-12.65Q3392.85,2550.66,3389.27,2554.47Z" transform="translate(-3325.81 -2445.26)"/><path class="a" d="M3554.78,2582a133.49,133.49,0,0,0-24.85-75.64l-1.11,1.17c-1.55,1.64-3,3.34-4.54,5a126.36,126.36,0,0,1,22.07,69.67,124.84,124.84,0,0,1-35.39,90l6,5.78A135.57,135.57,0,0,0,3554.78,2582Z" transform="translate(-3325.81 -2445.26)"/><path class="a" d="M3511.12,2512.11a113,113,0,0,0-10-11.17c-6.29,10.6-13.66,20.5-21.2,30.31,2.69-1.54,5.39-3.06,8.1-4.56C3495.88,2522.32,3504.58,2518.46,3511.12,2512.11Z" transform="translate(-3325.81 -2445.26)"/><path class="a" d="M3517,2520.37l-0.2.19c-6.22,5.83-14.41,9.58-21.8,13.67-9.77,5.4-19.58,10.85-28.62,17.42-1.32,1-2.83,2.06-4.37,3.26a217.37,217.37,0,0,0-12,18.62c-1.9,3.34-6.65,2.94-8.53.19l-14.81,19,96.18-8.53L3443.6,2607l59.91,58C3540.77,2626.48,3546,2565.13,3517,2520.37Z" transform="translate(-3325.81 -2445.26)"/><path class="a" d="M3414.18,2568.34c2-8.16,5.81-15.9,10.13-23.23a5.11,5.11,0,0,1,.37-1.29,138.17,138.17,0,0,1,6.58-13c-6.7,9-13.24,18.15-21.74,25.49l0.93,20.32,4.76-3.87A4.94,4.94,0,0,1,3414.18,2568.34Z" transform="translate(-3325.81 -2445.26)"/><path class="a" d="M3433.2,2575.45c8.75-12.23,16.77-25.14,22.79-38.94,0.35-.81-0.81-1.54-1.21-0.71-6.61,13.58-13.52,26.87-21.9,39.46-0.14.2,0.19,0.38,0.32,0.19h0Z" transform="translate(-3325.81 -2445.26)"/><path class="a" d="M3424.32,2576.65c8.59-21.7,19.33-42.2,30.72-62.53a1.56,1.56,0,0,0-2.7-1.58,595.44,595.44,0,0,0-39.17,73.49l3.11,0.84c3.89-30.51,7.19-61.46,8.6-92.19,0.07-1.6-2.62-2-2.85-.39-4.45,30.58-7.12,61.73-9.09,92.58-0.13,2,2.67,2.11,3.28.44a309.68,309.68,0,0,1,38.82-73.2l-2.7-1.58c-12.25,20-21.67,41.68-29.56,63.68-0.35,1,1.17,1.36,1.54.42h0Z" transform="translate(-3325.81 -2445.26)"/><path class="a" d="M3401.44,2564.89a71.15,71.15,0,0,0-11.46-53.61l-2.86,2.21a14,14,0,0,1,3.41,7.79,1.17,1.17,0,0,0,2.34,0,15.62,15.62,0,0,0-2.89-10c-1.35-1.89-4.51-.07-3.14,1.84a73.15,73.15,0,0,1,12.95,51.55,0.85,0.85,0,0,0,1.66.22h0Z" transform="translate(-3325.81 -2445.26)"/><path class="a" d="M3398.38,2556.72c1.47,2.49,2.94,4.95,4.19,7.56,0.73,1.53,3.24.45,2.73-1.15-2.95-9.22-8.24-18.15-13.23-26.41-5.13-8.49-10.56-16.63-17.62-23.63a1,1,0,0,0-1.62,1.25c5,8.29,10.77,16.1,15.82,24.38s9,17.23,13.93,25.56l2.35-1.81c-1.85-2.08-3.5-4.32-5.16-6.55a0.8,0.8,0,0,0-1.38.8h0Z" transform="translate(-3325.81 -2445.26)"/><path class="a" d="M3392.32,2537.61c5.82,7.11,13.29,17.22,14,26.7l2.76-.75c-4.21-6.65-10.86-12.42-16.28-18.12q-8.6-9-17.23-18c-11.69-12.25-23.06-25-35.19-36.77l-3.15,3.15,3.7,3,1.38-3.33a19.21,19.21,0,0,1-8-2.53l0.35,2.69c12.18-10.61,25.31-19.43,38.66-28.44a1.45,1.45,0,0,0-1.47-2.51c-14.21,7.7-27.39,18-39.62,28.53a1.73,1.73,0,0,0,.35,2.69,31.57,31.57,0,0,0,9.18,3.4,2,2,0,0,0,1.9-3.26l-3.31-3.44c-2-2.08-5,1-3.15,3.15,11.27,12.64,23.46,24.56,35.18,36.79q8.63,9,17.27,18c5.44,5.65,10.93,12.53,17.37,17a1.49,1.49,0,0,0,2-2c-3.07-4.49-4.9-9.72-7.66-14.41a87.15,87.15,0,0,0-8.6-12c-0.27-.32-0.73.14-0.46,0.46h0Z" transform="translate(-3325.81 -2445.26)"/><path class="a" d="M3510.95,2519.14c-11.26-19.93-28.93-36-51.48-41.82-2.59-.67-3.6,3.14-1.1,4,20.67,7,39.84,19.68,51.6,38.41a0.56,0.56,0,0,0,1-.57h0Z" transform="translate(-3325.81 -2445.26)"/><path class="a" d="M3487.77,2480.9c-24.3-7.82-50.66-16.37-76.34-11-1.94.41-1.54,3.64,0.47,3.5,25.8-1.82,50.31,4.12,75.32,9.45a1,1,0,0,0,.55-2h0Z" transform="translate(-3325.81 -2445.26)"/><path class="a" d="M3451.92,2466.68c-29-10-59.21-2-87.43,6.7-3.51,1.08-2,6.61,1.52,5.51,27.41-8.47,56.77-17.95,85.59-11a0.61,0.61,0,0,0,.32-1.18h0Z" transform="translate(-3325.81 -2445.26)"/><path class="a" d="M3386.17,2466.29a119.8,119.8,0,0,0-46.6,18.7c-2.32,1.54-.26,5.18,2.2,3.77a169.77,169.77,0,0,1,71.14-22c3.64-.29,3.69-6,0-5.72a161.61,161.61,0,0,0-73.34,23.91l2.65,3.43a109.56,109.56,0,0,1,44.33-20.78c0.9-.2.5-1.5-0.37-1.36h0Z" transform="translate(-3325.81 -2445.26)"/><path class="a" d="M3518.85,2504.52a3.25,3.25,0,0,0,4.68.37,0.75,0.75,0,0,0,.27-1c-8.39-11.76-17.37-23.31-26.59-34.42l-2.54,2.54c4.55,4.49,8.67,9.19,12.8,14.07,0.67,0.79,1.75-.34,1.13-1.13-3.9-4.93-7.66-9.86-11.11-15.12a1.79,1.79,0,1,0-2.82,2.18c4.47,5.63,9.2,11,13.86,16.52l6.34,7.46c1.27,1.49,2.52,3,3.81,4.48l1.31,1.45q3,1.93-.73,2.11a0.33,0.33,0,0,0-.4.52h0Z" transform="translate(-3325.81 -2445.26)"/><path class="a" d="M3521.13,2493.71c-12.7-13.85-27.33-26.85-44.84-34.28-1.62-.69-3,1.48-1.42,2.43,16.18,9.56,32,19.29,45.26,32.85a0.7,0.7,0,0,0,1-1h0Z" transform="translate(-3325.81 -2445.26)"/><path class="a" d="M3490.75,2466.54a88.63,88.63,0,0,0-37.42-15.61c-0.53-.09-0.76.7-0.22,0.81a109,109,0,0,1,37.18,15.61c0.51,0.34,1-.46.47-0.81h0Z" transform="translate(-3325.81 -2445.26)"/><path class="a" d="M3469.55,2455.78a84.63,84.63,0,0,0-49.08-8,1.17,1.17,0,1,0,.31,2.3,93,93,0,0,1,48.41,6.53c0.49,0.2.83-.62,0.36-0.86h0Z" transform="translate(-3325.81 -2445.26)"/><path class="a" d="M3402.37,2448.52a6.46,6.46,0,0,0-2.21-2.35,5.64,5.64,0,0,0-1.51-.7,5.58,5.58,0,0,0-4.17.55l-1,.79-0.79,1a5,5,0,0,0-.6,3.23,4.81,4.81,0,0,0,1,2.4,4.61,4.61,0,0,0,2.64,1.82,5.93,5.93,0,0,0,2.9,0,11.82,11.82,0,0,0,1.47-.62l-1.19.5,0.33-.09-1.27.17a2.4,2.4,0,0,1,.47,0l-1.2-.16,0.12,0a5.75,5.75,0,0,0,2.38,0,4.43,4.43,0,0,0,2.32-1.6,4.23,4.23,0,0,0,.88-2.11,4.69,4.69,0,0,0-.53-2.85h0Z" transform="translate(-3325.81 -2445.26)"/><path class="a" d="M3380.77,2451.72a8.83,8.83,0,0,0-1.15.52,6.41,6.41,0,0,1-.6.44,15.52,15.52,0,0,1-2.13.69c-1,.33-0.56,2,0.44,1.61,0.69-.26,1.39-0.59,2.1-0.78a7.08,7.08,0,0,1,1-.09,12,12,0,0,0,1.24-.31c1.53-.38.68-2.77-0.87-2.07h0Z" transform="translate(-3325.81 -2445.26)"/><path class="a" d="M3374.74,2454.86a0.3,0.3,0,0,0,0-.6,0.3,0.3,0,0,0,0,.6h0Z" transform="translate(-3325.81 -2445.26)"/><path class="a" d="M3367.92,2455.74l-2.48,1.21a1.61,1.61,0,1,0,1.62,2.78l2.24-1.62a1.37,1.37,0,0,0-1.38-2.37h0Z" transform="translate(-3325.81 -2445.26)"/><path class="a" d="M3330.59,2477.36a32.48,32.48,0,0,1,7.32-5.58c1-.53,0-2.07-0.84-1.44a33.87,33.87,0,0,0-6.86,6.73c-0.17.22,0.19,0.48,0.37,0.29h0Z" transform="translate(-3325.81 -2445.26)"/><path class="a" d="M3328.73,2482.12c7.13-7.54,14.5-14.21,24-18.67,2.29-1.08.66-5.07-1.74-4.14-10.26,4-19.78,10.76-25,20.72-0.88,1.68,1.31,3.58,2.71,2.09h0Z" transform="translate(-3325.81 -2445.26)"/></svg>