<svg xmlns="http://www.w3.org/2000/svg" viewBox="0 0 268.89 283.52"><defs><style>.a{fill:#fabe91;}.b{fill:#fb875b;}.c{fill:#804646;}.d{fill:#252938;}.e{fill:#fff;}.f{fill:#0a1e2f;}</style></defs><title>icon_art</title><path class="a" d="M2977.48,2839.25c4.71,0,4.71-7.31,0-7.31s-4.71,7.31,0,7.31h0Z" transform="translate(-2841.81 -2689.92)"/><path class="a" d="M2976.87,2833.12a3.82,3.82,0,0,1-2.25-.78l-1.51,5.73a24.73,24.73,0,0,1,15.36-.14c3.21,1,4.82-3.49,2.2-5.23a19.87,19.87,0,0,0-20.21-.91,3.46,3.46,0,0,0,0,5.92,10.51,10.51,0,0,0,5.6,1.37c3.25-.11,4.36-5.45.81-6h0Z" transform="translate(-2841.81 -2689.92)"/><path class="a" d="M2988.8,2838.07a53.46,53.46,0,0,1-14.63-3.4v5.42a49.18,49.18,0,0,1,17.44-2.52c2.4,0.07,2.43-3.08.52-3.87A23.57,23.57,0,0,0,2972,2835c-2.07,1.1-1.69,4.64.67,5.14a99.42,99.42,0,0,0,16.12,2.2c2.75,0.12,2.66-4,0-4.22h0Z" transform="translate(-2841.81 -2689.92)"/><path class="a" d="M2997.14,2840.45a119.31,119.31,0,0,0-26.43-1.23c-2.74.13-3.42,4.07-.66,4.86a76.15,76.15,0,0,0,17.32,2.85c3.13,0.16,3-4.44,0-4.78a131.11,131.11,0,0,1-16-2.84v4.77c8.4-2.28,16.87-2.34,25.45-1.24,1.35,0.17,1.68-2.16.32-2.39h0Z" transform="translate(-2841.81 -2689.92)"/><path class="a" d="M3001.14,2847.86a113.18,113.18,0,0,1-37.29,1v5.65c11.87-1.81,23.35.08,35.12,1.88,2.91,0.45,4.22-3.65,1.25-4.52-12.17-3.57-25.36-6.65-37.93-3a2.94,2.94,0,0,0,.78,5.75,159.53,159.53,0,0,0,38.76-4.19c1.66-.4.94-2.83-0.7-2.53h0Z" transform="translate(-2841.81 -2689.92)"/><path class="a" d="M3010.91,2858.64c-16.56-1.81-33.1-3.77-49.68-5.42-3.15-.31-3.84,4.89-0.75,5.53,10.69,2.23,22.06,3.6,32.34,7.28l-0.55-4.21c-4.47,3.15-11.06,1.68-16.19,1.38q-8.92-.51-17.85-1v8.3a71,71,0,0,1,26.22,3.25l-0.52-4c-5,2.52-10.94,2.22-16.36,2v6.41c5.91-.52,12.36-0.76,17.81,1.79v-4.86c-5.48,2.62-11.31,3.39-17.33,3.67a3.49,3.49,0,0,0-.92,6.82c3.72,1.18,7.5,1.66,11.21,2.74l0.65-4.84c-6.58-.53-13.12-1.36-19.69-1.91-3.62-.3-4.13,5.19-0.83,6.17a43,43,0,0,1,15,7.88l2.87-4.94c-6.59-2.16-13.14-4.49-19.75-6.56l-1.93,7c5.21,0.82,10.31,2.89,13.75,7l2-4.85a15.4,15.4,0,0,1-10-4.41l-3.8,4.93a103.21,103.21,0,0,1,23.51,25.12l4.49-4.49a53.06,53.06,0,0,1-14.05-12.86l-4.74,4.74c3.62,2.06,7.28,4.07,10.92,6.09s7.72,3.22,11.62,4.9a1.5,1.5,0,0,0,1.51-2.59c-12-8.64-24-17.16-36.6-24.93l-0.93,3.42c11.28-1.23,21.11,5.86,30.64,10.87,9.21,4.83,19.09,10.25,29.41,12a1,1,0,0,0,.79-1.88c-9.77-6.76-21.56-10.82-32.16-16.19-9.07-4.59-18.18-9.68-28.69-8.47a1.85,1.85,0,0,0-.93,3.42c12.42,7.88,25,15.78,36.94,24.35l1.51-2.59c-3.36-2.59-6.34-5.54-9.93-7.79s-7.06-4.43-10.63-6.6-6.51,2.54-4.2,5.44a64.76,64.76,0,0,0,16.18,14.33c2.73,1.73,6.28-1.74,4.49-4.49a98.14,98.14,0,0,0-26-27.22c-2.9-2-6.49,2.59-3.8,4.93a21.93,21.93,0,0,0,14.39,5.65c2.56,0.06,3.61-3.1,2-4.85-4.56-5-9.15-8.46-15.84-10-4.54-1-6.45,5.73-1.93,7,6.66,1.87,13.42,3.48,20.11,5.26,2.72,0.73,5.16-2.92,2.87-4.94a45.81,45.81,0,0,0-17.55-9.76l-0.83,6.17c6.56,0.27,13.13.26,19.69,0.55,3,0.13,3.08-3.89.65-4.84-3.64-1.42-7-3.35-10.67-4.69l-0.92,6.82c7.25-.06,13.8-2.41,20.17-5.76,1.72-.9,2-4,0-4.86-7.22-3.06-13.7-5-21.5-3.23-3.46.77-2.78,6.71,0.85,6.29,6.29-.72,11.9-3.1,18-4.38,2-.41,2-3,0.52-4a43.73,43.73,0,0,0-27.9-7.56c-5.29.33-5.37,8.51,0,8.3q11.27-.44,22.54-0.93c5.25-.23,10.2-0.49,14.28-4.12a2.32,2.32,0,0,0-1-3.85c-10.77-2.53-21.09-6.41-32.07-8.27l-0.75,5.53c16.56,1,33.12,1.74,49.68,2.61,1.84,0.1,1.76-2.62,0-2.81h0Z" transform="translate(-2841.81 -2689.92)"/><path class="a" d="M2998.37,2901.44c-5.11-4.38-10.09-9-15.46-13-0.56-.42-1.21.48-0.74,1,4.69,4.73,9.89,9,14.87,13.41,0.9,0.8,2.24-.54,1.33-1.33h0Z" transform="translate(-2841.81 -2689.92)"/><path class="a" d="M3015.58,2880.31a36,36,0,0,1-13.17-4.89l-0.84,3.09c14.6,1,29.11,3,43.64,4.74,2.35,0.28,2.83-3.59.56-4.11-20.66-4.78-41.44-6.28-62.55-7.42v3.52c16.77-1.15,33.93-1.68,50.52-4.43,2.72-.45,2.07-4.89-0.65-4.79-16.62.61-33.39,3.51-49.87,5.7-2.16.29-2.34,3.54,0,3.52,20.64-.2,41.35,3.43,61.44,7.95l0.56-4.11-22-2.49c-7.18-.81-14.38-1.94-21.61-1.38-1.51.12-2.42,2.28-.84,3.09a45.07,45.07,0,0,0,14.1,4.74c1.76,0.26,2.55-2.39.75-2.71h0Z" transform="translate(-2841.81 -2689.92)"/><path class="a" d="M2997.75,2862.36h0.94a1.78,1.78,0,0,0,0-3.56h-0.94a1.78,1.78,0,0,0,0,3.56h0Z" transform="translate(-2841.81 -2689.92)"/><path class="a" d="M3021.2,2847.83c-8.59,1.5-17.65,2.68-26.29.81l0.59,4.48c4.75-2.9,8.75-7,12.82-10.74,2.11-2-.18-4.81-2.57-4.41a180.07,180.07,0,0,1-21.57,2.3l2.4,3.15,2.08-2.28c2.9-1.4.37-5.59-2.51-4.29a7.21,7.21,0,0,0-4.36,5.25c-0.37,1.43.74,3.31,2.4,3.15,7.42-.74,14.84-1.4,22.27-2.09l-1.87-4.5c-4.16,3.32-8.62,6.52-12.06,10.62a2.47,2.47,0,0,0,2.39,4.1c8.73-2.06,17.65-3,26.34-5.36a0.09,0.09,0,0,0,0-.18h0Z" transform="translate(-2841.81 -2689.92)"/><path class="a" d="M3009.14,2823.81a47.89,47.89,0,0,1-16.61-.67c-2.11-.43-3,2.75-0.9,3.25a44.09,44.09,0,0,0,18.28.22c1.86-.35,1-3.07-0.77-2.8h0Z" transform="translate(-2841.81 -2689.92)"/><path class="a" d="M2977.95,2812.53a1,1,0,0,0,0-2,1,1,0,0,0,0,2h0Z" transform="translate(-2841.81 -2689.92)"/><path class="a" d="M2976,2809.59l1.89,4.71a1.55,1.55,0,0,0,1.85,1,1.51,1.51,0,0,0,1-1.85l-1.89-4.71a1.55,1.55,0,0,0-1.85-1,1.51,1.51,0,0,0-1,1.85h0Z" transform="translate(-2841.81 -2689.92)"/><path class="a" d="M2983.53,2813.43l0.44-9.3c0.06-1.37-2-1.36-2.13,0-0.73,12.38-2.18,24.17,2.25,36.09,0.74,2,3.61,2.73,4.77.62,4.65-8.43,10.53-15.75,16.26-23.44a2.35,2.35,0,0,0-1.4-3.45c-11.49-1.76-23-6.44-34-10.11-1.64-.55-2.81,2.11-1.19,2.83,11.08,4.9,22.66,7.61,33.95,11.8l-1-3.92c-7.46,6.23-12.94,14.94-17.09,23.65h4.51c-4.63-10.47-5.28-22.76-4.9-34.08h-2.13l-0.28,9.3a1,1,0,0,0,2,0h0Z" transform="translate(-2841.81 -2689.92)"/><path class="a" d="M2959.56,2793.82c-4.06,0-7-1.46-10.66-3a1.13,1.13,0,0,0-1.09,1.88c3.13,2.62,7.78,3.42,11.75,3.34a1.13,1.13,0,0,0,0-2.25h0Z" transform="translate(-2841.81 -2689.92)"/><path class="a" d="M2970.77,2788.88c-4.44-2.13-9.07-3.13-13.65-4.79v4.19c5.06-1.41,9.89-3.17,15.17-3.61a1.31,1.31,0,0,0,0-2.62c-5.8-.62-11.56-0.37-16.85,2.26-2,1-1,4.09,1.1,4.05,4.36-.07,9,1.77,13,3.43,1.66,0.69,2.85-2.13,1.23-2.91h0Z" transform="translate(-2841.81 -2689.92)"/><path class="a" d="M2967,2780.09a179.72,179.72,0,0,1-22.1-6.37v5c3.35-.72,6.57-1.68,10-2.14,2.16-.29,1.43-3.45-0.49-3.59a30.93,30.93,0,0,0-10.87.72,2.62,2.62,0,0,0,0,5,159.46,159.46,0,0,0,23.13,4c1.52,0.16,1.85-2.35.36-2.67h0Z" transform="translate(-2841.81 -2689.92)"/><path class="a" d="M2953.51,2775.77a36.24,36.24,0,0,1-17.74,1.27l-0.74,5.48c6.91-.17,13.85-1.55,20.76-2,3-.21,3.11-4.74,0-4.78-7-.09-14.61-0.31-21.51,1.32-3.07.73-2.4,5.53,0.74,5.48a45.09,45.09,0,0,0,19.5-4.35c1.34-.65.4-2.84-1-2.4h0Z" transform="translate(-2841.81 -2689.92)"/><path class="a" d="M2959.75,2782.21c-6.28,1.21-12.56,2.54-18.87,3.61-3.44.59-3.34,6.18,0,6.85,6,1.2,12,1.66,17.93,3.21,2.93,0.76,5-3.65,2.13-5.05-5.76-2.8-12.61-5.28-19.11-5.12l1.79,6.61c5.66-2.68,11.43-5.15,17.14-7.7,1.44-.64.36-2.66-1-2.4h0Z" transform="translate(-2841.81 -2689.92)"/><path class="a" d="M2958.62,2799.11a20,20,0,0,0-6.06,1c-2.5.81-2.71,4.56,0,5.28s5.45,1.59,8.12,2.58l-0.67-5.15c-4.2,2.86-9.35,3.71-14.33,4-6.11.39-6.16,9.94,0,9.56,5.57-.34,11-0.78,16.55-1.59l-4.32-7.42a32.36,32.36,0,0,1-14,7.63c-5.39,1.37-3.9,9,1.26,9.3a84.31,84.31,0,0,0,13.19-.47l-3.43-8.27c-8,6.57-16.15,12.85-23.39,20.3-2.89,3-1.22,7.08,2.24,8.49q-1.85-4-2.26-1.84a15.18,15.18,0,0,1-.75,2.12c-0.49,1.36-1,2.71-1.52,4.06-1.06,2.85-2.48,5.77-3,8.78-0.88,5,1.65,10.48,7,11.25,3.41,0.49,7-1.37,6.95-5.29-0.13-8.17,3.13-15.61,6.16-23l9.65-23.62h-10.74c1.86,10-4.18,19.57-9.21,27.74l10.29,4.34,11.15-26.83-11.08-3.06c-2.47,6.39-4.89,12.8-7.49,19.14s7.32,9.87,10.81,4.56c4-6.1,6.71-12.82,9.85-19.37a110.27,110.27,0,0,1,11.13-18c3.06-4.12-2.86-9.56-6.93-6.93-13.07,8.47-16.76,25.58-24.27,38.37l10.81,4.56c2.28-6.45,4.75-12.83,7.17-19.23,2.64-7-8.35-9.78-11.08-3.06l-10.92,26.89c-2.46,6.06,7.1,9.62,10.29,4.34,6.79-11.22,12.77-22.93,10.23-36.39-1.14-6-8.92-4.51-10.74,0q-5.15,12.73-10.3,25.46c-3.15,7.83-5.9,15.61-5.74,24.17l6.95-5.29q1,1.36,1.06-.15,0.38-1.21.8-2.41c0.37-1.09.74-2.18,1.11-3.28,0.91-2.69,2.14-5.43,2.58-8.24,0.67-4.33-.94-8.13-5.24-9.52l2.24,8.49c6.4-7.6,13.47-14.81,22.08-19.87,4.14-2.43,2.37-9-2.45-9a92.46,92.46,0,0,0-14.45.86l3.65,8.66a113.64,113.64,0,0,1,15.71-9.31c4.12-2,1.92-8.25-2.24-8.27-5.16,0-10.22.33-15.37,0.74l2.41,8.91c5.16-2.3,9.72-5.6,14.76-8.06,2-1,1.67-3.82,0-4.87a17.59,17.59,0,0,0-9.57-2.81l1.94,4.68a10,10,0,0,1,3.82-2.47c1.56-.62,1.51-3.17-0.42-3.13h0Z" transform="translate(-2841.81 -2689.92)"/><path class="a" d="M2977,2804.1c-2.47,0-3.15,1.54-4.15,3.62-2.7,5.61-4.29,12.63-8.69,17.2-3.29,3.41,2.58,8.09,5.19,4,2.71-4.24,5-8.81,7.37-13.23l-9-2.44c-0.15,5.82-1.83,11.34-6.85,14.76l7,9.13c2.59-2.09,5.76-4.24,9-5l-4.57-.6,1.06,0.49-2.94-5.13q1.14-2.27-.35.37l-0.88,1.38c-1.06,1.63-2.19,3.21-3.41,4.73a65.48,65.48,0,0,1-7.36,7.68l8.83,8.83c5.26-6.16,10.43-12.46,15.2-19l-5.28,3c6.09-.56,11.72-2.32,16.42-6.4,3.84-3.33,6.83-9.29,1.59-13a6.75,6.75,0,0,0-2.89-1.15,8.56,8.56,0,0,0-2.62-.17l1.54,0.46a11.46,11.46,0,0,0-3-6.64,16.85,16.85,0,0,0-6.78-4,42.58,42.58,0,0,0-4.27-1.12c-2.08-.5-4.55-0.44-2.45-2.82a3.24,3.24,0,0,0-4.57-4.57c-2.43,2.09-4.82,5.11-4,8.56,0.92,3.74,4.94,4.91,8.16,5.84,2.21,0.64,5.58.94,7.06,2.93,1.3,1.76.4,4,.78,6,0.89,4.7,4.24,5.36,8.21,6.47l-3.32-2.56,0.54,0.71-0.57-4.33q1.45-1.54-.44.36l-1.17.9a13.75,13.75,0,0,1-4,1.89c-3.54,1.06-6.31.13-9.21,3-5.45,5.41-10.1,12.06-14.78,18.14-4.4,5.71,4.92,12.44,9.81,7.57a91,91,0,0,0,9.55-11.12c2.54-3.52,6.2-7.89,5.43-12.48-2.09-12.4-17.92-1.34-22.62,2.59-5.69,4.76,2.68,13.35,8.22,8.22,7-6.51,10.83-15.63,9.3-25.18-0.81-5.05-8-4.12-9.33,0-1.56,4.78-3.34,9.54-4.57,14.41l6.49,0.88c-0.19-2.43,2.84-22.13,6.95-21.31a0.93,0.93,0,1,0,.25-1.84h0Z" transform="translate(-2841.81 -2689.92)"/><path class="a" d="M2978.44,2789.94q-18.46-2.36-36.76-5.71c-3.09-.57-5.49,3.79-2.29,5.43,2.61,1.33,5.91,2,6.95,5.08a9.25,9.25,0,0,1-.4,5.91c-0.39,1.19-2.3,3.7-2.21,4.79q-1,1.11.94,0.5,2,0.55,1.17-1.52c0.45-1.2.18-2.94,0.47-4.24a20.52,20.52,0,0,1,4-7.93l-8.53-2.31c0,8.71,2.11,22-4.39,28.93l9.37,3.88c0.73-7.35,1-14.5,2.53-21.77h-11.39a55.43,55.43,0,0,1,.33,23.64l11.73,1.59a60.31,60.31,0,0,1,4.95-18.61,80.68,80.68,0,0,1,4.28-8.11q1.38-2.36.65-1-0.9,1.25,1.7.61a19.46,19.46,0,0,0,4.81.37c4.77-.3,8.73-4.5,6.49-9.3s-12-7.13-16.84-7.79l2.79,6.86,1.44-2.52c1.88-3.29-2.09-8-5.52-5.52l-2.31,1.65c-2.87,2-3.13,6.07,0,8.06a33.19,33.19,0,0,0,6,2.93c0.63,0.24,5.29,1.53,5.35,1.63l-0.53-4-0.28.73,2.41-3.14c1.24-.66.81,0-0.44-0.59a21.52,21.52,0,0,0-4.54-1,10.58,10.58,0,0,0-6.05.42c-4,1.73-6.67,6.86-8.55,10.56a75.43,75.43,0,0,0-7.78,27.79c-0.6,6.66,10.46,8.19,11.73,1.59a71.16,71.16,0,0,0-.46-30c-1.28-5.5-10.28-5.76-11.39,0-1.54,8-3,16.75-2.11,24.91,0.55,5.3,7.12,7.62,10.23,2.77,6.78-10.57,5.23-23.65,4.92-35.58-0.12-4.78-6-5.9-8.53-2.31-3.87,5.4-6.23,12.8-4.86,19.48,0.91,4.41,5.19,8.59,9.83,5.75s5.56-11.54,5.26-16.29c-0.43-6.83-4.55-9.39-10.24-12l-1.5,5.53q18.75,1.42,37.55,1.94c1.36,0,1.28-1.9,0-2.06h0Z" transform="translate(-2841.81 -2689.92)"/><path class="a" d="M2968.77,2777.09c-9.76-1.53-19.52-3.06-29.27-4.68l-0.84,6.24a45.31,45.31,0,0,1,13.81.3c1.86,0.32,3.47-2.47,1.41-3.34a41.51,41.51,0,0,0-15.21-3.32c-4.16-.14-4,5.95,0,6.36,9.83,1,19.65,2.12,29.46,3.23,2.7,0.3,3.36-4.36.65-4.79h0Z" transform="translate(-2841.81 -2689.92)"/><path class="a" d="M2961.24,2777.54c-7.83-1.36-15.46-3.49-23.42-4.5-8.37-1.06-16.75-2-25.16-2.67-4.83-.36-4.92,7.5,0,7.59,4.32,0.08,8.66.73,13,1.19,3.3,0.35,4-5.12.79-5.8-4.24-.89-8.59-1.59-12.74-2.84l-1,7.45c8.06,0.39,16.13.65,24.19,1.06s16.16-.1,24.13.36a0.94,0.94,0,0,0,.25-1.84h0Z" transform="translate(-2841.81 -2689.92)"/><path class="a" d="M2937.89,2775.15a285.55,285.55,0,0,0-36.73-.39v6.85c12.26-1.59,24.18-4.82,36.34-6.88,3.38-.57,2.64-6.36-0.82-6-9.79.92-19.55,1.82-29.37,2.38-4.87.28-4.77,8,0,7.53,4.51-.45,9-1.05,13.52-1.65l-0.93-6.87c-8.1,1.74-16.19,2.55-24.39,3.65-4.81.65-6,6.78-1.16,8.58a23.51,23.51,0,0,0,17.07-.14,4.52,4.52,0,0,0-2.4-8.7,267.31,267.31,0,0,0-37.09,8.83c-5.88,1.9-3.48,10.46,2.54,9.22A50.75,50.75,0,0,0,2893,2784c3.62-2.5,1.5-8.51-3.08-7.31-11.23,2.93-22.26,4.32-32.46,10.31-1.83,1.08-2.88,3.94-1.52,5.81a56,56,0,0,0,8,9l5.34-6.92a7.83,7.83,0,0,1-3.14-4.93l-5.6,5.6c5.72,1.77,9.21,7,12.38,11.76,2,3.06,7.84,3.16,8.62-1.13a22.73,22.73,0,0,1,24.16-18.3l-3-7.3c-6.72,5.67-16.3,7.85-24.9,6.51l2,7.4c10.12-12.87,32.43-14.34,47.32-12.06,3.78,0.58,8.41-3.36,5.61-7.3-3-4.2-9.32-4.82-12.28,0-3.29,5.38.27,14.66,1.3,20.31l9.33-2.57a19.45,19.45,0,0,1-1-3.47c-0.09-.81.53-4,0.56-2.46a24.32,24.32,0,0,1-1.9,9l7.38,1c-0.82-4.21,1.14-7.52,4.29-10.13l-7.76-2c2,11.11-1,21.75-7.74,30.67l8.31,1.09a61.39,61.39,0,0,1-1.93-19c0.33-5.44-7.75-5.22-8.34,0a56.35,56.35,0,0,0,1.5,21.43c1.11,4.06,6.11,4.13,8.31,1.09a51.14,51.14,0,0,0,8.84-37.73c-0.58-3.88-5.38-3.9-7.76-2-5.7,4.43-7.55,12.06-5.52,18.84a4.08,4.08,0,0,0,7.79,0c2.1-6.35,5.18-19.91-4.7-21.51a9.44,9.44,0,0,0-8.94,4.09c-2.94,4.12-2,9.29-.75,13.84,1.71,6.14,10.25,3.43,9.33-2.57l-1.06-6.91-0.53-3.46q0.4-3.75-2.86-.75l-3-2.29,0.49,0.67,5.61-7.3c-18.93-2.69-44.64-.48-56.92,16.29-2.23,3,.91,6.28,3.82,6.66,11.37,1.49,22.06-1.84,31.26-8.49,2.59-1.87,3-7.2-1-7.82-15.89-2.45-31.54,8.07-34.39,24.19l8.62-1.13c-4.66-6.89-9.76-13.46-18.11-15.78a4.59,4.59,0,0,0-5.6,5.6,17.31,17.31,0,0,0,7.47,10.12c4.12,2.74,9.2-3.68,5.34-6.92a46,46,0,0,1-6.94-7.07l-1.52,5.81c8.6-5.39,19.17-8.59,29.24-9.78l-2-7.46a44.9,44.9,0,0,1-15.79,5.07l1.27,9.39a367,367,0,0,1,36.95-9.35l-2.4-8.7a16,16,0,0,1-12.35.42v8.42c8.39-2,16.55-4.18,25.09-5.48,3.88-.59,3-7.16-0.93-6.87-4.51.32-9,.65-13.52,1.12l1,7.4c9.43-1.44,18.89-2.54,28.37-3.63l-0.82-6c-11.83,2.27-23.86,3.34-35.62,6.08-4.31,1-2.47,7.5,1.82,6.6a144.24,144.24,0,0,1,35.82-2.77c2.31,0.1,2.26-3.39,0-3.56h0Z" transform="translate(-2841.81 -2689.92)"/><path class="a" d="M2925.78,2789.86a108.38,108.38,0,0,1-1.49,19.82c-1.09,6-3,11.65-4.34,17.55h4.75a90.39,90.39,0,0,1-5.14-22.29c-0.29-2.38-3.94-2.53-3.84,0,0.32,8.18,2.07,15.73,4.23,23.6,0.61,2.23,4.27,2.46,4.75,0,2.42-12.34,1.95-26.14,1.92-38.68a0.42,0.42,0,0,0-.84,0h0Z" transform="translate(-2841.81 -2689.92)"/><path class="a" d="M2912.91,2776.82c4,1.3,2.63,11.9,2.39,15.14a50.29,50.29,0,0,1-3.61,16.24h3.4c-4.89-6.5-6.79-14-6.37-22l-4.55,1.23a23.9,23.9,0,0,1,2,9.91c0,0.49.11,5.42-.33,5.51s-1.28-2.28-1.38-2.5c-2.48-5.24-4.23-10.86-7.54-15.67a2,2,0,0,0-3.75,1c-0.44,6.53,4,14.51.42,20.4h3.33a151.09,151.09,0,0,0-12.62-15.22c-1.95-2-5.15.08-4.55,2.65,2,8.45,3.75,16.93,5.36,25.45l4.11-2.39c-4.19-4.27-6-9.21-8.26-14.62-1-2.37-5-2.4-4.88.66,0.31,7,4.54,13,9.66,17.43a2.48,2.48,0,0,0,4.11-2.39c-1.8-8.5-3.43-17-4.85-25.59l-4.55,2.65a146.44,146.44,0,0,0,13.43,13.71,2,2,0,0,0,3.23-.85c2.45-7.14-1.8-14.25,0-21.35h-3.88c1.2,5.53,3.85,10.88,6.15,16,1.3,2.89,3.08,6.53,6.9,6.11,8.35-.91,3.25-18.09,2.36-22.81-0.56-2.93-4.51-1.86-4.8.65-1,9.11,2.19,17.62,8.16,24.44a2,2,0,0,0,3.29-.87c1.21-7.46,2.25-14.79,1.59-22.37-0.27-3.16.06-9.92-3.9-10.8a0.14,0.14,0,0,0-.07.27h0Z" transform="translate(-2841.81 -2689.92)"/><path class="b" d="M2976.32,2909.34a273,273,0,0,1-22.28-19.62l-1.46,1.9c11.43,7.39,21.39,15.83,28.84,27.38l4.71-3.63c-4.59-5.33-10.82-9.71-16.17-14.28s-11.1-9.21-16.65-13.8l-3.65,6.27c21.07,8.6,32.29,31.87,55.34,37a4.12,4.12,0,0,0,3.16-7.5c-14.83-10.42-29.78-20.68-45-30.54-4.89-3.17-8.87,4.29-4.46,7.63,19.45,14.74,38.17,30.24,57,45.78l3.79-9.16a14.74,14.74,0,0,0-7.77,2.38c-1.85,1.23-3.44,3.89-2.52,6.2a22.22,22.22,0,0,0,6,8.92l5.38-9.23,0.83,1.15-2.55,6.26,6.32-4.32c3-2,3.75-6,1.13-8.76-16.56-17.24-37.94-28.29-59.14-38.72l-4.2,10c19.15,4.06,34.6,18.45,54.87,18.2,4,0,7.38-5.93,3.65-8.81A190.13,190.13,0,0,0,2955,2886.4c-6.87-1.87-9.51,8.27-2.91,10.56a228.68,228.68,0,0,0,55.41,11.55c6.13,0.53,6.65-8.43,1.38-10.23l-48.92-16.71c-5.58-1.91-9.55,7.16-4.07,9.64a118.88,118.88,0,0,0,55.08,10.57c6-.28,7.35-8.76,1.43-10.56q-13.12-4-26.24-8v10.85c13-2.43,25.94-4.94,38.94-7.29,5.22-.94,5-9.15,0-10.29a296.05,296.05,0,0,1-37.84-11.66l-1.38,10.18c12.52,0.27,25.14-.1,37.65.52,4.62,0.23,5.69-7.17,1.1-8.14a278.31,278.31,0,0,0-45.7-6v9.24a94.6,94.6,0,0,0,31.61-6.53c4.71-1.91,3.82-8-1.17-8.62-16.57-2.17-33.15-4.07-49.9-3.6-6,.17-5.94,9,0,9.26a65.45,65.45,0,0,1,26.7,7.14l-0.9-7a22,22,0,0,1-11.78,7.79c-4.19,1.13-4.68,8.16,0,9a206,206,0,0,1,33.83,8.48c6,2.13,8.59-7.42,2.62-9.49a157.16,157.16,0,0,0-35.21-8.13l1.24,9.14a35.19,35.19,0,0,0,15.61-10.46c1.75-2.08,1.83-5.57-.9-7a76.59,76.59,0,0,0-31.21-8.69v9.26c16.28-.28,32.67,0,48.73,3v-8.46a99.31,99.31,0,0,1-29.27,5.75c-6,.2-5.93,8.94,0,9.24a329,329,0,0,1,43.5,4.78l1.1-8.14c-12.54-.42-25.12-1.83-37.65-2.61-6.37-.39-6.29,8.11-1.38,10.18a231.6,231.6,0,0,0,37.76,11.95v-10.29c-13,2.32-26.06,4.49-39.09,6.73-5.7,1-5,9.43,0,10.85q13.19,3.73,26.38,7.5l1.43-10.56a104.71,104.71,0,0,1-49.75-8.93l-4.07,9.64,49,16.58,1.38-10.23a207.34,207.34,0,0,1-52.5-11.7L2952,2897a189.67,189.67,0,0,1,63.1,31.17l2.61-9.62c-18.77.38-34.12-14.41-52-18.39-5.75-1.28-10,7-4.2,10,20.27,10.24,40.87,20.57,56.75,37.2l1.13-8.76-6.29,4.38a5.74,5.74,0,0,0-2.55,6.26c0.93,3.39,3.33,6,6.92,6.55,4.84,0.68,10-5.15,5.38-9.23a10.68,10.68,0,0,1-3.18-4l-2.52,6.2a4.57,4.57,0,0,1,2.23-1.13c5.44-.59,7.11-6.74,2.71-10-19.6-14.51-39.14-29-58.12-44.3l-5.36,6.94c14.89,10.32,30,20.24,45.31,30l3.16-7.5c-11.47-2-20.2-9.83-28.62-17.35s-16.51-14.75-26.91-19c-3.44-1.4-6.45,4-3.65,6.27,5.81,4.8,11.57,9.68,17.48,14.36,5.51,4.37,10.93,9.63,17,13.13,2.88,1.65,6.21-2.36,3.63-4.71-10.14-9.22-20.69-18.51-32.32-25.83a1.21,1.21,0,0,0-1.46,1.9,275.84,275.84,0,0,0,22.74,19.53,1,1,0,0,0,1.25-1.62h0Z" transform="translate(-2841.81 -2689.92)"/><path class="b" d="M3019.33,2890.48c3.3,1.3,3.56,5.91,1.77,8.53-2,3-6.19,4-9.49,4.5-7.39,1.14-14.08.7-20.57,5.08-5.55,3.74-2.16,12.43,4.59,10.88a65.35,65.35,0,0,1,23.69-1.15l-1.5-11.47a50.6,50.6,0,0,1-14.46,7.67c-7.82,2.59-4.67,14.12,3.4,12.34a128.37,128.37,0,0,1,23.48-2.67L3025,2915c-2.83,4.74-7.07,7.44-12.38,8.76-6.68,1.67-5,11.53,1.59,11.74l14.52,0.47-4.31-10.4a27.44,27.44,0,0,1-15.13,6.3l3,11.14a37.87,37.87,0,0,1,13.37-4.25l-4.34-10.3a63.65,63.65,0,0,1-19.22,5.15l2.83,10.46a26.51,26.51,0,0,1,13.07-2.75l-2.76-10.2c-4.46,2-9,1.8-13.56.26l1.32,10.07a39,39,0,0,1,13.66-6.07c5.86-1.24,5-9.39,0-11.05-4.77-1.58-9.5-3.23-14.37-4.47-5.08-1.3-10.3,4.53-7.15,9.3a105.25,105.25,0,0,0,9.79,12.62l7.46-9.67a132.8,132.8,0,0,1-20.41-16.58l-9,9a42.79,42.79,0,0,1,11.73,15.59l5.79-7.6a8.33,8.33,0,0,1-4.68-2.31,6.78,6.78,0,0,1-1.62-2.18q-5.14,2-1.77,2.49c2.88,2.79,8.32,4.61,11.85,6.57,6.46,3.58,13.19-4.89,7.92-10.27-3.58-3.65-4.73-8.15-4.24-13.17l-9.82,5.63a20.21,20.21,0,0,1,9.5,9.36l11.19-6.54c-1.38-2-2.39-4.33-1.34-6.75l-10.51,1.35a47.8,47.8,0,0,1,11.13,14.81c2.95,6.07,13.07,3.16,12.72-3.45l-0.22-4.19-11.68,4.84a3,3,0,0,1,.89,2.85c-1.63,8.65,10.55,12.21,13.29,3.66l1.64-5.12-13.58-1.84a13,13,0,0,1-3.17,7.94l13,3.53a57.44,57.44,0,0,1,11.36-27.72l-11.34,1.46,0.75-5.47,10.68,4.34a7.3,7.3,0,0,1,1.79-8l-12.6-5.22a35.91,35.91,0,0,1-7.56,21.29l13.83,5.83a75.48,75.48,0,0,1,4.85-17.29l-14.07-1.84c0.91,3.11.33,5.06-1.51,7.66l14.23,6a91.83,91.83,0,0,0-.07-33.59c-1.42-7.68-13.46-7.3-15.15,0a63,63,0,0,1-9.33,21.39l14.47,1.89a57.6,57.6,0,0,1,.92-19.83h-15.37a11.92,11.92,0,0,1-.66,7.49l14.63,1.91a18.92,18.92,0,0,1,.87-12.67l-14.71-1.92c0.66,3.39-1.45,7.64-4.76,8.92l10.26,7.81a42,42,0,0,1,1-15.42l-16-2.17a23.66,23.66,0,0,0,2.51,11.79c2,4.47,9.74,5.54,12.82,1.65l12.68-16-9.95,1.28c3.25,2,4,4.94,3.62,8.56h16.51c0-.55-0.36-2.25.15-2.9l-13-1.67a14.52,14.52,0,0,1,2.51,8.4c0,10.86,15.65,10.48,16.61,0l1.08-11.72c0.21-2.26-.27-7.06,1-8.77l-3,3,1-.43-6.45.84,0.6,0.17-5-3.85,0.3,0.53-1.14-4.22,0.17-1,2.15-3.69-0.34.29,10.15-1.31-0.47-.23,3,3c-3.05-6.84-6.17-13.64-9.28-20.46-4.07-8.92-17.05-2.34-15.16,6.39l4.73,21.81,14.9-6.28-15-24.38c-4.55-7.42-17.69-2.68-14.58,6.15a63.55,63.55,0,0,1,3.72,18.17l9.95-7.58a30.36,30.36,0,0,1-17.09-14.66l-12.17,9.39a43.67,43.67,0,0,0,12.93,9.35c2.35,1.08,5.11,2.53,7.74,2.53,3.36,0,5.72-2.49,8.16-4.46,2-1.63,2.72-5.08,2-7.46a205.18,205.18,0,0,0-7.78-20.52l-8.57,11.14a73.36,73.36,0,0,1,14,6.3c6.42,3.72,14.24-3.79,10.29-10.29q-5.42-8.93-10.85-17.85l-11.68,9a36.55,36.55,0,0,1,8,9.18l11.57-8.92L3021,2816.66c-7-6.5-15.88,3.08-10.22,10.22a103,103,0,0,1,11.07,17.63l10.83-8.35c-5-4.88-9.78-10-14.65-15-4.53-4.68-14.23.11-11.58,6.74a126,126,0,0,1,7.1,24.95l10.36-8a87.31,87.31,0,0,1-16.67-16.52l-9.86,9.86a31,31,0,0,0,14.17,5c2.9,0.36,6.46-2.49,7-5.32,1.71-9.17-.66-18.07-7.42-24.65l-6.65,11.42,10.13,3.81c5.76,2.16,9.88-5,7.45-9.69a39.46,39.46,0,0,0-9.36-11.68l-7.76,10.05,10.22,7.4c6.1,4.42,13-5.11,7.89-10.22l-7.43-7.47-8,10.36c4.51,3,9,6,13.47,9,6.65,4.43,13.64-5.31,8.34-10.81a62.46,62.46,0,0,0-19-13.59c-8.37-3.84-15.76,8.06-7.36,12.59l9.74,5.26,7.57-12.95a316.66,316.66,0,0,0-47.39-19.07c-9.56-3-13.7,12.05-4.14,15a358.74,358.74,0,0,1,44,17c8.65,4,16.3-8.64,7.57-12.95l-9.94-4.9-5.62,13.32a48.08,48.08,0,0,1,14.91,10l8.34-10.81c-4.59-2.82-9.19-5.61-13.76-8.46-6.36-4-13.36,5.14-8,10.36l7.56,7.35,7.89-10.22-10.33-7.22c-5.9-4.12-13.35,5.39-7.76,10.05a25.6,25.6,0,0,1,7,9.29l9-9-10-4.23c-6.8-2.89-14,4.68-8.28,10.73a11.91,11.91,0,0,1,3.09,11.13l8.92-5.06a19.81,19.81,0,0,1-8.82-3.22c-3-2-7.22-.83-9.29,1.86-2.36,3.06-1.69,6.59.56,9.46a105.76,105.76,0,0,0,20.87,20c5.45,4,11.37-2.59,10.36-8a127.35,127.35,0,0,0-7.33-24.88l-11.58,6.74c4.91,5,9.94,9.87,14.7,15,5.71,6.15,13.81-1.66,10.83-8.35a100.57,100.57,0,0,0-12.76-20.89l-10.22,10.22,19.49,18.55c6,5.68,15.91-1.57,11.57-8.92a48.9,48.9,0,0,0-10.17-12.27c-6.15-5.29-16.22,1.39-11.68,9q5.34,9,10.71,17.94L3041,2840.9a92.78,92.78,0,0,0-17.53-7.95c-7-2.35-10.93,5.64-8.57,11.14A168.56,168.56,0,0,1,3021,2861l2-7.46-2.75,2.19,7.47-2a29.39,29.39,0,0,1-11.76-7.75c-6.22-6.5-16.26,1.77-12.17,9.39a46.54,46.54,0,0,0,26.28,22c4.73,1.63,10.15-2.69,9.95-7.58a80,80,0,0,0-4-22.41l-14.58,6.15,14.65,24.56c4.88,8.18,16.72,2.61,14.9-6.28l-4.46-21.89-15.16,6.39q2.84,6.43,5.68,12.86c1.66,3.75,3,9,6.93,10.92a8.79,8.79,0,0,0,10.15-1.31c8.92-7.64-2.95-21.68-12.39-14.31-4.29,3.35-4.4,8.72-4.84,13.7l-1.53,17.57h16.61a30.88,30.88,0,0,0-4.83-16.75c-3.64-5.7-10.51-4.9-14.29,0a18.27,18.27,0,0,0-3.66,12.93c1,10.66,15.35,10.56,16.51,0,1-9.27-4-18-11.84-22.74-2.81-1.68-7.76-1.51-9.95,1.28l-12.62,16.07,12.82,1.65a7.11,7.11,0,0,1-.32-3.55c0.55-9.21-13.77-11-16-2.17a54.62,54.62,0,0,0-1.46,19.75c0.54,4.65,4.83,9.94,10.26,7.81,11.93-4.67,18.51-16.16,16-28.83-1.3-6.46-11.89-8.19-14.71-1.92-3.66,8.14-4.67,16.34-2.4,25,1.61,6.18,11.73,8.38,14.63,1.91a30.3,30.3,0,0,0,2.21-19.81c-1.66-7.56-13.76-7.65-15.37,0a80,80,0,0,0-.81,28.27c1,7.32,11.12,6.91,14.47,1.89a75.58,75.58,0,0,0,10.81-25.2h-15.15a70.27,70.27,0,0,1,.2,25.28c-1.54,8.73,9,13.4,14.23,6a22.54,22.54,0,0,0,2.92-19.62c-2.41-7.81-12.06-6.75-14.85,0a83.05,83.05,0,0,0-5.36,19.2c-1.31,8.51,8.64,13,13.83,5.83a49.54,49.54,0,0,0,9.26-28.93c0-6.32-8.15-9.84-12.6-5.22a22,22,0,0,0-5.37,22.29,7.38,7.38,0,0,0,10.68,4.34c6.28-3.4,7.66-12.51,2.12-17.3-3.76-3.25-8.5-2.49-11.34,1.46a71.24,71.24,0,0,0-12.87,35c-0.77,7.7,9.4,8.38,13,3.53a25.62,25.62,0,0,0,4.93-15c0.21-8-11.31-9.16-13.58-1.84l-1.59,5.13,13.29,3.66c1.11-6.22-.22-11.48-4.5-16.19-3.88-4.27-12.05-1-11.68,4.84l0.26,4.19,12.72-3.45a55,55,0,0,0-13.45-17.39c-4.08-3.49-9.26-1.87-11.19,3a19.29,19.29,0,0,0,2.39,18.44c4.85,6.55,15.37.91,11.19-6.54a37.08,37.08,0,0,0-14.1-14.08c-3.29-1.87-8.93-.4-9.58,3.9-1.38,9.16,1.07,17.61,7.81,24.15l7.92-10.27c-7.33-3.83-22.7-14.73-28.46-2.85-5.42,11.18,8.78,20.69,18.09,21.58,3.82,0.37,6.91-4.14,5.79-7.6-2.76-8.52-7.26-15.79-14.26-21.44-6.27-5.06-15.25,3.41-9,9a217.87,217.87,0,0,0,23.24,18.17c6.08,4.17,11.78-4.67,7.46-9.67a83.66,83.66,0,0,1-7.57-10.3l-7.15,9.3c4.84,1.36,9.76,2.3,14.68,3.32v-11.05a64.42,64.42,0,0,0-16.18,7.61,5.59,5.59,0,0,0,1.32,10.07c7.52,2.46,14.83,1.68,22-1.43,5.36-2.31,2.14-10-2.76-10.2a38.36,38.36,0,0,0-18.74,4c-4.88,2.34-2.67,11,2.83,10.46a86.84,86.84,0,0,0,23.56-6.09c5.35-2.13,5.4-11.69-1.5-11.07a50,50,0,0,0-17.91,5c-5.33,2.61-2.76,11.41,3,11.14a37.54,37.54,0,0,0,23.75-9.64c4.12-3.6.69-10.32-4.31-10.4l-14.52-.24,1.59,11.74c8.27-2.21,14.75-7.3,19.76-14.12,3-4-1.13-8.93-5.28-9.2a91.6,91.6,0,0,0-26.89,2.55l3.4,12.34a61,61,0,0,0,17.39-9.18c5.11-3.91,3.23-10.9-3.17-11.7a75.62,75.62,0,0,0-28.53,2l4.59,10.88c8.8-6.29,22.58-4.94,29-14.9,3.83-6,2.25-15.93-5.56-17.56a2.11,2.11,0,0,0-1.12,4.07h0Z" transform="translate(-2841.81 -2689.92)"/><path class="b" d="M2998.49,2807c-6.93-8.51-15.16-14.43-23.48-21.36v4.59c0.84-.82,6.86,2.32,7.89,2.78a74.26,74.26,0,0,1,7.94,4.23,59.54,59.54,0,0,1,13.66,11.48l5.54-5.54a158.15,158.15,0,0,0-46.32-25.74c-5.1-1.83-7,5.29-3.39,8.05,16.53,12.54,37.36,20.69,50.56,37.26l3.12-7.53c-16.91-1.94-33.58-6.48-50.28-9.78-6-1.19-8.63,7.63-2.57,9.32a168.43,168.43,0,0,1,27.7,10.4,2.81,2.81,0,0,0,2.84-4.86,118.12,118.12,0,0,0-28-14.86l-2.57,9.32c9,1.88,17.94,3.62,26.91,5.38,8.29,1.63,17.44,4.58,25.94,3.89,3.63-.29,6-4.7,3.12-7.53-15.51-15-34.51-24.77-51.45-37.95l-4.29,7.36a177.07,177.07,0,0,1,43.92,23.4c3.6,2.59,8-3.2,4.74-6.15a95.47,95.47,0,0,0-21.49-15c-5.24-2.55-14.15-7.92-18.62-1.92-1.32,1.77.14,4.19,1.94,4.77,9.48,3.07,18.32,10.41,25.45,17.13a0.84,0.84,0,0,0,1.19-1.19h0Z" transform="translate(-2841.81 -2689.92)"/><path class="b" d="M2949.32,2866.32q14.79,13,30.59,24.84c4.14,3.1,10.51-2.06,8.81-6.78a12,12,0,0,0-5.39-6.84c-6.58-4.08-12.61,6.3-6.06,10.36l-0.12-.33,8.81-6.78q-14.55-10.9-28.17-23c-5.77-5.09-14.29,3.36-8.49,8.49h0Z" transform="translate(-2841.81 -2689.92)"/><path class="b" d="M2945,2839.55a22.65,22.65,0,0,0-11.15-.22,6.05,6.05,0,0,0-2.65,10q2.79,2.76,5.62,5.47c2.27,2.17,6.26,2.42,8.49,0a6.1,6.1,0,0,0,0-8.49q-2.83-2.71-5.62-5.47l-2.65,10c0.23-.06,1.8-0.21.67-0.18l1.72,0c1.26,0-.66-0.21.69,0.06,0.56,0.11,1.12.23,1.68,0.37,3,0.74,6.65-1,7.38-4.19s-0.93-6.58-4.19-7.38h0Z" transform="translate(-2841.81 -2689.92)"/><path class="b" d="M3007.81,2828.58a319.8,319.8,0,0,0-42.7-18.68c-5.43-1.92-10.59,6.35-5.84,10l43.61,33.74,4.24-10.24c-8.77-1.15-17.26-3.91-25.66-6.58-6.5-2.07-10.53,7.64-4.62,11a98.61,98.61,0,0,1,22.68,17.48l7.27-9.42a452.48,452.48,0,0,0-52.22-24.72c-5.91-2.36-9.6,6-5.84,10a155.9,155.9,0,0,0,40.09,30.67l6.06-10.36c-12.25-6-24.41-12.13-37-17.35-7.13-3-10.24,8.65-3.19,11.57,11.64,4.82,22.85,10.6,34.15,16.14,6.87,3.37,12.93-6.7,6.06-10.36a145.61,145.61,0,0,1-37.67-28.8l-5.84,10a428.32,428.32,0,0,1,49.36,23.51c5.95,3.3,12.06-4.47,7.27-9.42a110,110,0,0,0-25.11-19.36l-4.62,11c9.51,3,18.93,5.71,28.85,7,5,0.65,8.21-7.17,4.24-10.24l-43.61-33.74-5.84,10a298.07,298.07,0,0,1,39.83,17.47c6.82,3.6,12.9-6.75,6.06-10.36h0Z" transform="translate(-2841.81 -2689.92)"/><path class="b" d="M2953.78,2874.9l1.34,5.12c1.68,6.41,12.2,5.29,11.79-1.6a192.19,192.19,0,0,1,.21-26.2l-11.79,1.6c0.81,4.52,2.4,12.08-2.19,15.12l8.81,6.78a104.91,104.91,0,0,1,5.88-22.73c2.33-6.1-5.95-9.35-10-5.84-3.8,3.27-6.13,7.59-9.27,11.41-4.87,5.92,3.58,14.46,8.49,8.49,3.12-3.8,5.52-8.19,9.27-11.41l-10-5.84a104.91,104.91,0,0,0-5.88,22.73c-0.66,4.67,4,10,8.81,6.78,10-6.64,9.6-18.06,7.71-28.67-1.26-7-11.3-4.74-11.79,1.6a192.19,192.19,0,0,0-.21,26.2l11.79-1.6-1.34-5.12c-2-7.46-13.54-4.3-11.57,3.19h0Z" transform="translate(-2841.81 -2689.92)"/><path class="b" d="M2962.24,2885.61c4.8-1.25,9.66-1.79,14.53-2.66l-2.08-4.92a32.61,32.61,0,0,1-5.67,3.27c-2.68,1.21-.78,5.61,2,4.73a63.89,63.89,0,0,0,20.83-11.06c2.09-1.67,5.79-4,6-7,0.16-2.76-4-4.21-2.31-6.75s-2.11-5.39-4.2-3.24a7.14,7.14,0,0,0-2.26,5.92,6.49,6.49,0,0,0,1.07,2.85q0.45,0.59.93,1.15,1.68,1.23-.28.16c-5.77,5.75-13.58,10-21.11,13l2,4.73a42,42,0,0,0,5.78-3.09,2.72,2.72,0,0,0-1.36-5c-5.21-.21-10.37.91-15.38,2.26-3.67,1-2.12,6.66,1.57,5.7h0Z" transform="translate(-2841.81 -2689.92)"/><path class="b" d="M2964.83,2790.89l-6.2,6.92,2.44,1.42a31.07,31.07,0,0,0,2.21-12.54c0-1.77-3-2.35-3.24-.44l-1.38,9.91c-0.39,2.82-.29,7-2.7,8.93l4.46,1.85c-1-7.37,0-13.69,4.41-19.88,1.81-2.56-2.24-5.66-4.34-3.35-5.74,6.32-8.3,15.72-5.2,23.93,0.61,1.62,3,2.84,4.37,1.15,4.53-5.69,3.23-15.24,3.63-22.1H2960a31.61,31.61,0,0,1-1.73,11.76c-0.45,1.33,1.52,2.56,2.44,1.42l5.86-7.26c1-1.2-.66-2.91-1.72-1.72h0Z" transform="translate(-2841.81 -2689.92)"/><path class="b" d="M2966.71,2793.12c0.19-4.84,3.15-2.51,4.54.12a38.16,38.16,0,0,1,2.49,6.18c1.09,3.4,1.48,6.91,2.34,10.37,1.43,5.77,3.78,14.84,9.29,18.17,5.87,3.55,11.59-2,9.26-8.1-1.4-3.67-4.39-7-6.59-10.23q-4.43-6.46-8.93-12.87c-3-4.31-10.17-.21-7.12,4.16q4.2,6,8.34,12.08,1.93,2.83,3.85,5.67l2.19,3.25q4.83-.36,2-2.72c-2.83-6.63-5.59-13.24-8.14-20-1.86-5-4.49-13.3-10-15.3-6-2.19-8.31,4.61-8.12,9.23a2.3,2.3,0,0,0,4.59,0h0Z" transform="translate(-2841.81 -2689.92)"/><path class="c" d="M3016.74,2916.15c-4.76-2.29-9.59-5.16-14.82-6.15-1.59-.3-3.35,1.8-1.78,3.06,4.19,3.33,9.32,5.1,14.19,7.22,2.76,1.2,5.22-2.78,2.41-4.13h0Z" transform="translate(-2841.81 -2689.92)"/><path class="c" d="M3008.49,2934.66l1.36,4.65c0.45,1.53,1.53,2.5-.2,3.06-1,.32-6.9-4.4-8-5.13-5.33-3.4-10.77-6.94-16.58-9.43a1.31,1.31,0,0,0-1.32,2.27c5.51,4.26,11.87,7.5,18,10.8,2.89,1.56,7.4,5.56,10.83,3.66a1,1,0,0,0,.43-1.06c-1.13-3-2.09-6.12-3.09-9.19a0.7,0.7,0,0,0-1.36.37h0Z" transform="translate(-2841.81 -2689.92)"/><path class="c" d="M3001.12,2939.73c5.89,4.63,12,9.07,17.35,14.28a1.91,1.91,0,0,0,2.7-2.7c-6.84-6.92-14.56-13.14-22-19.41l-3.76,3.76c8.72,7.29,18,13.65,27.12,20.4,2.67,2,5.82-2.3,3.51-4.55a490.06,490.06,0,0,0-56.72-47.14c-3-2.11-5.74,2.75-2.84,4.86a227.41,227.41,0,0,1,27.1,23.56l3-3c-6.66-5.64-13.22-11.44-19.77-17.21-6.24-5.49-12.15-11.54-18.94-16.35l-1.84,4.37c6.88,2.55,12.36,8.72,17.54,13.73,4.69,4.54,9.6,8.72,15.65,11.32a2.51,2.51,0,0,0,2.54-4.34,17.87,17.87,0,0,1-5.94-7.08l-1.68,4.12c6.41-2.09,13.29,5.85,17.46,9.83a109.58,109.58,0,0,1,13.45,15.4l4.44-3.43a131.69,131.69,0,0,0-17.94-17c-3.47-2.78-8.43,1.87-5,5,6.91,6.32,14.38,11.83,21.73,17.61,2.85,2.24,7.43-.53,5.34-4.12a63.87,63.87,0,0,0-10.5-13.51l-4.07,7c6.52,1.81,13.32,3.87,18.63,8.25,4.15,3.42,10-2.1,6-6a92.48,92.48,0,0,1-12.24-14.63l-5.61,7.3c4.37,1,8.85,1.53,13.16,2.75,3.86,1.09,6.38-4.59,2.76-6.55-13.67-7.4-27.23-14.89-41.38-21.36-4.14-1.89-7.66,3.75-3.63,6.21,10.22,6.23,20.69,12.21,30.66,18.83l2-3.46c-11.08-6-21.76-12.74-32.45-19.43-3-1.85-6.66,2.7-3.81,4.93l2.23,1.74c3.15,2.46,7.62-2,4.44-4.44l-2.23-1.74-3.81,4.93a273.63,273.63,0,0,0,33.6,17.46,2,2,0,0,0,2-3.46c-9.91-6.84-19.41-14.37-29.06-21.58l-3.63,6.21c13.47,7.78,27.43,14.49,41.39,21.35l2.76-6.55c-3.84-1.37-7.48-3.32-11.23-4.91-4-1.69-10.09,2.24-6.8,6.8a74,74,0,0,0,14.8,15.63l5.15-6.68c-6.75-4.34-13.51-8.29-21.56-9.63-3.64-.61-7.64,4-4.07,7a62.74,62.74,0,0,1,10.54,11l4.65-4.65c-7.7-4.78-14.42-10.92-20.85-17.28l-5,5c6.37,5.27,12.57,10.74,18.94,16,2.26,1.87,6.51-.64,4.44-3.43a127.76,127.76,0,0,0-18.2-20.17c-5.17-4.54-11.74-10.47-19.1-7.61a2.85,2.85,0,0,0-1.68,4.12,23.21,23.21,0,0,0,8.25,8.59l1.94-4.59c-7-2.56-12.68-7.51-18.06-12.54a134.56,134.56,0,0,0-15.23-12.29c-2.37-1.65-4.54,1.81-2.9,3.76,5.61,6.64,12.77,12.1,19.41,17.66,6.4,5.36,13,10.4,19.64,15.45,1.93,1.46,4.23-1.67,2.55-3.31-8.7-8.52-17.78-16.72-26.67-25l-4,4c18.08,16.17,36.88,31.94,56,46.82l3.51-4.55c-9.32-5.43-18-12.32-26.28-19.16-2.62-2.16-6.4,1.57-3.76,3.76,7.64,6.36,15.26,13,23.45,18.65l1.93-3.29c-6.73-3.39-13-7.67-19.32-11.72-0.26-.17-0.59.24-0.34,0.44h0Z" transform="translate(-2841.81 -2689.92)"/><path class="c" d="M3017.25,2934.24a29.23,29.23,0,0,0,3.26,2.23c2.08,1.18,2.08,1.62,4.17,3.52a9.23,9.23,0,0,0,4.91,2.31,3.74,3.74,0,0,0,3.61-6.19c-1.59-1.89-5.21-5-5.76-7.47l-0.41,3.14,0.45-.92-2.39,1.83c3.17-.89,6.89-0.79,10.15-1.07,1.59-.14,3.32-1.66,2.63-3.45-1.61-4.19-4.38-6.28-8.21-8.44a133.58,133.58,0,0,1-15.79-10.77l-1.78,6.56a14.14,14.14,0,0,1,6.09.91c3.41,1.25,5.83-4.38,2.49-5.91a20.65,20.65,0,0,0-8.59-2c-2.83-.06-4.94,4.06-2.49,6a75.68,75.68,0,0,0,11.66,7.56c3,1.62,10.72,3.6,11.35,7.57l2.63-3.45c-4.24-.56-12.73-3.65-15.24,1.49s5,10.57,8,13.68l2.62-6.33a24.63,24.63,0,0,0-4.75.6,4.21,4.21,0,0,1-5.58-.25,23.26,23.26,0,0,1-2.71-1.61c-0.31-.2-0.56.27-0.28,0.49h0Z" transform="translate(-2841.81 -2689.92)"/><path class="c" d="M3030.34,2913.09a25,25,0,0,1-5.76-6.17l-0.52,2c3-1.92,5.93-3,9.51-2.15a1.17,1.17,0,0,0,.62-2.26c-4-1.38-8.78-.86-11.88,2.13a1.47,1.47,0,0,0,0,2,27.36,27.36,0,0,0,7.46,5.39,0.56,0.56,0,0,0,.57-1h0Z" transform="translate(-2841.81 -2689.92)"/><path class="c" d="M3038,2899.07a12.83,12.83,0,0,1-5.13-3.64l1,3.63a0.76,0.76,0,0,1,.35-0.55,1.45,1.45,0,0,1,.66-0.3c3.62-1.08,3-6.82-.91-6.72a7.78,7.78,0,0,0-7.29,5.58,3.71,3.71,0,0,0,1,3.63,20.24,20.24,0,0,0,8.66,4.69,3.28,3.28,0,0,0,1.74-6.33h0Z" transform="translate(-2841.81 -2689.92)"/><path class="c" d="M3036,2894.28c-0.68-.45-2-1.13-1.61-2s2-1.4,2.63-1.75a43.42,43.42,0,0,1,7.26-3c2.28-.74,1.33-4.32-1-3.62a68.33,68.33,0,0,0-6.76,2.48c-1.83.77-4,1.52-5.38,3.07-2.86,3.29.78,6.38,3.8,7.33,1.52,0.48,2.29-1.66,1-2.48h0Z" transform="translate(-2841.81 -2689.92)"/><path class="c" d="M3040.6,2881a2.39,2.39,0,0,1,.17.24,1.42,1.42,0,0,0-.11-0.62c0.06,0.36.12-.37,0-0.2s-0.1.12,0.14-.24c0.63-1,2-1.45,3.05-1.86a2.3,2.3,0,0,0-1.22-4.43c-2.82.56-5.93,1.56-7.35,4.3s-0.82,6.61,2.24,8a3.09,3.09,0,0,0,4.1-1.08,3,3,0,0,0-1.08-4.1h0Z" transform="translate(-2841.81 -2689.92)"/><path class="c" d="M3041.35,2866.26c-1.71.06-3.46,0.23-5.18,0.15l1.72,0.47-0.37-.2,1.59,2.07q-0.47,2,.3.68l0.78-1.06,1.55-2.11c1-1.41,2-2.82,2.93-4.33a1.56,1.56,0,0,0-2.12-2.12c-1.9,1.11-3.65,2.37-5.43,3.66s-3.77,2.27-4.63,4.17a3.94,3.94,0,0,0,2.77,5.48c2.11,0.48,4.81-.78,6.83-1.33,3-.82,2.48-5.64-0.75-5.52h0Z" transform="translate(-2841.81 -2689.92)"/><path class="c" d="M3035,2855.49a2,2,0,0,1-1-.17,0.44,0.44,0,0,0-.19-0.13,1.21,1.21,0,0,0-.25-0.38,1.88,1.88,0,1,0-3.13,1.82,6.77,6.77,0,0,0,4.56,1.86c1.93,0,1.93-3,0-3h0Z" transform="translate(-2841.81 -2689.92)"/><path class="c" d="M3031.25,2844a23.78,23.78,0,0,1-9.53.95l4.06,5.33a6.39,6.39,0,0,1,.83-3c1.37-1.73,1.68-4.08,0-5.77a4.12,4.12,0,0,0-5.77,0,11.47,11.47,0,0,0-3.33,7.67c0,2.07,2,4.49,4.21,4.21a31,31,0,0,0,11.88-3.8c3-1.69,1-6.61-2.35-5.57h0Z" transform="translate(-2841.81 -2689.92)"/><path class="c" d="M3023,2836c2.9,0,2.9-4.5,0-4.5s-2.9,4.5,0,4.5h0Z" transform="translate(-2841.81 -2689.92)"/><path class="c" d="M3014.83,2824.3a0.84,0.84,0,0,0,0-1.69,0.84,0.84,0,0,0,0,1.69h0Z" transform="translate(-2841.81 -2689.92)"/><path class="c" d="M3011.32,2813.57l-0.65-.76a2.52,2.52,0,0,0-2.77-.52,2.58,2.58,0,0,0-1.56,2.31l-0.07,1.06a3,3,0,0,0,4.09,2.7,2.9,2.9,0,0,0,1.71-1.91,3.05,3.05,0,0,0-.76-2.87h0Z" transform="translate(-2841.81 -2689.92)"/><path class="c" d="M3003.94,2806.86l-1.06-.35a2.93,2.93,0,0,0-3.58,2,3,3,0,0,0,2,3.58l1.06,0.35a2.93,2.93,0,0,0,3.58-2,3,3,0,0,0-2-3.58h0Z" transform="translate(-2841.81 -2689.92)"/><path class="c" d="M2994.33,2804c3.14,0,3.14-4.87,0-4.87s-3.14,4.88,0,4.88h0Z" transform="translate(-2841.81 -2689.92)"/><path class="c" d="M2964.28,2785.43a1.22,1.22,0,0,0,0-2.44,1.22,1.22,0,0,0,0,2.44h0Z" transform="translate(-2841.81 -2689.92)"/><path class="c" d="M2959.68,2782.21H2959a0.23,0.23,0,0,0,0,.47h0.71a0.23,0.23,0,0,0,0-.47h0Z" transform="translate(-2841.81 -2689.92)"/><path class="c" d="M2956.63,2782.11c-0.83-2.61-1.67-5.21-2.4-7.85a1.35,1.35,0,0,0-2.43-.32c-1.42,1.93-2.72,3.88-4,5.9l3.45-.9a16.31,16.31,0,0,1-3.75-4.45,1.59,1.59,0,0,0-2.93.79c0,2.58-.18,5.17-0.36,7.74-0.07,1.09-.1,2.23-0.25,3.32-0.25,1.88-.46.68-1.12-0.46s-3.18-.83-3,0.8c0.24,1.84.59,3.61,2.26,4.7a3.89,3.89,0,0,0,5-.33c1.46-1.54,1.14-3.9,1.08-5.82-0.1-3.32-.34-6.64-0.49-10l-3.09-.42a8.12,8.12,0,0,0,4.09,8.43,2.55,2.55,0,0,0,3.7-1.51c0.69-2.27,1.3-4.51,1.82-6.82h-2.57c0.62,2.67,1.19,5.35,1.8,8,0.48,2.06,3.81,1.15,3.16-.87h0Z" transform="translate(-2841.81 -2689.92)"/><path class="c" d="M2911.24,2781.9a0.52,0.52,0,0,0,0-1,0.52,0.52,0,0,0,0,1h0Z" transform="translate(-2841.81 -2689.92)"/><path class="c" d="M2902.93,2781.75a6.59,6.59,0,0,1-5.41-.36c-0.62-.29-1.43.53-0.8,1a6.91,6.91,0,0,0,6.63.87c1-.35.53-1.91-0.42-1.54h0Z" transform="translate(-2841.81 -2689.92)"/><path class="c" d="M2893.83,2784.48c-1,1-.76,2.12-1.26,3.33s-1.25.52-2.23,0.45a5,5,0,0,0-2.3.34,5.73,5.73,0,0,0-2.87,3.07c-0.55,1.11-.6,2.88-1.55,3.7a1,1,0,0,0,.46,1.72,4.22,4.22,0,0,0,3.75-1c1.12-1,1.6-2.62,2.73-3.51s2.71-.56,3.55-2.27-0.13-3.51.76-5a0.66,0.66,0,0,0-1-.8h0Z" transform="translate(-2841.81 -2689.92)"/><path class="c" d="M2876.41,2799.46l-1.81-2.45c-0.42-.57-1.39,0-1,0.57l1.73,2.5c0.45,0.65,1.51,0,1.05-.62h0Z" transform="translate(-2841.81 -2689.92)"/><path class="c" d="M2870.31,2794.9l-0.68,3.84,1.92-.78a13.77,13.77,0,0,1-3.69-2.88c-0.81-1-2.29.27-1.69,1.31a8.69,8.69,0,0,0,4.37,4,1.32,1.32,0,0,0,1.65-1.26l0.14-3.91a1,1,0,0,0-2-.27h0Z" transform="translate(-2841.81 -2689.92)"/><path class="c" d="M3016,2825.15c5.72,1.81,9.87,4.14,11,10.51,0.51,2.93.56,6.12,2.49,8.57,1.34,1.71,3.71,1.54,4.94,2.79,3.58,3.65-6.45,7.32-8.26,8.45-4.26,2.66-6.74,6.91-1.35,10.16,2.91,1.75,7.41.94,10,3,5.92,4.72-3.16,6.23-4.91,6.57-2.58.5-5.17,0.93-7.76,1.32-1.73.27-1.73,3.23,0,3.5l2.89,0.45a1.91,1.91,0,1,0,.51-3.78l-2.92-.24L3023,2880c5.05-1.13,16.83-1.85,17.28-9.09,0.18-2.81-1.52-5.28-3.68-6.93-2.39-1.83-9.26-2.22-10.36-4.69v2.61c1.91-4.4,18.78-11.7,9.21-16.54-1.8-.91-3.81-1.4-5.16-3.18-1.18-1.56-1.27-4.92-1.54-6.65a15,15,0,0,0-1.72-5.69c-2.28-3.72-6.59-5.31-10.54-6.6a1,1,0,0,0-.52,1.9h0Z" transform="translate(-2841.81 -2689.92)"/><path class="c" d="M3022.29,2883.3a12.83,12.83,0,0,0,8,8.84c2.42,1,4.05-3,1.78-4.22-7.58-4.07-14.56-9.38-21.81-14-6.52-4.17-15.33-8.13-20.14-14.36l-4.14,5.38c11.06,4.45,19.91,13.15,28.7,21,8,7.19,17.76,15.59,22.09,25.66l3.51-6.11c-3.45-.22-7.47-4.23-10.18-6.1-3.55-2.46-7.08-4.95-10.66-7.36q-10.3-6.94-20.82-13.6c-4.2-2.67-9.39,3.75-5.42,7,13.4,11,26.9,21.95,40,33.39v-5.31q2.48-.44.4-1.13-1.56-1.14-3.14-2.24c-1.59-1.08-3.24-2.08-4.85-3.13q-6-3.93-12-8c-7.7-5.17-15.25-10.65-23.1-15.58l-4.72,8.08c15.83,7.52,26.16,23.44,39.6,34.22l5.5-5.5q-5.14-4.22-10.26-8.46l-5.06,6.56c4.16,2.46,9.75,5.42,10.63,10.62l8-3.37c-7.57-10.64-19.06-20.13-31.4-24.69-3.7-1.37-7,4.24-3.94,6.77a48.9,48.9,0,0,1,5.59,5.39c2.08,2.32,5.83-.66,4.27-3.29a41.54,41.54,0,0,1-3.1-6l-5.95,4.57c5.05,3.43,10.26,6.35,14.92,10.36,4.47,3.83,8.62,8,12.72,12.24,3,3,8.71-.05,7.31-4.26-2.53-7.61-8-11.85-14.85-15.51-4.87-2.6-8.42,4-4.22,7.21q5.31,4,10.61,8c3.49,2.65,8.08-3.26,4.71-6.11-14-11.91-24.76-26.67-40.38-36.8-4.38-2.84-9.89,4-5.67,7.35,9.62,7.56,20,14.2,30.34,20.77,5.06,3.23,18.9,15.39,24,6.47a3.81,3.81,0,0,0-.59-4.55c-13.25-11.16-26-22.84-38.94-34.4l-5.42,7c8.16,5.69,16.41,11.29,24.79,16.64,6.44,4.11,14.41,11.83,22.45,10.67,2.52-.36,3.79-4,2.43-6-7.29-10.59-16.65-18.57-26.05-27.23-8.73-8-18.35-18.41-29.8-22.43-3.74-1.31-5.73,3.58-3.56,6.12,5.27,6.18,13.35,9.67,20.27,13.62,8.3,4.75,17.19,8.93,25.11,14.29l2.33-4a7.87,7.87,0,0,1-4.31-6.12c-0.61-3.51-6.42-2.05-5.42,1.5h0Z" transform="translate(-2841.81 -2689.92)"/><path class="c" d="M3000.53,2907c-5.16-4.55-10.61-8.93-15.38-13.89-2.3-2.39-6.65.77-4.69,3.62,5.34,7.78,12.39,13.93,19.43,20.1a3.26,3.26,0,0,0,4.6-4.6c-10.26-11.42-24-21.21-39-25.26-4.44-1.2-7.36,4.26-4.37,7.51,8,8.73,16.89,15.78,26.6,22.55l3.29-5.63c-14-10.42-27.48-22.07-42.16-31.57-2.95-1.91-6.85,1.92-4.88,4.88,8.76,13.16,20,23.54,31.4,34.39l4.65-4.65c-4.56-3.73-9.11-7.46-13.76-11.08l-4.39,5.7c7.82,4.29,15.6,8.5,23.81,12,4.79,2,10.79,5.29,15.23.85,10-10-7-24.29-11.49-32.13l-2.23,3.88c4-.52,12.9.22,13.54-5.44,0.29-2.53-1.27-4.31-3.1-5.82-3.15-2.61-6.22-4.54-7.75-8.57-0.7-1.85-3.07-3.45-5-2l-1.23.9c-1.36,1-2.43,3.09-1.23,4.69a85.21,85.21,0,0,0,7.12,8.7c2.45,2.51,6.67-.72,4.86-3.75a85.22,85.22,0,0,0-6.59-9.1l-0.69,5.38,1.21-.93-5-2c1.53,3.74,3.52,7.43,6.79,9.94a17,17,0,0,0,2.19,1.36q1,0.56,2.07,1l0.42-.91c-2.58.86-5.6,1-8.28,1.52a2.6,2.6,0,0,0-1.54,3.79c2.56,3.94,6.17,6.71,9.44,10a21.62,21.62,0,0,1,5,7.15c1.24,3.08,2.64,11.67-4,10.92-2.24-.25-5.11-3-6.94-4.23-2.36-1.6-4.71-3.22-7.17-4.68-5.19-3.06-10.49-5.91-15.78-8.77-4.23-2.29-7.26,3.49-3.66,6.26,4.67,3.59,9.42,7.06,14.17,10.55,3,2.2,6.81-2.74,4-5.16-11.25-9.67-22.61-20.24-29.89-33.34l-5.6,4.32c12.88,12.15,28.42,22,43.19,31.59,3.56,2.32,6.65-3.22,3.29-5.63-8.87-6.36-16.81-14.72-23.54-23.27l-4.37,7.51c13.58,5.24,25.81,11.42,36.78,21.2l3.94-5.11c-7.09-5.3-12.73-12.15-18.68-18.61l-3.62,4.69c5.88,3.55,11.33,7.9,16.9,11.92,1.59,1.15,3.57-1.43,2.1-2.72h0Z" transform="translate(-2841.81 -2689.92)"/><path class="d" d="M3014.66,2942c-6.39-4.73-12.66-9.67-19.28-14.07-1.59-1.06-2.92,1.41-1.47,2.51,6.32,4.78,13.05,9.05,19.61,13.51,1.22,0.83,2.28-1.1,1.14-1.94h0Z" transform="translate(-2841.81 -2689.92)"/><path class="d" d="M3018.79,2944c-8.46-6.06-16.74-12.36-25-18.67s-16-13.22-24.66-18.91l-1.75,4.16c6.62,1.07,11.07,5.52,16,9.78,5.12,4.43,10,9.1,15,13.67,4.76,4.35,9.61,8.62,14.27,13.07,3.31,3.16,6.48,6.86,11.46,6.27a2.62,2.62,0,0,0,1.83-4.41c-5.6-6.46-11.25-12.85-16.63-19.5l-1.18,4.47c4-1,7.85,1.67,10.32,4.54l2.7-3.51a26.51,26.51,0,0,1-8.65-8.55l-3.32,4.32c6,1.22,11.76,1.55,16.94,5.22,1.41,1,3.09-.92,2.29-2.29a22.06,22.06,0,0,0-5.23-6.1l-1.58,3.82c2.26,0.21,4.52.31,6.79,0.35a2.11,2.11,0,0,0,1.48-3.57,38.8,38.8,0,0,1-2.94-4,4.43,4.43,0,0,0,3.25,2.44c2.08,1.27,4-1.54,2.51-3.25-1.87-2.12-3.74-4.24-5.62-6.35l-1.12,4.23a4.63,4.63,0,0,1,5.13.82c2.57,1.69,5.62-2.21,3.31-4.28a10.38,10.38,0,0,1-3.62-6.44L3028,2915c3.11,0,5.77.74,7.24,3.58l4.28-2.5a14.54,14.54,0,0,0-2-2.5l-1.2,4.53a16.34,16.34,0,0,1,5.68-.89,2.71,2.71,0,0,0,1.89-4.57,30.37,30.37,0,0,0-6.82-5.59c-2.49-1.49-5.8,1.56-4.11,4.11a29.94,29.94,0,0,1,3.93,7.63,31,31,0,0,1,.9,4.21,9.85,9.85,0,0,0,.34,2q0.69,1.57-.68.36c-1.35-.23-2.65-1.5-4.12-1.77a7.45,7.45,0,0,0-5.3.89,4.47,4.47,0,0,0-2,4.92,11.39,11.39,0,0,0,3.61,6.41l2-7.48a11.38,11.38,0,0,1-5.15-.35c-5.2-1.39-7.93,5.63-3.58,8.49a14.17,14.17,0,0,1,3.69,3.33l4.09-7.13a15.32,15.32,0,0,1-5.16-.59,4.86,4.86,0,0,0-5.93,5.93,3.21,3.21,0,0,1-.67,3.61c-2.33,2.56-1.6,5.81,1,7.76,5.48,4.1,9.46-3,11.56-6.9q2.52-4.74,5-9.5c1.85-3.5,3-7.26,4.85-10.73,2.35-4.36-3.09-8.43-6.74-5.2-2.92,2.59-13.22,19.29-17.66,12.37l-2.39,5.88,2.46-.33c4.35-.58,3.3-7.84-1-7.64l-2.49.11a4.05,4.05,0,0,0-3.46,6c2.89,5.53,9.58,7.12,15.16,5,7.21-2.75,10.09-10.42,15.47-15.33l-6.74-5.2c-2.11,4.06-4.87,7.66-7,11.72l-2.74,5.18c-0.72,1.36-2.18,5.86-3.61,6.5h5l-0.66-.47,1,7.76c3.28-3.79,4.54-8.29,3-13.16l-5.93,5.93a24,24,0,0,0,7.73.76c4.34-.29,5.93-4.86,3.35-8.09a24.67,24.67,0,0,0-6.45-5.61l-3.58,8.49a22.2,22.2,0,0,0,10,0c3.15-.68,4.5-5.33,2-7.48a2.75,2.75,0,0,1-1.53-2.4l-1.12,4.24c-1.33,1.08,1.14.79,2.28,0.9a10,10,0,0,0,3.64-.07,5.59,5.59,0,0,0,4-4.24c1.53-6.46-1.36-14.69-5.12-19.82l-4.11,4.11a21.8,21.8,0,0,1,6.07,4.18l1.89-4.57a20.55,20.55,0,0,0-7.13,1,2.74,2.74,0,0,0-1.2,4.53,14.53,14.53,0,0,0,2.49,2.05c2.33,1.59,5-2,3-3.89-3.11-2.93-6.08-5.42-10.35-6.29a3,3,0,0,0-3.57,3.57,14.41,14.41,0,0,0,5.37,8.76l3.31-4.28a12,12,0,0,0-9.23-1,2.55,2.55,0,0,0-1.12,4.23c2.08,1.91,4.18,3.8,6.28,5.69l2.51-3.25c-2.27-1.46-7-4.11-9.31-1.11s2.2,6.61,3.63,8.8l1.8-3.14c-2.26-.29-4.52-0.52-6.79-0.65a2.26,2.26,0,0,0-1.13,4.17,13.64,13.64,0,0,1,5.06,4.27l2.29-2.29c-5.45-3.09-10.73-7-17.07-8-2.2-.34-5,2-3.32,4.32a27,27,0,0,0,12,9.66c2,0.8,3.9-2.38,2.17-3.73-4.8-3.74-8.34-7.67-14.89-6.54-2.18.38-2.31,3.08-1.18,4.47,5.39,6.61,10.87,13.2,16.75,19.38l1.14-4.32c-3.44.86-7.32-3.13-9.66-5s-4.46-3.74-6.69-5.61L2993,2925.8c-7.73-6.49-15.09-14.24-23.85-19.36a2.29,2.29,0,0,0-2.76,3.58c7.1,7.4,15.64,13.48,23.84,19.6,8.56,6.39,17.44,12.33,26.42,18.12,2.37,1.53,4.4-2.14,2.18-3.72h0Z" transform="translate(-2841.81 -2689.92)"/><path class="d" d="M3014.35,2924.16c-5.38-2.32-9.83-5.6-14.74-8.71a1,1,0,0,0-1.19,1.55c4.4,3.71,10.22,6.05,15.64,7.85,0.4,0.13.68-.52,0.29-0.69h0Z" transform="translate(-2841.81 -2689.92)"/><path class="d" d="M3021,2920.81l-21-12.94a1,1,0,0,0-1,1.78l21.09,12.69a0.89,0.89,0,0,0,.9-1.54h0Z" transform="translate(-2841.81 -2689.92)"/><path class="d" d="M3025.92,2920.54l-6.59-5.38a44,44,0,0,0-6.1-4.74,0.75,0.75,0,0,0-.91,1.18,44,44,0,0,0,6.33,4.44l7.1,4.73a0.14,0.14,0,0,0,.17-0.22h0Z" transform="translate(-2841.81 -2689.92)"/><path class="d" d="M3023.84,2912.4a1.3,1.3,0,0,1,.42-1.56,0.47,0.47,0,0,0-.47-0.81,2.11,2.11,0,0,0-.94,2.65c0.25,0.61,1.25.34,1-.27h0Z" transform="translate(-2841.81 -2689.92)"/><path class="d" d="M3025.09,2905.83a0.7,0.7,0,0,0,0-1.41,0.7,0.7,0,0,0,0,1.41h0Z" transform="translate(-2841.81 -2689.92)"/><path class="d" d="M3030.39,2904.51l-5.17-4-0.2,1.55c4.93-.8,10.93-1.06,15.61,1a1.34,1.34,0,0,0,1.94-1.49c-0.47-1.94-1.79-2.84-3.66-3.37l-0.48,3.57a18.49,18.49,0,0,0,4.83-.87,2,2,0,0,0,.47-3.59l-4.82-3.35-0.51,3.93a19.11,19.11,0,0,1,4.65-.89l-0.35-2.56-2.45-.19,0.31,2.4,1.15-.54c1.63-.76.11-3.45-1.42-2.43l-1.06.71a1.33,1.33,0,0,0,.31,2.4,8.24,8.24,0,0,0,3.84.17,1.31,1.31,0,0,0,.31-2.38,10,10,0,0,0-6.45-.84c-1.9.34-2,3-.51,3.93l5,3,0.47-3.59a14.28,14.28,0,0,1-3.79,1c-1.86.22-2.67,3.1-.48,3.57a4.29,4.29,0,0,1,2.22.88l1.14-2c-5.79-.57-10.92-1.26-16.73-0.14a0.86,0.86,0,0,0-.2,1.55l5.27,3.82c0.79,0.57,1.5-.72.76-1.3h0Z" transform="translate(-2841.81 -2689.92)"/><path class="d" d="M3028.27,2888.26a1.17,1.17,0,0,0,0-2.34,1.17,1.17,0,0,0,0,2.34h0Z" transform="translate(-2841.81 -2689.92)"/><path class="d" d="M3046.35,2874.72v0.71a1.36,1.36,0,0,0,2.72,0v-0.71a1.36,1.36,0,0,0-2.72,0h0Z" transform="translate(-2841.81 -2689.92)"/><path class="d" d="M3049.26,2876.65l-0.71,1.41a1.1,1.1,0,0,0,.39,1.48,1.09,1.09,0,0,0,1.48-.39l0.71-1.41a1.1,1.1,0,0,0-.39-1.48,1.09,1.09,0,0,0-1.48.39h0Z" transform="translate(-2841.81 -2689.92)"/><path class="d" d="M3046.93,2881a0.78,0.78,0,1,0-.12.09l-0.44.26c-0.2.11-.3,0.13,0,0-0.2.07-.4,0.13-0.6,0.19l-0.5.14c-0.09,0-.65.11-0.21,0.06s-0.13,0-.21,0-0.43,0-.65,0c-2.1-.18-3.66,2-3.41,3.93a3.47,3.47,0,0,0,4.33,2.88,8,8,0,0,0,5.68-5.31,2.32,2.32,0,0,0-1.06-2.59,2.38,2.38,0,0,0-2.78.36h0Z" transform="translate(-2841.81 -2689.92)"/><path class="e" d="M2940.06,2854.31c3.84-8.19,8.3-18.52,14.81-25l-0.86-.67c-1.84,3.37-2.51,7.39-3.75,11-1.41,4.11-3.28,8-5,12-3,7-7.64,15-8,22.66a0.94,0.94,0,0,0,1.73.47,119,119,0,0,0,4.94-14.72,64.51,64.51,0,0,1,7.92-16.83c2.9-4.64,6-9.15,8.67-13.95,1.39-2.51,4.93-7.79,3.05-10.56a1.35,1.35,0,0,0-2.09-.27l-0.18.22a1.21,1.21,0,0,0,0,1.68l0.15,0.14a1.09,1.09,0,0,0,1.8-.48l-0.83.71-1.28-1.69c-3.76,9.24-9,17.59-13.51,26.47a69.12,69.12,0,0,0-4.67,11.62c-1.63,5.54-2.22,11.89-5.57,16.71l1.7,0.72c1.21-8.52,7.61-16.68,11.06-24.47,2.7-6.09,6.64-14.58,4.84-21.37a0.56,0.56,0,0,0-1-.13c-2.08,4.33-5.33,8.19-7.81,12.32s-4.8,8.46-6.94,12.83c-0.27.54,0.55,1,.81,0.47h0Z" transform="translate(-2841.81 -2689.92)"/><path class="e" d="M2960.42,2822.48c-2.52,6.31-5.77,12.41-8.48,18.65-2.5,5.75-4.89,11.56-7.46,17.28-0.61,1.35,1.34,2.55,2,1.18,2.84-5.71,5.62-11.46,7.95-17.4,2.54-6.48,4.07-13.05,6.06-19.68,0-.06-0.07-0.08-0.09,0h0Z" transform="translate(-2841.81 -2689.92)"/><path class="e" d="M2943.19,2861.55c3.59-12.13,9-23.08,15.06-34.12a0.84,0.84,0,0,0-1.46-.85c-6.56,10.61-10.92,22.83-14,34.87a0.19,0.19,0,0,0,.36.1h0Z" transform="translate(-2841.81 -2689.92)"/><path class="e" d="M2936.77,2842.5l-0.55,7c0,0.36.54,0.36,0.56,0l0.45-7c0-.3-0.45-0.3-0.47,0h0Z" transform="translate(-2841.81 -2689.92)"/><path class="e" d="M2930,2843.36l-2.18,12.45c-0.16.89,1.23,1.26,1.36,0.37l1.82-12.55c0.09-.64-0.88-0.93-1-0.27h0Z" transform="translate(-2841.81 -2689.92)"/><path class="e" d="M2930,2839.5c0.61-13.69,1.46-27.31,2.9-40.94h-3.64c0.35,20.27-3.21,40.22-3.28,60.43a0.94,0.94,0,0,0,1.84.25c5.33-19.46,4.65-40.66,5.08-60.68,0.05-2.36-3.5-2.32-3.64,0a336.69,336.69,0,0,0-.19,40.94,0.47,0.47,0,0,0,.94,0h0Z" transform="translate(-2841.81 -2689.92)"/><path class="e" d="M2926.69,2854.5q1-16.46,2.94-32.86c1.3-10.87,3.91-21.7,4.86-32.58,0.12-1.4-2-1.61-2.39-.32-2.93,10.17-3.67,21.44-4.67,31.94-1.07,11.26-1.5,22.52-1.48,33.83a0.38,0.38,0,0,0,.75,0h0Z" transform="translate(-2841.81 -2689.92)"/><path class="e" d="M2953.5,2844.55a0,0,0,0,0,0-.09,0,0,0,0,0,0,.09h0Z" transform="translate(-2841.81 -2689.92)"/><path class="e" d="M2968.6,2818.31c-5.21,3.67-7,11.53-9.42,17.12-3.29,7.74-6.38,15.55-9.52,23.35a1,1,0,0,0,1.8.76c2.82-6.55,5.73-13.06,8.42-19.66,2.78-6.83,4.92-14.58,9.68-20.32,0.53-.64-0.17-1.81-1-1.25h0Z" transform="translate(-2841.81 -2689.92)"/><path class="e" d="M2952.26,2843.57c5.1-15.8,11.86-30.7,18.35-45.94l-1.76-.74c-2.12,10.16-5.93,20.11-9.31,29.91s-7.21,19.56-10.68,29.39a1.22,1.22,0,0,0,2.23.94,202.69,202.69,0,0,0,11.39-28.54c3.32-10.28,5.32-20.81,8.23-31.19a1,1,0,0,0-1.76-.74c-7.53,14.69-12.72,30.93-17.23,46.76a0.28,0.28,0,0,0,.54.15h0Z" transform="translate(-2841.81 -2689.92)"/><path class="e" d="M2946.17,2872.33c7-5.28,14.27-10.07,21.66-14.77a0.56,0.56,0,0,0-.57-1,199.09,199.09,0,0,0-21.71,14.93,0.52,0.52,0,0,0,.62.81h0Z" transform="translate(-2841.81 -2689.92)"/><path class="e" d="M2948.93,2871.21c12.09-7.52,24.2-15,36.16-22.71,1.21-.78.09-2.73-1.14-1.94-12,7.72-23.79,15.68-35.64,23.6a0.61,0.61,0,0,0,.62,1.05h0Z" transform="translate(-2841.81 -2689.92)"/><path class="e" d="M2951.38,2865.15l13-8.46c0.86-.56.05-1.94-0.8-1.38l-13,8.54a0.75,0.75,0,0,0,.76,1.3h0Z" transform="translate(-2841.81 -2689.92)"/><path class="e" d="M2942.25,2876.94c5.86-2.65,13.79-1.93,20.11-1.86,6.05,0.07,12.1.84,18.14,0.84a0.47,0.47,0,0,0,.12-0.92c-6.85-1.37-14.17-1.3-21.13-1.29-5.91,0-12.45-.46-18,2-0.82.37-.11,1.59,0.71,1.21h0Z" transform="translate(-2841.81 -2689.92)"/><path class="e" d="M2944.3,2872.71c16.68,5,33.86,10.14,51.19,12.2,1.58,0.19,1.89-2.39.37-2.76-16.93-4.1-34.27-6.59-51.24-10.62a0.61,0.61,0,0,0-.32,1.18h0Z" transform="translate(-2841.81 -2689.92)"/><path class="e" d="M2949.15,2877.14c10.3,6.9,21.61,12.35,33,17.29a2,2,0,1,0,1.52-3.6c-11.5-4.56-22.77-9.66-34.3-14.12-0.26-.1-0.39.29-0.18,0.43h0Z" transform="translate(-2841.81 -2689.92)"/><path class="e" d="M2990.2,2841.2a4.66,4.66,0,0,0-1.75,2.53,0.37,0.37,0,0,0,.61.36,109.79,109.79,0,0,0,13.67-13.36c0.28-.32-0.2-0.79-0.46-0.46a78.23,78.23,0,0,1-13.65,13.25l0.54,0.41,1.55-2.06a0.42,0.42,0,1,0-.51-0.66h0Z" transform="translate(-2841.81 -2689.92)"/><path class="e" d="M2997,2803a0,0,0,0,0,0-.09,0,0,0,0,0,0,.09h0Z" transform="translate(-2841.81 -2689.92)"/><path class="e" d="M2991.64,2797l-4-1.5c-0.62-.23-0.89.76-0.27,1l4,1.5c0.62,0.23.89-.76,0.27-1h0Z" transform="translate(-2841.81 -2689.92)"/><path class="e" d="M3007,2810.55a0,0,0,0,0,0-.09,0,0,0,0,0,0,.09h0Z" transform="translate(-2841.81 -2689.92)"/><path class="e" d="M3023.35,2906.5a16.47,16.47,0,0,1,1.41-4.84c0.2-.44-0.45-0.82-0.65-0.38a17.6,17.6,0,0,0-1.42,5.22c0,0.42.6,0.41,0.66,0h0Z" transform="translate(-2841.81 -2689.92)"/><path class="e" d="M3023.59,2914.16a40.55,40.55,0,0,1,4-8.33,0.66,0.66,0,0,0-1.13-.66,42.05,42.05,0,0,0-4,8.67c-0.25.75,0.92,1.06,1.18,0.32h0Z" transform="translate(-2841.81 -2689.92)"/><path class="e" d="M3017.11,2932.63c7.71-6.54,14.2-18,15.14-28.22,0.13-1.4-2-1.89-2.62-.71-2.17,4.07-2.86,8.88-4.5,13.19a51.43,51.43,0,0,1-8.49,15.28,0.33,0.33,0,0,0,.46.46h0Z" transform="translate(-2841.81 -2689.92)"/><path class="e" d="M3021.61,2926c5.07-12.55,10-25.51,12.47-38.87a0.75,0.75,0,0,0-1.45-.4c-3.83,13.07-6.84,26.3-11.21,39.21,0,0.12.14,0.16,0.18,0h0Z" transform="translate(-2841.81 -2689.92)"/><path class="e" d="M3035.72,2879.3a23.06,23.06,0,0,0-4.14,12.7,0,0,0,0,0,.09,0,22.94,22.94,0,0,1,4.12-12.65s0-.1-0.08,0h0Z" transform="translate(-2841.81 -2689.92)"/><path class="f" d="M3008.59,2952.84L2993.26,2932c-4.67-6.34-9.1-13.62-14.78-19.11a0.8,0.8,0,0,0-1.25,1c3.78,7,9.6,13.14,14.48,19.34l16,20.33a0.56,0.56,0,0,0,.88-0.68h0Z" transform="translate(-2841.81 -2689.92)"/><path class="f" d="M2985,2925.38c10.91,15.35,23.61,34.06,42.42,40.24,2.34,0.77,3.44-2.52,1.59-3.78-8.35-5.71-15.49-14.19-22.87-21.12-7.21-6.77-14.41-13.54-21.75-20.18-14.65-13.27-29.12-26.89-44.45-39.38a2.53,2.53,0,0,0-4,3c8,16.41,25.45,26.14,38.62,38,15.39,13.88,28.91,29.16,42.52,44.74l3.23-3.23c-10.16-9.49-20.23-19-30.13-28.75a1.27,1.27,0,0,0-1.79,1.79c9.74,9.92,19.22,20,28.69,30.19,2.06,2.21,5-1,3.23-3.23-12-15.43-26.42-29.46-41-42.43-7-6.23-14.26-12.16-21.59-18-7.07-5.65-15-11.8-17.15-21l-4.21,2.45c14.49,13.93,29.92,26.93,44.92,40.31,7.39,6.59,14.89,13.06,22.36,19.57s16.47,12.82,22.84,20.5l2.51-3.25c-8.82-4.54-16.8-9.3-24.21-16a248.08,248.08,0,0,1-19.58-20.61,0.14,0.14,0,0,0-.22.17h0Z" transform="translate(-2841.81 -2689.92)"/><path class="f" d="M2939.85,2888.49c2.23-2,4.35-4.12,6.46-6.26a0.61,0.61,0,0,0-.86-0.86c-2.15,2.11-4.25,4.23-6.26,6.46a0.47,0.47,0,0,0,.66.66h0Z" transform="translate(-2841.81 -2689.92)"/><path class="f" d="M2938.45,2882.77c6.12,1.3,12.54,1.53,18.75,2.38s12.52,1.86,18.76,2.89c12.52,2.09,24.91,4.79,37.18,8v-3.59c-6.79,1-13.15-1.63-19.43-3.87l-17.44-6.21L2941.38,2870c-1.85-.66-3.11,2.31-1.34,3.19,20.5,10.23,43.75,14.55,66.42,16.57,1.88,0.17,2.32-3,.45-3.31-22.23-3.9-44.63-6-65.11-16.27l-1.34,3.19,38.52,13.86c10.91,3.92,23.28,10.71,35.15,8.86,1.85-.29,1.7-3.19,0-3.59-12.67-3-25.47-5.46-38.37-7.26-12-1.67-25.19-3.69-37.28-2.63-0.1,0-.14.16,0,0.18h0Z" transform="translate(-2841.81 -2689.92)"/><path class="f" d="M2939.19,2885c27.89-9.16,55.38-19.52,82.82-30l-1.36-1.77-2.79,2c-1.05.25-.69,1.64,0.24,1.75,2.27,0.27,3.54-.56,4.64-2.53a1.22,1.22,0,0,0-1.36-1.77c-27.38,10.72-55,20.81-82.42,31.37-0.55.21-.33,1.1,0.25,0.9h0Z" transform="translate(-2841.81 -2689.92)"/><path class="f" d="M2941.77,2882.2a204.39,204.39,0,0,0,42.47-19.2,0.47,0.47,0,0,0-.47-0.81,203.86,203.86,0,0,1-42,19.83,0.09,0.09,0,0,0,0,.18h0Z" transform="translate(-2841.81 -2689.92)"/><path class="f" d="M2949.2,2874.45c8.75-12.23,16.77-25.14,22.79-38.94,0.35-.81-0.81-1.54-1.21-0.71-6.61,13.58-13.52,26.87-21.9,39.46-0.14.2,0.19,0.38,0.32,0.19h0Z" transform="translate(-2841.81 -2689.92)"/><path class="f" d="M2975.58,2818.25a0.09,0.09,0,0,0,0-.19,0.09,0.09,0,0,0,0,.19h0Z" transform="translate(-2841.81 -2689.92)"/><path class="f" d="M2940.32,2875.65c8.59-21.7,19.33-42.2,30.72-62.53a1.56,1.56,0,0,0-2.7-1.58,595.44,595.44,0,0,0-39.17,73.49l3.11,0.84c3.89-30.51,7.19-61.46,8.6-92.19,0.07-1.6-2.62-2-2.85-.39-4.45,30.58-7.12,61.73-9.09,92.58-0.13,2,2.67,2.11,3.28.44a309.68,309.68,0,0,1,38.82-73.2l-2.7-1.58c-12.25,20-21.67,41.68-29.56,63.68-0.35,1,1.17,1.36,1.54.42h0Z" transform="translate(-2841.81 -2689.92)"/><path class="f" d="M2917.44,2863.89a71.15,71.15,0,0,0-11.46-53.61l-2.86,2.21a14,14,0,0,1,3.41,7.79,1.17,1.17,0,0,0,2.34,0,15.62,15.62,0,0,0-2.89-10c-1.35-1.89-4.51-.07-3.14,1.84a73.15,73.15,0,0,1,12.95,51.55,0.85,0.85,0,0,0,1.66.22h0Z" transform="translate(-2841.81 -2689.92)"/><path class="f" d="M2914.38,2855.72c1.47,2.49,2.94,4.95,4.19,7.56,0.73,1.53,3.24.45,2.73-1.15-2.95-9.22-8.24-18.15-13.23-26.41-5.13-8.49-10.56-16.63-17.62-23.63a1,1,0,0,0-1.62,1.25c5,8.29,10.77,16.1,15.82,24.38s9,17.23,13.93,25.56l2.35-1.81c-1.85-2.08-3.5-4.32-5.16-6.55a0.8,0.8,0,0,0-1.38.8h0Z" transform="translate(-2841.81 -2689.92)"/><path class="f" d="M2908.32,2836.61c5.82,7.11,13.29,17.22,14,26.7l2.76-.75c-4.21-6.65-10.86-12.42-16.28-18.12q-8.6-9-17.23-18c-11.69-12.25-23.06-25-35.19-36.77l-3.15,3.15,3.7,3,1.38-3.33a19.21,19.21,0,0,1-8-2.53l0.35,2.69c12.18-10.61,25.31-19.43,38.66-28.44a1.45,1.45,0,0,0-1.47-2.51c-14.21,7.7-27.39,18-39.62,28.53a1.73,1.73,0,0,0,.35,2.69,31.57,31.57,0,0,0,9.18,3.4,2,2,0,0,0,1.9-3.26l-3.31-3.44c-2-2.08-5,1-3.15,3.15,11.27,12.64,23.46,24.56,35.18,36.79q8.63,9,17.27,18c5.44,5.65,10.93,12.53,17.37,17a1.49,1.49,0,0,0,2-2c-3.07-4.49-4.9-9.72-7.66-14.41a87.15,87.15,0,0,0-8.6-12c-0.27-.32-0.73.14-0.46,0.46h0Z" transform="translate(-2841.81 -2689.92)"/><path class="f" d="M3014.76,2925.3l1.09,5.3c0,0.18.31,0.1,0.27-.07l-1.09-5.3c0-.18-0.31-0.1-0.27.07h0Z" transform="translate(-2841.81 -2689.92)"/><path class="f" d="M3014.1,2927.4c0.2,10,2.28,19.4,4.29,29.12a1.56,1.56,0,0,0,2.59.68,170.06,170.06,0,0,0,34.76-67.19,1.22,1.22,0,0,0-2.35-.65,246.21,246.21,0,0,1-34.84,66h2.67c-3.94-8.69-5.13-18.46-5.43-27.93a0.84,0.84,0,0,0-1.69,0h0Z" transform="translate(-2841.81 -2689.92)"/><path class="f" d="M3027.36,2950.22c10.31-13,17.55-29.35,23.71-44.68,3-7.35,5.2-15.09,3.85-23.07a90.47,90.47,0,0,0-3-10.92,46.47,46.47,0,0,1-1.76-13.11c0-2.14-3.37-3.43-4.37-1.18-2.75,6.22-.3,12.78,1.64,18.9,2.83,9,2.62,16.37-.66,25.26-6,16.26-15.22,30.81-22.39,46.47-0.83,1.81,1.55,4.18,3,2.33h0Z" transform="translate(-2841.81 -2689.92)"/><path class="f" d="M3054.91,2874.4c1.3-12.49-3.68-26.52-8.66-37.75a102.5,102.5,0,0,0-22.8-32.42c-2.75-2.64-6.79,1.41-4.18,4.18a117.27,117.27,0,0,1,21,30.81,103.88,103.88,0,0,1,6.29,17.58c1.57,6,2.23,12.25,3.85,18.22,0.72,2.65,4.26,1.85,4.51-.61h0Z" transform="translate(-2841.81 -2689.92)"/><path class="f" d="M3027.36,2817.64c-11.64-19.68-29.62-35.37-52.27-40.78a2.06,2.06,0,0,0-1.1,4c20.81,6.54,40.25,18.86,52.4,37.37a0.56,0.56,0,0,0,1-.57h0Z" transform="translate(-2841.81 -2689.92)"/><path class="f" d="M3003.77,2779.9c-24.3-7.82-50.66-16.37-76.34-11-1.94.41-1.54,3.64,0.47,3.5,25.8-1.82,50.31,4.12,75.32,9.45a1,1,0,0,0,.55-2h0Z" transform="translate(-2841.81 -2689.92)"/><path class="f" d="M2967.92,2765.68c-29-10-59.21-2-87.43,6.7-3.51,1.08-2,6.61,1.52,5.51,27.41-8.47,56.77-17.95,85.59-11a0.61,0.61,0,0,0,.32-1.18h0Z" transform="translate(-2841.81 -2689.92)"/><path class="f" d="M2902.17,2765.29a119.8,119.8,0,0,0-46.6,18.7c-2.32,1.54-.26,5.18,2.2,3.77a169.77,169.77,0,0,1,71.14-22c3.64-.29,3.69-6,0-5.72a161.61,161.61,0,0,0-73.34,23.91l2.65,3.43a109.56,109.56,0,0,1,44.33-20.78c0.9-.2.5-1.5-0.37-1.36h0Z" transform="translate(-2841.81 -2689.92)"/><path class="f" d="M3032.86,2971.07a0.19,0.19,0,0,0,0-.37,0.19,0.19,0,0,0,0,.38h0Z" transform="translate(-2841.81 -2689.92)"/><path class="f" d="M3060.9,2855a97.25,97.25,0,0,0,4.26,11.93c1.12,2.49,4.36.54,4-1.7-1.15-7.92-1.44-15.62-3.56-23.39-1-3.67-1.6-7.4-2.32-11.14-0.78-4.06-2.28-7.87-3-11.95-0.62-3.51-5.92-2-5.34,1.47l1.89,11.24,5.39-2.27c-1.67-3.56-3.22-7.37-6.35-9.83-3.42-2.69-5.11-7.94-7.53-11.64A164.46,164.46,0,0,0,3031,2786c-2.6-2.8-7,1.65-4.18,4.18a155.51,155.51,0,0,1,19.22,20.9c2.59,3.32,5.79,6.48,6.43,10.58,0.59,3.77,3,7.18,4.69,10.54,1.59,3.12,6,.85,5.39-2.27l-2.24-11.15-5.06,2.13c1.75,3.81,2.52,8,3.79,12a61.8,61.8,0,0,1,2.49,10.76c1,7.39,2.91,14.77,3.31,22.2l4.33-.59a92.35,92.35,0,0,0-3.6-11.53c-1.06-2.9-5.62-1.75-4.7,1.3h0Z" transform="translate(-2841.81 -2689.92)"/><path class="f" d="M3068.56,2902.41c4,0,4-6.2,0-6.2s-4,6.2,0,6.2h0Z" transform="translate(-2841.81 -2689.92)"/><path class="f" d="M3032.58,2972.73a135.21,135.21,0,0,0,20.72-26c1.27-2-1.53-4-3.2-2.47-5.29,4.84-10.1,9.26-13.8,15.54-1.84,3.13,3,5.95,4.86,2.84,2.23-3.7,4.48-7.39,6.41-11.25a11.27,11.27,0,0,0,1.13-3.9c0.63-3.07,1.74-4.85,3.27-7.44,4.49-7.63,8.18-15.89,11.91-23.91,1.8-3.88-4-6.34-5.4-2.28-2.75,8.17-6.12,16-9.3,24a29.77,29.77,0,0,1-2,5.09c-1.52,2.35-3.28,3.11-4.65,5.44-2.18,3.72-4.1,7.61-6.18,11.39l4.86,2.84c3-5.61,6.72-11.48,11.81-15.5l-3.2-2.47c-3.15,4.31-6.63,8.42-9.83,12.73s-7.2,7.91-10.82,11.85c-2.12,2.31,1.17,5.62,3.45,3.45h0Z" transform="translate(-2841.81 -2689.92)"/><path class="f" d="M3034.85,2803.52a3.25,3.25,0,0,0,4.68.37,0.75,0.75,0,0,0,.27-1c-8.39-11.76-17.37-23.31-26.59-34.42l-2.54,2.54c4.55,4.49,8.67,9.19,12.8,14.07,0.67,0.79,1.75-.34,1.13-1.13-3.9-4.93-7.66-9.86-11.11-15.12a1.79,1.79,0,1,0-2.82,2.18c4.47,5.63,9.2,11,13.86,16.52l6.34,7.46c1.27,1.49,2.52,3,3.81,4.48l1.31,1.45q3,1.93-.73,2.11a0.33,0.33,0,0,0-.4.52h0Z" transform="translate(-2841.81 -2689.92)"/><path class="f" d="M3037.13,2792.71c-12.7-13.85-27.33-26.85-44.84-34.28-1.62-.69-3,1.48-1.42,2.43,16.18,9.56,32,19.29,45.26,32.85a0.7,0.7,0,0,0,1-1h0Z" transform="translate(-2841.81 -2689.92)"/><path class="f" d="M3006.75,2765.54a88.63,88.63,0,0,0-37.42-15.61c-0.53-.09-0.76.7-0.22,0.81a109,109,0,0,1,37.18,15.61c0.51,0.34,1-.46.47-0.81h0Z" transform="translate(-2841.81 -2689.92)"/><path class="f" d="M2985.55,2754.78a84.63,84.63,0,0,0-49.08-8,1.17,1.17,0,1,0,.31,2.3,93,93,0,0,1,48.41,6.53c0.49,0.2.83-.62,0.36-0.86h0Z" transform="translate(-2841.81 -2689.92)"/><path class="f" d="M2918.37,2747.52a6.46,6.46,0,0,0-2.21-2.35,5.64,5.64,0,0,0-1.51-.7,5.58,5.58,0,0,0-4.17.55l-1,.79-0.79,1a5,5,0,0,0-.6,3.23,4.81,4.81,0,0,0,1,2.4,4.61,4.61,0,0,0,2.64,1.82,5.93,5.93,0,0,0,2.9,0,11.82,11.82,0,0,0,1.47-.62l-1.19.5,0.33-.09-1.27.17a2.4,2.4,0,0,1,.47,0l-1.2-.16,0.12,0a5.75,5.75,0,0,0,2.38,0,4.43,4.43,0,0,0,2.32-1.6,4.23,4.23,0,0,0,.88-2.11,4.69,4.69,0,0,0-.53-2.85h0Z" transform="translate(-2841.81 -2689.92)"/><path class="f" d="M2896.77,2750.72a8.83,8.83,0,0,0-1.15.52,6.41,6.41,0,0,1-.6.44,15.52,15.52,0,0,1-2.13.69c-1,.33-0.56,2,0.44,1.61,0.69-.26,1.39-0.59,2.1-0.78a7.08,7.08,0,0,1,1-.09,12,12,0,0,0,1.24-.31c1.53-.38.68-2.77-0.87-2.07h0Z" transform="translate(-2841.81 -2689.92)"/><path class="f" d="M2890.74,2753.86a0.3,0.3,0,0,0,0-.6,0.3,0.3,0,0,0,0,.6h0Z" transform="translate(-2841.81 -2689.92)"/><path class="f" d="M2883.92,2754.74l-2.48,1.21a1.61,1.61,0,1,0,1.62,2.78l2.24-1.62a1.37,1.37,0,0,0-1.38-2.37h0Z" transform="translate(-2841.81 -2689.92)"/><path class="f" d="M2846.59,2776.36a32.48,32.48,0,0,1,7.32-5.58c1-.53,0-2.07-0.84-1.44a33.87,33.87,0,0,0-6.86,6.73c-0.17.22,0.19,0.48,0.37,0.29h0Z" transform="translate(-2841.81 -2689.92)"/><path class="f" d="M2844.73,2781.12c7.13-7.54,14.5-14.21,24-18.67,2.29-1.08.66-5.07-1.74-4.14-10.26,4-19.78,10.76-25,20.72-0.88,1.68,1.31,3.58,2.71,2.09h0Z" transform="translate(-2841.81 -2689.92)"/><path class="f" d="M2937.88,2925.28a0.12,0.12,0,0,0,0-.24,0.12,0.12,0,0,0,0,.24h0Z" transform="translate(-2841.81 -2689.92)"/><path class="f" d="M2883.42,2903.17c-10,5.73-21.09,9.71-30.77,16-2.43,1.59-.94,6.11,2.09,5,11.15-4.17,20.58-11.5,30.52-17.85a1.83,1.83,0,0,0-1.85-3.16h0Z" transform="translate(-2841.81 -2689.92)"/><path class="f" d="M2922.84,2703.08l-3.31-11.28c-1-3.33-5.53-1.86-5.06,1.4l1.69,11.72c0.62,4.31,8,2.56,6.69-1.84h0Z" transform="translate(-2841.81 -2689.92)"/><path class="f" d="M3084.82,2792.8c8.5-3.3,16.9-6.53,25.07-10.59,1.69-.84.48-3.82-1.3-3.08-8.45,3.48-16.44,7.64-24.53,11.87a1,1,0,0,0,.76,1.8h0Z" transform="translate(-2841.81 -2689.92)"/><path class="f" d="M2964,2942.28a0.28,0.28,0,0,0,0-.56,0.28,0.28,0,0,0,0,.56h0Z" transform="translate(-2841.81 -2689.92)"/><path class="b" d="M2914,2881.58c3.32,0,3.32-5.16,0-5.16s-3.32,5.16,0,5.16h0Z" transform="translate(-2841.81 -2689.92)"/><path class="b" d="M2929.57,2906.15c-3,4-5.84,8.07-8.6,12.24a1.13,1.13,0,0,0,1.77,1.36c3.28-3.94,6.42-7.95,9.51-12,1.19-1.58-1.5-3.16-2.67-1.56h0Z" transform="translate(-2841.81 -2689.92)"/><path class="b" d="M3088,2869.58c5.68,0.61,11.31,1.22,17,1.45,1.4,0.06,1.76-2.24.34-2.49-5.77-1-11.54-1.62-17.36-2.24-2.1-.22-2.08,3.06,0,3.28h0Z" transform="translate(-2841.81 -2689.92)"/><path class="c" d="M2856.55,2738.1l-2.08-4a1.64,1.64,0,0,0-2.83,1.66l1.92,4a1.73,1.73,0,1,0,3-1.75h0Z" transform="translate(-2841.81 -2689.92)"/><path class="c" d="M3032,2743.63c3.38,0,3.38-5.25,0-5.25s-3.38,5.25,0,5.25h0Z" transform="translate(-2841.81 -2689.92)"/></svg>