<?xml version="1.0" encoding="utf-8"?>
<!-- Generator: Adobe Illustrator 19.1.0, SVG Export Plug-In . SVG Version: 6.00 Build 0)  -->
<svg version="1.1" xmlns="http://www.w3.org/2000/svg" xmlns:xlink="http://www.w3.org/1999/xlink" x="0px" y="0px"
	 viewBox="0 0 462.5 459.3" style="enable-background:new 0 0 462.5 459.3;" xml:space="preserve">
<style type="text/css">
	.st0{fill:#2C3E50;}
	.st1{fill:#29ABE2;}
	.st2{opacity:0.18;}
	.st3{fill:#FFFFFF;}
	.st4{fill:#AA5E63;}
	.st5{fill:none;stroke:#FF0000;stroke-width:0.8112;stroke-miterlimit:10;}
	.st6{fill:none;stroke:#FF0000;stroke-width:1.2327;stroke-miterlimit:10;}
	.st7{fill:none;stroke:#FF0000;stroke-width:2.4654;stroke-miterlimit:10;}
	.st8{fill:none;stroke:#FF0000;stroke-miterlimit:10;}
	.st9{fill:none;stroke:#FF0000;stroke-width:1.3805;stroke-miterlimit:10;}
	.st10{fill:none;stroke:#FFFFFF;stroke-width:13;stroke-miterlimit:10;}
</style>
<g id="Layer_1">
	<path class="st0" d="M357.6,426.6H105.3c-40.9,0-74.1-33.2-74.1-74.1V100.1c0-40.9,33.2-74.1,74.1-74.1h252.3
		c40.9,0,74.1,33.2,74.1,74.1v252.3C431.7,393.4,398.5,426.6,357.6,426.6z"/>
	<path d="M339.4,95.4l-0.2,152.2L187.5,95.7l-56.7,42.7l-7.9,70.3l23.7,34.5v81.8l100.8,101.2h61.9h25.6h25.6h0
		c39.1,0,70.7-31.7,70.7-70.7v-12.8v-3V188.4L339.4,95.4z"/>
	<path class="st3" d="M340,181.2V96.3h-65.7c0,35,27.1,82,62.6,85h-38c-13.6,0-25.8,11.2-25.8,24.8v50.2c0,17.1-3.1,29.5-10.2,37.1
		c-7.1,7.6-17.6,11.4-31.5,11.4c-27.4,0-42.3-15.2-42.3-45.5v-53.2c0-13.6-10.6-24.8-24.2-24.8h-38.9c34.8-3,62.6-50,62.6-85H122
		v84.9l0,0V258c1,30.5,10.4,54.5,29.8,72c19.4,17.5,46.2,26.3,79.9,26.3c22.3,0,41.8-3.9,58.1-11.8c16.4-7.9,28.7-19.3,37.4-34.4
		s12.7-32.8,12.7-53.4V181.2L340,181.2z"/>
</g>
<g id="Layer_2">
</g>
</svg>
