<svg xmlns="http://www.w3.org/2000/svg" viewBox="0 0 544 640.4"><defs><style>.a{fill:#fff;}</style></defs><title>upknown</title><path class="a" d="M389.1,0c0,88,59.8,198,147.8,205H441.5c-33.9,0-62.5,27.4-62.5,61.3v125c0,42.7-8.7,73.6-26.4,92.6s-44.3,28.5-78.8,28.5C205.5,512.4,170,474.6,168,399V266.3c0-33.9-26.7-61.3-60.6-61.3H10.1c88-7,147.8-117,147.8-205H0V395.5c0,75.4,26.3,135.7,74.8,179.4s115.1,65.5,199.3,65.5c55.7,0,104.2-9.8,145-29.4s71.4-48.2,93.2-85.7S544,443.4,544,392.2V0ZM29,29h97.9a222.38,222.38,0,0,1-36,91.4C78.7,138.2,64.1,152.1,49,161.8a94.71,94.71,0,0,1-20,9.7ZM516,392.3c0,47.1-9,85.9-28.1,118.7s-45.6,57.1-81.2,74.3C370,603,325.5,611.9,274.4,611.9c-38.8,0-73.8-5-103.9-14.9-29.2-9.6-55.3-24.1-76.5-43.2-41.6-37.5-63.1-89.3-65.1-158.5V234h78.4c18,0,31.6,14.2,31.6,32.3V399.7C141.2,490.8,189.8,541,274.1,541q64.35,0,99.4-37.6c23-24.6,34.4-62.4,34.4-112.1v-125c0-18,15.5-32.3,33.5-32.3H516Zm0-220.8a83.13,83.13,0,0,1-19-9.7c-15.1-9.7-28.8-23.6-41-41.4C437.9,94.1,425.2,62,420.1,29H516Z"/></svg>