<svg xmlns="http://www.w3.org/2000/svg" viewBox="0 0 1434.43 1372.34"><defs><style>.cls-1{fill:#fff;}</style></defs><title>acf-grid</title><g id="Layer_2" data-name="Layer 2"><g id="Layer_1-2" data-name="Layer 1"><path class="cls-1" d="M356,417.49c-5.42,8.72-13.79,20.08-18.74,29.82,50.79-33,95.7-55.23,147.88-72C433.49,385.08,390,400.08,356,417.49Z"/><path class="cls-1" d="M185.66,575.84c6.17-18.94,13.07-39.95,20.17-61.25C-20,677.81-3,881.08,241.19,897.27,66.49,876.23,71,677.81,185.66,575.84Z"/><path class="cls-1" d="M589.07,292.15c-31.47-17.12-42.88-37-78.86-26.71C490.74,271,581.78,332.51,569.37,336c-16.61,4.73-69.24,31.5-88.34,12.37s-27.37-26.33-51.43-20.94c-9.88,2.22,68.95,53.27,157.51,30.61,130.94-33.51,203-40.77,186.93-69.48C762.29,267.59,664.42,333.14,589.07,292.15Z"/><path class="cls-1" d="M361.46,363.87c-37.78,32.21-206.47,290.65,95,362.36,0,16.06-125,9.1-56.18,224.44-39,.2-102.52-311.81-191-112.32C168.49,818.08,186,436.58,361.46,363.87Z"/><circle class="cls-1" cx="391.98" cy="579.82" r="70.9"/><circle class="cls-1" cx="587.88" cy="654.52" r="57.81"/><path class="cls-1" d="M478,730.81c88.5,106.49,40.43,165.26-34.9,223.46,6,10,116.31-105.05,169.94,3.95,2,37.36-12-128.14,106.1-266.07C642.49,728.58,594.49,744.58,478,730.81Z"/></g><g id="Layer_2-2" data-name="Layer 2"><path class="cls-1" d="M247.11,902.4c-81.48,0-147.76-66.29-147.76-147.76s66.29-147.76,147.76-147.76,147.76,66.29,147.76,147.76S328.58,902.4,247.11,902.4Zm0-285.52c-76,0-137.76,61.8-137.76,137.76S171.14,892.4,247.11,892.4s137.76-61.8,137.76-137.76S323.07,616.87,247.11,616.87Z"/><path class="cls-1" d="M189.27,896C107.79,896,41.5,829.74,41.5,748.26S107.79,600.5,189.27,600.5,337,666.79,337,748.26,270.74,896,189.27,896Zm0-285.52c-76,0-137.76,61.8-137.76,137.76S113.3,886,189.27,886,327,824.22,327,748.26,265.23,610.5,189.27,610.5Z"/><path class="cls-1" d="M424,708.76c-81.48,0-147.76-66.29-147.76-147.76S342.5,413.23,424,413.23,571.74,479.52,571.74,561,505.46,708.76,424,708.76Zm0-285.52c-76,0-137.76,61.8-137.76,137.76S348,698.76,424,698.76,561.74,637,561.74,561,499.94,423.23,424,423.23Z"/><path class="cls-1" d="M669.28,1099a46,46,0,0,1-13.81-2.08c-26.06-8.16-42.84-39.21-47.26-87.44-4.28-46.73,3.41-104.56,21.65-162.84s44.89-110.18,75-146.13c31.12-37.11,62.61-53.05,88.67-44.9h0c26.06,8.16,42.85,39.21,47.26,87.44,4.28,46.73-3.41,104.56-21.65,162.84S774.29,1016,744.14,1052C718.34,1082.75,692.29,1099,669.28,1099ZM780,663.54c-19.9,0-43.84,15.23-67.42,43.36-29.32,35-55.3,85.65-73.16,142.69S614,963.09,618.17,1008.54c4,43.31,18.65,72,40.29,78.8s50.08-8.46,78-41.78c29.32-35,55.3-85.64,73.16-142.69S835,789.37,830.87,743.92c-4-43.31-18.65-72-40.29-78.8A35.33,35.33,0,0,0,780,663.54Z"/><path class="cls-1" d="M563.46,848.23A287.24,287.24,0,1,1,766.56,764.1,285.36,285.36,0,0,1,563.46,848.23Zm0-564.48a277.24,277.24,0,1,0,196,81.2A275.43,275.43,0,0,0,563.46,283.76Z"/><path class="cls-1" d="M543.9,741.74A371,371,0,0,1,399.54,29.15,371,371,0,0,1,688.26,712.6,368.55,368.55,0,0,1,543.9,741.74ZM543.9,10A361,361,0,0,0,403.44,703.39a361,361,0,0,0,280.93-665A358.6,358.6,0,0,0,543.9,10Z"/><path class="cls-1" d="M810.35,1372.34A624.24,624.24,0,0,1,567.42,173.23,624.24,624.24,0,0,1,1053.27,1323.3,620.18,620.18,0,0,1,810.35,1372.34Zm0-1238.16a614.24,614.24,0,0,0-239,1179.91A614.24,614.24,0,0,0,1049.37,182.44,610.23,610.23,0,0,0,810.35,134.18Z"/><path class="cls-1" d="M233.78,902.4a224.58,224.58,0,1,1,158.8-65.78A223.11,223.11,0,0,1,233.78,902.4Zm0-439.17a214.58,214.58,0,1,0,151.73,62.85A213.18,213.18,0,0,0,233.78,463.23Z"/><path class="cls-1" d="M287.42,1164.87c-41.29,0-79.88-6.27-115.09-18.73-46.08-16.31-84.29-42.54-113.58-78S10.88,990.29,3.53,942C-3.55,895.47,0,845.55,14.15,793.59c28.93-106.46,98.91-209.76,197-290.88S423.91,372.3,533.91,363.9c53.69-4.1,103.39,1.78,147.72,17.47,46.08,16.31,84.29,42.54,113.58,78s47.87,77.89,55.21,126.22c7.07,46.49,3.5,96.41-10.63,148.37-28.93,106.46-98.9,209.76-197,290.88S430,1155.21,320,1163.61Q303.48,1164.87,287.42,1164.87ZM566.54,372.64q-15.67,0-31.87,1.24c-52.45,4-106.22,17.55-159.82,40.25-55.56,23.54-108.49,55.94-157.31,96.29S127,596.67,93.39,646.81C61,695.19,37.6,745.45,23.8,796.21,10,846.82,6.55,895.35,13.41,940.46c7.07,46.51,24.92,87.34,53,121.35s64.86,59.22,109.21,74.91c43,15.22,91.33,20.91,143.63,16.92,52.45-4,106.22-17.55,159.82-40.25,55.56-23.54,108.49-55.94,157.31-96.29S727,930.85,760.57,880.7c32.38-48.37,55.79-98.64,69.59-149.4,13.75-50.61,17.25-99.14,10.39-144.25-7.07-46.51-24.92-87.34-53-121.35h0c-28.12-34-64.86-59.22-109.21-74.91C644.17,378.72,606.69,372.64,566.54,372.64Z"/></g></g></svg>