<svg xmlns="http://www.w3.org/2000/svg" viewBox="0 0 636.2 621.72"><defs><style>.cls-1{fill:#fff;}</style></defs><title>acf-logomark</title><g id="Layer_2" data-name="Layer 2"><g id="Layer_1-2" data-name="Layer 1"><path class="cls-1" d="M290.26,128.25c-6.28,3.65-30.37,35.17-24.75,31.07,55.94-25.64,119.29-57.07,102.5-57.07C321.9,110.94,320.56,112.72,290.26,128.25Z"/><path class="cls-1" d="M127.15,232.21c-185.78,143.58-166,316.27,46.37,330.35C23.53,544.5,21.6,379.87,112.84,286.42,116.41,282.76,132,228.5,127.15,232.21Z"/><path class="cls-1" d="M484.85,23.88C459.41,10,450.18-6,421.09,2.28,405.35,6.77,479,56.51,468.92,59.37c-13.43,3.83-56,25.46-71.42,10s-22.13-21.29-41.58-16.93c-8,1.79,55.75,43.07,127.35,24.75C589.14,50.1,647.38,44.22,634.4,21,624.9,4,545.78,57,484.85,23.88Z"/><path class="cls-1" d="M280.83,86.66C247.13,115.4,96.62,346,365.59,410c0,14.33-111.54,8.12-50.12,200.25C280.67,610.38,224,332,145,510,108.66,491.91,124.28,151.53,280.83,86.66Z"/><circle class="cls-1" cx="308.06" cy="279.33" r="63.26"/><circle class="cls-1" cx="482.84" cy="345.98" r="51.58"/><path class="cls-1" d="M384.76,414c79,95,36.07,147.45-31.14,199.37,5.35,8.92,103.77-93.73,151.62,3.52,1.79,33.34-10.7-114.32,94.67-237.39C531.57,412.06,488.74,426.33,384.76,414Z"/></g></g></svg>