<svg xmlns="http://www.w3.org/2000/svg" viewBox="0 0 397.15 149.34"><defs><style>.cls-1{fill:#fff;}</style></defs><title>acf-logo</title><g id="Layer_2" data-name="Layer 2"><g id="Layer_1-2" data-name="Layer 1"><path class="cls-1" d="M69.72,30.82c-1.51.88-7.3,8.45-5.95,7.46C77.22,32.12,92.43,24.57,88.4,24.57,77.32,26.65,77,27.08,69.72,30.82Z"/><path class="cls-1" d="M30.54,55.78c-44.63,34.49-39.88,76,11.14,79.35C5.65,130.8,5.19,91.25,27.11,68.8,28,67.92,31.7,54.89,30.54,55.78Z"/><path class="cls-1" d="M116.47,5.74c-6.11-3.32-8.33-7.18-15.32-5.19-3.78,1.08,13.9,13,11.49,13.71-3.23.92-13.45,6.12-17.16,2.4s-5.32-5.11-10-4.07c-1.92.43,13.39,10.35,30.59,5.95C141.52,12,155.51,10.61,152.4,5,150.1,1,131.1,13.7,116.47,5.74Z"/><path class="cls-1" d="M67.47,20.82c-8.1,6.9-44.25,62.29,20.36,77.66,0,3.44-26.79,2-12,48.1-8.36,0-22-66.83-40.94-24.07C26.1,118.16,29.85,36.4,67.47,20.82Z"/><circle class="cls-1" cx="74" cy="67.1" r="15.2"/><circle class="cls-1" cx="115.98" cy="83.11" r="12.39"/><path class="cls-1" d="M92.42,99.46c19,22.82,8.66,35.42-7.48,47.89,1.29,2.14,24.93-22.52,36.42.85.43,8-2.57-27.46,22.74-57C127.69,99,117.4,102.4,92.42,99.46Z"/><path class="cls-1" d="M196.53,29.21h-9.68l-2.33,7.08h-5.17l9.72-27.61h5.25L204,36.28h-5.18Zm-4.86-15.75s-.62,2.72-1.17,4.28l-2.45,7.39h7.23l-2.45-7.39c-.5-1.56-1.09-4.28-1.09-4.28h-.08Z"/><path class="cls-1" d="M204.33,16.45h5.21l4.12,12.29c.39,1.17.66,3,.7,3h.08s.31-1.83.7-3l4.12-12.29h5.21l-7.11,19.83h-5.83Z"/><path class="cls-1" d="M228.91,8.67h4.9v4.39h-4.9Zm0,7.78h4.94V36.29h-4.94Z"/><path class="cls-1" d="M250.33,23.85H251v-.27c0-2.61-1.63-3.5-3.81-3.5a10.62,10.62,0,0,0-5.45,1.9l-1.87-3.54A13.38,13.38,0,0,1,247.64,16c5.21,0,8.24,2.88,8.24,7.9V36.3h-4.55V34.66a12.58,12.58,0,0,1,.08-1.4h-.08a6.42,6.42,0,0,1-6,3.5c-3.54,0-6.73-2.22-6.73-6.18C238.59,24.27,247.1,23.85,250.33,23.85Zm-3.77,9.06c2.61,0,4.47-2.8,4.47-5.21v-.49h-.86c-2.53,0-6.61.35-6.61,3.12,0,1.32,1,2.57,3,2.57Z"/><path class="cls-1" d="M262,20.69h-2.57V16.76h2.68V11h4.82v5.72h4.51v3.93h-4.51v7.7c0,3.27,2.57,3.73,3.93,3.73a4.55,4.55,0,0,0,.89-.08v4.32a8.54,8.54,0,0,1-1.52.12c-2.76,0-8.24-.82-8.24-7.47V20.7Z"/><path class="cls-1" d="M276.29,8.67h4.9v4.39h-4.9Zm0,7.78h4.94V36.29h-4.94Z"/><path class="cls-1" d="M296.09,16C302.15,16,307,20.31,307,26.37s-4.86,10.38-10.89,10.38S285.2,32.48,285.2,26.37,290.06,16,296.09,16Zm0,16.57A5.9,5.9,0,0,0,302,26.38a5.9,5.9,0,1,0-11.78,0,5.9,5.9,0,0,0,5.91,6.17Z"/><path class="cls-1" d="M311,16.45h4.74v2.29a12.29,12.29,0,0,1-.08,1.36h.08a7.68,7.68,0,0,1,7-4.12c4.39,0,6.88,2.29,6.88,7.55V36.29h-4.9V24.54c0-2.4-.62-4-3.15-4a5.49,5.49,0,0,0-5.33,4,8.36,8.36,0,0,0-.35,2.64v9.1H311Z"/><path class="cls-1" d="M194.13,57.78c6.73,0,10.19,3.77,10.19,3.77l-2.4,3.73a12.17,12.17,0,0,0-7.55-2.92c-5.83,0-9.26,4.36-9.26,9.49s3.54,9.88,9.29,9.88a11.9,11.9,0,0,0,8-3.5l2.64,3.62a14.86,14.86,0,0,1-10.85,4.47c-8.44,0-14.27-6.26-14.27-14.39A13.87,13.87,0,0,1,194.13,57.78Z"/><path class="cls-1" d="M218.8,65.55c6.07,0,10.93,4.32,10.93,10.38s-4.86,10.38-10.89,10.38S207.91,82,207.91,75.94,212.77,65.55,218.8,65.55Zm0,16.57a6.19,6.19,0,1,0-5.91-6.18,5.9,5.9,0,0,0,5.91,6.18Z"/><path class="cls-1" d="M233.93,66h4.74v2.29a12.29,12.29,0,0,1-.08,1.36h.08a7.49,7.49,0,0,1,6.46-4.12c3,0,5,1.4,5.79,4.08H251a7.76,7.76,0,0,1,6.77-4.08c4.12,0,6.49,2.33,6.49,7.55V85.85h-4.94V74c0-2.26-.43-4-2.72-4-2.53,0-4.2,2-4.78,4.51a10.68,10.68,0,0,0-.24,2.57v8.71h-4.91V74c0-2.14-.35-4-2.68-4-2.57,0-4.24,2-4.86,4.55a10.35,10.35,0,0,0-.24,2.53v8.71h-4.95V66Z"/><path class="cls-1" d="M269.45,66h4.74v2.29a12.29,12.29,0,0,1-.08,1.36h.08a7.49,7.49,0,0,1,6.46-4.12c3,0,5,1.4,5.79,4.08h.08a7.76,7.76,0,0,1,6.77-4.08c4.12,0,6.49,2.33,6.49,7.55V85.85h-4.94V74c0-2.26-.43-4-2.72-4-2.53,0-4.2,2-4.78,4.51a10.68,10.68,0,0,0-.24,2.57v8.71h-4.94V74c0-2.14-.35-4-2.68-4-2.57,0-4.24,2-4.86,4.55a10.35,10.35,0,0,0-.24,2.53v8.71h-4.94V66Z"/><path class="cls-1" d="M305.16,66h4.94V77.76c0,2.4.62,4,3.07,4,3.58,0,5.56-3.15,5.56-6.69V66h4.94V85.85h-4.74V83.6a12.58,12.58,0,0,1,.08-1.4h-.08A7.63,7.63,0,0,1,312,86.32c-4.24,0-6.88-2.14-6.88-7.55V66Z"/><path class="cls-1" d="M329.84,66h4.75v2.29a12.29,12.29,0,0,1-.08,1.36h.08a7.68,7.68,0,0,1,7-4.12c4.39,0,6.88,2.29,6.88,7.55V85.85h-4.9V74.11c0-2.4-.62-4-3.15-4a5.49,5.49,0,0,0-5.33,4,8.36,8.36,0,0,0-.35,2.64v9.1h-4.94V66Z"/><path class="cls-1" d="M353.68,58.24h4.9v4.39h-4.9Zm0,7.78h4.93V85.85h-4.94V66Z"/><path class="cls-1" d="M365.16,70.26h-2.57V66.33h2.68V60.6h4.82v5.72h4.51v3.93H370.1v7.7c0,3.27,2.57,3.73,3.93,3.73a4.55,4.55,0,0,0,.89-.08v4.32a8.54,8.54,0,0,1-1.52.12c-2.76,0-8.24-.82-8.24-7.47V70.26Z"/><path class="cls-1" d="M378.63,89a4.32,4.32,0,0,0,2.22.82,3.75,3.75,0,0,0,3.42-2.57l.74-1.75L376.65,66h5.56l4.16,11.43a24.42,24.42,0,0,1,.74,2.68h.08s.31-1.56.66-2.61L391.74,66h5.4l-8.87,22.82A7.42,7.42,0,0,1,381.12,94,7.63,7.63,0,0,1,377,92.73Z"/><path class="cls-1" d="M180.15,108.08h14.39v2.4H182.83v10.27h10v2.4h-10V135.4h-2.68V108.08Z"/><path class="cls-1" d="M207.3,115.39A10.25,10.25,0,1,1,197,125.54,10.13,10.13,0,0,1,207.3,115.39Zm0,18.12a7.72,7.72,0,0,0,7.62-8,7.62,7.62,0,1,0-15.24,0A7.72,7.72,0,0,0,207.3,133.51Z"/><path class="cls-1" d="M222.08,115.85h2.64V127.6c0,3.07.47,5.79,4.24,5.79,4.47,0,7.23-3.93,7.23-8.17v-9.37h2.64v19.56h-2.57V132.5c0-.86.08-1.56.08-1.56h-.08a8.36,8.36,0,0,1-7.66,4.94c-4.59,0-6.53-2.49-6.53-7.58V115.85Z"/><path class="cls-1" d="M245.71,115.85h2.61v2.92c0,.86-.08,1.56-.08,1.56h.08a8.33,8.33,0,0,1,7.82-4.94c4.82,0,6.53,2.76,6.53,7.58v12.45H260V123.67c0-3.07-.47-5.79-4.24-5.79a7.45,7.45,0,0,0-7.12,5.52,9.67,9.67,0,0,0-.31,2.64v9.37h-2.64V115.85Z"/><path class="cls-1" d="M276,115.39a6.91,6.91,0,0,1,6.38,3.69h.08a14.09,14.09,0,0,1-.08-1.48v-9.53H285v27.34h-2.57v-2.06a11,11,0,0,1,.08-1.4h-.08a7.08,7.08,0,0,1-6.73,3.93c-5.25,0-8.52-4.2-8.52-10.27S270.89,115.39,276,115.39Zm.12,18.12c3.27,0,6.34-2.33,6.34-7.9,0-4-2-7.85-6.22-7.85-3.46,0-6.3,2.92-6.3,7.85s2.52,7.9,6.18,7.9Z"/><path class="cls-1" d="M302,123.33h1.09v-.51c0-3.77-2.06-5-4.86-5a9.52,9.52,0,0,0-5.52,1.87l-1.24-2a11.25,11.25,0,0,1,7-2.22c4.71,0,7.31,2.61,7.31,7.51v12.52h-2.53v-2.14a15.5,15.5,0,0,1,.08-1.63h-.08a7.06,7.06,0,0,1-6.53,4.24c-3.27,0-6.65-1.9-6.65-5.79C290.07,123.48,298.67,123.33,302,123.33Zm-4.9,10.31c3.73,0,6-3.89,6-7.27v-.86H302c-3.07,0-9.22.12-9.22,4.43,0,1.83,1.44,3.69,4.36,3.69Z"/><path class="cls-1" d="M313,118.31h-2.57v-2.22H313v-5.64h2.61v5.64h4.9v2.22h-4.9V128c0,4.59,2.92,5.17,4.39,5.17a4.55,4.55,0,0,0,.89-.08v2.37a7,7,0,0,1-1.13.08c-2.26,0-6.81-.74-6.81-7.27v-10Z"/><path class="cls-1" d="M325.68,108.08h2.76v3.31h-2.76Zm.08,7.78h2.64v19.56h-2.64V115.85Z"/><path class="cls-1" d="M343.69,115.39a10.25,10.25,0,1,1-10.34,10.15A10.13,10.13,0,0,1,343.69,115.39Zm0,18.12a7.72,7.72,0,0,0,7.62-8,7.62,7.62,0,1,0-15.24,0A7.72,7.72,0,0,0,343.69,133.51Z"/><path class="cls-1" d="M359,115.85h2.61v2.92c0,.86-.08,1.56-.08,1.56h.08a8.33,8.33,0,0,1,7.82-4.94c4.82,0,6.53,2.76,6.53,7.58v12.45h-2.64V123.67c0-3.07-.47-5.79-4.24-5.79a7.45,7.45,0,0,0-7.12,5.52,9.67,9.67,0,0,0-.31,2.64v9.37H359V115.85Z"/></g></g></svg>