<svg xmlns="http://www.w3.org/2000/svg" viewBox="0 0 26.57 47.61"><defs><style>.cls-1{fill:#fff;}</style></defs><title>icon-8</title><g id="Layer_2" data-name="Layer 2"><g id="Layer_3" data-name="Layer 3"><path class="cls-1" d="M5.31,1.19A5.5,5.5,0,0,0,0,6.33c0,.59.91.88,1.16.31A6.47,6.47,0,0,1,5.55,3a.91.91,0,0,0-.24-1.78Z"/><path class="cls-1" d="M1.13,8.54c-.15,5,0,10.08.12,15.12s0,10.1.44,15.14a.42.42,0,0,0,.84,0A144.51,144.51,0,0,0,2.41,23.2,146.69,146.69,0,0,0,1.22,8.52c0-.05-.09,0-.09,0Z"/><path class="cls-1" d="M2.25,40.94c-.83,4,3.94,5,6.86,4.88.5,0,.66-.8.12-.91-2.54-.52-5.94-1-6.69-4a.16.16,0,0,0-.3,0Z"/><path class="cls-1" d="M7.86,2.38c3.45-.19,6.86-.42,10.29-.86,1.74-.23,3.84-.9,4.9,1,.85,1.53.8,3.59,1,5.28.75,7.06,1,14.16,1.64,21.23a.31.31,0,0,0,.62,0,120.08,120.08,0,0,0-.35-13.86c-.27-3.81-.3-8-1.28-11.73C24,1.13,22.8-.17,20.39,0A98.3,98.3,0,0,0,7.83,2.16a.11.11,0,0,0,0,.22Z"/><path class="cls-1" d="M25.94,34.38l-.43,4.06c-.18,1.73-.12,4.4-1.25,5.76-1.68,2-4.53,2.34-7,2.07-.54-.06-.54.7-.12.87a7.19,7.19,0,0,0,7.74-1.82c2.6-2.67,1.39-7.59,1.3-10.94a.13.13,0,0,0-.27,0Z"/><path class="cls-1" d="M19.21,3.28c-2.31-1.11-5.36,0-7.69.64-2.07.6-5.19.81-6.77,2.47-1.25,1.33-1.23,3.28-1,5,.3,2.13.9,3.12,3.11,3.07,3.22-.07,6.45-.42,9.67-.63,2-.13,4.27-.15,5.07-2.38.64-1.78.09-5-.71-6.66-1-2-3.4-1.4-5.16-.95A1.11,1.11,0,0,0,16,6a18.48,18.48,0,0,1,2.33,0c.43.27.5,1.49.58,1.89.25,1.19.53,1.57-.38,2.58s-1.31.84-2.47.95l-5.27.46c-1,.09-3.8.78-4.59.27S5.53,8.8,6,8.07c.83-1.24,3.43-1.48,4.77-1.73,2.7-.51,6.4-.27,8.54-2.16a.58.58,0,0,0-.12-.91Z"/><path class="cls-1" d="M7.27,19.07a.49.49,0,0,0,.24-.46.74.74,0,0,0-.08-.28,1.49,1.49,0,0,0-.08-.18A.64.64,0,0,0,6.5,18a1.93,1.93,0,0,0-.62.58l-.09.15-.06.15q0-.1,0,0a1,1,0,0,0-.1.47,1.07,1.07,0,0,0,.56.88,1.27,1.27,0,0,0,1,.11A1.08,1.08,0,0,0,7.85,19a1,1,0,0,0-.92-.7A1,1,0,0,0,6,19q0,.25.2-.32L6,18.89a.68.68,0,0,1,.25-.24q-.08,0,0,0t0,0q.25,0,.12,0a.57.57,0,0,1,.39.16q.07.09,0,0l.09.33c0,.06,0,0,0,0s0,0,0-.1l.08-.13,0-.06q.1-.13-.16.11H6.91l.13,0,.12,0-.05,0c-.06,0-.17,0-.14,0-.08.19.1.43.3.3Z"/><path class="cls-1" d="M11.31,17.55c-.19,0-.38,0-.57,0H11c-.05,0-.1.07-.14,0a1.17,1.17,0,0,0-1.2.06c-.05,0-.1.1-.16.14a1.39,1.39,0,0,0-.58.77,1.33,1.33,0,0,0,.06.83,1.25,1.25,0,0,0,1.49.74,1.34,1.34,0,0,1,.27-.07l-.37.05A2.81,2.81,0,0,0,11,20a1.63,1.63,0,0,0,.54-.27s.45-.36,0,0a1.42,1.42,0,0,0,.67-1.16,1.35,1.35,0,0,0-.67-1.16,1.64,1.64,0,0,0-1.86.06,2.17,2.17,0,0,0-.65.78l2.31,1c0-.12,0-.24.06-.36a1.22,1.22,0,0,0-.22-.88l.09.32s0-.14,0,0l-.11.18a1.38,1.38,0,0,1,.33-.26c.27-.13.15-.66-.16-.63Z"/><path class="cls-1" d="M16,16.86a1.85,1.85,0,0,0-.84-.22,1.5,1.5,0,0,0-1.06.44,1.65,1.65,0,0,0-.38,1.56,1.44,1.44,0,0,0,1,1,1.5,1.5,0,0,0,1.41-.37l.08-.08a1.57,1.57,0,0,0,.41-.86,1.38,1.38,0,0,0-.18-1c-.13-.18.11.33.06.17a1.15,1.15,0,0,0-.51-.69Z"/><path class="cls-1" d="M18.84,19l.17,0-1-.26A1.58,1.58,0,0,0,20,19a1.53,1.53,0,1,0-1.54-2.64,1.58,1.58,0,0,0-.63.73,1.8,1.8,0,0,0-.06,1.1l.26-1-.12.11a1,1,0,0,0-.15,1.18,1,1,0,0,0,1.1.45Z"/><path class="cls-1" d="M7.07,24.17c-.06-.05.19.45,0,.48l-.26,0-.07-.06,0-.18c0-.21.28-.19.36-.11a.46.46,0,0,0-.72.09.47.47,0,0,0,.27.67c.51.21,1.08-.48.68-.9a.65.65,0,0,0-.62-.21.67.67,0,0,0-.52.64c-.05.4.45.64.77.51a.55.55,0,0,0,.18-.9Z"/><path class="cls-1" d="M10.33,25.1A1.11,1.11,0,1,0,9.22,24a1.12,1.12,0,0,0,1.11,1.11Z"/><path class="cls-1" d="M16,22.46a1.16,1.16,0,0,0-1.2-1.07,1.58,1.58,0,0,0-1.12.44,1.6,1.6,0,0,0,.69,2.57,1.4,1.4,0,0,0,1.58-2.05l0,0,.14.33a.31.31,0,0,1,0-.09l.05.37a1.65,1.65,0,0,0-.19-.81c0-.06-.12-.22,0,0a.76.76,0,0,1,.06.42.64.64,0,0,1-.13.33.3.3,0,0,1-.1.1q-.09.06,0,0a.64.64,0,0,0,.32-.55Z"/><path class="cls-1" d="M18,22.34l0,.06a1.11,1.11,0,1,0,1.91,0l0-.06a1.08,1.08,0,0,0-1.83,0Z"/><path class="cls-1" d="M6,29a1.45,1.45,0,0,0,.9,1,1.2,1.2,0,0,0,1.4-.49,1.28,1.28,0,0,0,0-1.28,1.26,1.26,0,0,0-1.39-.61,1.12,1.12,0,1,0,.87,2.05l.05,0-.56.15h0l-.55-.15q.14.07-.11-.13a.76.76,0,0,1-.16-1L6.83,28A.89.89,0,0,1,7.34,28a.5.5,0,0,1,.34.25,1,1,0,0,0-1.16-.38A.92.92,0,0,0,6,29Z"/><path class="cls-1" d="M12.17,27.22a1.68,1.68,0,0,0-2-.2,1.29,1.29,0,0,0,1,2.35,1.87,1.87,0,0,0,1-.64,2,2,0,0,0,.5-1,1.08,1.08,0,0,0-1-1.35,2,2,0,0,0-1.09.25,1.88,1.88,0,0,0-.86.83l2.4.65c0-.2-.07.27,0,.13s-.15.26,0,.09c0,0-.15.16-.05.08l-.08.06q.08,0-.07,0a.79.79,0,0,0,.34-1.3Z"/><path class="cls-1" d="M13.54,27.79v0a1.45,1.45,0,0,0,2.11.86l.11-.07a1.35,1.35,0,0,0,0-2.33l-.11-.07a1.45,1.45,0,0,0-2.11.86,1.34,1.34,0,0,0,0,.72Z"/><path class="cls-1" d="M8.35,32.58l.16.07.31.31v0l.12.45a.8.8,0,0,1-.22.54A1,1,0,0,0,9,33a1,1,0,0,0-1.66-.44,1,1,0,0,0-.26,1,1.14,1.14,0,0,0,.74.76,1,1,0,0,0,1.06-.44.85.85,0,0,0-.5-1.24Z"/><path class="cls-1" d="M10.46,32.31l-.29.09a.76.76,0,0,0,0,1.45l.29.09a.84.84,0,1,0,0-1.62Z"/><path class="cls-1" d="M13,33.58s2-2.17,0-2.17c-1,0-1,2.17,0,2.17Z"/><path class="cls-1" d="M18.73,28.15a18.64,18.64,0,0,0-.18,3.93c0,1,1.46,1.45,1.89.51a2.16,2.16,0,0,0-.12-2.3c-.27-.4-1-.42-1.13.15a2.91,2.91,0,0,1-.5,1.13l1.89.51a18.81,18.81,0,0,0-.38-3.93.77.77,0,0,0-1.47,0Z"/><path class="cls-1" d="M19.88,29.1a.62.62,0,0,0-.23-.87.83.83,0,0,0-1.08.37c-.63,1-.06,2.62.47,3.53.33.57,1.24,0,.88-.51a4,4,0,0,1-.61-1.46,3.08,3.08,0,0,1-.06-.73.87.87,0,0,1,.07-.38q.13-.12.2,0c0,.18.28.18.36,0Z"/><path class="cls-1" d="M8,37.3a11.73,11.73,0,0,0,3.21-.11,20,20,0,0,0,3.32-.27c1.14-.26.76-1.79-.26-1.9A10.28,10.28,0,0,0,8.85,36c-1,.47-.26,1.93.73,1.73l4.8-.93c1.25-.24.73-2.2-.53-1.92l-4.77,1c.24.58.45,1.15.7,1.73A8,8,0,0,1,14,36.92V35.06c-1,.21-1.94.65-2.95.89a22.76,22.76,0,0,0-3,.55c-.35.14-.43.72,0,.81Z"/><path class="cls-1" d="M19,35.51a.71.71,0,0,0-1.05-.42,1.17,1.17,0,0,0-.22.17c-.08.07-.32.36,0,.09s0,0-.09,0a1,1,0,0,0-.29.6,1.22,1.22,0,0,0,1.69,1.19A2.14,2.14,0,0,0,20.17,36a1.26,1.26,0,0,0-.1-1.36,1.22,1.22,0,0,0-1.29-.44A3.77,3.77,0,0,0,17,35a1.3,1.3,0,0,0-.27,1.4,1.28,1.28,0,0,0,1.17.79,2,2,0,0,0,.85-.2l.33-.18c.22-.13.42-.27.63-.41L17.93,35a3.54,3.54,0,0,1-.08.38c-.05.2.13-.21,0,0s.18-.19,0,0a.64.64,0,0,1,.47-.2l.43.12a1,1,0,0,0-.53-.14c-.12,0-.48.06-.18,0a1.12,1.12,0,0,1,.3,0l.37.21q.14.19.08.09.08.2,0,.1,0,.21,0,.1a.49.49,0,0,1-.58.49.52.52,0,0,0,.63-.63Z"/><path class="cls-1" d="M19.36,38l-.13-.11a1.46,1.46,0,0,0-1-.41,1.57,1.57,0,0,0-1,.41l-.13.11a1.57,1.57,0,0,0-.4.69,1.51,1.51,0,0,0,.08,1,1.56,1.56,0,0,0,1.44,1,1.64,1.64,0,0,0,1.36-.78A1.59,1.59,0,0,0,19.36,38Z"/><path class="cls-1" d="M12.89,41a1.26,1.26,0,1,0-1.26-1.26A1.28,1.28,0,0,0,12.89,41Z"/><path class="cls-1" d="M8.6,39.05l-.07,0a1.49,1.49,0,0,0,0,2.56l.07,0a1.53,1.53,0,1,0,0-2.63Z"/></g></g></svg>