<svg xmlns="http://www.w3.org/2000/svg" viewBox="0 0 92.21 106.7"><defs><style>.cls-1{fill:#fff;}</style></defs><title>icon-11</title><g id="Layer_2" data-name="Layer 2"><g id="Layer_1-2" data-name="Layer 1"><path class="cls-1" d="M6.08,10.16c3.69,1.9,8.58,1.18,12.65,1.25,4.72.07,9.88.58,14.48-.57a1.6,1.6,0,0,0,0-3.07c-4.61-1.09-9.77-.56-14.48-.47-4.09.08-9-.65-12.65,1.26a.93.93,0,0,0,0,1.6Z"/><path class="cls-1" d="M4.15,8.29c-1.48,1.76-1,3.79-.87,6,.13,3.73.14,7.46.06,11.2-.17,8.45-.94,16.87-1.71,25.28C.89,58.85.16,66.94,0,75.05c-.1,7.55-.25,16.43,2.64,23.52.67,1.66,3.28,1.59,3.3-.45C6,90.75,4.66,83.41,4.71,76c0-7.8.7-15.57,1.39-23.33.67-7.48,1.39-15,1.7-22.48C8,26.43,8,22.7,7.81,19c-.12-2.24-1.47-6.87-.89-9.06C7.31,8.39,5.26,7,4.15,8.29Z"/><path class="cls-1" d="M57.87,7.26C61.31,9.84,66.75,9,70.84,9c4.39,0,9.41.77,13.41-1.23,1.23-.61.72-2.26-.35-2.66-4.21-1.61-9.57-.38-14-.29-4,.08-8.58-.83-12,1.43a.58.58,0,0,0,0,1Z"/><path class="cls-1" d="M85.24,5.17C83.9,8.38,84.19,12,84,15.43c-.18,4-.34,7.94-.36,11.92,0,8.27,0,16.56.26,24.83.58,16.14.94,32.55,2.88,48.6.4,3.34,5.49,3.56,5.39,0-.44-16.2-1.85-32.39-2.29-48.6-.22-7.95-.55-15.89-.73-23.83-.09-4-.26-7.94-.43-11.92-.16-3.69.24-7.79-1.13-11.25a1.25,1.25,0,0,0-2.39,0Z"/><path class="cls-1" d="M4.86,100.58c27.68,7.5,56.45,7.71,84.62,2.79,2.67-.47,1.55-4.59-1.13-4.09C60.83,104.42,32.66,104,5,100.07c-.33,0-.48.42-.14.51Z"/><path class="cls-1" d="M34.41,9.57c.16-1,.24-4.31,1-4.86,2-1.37-.7-3.94-2-2C31.57,5.61,32,10.08,33,13.21c.62,2.09,4,1.77,3.9-.53C36.72,9.51,36.75,5.05,35,2.3c-.39-.59-1.49-.78-1.83,0-1.32,3.07-.64,7.17-.24,10.38l3.9-.53a13.5,13.5,0,0,1-1-4.4c-.05-1.46.34-2.84.34-4.29l-2.47,1c.71.76.08,4,0,5,0,.39.63.49.69.09Z"/><path class="cls-1" d="M34.08,2c3.83.8,7.84.73,11.74.94,4.16.22,7.87.61,11.92-.49a.94.94,0,0,0,0-1.79C53.68-.39,50,.06,45.82.35c-3.9.27-7.92.27-11.74,1.13a.27.27,0,0,0,0,.51Z"/><path class="cls-1" d="M60,2.67a30.48,30.48,0,0,0-2.42,7.46c-.39,2.18-1,4.77.22,6.73a1.25,1.25,0,0,0,2.26-.3c.72-1.9,0-4.07,0-6.1a28.82,28.82,0,0,1,1.07-7.32c.18-.65-.83-1.13-1.13-.48Z"/><path class="cls-1" d="M38.12,16.53,38,16.48v.44c.28-.34-.23.24.1-.1a1.57,1.57,0,0,0,.48-.76,1.28,1.28,0,0,0-2.47-.68l0,.09a1.27,1.27,0,0,0,.33,1.25,1.45,1.45,0,0,0,1.83.15.18.18,0,0,0-.09-.33Z"/><path class="cls-1" d="M39.27,16.7a4.11,4.11,0,0,0-4.7-4.54c-4.23.43-7.9,5.81-10.65,8.49a1.74,1.74,0,0,0,.76,2.89C39.23,26.19,54,26.28,68.23,21.83a2.44,2.44,0,0,0,1.07-4c-3.27-3-7.13-3.84-11.18-2-2.23,1-.54,4.1,1.57,3.71a6.64,6.64,0,0,1,6.2,1.67l1.07-4C53.41,20.9,39.53,22.6,25.6,20.22l.76,2.89c1.34-1.33,2.75-2.57,4.06-3.93,0,0,6-6,5.83-2.47-.08,2,2.84,1.9,3,0Z"/><path class="cls-1" d="M47.91,5.9q-.1-.44-.21,0a1.11,1.11,0,0,0,0-.59,1.41,1.41,0,0,0-.37-.72,2.63,2.63,0,0,0-2-.78,1.81,1.81,0,0,0-1.72,1.31,4,4,0,0,0,2.82,4.71A4.09,4.09,0,0,0,51.26,6.5a2.28,2.28,0,0,0-2.15-2.83,5.42,5.42,0,0,0-5.29,7c.43,1.17,2,2.25,3.22,1.31l1.33-1a2.24,2.24,0,0,0,.78-3,2.18,2.18,0,0,0-3-.78l-1.36,1,3.22,1.31s-.13-.56-.11-.38.06-.38,0,0L48,8.9q-.12.21,0,0s.27-.46.09-.22a2.57,2.57,0,0,1,.32-.34c.47-.44-.13,0,.18-.13s-.16,0,.19-.08c-.34.09.2,0,.31,0L46.88,5.9c.09-.76.28-.35,0-.27,0,0,.18-.23.19-.15l.11.07L46.29,7.1a3.51,3.51,0,0,0,1.32-1l-.51.39.17,0-.51-.07a1.64,1.64,0,0,1,.43.24c.48.32.94-.29.73-.73Z"/><path class="cls-1" d="M50.07,10.8a2.44,2.44,0,0,0,1.75-.54,2.17,2.17,0,0,0,.44-2.2v.57a.83.83,0,0,1,.1-.35c.3-.72-.55-1.32-1.18-1.18A2.81,2.81,0,0,0,49,9.52c-.08.69.91.7,1.13.15a1.09,1.09,0,0,1,1-.72l-.42-1.6-.07.07.54-.15a2.18,2.18,0,0,0-1.89,1.07,2.28,2.28,0,0,0,.05,1.94.72.72,0,0,0,.68.52Z"/><path class="cls-1" d="M27.44,16.68a65.59,65.59,0,0,0-10.67,2,.22.22,0,0,0,.06.43,65.44,65.44,0,0,0,10.74-1.45c.53-.11.42-1-.13-1Z"/><path class="cls-1" d="M16.14,19.51a236.89,236.89,0,0,1-.88,37.76c-1.32,11.82-2.7,24.35,2,35.65.35.83,1.82.86,1.74-.23-.91-12.21-3.4-24-2.61-36.3s1.48-24.49.72-36.88c0-.62-1-.63-1,0Z"/><path class="cls-1" d="M15.52,93.51c10.69.84,21.8-.09,32.51-.41,5.25-.15,10.49-.4,15.74-.68,3.83-.21,8,1.41,11.65.11a1.59,1.59,0,0,0-.85-3.07c-2.37.44-4.62-.38-7-.43a66.78,66.78,0,0,0-6.79.49q-7.37.59-14.76,1c-10.18.55-20.39-.1-30.54.45a1.28,1.28,0,0,0,0,2.56Z"/><path class="cls-1" d="M64.12,15.1c-1.07,0-1.81-1.22-2.9-.7l.51-.07-.13,0a.58.58,0,0,0-.71.71v-.11a1,1,0,0,0,.43,1,1.94,1.94,0,0,0,1.73.35,2.93,2.93,0,0,0,1.28-.68.31.31,0,0,0-.22-.53Z"/><path class="cls-1" d="M64.15,15.86l13-1.06-.89-1.17A310.54,310.54,0,0,0,73.9,54.82c0,11.29-1.46,26.81,5.09,36.68.54.81,2.06.59,2-.54-.44-5.69-2.24-11.26-3.18-16.89a124.74,124.74,0,0,1-1.25-20.21c0-13.36.83-26.66,1.58-40A.93.93,0,0,0,76.95,13L64,15.08c-.44.07-.34.82.11.78Z"/><path class="cls-1" d="M28,28.12a4.61,4.61,0,0,0,.49,3.42.28.28,0,0,0,.39.1c2.38-1.54,2.15-.93,4.08-.57A21.67,21.67,0,0,0,39.56,31c6.28-.74,12.74-1.18,18.91-2.62,1.48-.35,1-2.41-.34-2.52a40.41,40.41,0,0,0-11.65.92c-2.55.54-12.79,5-14.6,2.6a.31.31,0,0,0-.41-.11q-1.94,2.32-3-1c.05-.33-.45-.48-.51-.14Z"/><path class="cls-1" d="M32.16,37.18a.35.35,0,0,0,0-.71.35.35,0,0,0,0,.71Z"/><path class="cls-1" d="M32.16,37.67a.84.84,0,0,0,0-1.68.84.84,0,0,0,0,1.68Z"/><path class="cls-1" d="M28.17,40.88c2.58-.8,5.54-.66,8.26-.8a51.93,51.93,0,0,1,8.38.56.44.44,0,0,0,.22-.82,20.76,20.76,0,0,0-8.6-1.55c-3.25.09-5.33,1.35-8.29,2.52-.05,0,0,.1,0,.09Z"/><path class="cls-1" d="M30.14,45.2a2.21,2.21,0,0,1,.85-1,5.47,5.47,0,0,1,1.26-.44.31.31,0,0,0,.07-.57c-1.21-.62-2.7.3-3.4,1.29-.53.75.84,1.54,1.22.71Z"/><path class="cls-1" d="M28.75,50.42c.35.07.7.14,1,.2a5,5,0,0,0,1,0,.44.44,0,0,0,0-.88,5,5,0,0,0-1,0c-.35.05-.7.13-1,.2a.27.27,0,0,0,0,.51Z"/><path class="cls-1" d="M31.54,56.2a76,76,0,0,0,9.84.09,14,14,0,0,1,4.4.44c1.33.34,1.44.8,2.81.86a10.7,10.7,0,0,0,4-1.06c3.58-1.26,6.73-.68,10.35-1,1.26-.13,2.09-1.95.71-2.63-5.76-2.86-10.48,1.65-16.14.94a49.13,49.13,0,0,0-16.24.67c-1,.22-.69,1.64.23,1.74Z"/><path class="cls-1" d="M31.75,63.7a36,36,0,0,1,7.33-1.56c1.18-.17.9-2.14-.28-2.08a20.44,20.44,0,0,0-7.66,2.19c-.81.38-.24,1.76.61,1.45Z"/><path class="cls-1" d="M45.42,63.24c3.15.93,6.45.76,9.71.79a27.07,27.07,0,0,0,4-.2c1.51-.21,5-1.68,5.19.34a.49.49,0,0,0,1,0l0-1.6a.59.59,0,0,0-.58-.58c-6.34-.22-13.21-1.31-19.36.84a.22.22,0,0,0,0,.43Z"/><path class="cls-1" d="M46,63.27a24.29,24.29,0,0,0,.76,11.79.93.93,0,0,0,1.82-.25,42.29,42.29,0,0,0-1-11.54c-.15-.78-1.49-.82-1.62,0Z"/><path class="cls-1" d="M49.52,83.36c5.65,1.76,12.53,2.4,18.18.24.51-.2.5-1.1-.14-1-6.18.61-11.72,1.34-17.95.46a.18.18,0,0,0-.09.34Z"/><path class="cls-1" d="M66.72,74.85c0-2.7.12-6.91-1.54-9.17A.62.62,0,0,0,64,66a16.06,16.06,0,0,0,1.18,4.21,36.84,36.84,0,0,1,1.08,4.71c0,.25.44.18.43-.06Z"/><path class="cls-1" d="M32.46,69.89a4.51,4.51,0,0,0,2.77.3c.86-.07,1.89-.53,1.89-1.56a1.68,1.68,0,0,0-1.74-1.46,5,5,0,0,0-2.92.57,1.26,1.26,0,0,0,0,2.14Z"/><path class="cls-1" d="M31.44,74.42c-.11,0,.48.28.48.35a1.43,1.43,0,0,0,1.79,1.36,2.69,2.69,0,0,1,2.32.59A1.29,1.29,0,0,0,37.78,75,4.17,4.17,0,0,0,33,73.41l1.79,1.36c-.12-1.94-2-3.48-3.84-2.33a1.07,1.07,0,0,0,.54,2Z"/><path class="cls-1" d="M31.31,83.5C36,80.77,42.24,86.44,46.75,83c.57-.44.51-1.66-.42-1.56-3.33.33-6-.22-9.28-.78a9.67,9.67,0,0,0-6.9.87,1.15,1.15,0,0,0,1.16,2Z"/><path class="cls-1" d="M34.75,45.08a9.79,9.79,0,0,0,2.58.45,4.44,4.44,0,0,0,2.4-.29.49.49,0,0,0,0-.84,4.44,4.44,0,0,0-2.4-.29,9.79,9.79,0,0,0-2.58.45.27.27,0,0,0,0,.51Z"/><path class="cls-1" d="M42.16,44.7c4.22,1.25,8.18,2.13,12.66,1.56.53-.07.79-.94.14-1-4.24-.66-8.5-.62-12.74-1-.25,0-.29.37-.06.43Z"/><path class="cls-1" d="M60.63,76.15a6.26,6.26,0,0,0-3,1.25l1.93,1.93a4.27,4.27,0,0,0,.71-3C60,75,59.14,74.81,58.2,73.92a25.77,25.77,0,0,1-5.68-8.5.84.84,0,0,0-1.45,0,9.18,9.18,0,0,0,.8,9.74c.47.6,1.22-.17,1-.75a10.09,10.09,0,0,1-.33-8.15H51.07a29.45,29.45,0,0,0,3.36,5.52,27.57,27.57,0,0,0,2.21,2.52c1.18,1.19,2.45,1.64.75,3.32-1.52,1.51,1.38,3.52,2.21,1.71a5.62,5.62,0,0,1,1.64-2.15c.53-.43-.07-1.12-.6-1Z"/><path class="cls-1" d="M53.06,77.63a4.19,4.19,0,0,0,2.19,2.8c1.06.55,2.65.77,3.47-.29A.72.72,0,0,0,58.41,79c-1.42-.3-3.15,0-3.73-1.77a.84.84,0,0,0-1.62.45Z"/><path class="cls-1" d="M61.28,73.87C60.15,75,59,76.53,59.46,78.25s2.26,2.95,3.89,1.92a1.38,1.38,0,0,0,0-2.38c-.16-.09-.7-.4-.27,0l-.48-.36c-.08-.33.53-1.06.8-1.38,1.22-1.46-.76-3.54-2.12-2.12Z"/><path class="cls-1" d="M61.61,75.39a4.51,4.51,0,0,1,1.09,3.3c-.17,1-.8,1.36-1.18,2.29a1.61,1.61,0,0,0,1.55,2,3.05,3.05,0,0,0,1.37-.36,1.56,1.56,0,0,0,.71-1.75c-.18-.51-.14-.82-.54-1.26a.84.84,0,0,0-1.4.37h1.32a3.72,3.72,0,0,0-1.46-.2l1.39,2.41A2.92,2.92,0,0,0,64.83,81s-.16-1-.12-.75c-.09-.69-.12-1.37-.24-2.06A8.58,8.58,0,0,0,63,74.32a.88.88,0,1,0-1.39,1.07Z"/><path class="cls-1" d="M48.52,80.55a1.31,1.31,0,0,1,1.52.22c.42.44,0,0-.06-.11a1.3,1.3,0,0,0-.48-.44.74.74,0,0,1,.3.28.76.76,0,0,1,.17.34q-.05.85,0,.5a1.28,1.28,0,0,0-.88-1.54c-1.44-.44-2.57,1.34-2.05,2.57a2.22,2.22,0,0,0,3.2,1.16,1.72,1.72,0,0,0-1.74-3Z"/><path class="cls-1" d="M63.39,67.46c-.28,0,.26.1,0,0l.19.08q.29.24.15.12c-.21-.2,0,0,.07.12-.17-.27.08.44,0,.13a2.27,2.27,0,0,0-.37-.92c-.22-.33.18.51.08.13a2,2,0,0,0-.62-1,2.18,2.18,0,0,0-2.52-.33,2.5,2.5,0,0,0-1,2.92,2.6,2.6,0,0,0,2,1.85,2.7,2.7,0,0,0,3.08-1.24,1.3,1.3,0,0,0,0-1.25,1.22,1.22,0,0,0-1.07-.61Z"/><path class="cls-1" d="M55.07,78.39l.63-.13a.8.8,0,0,0,0-1.53l-.63-.13a.92.92,0,1,0,0,1.79Z"/><path class="cls-1" d="M47.36,74.36l-.17.4a1.15,1.15,0,0,0,.68,1.66.94.94,0,0,0,.6,0,1.15,1.15,0,0,0,.68-1.66l-.17-.4a.93.93,0,0,0-1.6,0Z"/><path class="cls-1" d="M55.75,68.19a6.13,6.13,0,0,0-.44.81,4.26,4.26,0,0,0-.19,1,1.17,1.17,0,0,0,.73,1.08,1.2,1.2,0,0,0,1.3-.25,3.22,3.22,0,0,0,.6-.65,6.18,6.18,0,0,0,.3-.69,1.37,1.37,0,0,0-.48-1.81,1.34,1.34,0,0,0-1.81.48Z"/></g></g></svg>