<svg xmlns="http://www.w3.org/2000/svg" viewBox="0 0 167.51 143.51"><defs><style>.cls-1{fill:#fff;}</style></defs><title>icon-1</title><g id="Layer_2" data-name="Layer 2"><g id="Layer_3" data-name="Layer 3"><path class="cls-1" d="M37,46.2c11.18,11.52,26.81,17.62,42.77,18a85.8,85.8,0,0,0,26.13-3.73,103.77,103.77,0,0,0,12-4.41c4-1.72,8.78-3.39,11.75-6.59a1.06,1.06,0,0,0-1-1.76c-3.56.67-6.71,2.88-10,4.38a118.34,118.34,0,0,1-12.75,5,84.43,84.43,0,0,1-24.51,4.3c-16,.27-32-4.61-43.91-15.58a.32.32,0,0,0-.45.45Z"/><path class="cls-1" d="M110.71,48.87c2.46,1.67,5.38,1.59,8.27,1.48,3.68-.14,7.36-.25,11-.49l-2.55-3.35c-2.2,6.3-6.15,11-10.07,16.28-1.28,1.72,1.19,4,2.89,2.89,6.23-4,10-10.89,12.29-17.76A2.66,2.66,0,0,0,130,44.56c-3.93.29-7.85.72-11.77,1.15-2.77.3-5.49.68-7.61,2.61a.36.36,0,0,0,.07.55Z"/><path class="cls-1" d="M105,10.86c7.36-.21,14.21-3.48,21.55-3.52,3.81,0,8.56.93,10.87,4.35,2.11,3.13,1.93,7.85-1.59,9.8a2,2,0,0,0,1,3.73,28.74,28.74,0,0,1,20.55,9.06c3.14,3.38,5.89,7.9,6.16,12.6.28,5.06-3.54,10.37-9.07,8.47l-1.07,3.86c9.63,2.17,8.58,14.3,1.93,19.17-7.75,5.67-18,4-26.78,2.54a1.77,1.77,0,0,0-2,2.57c4.1,9.31-.62,22.05-10.73,25.13-10.32,3.14-21.26-4.51-23.14-14.75a2,2,0,0,0-3-1.21A41.59,41.59,0,0,1,58,97.77C53,96.5,47.81,94.25,44.56,90s-3.76-11.18,1.2-14.5c2.36-1.58,1-5.8-2-4.82-9.59,3.12-22.11,3.73-29.1-4.93-2.79-3.46-5.26-9.61-3.38-14,1.27-3,5.06-1.94,6.16-5,2.47-6.72-10.35-9.74-3.7-17.14,3-3.34,7.57-5.16,11.81-6.23,5.34-1.35,18.53-2.06,16.22,7.44l4.39.59c1.06-11.41,8.1-23.81,20-26.61C71.49,3.57,77,4.89,80.28,9.52c2.72,3.85,3.39,9.21.09,12.9l3.55,2.74c3-4,6.19-8.61,10.87-10.75,4.21-1.93,9.68-1.44,12.14,2.9,1.45,2.56,5.39.26,3.95-2.31C108,9.86,102,7.86,96.34,9,88.91,10.58,84.14,17,80,22.88c-1.47,2.09,1.87,4.68,3.55,2.74C92.15,15.74,83.26.95,71.3.06c-17-1.26-28.21,16.5-29.63,31.38-.24,2.53,3.79,3,4.39.59,1.41-5.71-1.92-11-7.29-13.19-5.87-2.35-13.35-.69-19,1.54-4.7,1.85-9.88,4.92-12,9.76-2.2,5.11.38,8.6,3.26,12.67.59.84,1.27,3.08,2.22,1.73-.34.49-2.64.58-3.29.91-2,1-2.81,2.88-3.41,5A20.58,20.58,0,0,0,9.09,66.56C16.65,79,32.53,80.2,45.13,75.8l-2-4.82C31.39,79.19,38.31,94.26,49,99.44,62.57,106,79.19,104,91.75,96.15l-3-1.21c2.5,12.56,16.87,21.54,29.16,16.66,11.5-4.56,16.72-18.87,11.62-29.88l-2,2.57c11.6,1.74,25.72,3,33.57-7.71,5.32-7.29,2.72-19.1-6.73-21.23a2,2,0,0,0-1.07,3.86,10.49,10.49,0,0,0,12-4.17c3.28-4.68,2.43-10.89.16-15.8-5.12-11-16.74-17.78-28.7-18l1,3.73c7-3.88,6.08-14.15-.06-18.43-10-6.94-22.42.57-32.79,2-1.47.2-1.59,2.44,0,2.39Z"/><path class="cls-1" d="M85.59,120.47a.14.14,0,0,0,0-.28.14.14,0,0,0,0,.28Z"/><path class="cls-1" d="M85.55,120.4a7.2,7.2,0,0,0-4.9-1.91l.78.32a1.93,1.93,0,0,0-1.5-.53,1.65,1.65,0,0,0-1.15,2.78,2,2,0,0,0,3.29-.41,3.08,3.08,0,0,0-.4-3.41,2.64,2.64,0,0,0-3.73,0,4.17,4.17,0,0,0-1,4.21,1.75,1.75,0,0,0,1.64,1.25,1.77,1.77,0,0,0,.86-.23,1.7,1.7,0,0,0,.84-1.47,5.7,5.7,0,0,0,.16-1.23q-1.75.29-1.53-.55a1.54,1.54,0,0,1,1.45-.89l.72,2.72a2.51,2.51,0,0,0,.68-1.47l-.54.95a3.89,3.89,0,0,1,4.3-.08,0,0,0,0,0,0-.06Z"/><path class="cls-1" d="M81,115.37c-1.71-.84-3.31.31-4,1.91a3.86,3.86,0,0,0,.05,3.25A3,3,0,0,0,80.73,122,5,5,0,0,0,84,116.16a4.42,4.42,0,0,0-6.62-2.56A5.24,5.24,0,0,0,74.92,117a3.4,3.4,0,0,0,.91,3.15,2.68,2.68,0,0,0,2.12.8,1.87,1.87,0,0,0,1.7-1.29c-.27.72.08-.1.12-.18.38-.79-.21.5.15-.2,0-.05.44-.94.36-1q-.29.67,0,0t0,0c-.14-.08.54-.46,0,0a2.84,2.84,0,0,1,.26-.25q-.44.33-.19.17t-.25.09q.43-.11-.21,0c.44,0-.36-.11-.49-.17q.29.18,0,0a.87.87,0,0,1-.35-.39c.27.42-.1-.52,0-.05-.14-.77,0-.17,0,0,0,.63.11-.41,0,.07s.28-.38,0,0,.38-.33,0,0,.31-.3,0,0q.47-.18.11-.08h.11l1.1.3c-.21-.1-.35-.28-.14,0-.25-.28,0,.21-.07-.13.11.35,0-.12,0-.19,0,.27,0-.27,0-.33a1.8,1.8,0,0,1,.87-1.36c.23-.09.34-.45.08-.58Z"/><path class="cls-1" d="M57.65,128.18c-1.29-1.47-3.44-.61-4.6.56a5.62,5.62,0,0,0-1,6.78,2.57,2.57,0,0,0,4,.52c3.66-3.93,2.33-9.95-1.9-12.85a2.87,2.87,0,0,0-2.92,0c-3.26,1.88-6.68,5-5.14,9.16,1.39,3.72,6.5,5.36,9,1.82s-.09-8.09-3.79-9.18a7.92,7.92,0,0,0-8.92,3.42c-4.28,7.46,8,14.82,12.13,7.1a7.18,7.18,0,0,0-2.36-9.08c-4.06-2.61-7,.59-8.41,4.31a1.76,1.76,0,0,0,1.7,2.23,12.64,12.64,0,0,0,2.73-.52,15.7,15.7,0,0,0,1.44-.63,3.53,3.53,0,0,1-1.35-.14s.27.6.2.76c0,0,.26-.33.27-.33.15.21-.2-.29-.2-.23,0-.51-.37,0-.3-.16.16-.34.61-.25.87-.37a25.12,25.12,0,0,0,2.62-1.45c.54-.37,1.6-1.22,2.38-1.71H51.24c1.68,1.06,1.7,3.16.82,4.76l4-.52c-1.15-1.32.69-3.34,1.59-4.2a0,0,0,0,0,0,0Z"/><path class="cls-1" d="M20.53,129.32c-4.46-.06-6.52,4.22-6,8.2.23,1.59,2.24,2,3.42,1.39,5-2.52,7.26-9.19,2.9-13.49-4.11-4.05-9.82-1.84-12.24,2.78-2.19,4.18-2.77,11.46,2,14.18,5.75,3.29,10.58-3.55,12.13-8.26,1.77-5.39-.62-11.84-6.92-12.28s-10.21,5-11.93,10.48c-.79,2.53-1.47,5.33-.33,7.86,1.36,3,4.56,3.83,7.57,3,5.67-1.49,9.88-7.39,8.75-13.25-1.24-6.46-8.94-11.05-15-7.58-4.42,2.54-8,12.7-.89,14.31a2.68,2.68,0,0,0,3.24-1.84c.38-1.58-.2-4,1.07-5.2s3.42-.05,3.87,1.61a3.37,3.37,0,0,1-.79,3c-.31.39-1,.67-1.24,1.06l-.66.34,1.16,1.71c.06,0,.58-2.73.66-3A10.16,10.16,0,0,1,13,130.72c1.11-1.31,3.09-2.07,2.86.28a8,8,0,0,1-1.16,3,15.9,15.9,0,0,0-1.24,1.77l.75.18-.2-.53c.42-1.77-.65-4.11,1.06-5.69,1.28-1.18,2.5.1,2.57,1.51.09,1.64-1.34,3-2.51,4l3.89,1A4.43,4.43,0,0,1,21,131.09a1,1,0,0,0-.48-1.77Z"/></g></g></svg>