<svg xmlns="http://www.w3.org/2000/svg" viewBox="0 0 119.76 150.19"><defs><style>.cls-1{fill:#fff;}</style></defs><title>icon-6</title><g id="Layer_2" data-name="Layer 2"><g id="Layer_3" data-name="Layer 3"><path class="cls-1" d="M104.5,12c-1.84,10.1-1.28,21.19-1.6,31.45-.34,11.07-.19,22.12.18,33.19.36,10.75,2.1,21.42,2.68,32.17s1.22,21.74,3,32.42c.24,1.42,2.6,1.09,2.52-.34-.6-10.71-2.05-21.4-3.09-32.08s-.51-21.39-.94-32.17c-.42-10.41-.62-20.83-.91-31.24-.31-10.93.81-22.34-.31-33.19-.08-.81-1.39-1.17-1.56-.21Z"/><path class="cls-1" d="M113.58,12.69c-1.6,9.94-1.05,20.52-1.14,30.57-.09,10.79.16,21.54.62,32.32q.66,15.67,1.91,31.3c.84,10.62,2.38,20.84,4.22,31.3.05.3.53.22.52-.07-.28-10.45-.54-20.78-1.2-31.23S117.32,86,116.9,75.58s-.69-20.89-1-31.34.41-21.08-.85-31.35c-.09-.75-1.33-1.12-1.48-.2Z"/><path class="cls-1" d="M117.05,137.69a.13.13,0,0,0,0-.27.13.13,0,0,0,0,.27Z"/><path class="cls-1" d="M110.73,138.34a5.4,5.4,0,0,0,.26,1.14l.16-.61a1.73,1.73,0,0,0,.22,2.19,4.76,4.76,0,0,0,3.14,1.42,5,5,0,0,0,5.08-4.17,1.9,1.9,0,0,0-.84-2.08c-2.09-1.19-6-.39-5.66,2.65a1.34,1.34,0,0,0,2,1.14c.43-.25,1.3-.9,1.81-.62l-.84-2.08a2.11,2.11,0,0,1-2.08,1.88c-.9,0-1.76-1-2.69-.45l.76.1a2.45,2.45,0,0,1-.56-.73c-.19-.31-.79-.21-.74.2Z"/><path class="cls-1" d="M109.08,142.17c-.11-.12,0,.19,0,.32s0,.53,0,.73a5.12,5.12,0,0,0,1.13,3,4.89,4.89,0,0,0,5.11,1.3c5-1.4,5.28-7.84,2.91-11.65a2.89,2.89,0,0,0-5.25,2.21A20.42,20.42,0,0,1,114,142c0-.06,0-.17-.07.11.12-.32-.18.16-.07,0s-.44.11,0,0q-.46,0-.17,0t-.14,0l.19.07q.58.66.33.25a2.1,2.1,0,0,0-.13-.39,9.52,9.52,0,0,0-.66-1.65,2.69,2.69,0,0,0-3.78-1.14,1.84,1.84,0,0,0-.37,2.84Z"/><path class="cls-1" d="M105.57,14.74a15.05,15.05,0,0,1,3.11-.12,13.69,13.69,0,0,1,3.47.29l.36-2.68c-.65,0-1-.38-1.59-.56a9.29,9.29,0,0,0-1.3-.22,2.53,2.53,0,0,0-2.49.69,1.69,1.69,0,0,0-.26,2,2.58,2.58,0,0,0,2.46,1.43,4.76,4.76,0,0,0,1.59,0,15.49,15.49,0,0,1,1.59-.57,1.37,1.37,0,0,0,0-2.73,16.2,16.2,0,0,0-3.88.17,7.09,7.09,0,0,0-1.74.43c-.59.27-1.08.76-1.7,1s-.14,1,.37.89Z"/><path class="cls-1" d="M108.29.78c-1.47,2.31-1.93,5.27-2.43,7.92s-1.29,5.41-.63,8a1.83,1.83,0,0,0,3.49,0c.83-2.56.26-5.49.29-8.16s.34-5.22-.24-7.7a.27.27,0,0,0-.48-.06Z"/><path class="cls-1" d="M106.38,3.8a15.47,15.47,0,0,0,6.1-1l-1.75-1.75c-1.3,4.39-3.3,11.11-1.3,15.46.74,1.62,3,.93,3.47-.45.8-2.22.24-4.72.25-7.06,0-2.53.16-5.06.38-7.58A1.43,1.43,0,0,0,111.38.2a11.77,11.77,0,0,1-5.22,2c-1,.14-.68,1.62.22,1.65Z"/><path class="cls-1" d="M3.94,31c2.34.75,4.63.26,7,0a35.69,35.69,0,0,0,6.15-.88c3.29-1,5.73-3.08,5.91-6.63a2.6,2.6,0,0,0-2.58-2.58c-5.38.2-11.36,1.22-16.13,3.92C1.17,26.6-.58,30.49,3,32.87c1.42.95,3-.88,2.24-2.24-1.9-3.41,13.61-4.6,15.21-4.56l-2.58-2.58c-.2,1.8-5.15,2.17-6.38,2.37-2.7.44-5.6.52-7.95,2A1.71,1.71,0,0,0,3.94,31Z"/><path class="cls-1" d="M2.81,30.68C.77,38.16,1,46.83.67,54.55Q0,67.38,0,80.24c0,16.41.68,33.32,3.7,49.48.12.63,1.1.47,1.1-.15.08-16.42-.94-32.9-1.22-49.33-.13-7.9-.13-15.81,0-23.71.19-8.36,1.59-17.37.65-25.65a.75.75,0,0,0-1.47-.2Z"/><path class="cls-1" d="M21.8,23.24c-2.63,8.07-3,16.72-3.45,25.14q-.81,13.89-.54,27.82c.17,9,.76,17.9,1.69,26.81.83,8,1.13,17,4.37,24.42.55,1.27,2.26.46,2.36-.64.77-8.73-1.59-17.91-2.32-26.65q-1-12.42-1.31-24.91t.27-24.94c.4-8.9,1.78-17.86,1.14-26.76a1.13,1.13,0,0,0-2.21-.3Z"/><path class="cls-1" d="M5,130c4.53.79,9,1.39,13.62,1.84,2.57.25,5.43.21,6.66-2.43.44-1,.17-2.45-1.08-2.66-3.53-.6-7.43-1.05-10.36,1.37-.79.65.09,1.69.9,1.55,2.9-.51,5.36-1.38,8.06.39l-.37-2.84c-1.83,2.2-5.52,1.55-8.09,1.65-3.11.12-6.18.39-9.28.7-.23,0-.32.39-.06.43Z"/><path class="cls-1" d="M6.55,133.08a3,3,0,0,0,.52-2c0-1.84-2.93-1.83-2.85,0,.2,4.2,2.34,8.46,4.46,12,1.45,2.43,3.82,7,7.16,7.1s3.88-3.59,4.86-5.95c1.92-4.58,5.06-9.53,5.66-14.48a1.43,1.43,0,0,0-2.41-1c-1.66,2-2.36,4.4-3.36,6.84-.26.64-3.35,9.9-4.29,10.08-2.07.41-4.81-5.64-5.49-6.91-1.44-2.75-2.37-5.77-4-8.42L4.93,132.3l.93.78a.4.4,0,0,0,.69,0Z"/><path class="cls-1" d="M15.4,139.84c-2.18-1.62-4.41,4-.8,4.89a3.9,3.9,0,0,0,4.28-2.55,4.18,4.18,0,0,0-1.61-5c-3.93-2.42-6.17,4.32-3.8,6.86,2.72,2.91,6.48-1.3,4.65-4.23a2.71,2.71,0,0,0-4.58.11,3.33,3.33,0,0,0,.69,4.7,1.69,1.69,0,0,0,2.53-1.45A7.06,7.06,0,0,0,13,137.14c-.58-.25-1.35.48-.75,1a4.41,4.41,0,0,1,1.48,2.14,3.89,3.89,0,0,1-.28,2.49l2.47-1c1.49,1.12.18.19.29.41s.09-.24.05-.23c-.85.25-.49-.15-1-.28,0,0-.07-.12,0-.13s-.14.38-.15.38c-.19-.24.87-.2.86-.19.27-.13,0,.12.08-.1s0-.61.06-.84c.15-.62.4-.41-.21-.44a.5.5,0,0,1-.67,0,.19.19,0,0,1,.09.14c0,.29.27.44.12.76-.06.13-.34.33-.29.31s0,0,.06,0c-.06-.18-.15-.71.11-.81a.49.49,0,0,0,.12-.89Z"/><path class="cls-1" d="M16.11,141.56a23.87,23.87,0,0,0,.18-3.33.57.57,0,0,0-1.15,0,23.89,23.89,0,0,0,.18,3.33.4.4,0,0,0,.8,0Z"/><path class="cls-1" d="M17.83,142.32c.73-3,1.91-6.28,2-9.42,0-.58-.76-.61-1-.13-1.14,2.88-1.29,6.29-1.78,9.33-.08.49.65.72.77.21Z"/><path class="cls-1" d="M14.73,142a13.66,13.66,0,0,1-2-2,10,10,0,0,0-1.94-2.41c-1.23-.86-3.22.59-2.65,2a6.1,6.1,0,0,0,2.63,2.67,15.87,15.87,0,0,0,2.89,1.48c1,.39,1.82-1.11,1-1.77Z"/><path class="cls-1" d="M11.23,141.48a44.81,44.81,0,0,0-.73-4.79A9.51,9.51,0,0,0,9,132.47c-.35-.43-.94,0-1,.41-.16,1.56.64,3.06,1.19,4.48a41.73,41.73,0,0,0,1.89,4.14s.09,0,.08,0Z"/><path class="cls-1" d="M16.32,142.73c-.48-2.18-.26-4.31-.51-6.5a.67.67,0,0,0-1.3-.18c-.76,2.26-.19,4.81.53,7a.66.66,0,0,0,1.28-.35Z"/><path class="cls-1" d="M17.55,146.36a18,18,0,0,0,1.09-6.22c0-1.77.33-4.07-1.16-5.3a1.08,1.08,0,0,0-1.67.21c-.89,1.64,0,3.31.24,5,.35,2.07.49,4.17.81,6.25.06.38.57.29.68,0Z"/><path class="cls-1" d="M15.71,147.19c1.37-4.6,1.51-9.91-.78-14.22a1.2,1.2,0,0,0-2.22.6c.29,4.48,1.13,8.85,1.18,13.38a.93.93,0,0,0,1.82.25Z"/><path class="cls-1" d="M19,142.65a3.66,3.66,0,0,1-.57-1.26q-.06-.37,0-.1a3,3,0,0,0-.13-.75c-.08-.27-.19-.53-.27-.81-.44-1.66-3.13-1.79-3.49,0a4.56,4.56,0,0,0,.31,3.06,6.74,6.74,0,0,0,1.41,2c1.39,1.37,3.92-.43,2.78-2.14Z"/><path class="cls-1" d="M11.35,44l-.55.74c-.16.22.16.55.38.38l.74-.55a.42.42,0,1,0-.58-.58Z"/><path class="cls-1" d="M9.94,42.47c-.87-.37-2.35-.94-2.1-2.06l-2.16.88c3.44,2,8,2.35,11.91,2.24,2.36-.07,3.09-3.79.58-4.29a44,44,0,0,0-10.26-.86,2.54,2.54,0,0,0,0,5.08c1.78.05,3.54.06,5.32,0l-.68-5a13.82,13.82,0,0,1-6.83,1l2.71,2.71c0,.55.2-.28.19-.27a1.86,1.86,0,0,0,0-3.16c-2.37-1.46-5,0-5.51,2.71-.29,1.62.71,3.53,2.61,3.43a31.56,31.56,0,0,0,8.19-1.5c2.7-.9,2.34-4.93-.61-5-1.78,0-3.25,0-5.25,0v5.08a48.73,48.73,0,0,1,10,.07V39.16c-4,.43-7.6-.31-11.4-.61a1.49,1.49,0,0,0-.51,2.89c1.32.36,2.25,1.28,3.56,1.71.4.13.63-.52.23-.69Z"/><path class="cls-1" d="M7.48,32A12.53,12.53,0,0,0,6.19,34.8c-.44,1.05-.85,2.11-1.26,3.17-1,2.57,3.59,3.88,4.14,1.14a10.2,10.2,0,0,0,.16-3.52c-.14-1-1.54-2.07-2.4-1A11.14,11.14,0,0,0,4.94,38l4.21.57c-.1-1.13-.21-2.26-.34-3.39a12.37,12.37,0,0,0-.47-3A.48.48,0,0,0,7.48,32Z"/><path class="cls-1" d="M10.5,29.89l-.65,4.74c-.21,1.56-.65,3.12.33,4.49a1.81,1.81,0,0,0,3.08,0c1-1.37.54-2.93.33-4.49l-.65-4.74a1.27,1.27,0,0,0-2.44,0Z"/><path class="cls-1" d="M16.66,28.23A46.33,46.33,0,0,1,16,34.5c-.29,1.69-.93,3.37-.85,5.09A1.41,1.41,0,0,0,18,40c1.23-3.39.06-8.37-.65-11.82-.08-.37-.63-.27-.64.09Z"/><path class="cls-1" d="M18.77,28.89c-.14,2-.28,4-.23,6a.52.52,0,0,0,1,0c0-2-.1-4-.23-6a.28.28,0,0,0-.56,0Z"/><path class="cls-1" d="M7.14,43.56c0,28.36-1.11,57.06,1.4,85.33a.84.84,0,0,0,1.69,0c1.89-28.32.13-57-.46-85.33a1.31,1.31,0,0,0-2.63,0Z"/><path class="cls-1" d="M14.83,45.86C11,48.19,13.12,55.28,13.3,59c.38,7.91.6,15.82.76,23.74.32,15.85-.68,31.69-.4,47.52a1.13,1.13,0,0,0,2.25,0c1.5-13.73,1.06-27.78.7-41.58-.17-6.6-.45-13.2-.9-19.79Q15.34,63.4,14.88,58c-.32-3.72-1.53-8.26.33-11.73a.28.28,0,0,0-.38-.38Z"/><path class="cls-1" d="M25.72,33.2c-.22.9-1.16,1.6-1.67,2.34a5.43,5.43,0,0,0-.82,1.94,4.41,4.41,0,0,0,3.13,5.31c2.52.67,5-1.07,6-3.28a9.38,9.38,0,0,0,.28-7.3,3.49,3.49,0,0,0-5-2C24.79,31.5,23.11,34.93,23.2,38c.07,2.24,1,4.76,3.4,5.39,3,.8,5.16-1.57,5.39-4.33.3-3.75-5.4-5.18-7.08-1.92l2.63-1.45,2.76,1.14c.36.44.19,0,.07,0s.42.52,0,0,.21-.05,0,0v-.32q-.1.52,0,.14c.15-.51-.22.41,0-.06,0-.05.35-.6.17-.31s.37-.24,0-.05.48-.25.46-.24l-5.15-3a10.73,10.73,0,0,1-.19,2.64,8.34,8.34,0,0,0-.5,1.63c0-1.26,3.36-.47,3.26-.44a.45.45,0,0,1,.15.26q-.12-.48,0-.15c.07-.39.09-.8.14-1.19a4.3,4.3,0,0,0-.57-3,1.38,1.38,0,0,0-2.48.32Z"/><path class="cls-1" d="M27,40.64c-3.72,4.05-4.38,10-2.72,15.12,1.08,3.34,2.56,6.44,3.13,9.95.73,4.44,0,8.66-.15,13.09a1,1,0,0,0,1.92.52c2.36-5,2.09-10.79.83-16.09-.84-3.52-2.88-6.43-3.9-9.86-1.31-4.41.28-8.13,1.68-12.27a.47.47,0,0,0-.78-.46Z"/></g></g></svg>