<svg xmlns="http://www.w3.org/2000/svg" viewBox="0 0 43.96 45.74"><defs><style>.cls-1{fill:#fff;}</style></defs><title>icon-7</title><g id="Layer_2" data-name="Layer 2"><g id="Layer_3" data-name="Layer 3"><path class="cls-1" d="M14.6,9.2A46.66,46.66,0,0,0,18.4,4.3c.51-.68,1.69-3.14,2.79-2.68.49.21,1.06,1.61,1.4,2.07a28.42,28.42,0,0,0,4.31,4.19c1.75,1.56,3.49,3.15,5.32,4.61.88.7,2.14-.53,1.25-1.25-2.64-2.13-5.32-4.18-7.86-6.42C24,3.35,22.9.8,20.75,0a.61.61,0,0,0-.68.28c-1.89,2.9-4.52,5.31-6.29,8.28a.52.52,0,0,0,.81.62Z"/><path class="cls-1" d="M35,11a1.92,1.92,0,0,0-1.55-.24c-.48.1-1,.09-1.24.58a.4.4,0,0,0,.34.59c.29,0,.6-.16.87-.09a2.25,2.25,0,0,1,.34.2c.17.08.33.14.49.23A.74.74,0,0,0,35,11Z"/><path class="cls-1" d="M32.12,12c-.38,1.12-.56,2.05.31,3a2.91,2.91,0,0,0,3,.71,2.46,2.46,0,0,0,1.64-2.38,1.92,1.92,0,0,0-1.41-2.18c-.49-.11-1,.43-.7.91.43.63.54,1.41-.24,1.7s-2.16-.84-2.09-1.7c0-.32-.43-.34-.53-.07Z"/><path class="cls-1" d="M20.57,8.57c-1.41,1.7-2.49,3.69-3.78,5.49-1,1.35-1.59,1.17-3,.39A20.41,20.41,0,0,0,10.88,13c-.78-.29-1.17.87-.54,1.28a29.78,29.78,0,0,0,4.52,2.19c.61.26.91.45,1.51.18.92-.43,1.71-2.05,2.27-2.83a27,27,0,0,0,2.91-4.49c.26-.58-.48-1.33-1-.75Z"/><path class="cls-1" d="M11.05,12.41c-1.11.17-2.56,1.17-2.55,2.43,0,1.45,2.26,1.54,3.24,1.13a2.14,2.14,0,0,0,.75-3.34,2.45,2.45,0,0,0-3.72-.06,2.79,2.79,0,0,0-.05,3.94c1.54,1.42,3.63,0,4.06-1.74a3.16,3.16,0,0,0-2-3.85,3.08,3.08,0,0,0-3.88,1.92,3.06,3.06,0,0,0,2.89,3.84,2.43,2.43,0,0,0,2.44-2.27,2,2,0,0,0-2.43-2,1.46,1.46,0,0,0-.86,2.12c.42.62-.62-.36.23-.92a1.89,1.89,0,0,1,.7-.19l.06,0,0,0c.15.2,0-.13,0,0s0,.21,0,0a2.23,2.23,0,0,1-.06.28c0,.11-.13.09-.2.14s.18,0,.19,0-.19,0,.05,0c-.12,0,0,.07,0,0s0-.16,0,0,0,0,0,.2c0-.14-.07.32-.06.25q-.25.2,0,.09a.41.41,0,0,1,.4,0s0,0,0,0,0-.29,0-.3.22-.28.36-.27.28.19.23.32-.39.16-.51.17a3.62,3.62,0,0,1-.45,0c-.42,0-.09,0-.1.06a2.61,2.61,0,0,1,1.23-1.8c.15-.09,0-.29-.11-.26Z"/><path class="cls-1" d="M25.13,13a9.24,9.24,0,0,0-2.6,2.55c-.52.67-1.45,1.64-1.27,2.59s1.25,1.59,1.88,2.08a18.7,18.7,0,0,1,1.59,1.05c.27.26.34.61.67.87.79.62,1.92-.43,1.14-1.14-.43-.39-.38-.8-.91-1.14-.72-.46-2.29-.91-2.71-1.69-.77-1.44,1.82-3.58,2.59-4.78a.29.29,0,0,0-.39-.39Z"/><path class="cls-1" d="M26,21.82a30.29,30.29,0,0,1,2.15-2.34A13,13,0,0,1,31,17.63L30.5,17a16.94,16.94,0,0,1-2.22,2.56c-.79.67-1.88,1.18-2.34,2.14-.18.38.12,1,.61.79a4.89,4.89,0,0,0,2.08-2c.77-1,1.64-1.93,2.43-2.93a.39.39,0,0,0-.47-.62,9.86,9.86,0,0,0-4.78,4.77c0,.1.11.17.17.1Z"/><path class="cls-1" d="M27,20.92l2.66-2.3c.22-.19-.11-.53-.32-.32l-2.52,2.45c-.12.11.06.28.17.17Z"/><path class="cls-1" d="M26.76,11.42a1.76,1.76,0,0,0-2.65-.6A2.31,2.31,0,0,0,24,14.16a2.72,2.72,0,0,0,3.8-.05c.95-1,.82-3-.75-3.23-.5-.07-1.05.54-.56,1a.8.8,0,0,1,.06,1.27,1.53,1.53,0,0,1-1.68.1,1.09,1.09,0,0,1-.22-1.74,1.51,1.51,0,0,1,1.87.13.14.14,0,0,0,.23-.17Z"/><path class="cls-1" d="M14.48,21.54c2.23,2,4.25,4.11,6.62,6,1.21,1,2.67,2.68,4.36,2.13s3.64-2.45,5-3.68A25.49,25.49,0,0,0,35,20.54c.51-.84-.76-1.88-1.39-1.07a49,49,0,0,1-3.44,4.06c-1.31,1.34-3,3.26-4.8,4-1.43.57-3.72-1.86-4.94-2.72-1.84-1.31-3.85-2.24-5.77-3.43-.12-.07-.25.1-.15.19Z"/><path class="cls-1" d="M35.9,20.4l.2,0a.56.56,0,0,0,.4-.4,1.54,1.54,0,0,0-.13-1,1.48,1.48,0,0,0-.94-.64,2,2,0,0,0-2,.47,2.16,2.16,0,0,0,1.45,3.64,2.49,2.49,0,0,0,2.22-3.65,2.12,2.12,0,0,0-2.89-.92A6,6,0,0,0,32.48,20a1.57,1.57,0,0,0,0,1.59,3,3,0,0,0,4.07,1.12,3.34,3.34,0,0,0,1.48-4,2.11,2.11,0,0,0-2-1.5,3.07,3.07,0,0,0-3,2.18,2.65,2.65,0,0,0,.65,2.39,2.5,2.5,0,0,0,1.94.83,2.11,2.11,0,0,0,2.06-2.38,2,2,0,0,0-.79-1.37,2.22,2.22,0,0,0-1.83-.38l1.65.41a1,1,0,0,1,.29.9.8.8,0,0,1-.1.95.86.86,0,0,1-.43.51c.24-.15-.12.07-.19.06a2.09,2.09,0,0,0,.33-.09l-2.3-.94c.2.34-.11-.41,0-.06q0-.48,0-.24t0-.23a1.09,1.09,0,0,1,0,.17q-.07.21.08-.2-.13.2,0,0a.61.61,0,0,1,.27-.25c-.28.18.37,0,0,0-.12,0-.51.05,0,0-.31,0,.25.07.06,0s-.08,0,.13.06l-.19-.12.73,1.78c0-.06.15-.56.06-.34,0-.05.32-.48.19-.31l.19-.21a1,1,0,0,1-1.14,0q-.18-.25-.05-.05l-.06-.16c0,.25,0-.3,0,.12q0-.31,0-.08a.45.45,0,0,1,.16-.26c-.16.19.17-.18.32-.08h-.21q.22,0,.08,0t0,0c-.12-.07-.32-.07-.22,0s-.14.09-.14.15v0s.21.09.19.13.05,0,.14,0c-.09,0,.2,0,.07,0s.45.08.31.06l.19.05c-.07,0,0,0,.07.1a.59.59,0,0,0,.26.15c-.2-.11.05,0,.11,0Z"/><path class="cls-1" d="M18,42.86a0,0,0,0,0,0,0,0,0,0,0,0,0,0Z"/><path class="cls-1" d="M18.06,42.93c2.61-2.27,5.67-4.65,7.81-7.37,1.32-1.68-1.76-2.63-3-3.13-.7-.29-1.15.85-.51,1.21s1.95.64,2.18,1.46-1.41,2.15-2.05,2.81q-2.34,2.4-4.79,4.67c-.24.22.11.56.35.35Z"/><path class="cls-1" d="M20.34,36.09a2.7,2.7,0,0,0-.9.55c-.24.24-.47.5-.7.74s-.95.94-.85,1.5a.3.3,0,0,0,.22.22c.56.09,1.11-.5,1.49-.86s.5-.47.74-.71a2.67,2.67,0,0,0,.54-.91.4.4,0,0,0-.54-.54Z"/><path class="cls-1" d="M40.07,16.19l-.16-.07a.41.41,0,0,0-.41.11l-.14.14a.46.46,0,0,0-.07.54,9.25,9.25,0,0,0,2.49,2.46c1,.87,1,.59.08,1.6-.61.69-1.34,1.32-2,2-2.43,2.41-5.16,4.86-7.06,7.73a.77.77,0,0,0,1,1l.19-.13A.71.71,0,0,0,34.4,31c-.2-2.07-4.29-1.39-5.28-.17-1.9,2.34,1.74,5,3.77,5.3,1.73.28,4.54-1.64,3.66-3.56-1.07-2.31-4.31-3.69-6.06-1.4-.22.28.19.59.45.45,1.27-.66,5.38.27,4,2.51-.44.73-2.54.79-3.19.55q-1.54-.42-.38-2.16-.46-2.38,1.87-2.18l.59,1.4c3.54-2.69,6.59-6.57,9.41-10,2-2.44-.66-4.47-3.3-4.75.48.05.47-.62.1-.77Z"/><path class="cls-1" d="M29.69,33.41l.23.95c0,.08.14,0,.12,0l-.23-.95c0-.08-.14,0-.12,0Z"/><path class="cls-1" d="M29.39,37.47c-2.45,2.2-4.88,4.41-7.28,6.67-.39.36.2,1,.58.58,2.34-2.31,4.64-4.66,6.93-7a.16.16,0,0,0-.23-.23Z"/><path class="cls-1" d="M18.19,42.54a5.47,5.47,0,0,0,2.17,1.91,5.94,5.94,0,0,0,2.83,1.28.58.58,0,0,0,.5-.87,5.62,5.62,0,0,0-2.51-1.63,5.82,5.82,0,0,0-2.92-.82.08.08,0,0,0-.07.12Z"/><path class="cls-1" d="M3.75,24.15a33.49,33.49,0,0,1-2.66,4c-.08.11.1.25.19.15a14.33,14.33,0,0,0,2.54-4.1s0-.09-.07,0Z"/><path class="cls-1" d="M2.57,26.63a8.37,8.37,0,0,1,2.18-2.86,3.25,3.25,0,0,1,2.13-1c.58.08,1.41.89,1.89,1.19.74.47,2.57,1.16,3,1.88q.68.14.17.62a2.79,2.79,0,0,1-.49.76c-.43.62-.93,1.22-1.39,1.81a.65.65,0,0,0,.1.79c1.2,1.06,2.31,2.23,3.54,3.25.61.5,1.15-.29.6-.87-1.1-1.16-2.78-2.18-3.78-3.3v.92c1-1.05,2-2.11,2.94-3.15.19-.22.47-.53.36-.82-.52-1.38-2-1.92-3.18-2.63S7.89,21.11,6.44,21c-2.49-.1-3.71,3.58-4.15,5.47,0,.15.2.26.28.11Z"/><path class="cls-1" d="M16.07,32.72a0,0,0,0,0,0-.08,0,0,0,0,0,0,.08Z"/><path class="cls-1" d="M16.12,32.63c-.37-.31-1-.72-1.47-.5a1,1,0,0,0-.37,1.25,2.57,2.57,0,0,0,2,1.21c.95.12,1.7-.94,1.91-1.74.51-1.94-1.58-4-3.48-3a2.4,2.4,0,0,0,.42,4.42,2.79,2.79,0,0,0,3.17-3.86,2.24,2.24,0,0,0-2.85-1.2,2.87,2.87,0,0,0-1.83,2.5,2.64,2.64,0,0,0,4.07,2.39c2.19-1.38.66-4.93-1.82-4.43s-2.26,3.83-.34,4.88A2.18,2.18,0,0,0,18.85,33a2.32,2.32,0,0,0-3-2.46A1.5,1.5,0,0,0,15.23,33a2.45,2.45,0,0,0,.62.46l.16.12a1,1,0,0,1-.29-1.23l.57-.57c.18-.12.5,0,.68,0s.13.11,0,0-.06-.07,0,0,.15.25.06.1,0,.12,0,0a2.14,2.14,0,0,1-.22.45.83.83,0,0,1-.7.2.45.45,0,0,1-.3-.61c.08-.3.15-.27.38-.41s.13.1,0,0l.31.24s0,.11,0,.13,0-.25,0-.07c0,0,.08-.1.06-.09-.32.06,0,.38-.63,0,0,0-.27-.23-.22-.23a.54.54,0,0,0,0,.2c-.1-.16.46.3.19.07,0,0,0,.12.05.15l0,0c-.09-.07.26.25.06,0,0,0,.11,0,.16.06.25.27-.19.76-.35.94l.63-.26c-.4.05-1.19.36-1.56.15s.13-.6.42-.52a2.15,2.15,0,0,1,.71.39c.11.08.26-.1.15-.19Z"/><path class="cls-1" d="M4.12,23a7.91,7.91,0,0,0-1.54,2.5c-.57,1-1.4,1.81-2,2.78C-.19,29.47-.25,30.13.8,31c3.84,3.32,7.91,6.2,12.07,9.14.78.55,1.54-.75.75-1.28A96,96,0,0,1,3.29,31.36a16.91,16.91,0,0,1-1.68-1.18c-.63-1,.68-2.13,1.18-2.86.81-1.19,1.77-2.65,1.72-4.12A.23.23,0,0,0,4.12,23Z"/></g></g></svg>