<svg xmlns="http://www.w3.org/2000/svg" viewBox="0 0 102.84 95.33"><defs><style>.cls-1{fill:#fff;}</style></defs><title>icon-5</title><g id="Layer_2" data-name="Layer 2"><g id="Layer_3" data-name="Layer 3"><path class="cls-1" d="M51.52,37.21c-4.32-4.43-9.84-1.67-12.14,3.49C37.16,45.69,37,53.5,40.45,58s9.35,4.26,13.48.95c5.69-4.55,5.71-12.32,4.36-18.83-.25-1.19-1.91-.81-2,.27-.34,4.1-.05,9-2,12.7s-7.39,6.84-10.75,2.81c-2-2.44-2-6.19-1.71-9.19.45-4.06,3.57-11.47,8.93-8.54a.62.62,0,0,0,.75-1Z"/><path class="cls-1" d="M44.47,11.47a45.58,45.58,0,0,0,6.44.12,1.41,1.41,0,0,0,0-2.82,30.16,30.16,0,0,0-8.79,1.09l1,3.55a13.07,13.07,0,0,1,4-.59c1.29,0,2.37.39,3.51-.39a1.62,1.62,0,0,0,.32-2.5c-1.75-2.23-6.53-.89-8.76-.08s-1.32,4.26,1,3.55c2.69-.82,5.44-1.26,8.18-1.87l-.75-2.72a46.31,46.31,0,0,0-6.22,2.08c-.31.14-.11.55.16.58Z"/><path class="cls-1" d="M52.82,83a13.64,13.64,0,0,0-4.88-1.31c-2.51-.16-2.53,3.82,0,3.92l5.66.23c2.82.12,2.9-4.27.08-4.39-2-.08-3.9-.17-5.9-.23v4.84l2.81-.12a2.52,2.52,0,0,0,1.22-4.66,6.07,6.07,0,0,0-4.93-.69c-2.53.9-2.27,4.86.65,4.85a3.73,3.73,0,0,1,1.73.17l1.26-4.66-2.89.28a2.49,2.49,0,0,0-2.42,2.42,2.52,2.52,0,0,0,2.51,2.42c2-.06,4.07-.15,6.07-.23V81.44l-6,.23V85.6a12.36,12.36,0,0,0,5-1.31.76.76,0,0,0,.08-1.3Z"/><path class="cls-1" d="M85.69,43a1.46,1.46,0,0,0-2.92,0c0,.28.4.51.6.25a.68.68,0,0,1,.69-.17,1.36,1.36,0,0,1,.55.2A.58.58,0,0,0,85.69,43Z"/><path class="cls-1" d="M84.23,42.13a16.76,16.76,0,0,0-4.17,10c-.26,3.16,4.53,3.06,4.87,0,.38-3.31-.45-7-1.38-10.2-.86-2.94-4.69-2.06-5,.68-.28,2.33-1.33,6,0,8a2,2,0,0,0,3.12.4c1.18-1.11,1.16-2.35,1.39-3.89s.41-3,.58-4.52l-5,.68a51.22,51.22,0,0,1,1.43,8.84l4.79-.65a12.55,12.55,0,0,1,1-8.07c.49-1-.81-2.24-1.67-1.28Z"/><path class="cls-1" d="M15.86,50.3a2,2,0,0,1,.69-1.7c1.34-1.17-1.33-3-1.88-1.09-.89,3.06-.18,6.73.55,9.76L19,55.69a11.46,11.46,0,0,1-1.1-4.84c0-2.82-4.05-2.71-4.31,0A4.46,4.46,0,0,0,15.12,55c1.35,1.1,3.66.35,3.1-1.58a8.8,8.8,0,0,1-.35-2.07H13.57A13.09,13.09,0,0,0,15.43,58c1.19,1.84,4.7.55,3.76-1.7-1.19-2.85-1.47-5.82-2.35-8.72L15,48.63a2,2,0,0,1,.72,1.69c0,.11.17.1.18,0Z"/><path class="cls-1" d="M76,19.28a6.25,6.25,0,0,0-1.66-2.71c-.79-.91-1.6-1.8-2.37-2.73a1.66,1.66,0,0,0-2-.26,1.74,1.74,0,0,0-.76,1.86c.39,2.84,3.07,5.19,5.38,6.64,1.62,1,4.18-.7,3.43-2.64-1.05-2.72-4.25-5.83-7.3-3.82-1,.63-1.47,2.28-.4,3.12a8.91,8.91,0,0,0,1,.8c.52.3.78.32,1.33.61a2.36,2.36,0,0,1,1.08,1.09l3.2-3.2a10.69,10.69,0,0,1-2.63-1.78c-.83-.78-1.49-1.68-2.36-2.43l-2,2.59c1.62,1.22,3.26,3.18,5.32,3.55a.58.58,0,0,0,.71-.71Z"/><path class="cls-1" d="M24.87,20.11c-2.32,2.65-4.54,5.37-6.79,8.08l3,2.31a24.38,24.38,0,0,1,4.64-5.15l-3.33-2.57C21.83,23.84,21,25,21.15,26.26a1.27,1.27,0,0,0,1.57,1.19c1.23-.2,2.13-1.29,3-2.11,2-1.9-.93-4.71-3-3a18.36,18.36,0,0,0-4.93,6.23,1.91,1.91,0,0,0,3.29,1.92c1.86-3,3.75-6,5.53-9,.62-1.06-.89-2.3-1.73-1.34Z"/><path class="cls-1" d="M27.85,79.2a44.3,44.3,0,0,1-2.59-4.62l-2,1.18a42.64,42.64,0,0,0,3.68,4.17l2.61-3.38a8.5,8.5,0,0,1-1.79-1.39,2.27,2.27,0,0,0-3-.18,2.24,2.24,0,0,0-.58,2.9,7.14,7.14,0,0,0,3.66,2.61,2.14,2.14,0,0,0,2.54-1.25,2.19,2.19,0,0,0-.88-2.69,42.14,42.14,0,0,0-4.82-2.69,1.22,1.22,0,0,0-1.47,1.9,43.85,43.85,0,0,1,3.09,4.33.88.88,0,0,0,1.53-.89Z"/><path class="cls-1" d="M77.94,75.32l.58-.34a2.32,2.32,0,0,0,.83-3.15l-.2-.27a2.41,2.41,0,0,0-3.22-.84,11.76,11.76,0,0,0-4.51,5.91,2.47,2.47,0,0,0,1.44,2.94,2.53,2.53,0,0,0,3.11-1l4.51-6.31A2.5,2.5,0,0,0,79.83,69a2.58,2.58,0,0,0-3.31.2A14.54,14.54,0,0,0,73.9,72c-.33.43-.65.87-.95,1.32a16.77,16.77,0,0,1-.78,1.52l1-.56.13,0,1.09.29-.2-.11.77.77L74.8,75l.29,1.08,0-.22-.29,1.08.13-.18-.76.76-.44.15c1.83.15,2.58-2.28,1.44-3.47a2.55,2.55,0,1,0-2.27,4.3c2,.44,2.72-1.25,3.65-2.62a10.34,10.34,0,0,1,3-2.75L76.13,69.7,71.67,76,76.22,78a11.82,11.82,0,0,1,2.56-3.54l-2.85.37c.46.35,1.45.87,2,.54Z"/><path class="cls-1" d="M71.64,79c-1.5-3.54-3.62-11.63-8.87-10.39a1.52,1.52,0,0,0-1.08,1.08A4.1,4.1,0,0,1,61,70.82a2.49,2.49,0,0,1-2.3,1.47A.92.92,0,0,0,57,71.8c-.86,3.15-2.24,6.14-3,9.3-.56,2.21,2.93,3.16,3.41.94.69-3.21.78-6.52,1.41-9.75L57,71.8c-.5,2.23,1.73,3.5,3.63,2.31,2.08-1.3,1.79-3.66,4.76-1.71,1.1.73,1.83,2.15,2.69,3.16,1.08,1.24,2.26,2.41,3.38,3.62.11.12.26,0,.21-.16Z"/><path class="cls-1" d="M46.57,84c2.29-4,.36-9.55-3-12.33-1.3-1.08-4-2.7-5.8-2-1.21.45-2.42,2.25-3.34,3.12a42.94,42.94,0,0,1-5.36,4.42c-1.42,1,0,3.3,1.34,2.29,3.12-2.32,6.29-4.51,9.22-7.07L38,72.78c5,1.29,6.6,6,6.39,10.59a1.18,1.18,0,0,0,2.19.59Z"/><path class="cls-1" d="M27.18,72.34A88.86,88.86,0,0,0,32.5,65a5.58,5.58,0,0,0,.18-5.17C30.52,55.56,23.13,56,19.41,57c-1.63.45-.91,2.71.68,2.47,2.59-.39,8.87-.5,10.51,2.2,1.79,2.94-2.38,7.88-3.8,10.45a.22.22,0,0,0,.38.22Z"/><path class="cls-1" d="M16.46,46.34a8,8,0,0,0,8.76-6.9c.32-1.7,1.05-3.43.25-5.15C24.88,33,23.47,32,22.54,31a14.26,14.26,0,0,0-3.09-3c-1.39-.83-2.64.77-2.06,2.06.95,2.07,5.82,5.14,4.87,7.72-.7,1.9-3.93,3.77-5.81,3.84a2.34,2.34,0,0,0,0,4.68Z"/><path class="cls-1" d="M26.35,22.48c1-.54,4,2.07,5.09,2.45a9.72,9.72,0,0,0,6.36.12c1.64-.53,3.87-1.61,4.77-3.17.66-1.14.47-2.85.6-4.12a25.78,25.78,0,0,0,.29-5.46,1.69,1.69,0,0,0-3.3-.45c-.8,2.1-.83,4.37-1.25,6.56-.4,2-1.91,2.56-3.85,2.92A8.48,8.48,0,0,1,30,20.88c-1.22-.51-2.06-1-3.38-.58a1.13,1.13,0,0,0-.81,1.06,1.29,1.29,0,0,0,.42,1.09.14.14,0,0,0,.16,0Z"/><path class="cls-1" d="M52.57,12.7A20.21,20.21,0,0,1,51.83,20a1.86,1.86,0,0,0,1.78,2.33,8.83,8.83,0,0,1,6,2,1.92,1.92,0,0,0,2.61-.69c1-1.75,2.88-3.33,4.33-4.66.6-.55,3.1-3.3,3.8-3.3l-1.7-1-.17-.53a1.81,1.81,0,0,0,2.27,1.73l.21-.07a2,2,0,0,0,1.37-2.41l-.06-.25a2,2,0,0,0-1.9-1.45c-1.88.07-2.68,1.46-3.85,2.8-2,2.24-4.22,5.13-6.89,6.49l2.32.3a11.27,11.27,0,0,0-8.28-2.64L55.39,21a15.3,15.3,0,0,0,.29-8.72c-.5-1.66-3.15-1.41-3.1.42Z"/><path class="cls-1" d="M78.29,21.94c-2,.12-3,1.8-4.43,3.14-2.09,2-4.19,4-6.25,6A1.58,1.58,0,0,0,67.37,33a4.93,4.93,0,0,1,.76,3.57c-.36,2.08,2.86,2.92,3.15.87a8.18,8.18,0,0,0-1.22-6l-.24,1.89c1.94-2.15,3.82-4.34,5.72-6.52,1.28-1.46,2.94-2.59,3-4.6a.22.22,0,0,0-.22-.22Z"/><path class="cls-1" d="M69.63,37.06a55.59,55.59,0,0,0,6.93,3c2.15.86,4.53,2.45,6.86,1.75a1.39,1.39,0,0,0,.6-2.29c-1.58-1.8-4.49-1.72-6.73-2.13a55.63,55.63,0,0,0-7.44-1.15.45.45,0,0,0-.22.82Z"/><path class="cls-1" d="M83.26,51.27c-4.44,1.52-8.52,1.25-13.08,1.62l1.07,1.86.17-.23L69.73,55q-.11-1-.73-.11a3.11,3.11,0,0,0-.49.78A1.25,1.25,0,0,0,69,57.32c2.23,1,4.39,1.63,5.9,3.65s1.64,4.19,2.21,6.51c.48,1.95,3.37,1.11,3-.82-.5-2.46-2.25-4.48-3.86-6.31s-3.68-4.18-6-5.17l.44,1.69c.73-1.32,2.78-2.89.33-4.05a1.28,1.28,0,0,0-1.69.44l-.17.23a1.25,1.25,0,0,0,.74,1.82c4.42,1.41,9.91.14,14.14-1.41,1.63-.6,1-3.22-.73-2.64Z"/><path class="cls-1" d="M27,4.08a2.58,2.58,0,0,0,3.44,2.71A2.55,2.55,0,0,0,30.15,2a2.7,2.7,0,0,0-2.41,0,3.64,3.64,0,0,0-1.45,2A2.79,2.79,0,0,0,27,6.87c1.08.83,2.58.25,3.49-.54A3.82,3.82,0,0,0,30.33.16a1.15,1.15,0,0,0-1.54.41,11.26,11.26,0,0,1-1.65,1.77c-.8.75.37,1.88,1.19,1.19a11.23,11.23,0,0,1,2-1.41L28.78,1.7a1.94,1.94,0,0,1-.15,1.72,1.56,1.56,0,0,1-1.08.85l1.14.15a.85.85,0,0,1-.5-1.05c.3-.91,1.5-.52,1.47.36s-1.47,1-1.81.23a.47.47,0,0,0-.86.11Z"/><path class="cls-1" d="M88.53,12a9.3,9.3,0,0,0,5.21-1.66c1.63-1.16,3.77-3.43,2.85-5.63a2.46,2.46,0,0,0-3-1.68c-1.6.46-2.33,2-3.27,3.2a8.79,8.79,0,0,1-2.78,2.32A1.87,1.87,0,0,0,88.53,12Z"/><path class="cls-1" d="M93.52,11A10.06,10.06,0,0,0,91,5c-1.12-1.24-3-2.39-4.22-.54-.84,1.33-.15,2.93.77,4,2.12,2.49,4.89,4.59,7.23,6.89.3.3.77-.17.46-.46-2.25-2.21-5.15-4.49-6.9-7.12-.37-.56-1-1.85-.11-1.7.43.07,1.06.88,1.35,1.2a7.69,7.69,0,0,1,1.85,4c.2,1.19,2.23.92,2.12-.29Z"/><path class="cls-1" d="M8,64.36a14.27,14.27,0,0,0-4.48,2.55C2.22,67.95.63,69.2.06,70.8a1.21,1.21,0,0,0,1.76,1.35C3,71.37,3.87,70,4.95,69s2.5-2,3.77-3c.77-.59.38-2.09-.72-1.71Z"/><path class="cls-1" d="M1.48,66.94c-.16-1.36,1,.26,1.13.36L3.8,68.78c.79,1,1.58,2,2.41,2.93,1.38,1.57,2.66,3.7,4.9,3.85a1.28,1.28,0,0,0,1.27-1.27c-.07-2.21-2.23-3.61-3.73-5-1.84-1.73-3.8-3.33-5.71-5a1.1,1.1,0,0,0-1.53,0A2.24,2.24,0,0,0,1,67.08c.14.22.56.15.52-.14Z"/><path class="cls-1" d="M89.14,62l1.4,2.23a1.32,1.32,0,0,0,2.06.27,2.68,2.68,0,0,0-2-4.49,1.65,1.65,0,0,0-1.64,1.64,1.69,1.69,0,0,0,1.64,1.64.62.62,0,0,1-.39-.09q.23.14-.05-.05c.09.11.19.21.28.3l.12.12q-.19-.26-.05,0-.11-.28,0,0a.43.43,0,0,1,0-.28l1.93-.78-2.1-1.53c-.66-.48-1.49.45-1.09,1.09Z"/><path class="cls-1" d="M93.56,80.57c1.36,4.47,3,10.2,6.45,13.52a1.7,1.7,0,0,0,2.65-2c-1-2.19-2.72-3.93-4.09-5.91A63.63,63.63,0,0,1,94.84,80a.71.71,0,0,0-1.29.54Z"/><path class="cls-1" d="M99,86.23a44.49,44.49,0,0,1-5.21,4.07A39.94,39.94,0,0,0,89,93.49a1.09,1.09,0,0,0,1,1.8c3.95-1.1,7.61-4.8,10.39-7.67A1,1,0,0,0,99,86.23Z"/></g></g></svg>