<svg xmlns="http://www.w3.org/2000/svg" viewBox="0 0 111.36 146.98"><defs><style>.cls-1{fill:#fff;}</style></defs><title>icon-2_1</title><g id="Layer_2" data-name="Layer 2"><g id="Layer_3" data-name="Layer 3"><path class="cls-1" d="M30.12,33.14,28.62,33c-.23,0-.22.38,0,.35l1.5-.16a0,0,0,0,0,0-.07Z"/><path class="cls-1" d="M28.61,36.91c2.61-1.38,7.27-2.54,9.95-.65,4,2.85.48,9.07-2.66,11-1.62,1-13,3.53-12-1.16.13-.62,4.4-2.47,5.08-2.92a33,33,0,0,0,3.72-3c1-.89-.06-2.48-1.27-2.17C27,39.11,13.92,43.19,19.26,49.9c4.12,5.17,14,4.11,18.82.57,3.94-2.93,7.19-10,3.57-14.4-3.16-3.85-9.84-1.9-13.18.6a.14.14,0,0,0,.14.24Z"/><path class="cls-1" d="M89.11,101.6c3.48-.4.15,3.64-1,4.61a17.45,17.45,0,0,1-6.07,3.34c-3.91,1.24-7.78.7-11.75.06-2.36-.38-4,2.67-1.71,4,6.94,4.2,16.74,1.67,22.33-3.75,2.2-2.13,5.09-5.73,3.58-9a3.42,3.42,0,0,0-5.12-1.46,1.15,1.15,0,0,0-.5,1.23l.11.82a.1.1,0,0,0,.1.08Z"/><path class="cls-1" d="M68.12,111.64c-2.1-5.27-4.59-10.26-6.07-15.77S59.48,84.5,57.29,79.05c-.56-1.39-2.71-.89-2.31.64,2.71,10.19,4.36,24.93,13.07,32,0,0,.07,0,.06,0Z"/><path class="cls-1" d="M91.74,100.35c-3.55-5.84-10.1-10.24-15.17-14.74C71.23,80.87,66,75.77,60,71.91c-1.43-.91-3,1.14-1.79,2.32,5.39,5.41,11.56,10.11,17.34,15.1,4.71,4.07,9.83,9.47,15.82,11.54a.36.36,0,0,0,.4-.52Z"/><path class="cls-1" d="M20.75,48.26c3.07,5.05,8.46,8.78,13,12.48,4.07,3.34,8.28,8.6,13.15,10.61A1,1,0,0,0,48,70.18C46.21,65.61,40.43,62.5,36.6,59.7c-5.22-3.81-10.27-8.12-15.75-11.53a.07.07,0,0,0-.1.1Z"/><path class="cls-1" d="M37.44,36.2c2.27,5.91,6.39,11.31,9.88,16.56,3.62,5.44,7,11.33,11.57,16.06,1.39,1.45,3.6-.39,2.71-2.09C58.59,61,54.09,56,50.16,50.86s-7.72-10.68-12.6-14.72c0,0-.15,0-.12.07Z"/><path class="cls-1" d="M59,68.64a4,4,0,0,1-4.29-1.37c-.15-.22-.51,0-.36.21,1,1.55,3.12,2.4,4.68,1.22a0,0,0,0,0,0-.06Z"/><path class="cls-1" d="M56.62,65.8h.65l.19-1.45c-1,.82-1.46,2.08-2.52,2.93a9.89,9.89,0,0,1-4.21,2c-2.79.58-5.4-.38-8.17-.24a1.7,1.7,0,0,0-1.46,2.54c4.5,6.62,17.79,2.3,19.35-4.89A2.08,2.08,0,0,0,59,64.15l-.88-.27a1,1,0,0,0-1,.25c-.61.68-1,.85-.77,1.69a.11.11,0,0,0,.21,0Z"/><path class="cls-1" d="M62.47,73.38c-1.75.71-3,2.28-4.7,3.06-2.08.94-4.35.65-6.52,1.2a1.78,1.78,0,0,0-.42,3.21c2.8,1.54,5.94.41,8.35-1.4,1.76-1.31,4.13-3.62,3.33-6.05a0,0,0,0,0,0,0Z"/><path class="cls-1" d="M47,73.57c0,.07.44.59.31.71a2.05,2.05,0,0,0-.32,2.45c.68,1.2,1.33,2.41,2.1,3.56l3.67-2.83a24.32,24.32,0,0,0-5-4.24,22.18,22.18,0,0,1-4-4A1.87,1.87,0,0,0,40.6,70c-1.11,5.24,5.77,7.78,8.8,10.75,2.16,2.11,5.33-1.09,3.3-3.3-.92-1-1.75-2.1-2.59-3.17A2,2,0,0,0,47.67,74c.17-.08-.43-.6-.44-.61a.18.18,0,0,0-.28.21Z"/><path class="cls-1" d="M58.78,67.15c-.73,1.35-.4,3.06-.36,4.55l3.63-1a16.57,16.57,0,0,1-3-5.39l-2.37,3.11a16.77,16.77,0,0,1,3.39.65,1.82,1.82,0,0,0,2-2.63c-1.14-2-3.2-2.75-5.41-2.93C55,63.39,54,65.19,54.28,66.63a10.29,10.29,0,0,0,1.87,4,8.27,8.27,0,0,0,3.69,2.93c1.61.68,3-1.53,2.2-2.86S60.58,67.77,59.21,67a.32.32,0,0,0-.43.11Z"/><path class="cls-1" d="M33.4,42.22a41.94,41.94,0,0,1,1-4.18H33.21a4.57,4.57,0,0,1-.71,5.05c-1,1.09-2.59,2-4,1.3l1.13,2a3.65,3.65,0,0,1,.92-2.93,5,5,0,0,1,3.07-1.29,1.38,1.38,0,0,0,0-2.64c-3.6-.66-7.92,2.68-8.45,6.26a2.37,2.37,0,0,0,1.59,2.8C30,49.79,33.34,47.87,35,45c1.33-2.34,1.76-6-.83-7.67a.64.64,0,0,0-.95.54A40.61,40.61,0,0,1,32.45,42c-.12.62.81.88.95.26Z"/><path class="cls-1" d="M34.61,39.32c.57-.51,2.23-.09,2.74.61,1.05,1.44-1,3.29-2,4.13-2.52,2.05-4.86,3.25-6,6.48-.81,2.26,2.61,3.56,3.79,1.6,2.4-4,10.16-6.63,7.77-12.56-1.12-2.78-6.05-4.23-6.58-.43a.18.18,0,0,0,.29.17Z"/><path class="cls-1" d="M28.86,46.79c2.09-1.31,4.44-3.42,5.32-5.78A.78.78,0,0,0,33,40.14c-2.07,1.41-3.57,4.21-4.34,6.54a.11.11,0,0,0,.15.12Z"/><path class="cls-1" d="M63.55,67.29a0,0,0,0,0,0-.07,0,0,0,0,0,0,.07Z"/><path class="cls-1" d="M63.67,67.13a23.41,23.41,0,0,1-6.52-15.6L53.69,53c5.27,4.38,8.23,11.86,4.88,18.34l5.23-.67a26.33,26.33,0,0,0-6.47-5.47,2.55,2.55,0,0,0-3.46,3.46,26.5,26.5,0,0,0,5.22,6.72,3.37,3.37,0,0,0,5.57-1.47c2.55-9-.27-19.07-8.51-24.09a2,2,0,0,0-3,2.29A29.9,29.9,0,0,0,63.54,67.29c.1.08.21-.08.13-.17Z"/><path class="cls-1" d="M65.2,73.21a4.75,4.75,0,0,1-.5-3.37l-3.87.5c5,4.38,8.72,9.39,10.46,15.89l3.28-4.31c-2.79-.29-5-2.45-6.71-4.47a35.89,35.89,0,0,1-2.45-3.27c-.35-.52-1.29-1.57-1.35-2.16-.1-.89,0-.47.49-1.17.94-1.36,2-2.3.67-4.07-1.49-2-4.31-1.72-6.14-.4-5.29,3.81-1.18,10.06,1.74,13.88,3.5,4.58,7.71,8.27,13.74,8.44a3.43,3.43,0,0,0,3.28-4.31c-2.57-7.35-7.25-14-14-17.95-3.38-2-5.46,4.31-1.24,4.59l2.5,2.2c0,.06.16,0,.13-.05Z"/><path class="cls-1" d="M60.16,70.24s.4.33.48.37.08.21.11.22,0,0,0,0a.91.91,0,0,1,.53-.56h.88a1,1,0,0,1-.71-.9,4.11,4.11,0,0,1,0-.72c-.08.68.16-.44,0-.08s.19-.34.24-.4c-.31.41.23-.15.31-.22a2.17,2.17,0,0,0,.33-2.59,2.24,2.24,0,0,0-2.42-1c-2,.31-3.09,2.55-3.06,4.38a5.17,5.17,0,0,0,2.53,4.41c1.6.81,4.24.44,4.17-1.83a2.69,2.69,0,0,0-3.07-2.41.83.83,0,0,0-.6.79L59.9,70a.18.18,0,0,0,.26.2Z"/><path class="cls-1" d="M60.93,77.41c1.26,2.5,3.55,4.52,5.43,6.56,1.73,1.87,3.49,4.72,6,5.5A1.24,1.24,0,0,0,73.86,88c-.88-2.48-3.76-4.12-5.71-5.78-2.1-1.79-4.25-4-6.79-5.2a.32.32,0,0,0-.43.43Z"/><path class="cls-1" d="M52.42,15.29c1.53-1.42,1.2-4,1.11-5.94a42.91,42.91,0,0,0-1.39-8,1.87,1.87,0,0,0-3.66.5,41.72,41.72,0,0,0,.67,8.12c.4,1.88.71,4.45,2.55,5.44a.62.62,0,0,0,.72-.09Z"/><path class="cls-1" d="M58.07,133.06l.94-1.27c2.95-2.59-3-6.44-4.07-2.37A61.8,61.8,0,0,0,53.4,138c-.31,2.61-.9,5.65.73,7.91a2.22,2.22,0,0,0,3.42.44c2-1.89,2-4.63,2.18-7.21a58,58,0,0,0,0-9.07l-4.16,1.72.88,1.27a.85.85,0,0,0,1.63,0Z"/><path class="cls-1" d="M20.26,76.09C13.74,75.7,7,76.15.91,78.56a1.3,1.3,0,0,0,.69,2.51C7.85,80,13.91,79.16,20.26,79.61c2.25.16,2.26-3.38,0-3.52Z"/><path class="cls-1" d="M90.72,71.86c2.57,1.6,5.93,1,8.85,1a66.93,66.93,0,0,0,10.25-1.06c2.47-.45,1.74-4.11-.57-4.21A68.5,68.5,0,0,0,98.18,68c-2.72.31-5.52.33-7.69,2.12a1.1,1.1,0,0,0,.22,1.71Z"/></g></g></svg>