<svg xmlns="http://www.w3.org/2000/svg" viewBox="0 0 49.61 53.21"><defs><style>.cls-1{fill:#fff;}</style></defs><title>icon-10</title><g id="Layer_2" data-name="Layer 2"><g id="Layer_1-2" data-name="Layer 1"><path class="cls-1" d="M22.13,4.3C9.2,5.81-1.16,16.47.1,29.93s13.72,24.7,27.45,23.13c12.67-1.45,23-11.95,22-25C48.54,14.83,36.77,0,22.72,0,21,0,20.91,2.25,22.34,2.83c11,4.43,21.54,10.85,24.06,23.47C48.76,38.11,40,48.4,28.65,50.56c-12.51,2.38-24.48-7.14-27-19.25C-1.26,17.82,9.74,7.39,22.29,5.5c.67-.1.52-1.28-.16-1.2Z"/><path class="cls-1" d="M23.53,27.66l-.09,1.47A1,1,0,0,0,25,30a1.47,1.47,0,0,0,.47-2.08,2.49,2.49,0,0,0-2-1.07c-2-.07-2.54,2.14-2.33,3.74A1.44,1.44,0,0,0,22.49,32a3.59,3.59,0,0,0,3.82-3.35A2.11,2.11,0,0,0,24,26.57a2.61,2.61,0,0,0-2.46,1.7,1.68,1.68,0,0,0,.77,1.9,1.71,1.71,0,0,0,2-.26q.19-.18-.09,0l-.12,0q.19-.05-.14,0a.92.92,0,0,1-.65-.3l-.5-1.22q0-.31,0,0,.13-.27,0,0t0,0a2.22,2.22,0,0,0-.21.24,1.69,1.69,0,0,1-.83.65l1.91.5a1.86,1.86,0,0,1-.28-.54c0-.06.05-.34,0-.29s-.1,0,0,0c-.14,0,.32.08.19.06.07,0,.05.12,0,0a.43.43,0,0,1-.09-.31q.13-.44,0-.17h1.73l-.73-1.25a.57.57,0,0,0-1.06.29Z"/><path class="cls-1" d="M23.52,29.85a23.15,23.15,0,0,0,2-4.13c.29-1-1-1.35-1.51-.64A22.24,22.24,0,0,0,22,29c-.47,1,1,1.88,1.51.88Z"/><path class="cls-1" d="M27.33,18.65a43.56,43.56,0,0,0,4.36-8.59c.19-.6-.76-1-1-.44-1.34,2.88-2.27,6-3.63,8.86-.09.2.18.37.3.18Z"/><path class="cls-1" d="M30.14,10.65c-2.5,8.23-6.26,15.94-8.91,24.08a.88.88,0,0,0,1.59.67c4.07-7.45,6.1-16.35,8-24.57a.35.35,0,0,0-.67-.19Z"/><path class="cls-1" d="M22.17,5.16a11.08,11.08,0,0,0,.1,3.14.44.44,0,0,0,.84,0,11.06,11.06,0,0,0,.1-3.14.52.52,0,0,0-1,0Z"/><path class="cls-1" d="M2.32,32.33q-.19,0-.06-.1A.53.53,0,0,0,2.39,32a3.46,3.46,0,0,1,.07-.64L1.36,32c1.61.57,3.66,1.2,5.27.45A.92.92,0,0,0,6.82,31a3.44,3.44,0,0,0-1-.65,7,7,0,0,0-1.39-.15,12.93,12.93,0,0,0-2.81,0,.91.91,0,0,0-.86,1.13,1.74,1.74,0,0,0,.47.95.7.7,0,0,0,.69.18,1.5,1.5,0,0,1,.36-.07.09.09,0,0,0,.06-.08Z"/><path class="cls-1" d="M24.17,51.1a7.13,7.13,0,0,0,1.11-4.28A4,4,0,0,0,22.8,43a1.24,1.24,0,0,0-1.5.85c-.76,2.51,1.52,5.15,2.57,7.26a.18.18,0,0,0,.3,0Z"/><path class="cls-1" d="M46.23,24.49a7.33,7.33,0,0,0-3.29-.36,5.68,5.68,0,0,0-3.31.88,1.15,1.15,0,0,0,.27,2.07,5.51,5.51,0,0,0,3.26.19,7.25,7.25,0,0,0,3.08-.9c.59-.43.82-1.51,0-1.88Z"/><path class="cls-1" d="M6.24,15.83l1.87,2.28a2,2,0,0,0,2.83,0,2,2,0,0,0,0-2.83L9,13.11a1.93,1.93,0,0,0-2.71,0,2,2,0,0,0,0,2.71Z"/><path class="cls-1" d="M8.87,45h0a2.1,2.1,0,0,0,2.36-1,2.41,2.41,0,0,0,0-2.41A2,2,0,0,0,8.65,41a2.45,2.45,0,0,0-1,1A2.16,2.16,0,0,0,8,44.49a2.26,2.26,0,0,0,.88.52Z"/><path class="cls-1" d="M43,41.83a5.33,5.33,0,0,0-3.07-2.42,10.48,10.48,0,0,0-3.06-.68,1.72,1.72,0,0,0-1.47,2.56,10.17,10.17,0,0,0,2.06,2.37,5.35,5.35,0,0,0,3.62,1.52A2.26,2.26,0,0,0,43,41.83Z"/><path class="cls-1" d="M36.29,10.5c-.33.21-.66.41-1,.64a3.08,3.08,0,0,0-.79,1c-.47.78.43,1.44,1.13,1.13a2.84,2.84,0,0,0,1-.58c.25-.26.48-.55.72-.82.62-.71-.18-1.94-1.06-1.37Z"/></g></g></svg>