<svg xmlns="http://www.w3.org/2000/svg" viewBox="0 0 84.55 83.11"><defs><style>.cls-1{fill:#fff;}</style></defs><title>icon-4</title><g id="Layer_2" data-name="Layer 2"><g id="Layer_3" data-name="Layer 3"><path class="cls-1" d="M7.79,4.27c-.5,9.87.7,19.93,1.72,29.73a214.56,214.56,0,0,0,4.61,27.9c.25,1.05,2.05.86,1.93-.26-1-9.38-2.38-18.69-3.77-28-1.44-9.75-2.22-19.73-4.22-29.39,0-.16-.27-.11-.28,0Z"/><path class="cls-1" d="M5.35,10.48c11.09-2.81,22.34-4.94,33.6-7,1.44-.26.81-2.38-.6-2.17A234.47,234.47,0,0,0,5,9.12a.7.7,0,0,0,.37,1.36Z"/><path class="cls-1" d="M28.6,5.6c8.27-1,16.9-1.51,24.9-3.94.87-.26.76-1.73-.22-1.66C44.89.64,36.67,3.25,28.56,5.32c-.15,0-.12.3,0,.28Z"/><path class="cls-1" d="M52.95,1.61c-.56,4.57.56,9.33,1.17,13.86L56,29.09C56.64,34,57.34,39,57.87,43.9a58.39,58.39,0,0,1,.63,7.32c0,2.39-.5,3.57.25,5.82a2.81,2.81,0,0,0,4.62,1.22c3.37-2.7,2.4-6.7,1.49-10.53-1.27-5.33-2.7-10.62-3.92-16L57.47,16.57c-1.14-5-1.78-10.48-4.18-15-.1-.18-.33-.07-.35.09Z"/><path class="cls-1" d="M16.31,61.32c6.58.55,13.59-.39,20.14-1,8.47-.79,16.88-1.58,25.3-2.79,1.41-.2,1.07-2.54-.34-2.49-8.85.36-17.58,1.32-26.38,2.33-6.2.72-12.85,1.3-18.85,3a.47.47,0,0,0,.12.92Z"/><path class="cls-1" d="M71.05,47.36l1.4-1.27c.67-.61-.39-1.67-1-1l-1.27,1.4a.61.61,0,0,0,.86.86Z"/><path class="cls-1" d="M6.23,15.59,3,17.64a11.15,11.15,0,0,0-2.83,2.1.57.57,0,0,0,.55.94A11,11,0,0,0,3.74,19l3.19-2.15c.74-.5.06-1.7-.71-1.21Z"/><path class="cls-1" d="M.35,19.33C1.94,23,4.27,26.38,6,30,8,34.08,9.45,38.32,11.2,42.48c.34.81,1.61.53,1.36-.37-2.2-7.73-6.48-17-12.13-22.84,0,0-.1,0-.08.06Z"/><path class="cls-1" d="M25.11,60.39c5.11,7,8.82,14.63,12.81,22.29.46.88,2,.27,1.63-.69-3.06-8.14-8.46-15.37-14.29-21.72-.07-.08-.21,0-.15.11Z"/><path class="cls-1" d="M41.48,81.93a167.22,167.22,0,0,0,17.52-9,.52.52,0,0,0-.52-.89,166.86,166.86,0,0,0-17.23,9.5.23.23,0,0,0,.24.4Z"/><path class="cls-1" d="M72.9,63.4a101,101,0,0,0,10.84-5.7.89.89,0,0,0-.9-1.54,101,101,0,0,0-10.51,6.27.56.56,0,0,0,.57,1Z"/><path class="cls-1" d="M79.48,49.41a175.32,175.32,0,0,1-13-18.78.42.42,0,0,0-.73.43A62.33,62.33,0,0,0,79.28,49.61c.14.13.31-.06.2-.2Z"/><path class="cls-1" d="M58.9,24.19a31,31,0,0,1-1.2-4.58l-1.31.55C59.64,26.68,63.34,33,66.84,39.38c2.63,4.8,5,12,9.84,14.95a.66.66,0,0,0,1-.57c-.21-5.68-5.36-11.22-8.3-15.86-3.89-6.16-7.62-12.46-11.75-18.46-.52-.75-1.72-.08-1.24.72a30.32,30.32,0,0,1,2,4.18c.13.32.65.21.54-.15Z"/><path class="cls-1" d="M78.25,54.07c1.58,1.33,1.91,3.22,2.75,5l2.59-2.59C82,55.26,81.46,52.9,81.24,51c-.17-1.51-2.53-2.72-3.32-.9-1.65,3.79.32,7.73,3.76,9.73a1.91,1.91,0,0,0,2.59-2.59c-1.31-2.09-3.51-2.82-5.7-3.67a.33.33,0,0,0-.32.55Z"/><path class="cls-1" d="M53.37,5.22a22.4,22.4,0,0,1,6.58-1A.61.61,0,0,0,60,3a15.32,15.32,0,0,0-6.8,1.75.28.28,0,0,0,.22.51Z"/><path class="cls-1" d="M58.61,4c3.55,11.15,6.21,22.76,10.12,33.75.35,1,2,.92,1.93-.26C69.77,25.89,65.27,13.8,60.23,3.35c-.44-.91-1.93-.27-1.63.69Z"/><path class="cls-1" d="M14.64,14.74c7.65-.62,15-2.39,22.6-3.31.35,0,.36-.6,0-.56-7.67.81-15.24.74-22.88,1.84-1.14.17-.88,2.12.27,2Z"/><path class="cls-1" d="M46.08,10.05l3.32-.74c.41-.09.24-.71-.17-.63l-3.34.65c-.47.09-.27.83.2.72Z"/><path class="cls-1" d="M13.35,21.11C24.81,19.11,36.42,17.38,48,16c.35,0,.37-.59,0-.56A289.15,289.15,0,0,0,13.2,20.57c-.36.08-.2.6.15.54Z"/><path class="cls-1" d="M16.77,23.47A56.29,56.29,0,0,1,28,22a.42.42,0,0,0,0-.84A27.27,27.27,0,0,0,16.5,22.48a.52.52,0,0,0,.27,1Z"/><path class="cls-1" d="M40,19.76l9.37-1.87c.41-.08.24-.73-.17-.63L39.9,19.4c-.24.05-.14.41.1.36Z"/><path class="cls-1" d="M22.63,27.17a151,151,0,0,0,28-4.9.28.28,0,0,0-.15-.54A150.3,150.3,0,0,1,22.63,26.8c-.24,0-.24.39,0,.38Z"/><path class="cls-1" d="M17.29,33.27c10.63.14,21.56-1,31.66-4.49a1.13,1.13,0,0,0-.6-2.17c-10.3,2.43-20.45,4.43-31.06,4.87a.89.89,0,0,0,0,1.78Z"/><path class="cls-1" d="M20,36.49c10.5-.76,23.13-1.15,32.89-5.32.51-.22.25-1.09-.28-1-4.87.37-9.69,2-14.47,2.94C32.09,34.28,26,35.21,20,35.93c-.35,0-.37.59,0,.56Z"/><path class="cls-1" d="M16.5,42.27c5.35,1.62,11.74.2,17.18-.56a80.5,80.5,0,0,0,17-3.87c.69-.26.66-1.44-.19-1.38-6.25.4-12.52,1.63-18.74,2.4-5,.63-10.72.45-15.42,2.46-.43.19-.26.83.12.94Z"/><path class="cls-1" d="M16.71,48.5a58.5,58.5,0,0,0,10.73-2.34c.42-.15.39-.86-.11-.83a59.09,59.09,0,0,0-10.89,2.17c-.66.17-.37,1.1.27,1Z"/><path class="cls-1" d="M29.29,46a.42.42,0,0,0,0-.84.42.42,0,0,0,0,.84Z"/><path class="cls-1" d="M19.95,51.22C25.09,50.61,30.17,49.7,35.3,49s10.44-.66,15.41-1.88c.44-.11.3-.7-.1-.74-5-.51-10.48.55-15.5,1.22a106.75,106.75,0,0,0-15.26,3c-.34.1-.29.69.09.64Z"/><path class="cls-1" d="M44.51,72.14c4.75.93,8.52-1.93,11.91-5A75.12,75.12,0,0,1,73.76,55.31c.39-.19.11-.79-.29-.69-11.07,3-18.37,12.74-29,16.79-.31.12-.4.65,0,.72Z"/><path class="cls-1" d="M43.28,67.1c1.05-.38,2.16-.69,3.18-1.14a10.19,10.19,0,0,0,2.64-1.9.71.71,0,0,0-.68-1.18,10.23,10.23,0,0,0-3,1.38c-.9.66-1.71,1.48-2.55,2.22a.38.38,0,0,0,.36.63Z"/><path class="cls-1" d="M37.39,65.31a85,85,0,0,0,9.22-3.25c2.6-1.1,5.69-2.14,7.69-4.18a.66.66,0,0,0-.64-1.1c-2.57.69-4.82,2.45-7.19,3.65a82.77,82.77,0,0,1-9.33,4c-.56.2-.34,1.08.25.9Z"/><path class="cls-1" d="M66.81,50.59a17.24,17.24,0,0,1,1.6-.69,3.09,3.09,0,0,0,1.33-1.21.71.71,0,0,0-.85-1.1,3.08,3.08,0,0,0-1.51,1,17.36,17.36,0,0,1-1.08,1.37.42.42,0,0,0,.51.66Z"/><path class="cls-1" d="M7.5,22a5.73,5.73,0,0,0,1.76-1.42c.4-.66-.26-1.26-.9-1.17a5.44,5.44,0,0,0-1.81,1c-1,.64,0,2.29.94,1.61Z"/><path class="cls-1" d="M59.29,13a.09.09,0,0,0,0-.19.09.09,0,0,0,0,.19Z"/><path class="cls-1" d="M57.29,9a4.59,4.59,0,0,0-3.65,1.64c-.38.46.24,1.1.66.66a3.55,3.55,0,0,1,3-1.09c.77.07.79-1.2,0-1.22Z"/><path class="cls-1" d="M59.22,16a38.05,38.05,0,0,0-4.78,2,.47.47,0,0,0,.36.86,38,38,0,0,0,4.74-2.11c.43-.2.12-1-.33-.77Z"/><path class="cls-1" d="M61.43,19.38a16.71,16.71,0,0,0-1.75.91A3.14,3.14,0,0,0,58.27,22a1,1,0,0,0,1,1.31,3.11,3.11,0,0,0,2-.88,15.62,15.62,0,0,0,1.4-1.46,1,1,0,0,0-1.19-1.55Z"/></g></g></svg>