<svg xmlns="http://www.w3.org/2000/svg" viewBox="0 0 74.74 95.69"><defs><style>.cls-1{fill:#fff;}</style></defs><title>icon-3</title><g id="Layer_2" data-name="Layer 2"><g id="Layer_3" data-name="Layer 3"><path class="cls-1" d="M3.42,91.58a.09.09,0,0,0,0-.17.09.09,0,0,0,0,.17Z"/><path class="cls-1" d="M68,82.82c-2.6,1.72-10.9,0-13.85-.22-3.92-.33-7.83-.66-11.76-.88-7.94-.43-15.87-.11-23.81-.38-3.74-.13-9.05-1.21-12.51.74-3.69,2.09-3.86,7.5-4.72,11.14C1.1,94.47,3,95,3.33,93.75,3.87,91.49,4,89,4.91,86.82c1.51-3.61,4.35-3.87,7.81-4,5.31-.15,10.66,0,16-.12q10.79-.17,21.56.51c3.92.24,7.85.58,11.78.59,1.8,0,4.79.56,6.3-.48.32-.22,0-.75-.31-.53Z"/><path class="cls-1" d="M68.21,81.52c-1,1.83-.47,3.9,0,5.82.52,2.13,1.16,4.59,2.66,6.23s4.42-.08,3.79-2.21c-.56-1.9-1.89-3.52-2.67-5.34-.69-1.61-1-3.41-2.33-4.69a.92.92,0,0,0-1.44.19Z"/><path class="cls-1" d="M45.4,31a42.64,42.64,0,0,1,8,.48c3.23.53,3.21,1,3.19,4.1,0,4.8-.29,9.68.12,14.46a1.32,1.32,0,0,0,2.64,0c.27-6.23-.41-12.58-.71-18.8a1,1,0,0,0-1-1,56.83,56.83,0,0,0-12.19.5c-.18,0-.19.29,0,.28Z"/><path class="cls-1" d="M44.78,32.18C43.35,41.12,45.1,50.5,47,59.24c.21.94,1.82.76,1.71-.23-.95-8.79-.52-17.76-1.64-26.51-.15-1.17-2.08-1.76-2.31-.31Z"/><path class="cls-1" d="M52.45,60.44c1,.4,2.68.76,3.41,1.57a1.21,1.21,0,0,0,2-.53c.94-2.77,1.28-7.59-1.1-9.77a1.1,1.1,0,0,0-1.85.77c-.09,1.79.77,3.64.84,5.47,0,.58.12,2-.25,2.27-.55.35-2.35,0-3,0a.09.09,0,0,0,0,.19Z"/><path class="cls-1" d="M54.87,57.77c.48,1.1-1,2.18-1.92,2.37a.33.33,0,0,0,0,.64,2.4,2.4,0,0,0,2.53-.95,2.35,2.35,0,0,0,.2-2.53c-.3-.55-1-.07-.81.48Z"/><path class="cls-1" d="M56.33,48.13a27.11,27.11,0,0,0-.61,12.63l2-2a44.84,44.84,0,0,0-9.41,0c-1.68.12-1.71,2.71,0,2.64a66.28,66.28,0,0,1,9,.62,1.68,1.68,0,0,0,1.6-2.11,23.88,23.88,0,0,1-.41-11.14,1.13,1.13,0,0,0-2.18-.6Z"/><path class="cls-1" d="M43.85,30.23a64.47,64.47,0,0,0,6.41,1.18c2.42.31,4.95,1.09,7.38.93a1.74,1.74,0,0,0,1.65-2.16,20,20,0,0,1-.39-3.85,4,4,0,0,0-.14-1.54,1.75,1.75,0,0,0-1.41-1.21c-1.35-.21-2.91.94-4.2,1.25a16.15,16.15,0,0,1-8.44-.3.61.61,0,0,0-.32,1.18,20.25,20.25,0,0,0,8.49.75c.82-.11,3.11-1.08,3.58-.82,1.44.79-.08,3.52-.46,4.53L58.1,29c-4.28-1.26-10-.36-14.25.74a.26.26,0,0,0,0,.5Z"/><path class="cls-1" d="M43.8,25.42a3.76,3.76,0,0,0,.12,3.88.52.52,0,1,0,.82-.63,3,3,0,0,1-.46-3c.11-.28-.34-.46-.48-.2Z"/><path class="cls-1" d="M47.92,30.58h.5a.09.09,0,0,0,0-.17h-.5a.09.09,0,0,0,0,.17Z"/><path class="cls-1" d="M45.58,38c-1.07-2-3.53-1.93-5.56-2-2.36-.13-5.17-.3-7.32.8A1.41,1.41,0,0,0,33,39.3c2.24.47,4.68-.05,7,.1,2,.13,3.74.82,5.44-.51a.75.75,0,0,0,.12-.9Z"/><path class="cls-1" d="M43.91,40.62a116,116,0,0,0-17,.17c-.64,0-.88,1.1-.16,1.2a118,118,0,0,0,17.16,1.51,1.44,1.44,0,0,0,0-2.88Z"/><path class="cls-1" d="M26.61,39.13C17,37.35,8.08,43.53,7.79,53.69c-.14,5,2,9.82,5,13.67s8.45,9.72,13.69,9.44a2.47,2.47,0,0,0,2.35-3.09C27.67,70.36,25,69.18,22.41,67a21.68,21.68,0,0,1-6.81-8.83c-3.28-8.85,3.23-14.78,11-17.6.62-.23.78-1.28,0-1.43Z"/><path class="cls-1" d="M31.75,35.94c-2.5-1.89-6.77-.65-9.26.62-1.64.84-1,3,.47,3.6.43.16.78.45,1.18.62-.18-.07-.43.26.13-.15l1.93,2.5a3.1,3.1,0,0,1,2.21-.81.79.79,0,0,0,.21-1.54,8.93,8.93,0,0,0-3.54-.36c-1.72,0-2.26,2.82-.42,3.13a2.89,2.89,0,0,0,3.55-3.1C28.08,38.09,26,37,24,36.36l.47,3.6A8.7,8.7,0,0,1,28,38.75a28.93,28.93,0,0,0,3.46-.2,1.45,1.45,0,0,0,.34-2.62Z"/><path class="cls-1" d="M39.42,37.71a.22.22,0,0,0,0-.44.22.22,0,0,0,0,.44Z"/><path class="cls-1" d="M42.91,27c-3.66.14-7.3.38-11,.66-2.78.21-5.89-.16-8.28,1.39-.27.17-.35.68,0,.83,2.61,1.12,5.5.3,8.28,0,3.66-.33,7.31-.7,11-1.17,1.08-.14,1.15-1.79,0-1.74Z"/><path class="cls-1" d="M36.87,29.11c1.35.53,2.71,1.14,4.1,1.56l.32-2.39-2.87,0a1.18,1.18,0,0,0,0,2.35l2.87,0a1.22,1.22,0,0,0,0-2.44c-1.45,0-2.91.21-4.35.32a.26.26,0,0,0-.07.51Z"/><path class="cls-1" d="M26.29,29.14a2.16,2.16,0,0,0-2.58-.26.71.71,0,0,0,.36,1.32.37.37,0,0,1,.2,0c.17.07.08.13.05,0A1.19,1.19,0,0,0,26,31a1.18,1.18,0,0,0,.24-1.85Z"/><path class="cls-1" d="M23.7,30.66c-3.16,2.29-6.92,5.07-8.89,8.49-.44.76.62,1.62,1.23,1,1.37-1.49,2.4-3.24,3.7-4.8A36.26,36.26,0,0,1,24,31.07c.22-.19-.08-.59-.32-.41Z"/><path class="cls-1" d="M21.93,28.74A38.89,38.89,0,0,0,10.24,44.07c-.76,1.9,1.82,2.77,3.06,1.78a42.63,42.63,0,0,0,6.3-6.62,55.91,55.91,0,0,0,5.54-7.28c1.06-1.88-1.23-4.71-3.21-3.21Z"/><path class="cls-1" d="M31.42,34.58a.09.09,0,0,0,0-.17.09.09,0,0,0,0,.17Z"/><path class="cls-1" d="M10.11,72.66c3.85,1,8.32.27,12.3.66,3,.29,3-4.57,0-4.68-3.92-.14-9.24-.17-12.53,2.27a1,1,0,0,0,.23,1.75Z"/><path class="cls-1" d="M11.28,71.23c-.46.22-1.32.41-1.63.83A6.09,6.09,0,0,0,9.24,74c-.31,1.46-1,3-1,4.47a.57.57,0,0,0,1.06.29,7.41,7.41,0,0,0,.9-3.32c.09-.67.07-1.39.2-2.06.18-.91.44-1,1.23-1.54a.35.35,0,0,0-.35-.6Z"/><path class="cls-1" d="M11.2,70.78a34.81,34.81,0,0,0-3,3.89c-.88,1.4-2.14,2.87-2.5,4.49a1.32,1.32,0,0,0,2.19,1.27C9,79.2,9.51,77.36,10.17,75.83a35,35,0,0,0,1.54-4.76c.08-.28-.31-.54-.51-.3Z"/><path class="cls-1" d="M18.19,73.5a22,22,0,0,1,5-.73c1.55,0,3.14.43,4.67.24l-1-.42c.68.77.42,2.46.46,3.44l.1,3a.52.52,0,0,0,1,0l0-3c0-1-.29-2.67.36-3.44a1.44,1.44,0,0,0-.63-2.37c-3-1.16-7.68.15-10.63,1.18a1.09,1.09,0,0,0,.58,2.1Z"/><path class="cls-1" d="M28,74c-1.29,2.52-3.39,7.91-.91,10.26A1.06,1.06,0,0,0,28.76,84c.67-1.39.23-2.72.19-4.2a14.63,14.63,0,0,1,.84-5.11A1,1,0,0,0,28,74Z"/><path class="cls-1" d="M26.9,74.65c13.15.45,26.36.41,39.52.33a1.35,1.35,0,0,0,0-2.7,288.7,288.7,0,0,0-39.52,1.5.44.44,0,0,0,0,.87Z"/><path class="cls-1" d="M10.66,78.1c-.15.14-.3.3-.47.42l.62-.08c-.67-.2-1.08.25-1.51.55L9,79.14c.16-.1.06,0,0,0l.19,0H9c-.15,0,.06,0,.34.07s.54.06.54.16v2.44c0-.58.89-1.22,1.34-1.91s.79-1.19,1.23-1.78a1.18,1.18,0,0,0-.34-1.52,1.23,1.23,0,0,0-1.56.09,27.28,27.28,0,0,0-3.37,2.68,1.74,1.74,0,0,0,0,2.44,2.36,2.36,0,0,0,3.58-.23c.63-.8,1.32-2.3.22-3l.37.48c-.05-.26-.13-.51-.21-.77a.31.31,0,0,0-.51-.13Z"/><path class="cls-1" d="M9.35,77.93,6.43,79.64l1.36,3.23A19.66,19.66,0,0,0,13.48,77L9.14,75.18a7.45,7.45,0,0,1-1.71,3.14,2.49,2.49,0,0,0,3,3.89,23.07,23.07,0,0,0,8.28-6.75c1.14-1.54-1.05-3.51-2.56-2.56a21,21,0,0,0-5.85,5.78,2.32,2.32,0,0,0,2,3.47,8.08,8.08,0,0,0,7-4.6c1.27-2.64-2.32-6.09-4.4-3.4a23.79,23.79,0,0,1-3.1,3.37c-2.26,2,.63,5.51,3.16,4.09a31,31,0,0,0,5.52-3.95c2.48-2.2-1.08-5.53-3.57-3.57-1.34,1.06-2.82,1.93-4.17,3l4,2.35a20.71,20.71,0,0,0,.93-2.85c.37-1.61-1.1-3.47-2.86-2.86a16.23,16.23,0,0,1-3.34.79c-2.17.3-1.65,3.3,0,3.89a15.15,15.15,0,0,0,6.13.64c2-.08,5.13-.34,5.55,2.27.69-.9,1.49-1.81,2.17-2.71a35.49,35.49,0,0,1-9.44-1.29v4.6a22.8,22.8,0,0,1,9.05-1c2.38.2,2.89-2.73,1.7-4.23-1.88-2.36-4.52-1.12-6.88-2.24S15.92,71,13,70.5c-1.67-.29-3.88,1.13-3.1,3.09a7.46,7.46,0,0,0,1,2c.92,1.24,3.52,1.49,3.82-.5a7.27,7.27,0,0,0,.1-2.14l-2.52,2.52c1.91.23,3.47,2.62,5.13,3.54,1.32.73,4.89.35,5.61,1.22L24.86,76a27.29,27.29,0,0,0-10.43,1.34,2.41,2.41,0,0,0,0,4.6,27.81,27.81,0,0,0,10.82,1,2.3,2.3,0,0,0,2.23-2.71c-1.37-7.34-10.56-4-14.56-5.66V78.4a8.63,8.63,0,0,1,2.72-.11C15,77.13,14.21,76,13.54,74.8a25.51,25.51,0,0,0-1.37,3.36c-.82,2.45,2.32,3.81,4,2.35a10.3,10.3,0,0,1,3.2-2.18L17.43,73.7a31,31,0,0,0-5.62,3.82l3.68,3.69a20.36,20.36,0,0,1,2.81-2.65l-3.4-4.4a18.7,18.7,0,0,1-3.79,3.69l3.39,2.61A6.35,6.35,0,0,1,18,76.13L16.6,72.7a39.71,39.71,0,0,0-8.66,5.22l3.39,3.39a16.3,16.3,0,0,0,2.39-4.88c.8-2.63-2.93-4.06-4.34-1.83-1.26,2-2.71,3.86-4,5.84S8,84.36,8.6,81.81L10.4,79a.74.74,0,0,0-1-1Z"/><path class="cls-1" d="M26.77,82a6.9,6.9,0,0,1-1.71.51,6.16,6.16,0,0,1-1.84-.25c-1.34-.33-2.63,1.48-1.44,2.48a3.42,3.42,0,0,0,3.67.68A3.36,3.36,0,0,0,27.82,83c.12-.58-.4-1.3-1.05-1.05Z"/><path class="cls-1" d="M2.85,93.44c6.32,1.39,13.22,1.08,19.67,1.08,6.86,0,13.72-.46,20.58-.53s13.72.2,20.58.17c3.24,0,8,1.14,9.24-2.66.14-.44-.43-.94-.83-.64-1.71,1.26-5.45.41-7.43.41-2.94,0-5.88.14-8.82.22-6.21.15-12.41.3-18.62.23-11.13-.12-23.47-1.36-34.37,1.21a.26.26,0,0,0,0,.5Z"/><path class="cls-1" d="M70,89.1l.43-1.56-.47.61a2.22,2.22,0,0,0,1-1.62A7.12,7.12,0,0,0,71,84.31,1.93,1.93,0,0,0,68.62,83a2,2,0,0,0-1.34,2.36c.19,1.31.62,2.44,1.93,2.92l-.61-.47.86,1.39A.31.31,0,0,0,70,89.1Z"/><path class="cls-1" d="M70.67,86.38c-1.28-.86-3.14.65-4.26,1.27-1.62.9-3.58,1.61-4.71,3.11-.82,1.08.53,2.23,1.58,2a7.8,7.8,0,0,0,2.88-1.56c1-.65,2-1.28,2.91-2,.6-.43,3-2,1.61-2.92Z"/><path class="cls-1" d="M68,82.77c-3.38,2.07-6.83,4.07-10.12,6.28-1.3.87-.08,3,1.23,2.11,3.31-2.22,6.47-4.67,9.68-7,.79-.58.09-1.9-.79-1.36Z"/><path class="cls-1" d="M61.54,82.85C56.33,85.56,50.9,88,45.87,91.07c-1.09.66-.37,2.68.91,2.15a85.73,85.73,0,0,0,15.56-9,.79.79,0,0,0-.79-1.36Z"/><path class="cls-1" d="M52,84.33c-5.37,3-11.21,5-16.58,7.9a1.05,1.05,0,0,0,.81,1.91c5.87-1.56,11.47-5.25,16.53-8.53A.74.74,0,0,0,52,84.33Z"/><path class="cls-1" d="M41.88,83.08c-5,3.35-10.44,5.36-15.71,8.15a1.49,1.49,0,0,0,1.14,2.71c5.79-1.59,11.18-5.54,15.83-9.22.93-.73-.28-2.3-1.27-1.64Z"/><path class="cls-1" d="M29.78,85.35A42.4,42.4,0,0,1,22,90.3c-2.52,1.24-5.26,1.9-7.61,3.44A1.05,1.05,0,0,0,15,95.69c5.94-.22,11.91-5.19,16-9.11.83-.79-.38-1.92-1.23-1.23Z"/><path class="cls-1" d="M20.67,83.35a57.63,57.63,0,0,1-7.32,4.54c-2.33,1.21-5.21,2.18-7.07,4a1.72,1.72,0,0,0,1.2,2.9C13,94.44,18.39,88.76,21.94,85c.78-.82-.27-2.37-1.27-1.64Z"/><path class="cls-1" d="M10.17,86C8.47,87.24,6.79,88.5,5,89.63c-1.57,1-3.63,1.76-4.8,3.23-.58.74-.08,2.28,1.06,1.82,1.77-.71,3-2.3,4.44-3.55C7.4,89.68,9.18,88.37,10.91,87c.54-.43-.17-1.36-.74-1Z"/><path class="cls-1" d="M46.42,24.54a0,0,0,0,0,0-.09,0,0,0,0,0,0,.09Z"/><path class="cls-1" d="M48.58,24.47c.07-2.57-.62-4.75-1.05-7.26a58.7,58.7,0,0,1-.57-9.69A12.94,12.94,0,0,1,47,3.93c.79-2.25,2.76-2.23,4.84-1.84a48.65,48.65,0,0,0,6.06,1.26c1.76.12,1.75-2.62,0-2.74-4-.27-7.73-1.25-11.66,0a.69.69,0,0,0-.49.65c.07,4.18.23,8.35.19,12.53,0,3.77-.89,7.35-.31,11.09.27,1.71,2.89,1.22,2.93-.4Z"/><path class="cls-1" d="M57.87,1.07c-.9,7.8-1.84,17.27,0,25,.22.9,1.78,1,1.92,0,1.17-8.13-1.22-16.73-1-25,0-.57-.81-.54-.87,0Z"/></g></g></svg>