<svg xmlns="http://www.w3.org/2000/svg" viewBox="0 0 120.77 117.96"><defs><style>.cls-1{fill:#fff;}</style></defs><title>icon-9</title><g id="Layer_2" data-name="Layer 2"><g id="Layer_1-2" data-name="Layer 1"><path class="cls-1" d="M85.83,4.09C74.54.34,63.09-1.5,51.4,1.49S27.56,9.28,18.21,17.19C-.5,33-4.25,62.54,4.47,84.54c9.24,23.34,32.88,36.53,57.57,32.8,13.32-2,25.83-7.92,37.27-14.83,11.19-6.76,19.64-13.95,21.08-27.66C121.93,60.07,118.76,44.56,113,31c-5.07-11.84-13-27.43-27.45-28.75C82.67,2,81.36,6.6,84,7.77c10,4.38,16,14.68,20.68,24a86.81,86.81,0,0,1,8.94,32.83c.36,5.54.51,11.42-1.28,16.74-2.22,6.58-7.63,10.51-13.24,14.1-9.43,6-19.5,11.39-30.32,14.44-22.58,6.37-46.07-1.55-57.27-22.87C1.37,67.71,2.36,40,17.93,23.71,26.77,14.45,39.32,9.52,51.42,6.15,62.63,3,73.93,3.8,85.21,6.34a1.17,1.17,0,0,0,.62-2.25Z"/><path class="cls-1" d="M41.6,9l-.08-.3A1.21,1.21,0,0,0,40,7.87a3.56,3.56,0,0,0-2.48,2.25c-.17.52.51,1.11,1,.76a3.13,3.13,0,0,1,1.81-.65,1.22,1.22,0,0,0,1.16-.88l.06-.18a.14.14,0,0,0,0-.16Z"/><path class="cls-1" d="M20.15,24l-.67,0c-.52,0-.52.84,0,.81l.67,0a.36.36,0,0,0,0-.72Z"/><path class="cls-1" d="M47.32,40.75a58.5,58.5,0,0,0-14.4,6.83,1.27,1.27,0,0,0,0,2.16c2.29,1.64,3.47,1.76.42,3.56a22,22,0,0,0-3.32,2c-2.52,2.15-2.59,5.53-2.72,8.63-.1,2.51.34,5.07.2,7.56-.1,1.8.19,2.53-1.64,1.37s-.86-1.1-1.55-2.59c-1-2.24-1.56-3.07-4.19-3.32-2.27-.22-5.53,0-7.1,2-1.87,2.3-.43,3.76.69,5.95s3,6.59,1.46,8.83c-.83,1.21-2.47,1.37-3.5,2.45-2.42,2.52-1.38,5.8-.23,8.71.39,1,2.1,1,2-.27-.26-4.33-1.21-3.44,2.61-8.15.33-.4,1.21-.4,1.45-1,1-2.34.32-5.25-.35-7.64-.44-1.56-1.84-3.24-2.14-4.68l-.63-.83q1-4.25,5-3.65c5.29.88,2.44,5.22,6,6.88,4.69,2.2,4.84-3.58,4.83-6.35,0-2.35.06-4.68.28-7,.33-3.52.87-4.35,3.74-6.15,2-1.26,3.53-2.12,4.3-4.46a1.35,1.35,0,0,0-.61-1.5l-3.75-2.49v2.16a56.35,56.35,0,0,1,13.66-7.09c1.18-.42.7-2.3-.53-1.9Z"/><path class="cls-1" d="M48.9,41.67c-.52-1.8,1.06-4,2.72-4.58a.45.45,0,0,0-.12-.88,5.33,5.33,0,0,0-4.28,1.5,4.79,4.79,0,0,0-.92,4.67,1.35,1.35,0,0,0,2.6-.72Z"/><path class="cls-1" d="M52.82,35.38a0,0,0,0,0,0-.09,0,0,0,0,0,0,.09Z"/><path class="cls-1" d="M54.2,33.31c-2.8-.74-6.91-1.69-6.67-5.44a.76.76,0,0,0-1-.72L43.33,28l.74.57c0-1.58,0-3.16.06-4.75a.41.41,0,0,0-.4-.4A7.84,7.84,0,0,0,38,24.72c-.29.19,0,.65.27.47,1.19-.72,3.91-2.09,4.94-.2.36.66-.27,2.88-.34,3.56,0,.42.41.62.74.57L47,28.6l-.92-.92c-.76,4.74,4.46,5.85,8.1,6a.18.18,0,0,0,0-.35Z"/><path class="cls-1" d="M34.24,27.42c-5.74.18-10.81-5.93-16.5-2.42l1.42,1.83a18.64,18.64,0,0,0,3.18-4.65c.23-.6-.55-1.12-1.06-.81a17.7,17.7,0,0,0-3.78,3.81A1.17,1.17,0,0,0,18.92,27c4.81-2.62,10.3,1.92,15.41,1,.35-.06.27-.63-.08-.62Z"/><path class="cls-1" d="M55.27,34.2c1.16.47,6.42,2.61,3.89,4.31a2.6,2.6,0,0,1-3.23-.29c-1-1.25.51-2.9,1.76-3.09.5-.08.3-.89-.21-.78a3.29,3.29,0,0,0-2.37,3.94c.31,2,2.55,2.52,4.24,1.91a3.4,3.4,0,0,0,2-4.73c-1.06-2.32-3.74-3-6.07-2.57-.72.15-.55,1.07,0,1.3Z"/><path class="cls-1" d="M72,36.06a3.1,3.1,0,0,0-4.75.78,1,1,0,0,0,.34,1.29,5.24,5.24,0,0,0,2.57,1.1c.77.06,1-.89.57-1.38a5.42,5.42,0,0,0-2.42-1.44l.66,1.16c.2-.74,1.46-.92,2-.49.71.56,1.7-.36,1-1Z"/><path class="cls-1" d="M96.09,30.66a6.16,6.16,0,0,0-6.53.61,6.65,6.65,0,0,0-2.15,2.82c-.64,1.7.34,4.48-2,5.18-1.91.57-4.66-1-5.72,1.62-.77,1.87.78,3.37,2.53,3.48,1,.06,1-1.29.21-1.59q-1.18-2.09.81-1.68l1.45.07a7.17,7.17,0,0,0,1.65-.1,3.24,3.24,0,0,0,2.27-1.7c.85-1.66-.09-3.55.84-5.25C90.59,32,93.75,30.69,96,30.82c.09,0,.13-.13,0-.17Z"/><path class="cls-1" d="M68.49,74.21c-2.26-2.14-5.63-3.88-8.55-1.8s-1.39,4.06.4,6.08C65.2,84,65.71,90,66.75,96.9c.47,3.1,1.38,6.31,4.52,7.7a1.08,1.08,0,0,0,1.41-.37l0,0a1,1,0,0,0-.16-1.25c-.88-.9-4.13-3.14-3.95-4.4.08-.55-.7-.81-.87-.24-.7,2.47,2,4.49,3.36,6.09v-1.46q2.15-.21-.3-1.95a4.72,4.72,0,0,1-1.54-4.1c0-1.54.45-3.07.42-4.62A22,22,0,0,0,68.24,85a22.66,22.66,0,0,0-3.12-5.59c-.43-.57-3.28-3.42-3.23-3.57.75-2.09,4.87-1.63,6.42-1.29a.18.18,0,0,0,.17-.3Z"/><path class="cls-1" d="M75.37,90.16c-1.44-7.09,7.86-4.49,10.28-8.52,2-3.29-.34-9.19-1.08-12.53-.47-2.13-3.51-1.18-3.2.88.37,2.45,2.63,8.56.57,10.6C80.84,81.67,78.5,82,77.24,83A6.75,6.75,0,0,0,75,90.25a.18.18,0,0,0,.35-.1Z"/><path class="cls-1" d="M64.18,70.31c3.41-.71,6.77-1.19,8.09-4.93,1.07-3-.29-5.81-2.69-7.62v4A15.79,15.79,0,0,1,81,59.91L79.36,57C77.81,61.53,78.19,65,82.43,67.3c1.8,1,2,.83,1.36,2.73a12.74,12.74,0,0,0-.78,2.9c-.15,1.75.15,3.26,1.82,4.06a1.64,1.64,0,0,0,2.37-1c.68-2.46,2.21-6.63,1.5-9.17a4.78,4.78,0,0,0-2.89-3.06c-2.89-1.34-3.12-2.4-2-5.5a2.34,2.34,0,0,0-1.63-2.86,20.61,20.61,0,0,0-15,2.35c-1.86,1.08-1.19,3.48.55,4.19,2.39,1,.29,4.19-.58,5.24A11.44,11.44,0,0,1,64,69.9a.23.23,0,0,0,.17.41Z"/><path class="cls-1" d="M85.91,72.86c2,.8,3.58,1.32,5.76,1,1.63-.27,6-2.92,6.82-.5.45,1.28-1,2.51.15,4.28,2.95,4.49,14,1.34,17.69-.24,1.15-.49.45-2.12-.59-2.17a24,24,0,0,0-6,.58c-1.87.36-6.48,2.5-7.9.59-1.23-1.65.51-3.56-.87-5.17-1.07-1.24-2.57-.83-4-.84-4.45,0-7.37-.73-11.23,1.77a.41.41,0,0,0,.1.74Z"/><path class="cls-1" d="M82.72,41.72a2.37,2.37,0,0,0-4,.31c-1.15,2,.68,4.31,2.64,4.62V42.26c-1.62.61-3.91.12-5.61.06l-5.33-.17c-2.09-.07-2.35,2.91-.48,3.53l7.82,2.58c1.06.35,2.43.46,1.52,1.75a2.08,2.08,0,0,1-2.5,1c-1.31-.48-2.29,1.39-1.34,2.3,1.46,1.38,3.31,2.21,5.22,1.32.89-.42.49-1.6-.25-1.89-1.11-.44-2.13-.49-3-1.37l-1.34,2.3c3.36,1.29,7.41-1,7.09-4.87-.16-1.93-1.54-2.68-3.18-3.3-3-1.13-6-2.16-9.06-3.23l-.48,3.53,5.33.29c1.39.08,3.79-.24,5.07.37,3.33,1.6,4.88-3.87,1.15-4.24.47,0,.75,1,.86.17a.94.94,0,0,0-.12-.63Z"/><path class="cls-1" d="M82,55.16l2.59,1.36a.31.31,0,1,0,.24-.57l-2.69-1.11c-.19-.08-.32.23-.14.33Z"/><path class="cls-1" d="M88.13,54.45a4.05,4.05,0,0,0,2.33,0,1.07,1.07,0,0,0,.77-1c0-2.06-1.55-3.51-2.11-5.47-.8-2.78.11-4.84,2.35-6.58a1.17,1.17,0,0,0-.9-2.13c-2.81.64-4.35,3.43-4.56,6.16s1,7.43,3.64,8.93l-.48-1.19-1.07,1a.14.14,0,0,0,0,.25Z"/><path class="cls-1" d="M85.13,51.71a3.76,3.76,0,0,0-1.91,3.69c.06.65,1,3.37-.45,2.86a1.31,1.31,0,0,0-1.65,1.26c.14,2.78,3.55,2.86,5.16,1.21A4.19,4.19,0,0,0,87.21,57c-.19-.91-1.7-3.12-1-4s-.13-1.86-1-1.34Z"/><path class="cls-1" d="M90.77,51.58a5.84,5.84,0,0,0,.54-5.16,3.9,3.9,0,0,0-2.74-2.65,4.7,4.7,0,0,0-3.63.5,1.69,1.69,0,0,0,.4,3.05,6.28,6.28,0,0,1,1.42.76q-.19-.18.2.14a1.49,1.49,0,0,0,.49.31,8,8,0,0,0,1.06.36,1.6,1.6,0,0,1,1.13,2.2c-.24.71.76,1,1.15.48Z"/><path class="cls-1" d="M89.41,40.78c1.69,0,2.89,1.47,3.55,2.88.5,1.06,2.13.5,2.13-.58,0-3-3.56-4-5.75-2.55a.14.14,0,0,0,.07.25Z"/><path class="cls-1" d="M93.72,44.39c-.4,1.59-.77,3.16-.11,4.72a.63.63,0,0,0,1.09,0c.66-1.56.29-3.13-.11-4.72a.45.45,0,0,0-.87,0Z"/><path class="cls-1" d="M90.06,51.69a12.74,12.74,0,0,0-1.36-.14,5.08,5.08,0,0,0-1.31-.13.41.41,0,0,0-.1.74,5.27,5.27,0,0,1,1,.4,2.2,2.2,0,0,1,.51.78,1.12,1.12,0,1,0,1.27-1.65Z"/><path class="cls-1" d="M84.55,60.28a9.79,9.79,0,0,0,1.67,1,5.22,5.22,0,0,0,1.87.53.68.68,0,0,0,.48-1.15,6.89,6.89,0,0,0-3.67-1.22.45.45,0,0,0-.35.82Z"/><path class="cls-1" d="M95.46,34.49a24.93,24.93,0,0,0,4.58-1.3c1.43-.63,3.39-1.16,4.53-2.25,2.7-2.6-1.25-6.66-3.83-4-1.56,1.64,0,4.63,2.28,3.92l-.23,0-1.21-.33-.15-.12-.7-1.7,0,.36.32-1.19a8.78,8.78,0,0,1-1.67,1.14c-.56.4-1.13.8-1.68,1.21a23.87,23.87,0,0,0-2.95,2.93.77.77,0,0,0,.74,1.28Z"/><path class="cls-1" d="M15.7,29.57a21.28,21.28,0,0,1-4,6.78l2,1.52a56.78,56.78,0,0,0,5.64-12.43c.25-.8-.9-1.54-1.47-.85C13.28,30.17,10,36.92,7,43.42a1.59,1.59,0,0,0,1.36,2.36c2.5-.16,3.67-1.36,4.64-3.65,1.92-4.51,2.42-9.65,3.92-14.3.58-1.8-2.11-2.45-2.78-.77a103.65,103.65,0,0,0-7.2,31.72,1.42,1.42,0,0,0,2.77.38c1.33-5.88,2.42-11.81,3.59-17.72.71-3.6,2.54-8.16.28-11.45a1.74,1.74,0,0,0-2.69-.35c-4.2,3.85-4.05,12-4.68,17.22-.33,2.74-2.8,13.52,1.42,14.54a1.3,1.3,0,0,0,1.57-.89l.09-.33a1.12,1.12,0,0,0-.77-1.36l-.26-.05a1,1,0,0,0-1.12,1.45l.12.23.66-1.63q1.24,1.89,1.23.55a32.32,32.32,0,0,0,.09-3.85c.08-2.58.21-5.13.49-7.69.48-4.44.42-12.19,3.58-15.75H10.88c2.23,2.63-.24,11.76-.77,14.39A112.63,112.63,0,0,1,7,58.4l2.77.38c1.14-10.69,4.74-20.56,7.16-31l-2.78-.77c-.44,2.55-2.66,15.48-5.78,15.58L9.71,45c2.86-6.62,6.55-12.8,9.5-19.36L17.6,25c-1.54,4.19-3.93,7.78-6.11,11.64a1.25,1.25,0,0,0,2.16,1.26,22,22,0,0,0,2.74-8.1.36.36,0,0,0-.69-.19Z"/><path class="cls-1" d="M11.32,44.31v-.4a.45.45,0,0,0-.32-.43l-.41-.11a.6.6,0,0,0-.71.41c-3.72,9.14-3.66,20.74-4,30.48a1.7,1.7,0,0,0,2.88,1.19C11,72.9,10.88,70.17,10,67a1,1,0,0,0-1.85.25c-.18,2.12-.3,4-1.73,5.77l2.88,1.19c0-5.08.18-10.15.57-15.21.2-2.53.51-5,.75-7.57.17-1.73,1.21-5.48.13-7a.32.32,0,0,0,.59-.16Z"/><path class="cls-1" d="M5.69,50.29C2,58.59,2.83,67.78,6.5,75.93c.9,2,3.88.87,3.92-1.06.1-5.24-.15-10.49-.27-15.73H7.48c-.09,6.55-.16,13,.27,19.58.2,3-.12,7.37,3.63,8A2.17,2.17,0,0,0,14,85.23a38.76,38.76,0,0,0,1.18-13c-.18-2.57-4.12-2.63-4.05,0s-.48,5.79.25,8.48a2.16,2.16,0,0,0,1.54,1.54l.52.09a2.24,2.24,0,0,0,2.16-.57l.27-.34c1.18-1.51.16-4.71-2.18-3.75l-.14.06a2.28,2.28,0,0,0-1.34,3.3l.12.19a2.29,2.29,0,0,0,3.55.46c1.82-1.61.68-4.85.48-6.88-.47-4.71-.95-9.42-1.4-14.12l-4.78.65L11,67a2.7,2.7,0,0,0,3.3,1.87c2.82-.9,3.7-2.71,4.13-5.54a7.87,7.87,0,0,0,.05-1.17q0-1.18,0,0a31.63,31.63,0,0,1,1.33,3c1.33,2.4,2.6,4.84,4,7.18,1.58,2.58,5.34.85,4.75-2-1-5-2.07-9.89-3.28-14.83a2,2,0,0,0-2.85-1.16,12.48,12.48,0,0,0-5.56,5.63,2.32,2.32,0,0,0,.82,3.12l.87,1,3.78-2.91c-3.09-3.34-4.89-6.22-3.63-10.88A89.3,89.3,0,0,1,22.27,40c1.69-4.13-4.86-6.59-7-3a44,44,0,0,0-6,18.16c-.3,2.65,3,5.06,5.45,4.15,4.17-1.56,5.09-4.69,5.93-8.81,1.18-5.73,2-11.53,2.66-17.34s-7.83-6.15-9.49-1.28A110.82,110.82,0,0,0,9.53,48.67c-.92,5.26,6.51,9.45,9.29,3.92A131.74,131.74,0,0,0,27,32c2-6.61-7.76-9-10.16-2.8A31.39,31.39,0,0,0,15.49,47c.94,5,7.41,4.71,9.83,1.28A33.51,33.51,0,0,0,31,34.84c1-5.6-7.28-10.29-10-4.21a80.89,80.89,0,0,0-5.82,18.13c-1.21,6.44,6.41,9.36,10.21,4.31a36.64,36.64,0,0,0,5.71-11.22c1.92-6.11-7.22-9.95-10.33-4.36A45.5,45.5,0,0,0,15.68,51.2c-.7,3.68,2.58,8.73,6.92,6.92,2.74-1.14,4.82-2.35,6.08-5.18L18.42,48.61l-.76,3.78c-1.14,5.7,5,9,9.38,5.46a44.94,44.94,0,0,0,4.83-4.57l-5.53-3.22a10.31,10.31,0,0,1-3.71,4.27l4.48,1.18a15.26,15.26,0,0,1,1.39-9.34C30,43,25.28,40.31,23.84,43.46a23.14,23.14,0,0,0-1.9,13.48c.23,1.74,2.62,2.4,3.94,1.6a24.07,24.07,0,0,0,6-5.26c1.78-2.07.7-5.71-2.34-5.65a54.15,54.15,0,0,0-8,.84l6.9,6.9.77-3.77c1.19-5.82-7.5-10.49-10.27-4.33h.63l6.92,6.92a35.62,35.62,0,0,1,4-11L20.18,38.83a29.18,29.18,0,0,1-4.46,8.58l10.21,4.31a69.46,69.46,0,0,1,4.49-15.58l-10-4.21A25.94,25.94,0,0,1,16,42.82l9.83,1.28A21,21,0,0,1,27,32l-10.16-2.8A125.81,125.81,0,0,1,10,47.46l9.29,3.92a115.32,115.32,0,0,1,3.81-16.89L13.65,33.2c-.2,3.18-.46,6.36-.83,9.53-.15,1.26-.38,8.32-1.41,8.76l6.48,3.72a37.34,37.34,0,0,1,4-14.28l-7-3c-1.59,5-3.66,10.94-3.42,16.3.22,4.85,4.17,7.44,7.48,10.4a2.42,2.42,0,0,0,3.78-2.91c-.93-1.71-1.5-2-3.27-2.73L21,61.83a7.32,7.32,0,0,1,3.36-4l-2.85-1.16a52,52,0,0,1,1.91,14.49l4.85-1.31c-1.89-4-4.6-12.71-9.68-13.73a4.82,4.82,0,0,0-4.7,1.67c-.47.56-1.64,6.22-1.08,6l3.3,1.87-1.29-5.55c-.61-2.61-5.1-2.11-4.78.65.41,3.45.8,6.91,1.19,10.36l.54,4.71L12,77.65q-.1,3.3.65.87L16.2,79l-.14-.18-.81,3.08.14-.07-3.07-3.07-.24.36L14,78l-.53,0,2.12,1.62c-.79-2.16-.47-5-.44-7.31H11.11a47.92,47.92,0,0,1-1.2,11.86l2-1.55c-.76-.09-1.74-21.44-1.8-23.41a1.33,1.33,0,0,0-2.67,0c-.45,5.23-1,10.48-1.27,15.73l3.92-1.06c-3.48-7.49-3.93-15-2.85-23.09.11-.83-1.25-1.18-1.59-.43Z"/><path class="cls-1" d="M31.16,41.18c1.47.16,2.94.3,4.41.45l-1.88-4.55a70,70,0,0,0-5.77,6.55c-2.1,2.48-.19,7.14,3.45,5.92A15.55,15.55,0,0,0,41.87,37.42c.58-3.64-3.28-6.2-6.22-3.62a33.88,33.88,0,0,0-5.19,5.82l5.9-.76q.41,3.2.75,1.07.17-.89.27-1.8a6,6,0,0,0-.6-2.64c-1.15-2.36-3.51-3.7-4.63-6.21L29,34.8c1.32-.11,2.25,1.38,3.26,2a8.3,8.3,0,0,0,3.62,1.39c.83.09,3.06.15,3.63-.67q-3.66-3.53-2.87-1a4.31,4.31,0,0,0,.4,1.26,4.63,4.63,0,0,0,5.51,3,6.42,6.42,0,0,0,3-1.83c.32-.34,1.25-2.12,1.48-2.2L42.8,33.5c-.23,1.86-2.59,3.06-4,4L40.83,41c1.73-.79,3.43-1.58,5.13-2.42,1.54-.76.85-3.48-.9-3.32l-2.2.21,1.9,2.49c.84-5,.42-9.06-3.5-12.6a3.26,3.26,0,0,0-5.39,1.42c-.76,2.54-3.83,3.34-6.13,2.7a2,2,0,0,0-1.56,3.69,9.74,9.74,0,0,0,13.58-3.91l-5.06.65c1.92,1.88,4.19,4.75,4.19,7.52a2,2,0,0,0,2.49,1.9l2.15-.57L44.16,35.5a10.65,10.65,0,0,1-4.36,1.71c-2.19.28-2.87,3.24-.54,4C44,42.74,48.38,39,49.33,34.38a3.36,3.36,0,0,0-4.09-4.09,6.58,6.58,0,0,0-3,1.62,12.82,12.82,0,0,0-1.48,1.94l2.46,1c.68.83.16-.36,0-.86a5,5,0,0,0-1.08-2.1,4.25,4.25,0,0,0-3.79-1.45c-.52.06-1.45.7-1.91.63s-1.85-1.63-2.17-1.87A7.58,7.58,0,0,0,29,27.46c-3,.18-4.27,2.92-3.17,5.52a16,16,0,0,0,2.32,3.93,12.84,12.84,0,0,0,1.68,1.82q.15-1.4-.08-.41c.24,2.42-.85,3.85,1.3,5.85a3.82,3.82,0,0,0,5.9-.76,25.11,25.11,0,0,1,4-4.35L34.7,35.44c-.58,3.79-2.76,5.91-6.07,7.64l4.85,4.85a71.27,71.27,0,0,0,4.4-7.61,2.69,2.69,0,0,0-3.64-3.64c-1.26.64-2.52,1.27-3.77,1.92s-.55,2.46.7,2.59Z"/><path class="cls-1" d="M57.25,35.41a3.53,3.53,0,0,0-2.53.89,2.17,2.17,0,0,0,3.07,3.07,3.12,3.12,0,0,0,.57-.8q.17-.26-.06.06l.2-.2a1.78,1.78,0,0,0-1.25-3Z"/><path class="cls-1" d="M43,37.89a5.91,5.91,0,0,1-2.62,2.44,1.93,1.93,0,1,0,1.95,3.33,9.66,9.66,0,0,0,3.93-3.87A1.89,1.89,0,0,0,43,37.89Z"/><path class="cls-1" d="M28.4,52.61v2a1.82,1.82,0,0,0,1.79,1.79,5.86,5.86,0,0,0,5.19-2.74,1.91,1.91,0,0,0-2.14-2.78,10.9,10.9,0,0,0-6.37,4.63c-1,1.75-.34,3.39-1.82,5a5,5,0,0,1-1.22,1.11c-1,.42,1.43.55-1-.06-2.09-.53-4-1-6,.47a4.34,4.34,0,0,0-.82,6.12,2.22,2.22,0,0,0,3.77,0,10.77,10.77,0,0,0,1.42-2.67c.48-1.43-1.2-2.41-2.37-1.82a11.23,11.23,0,0,0-2.47,1.84l3.43.44c-.87-1.73,2.42,0,2.41,0a3.14,3.14,0,0,0,1.79.25A4.14,4.14,0,0,0,27,63.72a11.24,11.24,0,0,0,.49-1.84,6,6,0,0,1,2.15-3.18c1.61-1.51,2.35-3.42,4.63-4.21l-2.14-2.78L30.2,52.77,32,54.56l-.09-2c-.1-2.24-3.5-2.27-3.5,0Z"/><path class="cls-1" d="M74.92,64.66q-1.24,1.27-2.46,2.56l4,2.31a11.21,11.21,0,0,0-.76-8.73,2.3,2.3,0,0,0-3.59-.46,7,7,0,0,0-1.64,7.73c.66,1.87,2.37,3.83.82,4.83-.26.17-3.31.41-3.71.52l2.16,1.23c-.59-2.45-2.53-3.77-4.86-2.44l2.71.71-1-1.54-1.24,3c2.79-.51,6.56-4.16,2.7-6.43-2-1.16-4.88.43-7,.42-3.54,0-6.36-1.83-9.88-.87a2.77,2.77,0,0,0-1.9,3.34C51.21,78.55,61.49,74.64,64.06,82l5.11-3a4.39,4.39,0,0,1-.31-5.84,3.22,3.22,0,0,0-.64-4.95c-2.94-2-7-5.16-10.77-4.55-4.37.7-9,4.6-12.64,6.94-2,1.27-3,4.63-.82,6.34s4.63,1.76,6.88,3.24c3.32,2.18,4.7,6.52,4.18,10.32H62c-.4-2.21-.49-4.45-.87-6.65-.33-1.9-1.08-3.74-1-5.72.13-2.74-4-2.66-4.21,0-.49,5.32,1.83,10.49,1.49,15.93l5.67-.77C61.48,86.89,59.18,78.45,52,76.53c-3.37-.89-5.18,3.68-2.33,5.53A31.71,31.71,0,0,1,60.28,93.43c1.29,2.28,5.26,2,5.83-.76A30,30,0,0,0,65.32,77c-1.06-3.28-6.48-2.91-6.27.85a88.39,88.39,0,0,0,2.88,16.44,3.53,3.53,0,0,0,3.33,2.54l1.22.48c3.3,2.3,6.13-2,4.9-4.9-1.06-2.49,2.53-5.75,3.63-7.7A14.86,14.86,0,0,0,76.95,78c.28-4.24-5.48-4.27-6.84-.93C68.41,81.3,64.32,83.92,63,88.4a9.87,9.87,0,0,0,2,9.67l4.21-5.45-3.33-2.31c-2.09-1.45-5.56.45-5.3,3,.39,3.94,2.09,5.8,4.73,8.5l-1.06-2.56v.18l1.06-2.56c1.14-1.06-.62-.17-1.39,0-1.08.2-2.17.32-3.26.48-1.44.21-3.25.24-4.5,1.09a3.83,3.83,0,0,0-1.72,4.23c1.35,3.72,4.69,2.92,7.67,2.08,2.78-.79,7.14-1.25,9-3.75,1.21-1.68.3-4.36-1.39-5.3-2.81-1.57-6.35-1.54-9.36-2.52v7.62c-2.59.56-1,.08.31.38a17.08,17.08,0,0,0,3.5.5c2.35,0,4.68-.55,6.09-2.58,4.22-6.12-6-8.51-4.32-13.62,1.49-4.55-4.76-6.44-7.23-3a9.09,9.09,0,0,0-1.45,8l7.69-2.12a123.31,123.31,0,0,1-3.46-14.77c-.88-5.15-8.82-3-7.88,2.17a123.2,123.2,0,0,0,3.64,14.72c1.53,4.89,8.88,2.89,7.69-2.12l.59-1.88-7.23-3c-1.37,4.29.08,8.44,3.11,11.67a6.39,6.39,0,0,0,1,1q1.57,1.74.84-2.37c-.25-.27-1.69-.31-2-.35a8.12,8.12,0,0,0-3-.12c-4,.87-3.49,6.48,0,7.62a38.75,38.75,0,0,0,3.87.88c.87.19,1.75.4,2.62.57.48.09,2.26.79,1.05.15l-1.39-5.3,0,0,2.32-1.78c-1.56.48-3.11,1-4.66,1.5-.89.28-1.88.51-2.75.87-1.89.77-2-.26-.15.45l2.62,2.62,0-.1-1.72,4.23c-.84.6.67-.09,1.18-.18l2.31-.39a23.48,23.48,0,0,0,4.87-1.06c1.7-.69,3.12-1.8,3.17-3.84.08-3.1-3.5-3.27-3.86-6.12l-5.3,3,3.38,2.22c3.48,2.29,6.63-2.61,4.21-5.45-2.8-3.29,5.09-10.5,6.6-13.39l-6.36-2.68c-.65,3.84-3.92,6.5-5.28,10.11A10.52,10.52,0,0,0,65.2,96l4.9-4.9a6.82,6.82,0,0,0-4.84-1.21l3.33,2.54a45.86,45.86,0,0,1-3.16-14.6l-6.27.85A23.07,23.07,0,0,1,60,91l5.83-.76A37.51,37.51,0,0,0,52.7,76.84l-2.33,5.53c4.72,1.17,6.08,8.49,7.13,12.47.85,3.23,5.52,2.42,5.67-.77a27.53,27.53,0,0,0-.42-7.14c-.5-2.27-3.14-6-2.7-8.23L56,77.58c-.37,2.52-1.52,4.68-1.67,7.24a34.45,34.45,0,0,0,.75,7.6c.57,3.39,6.38,3.44,6.91,0a19.52,19.52,0,0,0-2.36-13.53,21.57,21.57,0,0,0-4.25-5.33A10.32,10.32,0,0,0,52.82,72c-.75-.33-2.67-.42-3.1-.76l-.82,6.34c2.73-1.76,5.27-3.79,8-5.56,3.17-2.07,5.18-.3,8.17,1.64l-1.13-4.31c-3.4,4.42-2.73,10,.93,14,2,2.19,6.18-.09,5.11-3a14,14,0,0,0-5.19-7.06,14.12,14.12,0,0,0-3.6-1.83c-1.23-.4-6.18-.66-6.61-2l-1.9,3.34c2.33-.8,5.89.57,8.43.36a17.13,17.13,0,0,0,2.14-.31,12.47,12.47,0,0,0,2.2-.63q2.16-.42-1.17-1.78a2.08,2.08,0,0,0-1.24,3l1.12,1.45c.59.76,1.78,1.43,2.71.71l-.53,0a1.8,1.8,0,0,0,2.58,1.05l2.35-1-1.91-.25a4.17,4.17,0,0,0,6.13.27c4-3.83-2.87-9.22-.17-12.07l-3.59-.46a5.72,5.72,0,0,1,.12,5.16C71,70.79,75,72.54,76.19,70.1q.78-1.63,1.55-3.26c.82-1.75-1.31-3.73-2.82-2.18Z"/><path class="cls-1" d="M68.18,82.38c3.45-.35,6-2.45,6.53-6,.48-3.26-2.94-5.64-5.61-3.27a8,8,0,0,0-2.28,3.55c-.89,2.46,1.86,5,4.25,4.25a7.15,7.15,0,0,0,4.23-3.19c1.09-1.85.61-4.35,2.06-5.91S80.56,70,81.5,68a5.9,5.9,0,0,0-.24-5.32c-1.27-2.83-6-2.06-6.64.87a20.48,20.48,0,0,0-.41,6.86c.47,3.79,6.55,5.58,7.39,1a31.88,31.88,0,0,0,.54-7.91H75A82.47,82.47,0,0,1,75,82.87c-.3,2.87,4.36,4.15,5.54,1.5a24.12,24.12,0,0,1,2.54-4.64c1.68-2.29-1.09-5.17-3.5-4.55-3.33.85-6.23,2.37-7.89,5.46-1.29,2.4.82,4.55,3.24,4.21l.19,0c1.65-.23,2.21-2.16,2-3.52l0-.31a2.84,2.84,0,0,0-2-2l-.28-.09a2.9,2.9,0,0,0-3.21,1.31c-.23.33-1,2.06-.7,1.65l2.41-1.38-.51,0V86a4,4,0,0,0,3.52-1.56c.76-.91,1.11-2.58,0-3.44a10.52,10.52,0,0,0-1.73-1.15c-1.5-.78-3.82,1-2.58,2.58l.16.29L74,80.41l-1.15.08c-3.57,0-3.57,5.47,0,5.55a3.3,3.3,0,0,0,2.49-.81c.26-.22,1.3-2.23.79-1.58l-2.77.73.27.11L71.5,81.75l0,.31,2.86-2.86-.19,0,1.45,5.34c1.89-1.15,3.55-2.57,5.62-3.41l-3.81-3.81a19.85,19.85,0,0,1-2,4l5.43,2.29a65.13,65.13,0,0,0,1.27-20.19c-.38-4.54-7.26-4.69-7.19,0a23.69,23.69,0,0,1-.61,5.91H81.6a9.94,9.94,0,0,1,0-3.93L75,66.32c-.75-1.66-.83-1.12-2.08-.2a8.11,8.11,0,0,0-2.27,2.42c-.32.52-1.4,5.72-1.4,5.72l4.25,4.25.37-.63L68.12,75.5a5.75,5.75,0,0,1-1.49,3.12c-1.08,1.29-.53,4,1.56,3.75Z"/><path class="cls-1" d="M93.44,65.53a9.62,9.62,0,0,0-6.18-2.85l1.9,4.6a5,5,0,0,0,1.77-3.58c.1-1.36-.89-2.9-.66-4.16L84,58.68a18.56,18.56,0,0,0,2,10.32c1.23,2.45,4.74,2.1,6.06,0a4.91,4.91,0,0,0-.78-6.5L88.78,68.4c2.57-.28,4.72-1.12,6-3.51,1.48-2.68-.77-8,1.31-9.69,1.53-1.25,1.07-3.53,0-4.84a6.07,6.07,0,0,0-7-1.89l4.8,3.66-.17-3.68a3.93,3.93,0,0,0-6.62-2.74,22.52,22.52,0,0,0-6,9l7.18,1c-.12-2.61,0-5.94,1.57-8.15,1.08-1.5,2.89-2.17,4.16-3.57,2.42-2.65,2.52-6.74,5.33-9l-6-3.49c-.53,3.52-3,6.54-4.35,9.83a40.93,40.93,0,0,0-2.62,9.53c-.51,3.25,2.44,5.87,5.56,4.27a44.8,44.8,0,0,0,11.47-8.42c3-3.06-1-8.83-4.76-6.16a23.3,23.3,0,0,0-7.34,8.1c-1.85,3.46,2,8,5.65,5.65,6.11-4,12.42-9,11.77-17.09-.21-2.57-2.78-5.58-5.72-4.36a16.63,16.63,0,0,0-8.31,6.71c-2.88,4.49,3.68,9.5,7.36,5.68A15.75,15.75,0,0,0,106.67,35c.25-2.82-2.45-4.61-4.87-4.87l-.24,0c-2.23-.24-4,1.71-4.71,3.59l-.1.29A4.85,4.85,0,0,0,98,38.72l.49.5L97,35.74c.11,3.67-2.51,8.74-4,12A74.31,74.31,0,0,1,86.23,59c-3.51,4.88,3,9.15,7.31,7.31q2.37-.25.64-.89l-2.45-3.19-.11.26c-1.48,4.72,3.9,8,7.85,6s5.21-5.41,6.9-9.11c2-4.36,3.92-8.77,6.06-13.06,2.7-5.44-3.88-10.88-8.5-6.56-5.69,5.31-9.77,17.77-2.47,23.7a7,7,0,0,0,10.29-1.57c2.83-4.1,3.13-10.79,3.81-15.6l-11.29-1.53-2.83,24.12,11.29-1.53C111,57.3,97,59.54,90.4,62.2l5.74,7.47c-1.13,1.59,6-1.06,4.93,1-1.88,3.81,1.22,8.36,5.58,7.25a5.21,5.21,0,0,1,3.08-.08c6.28.82,6.22-9.06,0-9.88a14.43,14.43,0,0,0-5.71.44l5.58,7.25c2.7-5.47,1.23-11.85-4.53-14.65-4.68-2.28-13.35-1.61-16.92,2.46-3.2,3.65-.19,10,4.95,8.5a21.52,21.52,0,0,1,6.31-1,12.94,12.94,0,0,1,2.33.13q1.9.82-.12-.7c1.2,6.93,10.6,4.33,11.29-1.53l2.83-24.12c.75-6.37-10.42-7.94-11.29-1.53-.49,3.57-.51,10.22-2.71,13.09l3.4-2.62-.87.27,4.39.57q1.22,1.6.38-.63a5,5,0,0,1,.15-2.08,8.33,8.33,0,0,1,2.37-4.42l-9-5.27c-1.33,3.17-2.83,6.27-4.26,9.39-1,2.09-2.05,6.65-4.19,7.73l7.85,6c1.09-3.47.63-7.38-2.75-9.4-3.54-2.11-7.59-.32-11,1.16l7.31,7.31a66.24,66.24,0,0,0,9-17.48c1.43-4.2,4.57-11.54.47-15.08l1.26,4.77.08-.29-4.71,3.59h.24L96.92,35a4.3,4.3,0,0,1-1.44,3.63l7.36,5.68a7.08,7.08,0,0,1,3.7-3.18l-6.8-3.9c.6,4.78-3.42,7.48-6.89,10l5.65,5.65a16.41,16.41,0,0,1,5-6.1L97.9,41.17a36.47,36.47,0,0,1-9.73,7.44l5.56,4.27a36.73,36.73,0,0,1,3.56-11.94c1.5-2.95,2.72-5.17,3.16-8.47s-4-4.25-6.12-2.53a12.74,12.74,0,0,0-3.6,5.3A12.21,12.21,0,0,1,86.61,41c-4.12,3.54-4.69,8.54-5.46,13.73-.57,3.86,4.41,6.65,6.68,2.82a34.18,34.18,0,0,1,4.78-6.38L86,48.43l.34,3.68c.28,3.05,3,4.47,5.71,3.27l-.75-.19V50.35A7.57,7.57,0,0,0,88.73,55c-.15.95.52,6.47.05,6.5a3.5,3.5,0,0,0-2.44,5.89l.6.68-1-2.45,0-.14H92a14.9,14.9,0,0,1-1.61-6.78c-.06-4.21-6.06-4.07-6.44,0-.08.86,1.29,4.88,1,5.33a2.71,2.71,0,0,0,2.32,4.05,10.42,10.42,0,0,1,4.39.54c1.76.63,3.07-1.85,1.79-3.08Z"/><path class="cls-1" d="M54.19,84.49c-1.54,4-.83,8.32,0,12.42a25.59,25.59,0,0,0,1.65,5.44c1.12,2.46,3.51,4.73,3.84,7.49a2.57,2.57,0,0,0,1.83,2.41,7.3,7.3,0,0,0,8.6-5c.9-2.5.73-5.34,1.27-7.92.63-3.07,2-5.8,2.43-8.9.24-1.88-2.5-2.8-3.68-1.52-2.16,2.33-3,5.06-3.64,8.18-.46,2.12-.33,10.88-3.65,10.35l1.74,1.74c-.62-4.45-4.2-7.54-5.42-11.84s-1.33-9-3.43-13.05a.86.86,0,0,0-1.56.2Z"/><path class="cls-1" d="M71,79.61C65.15,83,62.89,93,61.84,99.11l5.64-.74c-1.46-2.87-2.83-7.09-6-8.63a5.78,5.78,0,0,0-7.27,1.65c-4,5.58,3,10,8,7.71l-5.65-3.24a23.36,23.36,0,0,0,1.24,10.5c.92,2.65,4.41,4,6.54,1.73,2.68-2.88,4.48-6.61,2.38-10.3a2.22,2.22,0,0,0-3.45-.45c-1.54,1.78-2.59,3.71-4.45,5.22l6.54,1.73a24.5,24.5,0,0,1-1.27-8.42,3.79,3.79,0,0,0-5.65-3.24c-1.57.9,3,7.67,3.7,8.87,1.68,2.8,5.45,1.36,5.75-1.56a56.54,56.54,0,0,1,2.26-11c.89-2.88,2.37-5.42,2.39-8.47A1,1,0,0,0,71,79.61Z"/></g></g></svg>