<svg xmlns="http://www.w3.org/2000/svg" viewBox="0 0 792 612"><defs><style>.cls-1{fill:#3155a4;}.cls-2{fill:#fff;}.cls-3{fill:#001f5b;}.cls-4{fill:#00b0df;}</style></defs><title>print-cover</title><g id="Layer_2" data-name="Layer 2"><g id="Layer_2-2" data-name="Layer 2"><rect class="cls-1" width="792" height="612"/><path class="cls-2" d="M371.25,73.76l2.87,2.87L360,90.71l-2.87-2.87Zm-37.62,37.62,2.87,2.87-14.09,14.09-2.87-2.87ZM296,149l2.87,2.87-14.09,14.09-2.87-2.87Zm-37.62,37.62,2.87,2.87-14.09,14.09-2.87-2.87Zm-37.62,37.62,2.87,2.87-14.09,14.09-2.87-2.87Zm-37.62,37.62,2.87,2.87-14.09,14.09-2.87-2.87Z"/><path class="cls-2" d="M408.42,369.32A100.83,100.83,0,1,1,509.25,268.48,100.95,100.95,0,0,1,408.42,369.32Zm0-200.67a99.83,99.83,0,1,0,99.83,99.83A99.95,99.95,0,0,0,408.42,168.65Z"/><polyline class="cls-3" points="273.05 65.61 539.84 332.41 273.05 599.21"/><path class="cls-3" d="M512.44,447.39a3,3,0,0,1-2.12-5.12,3.09,3.09,0,0,1,4.24,0,3,3,0,0,1-2.12,5.12Z"/><path class="cls-3" d="M602.42,444.39a3,3,0,0,1,3-3h0a3,3,0,0,1,3,3h0a3,3,0,0,1-3,3h0A3,3,0,0,1,602.42,444.39Zm-31,0a3,3,0,0,1,3-3h0a3,3,0,0,1,3,3h0a3,3,0,0,1-3,3h0A3,3,0,0,1,571.42,444.39Zm-31,0a3,3,0,0,1,3-3h0a3,3,0,0,1,3,3h0a3,3,0,0,1-3,3h0A3,3,0,0,1,540.43,444.39Z"/><path class="cls-3" d="M636.41,447.39a3,3,0,0,1-2.13-5.12,3.29,3.29,0,0,1,.46-.38,2.57,2.57,0,0,1,.52-.27,2.25,2.25,0,0,1,.56-.17,3,3,0,1,1,.59,5.94Z"/><path class="cls-3" d="M512.44,473.5a3,3,0,0,1-.59-.06,3.65,3.65,0,0,1-.56-.17,3.18,3.18,0,0,1-.51-.28,2.78,2.78,0,0,1-.46-.37,3,3,0,0,1,0-4.24,2.84,2.84,0,0,1,.46-.38,3.1,3.1,0,0,1,.51-.27,2.78,2.78,0,0,1,.56-.17,3,3,0,1,1,.59,5.94Z"/><path class="cls-3" d="M602.41,470.5a3,3,0,0,1,3-3h0a3,3,0,0,1,3,3h0a3,3,0,0,1-3,3h0A3,3,0,0,1,602.41,470.5Zm-31,0a3,3,0,0,1,3-3h0a3,3,0,0,1,3,3h0a3,3,0,0,1-3,3h0A3,3,0,0,1,571.42,470.5Zm-31,0a3,3,0,0,1,3-3h0a3,3,0,0,1,3,3h0a3,3,0,0,1-3,3h0A3,3,0,0,1,540.43,470.5Z"/><path class="cls-3" d="M636.41,473.5a3,3,0,0,1-3-3,3.87,3.87,0,0,1,.05-.59,2.81,2.81,0,0,1,.18-.56,2.88,2.88,0,0,1,.27-.52,3.3,3.3,0,0,1,.37-.45,3.11,3.11,0,0,1,4.25,0,2.71,2.71,0,0,1,.37.45,3.74,3.74,0,0,1,.28.52,3.6,3.6,0,0,1,.17.56,3.87,3.87,0,0,1,.05.59,3,3,0,0,1-3,3Z"/><path class="cls-3" d="M512.44,499.61a3,3,0,0,1-2.12-.88,2.76,2.76,0,0,1-.37-.46,3.18,3.18,0,0,1-.28-.51,3.66,3.66,0,0,1-.17-.57,2.85,2.85,0,0,1-.06-.58,3,3,0,0,1,.06-.59,3.54,3.54,0,0,1,.17-.56,3.77,3.77,0,0,1,.28-.52,3.14,3.14,0,0,1,.37-.45,2.34,2.34,0,0,1,.46-.37,2.57,2.57,0,0,1,.51-.28,2.81,2.81,0,0,1,.56-.17,3,3,0,0,1,2.71.82,2.6,2.6,0,0,1,.37.45,3,3,0,0,1,.28.52,2.81,2.81,0,0,1,.17.56,3,3,0,0,1,.06.59,2.85,2.85,0,0,1-.06.58,2.91,2.91,0,0,1-.17.57,2.57,2.57,0,0,1-.28.51,2.34,2.34,0,0,1-.37.46A3,3,0,0,1,512.44,499.61Z"/><path class="cls-3" d="M602.41,496.61a3,3,0,0,1,3-3h0a3,3,0,0,1,3,3h0a3,3,0,0,1-3,3h0A3,3,0,0,1,602.41,496.61Zm-31,0a3,3,0,0,1,3-3h0a3,3,0,0,1,3,3h0a3,3,0,0,1-3,3h0A3,3,0,0,1,571.42,496.61Zm-31,0a3,3,0,0,1,3-3h0a3,3,0,0,1,3,3h0a3,3,0,0,1-3,3h0A3,3,0,0,1,540.43,496.61Z"/><path class="cls-3" d="M636.41,499.61a3,3,0,0,1-2.13-.88,3.4,3.4,0,0,1-.37-.46,3.18,3.18,0,0,1-.28-.51,3.72,3.72,0,0,1-.17-.57,2.85,2.85,0,0,1-.06-.58,3,3,0,0,1,.06-.59,3.6,3.6,0,0,1,.17-.56,3.77,3.77,0,0,1,.28-.52,4,4,0,0,1,.37-.45,3,3,0,0,1,2.71-.82,2.81,2.81,0,0,1,.56.17,2.63,2.63,0,0,1,.52.28,2.66,2.66,0,0,1,.46.37,4.07,4.07,0,0,1,.37.45,3.77,3.77,0,0,1,.28.52,3.6,3.6,0,0,1,.17.56,2.94,2.94,0,0,1,.05.59,2.84,2.84,0,0,1-.05.58,3.72,3.72,0,0,1-.17.57,3.18,3.18,0,0,1-.28.51,3.43,3.43,0,0,1-.37.46,3.22,3.22,0,0,1-.46.37,3.26,3.26,0,0,1-.52.28,3.54,3.54,0,0,1-.56.17A2.85,2.85,0,0,1,636.41,499.61Z"/><path class="cls-3" d="M512.44,525.72a2.85,2.85,0,0,1-.58-.06,2.91,2.91,0,0,1-.57-.17,2.57,2.57,0,0,1-.51-.28,2.34,2.34,0,0,1-.46-.37,3.14,3.14,0,0,1-.37-.45,3.77,3.77,0,0,1-.28-.52,3.54,3.54,0,0,1-.17-.56,3,3,0,0,1-.06-.59,3,3,0,0,1,.88-2.12,3.09,3.09,0,0,1,4.24,0,3,3,0,0,1,.88,2.12,3,3,0,0,1-.06.59,2.81,2.81,0,0,1-.17.56,3,3,0,0,1-.28.52,2.6,2.6,0,0,1-.37.45A3,3,0,0,1,512.44,525.72Z"/><path class="cls-3" d="M602.41,522.72a3,3,0,0,1,3-3h0a3,3,0,0,1,3,3h0a3,3,0,0,1-3,3h0A3,3,0,0,1,602.41,522.72Zm-31,0a3,3,0,0,1,3-3h0a3,3,0,0,1,3,3h0a3,3,0,0,1-3,3h0A3,3,0,0,1,571.42,522.72Zm-31,0a3,3,0,0,1,3-3h0a3,3,0,0,1,3,3h0a3,3,0,0,1-3,3h0A3,3,0,0,1,540.43,522.72Z"/><path class="cls-3" d="M636.41,525.72a2.88,2.88,0,0,1-.59-.06,2.81,2.81,0,0,1-.56-.17,2.63,2.63,0,0,1-.52-.28,2.66,2.66,0,0,1-.46-.37,4,4,0,0,1-.37-.45,2.9,2.9,0,0,1-.27-.52,2.81,2.81,0,0,1-.18-.56,3.88,3.88,0,0,1-.05-.59,3,3,0,0,1,.87-2.12,3.22,3.22,0,0,1,.46-.37,3.26,3.26,0,0,1,.52-.28,3.54,3.54,0,0,1,.56-.17,3,3,0,0,1,3.58,2.94,3.88,3.88,0,0,1-.05.59,2.81,2.81,0,0,1-.18.56,2.9,2.9,0,0,1-.27.52,4.07,4.07,0,0,1-.37.45A3,3,0,0,1,636.41,525.72Z"/><path class="cls-3" d="M178.53,180.24a3,3,0,0,1-2.12-5.12,3.09,3.09,0,0,1,4.24,0,3,3,0,0,1-2.12,5.12Z"/><path class="cls-3" d="M268.51,177.24a3,3,0,0,1,3-3h0a3,3,0,0,1,3,3h0a3,3,0,0,1-3,3h0A3,3,0,0,1,268.51,177.24Zm-31,0a3,3,0,0,1,3-3h0a3,3,0,0,1,3,3h0a3,3,0,0,1-3,3h0A3,3,0,0,1,237.51,177.24Zm-31,0a3,3,0,0,1,3-3h0a3,3,0,0,1,3,3h0a3,3,0,0,1-3,3h0A3,3,0,0,1,206.52,177.24Z"/><path class="cls-3" d="M302.5,180.24a3,3,0,0,1-2.13-5.12,3.29,3.29,0,0,1,.46-.38,2.57,2.57,0,0,1,.52-.27,2.25,2.25,0,0,1,.56-.17,3,3,0,1,1,.59,5.94Z"/><path class="cls-3" d="M178.53,206.35a3,3,0,0,1-.59-.06,3.65,3.65,0,0,1-.56-.17,3.18,3.18,0,0,1-.51-.28,2.78,2.78,0,0,1-.46-.37,3,3,0,0,1,0-4.24,2.84,2.84,0,0,1,.46-.38,3.1,3.1,0,0,1,.51-.27,2.78,2.78,0,0,1,.56-.17,3,3,0,1,1,.59,5.94Z"/><path class="cls-3" d="M268.5,203.35a3,3,0,0,1,3-3h0a3,3,0,0,1,3,3h0a3,3,0,0,1-3,3h0A3,3,0,0,1,268.5,203.35Zm-31,0a3,3,0,0,1,3-3h0a3,3,0,0,1,3,3h0a3,3,0,0,1-3,3h0A3,3,0,0,1,237.51,203.35Zm-31,0a3,3,0,0,1,3-3h0a3,3,0,0,1,3,3h0a3,3,0,0,1-3,3h0A3,3,0,0,1,206.52,203.35Z"/><path class="cls-3" d="M302.5,206.35a3,3,0,0,1-3-3,3.87,3.87,0,0,1,.05-.59,2.81,2.81,0,0,1,.18-.56,2.88,2.88,0,0,1,.27-.52,3.3,3.3,0,0,1,.37-.45,3.11,3.11,0,0,1,4.25,0,2.71,2.71,0,0,1,.37.45,3.74,3.74,0,0,1,.28.52,3.6,3.6,0,0,1,.17.56,3.87,3.87,0,0,1,.05.59,3,3,0,0,1-3,3Z"/><path class="cls-3" d="M178.53,232.46a3,3,0,0,1-2.12-.88,2.76,2.76,0,0,1-.37-.46,3.18,3.18,0,0,1-.28-.51,3.66,3.66,0,0,1-.17-.57,2.85,2.85,0,0,1-.06-.58,3,3,0,0,1,.06-.59,3.54,3.54,0,0,1,.17-.56,3.77,3.77,0,0,1,.28-.52,3.14,3.14,0,0,1,.37-.45,2.34,2.34,0,0,1,.46-.37,2.57,2.57,0,0,1,.51-.28,2.81,2.81,0,0,1,.56-.17,3,3,0,0,1,2.71.82,2.6,2.6,0,0,1,.37.45,3,3,0,0,1,.28.52,2.81,2.81,0,0,1,.17.56,3,3,0,0,1,.06.59,2.85,2.85,0,0,1-.06.58,2.91,2.91,0,0,1-.17.57,2.57,2.57,0,0,1-.28.51,2.34,2.34,0,0,1-.37.46A3,3,0,0,1,178.53,232.46Z"/><path class="cls-3" d="M268.5,229.46a3,3,0,0,1,3-3h0a3,3,0,0,1,3,3h0a3,3,0,0,1-3,3h0A3,3,0,0,1,268.5,229.46Zm-31,0a3,3,0,0,1,3-3h0a3,3,0,0,1,3,3h0a3,3,0,0,1-3,3h0A3,3,0,0,1,237.51,229.46Zm-31,0a3,3,0,0,1,3-3h0a3,3,0,0,1,3,3h0a3,3,0,0,1-3,3h0A3,3,0,0,1,206.52,229.46Z"/><path class="cls-3" d="M302.5,232.46a3,3,0,0,1-2.13-.88,3.4,3.4,0,0,1-.37-.46,3.18,3.18,0,0,1-.28-.51,3.72,3.72,0,0,1-.17-.57,2.85,2.85,0,0,1-.06-.58,3,3,0,0,1,.06-.59,3.6,3.6,0,0,1,.17-.56,3.77,3.77,0,0,1,.28-.52,4,4,0,0,1,.37-.45,3,3,0,0,1,2.71-.82,2.81,2.81,0,0,1,.56.17,2.63,2.63,0,0,1,.52.28,2.66,2.66,0,0,1,.46.37,4.07,4.07,0,0,1,.37.45,3.77,3.77,0,0,1,.28.52,3.6,3.6,0,0,1,.17.56,2.94,2.94,0,0,1,.05.59,2.84,2.84,0,0,1-.05.58,3.72,3.72,0,0,1-.17.57,3.18,3.18,0,0,1-.28.51,3.43,3.43,0,0,1-.37.46,3.22,3.22,0,0,1-.46.37,3.26,3.26,0,0,1-.52.28,3.54,3.54,0,0,1-.56.17A2.85,2.85,0,0,1,302.5,232.46Z"/><path class="cls-3" d="M178.53,258.57a2.85,2.85,0,0,1-.58-.06,2.91,2.91,0,0,1-.57-.17,2.57,2.57,0,0,1-.51-.28,2.34,2.34,0,0,1-.46-.37,3.14,3.14,0,0,1-.37-.45,3.77,3.77,0,0,1-.28-.52,3.54,3.54,0,0,1-.17-.56,3,3,0,0,1-.06-.59,3,3,0,0,1,.88-2.12,3.09,3.09,0,0,1,4.24,0,3,3,0,0,1,.88,2.12,3,3,0,0,1-.06.59,2.81,2.81,0,0,1-.17.56,3,3,0,0,1-.28.52,2.6,2.6,0,0,1-.37.45A3,3,0,0,1,178.53,258.57Z"/><path class="cls-3" d="M268.5,255.57a3,3,0,0,1,3-3h0a3,3,0,0,1,3,3h0a3,3,0,0,1-3,3h0A3,3,0,0,1,268.5,255.57Zm-31,0a3,3,0,0,1,3-3h0a3,3,0,0,1,3,3h0a3,3,0,0,1-3,3h0A3,3,0,0,1,237.51,255.57Zm-31,0a3,3,0,0,1,3-3h0a3,3,0,0,1,3,3h0a3,3,0,0,1-3,3h0A3,3,0,0,1,206.52,255.57Z"/><path class="cls-3" d="M302.5,258.57a2.88,2.88,0,0,1-.59-.06,2.81,2.81,0,0,1-.56-.17,2.63,2.63,0,0,1-.52-.28,2.66,2.66,0,0,1-.46-.37,4,4,0,0,1-.37-.45,2.9,2.9,0,0,1-.27-.52,2.81,2.81,0,0,1-.18-.56,3.88,3.88,0,0,1-.05-.59,3,3,0,0,1,.87-2.12,3.22,3.22,0,0,1,.46-.37,3.26,3.26,0,0,1,.52-.28,3.54,3.54,0,0,1,.56-.17,3,3,0,0,1,3.58,2.94,3.88,3.88,0,0,1-.05.59,2.81,2.81,0,0,1-.18.56,2.9,2.9,0,0,1-.27.52,4.07,4.07,0,0,1-.37.45A3,3,0,0,1,302.5,258.57Z"/><polyline class="cls-4" points="224.37 119.51 427.08 322.22 224.37 524.94"/><path class="cls-2" d="M263.4,171.5h-3.72l-.9,2.72h-2l3.74-10.62h2l3.74,10.62h-2Zm-1.87-6.06s-.24,1-.45,1.65l-.94,2.84h2.78l-.94-2.84c-.19-.6-.42-1.65-.42-1.65h0Z"/><path class="cls-2" d="M266.39,166.59h2l1.59,4.73c.15.45.25,1.15.27,1.15h0s.12-.7.27-1.15l1.59-4.73h2l-2.73,7.63h-2.24Z"/><path class="cls-2" d="M275.85,163.6h1.88v1.69h-1.88Zm0,3h1.9v7.63h-1.9Z"/><path class="cls-2" d="M284.09,169.44h.25v-.1c0-1-.63-1.35-1.47-1.35a4.08,4.08,0,0,0-2.09.73l-.72-1.36a5.15,5.15,0,0,1,3-.94,2.83,2.83,0,0,1,3.17,3v4.77h-1.75v-.63a4.84,4.84,0,0,1,0-.54h0a2.47,2.47,0,0,1-2.32,1.35,2.4,2.4,0,0,1-2.59-2.38C279.57,169.6,282.84,169.44,284.09,169.44Zm-1.45,3.48a2,2,0,0,0,1.72-2v-.19H284c-1,0-2.54.13-2.54,1.2a1,1,0,0,0,1.15,1Z"/><path class="cls-2" d="M288.57,168.22h-1v-1.51h1v-2.2h1.86v2.2h1.73v1.51h-1.73v3a1.35,1.35,0,0,0,1.51,1.44,1.75,1.75,0,0,0,.34,0v1.66a3.28,3.28,0,0,1-.58,0c-1.06,0-3.17-.31-3.17-2.87v-3.2Z"/><path class="cls-2" d="M294.07,163.6H296v1.69h-1.88Zm0,3H296v7.63h-1.9Z"/><path class="cls-2" d="M301.68,166.41a4,4,0,1,1-4.19,4A4,4,0,0,1,301.68,166.41Zm0,6.37a2.38,2.38,0,1,0-2.27-2.38,2.27,2.27,0,0,0,2.27,2.38Z"/><path class="cls-2" d="M307.41,166.59h1.82v.88a4.73,4.73,0,0,1,0,.52h0a3,3,0,0,1,2.71-1.59c1.69,0,2.65.88,2.65,2.9v4.91h-1.88v-4.52c0-.92-.24-1.56-1.21-1.56a2.11,2.11,0,0,0-2,1.56,3.22,3.22,0,0,0-.13,1v3.5h-1.9Z"/><path class="cls-2" d="M262.47,182.49a5.5,5.5,0,0,1,3.92,1.45l-.92,1.44a4.68,4.68,0,0,0-2.9-1.12A3.46,3.46,0,0,0,259,187.9a3.59,3.59,0,0,0,3.57,3.8,4.58,4.58,0,0,0,3.08-1.35l1,1.39a5.72,5.72,0,0,1-4.17,1.72,5.49,5.49,0,0,1,0-11Z"/><path class="cls-2" d="M272,185.48a4,4,0,1,1-4.19,4A4,4,0,0,1,272,185.48Zm0,6.37a2.38,2.38,0,1,0-2.27-2.38,2.27,2.27,0,0,0,2.27,2.38Z"/><path class="cls-2" d="M277.78,185.66h1.82v.88a4.73,4.73,0,0,1,0,.52h0a2.88,2.88,0,0,1,2.48-1.59,2.11,2.11,0,0,1,2.23,1.57h0a3,3,0,0,1,2.6-1.57c1.59,0,2.49.9,2.49,2.9v4.91h-1.9v-4.55c0-.87-.16-1.53-1-1.53a2,2,0,0,0-1.84,1.73,4.11,4.11,0,0,0-.09,1v3.35h-1.89v-4.55c0-.82-.13-1.53-1-1.53a2,2,0,0,0-1.87,1.75,4,4,0,0,0-.09,1v3.35h-1.9v-7.63Z"/><path class="cls-2" d="M291.44,185.66h1.82v.88a4.73,4.73,0,0,1,0,.52h0a2.88,2.88,0,0,1,2.48-1.59A2.11,2.11,0,0,1,298,187h0a3,3,0,0,1,2.6-1.57c1.59,0,2.49.9,2.49,2.9v4.91h-1.9v-4.55c0-.87-.16-1.53-1-1.53a2,2,0,0,0-1.84,1.73,4.11,4.11,0,0,0-.09,1v3.35h-1.9v-4.55c0-.82-.13-1.53-1-1.53a2,2,0,0,0-1.87,1.75,4,4,0,0,0-.09,1v3.35h-1.9v-7.63Z"/><path class="cls-2" d="M305.17,185.66h1.9v4.52c0,.92.24,1.56,1.18,1.56a2.29,2.29,0,0,0,2.14-2.57v-3.5h1.9v7.63h-1.82v-.87a4.84,4.84,0,0,1,0-.54h0a2.94,2.94,0,0,1-2.65,1.59c-1.63,0-2.65-.82-2.65-2.9v-4.91Z"/><path class="cls-2" d="M314.66,185.66h1.83v.88a4.73,4.73,0,0,1,0,.52h0a3,3,0,0,1,2.71-1.59c1.69,0,2.65.88,2.65,2.9v4.91H320v-4.52c0-.92-.24-1.56-1.21-1.56a2.11,2.11,0,0,0-2,1.56,3.22,3.22,0,0,0-.13,1v3.5h-1.9v-7.63Z"/><path class="cls-2" d="M323.83,182.67h1.88v1.69h-1.88Zm0,3h1.9v7.63h-1.9v-7.63Z"/><path class="cls-2" d="M328.25,187.29h-1v-1.51h1v-2.2h1.86v2.2h1.73v1.51h-1.73v3a1.35,1.35,0,0,0,1.51,1.44,1.75,1.75,0,0,0,.34,0v1.66a3.28,3.28,0,0,1-.58,0c-1.06,0-3.17-.31-3.17-2.87v-3.2Z"/><path class="cls-2" d="M333.43,194.51a1.66,1.66,0,0,0,.85.31,1.44,1.44,0,0,0,1.32-1l.28-.67-3.22-7.51h2.14l1.6,4.4a9.39,9.39,0,0,1,.28,1h0s.12-.6.25-1l1.5-4.43h2.08l-3.41,8.78a2.85,2.85,0,0,1-2.75,2,2.93,2.93,0,0,1-1.59-.49Z"/><path class="cls-2" d="M257.1,201.83h5.53v.92h-4.5v3.95H262v.92h-3.86v4.71h-1V201.83Z"/><path class="cls-2" d="M267.54,204.64a3.94,3.94,0,1,1-4,3.9A3.89,3.89,0,0,1,267.54,204.64Zm0,7a3,3,0,0,0,2.93-3.07,2.93,2.93,0,1,0-5.86,0A3,3,0,0,0,267.54,211.61Z"/><path class="cls-2" d="M273.22,204.82h1v4.52c0,1.18.18,2.23,1.63,2.23a2.92,2.92,0,0,0,2.78-3.14v-3.6h1v7.52h-1v-1.12c0-.33,0-.6,0-.6h0a3.22,3.22,0,0,1-2.95,1.9c-1.76,0-2.51-1-2.51-2.92v-4.79Z"/><path class="cls-2" d="M282.31,204.82h1v1.12c0,.33,0,.6,0,.6h0a3.2,3.2,0,0,1,3-1.9c1.86,0,2.51,1.06,2.51,2.92v4.79h-1v-4.52c0-1.18-.18-2.23-1.63-2.23a2.86,2.86,0,0,0-2.74,2.12,3.72,3.72,0,0,0-.12,1v3.6h-1v-7.52Z"/><path class="cls-2" d="M294,204.64a2.66,2.66,0,0,1,2.45,1.42h0a5.42,5.42,0,0,1,0-.57v-3.66h1v10.51h-1v-.79a4.21,4.21,0,0,1,0-.54h0a2.72,2.72,0,0,1-2.59,1.51c-2,0-3.28-1.61-3.28-3.95S292,204.64,294,204.64Zm0,7c1.26,0,2.44-.9,2.44-3,0-1.53-.78-3-2.39-3-1.33,0-2.42,1.12-2.42,3s1,3,2.38,3Z"/><path class="cls-2" d="M304,207.7h.42v-.2a1.69,1.69,0,0,0-1.87-1.94,3.66,3.66,0,0,0-2.12.72l-.48-.78a4.33,4.33,0,0,1,2.68-.85,2.56,2.56,0,0,1,2.81,2.89v4.82h-1v-.82a6,6,0,0,1,0-.63h0a2.72,2.72,0,0,1-2.51,1.63,2.33,2.33,0,0,1-2.56-2.23C299.37,207.76,302.67,207.7,304,207.7Zm-1.88,4c1.44,0,2.3-1.5,2.3-2.8v-.33H304c-1.18,0-3.54,0-3.54,1.71a1.49,1.49,0,0,0,1.68,1.42Z"/><path class="cls-2" d="M308.18,205.77h-1v-.85h1v-2.17h1v2.17h1.88v.85H309.2v3.74c0,1.76,1.12,2,1.69,2a1.75,1.75,0,0,0,.34,0v.91a2.68,2.68,0,0,1-.43,0c-.87,0-2.62-.28-2.62-2.8v-3.84Z"/><path class="cls-2" d="M313.06,201.83h1.06v1.27h-1.06Zm0,3h1v7.52h-1v-7.53Z"/><path class="cls-2" d="M320,204.64a3.94,3.94,0,1,1-4,3.9A3.89,3.89,0,0,1,320,204.64Zm0,7a3,3,0,0,0,2.93-3.07,2.93,2.93,0,1,0-5.86,0A3,3,0,0,0,320,211.61Z"/><path class="cls-2" d="M325.87,204.82h1v1.12c0,.33,0,.6,0,.6h0a3.2,3.2,0,0,1,3-1.9c1.86,0,2.51,1.06,2.51,2.92v4.79h-1v-4.52c0-1.18-.18-2.23-1.63-2.23a2.86,2.86,0,0,0-2.74,2.12,3.72,3.72,0,0,0-.12,1v3.6h-1v-7.52Z"/><path class="cls-2" d="M259,415.68h2.8l5.83,8.89A23.49,23.49,0,0,1,269,427h0s-.15-1.47-.15-2.39v-8.89h2.78v15.39h-2.78L263,422.21a23.2,23.2,0,0,1-1.28-2.38h0s.15,1.47.15,2.38v8.87H259Z"/><path class="cls-2" d="M279.93,419.76c3.19,0,4.9,2.32,4.9,5.25,0,.33-.06,1.06-.06,1.06h-7.63a3.15,3.15,0,0,0,3.32,2.93,5.46,5.46,0,0,0,3.19-1.21l1.06,2a6.91,6.91,0,0,1-4.44,1.58,5.67,5.67,0,0,1-5.94-5.79A5.47,5.47,0,0,1,279.93,419.76Zm2.13,4.42a2.13,2.13,0,0,0-2.19-2.3,2.58,2.58,0,0,0-2.65,2.3Z"/><path class="cls-2" d="M285.89,420h2.9l1.93,7.26a9.35,9.35,0,0,1,.22,1.17h0s.11-.59.26-1.17l2-7.24h2.45l2,7.24c.15.58.24,1.17.24,1.17h0s.09-.59.24-1.17l1.93-7.26h2.86l-3.36,11.06h-3.06l-1.86-6.31c-.17-.58-.28-1.19-.28-1.19h0a9.63,9.63,0,0,1-.26,1.19l-1.87,6.31h-3.08Z"/><path class="cls-2" d="M313.82,424.64l-5.12-9h3.17l2.41,4.53c.5,1,.91,2.08.93,2.06h0s.43-1.11.93-2.06l2.38-4.53h3.17l-5.12,9v6.44h-2.8Z"/><path class="cls-2" d="M327.33,419.76a5.8,5.8,0,1,1-6.07,5.79A5.82,5.82,0,0,1,327.33,419.76Zm0,9.24a3.45,3.45,0,1,0-3.3-3.45A3.29,3.29,0,0,0,327.35,429Z"/><path class="cls-2" d="M335.64,420h2.65v1.91a7.61,7.61,0,0,1,0,.78h0a3.8,3.8,0,0,1,3.51-2.84,3.11,3.11,0,0,1,.5,0v2.71a4.8,4.8,0,0,0-.65,0,3.13,3.13,0,0,0-3,2.32,6,6,0,0,0-.24,1.8v4.38h-2.75Z"/><path class="cls-2" d="M344.16,415.68h2.75v8.24h1.37l2.67-3.9H354L350.51,425v0l3.92,6.07h-3.17l-2.93-4.83h-1.43v4.83h-2.75Z"/><path class="cls-2" d="M259.82,447.7h3l3,7.61c.35.91.78,2.25.78,2.25h0s.41-1.34.76-2.25l3-7.61h3l1.24,15.39h-2.78l-.65-8.61c-.07-1,0-2.39,0-2.39h0s-.46,1.5-.82,2.39l-2.49,6H265.4l-2.47-6c-.37-.89-.85-2.41-.85-2.41h0s0,1.39,0,2.41l-.65,8.61h-2.8Z"/><path class="cls-2" d="M283.27,456.16h.37V456c0-1.45-.91-2-2.12-2a5.92,5.92,0,0,0-3,1.06l-1-2a7.46,7.46,0,0,1,4.34-1.37c2.91,0,4.6,1.6,4.6,4.4v6.92h-2.54v-.91a6.94,6.94,0,0,1,0-.78h0a3.58,3.58,0,0,1-3.36,2,3.48,3.48,0,0,1-3.75-3.45C276.72,456.4,281.47,456.16,283.27,456.16Zm-2.1,5.05c1.45,0,2.49-1.56,2.49-2.91V458h-.48c-1.41,0-3.69.2-3.69,1.73A1.48,1.48,0,0,0,281.16,461.21Z"/><path class="cls-2" d="M288.64,464.88a2.41,2.41,0,0,0,1.24.46,2.09,2.09,0,0,0,1.91-1.43l.41-1L287.54,452h3.1l2.32,6.37a13.68,13.68,0,0,1,.41,1.5h0s.17-.87.37-1.45L296,452h3L294,464.77a4.14,4.14,0,0,1-4,2.88,4.25,4.25,0,0,1-2.3-.72Z"/><path class="cls-2" d="M305.45,460.69h3.34v-8.54c0-.52,0-1,0-1h0a3.54,3.54,0,0,1-.67.87l-1.24,1.17-1.65-1.73,3.86-3.71h2.45v13h3.34v2.41h-9.41Z"/><path class="cls-2" d="M316.53,456.05c0-4,2.32-8.61,7.09-8.61a7.08,7.08,0,0,1,3.14.65l-.82,2.41a5.49,5.49,0,0,0-2.17-.48c-2.43,0-3.71,2-4.1,4.12h0a4.14,4.14,0,0,1,2.88-1.08,4.89,4.89,0,0,1,4.94,5.14,5,5,0,0,1-5.07,5.16C319.26,463.36,316.53,460.69,316.53,456.05Zm8.24,2.15a2.67,2.67,0,0,0-2.82-2.84c-1.39,0-2.51.71-2.51,1.67,0,1.93,1.41,3.77,3,3.77A2.36,2.36,0,0,0,324.77,458.2Z"/><path class="cls-2" d="M330.47,454.4H329v-2.19h1.5V449h2.69v3.19h2.51v2.19h-2.51v4.29a2,2,0,0,0,2.19,2.08,2.49,2.49,0,0,0,.5,0v2.41a4.78,4.78,0,0,1-.84.06c-1.54,0-4.6-.46-4.6-4.16Z"/><path class="cls-2" d="M338.17,447.7h2.75V453c0,.54,0,.93,0,.93h0a4.26,4.26,0,0,1,3.82-2.19c2.45,0,3.84,1.28,3.84,4.21v7.11h-2.73v-6.55c0-1.34-.35-2.25-1.76-2.25a3.11,3.11,0,0,0-3,2.3,5,5,0,0,0-.17,1.43v5.07h-2.75Z"/><path class="cls-2" d="M351.64,455.7h6.53v2.41h-6.53Z"/><path class="cls-2" d="M361,460.69h3.34v-8.54c0-.52,0-1,0-1h0a3.54,3.54,0,0,1-.67.87l-1.24,1.17-1.65-1.73,3.86-3.71h2.45v13h3.34v2.41H361Z"/><path class="cls-2" d="M374.39,454.66a3.63,3.63,0,0,1-1.58-3c0-2.12,1.56-4.21,4.94-4.21,2.86,0,5,1.6,5,4.27a6.46,6.46,0,0,1-1.71,3.79,3.71,3.71,0,0,1,2,3.27c0,2.36-2,4.58-5.42,4.58s-5.51-2.08-5.51-4.73A5.22,5.22,0,0,1,374.39,454.66Zm2,1.15a3.54,3.54,0,0,0-1.43,2.6,2.54,2.54,0,0,0,2.65,2.47,2.34,2.34,0,0,0,2.58-2.23C380.15,457.31,378.22,456.7,376.36,455.81Zm2.6-1.32a4.14,4.14,0,0,0,1-2.6c0-1.19-.91-2-2.3-2s-2.15.78-2.15,1.78C375.56,453.12,377.21,453.73,379,454.49Z"/><path class="cls-2" d="M386.2,454.4h-1.43v-2.19h1.5V449H389v3.19h2.51v2.19H389v4.29a2,2,0,0,0,2.19,2.08,2.5,2.5,0,0,0,.5,0v2.41a4.8,4.8,0,0,1-.85.06c-1.54,0-4.6-.46-4.6-4.16Z"/><path class="cls-2" d="M393.9,447.7h2.75V453c0,.54,0,.93,0,.93h0a4.26,4.26,0,0,1,3.82-2.19c2.45,0,3.84,1.28,3.84,4.21v7.11h-2.73v-6.55c0-1.34-.35-2.25-1.76-2.25a3.11,3.11,0,0,0-3,2.3,5,5,0,0,0-.17,1.43v5.07H393.9Z"/><path class="cls-2" d="M407.5,460.3h2.71l-2.08,5.07H406Z"/><path class="cls-2" d="M417.78,461.73c0-5.55,7.2-6.44,7.2-9.5a2.15,2.15,0,0,0-2.34-2.15,3.52,3.52,0,0,0-2.78,1.82l-2.08-1.39a5.7,5.7,0,0,1,5.1-3.08c2.71,0,5,1.65,5,4.55,0,4.94-6.9,5.79-7,8.7h7.2v2.41H417.91A10.8,10.8,0,0,1,417.78,461.73Z"/><path class="cls-2" d="M430.51,455.38c0-4.42,1.37-7.94,5.57-7.94s5.59,3.51,5.59,7.94-1.39,8-5.59,8S430.51,459.8,430.51,455.38Zm8.28,0c0-3-.61-5.36-2.71-5.36s-2.71,2.36-2.71,5.36.61,5.42,2.71,5.42S438.79,458.41,438.79,455.38Z"/><path class="cls-2" d="M444.08,460.69h3.34v-8.54c0-.52,0-1,0-1h0a3.51,3.51,0,0,1-.67.87l-1.24,1.17-1.65-1.73,3.86-3.71h2.45v13h3.34v2.41h-9.41Z"/><path class="cls-2" d="M461.47,451.52a5.8,5.8,0,0,1,.93-1.41v0a8.57,8.57,0,0,1-1.06,0h-6.57V447.7h10.58v2l-6.74,13.44h-2.91Z"/><path class="cls-2" d="M262.18,261s3.7,3.6,8.5,3.6c2.59,0,4.94-1.34,4.94-4.13,0-6.1-16.08-5-16.08-15.5,0-5.67,4.9-9.89,11.42-9.89,6.72,0,10.18,3.65,10.18,3.65l-2.69,5a12.44,12.44,0,0,0-7.54-3c-2.88,0-5.14,1.68-5.14,4.08,0,6,16,4.56,16,15.46,0,5.42-4.13,10-11.23,10a16.5,16.5,0,0,1-11.76-4.66Z"/><path class="cls-2" d="M288.1,250.51h-3.17v-4.85h3.31V238.6h6v7.06h5.57v4.85H294.2V260c0,4,3.17,4.61,4.85,4.61a5.56,5.56,0,0,0,1.1-.1v5.33a10.55,10.55,0,0,1-1.87.14c-3.41,0-10.18-1-10.18-9.22Z"/><path class="cls-2" d="M304.8,245.27h6.1v14.5c0,3,.77,5,3.79,5,4.42,0,6.86-3.89,6.86-8.26V245.27h6.1v24.48H321.8V267a15.56,15.56,0,0,1,.1-1.73h-.1a9.44,9.44,0,0,1-8.5,5.09c-5.23,0-8.5-2.64-8.5-9.31Z"/><path class="cls-2" d="M343.78,244.7c5.38,0,7.06,3.12,7.06,3.12h.1s0-.62,0-1.39V235.67H357v34.08h-5.76v-2a12.45,12.45,0,0,1,.1-1.58h-.1a8.5,8.5,0,0,1-7.68,4.18c-6.62,0-10.85-5.23-10.85-12.82C332.69,249.74,337.3,244.7,343.78,244.7Zm1.15,20.5c3.17,0,6.14-2.3,6.14-7.73,0-3.79-2-7.54-6.1-7.54-3.36,0-6.14,2.74-6.14,7.58C338.84,262.17,341.33,265.2,344.93,265.2Z"/><path class="cls-2" d="M374.4,244.7c7.06,0,10.85,5.14,10.85,11.62,0,.72-.14,2.35-.14,2.35h-16.9c.38,4.27,3.7,6.48,7.34,6.48a12.09,12.09,0,0,0,7.06-2.69l2.35,4.37a15.3,15.3,0,0,1-9.84,3.5c-8.11,0-13.15-5.86-13.15-12.82C362,250,367.11,244.7,374.4,244.7Zm4.7,9.79c-.1-3.31-2.16-5.09-4.85-5.09a5.7,5.7,0,0,0-5.86,5.09Z"/><path class="cls-2" d="M390.29,245.27h5.86v2.83a15.2,15.2,0,0,1-.1,1.68h.1a9.5,9.5,0,0,1,8.69-5.09c5.42,0,8.5,2.83,8.5,9.31v15.75h-6v-14.5c0-3-.77-5-3.89-5a6.76,6.76,0,0,0-6.58,5,10.33,10.33,0,0,0-.43,3.26v11.23h-6.1Z"/><path class="cls-2" d="M420.77,250.51H417.6v-4.85h3.31V238.6h6v7.06h5.57v4.85h-5.57V260c0,4,3.17,4.61,4.85,4.61a5.56,5.56,0,0,0,1.1-.1v5.33a10.55,10.55,0,0,1-1.87.14c-3.41,0-10.18-1-10.18-9.22Z"/><path class="cls-2" d="M278.36,318.62h-12l-2.88,8.74h-6.38l12-34.08h6.48l12,34.08h-6.38Zm-6-19.44s-.77,3.36-1.44,5.28l-3,9.12h8.93l-3-9.12c-.62-1.92-1.34-5.28-1.34-5.28Z"/><path class="cls-2" d="M287.38,302.87h6.43L298.9,318c.48,1.44.82,3.7.87,3.7h.1s.38-2.26.86-3.7l5.09-15.17h6.43l-8.79,24.48h-7.2Z"/><path class="cls-2" d="M315.65,293.27h6v5.42h-6Zm0,9.6h6.1v24.48h-6.1Z"/><path class="cls-2" d="M340.9,312h.82v-.34c0-3.22-2-4.32-4.7-4.32a13.1,13.1,0,0,0-6.72,2.35l-2.3-4.37a16.52,16.52,0,0,1,9.6-3c6.43,0,10.18,3.55,10.18,9.74v15.31h-5.62v-2a15.59,15.59,0,0,1,.1-1.73h-.1a7.93,7.93,0,0,1-7.44,4.32c-4.37,0-8.3-2.74-8.3-7.63C326.4,312.52,336.92,312,340.9,312Zm-4.66,11.19c3.22,0,5.52-3.46,5.52-6.43v-.58h-1.06c-3.12,0-8.16.43-8.16,3.84C332.55,321.64,333.75,323.18,336.25,323.18Z"/><path class="cls-2" d="M355,308.11h-3.17v-4.85h3.31V296.2h6v7.06h5.57v4.85h-5.57v9.5c0,4,3.17,4.61,4.85,4.61a5.58,5.58,0,0,0,1.1-.1v5.33a10.57,10.57,0,0,1-1.87.14c-3.41,0-10.18-1-10.18-9.22Z"/><path class="cls-2" d="M372.05,293.27h6v5.42h-6Zm0,9.6h6.1v24.48h-6.1Z"/><path class="cls-2" d="M396.49,302.3c7.49,0,13.49,5.33,13.49,12.82s-6,12.82-13.44,12.82S383,322.65,383,315.11,389,302.3,396.49,302.3Zm0,20.45a7.64,7.64,0,1,0-7.3-7.63A7.28,7.28,0,0,0,396.53,322.75Z"/><path class="cls-2" d="M414.87,302.87h5.86v2.83a15.05,15.05,0,0,1-.1,1.68h.1a9.5,9.5,0,0,1,8.69-5.09c5.42,0,8.5,2.83,8.5,9.31v15.75h-6v-14.5c0-3-.77-5-3.89-5a6.76,6.76,0,0,0-6.58,5,10.33,10.33,0,0,0-.43,3.26v11.23h-6.1Z"/><path class="cls-2" d="M261.41,350.87h20.4v5.33H267.61v8.93h11.47v5.33H267.61v9.17h15V385H261.41Z"/><path class="cls-2" d="M297.22,376.55a11.65,11.65,0,0,1-.67,1.3l-4.27,7.1h-6.77l8.07-12.39-7.87-12.1h6.91l3.79,6.67c.38.62.82,1.54.82,1.54h.1s.43-.91.82-1.54l3.79-6.67h6.91L301,372.57,309,385h-6.77l-4.27-7.1a11.47,11.47,0,0,1-.67-1.3Z"/><path class="cls-2" d="M313.2,360.47h5.57v1.78a15.2,15.2,0,0,1-.1,1.68h.1s2.11-4,7.87-4c6.63,0,10.85,5.23,10.85,12.82,0,7.78-4.75,12.82-11.19,12.82a8.45,8.45,0,0,1-7-3.36h-.1s.1.86.1,2.11v10.27h-6.1Zm12,19.92c3.36,0,6.14-2.74,6.14-7.58,0-4.66-2.5-7.68-6.1-7.68-3.17,0-6.14,2.3-6.14,7.73C319.11,376.65,321.17,380.4,325.21,380.4Z"/><path class="cls-2" d="M353.24,359.9c7.06,0,10.85,5.14,10.85,11.62,0,.72-.14,2.35-.14,2.35H347c.38,4.27,3.7,6.48,7.34,6.48a12.09,12.09,0,0,0,7.06-2.69L363.8,382a15.29,15.29,0,0,1-9.84,3.5c-8.11,0-13.15-5.86-13.15-12.82C340.8,365.18,345.94,359.9,353.24,359.9Zm4.71,9.79c-.1-3.31-2.16-5.09-4.85-5.09a5.7,5.7,0,0,0-5.86,5.09Z"/><path class="cls-2" d="M378.53,359.9c5.38,0,7.06,3.12,7.06,3.12h.1s0-.62,0-1.39V350.87h6.1V385H386v-2a12.45,12.45,0,0,1,.1-1.58H386a8.5,8.5,0,0,1-7.68,4.18c-6.62,0-10.85-5.23-10.85-12.82C367.44,364.94,372.05,359.9,378.53,359.9Zm1.15,20.5c3.17,0,6.14-2.3,6.14-7.73,0-3.79-2-7.54-6.1-7.54-3.36,0-6.14,2.74-6.14,7.58C373.59,377.37,376.08,380.4,379.68,380.4Z"/><path class="cls-2" d="M398.45,350.87h6v5.42h-6Zm0,9.6h6.1V385h-6.1Z"/><path class="cls-2" d="M412.32,365.71h-3.17v-4.85h3.31V353.8h6v7.06H424v4.85h-5.57v9.5c0,4,3.17,4.61,4.85,4.61a5.61,5.61,0,0,0,1.1-.1v5.33a10.48,10.48,0,0,1-1.87.14c-3.41,0-10.18-1-10.18-9.22Z"/><path class="cls-2" d="M429.36,350.87h6v5.42h-6Zm0,9.6h6.1V385h-6.1Z"/><path class="cls-2" d="M453.79,359.9c7.49,0,13.49,5.33,13.49,12.82s-6,12.82-13.44,12.82-13.49-5.28-13.49-12.82S446.35,359.9,453.79,359.9Zm0,20.45a7.64,7.64,0,1,0-7.3-7.63A7.28,7.28,0,0,0,453.84,380.35Z"/><path class="cls-2" d="M472.18,360.47H478v2.83a15.08,15.08,0,0,1-.1,1.68h.1a9.49,9.49,0,0,1,8.69-5.09c5.42,0,8.5,2.83,8.5,9.31V385h-6v-14.5c0-3-.77-5-3.89-5a6.76,6.76,0,0,0-6.58,5,10.32,10.32,0,0,0-.43,3.26V385h-6.1Z"/><path class="cls-2" d="M638.28,207.07l.59.59L630,216.5l-.59-.59Zm-23.62,23.62.59.59-8.84,8.84-.59-.59ZM591,254.31l.59.59-8.84,8.84-.59-.59Zm-23.62,23.62.59.59-8.84,8.84-.59-.59Zm-23.62,23.62.59.59L535.54,311l-.59-.59Zm-23.62,23.62.59.59-8.84,8.84-.59-.59Z"/><rect class="cls-2" x="516.99" y="477.95" width="5" height="2"/><path class="cls-2" d="M509.12,479.95H501.2v-2h7.92Zm-15.78,0h-7.92v-2h7.92Zm-15.78,0h-7.92v-2h7.92Zm-15.78,0h-7.92v-2h7.92Zm-15.78,0h-7.92v-2H446Zm-15.78,0h-7.92v-2h7.92Zm-15.78,0H406.5v-2h7.92Zm-15.78,0h-7.92v-2h7.92Zm-15.78,0h-7.92v-2h7.92Zm-15.78,0h-7.92v-2h7.92Zm-15.78,0h-7.92v-2h7.92Zm-15.78,0h-7.92v-2h7.92Zm-15.78,0h-7.92v-2h7.92Zm-15.78,0H296v-2h7.92Zm-15.78,0h-7.92v-2h7.92Zm-15.78,0h-7.92v-2h7.92Zm-15.78,0h-7.92v-2h7.92Zm-15.78,0h-7.92v-2h7.92Zm-15.78,0h-7.92v-2H225Zm-15.78,0H201.3v-2h7.92Zm-15.78,0h-7.92v-2h7.92Z"/><rect class="cls-2" x="172.65" y="477.95" width="5" height="2"/></g></g></svg>