<svg xmlns="http://www.w3.org/2000/svg" viewBox="0 0 792 612"><defs><style>.cls-1{fill:#3155a4;}.cls-2{fill:#001f5b;}.cls-3{fill:#fff;}.cls-4{fill:#00b0df;}.cls-5{fill:none;stroke:#fff;stroke-miterlimit:10;}</style></defs><title>print-2_1</title><g id="Layer_2" data-name="Layer 2"><g id="Layer_3" data-name="Layer 3"><rect class="cls-1" width="792" height="612"/><path class="cls-2" d="M474.13,162.27l0,0,3.79-3.79a.16.16,0,0,1,.16,0l5.58,2a.16.16,0,0,0,.16,0l.29-.29a.16.16,0,0,0,0-.24l-4.36-2.92a.16.16,0,0,1,0-.24l2.73-2.73a.16.16,0,0,1,.18,0l1.66.8a.16.16,0,0,0,.18,0l.22-.22a.15.15,0,0,0,0-.23l-2.6-1.93,0,0-1.93-2.6a.16.16,0,0,0-.23,0l-.23.23a.16.16,0,0,0,0,.18l.8,1.66a.16.16,0,0,1,0,.18l-2.73,2.73a.16.16,0,0,1-.24,0l-2.92-4.36a.16.16,0,0,0-.24,0l-.29.29a.16.16,0,0,0,0,.16l2,5.58a.16.16,0,0,1,0,.16l-3.79,3.79,0,0a1.8,1.8,0,0,0-.39,2.45A1.83,1.83,0,0,0,474.13,162.27Z"/><path class="cls-2" d="M499.11,162.27l0,0,3.79-3.79a.16.16,0,0,1,.16,0l5.58,2a.16.16,0,0,0,.16,0l.29-.29a.16.16,0,0,0,0-.24l-4.36-2.92a.16.16,0,0,1,0-.24l2.73-2.73a.16.16,0,0,1,.18,0l1.66.8a.16.16,0,0,0,.18,0l.22-.22a.15.15,0,0,0,0-.23l-2.6-1.93,0,0-1.93-2.6a.16.16,0,0,0-.23,0l-.23.23a.16.16,0,0,0,0,.18l.8,1.66a.16.16,0,0,1,0,.18l-2.73,2.73a.16.16,0,0,1-.24,0l-2.92-4.36a.16.16,0,0,0-.24,0l-.29.29a.16.16,0,0,0,0,.16l2,5.58a.16.16,0,0,1,0,.16l-3.79,3.79,0,0a1.8,1.8,0,0,0-.39,2.45A1.83,1.83,0,0,0,499.11,162.27Z"/><path class="cls-2" d="M524.08,162.27l0,0,3.79-3.79a.16.16,0,0,1,.16,0l5.58,2a.16.16,0,0,0,.16,0l.29-.29a.16.16,0,0,0,0-.24l-4.36-2.92a.16.16,0,0,1,0-.24l2.73-2.73a.16.16,0,0,1,.18,0l1.66.8a.16.16,0,0,0,.18,0l.22-.22a.15.15,0,0,0,0-.23l-2.6-1.93,0,0-1.93-2.6a.16.16,0,0,0-.23,0l-.23.23a.16.16,0,0,0,0,.18l.8,1.66a.16.16,0,0,1,0,.18l-2.73,2.73a.16.16,0,0,1-.24,0l-2.92-4.36a.16.16,0,0,0-.24,0l-.29.29a.16.16,0,0,0,0,.16l2,5.58a.16.16,0,0,1,0,.16l-3.79,3.79,0,0a1.8,1.8,0,0,0-.39,2.45A1.83,1.83,0,0,0,524.08,162.27Z"/><path class="cls-2" d="M549,162.27l0,0,3.79-3.79a.16.16,0,0,1,.16,0l5.58,2a.16.16,0,0,0,.16,0l.29-.29a.16.16,0,0,0,0-.24l-4.36-2.92a.16.16,0,0,1,0-.24l2.73-2.73a.16.16,0,0,1,.18,0l1.66.8a.16.16,0,0,0,.18,0l.22-.22a.15.15,0,0,0,0-.23l-2.6-1.93,0,0-1.93-2.6a.16.16,0,0,0-.23,0l-.23.23a.16.16,0,0,0,0,.18l.8,1.66a.16.16,0,0,1,0,.18l-2.73,2.73a.16.16,0,0,1-.24,0l-2.92-4.36a.16.16,0,0,0-.24,0l-.29.29a.16.16,0,0,0,0,.16l2,5.58a.16.16,0,0,1,0,.16L547,160.21l0,0a1.8,1.8,0,0,0-.39,2.45A1.83,1.83,0,0,0,549,162.27Z"/><path class="cls-2" d="M594.05,455.15a3,3,0,0,1-2.12-5.12,3.09,3.09,0,0,1,4.24,0,3,3,0,0,1-2.12,5.12Z"/><path class="cls-2" d="M684,452.15a3,3,0,0,1,3-3h0a3,3,0,0,1,3,3h0a3,3,0,0,1-3,3h0A3,3,0,0,1,684,452.15Zm-31,0a3,3,0,0,1,3-3h0a3,3,0,0,1,3,3h0a3,3,0,0,1-3,3h0A3,3,0,0,1,653,452.15Zm-31,0a3,3,0,0,1,3-3h0a3,3,0,0,1,3,3h0a3,3,0,0,1-3,3h0A3,3,0,0,1,622,452.15Z"/><path class="cls-2" d="M718,455.15a3,3,0,0,1-2.13-5.12,3.29,3.29,0,0,1,.46-.38,2.57,2.57,0,0,1,.52-.27,2.25,2.25,0,0,1,.56-.17,3,3,0,1,1,.59,5.94Z"/><path class="cls-2" d="M594.05,481.26a3,3,0,0,1-.59-.06,3.65,3.65,0,0,1-.56-.17,3.18,3.18,0,0,1-.51-.28,2.78,2.78,0,0,1-.46-.37,3,3,0,0,1,0-4.24,2.84,2.84,0,0,1,.46-.38,3.1,3.1,0,0,1,.51-.27,2.78,2.78,0,0,1,.56-.17,3,3,0,1,1,.59,5.94Z"/><path class="cls-2" d="M684,478.26a3,3,0,0,1,3-3h0a3,3,0,0,1,3,3h0a3,3,0,0,1-3,3h0A3,3,0,0,1,684,478.26Zm-31,0a3,3,0,0,1,3-3h0a3,3,0,0,1,3,3h0a3,3,0,0,1-3,3h0A3,3,0,0,1,653,478.26Zm-31,0a3,3,0,0,1,3-3h0a3,3,0,0,1,3,3h0a3,3,0,0,1-3,3h0A3,3,0,0,1,622,478.26Z"/><path class="cls-2" d="M718,481.26a3,3,0,0,1-3-3,3.87,3.87,0,0,1,.05-.59,2.81,2.81,0,0,1,.18-.56,2.88,2.88,0,0,1,.27-.52,3.3,3.3,0,0,1,.37-.45,3.11,3.11,0,0,1,4.25,0,2.71,2.71,0,0,1,.37.45,3.74,3.74,0,0,1,.28.52,3.6,3.6,0,0,1,.17.56,3.87,3.87,0,0,1,.05.59,3,3,0,0,1-3,3Z"/><path class="cls-2" d="M594.05,507.37a3,3,0,0,1-2.12-.88,2.76,2.76,0,0,1-.37-.46,3.18,3.18,0,0,1-.28-.51,3.66,3.66,0,0,1-.17-.57,2.85,2.85,0,0,1-.06-.58,3,3,0,0,1,.06-.59,3.54,3.54,0,0,1,.17-.56,3.77,3.77,0,0,1,.28-.52,3.14,3.14,0,0,1,.37-.45,2.34,2.34,0,0,1,.46-.37,2.57,2.57,0,0,1,.51-.28,2.81,2.81,0,0,1,.56-.17,3,3,0,0,1,2.71.82,2.6,2.6,0,0,1,.37.45,3,3,0,0,1,.28.52,2.81,2.81,0,0,1,.17.56,3,3,0,0,1,.06.59,2.85,2.85,0,0,1-.06.58,2.91,2.91,0,0,1-.17.57,2.57,2.57,0,0,1-.28.51,2.34,2.34,0,0,1-.37.46A3,3,0,0,1,594.05,507.37Z"/><path class="cls-2" d="M684,504.37a3,3,0,0,1,3-3h0a3,3,0,0,1,3,3h0a3,3,0,0,1-3,3h0A3,3,0,0,1,684,504.37Zm-31,0a3,3,0,0,1,3-3h0a3,3,0,0,1,3,3h0a3,3,0,0,1-3,3h0A3,3,0,0,1,653,504.37Zm-31,0a3,3,0,0,1,3-3h0a3,3,0,0,1,3,3h0a3,3,0,0,1-3,3h0A3,3,0,0,1,622,504.37Z"/><path class="cls-2" d="M718,507.37a3,3,0,0,1-2.13-.88,3.4,3.4,0,0,1-.37-.46,3.18,3.18,0,0,1-.28-.51,3.72,3.72,0,0,1-.17-.57,2.85,2.85,0,0,1-.06-.58,3,3,0,0,1,.06-.59,3.6,3.6,0,0,1,.17-.56,3.77,3.77,0,0,1,.28-.52,4,4,0,0,1,.37-.45,3,3,0,0,1,2.71-.82,2.81,2.81,0,0,1,.56.17,2.63,2.63,0,0,1,.52.28,2.66,2.66,0,0,1,.46.37,4.07,4.07,0,0,1,.37.45,3.77,3.77,0,0,1,.28.52,3.6,3.6,0,0,1,.17.56,2.94,2.94,0,0,1,.05.59,2.84,2.84,0,0,1-.05.58,3.72,3.72,0,0,1-.17.57,3.18,3.18,0,0,1-.28.51,3.43,3.43,0,0,1-.37.46,3.22,3.22,0,0,1-.46.37,3.26,3.26,0,0,1-.52.28,3.54,3.54,0,0,1-.56.17A2.85,2.85,0,0,1,718,507.37Z"/><path class="cls-2" d="M594.05,533.48a2.85,2.85,0,0,1-.58-.06,2.91,2.91,0,0,1-.57-.17,2.57,2.57,0,0,1-.51-.28,2.34,2.34,0,0,1-.46-.37,3.14,3.14,0,0,1-.37-.45,3.77,3.77,0,0,1-.28-.52,3.54,3.54,0,0,1-.17-.56,3,3,0,0,1-.06-.59,3,3,0,0,1,.88-2.12,3.09,3.09,0,0,1,4.24,0,3,3,0,0,1,.88,2.12,3,3,0,0,1-.06.59,2.81,2.81,0,0,1-.17.56,3,3,0,0,1-.28.52,2.6,2.6,0,0,1-.37.45A3,3,0,0,1,594.05,533.48Z"/><path class="cls-2" d="M684,530.48a3,3,0,0,1,3-3h0a3,3,0,0,1,3,3h0a3,3,0,0,1-3,3h0A3,3,0,0,1,684,530.48Zm-31,0a3,3,0,0,1,3-3h0a3,3,0,0,1,3,3h0a3,3,0,0,1-3,3h0A3,3,0,0,1,653,530.48Zm-31,0a3,3,0,0,1,3-3h0a3,3,0,0,1,3,3h0a3,3,0,0,1-3,3h0A3,3,0,0,1,622,530.48Z"/><path class="cls-2" d="M718,533.48a2.88,2.88,0,0,1-.59-.06,2.81,2.81,0,0,1-.56-.17,2.63,2.63,0,0,1-.52-.28,2.66,2.66,0,0,1-.46-.37,4,4,0,0,1-.37-.45,2.9,2.9,0,0,1-.27-.52,2.81,2.81,0,0,1-.18-.56,3.88,3.88,0,0,1-.05-.59,3,3,0,0,1,.87-2.12,3.22,3.22,0,0,1,.46-.37,3.26,3.26,0,0,1,.52-.28,3.54,3.54,0,0,1,.56-.17,3,3,0,0,1,3.58,2.94,3.88,3.88,0,0,1-.05.59,2.81,2.81,0,0,1-.18.56,2.9,2.9,0,0,1-.27.52,4.07,4.07,0,0,1-.37.45A3,3,0,0,1,718,533.48Z"/><path class="cls-2" d="M182.17,488.79a3,3,0,0,1,3,3h0a3,3,0,0,1-3,3h0a3,3,0,0,1-3-3h0A3,3,0,0,1,182.17,488.79Zm0-31a3,3,0,0,1,3,3h0a3,3,0,0,1-3,3h0a3,3,0,0,1-3-3h0A3,3,0,0,1,182.17,457.8Z"/><path class="cls-2" d="M179.17,522.79a3,3,0,0,1,3-3,3.87,3.87,0,0,1,.59.05,2.81,2.81,0,0,1,.56.18,2.88,2.88,0,0,1,.52.27,3.3,3.3,0,0,1,.45.37,3.11,3.11,0,0,1,0,4.25,2.71,2.71,0,0,1-.45.37,3.74,3.74,0,0,1-.52.28,3.6,3.6,0,0,1-.56.17,3.87,3.87,0,0,1-.59.05,3,3,0,0,1-3-3Z"/><path class="cls-2" d="M156.06,488.79a3,3,0,0,1,3,3h0a3,3,0,0,1-3,3h0a3,3,0,0,1-3-3h0A3,3,0,0,1,156.06,488.79Zm0-31a3,3,0,0,1,3,3h0a3,3,0,0,1-3,3h0a3,3,0,0,1-3-3h0A3,3,0,0,1,156.06,457.8Z"/><path class="cls-2" d="M153.06,522.79a3,3,0,0,1,.88-2.13,3.4,3.4,0,0,1,.46-.37,3.18,3.18,0,0,1,.51-.28,3.72,3.72,0,0,1,.57-.17,2.85,2.85,0,0,1,.58-.06,3,3,0,0,1,.59.06,3.6,3.6,0,0,1,.56.17,3.77,3.77,0,0,1,.52.28,4,4,0,0,1,.45.37,3,3,0,0,1,.82,2.71,2.81,2.81,0,0,1-.17.56,2.63,2.63,0,0,1-.28.52,2.66,2.66,0,0,1-.37.46,4.07,4.07,0,0,1-.45.37,3.77,3.77,0,0,1-.52.28,3.6,3.6,0,0,1-.56.17,2.94,2.94,0,0,1-.59.05,2.84,2.84,0,0,1-.58-.05,3.72,3.72,0,0,1-.57-.17,3.18,3.18,0,0,1-.51-.28,3.43,3.43,0,0,1-.46-.37,3.22,3.22,0,0,1-.37-.46,3.26,3.26,0,0,1-.28-.52,3.54,3.54,0,0,1-.17-.56A2.85,2.85,0,0,1,153.06,522.79Z"/><path class="cls-2" d="M129.95,488.79a3,3,0,0,1,3,3h0a3,3,0,0,1-3,3h0a3,3,0,0,1-3-3h0A3,3,0,0,1,129.95,488.79Zm0-31a3,3,0,0,1,3,3h0a3,3,0,0,1-3,3h0a3,3,0,0,1-3-3h0A3,3,0,0,1,129.95,457.8Z"/><path class="cls-2" d="M126.95,522.79a2.88,2.88,0,0,1,.06-.59,2.81,2.81,0,0,1,.17-.56,2.63,2.63,0,0,1,.28-.52,2.66,2.66,0,0,1,.37-.46,4,4,0,0,1,.45-.37,2.9,2.9,0,0,1,.52-.27,2.81,2.81,0,0,1,.56-.18,3.88,3.88,0,0,1,.59-.05,3,3,0,0,1,2.12.87,3.22,3.22,0,0,1,.37.46,3.26,3.26,0,0,1,.28.52,3.54,3.54,0,0,1,.17.56,3,3,0,0,1-2.94,3.58,3.88,3.88,0,0,1-.59-.05,2.81,2.81,0,0,1-.56-.18,2.9,2.9,0,0,1-.52-.27,4.07,4.07,0,0,1-.45-.37A3,3,0,0,1,126.95,522.79Z"/><path class="cls-2" d="M178.81,196.59v-10c0-8.84,5.15-14.5,14-14.5s14.11,5.66,14.11,14.5v10ZM201,186.88c0-4.76-2.83-7.67-8.21-7.67s-8.1,3-8.1,7.67v2.83H201Z"/><path class="cls-2" d="M201,153.36v8.77l5.9,1.69v7.07l-28.1-9.55V154.1l28.1-9.55v7.08Zm-15.8,4.4s3.07.63,4.83,1.14l5.46,1.61V155L190,156.54c-1.77.51-4.83,1.14-4.83,1.14Z"/><path class="cls-2" d="M195.39,137.36l-16.59,9.28v-7.82l6.76-3.18c1.93-.9,4-1.69,4-1.69v-.08s-2.12-.79-4-1.69L178.81,129v-7.82l16.59,9.28h11.52v6.88Z"/><path class="cls-2" d="M203.88,110.48c-10.38,0-12.22-12.15-16.27-12.15a2.78,2.78,0,0,0-2.79,3c0,2.67,3,4.17,3,4.17l-3.42,5.11a10.84,10.84,0,0,1-6.05-9.91c0-4.6,2.63-9.59,8.61-9.59,8.77,0,10.46,11.32,14.07,11.52V90.71h5.9v19.46A17.24,17.24,0,0,1,203.88,110.48Z"/><path class="cls-3" d="M162,181.59v-10c0-8.84,5.15-14.5,14-14.5s14.11,5.66,14.11,14.5v10Zm22.21-9.71c0-4.76-2.83-7.67-8.21-7.67s-8.1,3-8.1,7.67v2.83h16.31Z"/><path class="cls-3" d="M184.18,138.36v8.77l5.9,1.69v7.07L162,146.34V139.1l28.1-9.55v7.08Zm-15.8,4.4s3.07.63,4.83,1.14l5.46,1.61V140l-5.46,1.57c-1.77.51-4.83,1.14-4.83,1.14Z"/><path class="cls-3" d="M178.56,122.36,162,131.64v-7.82l6.76-3.18c1.93-.9,4-1.69,4-1.69v-.08s-2.12-.79-4-1.69L162,114v-7.82l16.59,9.28h11.52v6.88Z"/><path class="cls-3" d="M187,95.48c-10.38,0-12.22-12.15-16.27-12.15a2.78,2.78,0,0,0-2.79,3c0,2.67,3,4.17,3,4.17l-3.42,5.11a10.84,10.84,0,0,1-6.05-9.91c0-4.6,2.63-9.59,8.61-9.59,8.76,0,10.46,11.32,14.07,11.52V75.71h5.9V95.17A17.25,17.25,0,0,1,187,95.48Z"/><path class="cls-3" d="M277,152.29h-5.53l-1.33,4h-3l5.55-15.76h3l5.55,15.76h-3Zm-2.77-9s-.36,1.55-.67,2.44l-1.4,4.22h4.13l-1.4-4.22c-.29-.89-.62-2.44-.62-2.44Z"/><path class="cls-3" d="M283.39,145h2.82v11.32h-2.82Zm0-4.44h2.8v2.51h-2.8Z"/><path class="cls-3" d="M289.87,145h2.71v2a7.61,7.61,0,0,1,0,.8h0a3.9,3.9,0,0,1,3.6-2.91,3.33,3.33,0,0,1,.51,0v2.78a4.82,4.82,0,0,0-.67,0,3.21,3.21,0,0,0-3.09,2.38,6.06,6.06,0,0,0-.25,1.84v4.49h-2.82Z"/><path class="cls-3" d="M299.15,145h2.57v.82a7.1,7.1,0,0,1,0,.78h0a4.05,4.05,0,0,1,3.64-1.86c3.06,0,5,2.42,5,5.93s-2.2,5.93-5.17,5.93A3.91,3.91,0,0,1,302,155h0a9.67,9.67,0,0,1,0,1v4.75h-2.82Zm5.55,9.21c1.55,0,2.84-1.26,2.84-3.51s-1.15-3.55-2.82-3.55c-1.46,0-2.84,1.07-2.84,3.57C301.88,152.49,302.83,154.22,304.69,154.22Z"/><path class="cls-3" d="M318.64,144.75a5.94,5.94,0,1,1-6.22,5.93A6,6,0,0,1,318.64,144.75Zm0,9.46a3.53,3.53,0,1,0-3.37-3.53A3.37,3.37,0,0,0,318.66,154.21Z"/><path class="cls-3" d="M327.69,145h2.71v2a7.64,7.64,0,0,1,0,.8h0a3.9,3.9,0,0,1,3.6-2.91,3.19,3.19,0,0,1,.51,0v2.78a4.82,4.82,0,0,0-.67,0,3.21,3.21,0,0,0-3.09,2.38,6.06,6.06,0,0,0-.25,1.84v4.49h-2.82Z"/><path class="cls-3" d="M337.46,147.44H336V145.2h1.53v-3.26h2.75v3.26h2.57v2.24h-2.58v4.4a2,2,0,0,0,2.24,2.13,2.55,2.55,0,0,0,.51,0v2.46a4.88,4.88,0,0,1-.87.07c-1.58,0-4.71-.47-4.71-4.26Z"/><path class="cls-3" d="M271.24,177.74a3.56,3.56,0,0,1,3.63,3.61,3.67,3.67,0,0,1-.83,2.33l.84.8-.58.62-.82-.82a3.53,3.53,0,0,1-2.24.76,3.61,3.61,0,0,1-3.62-3.69A3.56,3.56,0,0,1,271.24,177.74Zm0,6.39a2.56,2.56,0,0,0,1.53-.52l-.83-.81.58-.62.81.82a2.84,2.84,0,0,0,.52-1.65,2.61,2.61,0,1,0-5.21,0A2.65,2.65,0,0,0,271.24,184.13Z"/><path class="cls-3" d="M276.4,179.86h1v3c0,.7.14,1.26.95,1.26a1.74,1.74,0,0,0,1.64-1.91v-2.37h1v5.06H280v-.67a3.24,3.24,0,0,1,0-.37h0a2,2,0,0,1-1.86,1.16c-1.14,0-1.73-.6-1.73-1.94Z"/><path class="cls-3" d="M284.87,179.74a2.15,2.15,0,0,1,2.19,2.37c0,.13,0,.42,0,.42h-3.69a1.65,1.65,0,0,0,1.74,1.67,2.42,2.42,0,0,0,1.5-.59l.4.71a3,3,0,0,1-2,.72,2.58,2.58,0,0,1-2.68-2.65A2.48,2.48,0,0,1,284.87,179.74Zm1.2,2.06a1.19,1.19,0,0,0-1.22-1.29,1.45,1.45,0,0,0-1.48,1.29Z"/><path class="cls-3" d="M290.67,179.75a2.15,2.15,0,0,1,2.19,2.37c0,.13,0,.42,0,.42h-3.69a1.65,1.65,0,0,0,1.74,1.67,2.41,2.41,0,0,0,1.5-.59l.4.71a3,3,0,0,1-2,.72,2.58,2.58,0,0,1-2.68-2.65A2.48,2.48,0,0,1,290.67,179.75Zm1.2,2.06a1.19,1.19,0,0,0-1.22-1.29,1.45,1.45,0,0,0-1.48,1.29Z"/><path class="cls-3" d="M294.28,179.87h.94v.67a3.47,3.47,0,0,1,0,.37h0a2.06,2.06,0,0,1,1.9-1.16c1.19,0,1.74.65,1.74,1.94v3.24h-1v-3c0-.71-.15-1.27-1-1.27a1.66,1.66,0,0,0-1.6,1.24,2.37,2.37,0,0,0-.08.68v2.37h-1Z"/><path class="cls-3" d="M300.62,183.62a2.17,2.17,0,0,0,1.45.59c.42,0,.84-.22.84-.63,0-.93-2.6-.74-2.6-2.39,0-.92.82-1.44,1.83-1.44a2.27,2.27,0,0,1,1.63.56l-.39.73a1.85,1.85,0,0,0-1.25-.45c-.42,0-.83.18-.83.62,0,.91,2.6.71,2.6,2.37,0,.84-.72,1.47-1.83,1.47a2.72,2.72,0,0,1-1.92-.74Z"/><path class="cls-3" d="M305.41,183.88h1l-.84,2.06h-.77Z"/><path class="cls-3" d="M311.1,177.87h1l3.14,4.59c.26.38.59,1,.59,1h0s-.07-.63-.07-1v-4.59h1v7.06h-1l-3.15-4.58c-.26-.39-.59-1-.59-1h0s.07.63.07,1v4.58h-1Z"/><path class="cls-3" d="M320.4,181.94,318,177.87h1.12l1.31,2.32c.22.39.43.89.43.89h0s.21-.49.43-.89l1.29-2.32h1.12l-2.36,4.07v3h-1Z"/><path class="cls-3" d="M271.75,91.67h4.75v29.76h15.17v4.13H271.74Z"/><path class="cls-3" d="M307.51,118.75h-8.94l-2.35,6.82h-3.43l8.54-23.72h3.49l8.53,23.72H309.9ZM303,105.11s-.54,2.15-.94,3.36L299.45,116h7.19L304,108.47c-.4-1.21-.91-3.36-.91-3.36Z"/><path class="cls-3" d="M333.27,91.11c8.11,0,12.34,4.08,12.34,4.08l-2.4,3.55a15.6,15.6,0,0,0-9.55-3.31c-8,0-12.77,5.8-12.77,13.05,0,7.87,5.37,13.3,12.48,13.3a13.85,13.85,0,0,0,9.6-4.22v-4.9h-5.52v-4.13h9.84v17H343.1v-2.11c0-.72,0-1.44,0-1.44h-.1a14.6,14.6,0,0,1-10.42,4.13c-9.12,0-16.66-7.2-16.65-17.57A17.07,17.07,0,0,1,333.27,91.11Z"/><path class="cls-3" d="M353,101.86h3.33v15.32c0,3.63,2.35,5.75,6,5.75s6-2.12,6-5.81V101.87h3.33v15.32c0,5.27-3.8,8.8-9.34,8.8s-9.34-3.53-9.34-8.81Z"/><path class="cls-3" d="M389.32,118.77h-8.94L378,125.59H374.6l8.54-23.72h3.49l8.53,23.72H391.7Zm-4.46-13.64s-.54,2.15-.94,3.36L381.26,116h7.19l-2.62-7.53c-.4-1.21-.91-3.36-.91-3.36Z"/><path class="cls-3" d="M398.66,101.87h7.26a12,12,0,0,1,4.44.54c2.42.91,4,3.29,4,6.42a6.51,6.51,0,0,1-4.27,6.42v.07a6.82,6.82,0,0,1,.71,1.08l5,9.21h-3.76l-5-9.44H402v9.44h-3.33Zm8.09,11.39A3.94,3.94,0,0,0,411,109a3.88,3.88,0,0,0-1.88-3.66,6.54,6.54,0,0,0-3.26-.54H402v8.5Z"/><path class="cls-3" d="M420.2,101.88h7.86c7.26,0,12,4.34,12,11.83s-4.77,11.89-12,11.89H420.2Zm7.62,20.83c5.34,0,8.84-3.16,8.84-9s-3.53-8.94-8.83-8.94h-4.3v17.94Z"/><path class="cls-3" d="M445.06,101.89h3.33v23.72h-3.33Z"/><path class="cls-3" d="M466.6,118.79h-8.94l-2.35,6.82h-3.43l8.54-23.72h3.49l8.53,23.72H469Zm-4.47-13.64s-.54,2.15-.94,3.36L458.53,116h7.19l-2.62-7.53c-.4-1.21-.91-3.36-.91-3.36Z"/><path class="cls-4" d="M136.16,490.57a8.35,8.35,0,0,1-6.11-2.48c-2.29-2.29-2.23-5.12-2.23-9s-.06-6.75,2.23-9a8.35,8.35,0,0,1,6.11-2.48c4.23,0,7.54,2.42,8.34,7.16H140a3.75,3.75,0,0,0-3.82-3.22,3.67,3.67,0,0,0-2.83,1.18c-.86,1-1.11,2-1.11,6.4s.25,5.44,1.11,6.4a3.66,3.66,0,0,0,2.83,1.18,3.75,3.75,0,0,0,3.82-3.21h4.49A8,8,0,0,1,136.16,490.57Z"/><path class="cls-4" d="M160.25,488.54a6.87,6.87,0,0,1-5.16,2,6.8,6.8,0,0,1-5.12-2c-1.5-1.56-1.88-3.44-1.88-6.46s.38-4.87,1.88-6.43a6.8,6.8,0,0,1,5.13-2,6.87,6.87,0,0,1,5.16,2c1.5,1.56,1.88,3.44,1.88,6.43S161.75,487,160.25,488.54ZM157,478.06a2.62,2.62,0,0,0-1.94-.73,2.54,2.54,0,0,0-1.91.73c-.86.86-1,2.29-1,4s.09,3.18,1,4a2.54,2.54,0,0,0,1.91.73,2.62,2.62,0,0,0,1.94-.73c.86-.86,1-2.32,1-4S157.9,478.92,157,478.06Z"/><path class="cls-4" d="M171.55,490.39a4.51,4.51,0,0,1-4.84-4.74V467.72h4.14v17.67c0,1,.41,1.5,1.46,1.5h1.59v3.5Z"/><path class="cls-4" d="M182.69,490.39a4.51,4.51,0,0,1-4.84-4.74V467.72H182v17.67c0,1,.41,1.5,1.46,1.5H185v3.5Z"/><path class="cls-4" d="M191.6,483.39a3.42,3.42,0,0,0,3.63,3.69,4.59,4.59,0,0,0,3.76-1.56L201.5,488a7.9,7.9,0,0,1-6.3,2.61c-3.92,0-7.67-1.79-7.67-8.5,0-5.41,2.93-8.47,7.23-8.46,4.62,0,7.22,3.38,7.22,7.93v1.85Zm5.92-4.61a3.09,3.09,0,0,0-5.54,0,4.58,4.58,0,0,0-.38,1.78h6.3A4.54,4.54,0,0,0,197.52,478.77Z"/><path class="cls-4" d="M212.31,496.67a7.76,7.76,0,0,1-6-2.17l2.58-2.61a4.23,4.23,0,0,0,3.25,1.27,3.14,3.14,0,0,0,3.34-3.44V488a4.86,4.86,0,0,1-3.95,1.65,5.52,5.52,0,0,1-3.95-1.46c-1.56-1.56-1.69-3.69-1.69-6.59s.13-5,1.69-6.56a5.59,5.59,0,0,1,4-1.46,4.85,4.85,0,0,1,4,1.75v-1.56h4v16C219.6,493.77,216.77,496.67,212.31,496.67Zm.42-19.32c-2.45,0-2.71,2.1-2.71,4.3s.25,4.33,2.71,4.33,2.74-2.13,2.74-4.33S215.18,477.35,212.73,477.35Z"/><path class="cls-4" d="M228.29,483.4a3.42,3.42,0,0,0,3.63,3.69,4.59,4.59,0,0,0,3.76-1.56l2.51,2.45a7.9,7.9,0,0,1-6.3,2.61c-3.92,0-7.67-1.79-7.67-8.5,0-5.41,2.93-8.47,7.23-8.46,4.62,0,7.22,3.38,7.22,7.93v1.85Zm5.92-4.61a3.09,3.09,0,0,0-5.54,0,4.58,4.58,0,0,0-.38,1.78h6.3A4.55,4.55,0,0,0,234.21,478.78Z"/><path class="cls-4" d="M150.32,452.18h-7.41l-16.74-50.75h10.26l10.18,33.07,10.2-33.07h10.33Z"/><path class="cls-4" d="M188.73,452.19V449c-2.5,2.49-4.85,3.56-9.12,3.56s-7.27-1.07-9.48-3.28a11.9,11.9,0,0,1-3.06-8.34c0-5.92,4.07-10.76,12.69-10.76h8.77v-1.85c0-4.06-2-5.84-6.91-5.85-3.56,0-5.2.85-7.13,3.06l-5.91-5.77c3.64-4,7.2-5.13,13.4-5.13,10.41,0,15.82,4.42,15.82,13.12v24.45Zm-.21-15.68h-7.34c-3.35,0-5.2,1.57-5.2,4.21s1.71,4.28,5.34,4.28c2.57,0,4.21-.21,5.85-1.78,1-.93,1.35-2.42,1.36-4.7Z"/><path class="cls-4" d="M229.15,452.2v-3.42a12.7,12.7,0,0,1-9.27,3.85,12.06,12.06,0,0,1-8.77-3.28c-3-3-3.78-6.49-3.77-10.55V415.06h9.27v22.45c0,5.06,3.21,6.77,6.13,6.77s6.2-1.71,6.2-6.77V415.06h9.27V452.2Z"/><path class="cls-4" d="M261.43,466.25c-5.7,0-9.62-1.14-13.47-4.85l5.78-5.84a9.45,9.45,0,0,0,7.27,2.85c5.56,0,7.49-3.92,7.49-7.7v-3.78a10.88,10.88,0,0,1-8.84,3.7,12.35,12.35,0,0,1-8.84-3.28c-3.49-3.49-3.78-8.27-3.77-14.75s.29-11.19,3.78-14.68a12.53,12.53,0,0,1,8.91-3.28,10.87,10.87,0,0,1,9.05,3.92v-3.49h9v35.78C277.75,459.77,271.41,466.25,261.43,466.25Zm.94-43.26c-5.49,0-6.06,4.7-6.06,9.62s.57,9.69,6.06,9.7,6.13-4.77,6.13-9.69S267.85,423,262.37,423Z"/><path class="cls-4" d="M309.47,452.22V429.55c0-4.92-3.13-6.56-6.06-6.56s-6,1.71-6,6.56v22.67h-9.27V401.47h9.27v17a12.27,12.27,0,0,1,8.91-3.85c8.13,0,12.4,5.71,12.4,13.54v24Z"/><path class="cls-4" d="M350.31,452.23V429.78c0-5.06-3.21-6.77-6.13-6.77s-6.2,1.71-6.2,6.77v22.45h-9.27V415.09h9.05v3.42a12.71,12.71,0,0,1,9.27-3.85,12.06,12.06,0,0,1,8.77,3.28c3,3,3.78,6.49,3.78,10.55v23.73Z"/><path class="cls-3" d="M131.32,507.14a3.74,3.74,0,1,1-3.92,3.74A3.76,3.76,0,0,1,131.32,507.14Zm0,6a2.23,2.23,0,1,0-2.13-2.23A2.12,2.12,0,0,0,131.33,513.11Z"/><path class="cls-3" d="M137.39,508.84h-.88v-1.41h.88v-.32c0-2.34,1.92-2.65,2.91-2.65a3.9,3.9,0,0,1,.6,0V506a2.23,2.23,0,0,0-.36,0c-.5,0-1.37.13-1.37,1.16v.28h1.53v1.41h-1.53v5.62h-1.78Z"/><path class="cls-3" d="M151.21,511.91h-3.49l-.84,2.55H145l3.5-9.94h1.89l3.5,9.95h-1.86Zm-1.75-5.67s-.22,1-.42,1.54l-.88,2.66h2.61l-.88-2.66c-.18-.56-.39-1.54-.39-1.54Z"/><path class="cls-3" d="M158.38,507.15a3.09,3.09,0,0,1,3.17,3.39c0,.21,0,.69,0,.69h-4.93a2,2,0,0,0,2.14,1.89,3.53,3.53,0,0,0,2.06-.78l.69,1.27a4.47,4.47,0,0,1-2.87,1,3.66,3.66,0,0,1-3.84-3.74A3.53,3.53,0,0,1,158.38,507.15Zm1.37,2.86a1.38,1.38,0,0,0-1.41-1.48,1.66,1.66,0,0,0-1.71,1.48Z"/><path class="cls-3" d="M163.36,507.32h1.71v1.23a5,5,0,0,1,0,.5h0a2.46,2.46,0,0,1,2.27-1.83,2,2,0,0,1,.32,0V509a3,3,0,0,0-.42,0,2,2,0,0,0-1.95,1.5,3.8,3.8,0,0,0-.16,1.16v2.83h-1.78Z"/><path class="cls-3" d="M172.6,507.15a3.74,3.74,0,1,1-3.92,3.74A3.76,3.76,0,0,1,172.6,507.15Zm0,6a2.23,2.23,0,1,0-2.13-2.23A2.12,2.12,0,0,0,172.62,513.12Z"/><path class="cls-3" d="M178.31,507.32H180v.83a4.37,4.37,0,0,1,0,.49h0a2.77,2.77,0,0,1,2.54-1.48c1.58,0,2.48.83,2.48,2.72v4.59h-1.76v-4.23c0-.87-.22-1.46-1.13-1.46a2,2,0,0,0-1.92,1.46,3,3,0,0,0-.13,1v3.28h-1.78Z"/><path class="cls-3" d="M190.87,510h.24v-.1c0-.94-.59-1.26-1.37-1.26a3.83,3.83,0,0,0-2,.69l-.67-1.28a4.82,4.82,0,0,1,2.8-.88,2.65,2.65,0,0,1,3,2.84v4.47h-1.64v-.59a4.66,4.66,0,0,1,0-.5h0a2.31,2.31,0,0,1-2.17,1.26,2.24,2.24,0,0,1-2.42-2.23C186.64,510.14,189.71,510,190.87,510Zm-1.36,3.26a1.84,1.84,0,0,0,1.61-1.88v-.17h-.31c-.91,0-2.38.13-2.38,1.12A1,1,0,0,0,189.51,513.25Z"/><path class="cls-3" d="M195,507.32h1.78v4.23c0,.87.22,1.46,1.11,1.46a2.15,2.15,0,0,0,2-2.41v-3.28h1.78v7.14h-1.71v-.81a4.47,4.47,0,0,1,0-.5h0a2.75,2.75,0,0,1-2.48,1.48c-1.53,0-2.48-.77-2.48-2.72Z"/><path class="cls-3" d="M204.25,508.85h-.92v-1.41h1v-2.06H206v2.06h1.62v1.41H206v2.77a1.27,1.27,0,0,0,1.41,1.34,1.66,1.66,0,0,0,.32,0v1.55a3.06,3.06,0,0,1-.55,0c-1,0-3-.29-3-2.69Z"/><path class="cls-3" d="M209.58,507.33h1.78v7.14h-1.78Zm0-2.8h1.77v1.58h-1.76Z"/><path class="cls-3" d="M217,507.16a3.64,3.64,0,0,1,2.75,1.07l-.79,1.22a2.8,2.8,0,0,0-1.86-.77,2.12,2.12,0,0,0-2.17,2.21,2.17,2.17,0,0,0,2.23,2.24,3.29,3.29,0,0,0,2.1-.91l.69,1.26a4.07,4.07,0,0,1-2.94,1.16,3.74,3.74,0,1,1,0-7.48Z"/><path class="cls-3" d="M221.85,512.35a3,3,0,0,0,1.95.79c.5,0,.94-.22.94-.64,0-1.06-3.47-.93-3.47-3.22,0-1.33,1.19-2.1,2.73-2.1a3.42,3.42,0,0,1,2.4.81l-.66,1.32a2.71,2.71,0,0,0-1.75-.62c-.46,0-.91.2-.91.64,0,1,3.47.88,3.47,3.18,0,1.19-1,2.14-2.73,2.14a4,4,0,0,1-2.77-1.05Z"/><path class="cls-3" d="M233.42,509.18v0a2.25,2.25,0,0,1-1.26-2.17c0-1.76,1.42-2.62,3.14-2.62a6.22,6.22,0,0,1,1.3.17l-.43,1.43a3.1,3.1,0,0,0-.66-.08,1.36,1.36,0,0,0-1.53,1.33c0,.57.32,1.32,1.51,1.32h1.58v-1.29h1.78v1.29h1.29v1.57h-1.29v1.18a3.23,3.23,0,0,1-3.57,3.37c-2.16,0-3.56-1.3-3.56-3A2.6,2.6,0,0,1,233.42,509.18Zm1.86,3.81a1.63,1.63,0,0,0,1.79-1.82v-1.08h-1.68c-1.11,0-1.82.49-1.82,1.46A1.54,1.54,0,0,0,235.28,513Z"/><path class="cls-3" d="M248.13,506.09h-3.26v-1.55h8.33v1.55h-3.26v8.39h-1.81Z"/><path class="cls-3" d="M256.59,507.17a3.09,3.09,0,0,1,3.17,3.39c0,.21,0,.69,0,.69h-4.93a2,2,0,0,0,2.14,1.89,3.53,3.53,0,0,0,2.06-.78l.69,1.28a4.47,4.47,0,0,1-2.87,1,3.66,3.66,0,0,1-3.84-3.74A3.53,3.53,0,0,1,256.59,507.17ZM258,510a1.38,1.38,0,0,0-1.41-1.49,1.66,1.66,0,0,0-1.71,1.48Z"/><path class="cls-3" d="M264.93,507.17a3.64,3.64,0,0,1,2.75,1.07l-.79,1.22a2.8,2.8,0,0,0-1.86-.77,2.12,2.12,0,0,0-2.17,2.21,2.18,2.18,0,0,0,2.23,2.24,3.29,3.29,0,0,0,2.1-.91l.69,1.26a4.07,4.07,0,0,1-2.94,1.16,3.74,3.74,0,1,1,0-7.48Z"/><path class="cls-3" d="M269.55,504.54h1.78V508a6,6,0,0,1,0,.6h0a2.75,2.75,0,0,1,2.46-1.41c1.58,0,2.48.83,2.48,2.72v4.59h-1.77v-4.23c0-.87-.22-1.46-1.13-1.46a2,2,0,0,0-1.93,1.48,3.21,3.21,0,0,0-.11.92v3.28h-1.78Z"/><path class="cls-3" d="M278.48,507.35h1.71v.83a4.54,4.54,0,0,1,0,.49h0a2.77,2.77,0,0,1,2.54-1.48c1.58,0,2.48.83,2.48,2.72v4.59h-1.77v-4.23c0-.87-.22-1.46-1.13-1.46a2,2,0,0,0-1.92,1.46,3,3,0,0,0-.13,1v3.28h-1.78Z"/><path class="cls-3" d="M290.8,507.18a3.74,3.74,0,1,1-3.92,3.74A3.76,3.76,0,0,1,290.8,507.18Zm0,6a2.23,2.23,0,1,0-2.13-2.23A2.12,2.12,0,0,0,290.82,513.15Z"/><path class="cls-3" d="M296.42,504.55h1.76V512c0,.78.27,1,.73,1h.27v1.55a4.07,4.07,0,0,1-.56,0c-1,0-2.2-.25-2.2-2.3Z"/><path class="cls-3" d="M304.23,507.18a3.74,3.74,0,1,1-3.92,3.74A3.76,3.76,0,0,1,304.23,507.18Zm0,6a2.23,2.23,0,1,0-2.13-2.23A2.12,2.12,0,0,0,304.24,513.15Z"/><path class="cls-3" d="M312.64,515.93c1.09,0,2-.46,2-1.74v-.42a3.52,3.52,0,0,1,0-.38h0a2.18,2.18,0,0,1-2,1c-2,0-3.21-1.65-3.21-3.62s1.11-3.56,3.17-3.56a2.43,2.43,0,0,1,2.12.91h0a1.35,1.35,0,0,1,0-.2v-.55h1.67v6.71c0,2.45-1.91,3.38-3.77,3.37a5.68,5.68,0,0,1-2.54-.62l.53-1.36A4.8,4.8,0,0,0,312.64,515.93Zm2.06-5.17c0-1.62-.8-2.06-1.77-2.06s-1.68.78-1.68,2,.64,2.17,1.79,2.17C313.9,512.86,314.7,512.37,314.7,510.76Z"/><path class="cls-3" d="M318.37,515.65a1.55,1.55,0,0,0,.8.29,1.35,1.35,0,0,0,1.23-.92l.27-.63-3-7h2l1.5,4.12a8.7,8.7,0,0,1,.27,1h0a9.42,9.42,0,0,1,.24-.94l1.4-4.15H325l-3.2,8.22a2.67,2.67,0,0,1-2.58,1.86,2.75,2.75,0,0,1-1.49-.46Z"/><path class="cls-5" d="M136.8,491a8.06,8.06,0,0,1-5.89-2.39c-2.21-2.21-2.15-4.94-2.14-8.72s-.06-6.51,2.15-8.71a8,8,0,0,1,5.89-2.39c4.08,0,7.27,2.33,8,6.91h-4.33a3.61,3.61,0,0,0-3.68-3.1,3.53,3.53,0,0,0-2.73,1.13c-.83.92-1.07,2-1.07,6.17s.24,5.25,1.07,6.17a3.53,3.53,0,0,0,2.73,1.14,3.61,3.61,0,0,0,3.68-3.1h4.33A7.72,7.72,0,0,1,136.8,491Z"/><path class="cls-5" d="M160,489a6.63,6.63,0,0,1-5,2,6.56,6.56,0,0,1-4.94-2c-1.44-1.5-1.81-3.31-1.81-6.23s.37-4.7,1.81-6.2a6.55,6.55,0,0,1,4.94-2,6.63,6.63,0,0,1,5,2c1.44,1.5,1.81,3.31,1.81,6.2S161.47,487.54,160,489Zm-3.1-10.1a2.52,2.52,0,0,0-1.87-.71,2.44,2.44,0,0,0-1.84.71c-.83.83-.92,2.21-.92,3.87s.09,3.07.92,3.9a2.45,2.45,0,0,0,1.84.71,2.52,2.52,0,0,0,1.87-.71c.83-.83.92-2.24.92-3.9S157.76,479.78,156.93,479Z"/><path class="cls-5" d="M170.92,490.83a4.34,4.34,0,0,1-4.66-4.57V469h4v17c0,1,.4,1.44,1.41,1.44h1.53v3.38Z"/><path class="cls-5" d="M181.66,490.83a4.34,4.34,0,0,1-4.66-4.57V469h4v17c0,1,.4,1.44,1.41,1.44h1.53v3.38Z"/><path class="cls-5" d="M190.25,484.08a3.3,3.3,0,0,0,3.5,3.56,4.43,4.43,0,0,0,3.62-1.5l2.42,2.36a7.61,7.61,0,0,1-6.08,2.52c-3.77,0-7.4-1.72-7.39-8.2,0-5.22,2.83-8.16,7-8.16,4.45,0,7,3.25,7,7.64v1.78Zm5.71-4.45a3,3,0,0,0-5.34,0,4.41,4.41,0,0,0-.37,1.72h6.08A4.39,4.39,0,0,0,196,479.64Z"/><path class="cls-5" d="M210.22,496.89a7.47,7.47,0,0,1-5.8-2.09l2.49-2.51a4.07,4.07,0,0,0,3.13,1.23,3,3,0,0,0,3.22-3.31v-1.63a4.68,4.68,0,0,1-3.8,1.59,5.32,5.32,0,0,1-3.8-1.41c-1.5-1.5-1.62-3.56-1.62-6.35s.12-4.82,1.63-6.32a5.39,5.39,0,0,1,3.84-1.41,4.68,4.68,0,0,1,3.9,1.69v-1.5h3.87v15.4C217.24,494.1,214.51,496.89,210.22,496.89Zm.4-18.63c-2.36,0-2.61,2-2.61,4.14s.25,4.17,2.61,4.17,2.64-2.05,2.64-4.17S213,478.26,210.62,478.26Z"/><path class="cls-5" d="M225.62,484.09a3.3,3.3,0,0,0,3.5,3.56,4.43,4.43,0,0,0,3.62-1.5l2.42,2.36a7.61,7.61,0,0,1-6.08,2.52c-3.77,0-7.39-1.72-7.39-8.2,0-5.22,2.83-8.16,7-8.16,4.45,0,7,3.25,7,7.64v1.78Zm5.71-4.45a3,3,0,0,0-5.34,0,4.41,4.41,0,0,0-.37,1.72h6.08A4.39,4.39,0,0,0,231.33,479.65Z"/><path class="cls-5" d="M150.45,454H143.3l-16.14-48.94h9.9l9.82,31.89,9.83-31.89h10Z"/><path class="cls-5" d="M187.49,454v-3.09c-2.41,2.4-4.67,3.43-8.8,3.43s-7-1-9.14-3.16a11.47,11.47,0,0,1-3-8c0-5.7,3.92-10.38,12.24-10.37h8.45V431c0-3.92-1.92-5.64-6.66-5.64-3.44,0-5,.82-6.87,3l-5.7-5.57c3.51-3.85,6.94-4.95,12.92-4.95,10,0,15.26,4.26,15.25,12.65V454Zm-.2-15.12h-7.08c-3.23,0-5,1.51-5,4.05s1.65,4.12,5.15,4.13c2.47,0,4.05-.21,5.64-1.72,1-.89,1.31-2.34,1.31-4.54Z"/><path class="cls-5" d="M226.45,454v-3.3a12.25,12.25,0,0,1-8.94,3.71,11.62,11.62,0,0,1-8.45-3.16c-2.89-2.89-3.64-6.25-3.64-10.17V418.2h8.94v21.65c0,4.88,3.09,6.53,5.91,6.53s6-1.65,6-6.53V418.21h8.93V454Z"/><path class="cls-5" d="M257.57,467.56c-5.5,0-9.28-1.1-13-4.68l5.57-5.63a9.12,9.12,0,0,0,7,2.75c5.36,0,7.22-3.78,7.22-7.42v-3.64a10.49,10.49,0,0,1-8.52,3.57,11.91,11.91,0,0,1-8.52-3.16c-3.37-3.37-3.64-8-3.64-14.23s.28-10.79,3.65-14.16a12.08,12.08,0,0,1,8.59-3.16,10.48,10.48,0,0,1,8.73,3.78v-3.37h8.66v34.5C273.31,461.31,267.2,467.56,257.57,467.56Zm.9-41.72c-5.29,0-5.84,4.53-5.84,9.28s.55,9.35,5.84,9.35,5.91-4.6,5.91-9.35S263.77,425.84,258.48,425.84Z"/><path class="cls-5" d="M303.89,454V432.18c0-4.74-3-6.32-5.84-6.32s-5.77,1.65-5.78,6.32V454h-8.93V405.09h8.93v16.43a11.83,11.83,0,0,1,8.59-3.71c7.83,0,12,5.5,12,13.06V454Z"/><path class="cls-5" d="M343.27,454V432.39c0-4.88-3.09-6.53-5.91-6.53s-6,1.65-6,6.53V454h-8.93V418.23h8.73v3.3a12.25,12.25,0,0,1,8.94-3.71,11.63,11.63,0,0,1,8.45,3.16c2.89,2.89,3.64,6.26,3.64,10.17V454Z"/><path class="cls-3" d="M673.95,74.5H678V94.42h-4.05Zm0,53.2H678v19.92h-4.05Zm0,53.2H678v19.92h-4.05Zm0,53.2H678V254h-4.05Zm0,53.2H678v19.92h-4.05Zm0,53.2H678v19.92h-4.05Z"/><path class="cls-3" d="M639,180.91h.83v12.51H639Zm0,33.41h.83v12.51H639Zm0,33.41h.83v12.51H639Zm0,33.41h.83v12.51H639Zm0,33.41h.83V327H639Zm0,33.41h.83v12.51H639Z"/><rect class="cls-3" x="556.47" y="301.72" width="5" height="2"/><path class="cls-3" d="M548.61,303.72h-7.92v-2h7.92Zm-15.78,0H524.9v-2h7.92Zm-15.78,0h-7.92v-2H517Zm-15.78,0h-7.92v-2h7.92Zm-15.78,0h-7.92v-2h7.92Zm-15.78,0h-7.92v-2h7.92Zm-15.78,0H446v-2h7.92Zm-15.78,0H430.2v-2h7.92Zm-15.78,0h-7.92v-2h7.92Zm-15.78,0h-7.92v-2h7.92Zm-15.78,0h-7.92v-2h7.92Zm-15.78,0h-7.92v-2H375Zm-15.78,0h-7.92v-2h7.92Zm-15.78,0h-7.92v-2h7.92Zm-15.78,0h-7.92v-2h7.92Zm-15.78,0h-7.92v-2h7.92Zm-15.78,0h-7.92v-2h7.92Zm-15.78,0h-7.92v-2h7.92Zm-15.78,0h-7.92v-2h7.92Zm-15.78,0h-7.92v-2h7.92Zm-15.78,0H225v-2h7.92Z"/><rect class="cls-3" x="212.14" y="301.72" width="5" height="2"/><path class="cls-3" d="M465.9,155.57l0,0,3.79-3.79a.16.16,0,0,1,.16,0l5.58,2a.16.16,0,0,0,.16,0l.29-.29a.16.16,0,0,0,0-.24l-4.36-2.92a.16.16,0,0,1,0-.24l2.73-2.73a.16.16,0,0,1,.18,0l1.66.8a.16.16,0,0,0,.18,0l.22-.22a.15.15,0,0,0,0-.23l-2.6-1.93,0,0-1.93-2.6a.16.16,0,0,0-.23,0l-.23.23a.16.16,0,0,0,0,.18l.8,1.66a.16.16,0,0,1,0,.18l-2.73,2.73a.16.16,0,0,1-.24,0l-2.92-4.36a.16.16,0,0,0-.24,0l-.29.29a.16.16,0,0,0,0,.16l2,5.58a.16.16,0,0,1,0,.16l-3.79,3.79,0,0a1.8,1.8,0,0,0-.39,2.45A1.83,1.83,0,0,0,465.9,155.57Z"/><path class="cls-3" d="M490.88,155.57l0,0,3.79-3.79a.16.16,0,0,1,.16,0l5.58,2a.16.16,0,0,0,.16,0l.29-.29a.16.16,0,0,0,0-.24l-4.36-2.92a.16.16,0,0,1,0-.24l2.73-2.73a.16.16,0,0,1,.18,0l1.66.8a.16.16,0,0,0,.18,0l.22-.22a.15.15,0,0,0,0-.23l-2.6-1.93,0,0-1.93-2.6a.16.16,0,0,0-.23,0l-.23.23a.16.16,0,0,0,0,.18l.8,1.66a.16.16,0,0,1,0,.18l-2.73,2.73a.16.16,0,0,1-.24,0l-2.92-4.36a.16.16,0,0,0-.24,0l-.29.29a.16.16,0,0,0,0,.16l2,5.58a.16.16,0,0,1,0,.16l-3.79,3.79,0,0a1.8,1.8,0,0,0-.39,2.45A1.83,1.83,0,0,0,490.88,155.57Z"/><path class="cls-3" d="M515.85,155.57l0,0,3.79-3.79a.16.16,0,0,1,.16,0l5.58,2a.16.16,0,0,0,.16,0l.29-.29a.16.16,0,0,0,0-.24l-4.36-2.92a.16.16,0,0,1,0-.24l2.73-2.73a.16.16,0,0,1,.18,0l1.66.8a.16.16,0,0,0,.18,0l.22-.22a.15.15,0,0,0,0-.23l-2.6-1.93,0,0-1.93-2.6a.16.16,0,0,0-.23,0l-.23.23a.16.16,0,0,0,0,.18l.8,1.66a.16.16,0,0,1,0,.18l-2.73,2.73a.16.16,0,0,1-.24,0l-2.92-4.36a.16.16,0,0,0-.24,0l-.29.29a.16.16,0,0,0,0,.16l2,5.58a.16.16,0,0,1,0,.16l-3.79,3.79,0,0a1.8,1.8,0,0,0-.39,2.45A1.83,1.83,0,0,0,515.85,155.57Z"/><path class="cls-3" d="M540.82,155.57l0,0,3.79-3.79a.16.16,0,0,1,.16,0l5.58,2a.16.16,0,0,0,.16,0l.29-.29a.16.16,0,0,0,0-.24l-4.36-2.92a.16.16,0,0,1,0-.24l2.73-2.73a.16.16,0,0,1,.18,0l1.66.8a.16.16,0,0,0,.18,0l.22-.22a.15.15,0,0,0,0-.23l-2.6-1.93,0,0-1.93-2.6a.16.16,0,0,0-.23,0l-.23.23a.16.16,0,0,0,0,.18l.8,1.66a.16.16,0,0,1,0,.18l-2.73,2.73a.16.16,0,0,1-.24,0l-2.92-4.36a.16.16,0,0,0-.24,0l-.29.29a.16.16,0,0,0,0,.16l2,5.58a.16.16,0,0,1,0,.16l-3.79,3.79,0,0a1.8,1.8,0,0,0-.39,2.45A1.83,1.83,0,0,0,540.82,155.57Z"/><path class="cls-3" d="M516.21,463.8a4,4,0,0,1-3.12-1.13l1.08-1.08a2.79,2.79,0,0,0,2.06.72c1,0,1.51-.37,1.51-1.06a1,1,0,0,0-.26-.72,1.28,1.28,0,0,0-.76-.3l-1-.14a2.9,2.9,0,0,1-1.66-.71,2.25,2.25,0,0,1-.61-1.68c0-1.52,1.13-2.59,3-2.59a3.66,3.66,0,0,1,2.76,1l-1.06,1a2.38,2.38,0,0,0-1.75-.59c-.89,0-1.32.49-1.32,1.08a.83.83,0,0,0,.25.61,1.47,1.47,0,0,0,.79.34l1,.14a2.83,2.83,0,0,1,1.63.66,2.4,2.4,0,0,1,.66,1.81C519.38,462.86,518,463.8,516.21,463.8Z"/><path class="cls-3" d="M524.52,456.68v7.05h-1.67v-7.05h-2.23v-1.49h6.13v1.49Z"/><path class="cls-3" d="M528.41,463.73v-8.54H534v1.49h-4v2h3.37v1.49h-3.37v2.08h4v1.49Z"/><path class="cls-3" d="M542,463.73v-5L540.41,462h-1.13l-1.64-3.24v5H536v-8.54h1.64l2.23,4.62,2.22-4.62h1.64v8.54Z"/><path class="cls-3" d="M551.94,463.8a3.15,3.15,0,0,1-2.3-.94c-.86-.86-.84-1.93-.84-3.41s0-2.54.84-3.41a3.15,3.15,0,0,1,2.3-.94,3,3,0,0,1,3.14,2.7h-1.69A1.41,1.41,0,0,0,552,456.6a1.38,1.38,0,0,0-1.07.44c-.32.36-.42.77-.42,2.41s.1,2.05.42,2.41a1.38,1.38,0,0,0,1.07.44,1.41,1.41,0,0,0,1.44-1.21h1.69A3,3,0,0,1,551.94,463.8Z"/><path class="cls-3" d="M562,462.86a3.32,3.32,0,0,1-4.62,0c-.86-.86-.84-1.93-.84-3.41s0-2.54.84-3.41a3.32,3.32,0,0,1,4.62,0c.86.86.85,1.93.85,3.41S562.86,462,562,462.86Zm-1.24-5.8a1.38,1.38,0,0,0-1.07-.46,1.41,1.41,0,0,0-1.08.46c-.32.36-.41.75-.41,2.4s.08,2,.41,2.4a1.41,1.41,0,0,0,1.08.46,1.38,1.38,0,0,0,1.07-.46c.32-.36.42-.76.42-2.4S561.08,457.42,560.76,457.06Z"/><path class="cls-3" d="M570.92,463.73v-5L569.29,462h-1.13l-1.64-3.24v5h-1.67v-8.54h1.64l2.23,4.62,2.22-4.62h1.64v8.54Z"/><path class="cls-3" d="M578.19,460.51h-1.64v3.21h-1.67v-8.54h3.31a2.67,2.67,0,1,1,0,5.33Zm-.08-3.84h-1.56V459h1.56a1.17,1.17,0,1,0,0-2.34Z"/><path class="cls-3" d="M582.72,463.73v-8.54h5.63v1.49h-4v2h3.37v1.49h-3.37v2.08h4v1.49Z"/><path class="cls-3" d="M593.54,456.68v7.05h-1.67v-7.05h-2.23v-1.49h6.13v1.49Z"/><path class="cls-3" d="M597.43,463.73v-8.54h1.67v8.54Z"/><path class="cls-3" d="M604.65,456.68v7.05H603v-7.05h-2.23v-1.49h6.13v1.49Z"/><path class="cls-3" d="M608.54,463.73v-8.54h1.67v8.54Z"/><path class="cls-3" d="M617.67,462.86a3.32,3.32,0,0,1-4.62,0c-.86-.86-.84-1.93-.84-3.41s0-2.54.84-3.41a3.32,3.32,0,0,1,4.62,0c.86.86.85,1.93.85,3.41S618.54,462,617.67,462.86Zm-1.24-5.8a1.38,1.38,0,0,0-1.07-.46,1.41,1.41,0,0,0-1.08.46c-.32.36-.41.75-.41,2.4s.08,2,.41,2.4a1.41,1.41,0,0,0,1.08.46,1.38,1.38,0,0,0,1.07-.46c.32-.36.42-.76.42-2.4S616.76,457.42,616.44,457.06Z"/><path class="cls-3" d="M625.58,463.73l-3.38-5.24v5.24h-1.67v-8.54H622l3.38,5.23v-5.23h1.67v8.54Z"/><path class="cls-3" d="M519.2,477.31a3.11,3.11,0,0,1-2.25.82h-3.08v-8.54h3.08a3.11,3.11,0,0,1,2.25.82c1,1,.86,2.13.86,3.42S520.16,476.35,519.2,477.31ZM518,471.6a1.49,1.49,0,0,0-1.25-.53h-1.26v5.56h1.26a1.49,1.49,0,0,0,1.25-.53c.31-.38.36-1,.36-2.29S518.35,472,518,471.6Z"/><path class="cls-3" d="M527.24,477.26a3.32,3.32,0,0,1-4.62,0c-.86-.86-.84-1.93-.84-3.41s0-2.54.84-3.41a3.32,3.32,0,0,1,4.62,0c.86.86.85,1.93.85,3.41S528.1,476.4,527.24,477.26Zm-1.24-5.8a1.38,1.38,0,0,0-1.07-.46,1.41,1.41,0,0,0-1.08.46c-.32.36-.41.75-.41,2.4s.08,2,.41,2.4a1.41,1.41,0,0,0,1.08.46,1.38,1.38,0,0,0,1.07-.46c.32-.36.42-.76.42-2.4S526.33,471.82,526,471.46Z"/><path class="cls-3" d="M534.63,478.13,533,474.72h-1.2v3.41H530.1v-8.54h3.35a2.58,2.58,0,0,1,2.77,2.61,2.3,2.3,0,0,1-1.56,2.24l1.91,3.68Zm-1.29-7.05h-1.57v2.25h1.57a1.13,1.13,0,1,0,0-2.25Z"/><path class="cls-3" d="M544.32,478.13v-5l-1.63,3.24h-1.13l-1.64-3.24v5h-1.67v-8.54h1.64l2.23,4.62,2.22-4.62H546v8.54Z"/><path class="cls-3" d="M553.71,478.2a4,4,0,0,1-3.12-1.13l1.08-1.08a2.8,2.8,0,0,0,2.06.72c1,0,1.51-.37,1.51-1.06a1,1,0,0,0-.26-.72,1.28,1.28,0,0,0-.76-.3l-1-.14a2.9,2.9,0,0,1-1.66-.71,2.26,2.26,0,0,1-.61-1.68c0-1.52,1.13-2.59,3-2.59a3.66,3.66,0,0,1,2.76,1l-1.05,1a2.38,2.38,0,0,0-1.75-.59c-.89,0-1.32.49-1.32,1.08a.82.82,0,0,0,.25.61,1.47,1.47,0,0,0,.79.34l1,.14a2.83,2.83,0,0,1,1.63.66,2.39,2.39,0,0,1,.66,1.81C556.88,477.26,555.5,478.2,553.71,478.2Z"/><path class="cls-3" d="M562,471.08v7.05h-1.67v-7.05h-2.23v-1.49h6.13v1.49Z"/><path class="cls-3" d="M570,478.13l-.5-1.51h-3l-.52,1.51h-1.74l3.11-8.54h1.31l3.12,8.54Zm-2-6L567,475.21h2.12Z"/><path class="cls-3" d="M576,474.63v3.5h-1.66v-3.5l-2.57-5h1.81l1.59,3.44,1.57-3.44h1.81Z"/><path class="cls-3" d="M515.53,485.48v2.1h3.37v1.49h-3.37v3.47h-1.67V484h5.63v1.49Z"/><path class="cls-3" d="M525.38,492.53l-.5-1.51h-3l-.52,1.51h-1.74l3.11-8.54H524l3.12,8.54Zm-2-6-1.08,3.11h2.12Z"/><path class="cls-3" d="M531.21,492.6a3.15,3.15,0,0,1-2.3-.94c-.86-.86-.84-1.93-.84-3.41s0-2.54.84-3.41a3.15,3.15,0,0,1,2.3-.94,3,3,0,0,1,3.14,2.7h-1.69a1.41,1.41,0,0,0-1.44-1.21,1.38,1.38,0,0,0-1.07.44c-.32.36-.42.77-.42,2.41s.1,2.05.42,2.41a1.38,1.38,0,0,0,1.07.44,1.41,1.41,0,0,0,1.44-1.21h1.69A3,3,0,0,1,531.21,492.6Z"/><path class="cls-3" d="M536.1,492.53V484h1.67v8.54Z"/><path class="cls-3" d="M540.06,492.53V484h1.67V491h3.87v1.49Z"/><path class="cls-3" d="M547.26,492.53V484h1.67v8.54Z"/><path class="cls-3" d="M554.48,485.48v7.05h-1.67v-7.05h-2.23V484h6.13v1.49Z"/><path class="cls-3" d="M558.37,492.53V484H560v8.54Z"/><path class="cls-3" d="M562.33,492.53V484H568v1.49h-4v2h3.37V489H564V491h4v1.49Z"/><path class="cls-3" d="M572.24,492.6a4,4,0,0,1-3.12-1.13l1.08-1.08a2.79,2.79,0,0,0,2.06.72c1,0,1.51-.37,1.51-1.06a1,1,0,0,0-.26-.72,1.28,1.28,0,0,0-.76-.3l-1-.14a2.9,2.9,0,0,1-1.66-.71,2.25,2.25,0,0,1-.61-1.68c0-1.52,1.13-2.59,3-2.59a3.66,3.66,0,0,1,2.76,1l-1.06,1a2.38,2.38,0,0,0-1.75-.59c-.89,0-1.32.49-1.32,1.08a.83.83,0,0,0,.25.61,1.48,1.48,0,0,0,.79.34l1,.14a2.83,2.83,0,0,1,1.63.66,2.4,2.4,0,0,1,.66,1.81C575.41,491.66,574,492.6,572.24,492.6Z"/><path class="cls-3" d="M583.63,485.48v7.05H582v-7.05h-2.23V484h6.13v1.49Z"/><path class="cls-3" d="M592.45,491.66a3.32,3.32,0,0,1-4.62,0c-.86-.86-.84-1.93-.84-3.41s0-2.54.84-3.41a3.32,3.32,0,0,1,4.62,0c.86.86.85,1.93.85,3.41S593.31,490.8,592.45,491.66Zm-1.24-5.8a1.38,1.38,0,0,0-1.07-.46,1.41,1.41,0,0,0-1.08.46c-.32.36-.41.75-.41,2.4s.08,2,.41,2.4a1.41,1.41,0,0,0,1.08.46,1.38,1.38,0,0,0,1.07-.46c.32-.36.42-.76.42-2.4S591.54,486.22,591.21,485.86Z"/><path class="cls-3" d="M598.32,492.6a3,3,0,0,1-3.14-3V484h1.67v5.55a1.48,1.48,0,1,0,3,0V484h1.65v5.61A3,3,0,0,1,598.32,492.6Z"/><path class="cls-3" d="M608.16,492.53l-1.67-3.41h-1.2v3.41h-1.67V484H607a2.58,2.58,0,0,1,2.77,2.61,2.3,2.3,0,0,1-1.56,2.24l1.91,3.68Zm-1.29-7.05h-1.57v2.25h1.57a1.13,1.13,0,1,0,0-2.25Z"/><path class="cls-3" d="M518.42,506.93v-3.57h-2.89v3.57h-1.67v-8.54h1.67v3.49h2.89v-3.49h1.67v8.54Z"/><path class="cls-3" d="M522.38,506.93v-8.54H528v1.49h-4v2h3.37v1.49h-3.37v2.08h4v1.49Z"/><path class="cls-3" d="M529.94,506.93v-8.54h1.67v7.05h3.87v1.49Z"/><path class="cls-3" d="M537.14,506.93v-8.54h1.67v8.54Z"/><path class="cls-3" d="M544,507a3.15,3.15,0,0,1-2.3-.94c-.86-.86-.84-1.93-.84-3.41s0-2.54.84-3.41a3.15,3.15,0,0,1,2.3-.94,3,3,0,0,1,3.14,2.7h-1.69A1.41,1.41,0,0,0,544,499.8a1.38,1.38,0,0,0-1.07.44c-.32.36-.42.77-.42,2.41s.1,2.05.42,2.41a1.38,1.38,0,0,0,1.07.44,1.41,1.41,0,0,0,1.44-1.21h1.69A3,3,0,0,1,544,507Z"/><path class="cls-3" d="M554,506.06a3.32,3.32,0,0,1-4.62,0c-.86-.86-.84-1.93-.84-3.41s0-2.54.84-3.41a3.32,3.32,0,0,1,4.62,0c.86.86.85,1.93.85,3.41S554.88,505.2,554,506.06Zm-1.24-5.8a1.38,1.38,0,0,0-1.07-.46,1.41,1.41,0,0,0-1.08.46c-.32.36-.41.75-.41,2.4s.08,2,.41,2.4a1.41,1.41,0,0,0,1.08.46,1.38,1.38,0,0,0,1.07-.46c.32-.36.42-.76.42-2.4S553.1,500.62,552.78,500.26Z"/><path class="cls-3" d="M560.18,503.71h-1.64v3.21h-1.67v-8.54h3.31a2.67,2.67,0,1,1,0,5.33Zm-.08-3.84h-1.56v2.34h1.56a1.17,1.17,0,1,0,0-2.34Z"/><path class="cls-3" d="M568,499.88v7.05H566.3v-7.05h-2.23v-1.49h6.13v1.49Z"/><path class="cls-3" d="M571.86,506.93v-8.54h5.63v1.49h-4v2h3.37v1.49h-3.37v2.08h4v1.49Z"/><path class="cls-3" d="M584,506.93l-1.67-3.41h-1.2v3.41h-1.67v-8.54h3.35a2.58,2.58,0,0,1,2.77,2.61,2.3,2.3,0,0,1-1.56,2.24l1.91,3.68Zm-1.29-7.05h-1.57v2.25h1.57a1.13,1.13,0,1,0,0-2.25Z"/><path class="cls-3" d="M595.18,506.93l-1.67-3.41h-1.2v3.41h-1.67v-8.54H594a2.58,2.58,0,0,1,2.77,2.61,2.3,2.3,0,0,1-1.56,2.24l1.91,3.68Zm-1.29-7.05h-1.57v2.25h1.57a1.13,1.13,0,1,0,0-2.25Z"/><path class="cls-3" d="M598.8,506.93v-8.54h1.67v8.54Z"/><path class="cls-3" d="M608.1,506.11a3.11,3.11,0,0,1-2.25.82h-3.08v-8.54h3.08a3.11,3.11,0,0,1,2.25.82c1,1,.86,2.13.86,3.42S609.06,505.15,608.1,506.11Zm-1.16-5.71a1.49,1.49,0,0,0-1.25-.53h-1.26v5.56h1.26a1.49,1.49,0,0,0,1.25-.53c.31-.38.36-1,.36-2.29S607.24,500.79,606.93,500.4Z"/><path class="cls-3" d="M611,506.93v-8.54h5.63v1.49h-4v2H616v1.49h-3.37v2.08h4v1.49Z"/><path class="cls-3" d="M620.88,507a4,4,0,0,1-3.12-1.13l1.08-1.08a2.79,2.79,0,0,0,2.06.72c1,0,1.51-.37,1.51-1.06a1,1,0,0,0-.26-.72,1.28,1.28,0,0,0-.76-.3l-1-.14a2.9,2.9,0,0,1-1.66-.71,2.25,2.25,0,0,1-.61-1.68c0-1.52,1.13-2.59,3-2.59a3.66,3.66,0,0,1,2.76,1l-1.06,1a2.38,2.38,0,0,0-1.75-.59c-.89,0-1.32.49-1.32,1.08a.83.83,0,0,0,.25.61,1.48,1.48,0,0,0,.79.34l1,.14a2.83,2.83,0,0,1,1.63.66,2.4,2.4,0,0,1,.66,1.81C624,506.06,622.67,507,620.88,507Z"/><path class="cls-3" d="M517.13,514.28v7.05h-1.67v-7.05h-2.23v-1.49h6.13v1.49Z"/><path class="cls-3" d="M525.15,521.33l-.5-1.51h-3l-.52,1.51h-1.74l3.11-8.54h1.31l3.12,8.54Zm-2-6-1.08,3.11h2.12Z"/><path class="cls-3" d="M528.25,521.33v-8.54h1.67v7.05h3.87v1.49Z"/><path class="cls-3" d="M540.42,521.33l-2.19-3.89-1.1,1.32v2.57h-1.67v-8.54h1.67v3.72l3-3.72h2l-2.83,3.39,3,5.15Z"/><path class="cls-3" d="M546.08,521.4a4,4,0,0,1-3.12-1.13l1.08-1.08a2.79,2.79,0,0,0,2.06.72c1,0,1.51-.37,1.51-1.06a1,1,0,0,0-.26-.72,1.28,1.28,0,0,0-.76-.3l-1-.14a2.9,2.9,0,0,1-1.66-.71,2.25,2.25,0,0,1-.61-1.68c0-1.52,1.13-2.59,3-2.59a3.66,3.66,0,0,1,2.76,1l-1.06,1a2.38,2.38,0,0,0-1.75-.59c-.89,0-1.32.49-1.32,1.08a.83.83,0,0,0,.25.61,1.47,1.47,0,0,0,.79.34l1,.14a2.83,2.83,0,0,1,1.63.66,2.4,2.4,0,0,1,.66,1.81C549.25,520.46,547.87,521.4,546.08,521.4Z"/><path class="cls-3" d="M555.87,514.28v2.1h3.37v1.49h-3.37v3.47h-1.67v-8.54h5.63v1.49Z"/><path class="cls-3" d="M566.12,521.33l-1.67-3.41h-1.2v3.41h-1.67v-8.54h3.35a2.58,2.58,0,0,1,2.77,2.61,2.3,2.3,0,0,1-1.56,2.24l1.91,3.68Zm-1.29-7.05h-1.57v2.25h1.57a1.13,1.13,0,1,0,0-2.25Z"/><path class="cls-3" d="M574.9,520.46a3.32,3.32,0,0,1-4.62,0c-.86-.86-.84-1.93-.84-3.41s0-2.54.84-3.41a3.32,3.32,0,0,1,4.62,0c.86.86.85,1.93.85,3.41S575.77,519.6,574.9,520.46Zm-1.24-5.8a1.38,1.38,0,0,0-1.07-.46,1.41,1.41,0,0,0-1.08.46c-.32.36-.41.75-.41,2.4s.08,2,.41,2.4a1.41,1.41,0,0,0,1.08.46,1.38,1.38,0,0,0,1.07-.46c.32-.36.42-.76.42-2.4S574,515,573.67,514.66Z"/><path class="cls-3" d="M583.83,521.33v-5l-1.63,3.24h-1.13l-1.64-3.24v5h-1.67v-8.54h1.64l2.23,4.62,2.22-4.62h1.64v8.54Z"/><path class="cls-3" d="M590.88,521.33v-8.54h1.67v8.54Z"/><path class="cls-3" d="M599.89,521.33l-3.38-5.24v5.24h-1.67v-8.54h1.49l3.38,5.23v-5.23h1.67v8.54Z"/><path class="cls-3" d="M609,520.51a3.11,3.11,0,0,1-2.25.82h-3.08v-8.54h3.08a3.11,3.11,0,0,1,2.25.82c1,1,.86,2.13.86,3.42S610,519.55,609,520.51Zm-1.16-5.71a1.49,1.49,0,0,0-1.25-.53h-1.26v5.56h1.26a1.49,1.49,0,0,0,1.25-.53c.31-.38.36-1,.36-2.29S608.16,515.19,607.84,514.8Z"/><path class="cls-3" d="M614.89,521.4a3,3,0,0,1-3.14-3v-5.61h1.67v5.55a1.48,1.48,0,1,0,3,0v-5.55H618v5.61A3,3,0,0,1,614.89,521.4Z"/><path class="cls-3" d="M622.54,521.4a4,4,0,0,1-3.12-1.13l1.08-1.08a2.79,2.79,0,0,0,2.06.72c1,0,1.51-.37,1.51-1.06a1,1,0,0,0-.26-.72,1.28,1.28,0,0,0-.76-.3l-1-.14a2.9,2.9,0,0,1-1.66-.71,2.25,2.25,0,0,1-.61-1.68c0-1.52,1.13-2.59,3-2.59a3.66,3.66,0,0,1,2.76,1l-1.06,1a2.38,2.38,0,0,0-1.75-.59c-.89,0-1.32.49-1.32,1.08a.83.83,0,0,0,.25.61,1.47,1.47,0,0,0,.79.34l1,.14a2.83,2.83,0,0,1,1.63.66,2.4,2.4,0,0,1,.66,1.81C625.71,520.46,624.33,521.4,622.54,521.4Z"/><path class="cls-3" d="M630.85,514.28v7.05h-1.67v-7.05H627v-1.49h6.13v1.49Z"/><path class="cls-3" d="M639.27,521.33l-1.67-3.41h-1.2v3.41h-1.67v-8.54h3.35a2.58,2.58,0,0,1,2.77,2.61,2.3,2.3,0,0,1-1.56,2.24l1.91,3.68ZM638,514.28h-1.57v2.25H638a1.13,1.13,0,1,0,0-2.25Z"/><path class="cls-3" d="M646.15,517.83v3.5h-1.66v-3.5l-2.57-5h1.81l1.59,3.44,1.57-3.44h1.81Z"/><path class="cls-3" d="M653.13,521.33v-8.54h1.67v7.05h3.87v1.49Z"/><path class="cls-3" d="M660.33,521.33v-8.54H666v1.49h-4v2h3.37v1.49H662v2.08h4v1.49Z"/><path class="cls-3" d="M672.75,521.33l-.5-1.51h-3l-.52,1.51H667l3.11-8.54h1.31l3.12,8.54Zm-2-6-1.08,3.11h2.12Z"/><path class="cls-3" d="M681.19,520.51a3.11,3.11,0,0,1-2.25.82h-3.08v-8.54h3.08a3.11,3.11,0,0,1,2.25.82c1,1,.86,2.13.86,3.42S682.15,519.55,681.19,520.51ZM680,514.8a1.49,1.49,0,0,0-1.25-.53h-1.26v5.56h1.26a1.49,1.49,0,0,0,1.25-.53c.31-.38.36-1,.36-2.29S680.33,515.19,680,514.8Z"/><path class="cls-3" d="M684.06,521.33v-8.54h5.63v1.49h-4v2h3.37v1.49h-3.37v2.08h4v1.49Z"/><path class="cls-3" d="M696.15,521.33l-1.67-3.41h-1.2v3.41h-1.67v-8.54H695a2.58,2.58,0,0,1,2.77,2.61,2.3,2.3,0,0,1-1.56,2.24l1.91,3.68Zm-1.29-7.05h-1.57v2.25h1.57a1.13,1.13,0,1,0,0-2.25Z"/><path class="cls-3" d="M702.12,521.4a4,4,0,0,1-3.12-1.13l1.08-1.08a2.79,2.79,0,0,0,2.06.72c1,0,1.51-.37,1.51-1.06a1,1,0,0,0-.26-.72,1.28,1.28,0,0,0-.76-.3l-1-.14a2.9,2.9,0,0,1-1.66-.71,2.25,2.25,0,0,1-.61-1.68c0-1.52,1.13-2.59,3-2.59a3.66,3.66,0,0,1,2.76,1l-1.06,1a2.38,2.38,0,0,0-1.75-.59c-.89,0-1.32.49-1.32,1.08a.83.83,0,0,0,.25.61,1.47,1.47,0,0,0,.79.34l1,.14a2.83,2.83,0,0,1,1.63.66,2.4,2.4,0,0,1,.66,1.81C705.28,520.46,703.9,521.4,702.12,521.4Z"/><rect class="cls-4" x="496.99" y="319.79" width="11.75" height="31.79"/><polygon class="cls-4" points="381.49 326.75 310.53 316.75 310.53 351.58 381.49 351.58 381.49 326.75"/><rect class="cls-4" x="339.49" y="342.64" width="34.67" height="8.94"/><rect class="cls-4" x="291.49" y="273.12" width="19.04" height="78.46"/><path class="cls-4" d="M172.53,296.86h17.3a0,0,0,0,1,0,0V318.2a0,0,0,0,1,0,0H151.18a0,0,0,0,1,0,0v0A21.35,21.35,0,0,1,172.53,296.86Z"/><rect class="cls-4" x="140.16" y="318.2" width="57.03" height="33.38"/><rect class="cls-4" x="184.16" y="312.45" width="107.33" height="39.13"/><polyline class="cls-4" points="249.22 312.45 249.22 286.32 232.1 286.32 232.1 312.45"/><polygon class="cls-4" points="261.1 270.34 251.99 262.19 229.33 262.19 220.22 270.34 225.14 286.1 256.18 286.1 261.1 270.34"/><line class="cls-4" x1="220.22" y1="270.34" x2="261.1" y2="270.34"/><polygon class="cls-4" points="437.49 249.85 401.49 249.85 401.49 351.58 437.49 351.58 473.49 351.58 473.49 249.85 437.49 249.85"/><rect class="cls-4" x="464.89" y="350.08" width="86.6" height="3"/><rect class="cls-4" x="100.97" y="350.08" width="293.18" height="3"/><path class="cls-3" d="M473.66,270.47a1.95,1.95,0,0,1,3.33-1.38,2,2,0,0,1,0,2.76,2,2,0,0,1-3.33-1.38Z"/><path class="cls-3" d="M475.61,329a2,2,0,0,1,2,1.94h0a2,2,0,0,1-2,2h0a2,2,0,0,1-2-2h0A2,2,0,0,1,475.61,329Zm0-20.16a2,2,0,0,1,2,2h0a2,2,0,0,1-2,2h0a2,2,0,0,1-2-2h0A2,2,0,0,1,475.61,308.83Zm0-20.15a2,2,0,0,1,2,2h0a2,2,0,0,1-2,2h0a2,2,0,0,1-2-2h0A2,2,0,0,1,475.61,288.67Z"/><path class="cls-3" d="M473.66,351.1a1.95,1.95,0,0,1,3.33-1.39,2.14,2.14,0,0,1,.25.3,1.67,1.67,0,0,1,.18.34,1.46,1.46,0,0,1,.11.36,2,2,0,1,1-3.86.38Z"/><path class="cls-3" d="M456.68,270.47a2,2,0,0,1,0-.38,2.37,2.37,0,0,1,.11-.36,2.07,2.07,0,0,1,.18-.33,1.81,1.81,0,0,1,.24-.3,1.95,1.95,0,0,1,2.76,0,1.84,1.84,0,0,1,.25.3,2,2,0,0,1,.18.33,1.81,1.81,0,0,1,.11.36,2,2,0,1,1-3.86.38Z"/><path class="cls-3" d="M458.63,329a2,2,0,0,1,2,2h0a2,2,0,0,1-2,2h0a2,2,0,0,1-2-2h0A2,2,0,0,1,458.63,329Zm0-20.15a2,2,0,0,1,2,2h0a2,2,0,0,1-2,2h0a2,2,0,0,1-2-2h0A2,2,0,0,1,458.63,308.83Zm0-20.15a2,2,0,0,1,2,2h0a2,2,0,0,1-2,2h0a2,2,0,0,1-2-2h0A2,2,0,0,1,458.63,288.67Z"/><path class="cls-3" d="M456.68,351.1a1.94,1.94,0,0,1,2-2,2.52,2.52,0,0,1,.38,0,1.83,1.83,0,0,1,.36.12,1.87,1.87,0,0,1,.34.18,2.15,2.15,0,0,1,.29.24,2,2,0,0,1,0,2.76,1.76,1.76,0,0,1-.29.24,2.44,2.44,0,0,1-.34.18,2.34,2.34,0,0,1-.36.11,2.52,2.52,0,0,1-.38,0,1.94,1.94,0,0,1-2-1.94Z"/><path class="cls-3" d="M439.7,270.47a2,2,0,0,1,.57-1.38,1.79,1.79,0,0,1,.3-.24,2.07,2.07,0,0,1,.33-.18,2.38,2.38,0,0,1,.37-.11,1.86,1.86,0,0,1,.38,0,1.92,1.92,0,0,1,.38,0,2.3,2.3,0,0,1,.36.11,2.45,2.45,0,0,1,.34.18,2,2,0,0,1,.29.24,1.52,1.52,0,0,1,.24.3,1.67,1.67,0,0,1,.18.33,1.83,1.83,0,0,1,.11.36,2,2,0,0,1-.53,1.76,1.69,1.69,0,0,1-.29.24,1.92,1.92,0,0,1-.34.18,1.83,1.83,0,0,1-.36.11,1.92,1.92,0,0,1-.38,0,1.86,1.86,0,0,1-.38,0,1.89,1.89,0,0,1-.37-.11,1.67,1.67,0,0,1-.33-.18,1.52,1.52,0,0,1-.3-.24A2,2,0,0,1,439.7,270.47Z"/><path class="cls-3" d="M441.65,329a2,2,0,0,1,2,2h0a2,2,0,0,1-2,1.94h0a2,2,0,0,1-2-1.94h0A2,2,0,0,1,441.65,329Zm0-20.15a2,2,0,0,1,2,2h0a2,2,0,0,1-2,2h0a2,2,0,0,1-2-2h0A2,2,0,0,1,441.65,308.83Zm0-20.15a2,2,0,0,1,2,2h0a2,2,0,0,1-2,2h0a2,2,0,0,1-2-2h0A2,2,0,0,1,441.65,288.67Z"/><path class="cls-3" d="M439.7,351.1a2,2,0,0,1,.57-1.39,2.21,2.21,0,0,1,.3-.24,2.07,2.07,0,0,1,.33-.18,2.42,2.42,0,0,1,.37-.11,1.86,1.86,0,0,1,.38,0,1.92,1.92,0,0,1,.38,0,2.34,2.34,0,0,1,.36.11,2.45,2.45,0,0,1,.34.18,2.61,2.61,0,0,1,.29.24,2,2,0,0,1,.53,1.76,1.83,1.83,0,0,1-.11.36,1.71,1.71,0,0,1-.18.34,1.73,1.73,0,0,1-.24.3,2.65,2.65,0,0,1-.29.24,2.45,2.45,0,0,1-.34.18,2.34,2.34,0,0,1-.36.11,1.91,1.91,0,0,1-.38,0,1.85,1.85,0,0,1-.38,0,2.42,2.42,0,0,1-.37-.11,2.07,2.07,0,0,1-.33-.18,2.23,2.23,0,0,1-.3-.24,2.1,2.1,0,0,1-.24-.3,2.12,2.12,0,0,1-.18-.34,2.3,2.3,0,0,1-.11-.36A1.86,1.86,0,0,1,439.7,351.1Z"/><path class="cls-3" d="M422.72,270.47a1.86,1.86,0,0,1,0-.38,1.89,1.89,0,0,1,.11-.37,1.67,1.67,0,0,1,.18-.33,1.52,1.52,0,0,1,.24-.3,2,2,0,0,1,.29-.24,2.45,2.45,0,0,1,.34-.18,2.3,2.3,0,0,1,.36-.11,1.92,1.92,0,0,1,.38,0,2,2,0,0,1,1.38.57,2,2,0,0,1,0,2.76,2,2,0,0,1-1.38.57,1.92,1.92,0,0,1-.38,0,1.83,1.83,0,0,1-.36-.11,1.92,1.92,0,0,1-.34-.18,1.69,1.69,0,0,1-.29-.24A2,2,0,0,1,422.72,270.47Z"/><path class="cls-3" d="M424.67,329a2,2,0,0,1,2,2h0a2,2,0,0,1-2,2h0a2,2,0,0,1-2-2h0A2,2,0,0,1,424.67,329Zm0-20.15a2,2,0,0,1,2,2h0a2,2,0,0,1-2,2h0a2,2,0,0,1-2-2h0A2,2,0,0,1,424.67,308.83Zm0-20.15a2,2,0,0,1,2,2h0a2,2,0,0,1-2,2h0a2,2,0,0,1-2-2h0A2,2,0,0,1,424.67,288.67Z"/><path class="cls-3" d="M422.72,351.1a1.87,1.87,0,0,1,0-.38,1.83,1.83,0,0,1,.11-.36A1.71,1.71,0,0,1,423,350a1.73,1.73,0,0,1,.24-.3,2.61,2.61,0,0,1,.29-.24,1.88,1.88,0,0,1,.34-.18,1.83,1.83,0,0,1,.36-.12,2.53,2.53,0,0,1,.38,0,2,2,0,0,1,1.38.57,2.1,2.1,0,0,1,.24.3,2.12,2.12,0,0,1,.18.34,2.3,2.3,0,0,1,.11.36,1.94,1.94,0,0,1-1.91,2.33,2.53,2.53,0,0,1-.38,0,1.83,1.83,0,0,1-.36-.12,1.88,1.88,0,0,1-.34-.18,2.65,2.65,0,0,1-.29-.24A2,2,0,0,1,422.72,351.1Z"/><path class="cls-3" d="M395.64,361.94h-74V323.89l74,10.42Zm-71-3h68v-22l-68-9.58Z"/><path class="cls-3" d="M388.31,361.94H350.64V350h37.67Zm-34.67-3h31.67V353H353.64Z"/><path class="cls-3" d="M324.68,361.94h-22V280.48h22Zm-19-3h16V283.48h-16Z"/><path class="cls-3" d="M204,328.56H162.33v-1.5a22.88,22.88,0,0,1,22.85-22.85H204Zm-38.59-3H201V307.21h-15.8A19.88,19.88,0,0,0,165.38,325.56Z"/><path class="cls-3" d="M211.33,361.94h-60V325.56h60Zm-57-3h54V328.56h-54Z"/><path class="cls-3" d="M305.64,361.94H195.31V319.81H305.64Zm-107.33-3H302.64V322.81H198.31Z"/><polygon class="cls-3" points="263.36 321.31 260.36 321.31 260.36 296.68 246.25 296.68 246.25 321.31 243.25 321.31 243.25 293.68 263.36 293.68 263.36 321.31"/><path class="cls-3" d="M269.93,296.46H236.68l-5.54-17.73,10.26-9.18h23.8l10.26,9.18Zm-31-3h28.83L272,279.67l-8-7.13H242.55l-8,7.13Z"/><rect class="cls-3" x="232.86" y="277.7" width="40.89" height="3"/><path class="cls-3" d="M487.64,361.94h-75V257.2h75Zm-72-3h69V260.2h-69Z"/><path class="cls-3" d="M522.89,361.94H508.14V327.15h14.75Zm-11.75-3h8.75V330.15h-8.75Z"/><rect class="cls-3" x="477.54" y="358.94" width="86.6" height="3"/><rect class="cls-3" x="113.62" y="358.94" width="293.19" height="3"/><path class="cls-3" d="M379.14,524.14a53.78,53.78,0,0,1,90.92-54.34l-2.27,2a50.79,50.79,0,0,0-85.85,51.31Z"/><path class="cls-3" d="M338.9,544.1h-3A37.71,37.71,0,0,1,367.83,507l.44,3A34.7,34.7,0,0,0,338.9,544.1Z"/><path class="cls-3" d="M466.75,491.36,464,490.27a28.72,28.72,0,0,1,26.92-18.4v3A25.73,25.73,0,0,0,466.75,491.36Z"/><path class="cls-3" d="M424.52,529.09h-3a38.18,38.18,0,0,1,67.05-25l-2.27,2a35.18,35.18,0,0,0-61.78,23Z"/></g></g></svg>