<svg xmlns="http://www.w3.org/2000/svg" xmlns:xlink="http://www.w3.org/1999/xlink" viewBox="0 0 792 612.46"><defs><style>.cls-1{fill:none;}.cls-2{fill:#3155a4;}.cls-3{clip-path:url(#clip-path);}.cls-4{fill:#00b0df;}.cls-5{fill:#001f5b;}.cls-6{fill:#fff;}</style><clipPath id="clip-path"><rect class="cls-1" y="0.46" width="792" height="612"/></clipPath></defs><title>print-1_1</title><g id="Layer_2" data-name="Layer 2"><g id="Layer_2-2" data-name="Layer 2"><rect class="cls-2" y="0.46" width="792" height="612"/><g class="cls-3"><polyline class="cls-4" points="633.63 498.86 366.84 232.06 598.9 0 633.63 0.46"/><path class="cls-4" d="M598.9.46"/></g><path class="cls-5" d="M619,213.79a3,3,0,0,1-2.12-5.12,3.09,3.09,0,0,1,4.24,0,3,3,0,0,1-2.12,5.12Z"/><path class="cls-5" d="M709,210.79a3,3,0,0,1,3-3h0a3,3,0,0,1,3,3h0a3,3,0,0,1-3,3h0A3,3,0,0,1,709,210.79Zm-31,0a3,3,0,0,1,3-3h0a3,3,0,0,1,3,3h0a3,3,0,0,1-3,3h0A3,3,0,0,1,678,210.79Zm-31,0a3,3,0,0,1,3-3h0a3,3,0,0,1,3,3h0a3,3,0,0,1-3,3h0A3,3,0,0,1,647,210.79Z"/><path class="cls-5" d="M743,213.79a3,3,0,0,1-2.13-5.12,3.29,3.29,0,0,1,.46-.38,2.57,2.57,0,0,1,.52-.27,2.25,2.25,0,0,1,.56-.17,3,3,0,1,1,.59,5.94Z"/><path class="cls-5" d="M619,239.9a3,3,0,0,1-.59-.06,3.65,3.65,0,0,1-.56-.17,3.18,3.18,0,0,1-.51-.28,2.78,2.78,0,0,1-.46-.37,3,3,0,0,1,0-4.24,2.84,2.84,0,0,1,.46-.38,3.1,3.1,0,0,1,.51-.27,2.78,2.78,0,0,1,.56-.17,3,3,0,1,1,.59,5.94Z"/><path class="cls-5" d="M709,236.9a3,3,0,0,1,3-3h0a3,3,0,0,1,3,3h0a3,3,0,0,1-3,3h0A3,3,0,0,1,709,236.9Zm-31,0a3,3,0,0,1,3-3h0a3,3,0,0,1,3,3h0a3,3,0,0,1-3,3h0A3,3,0,0,1,678,236.9Zm-31,0a3,3,0,0,1,3-3h0a3,3,0,0,1,3,3h0a3,3,0,0,1-3,3h0A3,3,0,0,1,647,236.9Z"/><path class="cls-5" d="M743,239.9a3,3,0,0,1-3-3,3.87,3.87,0,0,1,.05-.59,2.81,2.81,0,0,1,.18-.56,2.88,2.88,0,0,1,.27-.52,3.3,3.3,0,0,1,.37-.45,3.11,3.11,0,0,1,4.25,0,2.71,2.71,0,0,1,.37.45,3.74,3.74,0,0,1,.28.52,3.6,3.6,0,0,1,.17.56,3.87,3.87,0,0,1,.05.59,3,3,0,0,1-3,3Z"/><path class="cls-5" d="M619,266a3,3,0,0,1-2.12-.88,2.76,2.76,0,0,1-.37-.46,3.18,3.18,0,0,1-.28-.51,3.66,3.66,0,0,1-.17-.57A2.85,2.85,0,0,1,616,263a3,3,0,0,1,.06-.59,3.54,3.54,0,0,1,.17-.56,3.77,3.77,0,0,1,.28-.52,3.14,3.14,0,0,1,.37-.45,2.34,2.34,0,0,1,.46-.37,2.57,2.57,0,0,1,.51-.28,2.81,2.81,0,0,1,.56-.17,3,3,0,0,1,2.71.82,2.6,2.6,0,0,1,.37.45,3,3,0,0,1,.28.52,2.81,2.81,0,0,1,.17.56,3,3,0,0,1,.06.59,2.85,2.85,0,0,1-.06.58,2.91,2.91,0,0,1-.17.57,2.57,2.57,0,0,1-.28.51,2.34,2.34,0,0,1-.37.46A3,3,0,0,1,619,266Z"/><path class="cls-5" d="M709,263a3,3,0,0,1,3-3h0a3,3,0,0,1,3,3h0a3,3,0,0,1-3,3h0A3,3,0,0,1,709,263Zm-31,0a3,3,0,0,1,3-3h0a3,3,0,0,1,3,3h0a3,3,0,0,1-3,3h0A3,3,0,0,1,678,263Zm-31,0a3,3,0,0,1,3-3h0a3,3,0,0,1,3,3h0a3,3,0,0,1-3,3h0A3,3,0,0,1,647,263Z"/><path class="cls-5" d="M743,266a3,3,0,0,1-2.13-.88,3.4,3.4,0,0,1-.37-.46,3.18,3.18,0,0,1-.28-.51,3.72,3.72,0,0,1-.17-.57A2.85,2.85,0,0,1,740,263a3,3,0,0,1,.06-.59,3.6,3.6,0,0,1,.17-.56,3.77,3.77,0,0,1,.28-.52,4,4,0,0,1,.37-.45,3,3,0,0,1,2.71-.82,2.81,2.81,0,0,1,.56.17,2.63,2.63,0,0,1,.52.28,2.66,2.66,0,0,1,.46.37,4.07,4.07,0,0,1,.37.45,3.77,3.77,0,0,1,.28.52,3.6,3.6,0,0,1,.17.56,2.94,2.94,0,0,1,.05.59,2.84,2.84,0,0,1-.05.58,3.72,3.72,0,0,1-.17.57,3.18,3.18,0,0,1-.28.51,3.43,3.43,0,0,1-.37.46,3.22,3.22,0,0,1-.46.37,3.26,3.26,0,0,1-.52.28,3.54,3.54,0,0,1-.56.17A2.85,2.85,0,0,1,743,266Z"/><path class="cls-5" d="M619,292.12a2.85,2.85,0,0,1-.58-.06,2.91,2.91,0,0,1-.57-.17,2.57,2.57,0,0,1-.51-.28,2.34,2.34,0,0,1-.46-.37,3.14,3.14,0,0,1-.37-.45,3.77,3.77,0,0,1-.28-.52,3.54,3.54,0,0,1-.17-.56,3,3,0,0,1-.06-.59,3,3,0,0,1,.88-2.12,3.09,3.09,0,0,1,4.24,0,3,3,0,0,1,.88,2.12,3,3,0,0,1-.06.59,2.81,2.81,0,0,1-.17.56,3,3,0,0,1-.28.52,2.6,2.6,0,0,1-.37.45A3,3,0,0,1,619,292.12Z"/><path class="cls-5" d="M709,289.12a3,3,0,0,1,3-3h0a3,3,0,0,1,3,3h0a3,3,0,0,1-3,3h0A3,3,0,0,1,709,289.12Zm-31,0a3,3,0,0,1,3-3h0a3,3,0,0,1,3,3h0a3,3,0,0,1-3,3h0A3,3,0,0,1,678,289.12Zm-31,0a3,3,0,0,1,3-3h0a3,3,0,0,1,3,3h0a3,3,0,0,1-3,3h0A3,3,0,0,1,647,289.12Z"/><path class="cls-5" d="M743,292.12a2.88,2.88,0,0,1-.59-.06,2.81,2.81,0,0,1-.56-.17,2.63,2.63,0,0,1-.52-.28,2.66,2.66,0,0,1-.46-.37,4,4,0,0,1-.37-.45,2.9,2.9,0,0,1-.27-.52,2.81,2.81,0,0,1-.18-.56,3.88,3.88,0,0,1-.05-.59,3,3,0,0,1,.87-2.12,3.22,3.22,0,0,1,.46-.37,3.26,3.26,0,0,1,.52-.28,3.54,3.54,0,0,1,.56-.17,3,3,0,0,1,3.58,2.94,3.88,3.88,0,0,1-.05.59,2.81,2.81,0,0,1-.18.56,2.9,2.9,0,0,1-.27.52,4.07,4.07,0,0,1-.37.45A3,3,0,0,1,743,292.12Z"/><path class="cls-5" d="M182.17,529.24a3,3,0,0,1,3,3h0a3,3,0,0,1-3,3h0a3,3,0,0,1-3-3h0A3,3,0,0,1,182.17,529.24Zm0-31a3,3,0,0,1,3,3h0a3,3,0,0,1-3,3h0a3,3,0,0,1-3-3h0A3,3,0,0,1,182.17,498.25Z"/><path class="cls-5" d="M179.17,563.24a3,3,0,0,1,3-3,3.87,3.87,0,0,1,.59.05,2.81,2.81,0,0,1,.56.18,2.88,2.88,0,0,1,.52.27,3.3,3.3,0,0,1,.45.37,3.11,3.11,0,0,1,0,4.25,2.71,2.71,0,0,1-.45.37,3.74,3.74,0,0,1-.52.28,3.6,3.6,0,0,1-.56.17,3.87,3.87,0,0,1-.59.05,3,3,0,0,1-3-3Z"/><path class="cls-5" d="M156.06,529.24a3,3,0,0,1,3,3h0a3,3,0,0,1-3,3h0a3,3,0,0,1-3-3h0A3,3,0,0,1,156.06,529.24Zm0-31a3,3,0,0,1,3,3h0a3,3,0,0,1-3,3h0a3,3,0,0,1-3-3h0A3,3,0,0,1,156.06,498.25Z"/><path class="cls-5" d="M153.06,563.24a3,3,0,0,1,.88-2.13,3.4,3.4,0,0,1,.46-.37,3.18,3.18,0,0,1,.51-.28,3.72,3.72,0,0,1,.57-.17,2.85,2.85,0,0,1,.58-.06,3,3,0,0,1,.59.06,3.6,3.6,0,0,1,.56.17,3.77,3.77,0,0,1,.52.28,4,4,0,0,1,.45.37,3,3,0,0,1,.82,2.71,2.81,2.81,0,0,1-.17.56,2.63,2.63,0,0,1-.28.52,2.66,2.66,0,0,1-.37.46,4.07,4.07,0,0,1-.45.37,3.77,3.77,0,0,1-.52.28,3.6,3.6,0,0,1-.56.17,2.94,2.94,0,0,1-.59.05,2.84,2.84,0,0,1-.58-.05,3.72,3.72,0,0,1-.57-.17,3.18,3.18,0,0,1-.51-.28,3.43,3.43,0,0,1-.46-.37,3.22,3.22,0,0,1-.37-.46,3.26,3.26,0,0,1-.28-.52,3.54,3.54,0,0,1-.17-.56A2.85,2.85,0,0,1,153.06,563.24Z"/><path class="cls-5" d="M129.95,529.24a3,3,0,0,1,3,3h0a3,3,0,0,1-3,3h0a3,3,0,0,1-3-3h0A3,3,0,0,1,129.95,529.24Zm0-31a3,3,0,0,1,3,3h0a3,3,0,0,1-3,3h0a3,3,0,0,1-3-3h0A3,3,0,0,1,129.95,498.25Z"/><path class="cls-5" d="M126.95,563.24a2.88,2.88,0,0,1,.06-.59,2.81,2.81,0,0,1,.17-.56,2.63,2.63,0,0,1,.28-.52,2.66,2.66,0,0,1,.37-.46,4,4,0,0,1,.45-.37,2.9,2.9,0,0,1,.52-.27,2.81,2.81,0,0,1,.56-.18,3.88,3.88,0,0,1,.59-.05,3,3,0,0,1,2.12.87,3.22,3.22,0,0,1,.37.46,3.26,3.26,0,0,1,.28.52,3.54,3.54,0,0,1,.17.56,3,3,0,0,1-2.94,3.58,3.88,3.88,0,0,1-.59-.05,2.81,2.81,0,0,1-.56-.18,2.9,2.9,0,0,1-.52-.27,4.07,4.07,0,0,1-.45-.37A3,3,0,0,1,126.95,563.24Z"/><path class="cls-5" d="M178.81,197v-10c0-8.84,5.15-14.5,14-14.5s14.11,5.66,14.11,14.5v10ZM201,187.34c0-4.76-2.83-7.67-8.21-7.67s-8.1,3-8.1,7.67v2.83H201Z"/><path class="cls-5" d="M201,153.82v8.77l5.9,1.69v7.07l-28.1-9.55v-7.23l28.1-9.55v7.08Zm-15.8,4.4s3.07.63,4.83,1.14l5.46,1.61v-5.54L190,157c-1.77.51-4.83,1.14-4.83,1.14Z"/><path class="cls-5" d="M195.39,137.82l-16.59,9.28v-7.82l6.76-3.18c1.93-.9,4-1.69,4-1.69v-.08s-2.12-.79-4-1.69l-6.76-3.14v-7.82l16.59,9.28h11.52v6.88Z"/><path class="cls-5" d="M201,110.63v-6H189.3c-1.06,0-2.16,0-2.16,0v.08a5.3,5.3,0,0,1,1.49,1.1l1.53,1.69-4.25,4-7.11-7.59V97.93H201v-6h5.9v18.71Z"/><path class="cls-6" d="M162,182v-10c0-8.84,5.15-14.5,14-14.5s14.11,5.66,14.11,14.5v10Zm22.21-9.71c0-4.76-2.83-7.67-8.21-7.67s-8.1,3-8.1,7.67v2.83h16.31Z"/><path class="cls-6" d="M184.18,138.82v8.77l5.9,1.69v7.07L162,146.79v-7.23l28.1-9.55v7.08Zm-15.8,4.4s3.07.63,4.83,1.14l5.46,1.61v-5.54L173.21,142c-1.77.51-4.83,1.14-4.83,1.14Z"/><path class="cls-6" d="M178.56,122.82,162,132.1v-7.82l6.76-3.18c1.93-.9,4-1.69,4-1.69v-.08s-2.12-.79-4-1.69L162,114.49v-7.82l16.59,9.28h11.52v6.88Z"/><path class="cls-6" d="M184.18,95.63v-6H172.47c-1.06,0-2.16,0-2.16,0v.08a5.3,5.3,0,0,1,1.49,1.1l1.53,1.69-4.24,4L162,88.87V82.93h22.21v-6h5.9V95.63Z"/><path class="cls-6" d="M269.14,141H272v15.76h-2.86Z"/><path class="cls-6" d="M276.1,145.46h2.71v1.31a6.94,6.94,0,0,1,0,.78h0a4.39,4.39,0,0,1,4-2.35c2.51,0,3.93,1.31,3.93,4.31v7.28H284v-6.71c0-1.38-.36-2.31-1.8-2.31a3.12,3.12,0,0,0-3,2.31,4.76,4.76,0,0,0-.2,1.51v5.2H276.1Z"/><path class="cls-6" d="M290.75,147.89h-1.46v-2.24h1.53v-3.26h2.75v3.26h2.58v2.24h-2.57v4.4a2,2,0,0,0,2.24,2.13,2.62,2.62,0,0,0,.51,0v2.46a4.86,4.86,0,0,1-.87.07c-1.58,0-4.71-.47-4.71-4.26Z"/><path class="cls-6" d="M304.14,145.2c3.26,0,5,2.38,5,5.37,0,.33-.07,1.09-.07,1.09h-7.81a3.22,3.22,0,0,0,3.4,3,5.59,5.59,0,0,0,3.26-1.24l1.09,2a7.07,7.07,0,0,1-4.55,1.62,5.8,5.8,0,0,1-6.08-5.93A5.6,5.6,0,0,1,304.14,145.2Zm2.17,4.53a2.18,2.18,0,0,0-2.24-2.35,2.64,2.64,0,0,0-2.71,2.35Z"/><path class="cls-6" d="M312,145.47h2.71v2a7.64,7.64,0,0,1,0,.8h0a3.89,3.89,0,0,1,3.6-2.91,3.26,3.26,0,0,1,.51,0v2.78a4.82,4.82,0,0,0-.67,0,3.21,3.21,0,0,0-3.09,2.38,6.06,6.06,0,0,0-.25,1.84v4.48H312Z"/><path class="cls-6" d="M321.32,145.47H324v1.31a6.94,6.94,0,0,1,0,.78h0a4.4,4.4,0,0,1,4-2.35c2.51,0,3.93,1.31,3.93,4.31v7.28h-2.8v-6.71c0-1.38-.35-2.31-1.8-2.31a3.13,3.13,0,0,0-3,2.31,4.81,4.81,0,0,0-.2,1.51v5.2h-2.82Z"/><path class="cls-6" d="M341.23,149.7h.38v-.16c0-1.49-.93-2-2.17-2a6.06,6.06,0,0,0-3.11,1.09l-1.07-2a7.64,7.64,0,0,1,4.44-1.4c3,0,4.71,1.64,4.71,4.51v7.08h-2.6v-.93a7.1,7.1,0,0,1,0-.8h0a3.66,3.66,0,0,1-3.44,2,3.56,3.56,0,0,1-3.84-3.53C334.53,149.94,339.39,149.7,341.23,149.7Zm-2.15,5.17c1.49,0,2.55-1.6,2.55-3v-.27h-.49c-1.44,0-3.77.2-3.77,1.78A1.51,1.51,0,0,0,339.08,154.87Z"/><path class="cls-6" d="M348.31,147.9h-1.47v-2.24h1.53v-3.26h2.75v3.26h2.58v2.24h-2.58v4.4a2,2,0,0,0,2.24,2.13,2.56,2.56,0,0,0,.51,0v2.46a4.9,4.9,0,0,1-.87.07c-1.58,0-4.71-.47-4.71-4.26Z"/><path class="cls-6" d="M356.75,145.48h2.82v11.32h-2.82Zm0-4.44h2.8v2.51h-2.8Z"/><path class="cls-6" d="M368.6,145.22a5.93,5.93,0,1,1-6.22,5.93A6,6,0,0,1,368.6,145.22Zm0,9.46a3.53,3.53,0,1,0-3.37-3.53A3.37,3.37,0,0,0,368.62,154.68Z"/><path class="cls-6" d="M377.66,145.49h2.71v1.31a6.94,6.94,0,0,1,0,.78h0a4.39,4.39,0,0,1,4-2.35c2.51,0,3.93,1.31,3.93,4.31v7.28h-2.8v-6.71c0-1.38-.35-2.31-1.8-2.31a3.13,3.13,0,0,0-3,2.31,4.81,4.81,0,0,0-.2,1.51v5.2h-2.82Z"/><path class="cls-6" d="M397.57,149.71h.38v-.16c0-1.49-.93-2-2.17-2a6.07,6.07,0,0,0-3.11,1.09l-1.06-2a7.63,7.63,0,0,1,4.44-1.4c3,0,4.71,1.64,4.71,4.51v7.08h-2.6v-.93a7.27,7.27,0,0,1,0-.8h0a3.67,3.67,0,0,1-3.44,2,3.56,3.56,0,0,1-3.84-3.53C390.86,150,395.73,149.71,397.57,149.71Zm-2.15,5.17c1.49,0,2.55-1.6,2.55-3v-.27h-.49c-1.44,0-3.77.2-3.77,1.78A1.51,1.51,0,0,0,395.42,154.88Z"/><path class="cls-6" d="M404.08,141.05h2.8v11.81c0,1.24.42,1.55,1.15,1.55.22,0,.42,0,.42,0v2.46a6.45,6.45,0,0,1-.89.07c-1.55,0-3.48-.4-3.48-3.64Z"/><path class="cls-6" d="M277,179.38h-5.53l-1.33,4h-3l5.55-15.76h3l5.55,15.76h-3Zm-2.77-9s-.36,1.55-.67,2.44l-1.4,4.22h4.13l-1.4-4.22c-.29-.89-.62-2.44-.62-2.44Z"/><path class="cls-6" d="M283.38,172.1h2.82v11.32h-2.82Zm0-4.44h2.8v2.51h-2.8Z"/><path class="cls-6" d="M289.86,172.1h2.71v2a7.64,7.64,0,0,1,0,.8h0a3.9,3.9,0,0,1,3.6-2.91,3.32,3.32,0,0,1,.51,0v2.78a4.82,4.82,0,0,0-.67,0,3.21,3.21,0,0,0-3.09,2.38,6.06,6.06,0,0,0-.25,1.84v4.48h-2.82Z"/><path class="cls-6" d="M299.14,172.1h2.58v.82a7.1,7.1,0,0,1,0,.78h0a4.05,4.05,0,0,1,3.64-1.86c3.06,0,5,2.42,5,5.93s-2.2,5.93-5.17,5.93a3.91,3.91,0,0,1-3.24-1.55h0s0,.4,0,1v4.75h-2.82Zm5.55,9.21c1.55,0,2.84-1.26,2.84-3.51s-1.15-3.55-2.82-3.55c-1.46,0-2.84,1.06-2.84,3.57C301.87,179.59,302.82,181.32,304.69,181.32Z"/><path class="cls-6" d="M318.63,171.84a5.94,5.94,0,1,1-6.22,5.93A6,6,0,0,1,318.63,171.84Zm0,9.46a3.53,3.53,0,1,0-3.37-3.53A3.37,3.37,0,0,0,318.65,181.3Z"/><path class="cls-6" d="M327.69,172.11h2.71v2a7.61,7.61,0,0,1,0,.8h0A3.9,3.9,0,0,1,334,172a3.19,3.19,0,0,1,.51,0v2.77a4.92,4.92,0,0,0-.67,0,3.2,3.2,0,0,0-3.09,2.37,6.07,6.07,0,0,0-.25,1.84v4.49h-2.82Z"/><path class="cls-6" d="M337.45,174.53H336v-2.24h1.53V169h2.75v3.26h2.58v2.24h-2.57v4.4a2,2,0,0,0,2.24,2.13,2.61,2.61,0,0,0,.51,0v2.46a4.88,4.88,0,0,1-.87.07c-1.58,0-4.71-.47-4.71-4.26Z"/><path class="cls-6" d="M268.1,198.87h1v6.2h3.16v.86h-4.15Z"/><path class="cls-6" d="M275.79,200.75a2.65,2.65,0,1,1-2.73,2.64A2.64,2.64,0,0,1,275.79,200.75Zm0,4.46a1.81,1.81,0,1,0-1.74-1.82A1.75,1.75,0,0,0,275.79,205.21Z"/><path class="cls-6" d="M279.92,200.87h.94v.67a3.63,3.63,0,0,1,0,.37h0a2.06,2.06,0,0,1,1.9-1.16c1.19,0,1.74.65,1.74,1.94v3.24h-1v-3c0-.71-.15-1.27-1-1.27a1.66,1.66,0,0,0-1.6,1.24,2.41,2.41,0,0,0-.08.68v2.37h-1Z"/><path class="cls-6" d="M288,207.19c.88,0,1.6-.39,1.6-1.42v-.37c0-.16,0-.32,0-.32h0a1.6,1.6,0,0,1-1.5.79,2.32,2.32,0,0,1-2.26-2.59,2.25,2.25,0,0,1,2.21-2.53,1.69,1.69,0,0,1,1.59.75h0a1.27,1.27,0,0,1,0-.16v-.47h.93v4.85A2.27,2.27,0,0,1,288,208a3.93,3.93,0,0,1-1.73-.42l.32-.76A3.26,3.26,0,0,0,288,207.19Zm1.62-3.9c0-1.32-.64-1.7-1.43-1.7s-1.38.64-1.38,1.67.56,1.77,1.47,1.77C289,205,289.65,204.61,289.65,203.29Z"/><path class="cls-6" d="M295.38,198.88h1v7.06h-1Z"/><path class="cls-6" d="M298.4,204.62a2.17,2.17,0,0,0,1.45.59c.42,0,.84-.22.84-.63,0-.93-2.6-.74-2.6-2.39,0-.92.82-1.44,1.83-1.44a2.27,2.27,0,0,1,1.63.56l-.39.73a1.85,1.85,0,0,0-1.25-.45c-.42,0-.83.18-.83.62,0,.91,2.6.71,2.6,2.37,0,.84-.72,1.47-1.83,1.47a2.72,2.72,0,0,1-1.92-.74Z"/><path class="cls-6" d="M303,198.88h1v5.51c0,.61.24.72.54.72h.17V206a2.77,2.77,0,0,1-.32,0c-.55,0-1.36-.15-1.36-1.42Z"/><path class="cls-6" d="M308.6,202.78h.22v-.09a1,1,0,0,0-1.11-1.11,2.57,2.57,0,0,0-1.41.49l-.4-.71a3.17,3.17,0,0,1,1.89-.6,1.8,1.8,0,0,1,2,2v3.2h-.9v-.48a3.7,3.7,0,0,1,0-.4h0a1.75,1.75,0,0,1-1.62,1,1.58,1.58,0,0,1-1.72-1.54C305.55,202.85,307.75,202.78,308.6,202.78Zm-1.12,2.5a1.53,1.53,0,0,0,1.35-1.61v-.16h-.25c-.73,0-2,0-2,1A.85.85,0,0,0,307.48,205.28Z"/><path class="cls-6" d="M311.49,200.88h.94v.67a3.31,3.31,0,0,1,0,.37h0a2.06,2.06,0,0,1,1.9-1.16c1.19,0,1.74.65,1.74,1.94v3.24h-1v-3c0-.71-.15-1.27-1-1.27a1.66,1.66,0,0,0-1.6,1.24,2.37,2.37,0,0,0-.08.68v2.37h-1Z"/><path class="cls-6" d="M319.72,200.76a1.69,1.69,0,0,1,1.56.8h0a2.94,2.94,0,0,1,0-.34v-2.34h1v7.06h-.92v-.48c0-.2,0-.34,0-.34h0a1.77,1.77,0,0,1-1.66.94c-1.37,0-2.23-1.08-2.23-2.65A2.36,2.36,0,0,1,319.72,200.76Zm.13,4.46c.75,0,1.46-.53,1.46-1.82,0-.9-.47-1.8-1.43-1.8-.8,0-1.46.66-1.46,1.81S319,205.22,319.85,205.22Z"/><path class="cls-6" d="M324.15,204.89h1l-.84,2.06h-.77Z"/><path class="cls-6" d="M329.83,198.88h1l3.14,4.59c.26.38.59,1,.59,1h0s-.07-.63-.07-1v-4.59h1v7.06h-1l-3.15-4.58c-.26-.39-.59-1-.59-1h0s.07.63.07,1v4.58h-1Z"/><path class="cls-6" d="M339.14,203l-2.37-4.07h1.12l1.31,2.32c.22.39.43.89.43.89h0s.21-.49.43-.89l1.29-2.32h1.12L340.12,203v3h-1Z"/><path class="cls-6" d="M269.2,109.66h6.73v2.06c0,6.6,3.85,8.87,7.7,8.87s7.56-2.2,7.56-8.59V83.42H279V77.5h19v34.57c0,10.51-7.36,14.77-14.44,14.77s-14.36-4.33-14.36-14.78Z"/><path class="cls-6" d="M310.64,77.51h26.73v5.91H317.45V99.37h17v5.91h-17V126h-6.8Z"/><path class="cls-6" d="M346.45,77.52h6.8V97.93h7.22L372.7,77.53h7.49l-14.09,23v.14l15,25.36h-7.7l-12.92-22.27h-7.22V126h-6.8Z"/><path class="cls-5" d="M183.26,310.72h8v42.92c0,6.67-4.87,11.15-11.62,11.15H176.5v-7.54h2.28c2.75,0,4.48-1.26,4.48-4.24V310.72m0-16.1h8v8h-8Z"/><path class="cls-5" d="M204.45,327.05c.16-6,3.69-9.27,8.4-9.27s8.17,3.22,8.4,9.27H204.45m24.81,6.6v-6.6c0-10.29-7.62-16.81-16.41-16.81-7.7,0-16.41,5-16.41,20.5,0,16.33,9.5,20.26,17.67,20.26a18.33,18.33,0,0,0,14.37-6.44l-5.81-4.95a12.51,12.51,0,0,1-8.72,3.85c-5.5,0-9.5-3.3-9.5-9.82Z"/><path class="cls-5" d="M235.61,298.63h8v12.09h5.81v6.12h-5.81V340c0,2.2.86,3,2.83,3h3v7.54h-4.16c-5.58,0-9.66-3.53-9.66-9.82V316.84h-4v-6.12h4Z"/><path class="cls-5" d="M276.05,325.72c6.28,0,9.11,4,9.11,8.4s-2.83,8.4-9.11,8.4H263V325.72h13m-21.52,24.82h23.56c8.4,0,15.55-6.2,15.55-15.86,0-5.65-3-11.47-9.11-12.88v-.16c6.52-2.91,8.24-7.38,8.24-12,0-8.8-5.66-15-16.57-15H254.53v55.91m20.73-48.37c6.13,0,9,3.69,9,8s-2.91,8-9,8H263v-16Z"/><path class="cls-5" d="M298.25,294.62h8v45.63c0,1.81,1,2.75,3,2.75H312v7.54h-3.53c-5.81,0-10.21-2.51-10.21-9.66Z"/><path class="cls-5" d="M315.36,310.72h8v23.71c0,5.42,3.38,8.56,7.93,8.56s7.85-3.14,7.85-8.56V310.72h8v39.81h-8v-4.24H339A12.71,12.71,0,0,1,328.71,351a13.37,13.37,0,0,1-13.35-13.82Z"/><path class="cls-5" d="M359.48,327.05c.16-6,3.69-9.27,8.4-9.27s8.17,3.22,8.4,9.27H359.48m24.82,6.6v-6.6c0-10.29-7.62-16.81-16.41-16.81-7.7,0-16.41,5-16.41,20.5,0,16.33,9.5,20.26,17.67,20.26a18.34,18.34,0,0,0,14.37-6.44l-5.81-4.95a12.51,12.51,0,0,1-8.72,3.85c-5.5,0-9.5-3.3-9.5-9.82Z"/><path class="cls-5" d="M380.75,303.63a3.54,3.54,0,1,1-3.54,3.54A3.54,3.54,0,0,1,380.75,303.63Zm0,6.38a2.84,2.84,0,1,0-2.78-2.84A2.72,2.72,0,0,0,380.75,310Zm-1.34-5H381c.95,0,1.42.38,1.42,1.23a1.09,1.09,0,0,1-1.06,1.2l1.18,1.69h-.82l-1.18-1.67h-.4v1.67h-.7Zm.7,1.81h.49c.57,0,1.09,0,1.09-.58s-.47-.59-.93-.59h-.65Z"/><path class="cls-6" d="M170,298.16h8v42.92c0,6.67-4.87,11.15-11.62,11.15h-3.14v-7.54h2.28c2.75,0,4.48-1.26,4.48-4.24V298.16m0-16.1h8v8h-8Z"/><path class="cls-6" d="M191.21,314.5c.16-6,3.69-9.27,8.4-9.27s8.17,3.22,8.4,9.27H191.21m24.81,6.6v-6.6c0-10.29-7.62-16.81-16.41-16.81-7.7,0-16.41,5-16.41,20.5,0,16.33,9.5,20.26,17.67,20.26A18.33,18.33,0,0,0,215.24,332l-5.81-4.95a12.51,12.51,0,0,1-8.72,3.85c-5.5,0-9.5-3.3-9.5-9.82Z"/><path class="cls-6" d="M222.37,286.07h8v12.09h5.81v6.12h-5.81v23.17c0,2.2.86,3,2.83,3h3V338H232c-5.58,0-9.66-3.53-9.66-9.82V304.29h-4v-6.12h4Z"/><path class="cls-6" d="M262.81,313.16c6.28,0,9.11,4,9.11,8.4s-2.83,8.4-9.11,8.4h-13V313.16h13M241.29,338h23.56c8.4,0,15.55-6.2,15.55-15.86,0-5.65-3-11.47-9.11-12.88v-.16c6.52-2.91,8.24-7.38,8.24-12,0-8.8-5.66-15-16.57-15H241.29V338M262,289.6c6.13,0,9,3.69,9,8s-2.91,8-9,8H249.77v-16Z"/><path class="cls-6" d="M285,282.07h8v45.63c0,1.81,1,2.75,3,2.75h2.75V338h-3.53c-5.81,0-10.21-2.51-10.21-9.66Z"/><path class="cls-6" d="M302.12,298.16h8v23.71c0,5.42,3.38,8.56,7.93,8.56s7.85-3.14,7.85-8.56V298.16h8V338h-8v-4.24h-.16a12.71,12.71,0,0,1-10.29,4.71,13.37,13.37,0,0,1-13.35-13.82Z"/><path class="cls-6" d="M346.24,314.5c.16-6,3.69-9.27,8.4-9.27s8.17,3.22,8.4,9.27H346.24m24.82,6.6v-6.6c0-10.29-7.62-16.81-16.41-16.81-7.7,0-16.41,5-16.41,20.5,0,16.33,9.5,20.26,17.67,20.26A18.34,18.34,0,0,0,370.27,332l-5.81-4.95a12.51,12.51,0,0,1-8.72,3.85c-5.5,0-9.5-3.3-9.5-9.82Z"/><path class="cls-6" d="M367.51,291.08a3.54,3.54,0,1,1-3.54,3.54A3.54,3.54,0,0,1,367.51,291.08Zm0,6.38a2.84,2.84,0,1,0-2.78-2.84A2.72,2.72,0,0,0,367.51,297.46Zm-1.34-5h1.57c.95,0,1.42.38,1.42,1.23a1.09,1.09,0,0,1-1.06,1.2l1.18,1.69h-.82l-1.18-1.67h-.4v1.67h-.7Zm.7,1.81h.49c.57,0,1.09,0,1.09-.58s-.47-.59-.93-.59h-.65Z"/><path class="cls-6" d="M133.17,404.29h-6V381.18h6Zm0-61.71h-6V319.47h6Zm0-61.71h-6V257.76h6Zm0-61.71h-6V196h6Zm0-61.71h-6V134.34h6Zm0-61.71h-6V72.62h6Z"/><rect class="cls-6" x="487.69" y="505.85" width="5" height="2"/><path class="cls-6" d="M479.83,507.85h-7.92v-2h7.92Zm-15.78,0h-7.92v-2H464Zm-15.78,0h-7.92v-2h7.92Zm-15.78,0h-7.92v-2h7.92Zm-15.78,0h-7.92v-2h7.92Zm-15.78,0H393v-2h7.92Zm-15.78,0H377.2v-2h7.92Zm-15.78,0h-7.92v-2h7.92Zm-15.78,0h-7.92v-2h7.92Zm-15.78,0h-7.92v-2h7.92Zm-15.78,0h-7.92v-2H322Zm-15.78,0h-7.92v-2h7.92Zm-15.78,0H282.5v-2h7.92Zm-15.78,0h-7.92v-2h7.92Zm-15.78,0h-7.92v-2h7.92Zm-15.78,0h-7.92v-2h7.92Zm-15.78,0h-7.92v-2h7.92Zm-15.78,0h-7.92v-2h7.92Zm-15.78,0h-7.92v-2h7.92Zm-15.78,0H172v-2h7.92Zm-15.78,0h-7.92v-2h7.92Z"/><rect class="cls-6" x="143.36" y="505.85" width="5" height="2"/><rect class="cls-6" x="474.19" y="522.35" width="20" height="5"/><path class="cls-6" d="M439.53,527.35H404.78v-5h34.75Zm-69.42,0H335.36v-5h34.75Zm-69.42,0H265.94v-5h34.75Zm-69.42,0H196.53v-5h34.75Z"/><rect class="cls-6" x="141.86" y="522.35" width="20" height="5"/><rect class="cls-6" x="487.69" y="541.85" width="5" height="2"/><path class="cls-6" d="M479.83,543.85h-7.92v-2h7.92Zm-15.78,0h-7.92v-2H464Zm-15.78,0h-7.92v-2h7.92Zm-15.78,0h-7.92v-2h7.92Zm-15.78,0h-7.92v-2h7.92Zm-15.78,0H393v-2h7.92Zm-15.78,0H377.2v-2h7.92Zm-15.78,0h-7.92v-2h7.92Zm-15.78,0h-7.92v-2h7.92Zm-15.78,0h-7.92v-2h7.92Zm-15.78,0h-7.92v-2H322Zm-15.78,0h-7.92v-2h7.92Zm-15.78,0H282.5v-2h7.92Zm-15.78,0h-7.92v-2h7.92Zm-15.78,0h-7.92v-2h7.92Zm-15.78,0h-7.92v-2h7.92Zm-15.78,0h-7.92v-2h7.92Zm-15.78,0h-7.92v-2h7.92Zm-15.78,0h-7.92v-2h7.92Zm-15.78,0H172v-2h7.92Zm-15.78,0h-7.92v-2h7.92Z"/><rect class="cls-6" x="143.36" y="541.85" width="5" height="2"/><path class="cls-6" d="M478.3,301.61l-6-.15a218.44,218.44,0,0,1,2.89-30.25l5.92,1A212.48,212.48,0,0,0,478.3,301.61ZM488,243.47l-5.72-1.81a215.74,215.74,0,0,1,11.2-28.25l5.41,2.6A209.64,209.64,0,0,0,488,243.47Zm25.53-53.11-5-3.33a218.16,218.16,0,0,1,18.59-24l4.48,4A212.16,212.16,0,0,0,513.55,190.36Zm39.24-44-3.88-4.58a217.9,217.9,0,0,1,24.51-18l3.2,5.07A211.82,211.82,0,0,0,552.79,146.37Zm49.88-31.45-2.46-5.47A215.85,215.85,0,0,1,628.77,99l1.66,5.77A209.78,209.78,0,0,0,602.67,114.92Zm56.66-16.32-.83-5.94a219.2,219.2,0,0,1,30.31-2.1v6A213.27,213.27,0,0,0,659.33,98.61Z"/><path class="cls-5" d="M496.22,382.94V365.32a.52.52,0,0,1,.29-.47l17.42-8.28a.52.52,0,0,0,.29-.47V354.8a.51.51,0,0,0-.61-.5l-16.77,3.33a.51.51,0,0,1-.61-.5v-12.6a.53.53,0,0,1,.34-.49l5.69-2a.53.53,0,0,0,.34-.49v-1a.5.5,0,0,0-.58-.5l-10.44,1.53h-.14L481,340a.51.51,0,0,0-.58.5v1.08a.53.53,0,0,0,.34.49l5.69,2a.53.53,0,0,1,.34.49v12.6a.51.51,0,0,1-.61.5l-16.77-3.33a.51.51,0,0,0-.61.5v1.31a.52.52,0,0,0,.29.47l17.42,8.28a.52.52,0,0,1,.29.47V383c0,3.62,2.12,6.55,4.73,6.55S496.22,386.56,496.22,382.94Z"/><path class="cls-6" d="M479.95,365.19V347.57a.52.52,0,0,1,.29-.47l17.42-8.28a.52.52,0,0,0,.29-.47V337a.51.51,0,0,0-.61-.5l-16.77,3.33a.51.51,0,0,1-.61-.5v-12.6a.53.53,0,0,1,.34-.49l5.69-2a.53.53,0,0,0,.34-.49v-1a.5.5,0,0,0-.58-.5l-10.44,1.53h-.14l-10.44-1.53a.51.51,0,0,0-.58.5v1.08a.53.53,0,0,0,.34.49l5.69,2a.53.53,0,0,1,.34.49v12.6a.51.51,0,0,1-.61.5l-16.77-3.33a.51.51,0,0,0-.61.5v1.31a.52.52,0,0,0,.29.47l17.42,8.28a.52.52,0,0,1,.29.47v17.62c0,3.62,2.12,6.55,4.73,6.55S479.95,368.8,479.95,365.19Z"/><path class="cls-6" d="M663.93,553.43l0,0-5.06-5.06a.21.21,0,0,1-.05-.22l2.65-7.44a.21.21,0,0,0-.05-.22l-.38-.38a.21.21,0,0,0-.32,0l-3.89,5.82a.21.21,0,0,1-.32,0l-3.65-3.65a.22.22,0,0,1,0-.24l1.07-2.22a.22.22,0,0,0,0-.24l-.3-.3a.21.21,0,0,0-.31,0l-2.58,3.46,0,0-3.46,2.58a.21.21,0,0,0,0,.31l.31.31a.22.22,0,0,0,.24,0l2.22-1.07a.22.22,0,0,1,.24,0l3.65,3.65a.21.21,0,0,1,0,.32l-5.82,3.89a.21.21,0,0,0,0,.32l.38.38a.21.21,0,0,0,.22.05L655.9,551a.21.21,0,0,1,.22.05l5.06,5.06,0,0c1,1,2.51,1.28,3.27.53S665,554.47,663.93,553.43Z"/><path class="cls-6" d="M663.93,520.13l0,0L658.84,515a.21.21,0,0,1-.05-.22l2.65-7.44a.21.21,0,0,0-.05-.22l-.38-.38a.21.21,0,0,0-.32,0l-3.89,5.82a.21.21,0,0,1-.32,0L652.81,509a.22.22,0,0,1,0-.24l1.07-2.22a.22.22,0,0,0,0-.24l-.3-.3a.21.21,0,0,0-.31,0l-2.58,3.46,0,0-3.46,2.58a.21.21,0,0,0,0,.31l.31.31a.22.22,0,0,0,.24,0l2.22-1.07a.22.22,0,0,1,.24,0l3.65,3.65a.21.21,0,0,1,0,.32l-5.82,3.89a.21.21,0,0,0,0,.32l.38.38a.21.21,0,0,0,.22.05l7.44-2.65a.21.21,0,0,1,.22.05l5.06,5.06,0,0c1,1,2.51,1.28,3.27.53S665,521.18,663.93,520.13Z"/><path class="cls-6" d="M663.93,486.84l0,0-5.06-5.06a.21.21,0,0,1-.05-.22l2.65-7.44a.21.21,0,0,0-.05-.22l-.38-.38a.21.21,0,0,0-.32,0l-3.89,5.82a.21.21,0,0,1-.32,0l-3.65-3.65a.22.22,0,0,1,0-.24l1.07-2.22a.22.22,0,0,0,0-.24l-.3-.3a.21.21,0,0,0-.31,0l-2.58,3.46,0,0-3.46,2.58a.21.21,0,0,0,0,.31l.31.31a.22.22,0,0,0,.24,0l2.22-1.07a.22.22,0,0,1,.24,0l3.65,3.65a.21.21,0,0,1,0,.32l-5.82,3.89a.21.21,0,0,0,0,.32l.38.38a.21.21,0,0,0,.22.05l7.44-2.65a.21.21,0,0,1,.22.05l5.06,5.06,0,0c1,1,2.51,1.28,3.27.53S665,487.88,663.93,486.84Z"/><path class="cls-6" d="M663.93,453.54l0,0-5.06-5.06a.21.21,0,0,1-.05-.22l2.65-7.44a.21.21,0,0,0-.05-.22l-.38-.38a.21.21,0,0,0-.32,0L656.78,446a.21.21,0,0,1-.32,0l-3.65-3.65a.22.22,0,0,1,0-.24l1.07-2.22a.22.22,0,0,0,0-.24l-.3-.3a.21.21,0,0,0-.31,0l-2.58,3.46,0,0-3.46,2.58a.21.21,0,0,0,0,.31l.31.31a.22.22,0,0,0,.24,0l2.22-1.07a.22.22,0,0,1,.24,0l3.65,3.65a.21.21,0,0,1,0,.32L647.9,453a.21.21,0,0,0,0,.32l.38.38a.21.21,0,0,0,.22.05l7.44-2.65a.21.21,0,0,1,.22.05l5.06,5.06,0,0c1,1,2.51,1.28,3.27.53S665,454.59,663.93,453.54Z"/><path class="cls-5" d="M186.54,412.29v-6.46h-5.23v6.46h-3V396.85h3v6.31h5.23v-6.31h3v15.44Z"/><path class="cls-5" d="M193.7,412.29V396.85h10.17v2.69h-7.16v3.62h6.09v2.69h-6.09v3.75h7.16v2.69Z"/><path class="cls-5" d="M216.14,412.29l-.91-2.73h-5.49l-.93,2.73h-3.14l5.62-15.44h2.36l5.64,15.44Zm-3.6-10.88-2,5.62h3.84Z"/><path class="cls-5" d="M231.39,410.82a5.62,5.62,0,0,1-4.08,1.47h-5.57V396.85h5.57a5.63,5.63,0,0,1,4.08,1.47c1.73,1.73,1.56,3.86,1.56,6.18S233.12,409.08,231.39,410.82Zm-2.1-10.32a2.69,2.69,0,0,0-2.25-1h-2.28V409.6H227a2.69,2.69,0,0,0,2.25-1c.56-.69.65-1.8.65-4.14S229.85,401.19,229.29,400.49Z"/><path class="cls-5" d="M246.24,412.94l-1.37-1.37a6.09,6.09,0,0,1-7.31-.85c-1.56-1.56-1.52-3.49-1.52-6.16s0-4.6,1.52-6.16a6,6,0,0,1,8.35,0c1.56,1.56,1.54,3.49,1.54,6.16,0,2.32,0,4-1,5.46l1.32,1.32Zm-2.56-12.71a2.51,2.51,0,0,0-1.93-.82,2.55,2.55,0,0,0-2,.82c-.58.65-.74,1.37-.74,4.34s.15,3.69.74,4.34a2.55,2.55,0,0,0,2,.82,1.73,1.73,0,0,0,1-.28l-1.34-1.32,1.6-1.58,1.15,1.15a10,10,0,0,0,.28-3.12C244.44,401.6,244.27,400.89,243.68,400.23Z"/><path class="cls-5" d="M256.5,412.42a5.37,5.37,0,0,1-5.68-5.42V396.85h3v10a2.68,2.68,0,1,0,5.36,0v-10h3V407A5.37,5.37,0,0,1,256.5,412.42Z"/><path class="cls-5" d="M274.87,412.29l-.91-2.73h-5.49l-.93,2.73h-3.14L270,396.85h2.36L278,412.29Zm-3.6-10.88-2,5.62h3.84Z"/><path class="cls-5" d="M288.66,412.29l-3-6.16h-2.17v6.16h-3V396.85h6a4.67,4.67,0,0,1,5,4.73,4.16,4.16,0,0,1-2.82,4.05l3.45,6.66Zm-2.34-12.75h-2.84v4.08h2.84a2,2,0,1,0,0-4.08Z"/><path class="cls-5" d="M301.08,399.54v12.75h-3V399.54h-4v-2.69h11.08v2.69Z"/><path class="cls-5" d="M308.11,412.29V396.85h10.17v2.69h-7.15v3.62h6.09v2.69h-6.09v3.75h7.15v2.69Z"/><path class="cls-5" d="M330,412.29l-3-6.16h-2.17v6.16h-3V396.85h6a4.67,4.67,0,0,1,5,4.73,4.16,4.16,0,0,1-2.82,4.05l3.45,6.66Zm-2.34-12.75h-2.84v4.08h2.84a2,2,0,1,0,0-4.08Z"/><path class="cls-5" d="M340.75,412.42a7.25,7.25,0,0,1-5.64-2l2-2a5.05,5.05,0,0,0,3.73,1.3c1.78,0,2.73-.67,2.73-1.91a1.72,1.72,0,0,0-.48-1.3,2.3,2.3,0,0,0-1.37-.54l-1.86-.26a5.22,5.22,0,0,1-3-1.28,4.07,4.07,0,0,1-1.11-3c0-2.75,2-4.68,5.38-4.68a6.61,6.61,0,0,1,5,1.8l-1.91,1.89a4.3,4.3,0,0,0-3.17-1.06c-1.6,0-2.38.89-2.38,2a1.49,1.49,0,0,0,.46,1.11,2.66,2.66,0,0,0,1.43.61l1.82.26a5.1,5.1,0,0,1,2.95,1.19,4.32,4.32,0,0,1,1.19,3.27C346.47,410.73,344,412.42,340.75,412.42Z"/><path class="cls-6" d="M173.3,404.29v-6.46h-5.23v6.46h-3V388.85h3v6.31h5.23v-6.31h3v15.44Z"/><path class="cls-6" d="M180.46,404.29V388.85h10.17v2.69h-7.16v3.62h6.09v2.69h-6.09v3.75h7.16v2.69Z"/><path class="cls-6" d="M202.9,404.29l-.91-2.73h-5.49l-.93,2.73h-3.14L198,388.85h2.36L206,404.29Zm-3.6-10.88-2,5.62h3.84Z"/><path class="cls-6" d="M218.15,402.82a5.62,5.62,0,0,1-4.08,1.47H208.5V388.85h5.57a5.63,5.63,0,0,1,4.08,1.47c1.73,1.73,1.56,3.86,1.56,6.18S219.88,401.08,218.15,402.82ZM216,392.49a2.69,2.69,0,0,0-2.25-1h-2.28V401.6h2.28a2.69,2.69,0,0,0,2.25-1c.56-.69.65-1.8.65-4.14S216.61,393.19,216,392.49Z"/><path class="cls-6" d="M233,404.94l-1.37-1.37a6.09,6.09,0,0,1-7.31-.85c-1.56-1.56-1.52-3.49-1.52-6.16s0-4.6,1.52-6.16a6,6,0,0,1,8.35,0c1.56,1.56,1.54,3.49,1.54,6.16,0,2.32,0,4-1,5.46l1.32,1.32Zm-2.56-12.71a2.5,2.5,0,0,0-1.93-.82,2.55,2.55,0,0,0-2,.82c-.59.65-.74,1.37-.74,4.34s.15,3.69.74,4.34a2.55,2.55,0,0,0,2,.82,1.73,1.73,0,0,0,1-.28l-1.34-1.32,1.6-1.58,1.15,1.15a10,10,0,0,0,.28-3.12C231.2,393.6,231,392.89,230.44,392.23Z"/><path class="cls-6" d="M243.26,404.42a5.37,5.37,0,0,1-5.68-5.42V388.85h3v10a2.68,2.68,0,1,0,5.36,0v-10h3V399A5.37,5.37,0,0,1,243.26,404.42Z"/><path class="cls-6" d="M261.63,404.29l-.91-2.73h-5.49l-.93,2.73h-3.14l5.62-15.44h2.36l5.64,15.44ZM258,393.41l-2,5.62h3.84Z"/><path class="cls-6" d="M275.42,404.29l-3-6.16h-2.17v6.16h-3V388.85h6a4.67,4.67,0,0,1,5,4.73,4.16,4.16,0,0,1-2.82,4.05l3.45,6.66Zm-2.34-12.75h-2.84v4.08h2.84a2,2,0,1,0,0-4.08Z"/><path class="cls-6" d="M287.84,391.54v12.75h-3V391.54h-4v-2.69h11.08v2.69Z"/><path class="cls-6" d="M294.87,404.29V388.85H305v2.69h-7.16v3.62H304v2.69h-6.09v3.75H305v2.69Z"/><path class="cls-6" d="M316.73,404.29l-3-6.16h-2.17v6.16h-3V388.85h6a4.67,4.67,0,0,1,5,4.73,4.16,4.16,0,0,1-2.82,4.05l3.45,6.66Zm-2.34-12.75h-2.84v4.08h2.84a2,2,0,1,0,0-4.08Z"/><path class="cls-6" d="M327.51,404.42a7.25,7.25,0,0,1-5.64-2l2-2a5.06,5.06,0,0,0,3.73,1.3c1.78,0,2.73-.67,2.73-1.91a1.72,1.72,0,0,0-.48-1.3,2.29,2.29,0,0,0-1.37-.54l-1.87-.26a5.23,5.23,0,0,1-3-1.28,4.08,4.08,0,0,1-1.11-3c0-2.75,2-4.68,5.38-4.68a6.61,6.61,0,0,1,5,1.8l-1.91,1.89a4.3,4.3,0,0,0-3.17-1.06c-1.6,0-2.38.89-2.38,2a1.49,1.49,0,0,0,.46,1.11,2.66,2.66,0,0,0,1.43.61l1.82.26a5.1,5.1,0,0,1,2.95,1.19,4.32,4.32,0,0,1,1.19,3.27C333.23,402.73,330.74,404.42,327.51,404.42Z"/><path class="cls-6" d="M588,324.58l-2.19-3.89-1.1,1.32v2.57H583V316h1.67v3.72l3-3.72h2l-2.83,3.39,3,5.15Z"/><path class="cls-6" d="M591.29,324.58V316H593v8.54Z"/><path class="cls-6" d="M598.11,324.65a3.15,3.15,0,0,1-2.3-.94c-.86-.86-.84-1.93-.84-3.41s0-2.54.84-3.41a3.15,3.15,0,0,1,2.3-.94,3,3,0,0,1,3.14,2.7h-1.69a1.41,1.41,0,0,0-1.44-1.21,1.38,1.38,0,0,0-1.07.44c-.32.36-.42.77-.42,2.41s.1,2.05.42,2.41a1.38,1.38,0,0,0,1.07.44,1.41,1.41,0,0,0,1.44-1.21h1.69A3,3,0,0,1,598.11,324.65Z"/><path class="cls-6" d="M608,324.58l-2.2-3.89-1.1,1.32v2.57H603V316h1.67v3.72l3-3.72h2l-2.83,3.39,3,5.15Z"/><path class="cls-6" d="M616.32,323.72a3.32,3.32,0,0,1-4.62,0c-.86-.86-.84-1.93-.84-3.41s0-2.54.84-3.41a3.32,3.32,0,0,1,4.62,0c.86.86.85,1.93.85,3.41S617.19,322.85,616.32,323.72Zm-1.24-5.8a1.38,1.38,0,0,0-1.07-.46,1.41,1.41,0,0,0-1.08.46c-.32.36-.41.75-.41,2.4s.08,2,.41,2.4a1.41,1.41,0,0,0,1.08.46,1.38,1.38,0,0,0,1.07-.46c.32-.36.42-.76.42-2.4S615.41,318.27,615.09,317.91Z"/><path class="cls-6" d="M620.85,317.53v2.1h3.37v1.49h-3.37v3.47h-1.67V316h5.63v1.49Z"/><path class="cls-6" d="M628.23,317.53v2.1h3.37v1.49h-3.37v3.47h-1.67V316h5.63v1.49Z"/><path class="cls-6" d="M642.4,324.58l-.62-.74a3.16,3.16,0,0,1-2.21.82c-1.88,0-2.82-1-2.82-2.59a2.84,2.84,0,0,1,1.54-2.29,2.77,2.77,0,0,1-.85-1.81,2,2,0,0,1,2.28-2,2,2,0,0,1,2.18,2,1.78,1.78,0,0,1-.87,1.49s-.4.3-.61.44l1.44,1.7a2.67,2.67,0,0,0,.43-1.5h1.48a4.14,4.14,0,0,1-.91,2.65l1.54,1.81Zm-3.27-3.85a1.54,1.54,0,0,0-.86,1.31,1.22,1.22,0,0,0,1.29,1.2,1.78,1.78,0,0,0,1.27-.5Zm.59-3.43a.65.65,0,0,0-.71.7c0,.31.26.61.56,1l.36-.24a.93.93,0,0,0,.49-.72A.66.66,0,0,0,639.71,317.3Z"/><path class="cls-6" d="M656.34,324.58H655l-1.57-5.18-1.57,5.18h-1.39L648.14,316h1.74l1.32,5.38,1.56-5.38H654l1.56,5.38,1.33-5.38h1.74Z"/><path class="cls-6" d="M660,324.58V316h5.63v1.49h-4v2H665V321h-3.37v2.08h4v1.49Z"/><path class="cls-6" d="M667.57,324.58V316h1.67v7.05h3.87v1.49Z"/><path class="cls-6" d="M677.31,324.65a3.15,3.15,0,0,1-2.3-.94c-.86-.86-.84-1.93-.84-3.41s0-2.54.84-3.41a3.15,3.15,0,0,1,2.3-.94,3,3,0,0,1,3.14,2.7h-1.69a1.41,1.41,0,0,0-1.44-1.21,1.38,1.38,0,0,0-1.07.44c-.32.36-.42.77-.42,2.41s.1,2.05.42,2.41a1.38,1.38,0,0,0,1.07.44,1.41,1.41,0,0,0,1.44-1.21h1.69A3,3,0,0,1,677.31,324.65Z"/><path class="cls-6" d="M687.36,323.72a3.32,3.32,0,0,1-4.62,0c-.86-.86-.84-1.93-.84-3.41s0-2.54.84-3.41a3.32,3.32,0,0,1,4.62,0c.86.86.85,1.93.85,3.41S688.22,322.85,687.36,323.72Zm-1.24-5.8a1.38,1.38,0,0,0-1.07-.46,1.41,1.41,0,0,0-1.08.46c-.32.36-.41.75-.41,2.4s.08,2,.41,2.4a1.41,1.41,0,0,0,1.08.46,1.38,1.38,0,0,0,1.07-.46c.32-.36.42-.76.42-2.4S686.45,318.27,686.13,317.91Z"/><path class="cls-6" d="M696.29,324.58v-5l-1.63,3.24h-1.13l-1.64-3.24v5h-1.67V316h1.64l2.23,4.62,2.22-4.62H698v8.54Z"/><path class="cls-6" d="M700.25,324.58V316h5.63v1.49h-4v2h3.37V321h-3.37v2.08h4v1.49Z"/><path class="cls-6" d="M586.28,331.93V339h-1.67v-7.05h-2.23v-1.49h6.13v1.49Z"/><path class="cls-6" d="M590.17,339v-8.54h5.63v1.49h-4v2h3.37v1.49h-3.37v2.08h4V339Z"/><path class="cls-6" d="M602.26,339l-1.67-3.41h-1.2V339h-1.67v-8.54h3.35a2.58,2.58,0,0,1,2.77,2.61,2.3,2.3,0,0,1-1.56,2.24l1.91,3.68ZM601,331.93h-1.57v2.25H601a1.13,1.13,0,1,0,0-2.25Z"/><path class="cls-6" d="M611.94,339v-5l-1.63,3.24h-1.13L607.54,334v5h-1.67v-8.54h1.64l2.23,4.62,2.22-4.62h1.64V339Z"/><path class="cls-6" d="M615.91,339v-8.54h1.67V339Z"/><path class="cls-6" d="M624.92,339l-3.38-5.24V339h-1.67v-8.54h1.49l3.38,5.23v-5.23h1.67V339Z"/><path class="cls-6" d="M633.56,339l-.5-1.51h-3L629.5,339h-1.74l3.11-8.54h1.31l3.12,8.54Zm-2-6-1.08,3.11h2.12Z"/><path class="cls-6" d="M636.65,339v-8.54h1.67v7.05h3.87V339Z"/><path class="cls-6" d="M650.2,331.93V339h-1.67v-7.05H646.3v-1.49h6.13v1.49Z"/><path class="cls-6" d="M659,338.12a3.32,3.32,0,0,1-4.62,0c-.86-.86-.84-1.93-.84-3.41s0-2.54.84-3.41a3.32,3.32,0,0,1,4.62,0c.86.86.85,1.93.85,3.41S659.88,337.25,659,338.12Zm-1.24-5.8a1.38,1.38,0,0,0-1.07-.46,1.41,1.41,0,0,0-1.08.46c-.32.36-.41.75-.41,2.4s.08,2,.41,2.4a1.41,1.41,0,0,0,1.08.46,1.38,1.38,0,0,0,1.07-.46c.32-.36.42-.76.42-2.4S658.11,332.67,657.78,332.31Z"/><path class="cls-6" d="M664.89,339.05a3,3,0,0,1-3.14-3v-5.61h1.67V336a1.48,1.48,0,1,0,3,0v-5.55H668v5.61A3,3,0,0,1,664.89,339.05Z"/><path class="cls-6" d="M674.73,339l-1.67-3.41h-1.2V339h-1.67v-8.54h3.35a2.58,2.58,0,0,1,2.77,2.61,2.3,2.3,0,0,1-1.56,2.24l1.91,3.68Zm-1.29-7.05h-1.57v2.25h1.57a1.13,1.13,0,1,0,0-2.25Z"/><path class="cls-6" d="M588.18,352.52a3.32,3.32,0,0,1-4.62,0c-.86-.86-.84-1.93-.84-3.41s0-2.54.84-3.41a3.32,3.32,0,0,1,4.62,0c.86.86.85,1.93.85,3.41S589,351.65,588.18,352.52Zm-1.24-5.8a1.38,1.38,0,0,0-1.07-.46,1.41,1.41,0,0,0-1.08.46c-.32.36-.41.75-.41,2.4s.08,2,.41,2.4a1.41,1.41,0,0,0,1.08.46,1.38,1.38,0,0,0,1.07-.46c.32-.36.42-.76.42-2.4S587.27,347.07,586.95,346.71Z"/><path class="cls-6" d="M594.35,350.17h-1.64v3.21H591v-8.54h3.31a2.67,2.67,0,1,1,0,5.33Zm-.08-3.84h-1.56v2.34h1.56a1.17,1.17,0,1,0,0-2.34Z"/><path class="cls-6" d="M598.88,353.38v-8.54h5.63v1.49h-4v2h3.37v1.49h-3.37v2.08h4v1.49Z"/><path class="cls-6" d="M611,353.38,609.3,350h-1.2v3.41h-1.67v-8.54h3.35a2.58,2.58,0,0,1,2.77,2.61A2.3,2.3,0,0,1,611,349.7l1.91,3.68Zm-1.29-7.05h-1.57v2.25h1.57a1.13,1.13,0,1,0,0-2.25Z"/><path class="cls-6" d="M619.44,353.38l-.5-1.51h-3l-.52,1.51h-1.74l3.11-8.54h1.31l3.12,8.54Zm-2-6-1.08,3.11h2.12Z"/><path class="cls-6" d="M625.08,346.33v7.05h-1.67v-7.05h-2.23v-1.49h6.13v1.49Z"/><path class="cls-6" d="M629,353.38v-8.54h1.67v8.54Z"/><path class="cls-6" d="M638.1,352.52a3.32,3.32,0,0,1-4.62,0c-.86-.86-.84-1.93-.84-3.41s0-2.54.84-3.41a3.32,3.32,0,0,1,4.62,0c.86.86.85,1.93.85,3.41S639,351.65,638.1,352.52Zm-1.24-5.8a1.38,1.38,0,0,0-1.07-.46,1.41,1.41,0,0,0-1.08.46c-.32.36-.41.75-.41,2.4s.08,2,.41,2.4a1.41,1.41,0,0,0,1.08.46,1.38,1.38,0,0,0,1.07-.46c.32-.36.42-.76.42-2.4S637.19,347.07,636.87,346.71Z"/><path class="cls-6" d="M646,353.38l-3.38-5.24v5.24H641v-8.54h1.49l3.38,5.23v-5.23h1.67v8.54Z"/><path class="cls-6" d="M652.14,353.45a4,4,0,0,1-3.12-1.13l1.08-1.08a2.8,2.8,0,0,0,2.06.72c1,0,1.51-.37,1.51-1.06a1,1,0,0,0-.26-.72,1.28,1.28,0,0,0-.76-.3l-1-.14A2.9,2.9,0,0,1,650,349a2.26,2.26,0,0,1-.61-1.68c0-1.52,1.13-2.59,3-2.59a3.66,3.66,0,0,1,2.76,1l-1.05,1a2.38,2.38,0,0,0-1.75-.59c-.89,0-1.32.49-1.32,1.08a.82.82,0,0,0,.25.61,1.48,1.48,0,0,0,.79.34l1,.14a2.83,2.83,0,0,1,1.63.66,2.39,2.39,0,0,1,.66,1.81C655.31,352.52,653.93,353.45,652.14,353.45Z"/><path class="cls-6" d="M663.12,353.45a3.15,3.15,0,0,1-2.3-.94c-.86-.86-.84-1.93-.84-3.41s0-2.54.84-3.41a3.15,3.15,0,0,1,2.3-.94,3,3,0,0,1,3.14,2.7h-1.69a1.41,1.41,0,0,0-1.44-1.21,1.38,1.38,0,0,0-1.07.44c-.32.36-.42.77-.42,2.41s.1,2.05.42,2.41a1.38,1.38,0,0,0,1.07.44,1.41,1.41,0,0,0,1.44-1.21h1.69A3,3,0,0,1,663.12,353.45Z"/><path class="cls-6" d="M668,353.38v-8.54h5.63v1.49h-4v2H673v1.49h-3.37v2.08h4v1.49Z"/><path class="cls-6" d="M680.62,353.38l-3.38-5.24v5.24h-1.67v-8.54h1.49l3.38,5.23v-5.23h1.67v8.54Z"/><path class="cls-6" d="M687.66,346.33v7.05H686v-7.05h-2.23v-1.49h6.13v1.49Z"/><path class="cls-6" d="M691.55,353.38v-8.54h5.63v1.49h-4v2h3.37v1.49h-3.37v2.08h4v1.49Z"/><path class="cls-6" d="M703.65,353.38,702,350h-1.2v3.41h-1.67v-8.54h3.35a2.58,2.58,0,0,1,2.77,2.61,2.3,2.3,0,0,1-1.56,2.24l1.91,3.68Zm-1.29-7.05h-1.57v2.25h1.57a1.13,1.13,0,1,0,0-2.25Z"/><path class="cls-6" d="M713.61,346.33v7.05h-1.67v-7.05h-2.23v-1.49h6.13v1.49Z"/><path class="cls-6" d="M722.42,352.52a3.32,3.32,0,0,1-4.62,0c-.86-.86-.84-1.93-.84-3.41s0-2.54.84-3.41a3.32,3.32,0,0,1,4.62,0c.86.86.85,1.93.85,3.41S723.29,351.65,722.42,352.52Zm-1.24-5.8a1.38,1.38,0,0,0-1.07-.46,1.41,1.41,0,0,0-1.08.46c-.32.36-.41.75-.41,2.4s.08,2,.41,2.4a1.41,1.41,0,0,0,1.08.46,1.38,1.38,0,0,0,1.07-.46c.32-.36.42-.76.42-2.4S721.51,347.07,721.19,346.71Z"/><path class="cls-6" d="M728.29,353.45a3,3,0,0,1-3.14-3v-5.61h1.67v5.55a1.48,1.48,0,1,0,3,0v-5.55h1.65v5.61A3,3,0,0,1,728.29,353.45Z"/><path class="cls-6" d="M738.13,353.38,736.47,350h-1.2v3.41H733.6v-8.54h3.35a2.58,2.58,0,0,1,2.77,2.61,2.3,2.3,0,0,1-1.56,2.24l1.91,3.68Zm-1.29-7.05h-1.57v2.25h1.57a1.13,1.13,0,1,0,0-2.25Z"/><path class="cls-6" d="M587.55,367.78l-1.67-3.41h-1.2v3.41H583v-8.54h3.35a2.58,2.58,0,0,1,2.77,2.61,2.3,2.3,0,0,1-1.56,2.24l1.91,3.68Zm-1.29-7.05h-1.57V363h1.57a1.13,1.13,0,1,0,0-2.25Z"/><path class="cls-6" d="M596.33,366.92a3.32,3.32,0,0,1-4.62,0c-.86-.86-.84-1.93-.84-3.41s0-2.54.84-3.41a3.32,3.32,0,0,1,4.62,0c.86.86.85,1.93.85,3.41S597.2,366.05,596.33,366.92Zm-1.24-5.8a1.38,1.38,0,0,0-1.07-.46,1.41,1.41,0,0,0-1.08.46c-.32.36-.41.75-.41,2.4s.08,2,.41,2.4a1.41,1.41,0,0,0,1.08.46,1.38,1.38,0,0,0,1.07-.46c.32-.36.42-.76.42-2.4S595.42,361.47,595.1,361.11Z"/><path class="cls-6" d="M604.36,366.92a3.32,3.32,0,0,1-4.62,0c-.86-.86-.84-1.93-.84-3.41s0-2.54.84-3.41a3.32,3.32,0,0,1,4.62,0c.86.86.85,1.93.85,3.41S605.22,366.05,604.36,366.92Zm-1.24-5.8a1.38,1.38,0,0,0-1.07-.46,1.41,1.41,0,0,0-1.08.46c-.32.36-.41.75-.41,2.4s.08,2,.41,2.4a1.41,1.41,0,0,0,1.08.46,1.38,1.38,0,0,0,1.07-.46c.32-.36.42-.76.42-2.4S603.45,361.47,603.12,361.11Z"/><path class="cls-6" d="M608.88,360.73v2.1h3.37v1.49h-3.37v3.47h-1.67v-8.54h5.63v1.49Z"/><path class="cls-6" d="M617.86,360.73v7.05h-1.67v-7.05H614v-1.49h6.13v1.49Z"/><path class="cls-6" d="M626.68,366.92a3.32,3.32,0,0,1-4.62,0c-.86-.86-.84-1.93-.84-3.41s0-2.54.84-3.41a3.32,3.32,0,0,1,4.62,0c.86.86.85,1.93.85,3.41S627.54,366.05,626.68,366.92Zm-1.24-5.8a1.38,1.38,0,0,0-1.07-.46,1.41,1.41,0,0,0-1.08.46c-.32.36-.41.75-.41,2.4s.08,2,.41,2.4a1.41,1.41,0,0,0,1.08.46,1.38,1.38,0,0,0,1.07-.46c.32-.36.42-.76.42-2.4S625.77,361.47,625.44,361.11Z"/><path class="cls-6" d="M632.85,364.57h-1.64v3.21h-1.67v-8.54h3.31a2.67,2.67,0,1,1,0,5.33Zm-.08-3.84h-1.56v2.34h1.56a1.17,1.17,0,1,0,0-2.34Z"/><path class="cls-6" d="M645.72,366.88a3.39,3.39,0,0,1-4.71,0c-.86-.86-.84-1.93-.84-3.41s0-2.54.84-3.41a3.11,3.11,0,0,1,2.3-.94,3.07,3.07,0,0,1,3.21,2.73h-1.68a1.45,1.45,0,0,0-1.54-1.25,1.38,1.38,0,0,0-1.07.46c-.32.36-.41.75-.41,2.4s.08,2.05.41,2.41a1.38,1.38,0,0,0,1.07.44,1.57,1.57,0,0,0,1.19-.48,1.64,1.64,0,0,0,.38-1.14v-.32h-1.57V363h3.23v1.25A3.39,3.39,0,0,1,645.72,366.88Z"/><path class="cls-6" d="M653.27,367.78l-.5-1.51h-3l-.52,1.51h-1.74l3.11-8.54h1.31l3.12,8.54Zm-2-6-1.08,3.11h2.12Z"/><path class="cls-6" d="M660.9,367.78l-1.67-3.41H658v3.41h-1.67v-8.54h3.35a2.58,2.58,0,0,1,2.77,2.61,2.3,2.3,0,0,1-1.56,2.24l1.91,3.68Zm-1.29-7.05H658V363h1.57a1.13,1.13,0,1,0,0-2.25Z"/><path class="cls-6" d="M669.85,367a3.11,3.11,0,0,1-2.25.82h-3.08v-8.54h3.08a3.11,3.11,0,0,1,2.25.82c1,1,.86,2.13.86,3.42S670.81,366,669.85,367Zm-1.16-5.71a1.49,1.49,0,0,0-1.25-.53h-1.26v5.56h1.26a1.49,1.49,0,0,0,1.25-.53c.31-.38.36-1,.36-2.29S669,361.64,668.69,361.26Z"/><path class="cls-6" d="M672.73,367.78v-8.54h5.63v1.49h-4v2h3.37v1.49h-3.37v2.08h4v1.49Z"/><path class="cls-6" d="M685.33,367.78,682,362.54v5.24h-1.67v-8.54h1.49l3.38,5.23v-5.23h1.67v8.54Z"/><path class="cls-6" d="M695.77,367.78H692.2v-8.54h3.43a2.33,2.33,0,0,1,2.64,2.4,2.08,2.08,0,0,0,.12,3.68A2.36,2.36,0,0,1,695.77,367.78Zm-.28-7.05h-1.63v2h1.63a1,1,0,1,0,0-2Zm.11,3.47h-1.74v2.1h1.74a1.05,1.05,0,1,0,0-2.1Z"/><path class="cls-6" d="M704.93,367.78l-1.67-3.41h-1.2v3.41H700.4v-8.54h3.35a2.58,2.58,0,0,1,2.77,2.61A2.3,2.3,0,0,1,705,364.1l1.91,3.68Zm-1.29-7.05h-1.57V363h1.57a1.13,1.13,0,1,0,0-2.25Z"/><path class="cls-6" d="M708.54,367.78v-8.54h5.63v1.49h-4v2h3.37v1.49h-3.37v2.08h4v1.49Z"/><path class="cls-6" d="M721,367.78l-.5-1.51h-3l-.52,1.51h-1.74l3.11-8.54h1.31l3.12,8.54Zm-2-6-1.08,3.11H720Z"/><path class="cls-6" d="M729,367.78l-2.2-3.89-1.1,1.32v2.57h-1.67v-8.54h1.67V363l3-3.72h2l-2.83,3.39,3,5.15Z"/><path class="cls-6" d="M585.87,382.25a3.15,3.15,0,0,1-2.3-.94c-.86-.86-.84-1.93-.84-3.41s0-2.54.84-3.41a3.15,3.15,0,0,1,2.3-.94,3,3,0,0,1,3.14,2.7h-1.69a1.41,1.41,0,0,0-1.44-1.21,1.38,1.38,0,0,0-1.07.44c-.32.36-.42.77-.42,2.41s.1,2.05.42,2.41a1.38,1.38,0,0,0,1.07.44,1.41,1.41,0,0,0,1.44-1.21H589A3,3,0,0,1,585.87,382.25Z"/><path class="cls-6" d="M595.49,382.18l-.5-1.51h-3l-.52,1.51H589.7l3.11-8.54h1.31l3.12,8.54Zm-2-6-1.08,3.11h2.12Z"/><path class="cls-6" d="M603.12,382.18l-1.67-3.41h-1.2v3.41h-1.67v-8.54h3.35a2.58,2.58,0,0,1,2.77,2.61,2.3,2.3,0,0,1-1.56,2.24l1.91,3.68Zm-1.29-7.05h-1.57v2.25h1.57a1.13,1.13,0,1,0,0-2.25Z"/><path class="cls-6" d="M606.74,382.18v-8.54h5.63v1.49h-4v2h3.37v1.49h-3.37v2.08h4v1.49Z"/><path class="cls-6" d="M614.3,382.18v-8.54h5.63v1.49h-4v2h3.37v1.49H616v2.08h4v1.49Z"/><path class="cls-6" d="M626.39,382.18l-1.67-3.41h-1.2v3.41h-1.67v-8.54h3.35a2.58,2.58,0,0,1,2.77,2.61,2.3,2.3,0,0,1-1.56,2.24l1.91,3.68Zm-1.29-7.05h-1.57v2.25h1.57a1.13,1.13,0,1,0,0-2.25Z"/><path class="cls-6" d="M636.4,379h-1.64v3.21h-1.67v-8.54h3.31a2.67,2.67,0,1,1,0,5.33Zm-.08-3.84h-1.56v2.34h1.56a1.17,1.17,0,1,0,0-2.34Z"/><path class="cls-6" d="M645.18,382.18l-.5-1.51h-3l-.52,1.51h-1.74l3.11-8.54h1.31l3.12,8.54Zm-2-6-1.08,3.11h2.12Z"/><path class="cls-6" d="M653.33,382.18l-3.38-5.24v5.24h-1.67v-8.54h1.49l3.38,5.23v-5.23h1.67v8.54Z"/><path class="cls-6" d="M657.11,382.18v-8.54h5.63v1.49h-4v2h3.37v1.49h-3.37v2.08h4v1.49Z"/><path class="cls-6" d="M664.67,382.18v-8.54h1.67v7.05h3.87v1.49Z"/><path class="cls-6" d="M583,396.58V388h1.67v7.05h3.87v1.49Z"/><path class="cls-6" d="M593.08,396.65a3,3,0,0,1-3.14-3V388h1.67v5.55a1.48,1.48,0,1,0,3,0V388h1.66v5.61A3,3,0,0,1,593.08,396.65Z"/><path class="cls-6" d="M603.43,396.58l-3.38-5.24v5.24h-1.67V388h1.49l3.38,5.23V388h1.67v8.54Z"/><path class="cls-6" d="M610.07,396.65a3.15,3.15,0,0,1-2.3-.94c-.86-.86-.84-1.93-.84-3.41s0-2.54.84-3.41a3.15,3.15,0,0,1,2.3-.94,3,3,0,0,1,3.14,2.7h-1.69a1.41,1.41,0,0,0-1.44-1.21,1.38,1.38,0,0,0-1.07.44c-.32.36-.42.77-.42,2.41s.1,2.05.42,2.41a1.38,1.38,0,0,0,1.07.44,1.41,1.41,0,0,0,1.44-1.21h1.69A3,3,0,0,1,610.07,396.65Z"/><path class="cls-6" d="M619.51,396.58V393h-2.89v3.57H615V388h1.67v3.49h2.89V388h1.67v8.54Z"/></g></g></svg>