<svg xmlns="http://www.w3.org/2000/svg" viewBox="0 0 792 612"><defs><style>.cls-1{fill:#3155a4;}.cls-2{fill:#001f5b;}.cls-3{fill:#00b0df;}.cls-4{fill:#fff;}</style></defs><title>print-1-1</title><g id="Layer_2" data-name="Layer 2"><g id="Layer_4" data-name="Layer 4"><rect class="cls-1" width="792" height="612"/><path class="cls-2" d="M672.67,194.89h-1c0-4.47-2.38-6.42-4.12-7.85-1.07-.88-2-1.64-2-2.73s1-2.21,3.36-3.83c1.64-1.15,2.38-2.17,2.32-3.22-.15-2.61-5.3-5.89-13-10l-1.75-.94h15.63v1H660.5c8.5,4.68,11.62,7.34,11.77,9.91.08,1.43-.79,2.73-2.74,4.1s-2.91,2.36-2.93,3.05.69,1.17,1.59,1.92C670,187.74,672.67,190,672.67,194.89Z"/><path class="cls-2" d="M657.72,128.56a27.68,27.68,0,0,1-.4-4.65c0-15.72,14.38-28.64,14.52-28.77l.33-.29.33.29c.15.13,14.53,13,14.53,28.77a27.75,27.75,0,0,1-.4,4.63l-1-.17a26.68,26.68,0,0,0,.38-4.46c0-13.95-11.72-25.69-13.86-27.71-2.14,2-13.86,13.76-13.86,27.71a26.63,26.63,0,0,0,.39,4.48Z"/><path class="cls-2" d="M672,153l-.33-.29c-.12-.1-11.81-10.59-14.12-24.12l1-.17c2,11.9,11.56,21.43,13.47,23.23,1.91-1.8,11.45-11.34,13.47-23.25l1,.17c-2.3,13.54-14,24-14.13,24.14Z"/><polygon class="cls-2" points="692.69 144.61 679.22 144.61 679.22 143.61 691.06 143.61 685.1 131.82 685.99 131.37 692.69 144.61"/><polygon class="cls-2" points="664.86 144.61 651.39 144.61 658.09 131.37 658.98 131.82 653.02 143.61 664.86 143.61 664.86 144.61"/><rect class="cls-2" x="671.65" y="131.59" width="1" height="12.51"/><path class="cls-2" d="M671.55,119.77a5.12,5.12,0,1,1,5.12-5.12A5.13,5.13,0,0,1,671.55,119.77Zm0-9.25a4.12,4.12,0,1,0,4.12,4.12A4.13,4.13,0,0,0,671.55,110.52Z"/><circle class="cls-3" cx="511.1" cy="385.94" r="174.45"/><path class="cls-4" d="M494.55,550.38A175.47,175.47,0,0,1,320,392.87l2-.2A173.47,173.47,0,0,0,494.55,548.38c95.64,0,173.45-77.81,173.45-173.45S590.19,201.49,494.55,201.49a173.38,173.38,0,0,0-150.46,87.1l-1.73-1a175.38,175.38,0,0,1,152.19-88.1c96.74,0,175.45,78.71,175.45,175.45S591.29,550.38,494.55,550.38Z"/><rect class="cls-2" x="294.89" y="415.74" width="490.36" height="2" transform="translate(-134.7 516.9) rotate(-46.1)"/><rect class="cls-2" x="281.06" y="419.9" width="460.36" height="2" transform="translate(-147.04 492.97) rotate(-45.71)"/><rect class="cls-2" x="267.21" y="424.06" width="430.39" height="2" transform="translate(-159.03 469.15) rotate(-45.32)"/><rect class="cls-2" x="253.34" y="428.21" width="400.44" height="2" transform="translate(-170.7 444.6) rotate(-44.83)"/><rect class="cls-2" x="239.46" y="432.37" width="370.53" height="2" transform="translate(-181.91 419.5) rotate(-44.27)"/><rect class="cls-2" x="225.56" y="436.52" width="340.66" height="2" transform="translate(-192.51 393.45) rotate(-43.58)"/><rect class="cls-2" x="211.63" y="440.68" width="310.84" height="2" transform="translate(-202.39 367.23) rotate(-42.82)"/><rect class="cls-2" x="197.67" y="444.83" width="281.1" height="2" transform="translate(-211.14 339.23) rotate(-41.83)"/><rect class="cls-2" x="183.66" y="448.99" width="251.45" height="2" transform="translate(-218.47 310.07) rotate(-40.64)"/><rect class="cls-2" x="169.58" y="453.14" width="221.94" height="2" transform="translate(-223.75 279.11) rotate(-39.15)"/><rect class="cls-2" x="155.4" y="457.3" width="192.62" height="2" transform="matrix(0.8, -0.6, 0.6, 0.8, -225.81, 245.29)"/><rect class="cls-2" x="141.07" y="461.45" width="163.61" height="2" transform="translate(-223.07 208.15) rotate(-34.57)"/><rect class="cls-2" x="126.49" y="465.61" width="135.1" height="2" transform="translate(-211.41 164.97) rotate(-30.77)"/><rect class="cls-2" x="111.46" y="469.76" width="107.49" height="2" transform="translate(-183.56 114.01) rotate(-25.01)"/><rect class="cls-2" x="123.91" y="462.14" width="86.63" height="2" transform="translate(-247.47 197.65) rotate(-37.52)"/><rect class="cls-2" x="133.16" y="454.51" width="72.18" height="2" transform="translate(-303.64 343.67) rotate(-56.31)"/><rect class="cls-2" x="137.12" y="446.88" width="68.33" height="2" transform="matrix(0.17, -0.99, 0.99, 0.17, -298.82, 542.45)"/><rect class="cls-2" x="172.31" y="401.91" width="2" height="76.69" transform="translate(-95.24 50.71) rotate(-13.1)"/><rect class="cls-2" x="174.33" y="385.59" width="2" height="94.07" transform="translate(-189.42 141.32) rotate(-29.33)"/><rect class="cls-2" x="176.36" y="366.75" width="2" height="116.49" transform="translate(-231.44 212.94) rotate(-39.93)"/><rect class="cls-2" x="178.39" y="346.58" width="2" height="141.58" transform="translate(-248.08 263.58) rotate(-46.95)"/><rect class="cls-2" x="180.41" y="325.67" width="2" height="168.15" transform="translate(-252.8 299.02) rotate(-51.81)"/><rect class="cls-2" x="182.44" y="304.32" width="2" height="195.6" transform="translate(-251.63 324.23) rotate(-55.33)"/><rect class="cls-2" x="184.47" y="282.69" width="2" height="223.6" transform="translate(-247.34 342.51) rotate(-57.97)"/><rect class="cls-2" x="186.49" y="260.88" width="2" height="251.97" transform="translate(-241.3 355.97) rotate(-60.02)"/><rect class="cls-2" x="188.52" y="238.94" width="2" height="280.6" transform="translate(-234.23 365.99) rotate(-61.66)"/><rect class="cls-2" x="190.54" y="216.91" width="2" height="309.41" transform="translate(-226.52 373.48) rotate(-62.99)"/><rect class="cls-3" x="547.5" y="317.5" width="110.23" height="118"/><path class="cls-2" d="M619,226a3,3,0,0,1-2.12-5.12,3.09,3.09,0,0,1,4.24,0A3,3,0,0,1,619,226Z"/><path class="cls-2" d="M709,223a3,3,0,0,1,3-3h0a3,3,0,0,1,3,3h0a3,3,0,0,1-3,3h0A3,3,0,0,1,709,223Zm-31,0a3,3,0,0,1,3-3h0a3,3,0,0,1,3,3h0a3,3,0,0,1-3,3h0A3,3,0,0,1,678,223Zm-31,0a3,3,0,0,1,3-3h0a3,3,0,0,1,3,3h0a3,3,0,0,1-3,3h0A3,3,0,0,1,647,223Z"/><path class="cls-2" d="M743,226a3,3,0,0,1-2.13-5.12,3.29,3.29,0,0,1,.46-.38,2.57,2.57,0,0,1,.52-.27,2.25,2.25,0,0,1,.56-.17A3,3,0,1,1,743,226Z"/><path class="cls-2" d="M619,252.1a3,3,0,0,1-.59-.06,3.65,3.65,0,0,1-.56-.17,3.18,3.18,0,0,1-.51-.28,2.78,2.78,0,0,1-.46-.37,3,3,0,0,1,0-4.24,2.84,2.84,0,0,1,.46-.38,3.1,3.1,0,0,1,.51-.27,2.78,2.78,0,0,1,.56-.17,3,3,0,1,1,.59,5.94Z"/><path class="cls-2" d="M709,249.1a3,3,0,0,1,3-3h0a3,3,0,0,1,3,3h0a3,3,0,0,1-3,3h0A3,3,0,0,1,709,249.1Zm-31,0a3,3,0,0,1,3-3h0a3,3,0,0,1,3,3h0a3,3,0,0,1-3,3h0A3,3,0,0,1,678,249.1Zm-31,0a3,3,0,0,1,3-3h0a3,3,0,0,1,3,3h0a3,3,0,0,1-3,3h0A3,3,0,0,1,647,249.1Z"/><path class="cls-2" d="M743,252.1a3,3,0,0,1-3-3,3.87,3.87,0,0,1,.05-.59,2.81,2.81,0,0,1,.18-.56,2.88,2.88,0,0,1,.27-.52,3.3,3.3,0,0,1,.37-.45,3.11,3.11,0,0,1,4.25,0,2.71,2.71,0,0,1,.37.45,3.74,3.74,0,0,1,.28.52,3.6,3.6,0,0,1,.17.56,3.87,3.87,0,0,1,.05.59,3,3,0,0,1-3,3Z"/><path class="cls-2" d="M619,278.21a3,3,0,0,1-2.12-.88,2.76,2.76,0,0,1-.37-.46,3.18,3.18,0,0,1-.28-.51,3.66,3.66,0,0,1-.17-.57,2.85,2.85,0,0,1-.06-.58,3,3,0,0,1,.06-.59,3.54,3.54,0,0,1,.17-.56,3.77,3.77,0,0,1,.28-.52,3.14,3.14,0,0,1,.37-.45,2.34,2.34,0,0,1,.46-.37,2.57,2.57,0,0,1,.51-.28,2.81,2.81,0,0,1,.56-.17,3,3,0,0,1,2.71.82,2.6,2.6,0,0,1,.37.45,3,3,0,0,1,.28.52,2.81,2.81,0,0,1,.17.56,3,3,0,0,1,.06.59,2.85,2.85,0,0,1-.06.58,2.91,2.91,0,0,1-.17.57,2.57,2.57,0,0,1-.28.51,2.34,2.34,0,0,1-.37.46A3,3,0,0,1,619,278.21Z"/><path class="cls-2" d="M709,275.21a3,3,0,0,1,3-3h0a3,3,0,0,1,3,3h0a3,3,0,0,1-3,3h0A3,3,0,0,1,709,275.21Zm-31,0a3,3,0,0,1,3-3h0a3,3,0,0,1,3,3h0a3,3,0,0,1-3,3h0A3,3,0,0,1,678,275.21Zm-31,0a3,3,0,0,1,3-3h0a3,3,0,0,1,3,3h0a3,3,0,0,1-3,3h0A3,3,0,0,1,647,275.21Z"/><path class="cls-2" d="M743,278.21a3,3,0,0,1-2.13-.88,3.4,3.4,0,0,1-.37-.46,3.18,3.18,0,0,1-.28-.51,3.72,3.72,0,0,1-.17-.57,2.85,2.85,0,0,1-.06-.58,3,3,0,0,1,.06-.59,3.6,3.6,0,0,1,.17-.56,3.77,3.77,0,0,1,.28-.52,4,4,0,0,1,.37-.45,3,3,0,0,1,2.71-.82,2.81,2.81,0,0,1,.56.17,2.63,2.63,0,0,1,.52.28,2.66,2.66,0,0,1,.46.37,4.07,4.07,0,0,1,.37.45,3.77,3.77,0,0,1,.28.52,3.6,3.6,0,0,1,.17.56,2.94,2.94,0,0,1,.05.59,2.84,2.84,0,0,1-.05.58,3.72,3.72,0,0,1-.17.57,3.18,3.18,0,0,1-.28.51,3.43,3.43,0,0,1-.37.46,3.22,3.22,0,0,1-.46.37,3.26,3.26,0,0,1-.52.28,3.54,3.54,0,0,1-.56.17A2.85,2.85,0,0,1,743,278.21Z"/><path class="cls-2" d="M619,304.32a2.85,2.85,0,0,1-.58-.06,2.91,2.91,0,0,1-.57-.17,2.57,2.57,0,0,1-.51-.28,2.34,2.34,0,0,1-.46-.37,3.14,3.14,0,0,1-.37-.45,3.77,3.77,0,0,1-.28-.52,3.54,3.54,0,0,1-.17-.56,3,3,0,0,1-.06-.59,3,3,0,0,1,.88-2.12,3.09,3.09,0,0,1,4.24,0,3,3,0,0,1,.88,2.12,3,3,0,0,1-.06.59,2.81,2.81,0,0,1-.17.56,3,3,0,0,1-.28.52,2.6,2.6,0,0,1-.37.45A3,3,0,0,1,619,304.32Z"/><path class="cls-2" d="M709,301.32a3,3,0,0,1,3-3h0a3,3,0,0,1,3,3h0a3,3,0,0,1-3,3h0A3,3,0,0,1,709,301.32Zm-31,0a3,3,0,0,1,3-3h0a3,3,0,0,1,3,3h0a3,3,0,0,1-3,3h0A3,3,0,0,1,678,301.32Zm-31,0a3,3,0,0,1,3-3h0a3,3,0,0,1,3,3h0a3,3,0,0,1-3,3h0A3,3,0,0,1,647,301.32Z"/><path class="cls-2" d="M743,304.32a2.88,2.88,0,0,1-.59-.06,2.81,2.81,0,0,1-.56-.17,2.63,2.63,0,0,1-.52-.28,2.66,2.66,0,0,1-.46-.37,4,4,0,0,1-.37-.45,2.9,2.9,0,0,1-.27-.52,2.81,2.81,0,0,1-.18-.56,3.88,3.88,0,0,1-.05-.59,3,3,0,0,1,.87-2.12,3.22,3.22,0,0,1,.46-.37,3.26,3.26,0,0,1,.52-.28,3.54,3.54,0,0,1,.56-.17,3,3,0,0,1,3.58,2.94,3.88,3.88,0,0,1-.05.59,2.81,2.81,0,0,1-.18.56,2.9,2.9,0,0,1-.27.52,4.07,4.07,0,0,1-.37.45A3,3,0,0,1,743,304.32Z"/><path class="cls-2" d="M182.17,511.44a3,3,0,0,1,3,3h0a3,3,0,0,1-3,3h0a3,3,0,0,1-3-3h0A3,3,0,0,1,182.17,511.44Zm0-31a3,3,0,0,1,3,3h0a3,3,0,0,1-3,3h0a3,3,0,0,1-3-3h0A3,3,0,0,1,182.17,480.45Z"/><path class="cls-2" d="M179.17,545.44a3,3,0,0,1,3-3,3.87,3.87,0,0,1,.59.05,2.81,2.81,0,0,1,.56.18,2.88,2.88,0,0,1,.52.27,3.3,3.3,0,0,1,.45.37,3.11,3.11,0,0,1,0,4.25,2.71,2.71,0,0,1-.45.37,3.74,3.74,0,0,1-.52.28,3.6,3.6,0,0,1-.56.17,3.87,3.87,0,0,1-.59.05,3,3,0,0,1-3-3Z"/><path class="cls-2" d="M156.06,511.44a3,3,0,0,1,3,3h0a3,3,0,0,1-3,3h0a3,3,0,0,1-3-3h0A3,3,0,0,1,156.06,511.44Zm0-31a3,3,0,0,1,3,3h0a3,3,0,0,1-3,3h0a3,3,0,0,1-3-3h0A3,3,0,0,1,156.06,480.45Z"/><path class="cls-2" d="M153.06,545.44a3,3,0,0,1,.88-2.13,3.4,3.4,0,0,1,.46-.37,3.18,3.18,0,0,1,.51-.28,3.72,3.72,0,0,1,.57-.17,2.85,2.85,0,0,1,.58-.06,3,3,0,0,1,.59.06,3.6,3.6,0,0,1,.56.17,3.77,3.77,0,0,1,.52.28,4,4,0,0,1,.45.37A3,3,0,0,1,159,546a2.81,2.81,0,0,1-.17.56,2.63,2.63,0,0,1-.28.52,2.66,2.66,0,0,1-.37.46,4.07,4.07,0,0,1-.45.37,3.77,3.77,0,0,1-.52.28,3.6,3.6,0,0,1-.56.17,2.94,2.94,0,0,1-.59.05,2.84,2.84,0,0,1-.58-.05,3.72,3.72,0,0,1-.57-.17,3.18,3.18,0,0,1-.51-.28,3.43,3.43,0,0,1-.46-.37,3.22,3.22,0,0,1-.37-.46,3.26,3.26,0,0,1-.28-.52,3.54,3.54,0,0,1-.17-.56A2.85,2.85,0,0,1,153.06,545.44Z"/><path class="cls-2" d="M129.95,511.44a3,3,0,0,1,3,3h0a3,3,0,0,1-3,3h0a3,3,0,0,1-3-3h0A3,3,0,0,1,129.95,511.44Zm0-31a3,3,0,0,1,3,3h0a3,3,0,0,1-3,3h0a3,3,0,0,1-3-3h0A3,3,0,0,1,129.95,480.45Z"/><path class="cls-2" d="M126.95,545.44a2.88,2.88,0,0,1,.06-.59,2.81,2.81,0,0,1,.17-.56,2.63,2.63,0,0,1,.28-.52,2.66,2.66,0,0,1,.37-.46,4,4,0,0,1,.45-.37,2.9,2.9,0,0,1,.52-.27,2.81,2.81,0,0,1,.56-.18,3.88,3.88,0,0,1,.59-.05,3,3,0,0,1,2.12.87,3.22,3.22,0,0,1,.37.46,3.26,3.26,0,0,1,.28.52,3.54,3.54,0,0,1,.17.56,3,3,0,0,1-2.94,3.58,3.88,3.88,0,0,1-.59-.05,2.81,2.81,0,0,1-.56-.18,2.9,2.9,0,0,1-.52-.27,4.07,4.07,0,0,1-.45-.37A3,3,0,0,1,126.95,545.44Z"/><path class="cls-2" d="M178.81,209.24v-10c0-8.84,5.15-14.5,14-14.5s14.11,5.66,14.11,14.5v10ZM201,199.53c0-4.76-2.83-7.67-8.21-7.67s-8.1,3-8.1,7.67v2.83H201Z"/><path class="cls-2" d="M201,166v8.77l5.9,1.69v7.07L178.81,174v-7.23l28.1-9.55v7.08Zm-15.8,4.4s3.07.63,4.83,1.14l5.46,1.61v-5.54L190,169.19c-1.77.51-4.83,1.14-4.83,1.14Z"/><path class="cls-2" d="M195.39,150l-16.59,9.28v-7.82l6.76-3.18c1.93-.9,4-1.69,4-1.69v-.08s-2.12-.79-4-1.69l-6.76-3.14v-7.82l16.59,9.28h11.52V150Z"/><path class="cls-2" d="M201,122.82v-6H189.3c-1.06,0-2.16,0-2.16,0v.08a5.3,5.3,0,0,1,1.49,1.1l1.53,1.69-4.25,4-7.11-7.59v-5.94H201v-6h5.9v18.71Z"/><path class="cls-4" d="M162,194.24v-10c0-8.84,5.15-14.5,14-14.5s14.11,5.66,14.11,14.5v10Zm22.21-9.71c0-4.76-2.83-7.67-8.21-7.67s-8.1,3-8.1,7.67v2.83h16.31Z"/><path class="cls-4" d="M184.18,151v8.77l5.9,1.69v7.07L162,159v-7.23l28.1-9.55v7.08Zm-15.8,4.4s3.07.63,4.83,1.14l5.46,1.61v-5.54l-5.46,1.57c-1.77.51-4.83,1.14-4.83,1.14Z"/><path class="cls-4" d="M178.56,135,162,144.29v-7.82l6.76-3.18c1.93-.9,4-1.69,4-1.69v-.08s-2.12-.79-4-1.69L162,126.68v-7.82l16.59,9.28h11.52V135Z"/><path class="cls-4" d="M184.18,107.82v-6H172.47c-1.06,0-2.16,0-2.16,0v.08a5.3,5.3,0,0,1,1.49,1.1l1.53,1.69-4.25,4L162,101.06V95.12h22.21v-6h5.9v18.71Z"/><path class="cls-4" d="M276.2,152.95a8,8,0,0,1,8.15,8,8.15,8.15,0,1,1-16.3,0A8,8,0,0,1,276.2,152.95Zm0,13.68a5.34,5.34,0,0,0,5.2-5.64A5.2,5.2,0,1,0,271,161,5.34,5.34,0,0,0,276.19,166.63Z"/><path class="cls-4" d="M287.8,153.22h9.06v2.46h-6.19v4.46h5.22v2.46h-5.22V169H287.8Z"/><path class="cls-4" d="M313.89,164.95h-5.53L307,169h-3l5.55-15.76h3L318.17,169h-3Zm-2.77-9s-.36,1.55-.67,2.44l-1.4,4.22h4.13l-1.4-4.22c-.29-.89-.62-2.44-.62-2.44Z"/><path class="cls-4" d="M318.1,153.23h3.09l3.46,10.28c.31.91.58,2.31.6,2.31h0s.29-1.4.6-2.31l3.49-10.28h3.06L326.69,169h-2.84Z"/><path class="cls-4" d="M335,153.23h2.86V169H335Z"/><path class="cls-4" d="M350.22,165h-5.53l-1.33,4h-3L346,153.23h3L354.51,169h-3Zm-2.77-9s-.36,1.55-.67,2.44l-1.4,4.22h4.13l-1.4-4.22c-.29-.89-.62-2.44-.62-2.44Z"/><path class="cls-4" d="M359.44,155.7h-5.17v-2.46h13.21v2.46H362.3V169h-2.86Z"/><path class="cls-4" d="M370.11,153.24H373V169h-2.86Z"/><path class="cls-4" d="M384.59,153a8,8,0,0,1,8.15,8,8.15,8.15,0,1,1-16.3,0A8,8,0,0,1,384.59,153Zm0,13.68a5.34,5.34,0,0,0,5.2-5.64,5.2,5.2,0,1,0-10.39,0A5.34,5.34,0,0,0,384.58,166.65Z"/><path class="cls-4" d="M396.19,153.25h2.86l6,9.1a24,24,0,0,1,1.31,2.44h0s-.15-1.51-.15-2.44v-9.1h2.84V169h-2.84l-6-9.08a23.91,23.91,0,0,1-1.31-2.44h0s.16,1.51.16,2.44V169h-2.86Z"/><path class="cls-4" d="M420.37,153.25h3.06l3.08,7.79c.35.93.8,2.31.8,2.31h0s.42-1.38.78-2.31l3.09-7.79h3.06L435.55,169h-2.84L432,160.2c-.07-1,0-2.44,0-2.44h0s-.47,1.53-.84,2.44l-2.55,6.1h-2.51l-2.53-6.11c-.38-.91-.87-2.46-.87-2.46h0s0,1.42,0,2.46l-.67,8.81h-2.86Z"/><path class="cls-4" d="M439.39,153.26h2.86v10.1c0,2.11,1.38,3.31,3.49,3.31s3.51-1.2,3.51-3.33V153.26h2.86v10.1c0,3.53-2.55,5.93-6.35,5.93s-6.37-2.4-6.37-5.93Z"/><path class="cls-4" d="M456.79,165a6.32,6.32,0,0,0,3.93,1.67c1.2,0,2.29-.62,2.29-1.91,0-2.82-7.44-2.33-7.44-7.17,0-2.62,2.27-4.57,5.29-4.57a6.7,6.7,0,0,1,4.71,1.69L464.32,157a5.76,5.76,0,0,0-3.49-1.38c-1.33,0-2.38.78-2.38,1.89,0,2.8,7.41,2.11,7.41,7.15,0,2.51-1.91,4.62-5.2,4.62a7.63,7.63,0,0,1-5.44-2.16Z"/><path class="cls-4" d="M469.29,153.26h9.44v2.46h-6.57v4.13h5.31v2.46h-5.31v4.24h6.93V169h-9.79Z"/><path class="cls-4" d="M482.39,153.27h2.86v10.1c0,2.11,1.38,3.31,3.49,3.31a3.16,3.16,0,0,0,3.51-3.33V153.27h2.86v10.1c0,3.53-2.55,5.93-6.35,5.93s-6.37-2.4-6.37-5.93Z"/><path class="cls-4" d="M500.23,153.27h3.06l3.08,7.79c.35.93.8,2.31.8,2.31h0s.42-1.38.78-2.31l3.09-7.79h3.06L515.42,169h-2.84l-.66-8.81c-.07-1,0-2.44,0-2.44h0s-.47,1.53-.84,2.44l-2.55,6.1h-2.51l-2.53-6.11c-.38-.91-.87-2.46-.87-2.46h0s0,1.42,0,2.46l-.67,8.81h-2.86Z"/><path class="cls-4" d="M271.24,180.95a3.56,3.56,0,0,1,3.63,3.61,3.67,3.67,0,0,1-.83,2.33l.84.8-.58.62-.82-.82a3.53,3.53,0,0,1-2.24.76,3.61,3.61,0,0,1-3.62-3.69A3.56,3.56,0,0,1,271.24,180.95Zm0,6.39a2.55,2.55,0,0,0,1.53-.52l-.83-.81.58-.62.81.82a2.84,2.84,0,0,0,.52-1.65,2.61,2.61,0,1,0-5.21,0A2.65,2.65,0,0,0,271.24,187.33Z"/><path class="cls-4" d="M276.4,183.07h1v3c0,.7.14,1.26.95,1.26a1.74,1.74,0,0,0,1.64-1.91v-2.37h1v5.06H280v-.67a3.31,3.31,0,0,1,0-.37h0a2,2,0,0,1-1.86,1.16c-1.14,0-1.73-.6-1.73-1.94Z"/><path class="cls-4" d="M284.87,182.95a2.15,2.15,0,0,1,2.19,2.37c0,.13,0,.42,0,.42h-3.69a1.65,1.65,0,0,0,1.74,1.67,2.42,2.42,0,0,0,1.5-.59l.4.71a3,3,0,0,1-2,.72,2.57,2.57,0,0,1-2.68-2.65A2.48,2.48,0,0,1,284.87,182.95Zm1.2,2.06a1.19,1.19,0,0,0-1.22-1.29,1.45,1.45,0,0,0-1.48,1.29Z"/><path class="cls-4" d="M290.67,182.95a2.15,2.15,0,0,1,2.19,2.37c0,.13,0,.42,0,.42h-3.69a1.65,1.65,0,0,0,1.74,1.67,2.41,2.41,0,0,0,1.5-.59l.4.71a3,3,0,0,1-2,.72,2.58,2.58,0,0,1-2.68-2.65A2.48,2.48,0,0,1,290.67,182.95Zm1.2,2.06a1.19,1.19,0,0,0-1.22-1.29,1.45,1.45,0,0,0-1.48,1.29Z"/><path class="cls-4" d="M294.28,183.07h.94v.67a3.46,3.46,0,0,1,0,.37h0a2.06,2.06,0,0,1,1.9-1.16c1.19,0,1.74.65,1.74,1.94v3.24h-1v-3c0-.71-.15-1.27-1-1.27a1.66,1.66,0,0,0-1.6,1.24,2.39,2.39,0,0,0-.08.68v2.37h-1Z"/><path class="cls-4" d="M300.62,186.82a2.18,2.18,0,0,0,1.45.59c.42,0,.84-.22.84-.63,0-.93-2.6-.74-2.6-2.39,0-.92.82-1.44,1.83-1.44a2.27,2.27,0,0,1,1.63.56l-.39.73a1.85,1.85,0,0,0-1.25-.45c-.42,0-.83.18-.83.62,0,.91,2.6.71,2.6,2.37,0,.84-.72,1.47-1.83,1.47a2.72,2.72,0,0,1-1.92-.74Z"/><path class="cls-4" d="M305.41,187.08h1l-.84,2.06h-.77Z"/><path class="cls-4" d="M311.1,181.07h1l3.14,4.59c.26.38.59,1,.59,1h0s-.07-.63-.07-1v-4.59h1v7.06h-1l-3.15-4.58c-.26-.39-.59-1-.59-1h0s.07.63.07,1v4.58h-1Z"/><path class="cls-4" d="M320.4,185.15,318,181.08h1.12l1.31,2.32c.22.39.43.89.43.89h0s.21-.49.43-.89l1.29-2.32h1.12l-2.36,4.07v3h-1Z"/><path class="cls-4" d="M291.12,88.88c11.68,0,17.66,6.4,17.66,6.4l-3.37,5.08a22.14,22.14,0,0,0-14-5.29c-10.86,0-17.94,8.24-17.94,18.55s7.21,19.18,18,19.18a22,22,0,0,0,15-6.32l3.64,4.88A26,26,0,0,1,291.24,139c-14.57,0-24.81-11.14-24.8-25.37S277,88.87,291.12,88.88Z"/><path class="cls-4" d="M319.36,89.71H334.2c5.09,0,7.22.42,9.07,1.1,4.95,1.86,8.18,6.74,8.17,13.13,0,6.18-3.44,11.41-8.73,13.12v.14a14.11,14.11,0,0,1,1.44,2.2l10.3,18.83h-7.7l-10.24-19.31H326.15v19.31h-6.8ZM335.91,113c5.29,0,8.59-3.37,8.59-8.79,0-3.57-1.37-6.12-3.85-7.49-1.31-.69-2.89-1.1-6.67-1.1h-7.83V113Z"/><path class="cls-4" d="M387.45,124.3H369.17l-4.81,14h-7l17.47-48.52H382l17.44,48.52h-7.08Zm-9.13-27.91s-1.1,4.4-1.93,6.87L371,118.66h14.71l-5.36-15.4c-.82-2.47-1.85-6.87-1.85-6.87Z"/><path class="cls-4" d="M406.56,89.73h16.08c14.84,0,24.6,8.87,24.6,24.2s-9.77,24.33-24.61,24.32H406.55Zm15.59,42.61c10.93,0,18.08-6.46,18.08-18.41S433,95.65,422.16,95.65h-8.8v36.7Z"/><path class="cls-4" d="M457.41,89.74h6.8v42.61h21.72v5.91H457.4Z"/><path class="cls-4" d="M493.76,89.75h28.18v5.91H500.56v15.19h17.39v5.91H500.56v15.6H523.1v5.91H493.75Z"/><path class="cls-4" d="M165.06,320.08V304.64h10.17v2.69h-7.16v3.62h6.09v2.69h-6.09v3.75h7.16v2.69Z"/><path class="cls-4" d="M184.62,307.33v12.75h-3V307.33h-4v-2.69h11.08v2.69Z"/><path class="cls-4" d="M199.89,320.08v-6.46h-5.23v6.46h-3V304.64h3v6.31h5.23v-6.31h3v15.44Z"/><path class="cls-4" d="M215.83,320.08l-.91-2.73h-5.49l-.93,2.73h-3.14L211,304.64h2.36L219,320.08Zm-3.6-10.88-2,5.62h3.84Z"/><path class="cls-4" d="M230.55,320.08l-6.11-9.48v9.48h-3V304.64h2.69l6.11,9.45v-9.45h3v15.44Z"/><path class="cls-4" d="M253.93,320.08v-9L251,316.94h-2l-3-5.85v9h-3V304.64h3l4,8.35,4-8.35h3v15.44Z"/><path class="cls-4" d="M269.87,320.08l-.91-2.73h-5.49l-.93,2.73h-3.14L265,304.64h2.36L273,320.08Zm-3.6-10.88-2,5.62h3.84Z"/><path class="cls-4" d="M283.66,320.08l-3-6.16h-2.17v6.16h-3V304.64h6a4.67,4.67,0,0,1,5,4.73,4.16,4.16,0,0,1-2.82,4.05l3.45,6.66Zm-2.34-12.75h-2.84v4.08h2.84a2,2,0,1,0,0-4.08Z"/><path class="cls-4" d="M296.08,307.33v12.75h-3V307.33h-4v-2.69h11.08v2.69Z"/><path class="cls-4" d="M303.11,320.08V304.64h3v15.44Z"/><path class="cls-4" d="M319.4,320.08l-6.11-9.48v9.48h-3V304.64H313l6.11,9.45v-9.45h3v15.44Z"/><path class="cls-4" d="M174.71,344.63a5.62,5.62,0,0,1-4.08,1.47h-5.57V330.66h5.57a5.63,5.63,0,0,1,4.08,1.47c1.73,1.73,1.56,3.86,1.56,6.18S176.45,342.89,174.71,344.63Zm-2.1-10.32a2.69,2.69,0,0,0-2.25-1h-2.28v10.06h2.28a2.69,2.69,0,0,0,2.25-1c.56-.69.65-1.8.65-4.14S173.17,335,172.61,334.31Z"/><path class="cls-4" d="M188.46,346.1l-.91-2.73h-5.49l-.93,2.73H178l5.62-15.44H186l5.64,15.44Zm-3.6-10.88-2,5.62h3.84Z"/><path class="cls-4" d="M202.25,346.1l-3-6.16h-2.17v6.16h-3V330.66h6a4.67,4.67,0,0,1,5,4.73,4.16,4.16,0,0,1-2.82,4.05l3.45,6.66Zm-2.34-12.75h-2.84v4.08h2.84a2,2,0,1,0,0-4.08Z"/><path class="cls-4" d="M217,346.1l-3-6.16h-2.17v6.16h-3V330.66h6a4.67,4.67,0,0,1,5,4.73,4.16,4.16,0,0,1-2.82,4.05l3.45,6.66Zm-2.34-12.75h-2.84v4.08h2.84a2,2,0,1,0,0-4.08Z"/><path class="cls-4" d="M223.51,346.1V330.66h10.17v2.69h-7.16V337h6.09v2.69h-6.09v3.75h7.16v2.69Z"/><path class="cls-4" d="M246.3,346.1l-6.11-9.48v9.48h-3V330.66h2.69l6.11,9.45v-9.45h3V346.1Z"/><path class="cls-4" d="M264.68,340.29h-3v5.81h-3V330.66h6a4.82,4.82,0,1,1,0,9.63Zm-.15-6.94h-2.82v4.23h2.82a2.12,2.12,0,1,0,0-4.23Z"/><path class="cls-4" d="M272.86,346.1V330.66h3v12.75h7v2.69Z"/><path class="cls-4" d="M285.87,346.1V330.66H296v2.69h-7.16V337H295v2.69h-6.09v3.75H296v2.69Z"/><path class="cls-4" d="M308.31,346.1l-.91-2.73h-5.49L301,346.1h-3.14l5.62-15.44h2.36l5.64,15.44Zm-3.6-10.88-2,5.62h3.84Z"/><path class="cls-4" d="M318.16,346.23a7.25,7.25,0,0,1-5.64-2l2-2a5.05,5.05,0,0,0,3.73,1.3c1.78,0,2.73-.67,2.73-1.91a1.72,1.72,0,0,0-.48-1.3,2.3,2.3,0,0,0-1.37-.54l-1.86-.26a5.23,5.23,0,0,1-3-1.28,4.08,4.08,0,0,1-1.11-3c0-2.75,2-4.68,5.38-4.68a6.61,6.61,0,0,1,5,1.8l-1.91,1.89a4.3,4.3,0,0,0-3.17-1.06c-1.6,0-2.38.89-2.38,2a1.49,1.49,0,0,0,.46,1.11,2.65,2.65,0,0,0,1.43.61l1.82.26a5.1,5.1,0,0,1,2.95,1.19,4.32,4.32,0,0,1,1.19,3.27C323.88,344.54,321.39,346.23,318.16,346.23Z"/><path class="cls-4" d="M336,346.1l-.91-2.73h-5.49l-.93,2.73h-3.14l5.62-15.44h2.36l5.64,15.44Zm-3.6-10.88-2,5.62h3.84Z"/><path class="cls-4" d="M350.77,346.1l-6.11-9.48v9.48h-3V330.66h2.69l6.11,9.45v-9.45h3V346.1Z"/><path class="cls-4" d="M362.77,346.23a5.68,5.68,0,0,1-4.16-1.69c-1.56-1.56-1.52-3.49-1.52-6.16s0-4.6,1.52-6.16a5.69,5.69,0,0,1,4.16-1.69,5.44,5.44,0,0,1,5.68,4.88h-3.06a2.55,2.55,0,0,0-2.6-2.19,2.49,2.49,0,0,0-1.93.8c-.59.65-.76,1.39-.76,4.36s.17,3.71.76,4.36a2.49,2.49,0,0,0,1.93.8,2.55,2.55,0,0,0,2.6-2.19h3.06A5.46,5.46,0,0,1,362.77,346.23Z"/><path class="cls-4" d="M371.59,346.1V330.66h10.17v2.69h-7.16V337h6.09v2.69h-6.09v3.75h7.16v2.69Z"/><path class="cls-4" d="M176,372.12v-9L173.09,369h-2l-3-5.85v9h-3V356.69h3l4,8.35,4-8.35h3v15.44Z"/><path class="cls-4" d="M192,372.12l-.91-2.73h-5.49l-.93,2.73H181.5l5.62-15.44h2.36l5.64,15.44Zm-3.6-10.88-2,5.62h3.84Z"/><path class="cls-4" d="M205.77,372.12l-3-6.16h-2.17v6.16h-3V356.69h6a4.67,4.67,0,0,1,5,4.73,4.16,4.16,0,0,1-2.82,4.05l3.45,6.66Zm-2.34-12.75h-2.84v4.08h2.84a2,2,0,1,0,0-4.08Z"/><path class="cls-4" d="M212.29,372.12V356.69h3v15.44Z"/><path class="cls-4" d="M228.23,372.12l-.91-2.73h-5.49l-.93,2.73h-3.14l5.62-15.44h2.36l5.64,15.44Zm-3.6-10.88-2,5.62h3.84Z"/><path class="cls-4" d="M243.65,372.25a7.25,7.25,0,0,1-5.64-2l2-2a5.05,5.05,0,0,0,3.73,1.3c1.78,0,2.73-.67,2.73-1.91a1.72,1.72,0,0,0-.48-1.3,2.3,2.3,0,0,0-1.37-.54l-1.86-.26a5.23,5.23,0,0,1-3-1.28,4.08,4.08,0,0,1-1.11-3c0-2.75,2-4.68,5.38-4.68a6.61,6.61,0,0,1,5,1.8l-1.91,1.89a4.3,4.3,0,0,0-3.17-1.06c-1.6,0-2.38.89-2.38,2a1.49,1.49,0,0,0,.46,1.11,2.65,2.65,0,0,0,1.43.61l1.82.26a5.1,5.1,0,0,1,2.95,1.19,4.32,4.32,0,0,1,1.19,3.27C249.37,370.56,246.88,372.25,243.65,372.25Z"/><path class="cls-4" d="M261.54,372.12l-.91-2.73h-5.49l-.93,2.73h-3.14l5.62-15.44H259l5.64,15.44Zm-3.6-10.88-2,5.62h3.84Z"/><path class="cls-4" d="M271.38,372.25a7.25,7.25,0,0,1-5.64-2l2-2a5.05,5.05,0,0,0,3.73,1.3c1.78,0,2.73-.67,2.73-1.91a1.72,1.72,0,0,0-.48-1.3,2.3,2.3,0,0,0-1.37-.54l-1.86-.26a5.23,5.23,0,0,1-3-1.28,4.08,4.08,0,0,1-1.11-3c0-2.75,2-4.68,5.38-4.68a6.61,6.61,0,0,1,5,1.8l-1.91,1.89a4.3,4.3,0,0,0-3.17-1.06c-1.6,0-2.38.89-2.38,2a1.49,1.49,0,0,0,.46,1.11,2.65,2.65,0,0,0,1.43.61l1.82.26a5.1,5.1,0,0,1,2.95,1.19,4.32,4.32,0,0,1,1.19,3.27C277.11,370.56,274.62,372.25,271.38,372.25Z"/><path class="cls-4" d="M286.39,359.37v12.75h-3V359.37h-4v-2.69h11.08v2.69Z"/><path class="cls-4" d="M301.61,372.12l-3-6.16h-2.17v6.16h-3V356.69h6a4.67,4.67,0,0,1,5,4.73,4.16,4.16,0,0,1-2.82,4.05l3.45,6.66Zm-2.34-12.75h-2.84v4.08h2.84a2,2,0,1,0,0-4.08Z"/><path class="cls-4" d="M308.14,372.12V356.69h10.17v2.69h-7.16V363h6.09v2.69h-6.09v3.75h7.16v2.69Z"/><path class="cls-4" d="M165.06,398.15V382.71h3v12.75h7v2.69Z"/><path class="cls-4" d="M186.86,398.15l-.91-2.73h-5.49l-.93,2.73h-3.14L182,382.71h2.36L190,398.15Zm-3.6-10.88-2,5.62h3.84Z"/><path class="cls-4" d="M205,398.15h-2.52l-2.84-9.37-2.84,9.37h-2.52l-4.12-15.44h3.14l2.39,9.74,2.82-9.74h2.25l2.82,9.74,2.41-9.74h3.14Z"/><path class="cls-4" d="M219.84,398.15l-3-6.16h-2.17v6.16h-3V382.71h6a4.67,4.67,0,0,1,5,4.73,4.16,4.16,0,0,1-2.82,4.05l3.45,6.66ZM217.5,385.4h-2.84v4.08h2.84a2,2,0,1,0,0-4.08Z"/><path class="cls-4" d="M226.37,398.15V382.71h10.17v2.69h-7.16V389h6.09v2.69h-6.09v3.75h7.16v2.69Z"/><path class="cls-4" d="M249.16,398.15,243,388.67v9.48h-3V382.71h2.69l6.11,9.45v-9.45h3v15.44Z"/><path class="cls-4" d="M261.15,398.28a5.68,5.68,0,0,1-4.16-1.69c-1.56-1.56-1.52-3.49-1.52-6.16s0-4.6,1.52-6.16a5.69,5.69,0,0,1,4.16-1.69,5.44,5.44,0,0,1,5.68,4.88h-3.06a2.55,2.55,0,0,0-2.6-2.19,2.49,2.49,0,0,0-1.93.8c-.59.65-.76,1.39-.76,4.36s.17,3.71.76,4.36a2.49,2.49,0,0,0,1.93.8,2.55,2.55,0,0,0,2.6-2.19h3.06A5.46,5.46,0,0,1,261.15,398.28Z"/><path class="cls-4" d="M270,398.15V382.71h10.17v2.69H273V389h6.09v2.69H273v3.75h7.16v2.69Z"/><path class="cls-4" d="M294.37,398.28a5.68,5.68,0,0,1-4.16-1.69c-1.56-1.56-1.52-3.49-1.52-6.16s0-4.6,1.52-6.16a5.69,5.69,0,0,1,4.16-1.69,5.44,5.44,0,0,1,5.68,4.88H297a2.55,2.55,0,0,0-2.6-2.19,2.49,2.49,0,0,0-1.93.8c-.59.65-.76,1.39-.76,4.36s.17,3.71.76,4.36a2.49,2.49,0,0,0,1.93.8,2.55,2.55,0,0,0,2.6-2.19h3.06A5.46,5.46,0,0,1,294.37,398.28Z"/><path class="cls-4" d="M312.54,396.58a6,6,0,0,1-8.35,0c-1.56-1.56-1.52-3.49-1.52-6.16s0-4.6,1.52-6.16a6,6,0,0,1,8.35,0c1.56,1.56,1.54,3.49,1.54,6.16S314.1,395,312.54,396.58Zm-2.23-10.49a2.5,2.5,0,0,0-1.93-.82,2.55,2.55,0,0,0-2,.82c-.59.65-.74,1.37-.74,4.34s.15,3.69.74,4.34a2.55,2.55,0,0,0,2,.82,2.5,2.5,0,0,0,1.93-.82c.59-.65.76-1.37.76-4.34S310.89,386.74,310.31,386.09Z"/><path class="cls-4" d="M317.7,398.15V382.71h3v12.75h7v2.69Z"/><path class="cls-4" d="M330.72,398.15V382.71h10.17v2.69h-7.16V389h6.09v2.69h-6.09v3.75h7.16v2.69Z"/><path class="cls-4" d="M561.69,329.72v7.05H560v-7.05h-2.23v-1.49h6.13v1.49Z"/><path class="cls-4" d="M569.71,336.78l-.5-1.51h-3l-.52,1.51h-1.74l3.11-8.54h1.31l3.12,8.54Zm-2-6-1.08,3.11h2.12Z"/><path class="cls-4" d="M572.81,336.78v-8.54h1.67v7.05h3.87v1.49Z"/><path class="cls-4" d="M585,336.78l-2.2-3.89-1.1,1.32v2.57H580v-8.54h1.67V332l3-3.72h2l-2.83,3.39,3,5.15Z"/><path class="cls-4" d="M590.64,336.85a4,4,0,0,1-3.12-1.13l1.08-1.08a2.8,2.8,0,0,0,2.06.72c1,0,1.51-.37,1.51-1.06a1,1,0,0,0-.26-.72,1.28,1.28,0,0,0-.76-.3l-1-.14a2.9,2.9,0,0,1-1.66-.71,2.26,2.26,0,0,1-.61-1.68c0-1.52,1.13-2.59,3-2.59a3.66,3.66,0,0,1,2.76,1l-1.05,1a2.38,2.38,0,0,0-1.75-.59c-.89,0-1.32.49-1.32,1.08a.82.82,0,0,0,.25.61,1.47,1.47,0,0,0,.79.34l1,.14a2.83,2.83,0,0,1,1.63.66,2.39,2.39,0,0,1,.66,1.81C593.81,335.91,592.43,336.85,590.64,336.85Z"/><path class="cls-4" d="M603.93,335.91a3.32,3.32,0,0,1-4.62,0c-.86-.86-.84-1.93-.84-3.41s0-2.54.84-3.41a3.32,3.32,0,0,1,4.62,0c.86.86.85,1.93.85,3.41S604.8,335,603.93,335.91Zm-1.24-5.8a1.38,1.38,0,0,0-1.07-.46,1.41,1.41,0,0,0-1.08.46c-.32.36-.41.75-.41,2.4s.08,2,.41,2.4a1.41,1.41,0,0,0,1.08.46,1.38,1.38,0,0,0,1.07-.46c.32-.36.42-.76.42-2.4S603,330.47,602.7,330.11Z"/><path class="cls-4" d="M611.84,336.78l-3.38-5.24v5.24h-1.67v-8.54h1.49l3.38,5.23v-5.23h1.67v8.54Z"/><path class="cls-4" d="M558.42,351.18v-8.54h1.67v7.05H564v1.49Z"/><path class="cls-4" d="M565.62,351.18v-8.54h5.63v1.49h-4v2h3.37v1.49h-3.37v2.08h4v1.49Z"/><path class="cls-4" d="M578,351.18l-.5-1.51h-3l-.52,1.51h-1.74l3.11-8.54h1.31l3.12,8.54Zm-2-6L575,348.26h2.12Z"/><path class="cls-4" d="M586.48,350.36a3.11,3.11,0,0,1-2.25.82h-3.08v-8.54h3.08a3.11,3.11,0,0,1,2.25.82c1,1,.86,2.13.86,3.42S587.44,349.4,586.48,350.36Zm-1.16-5.71a1.49,1.49,0,0,0-1.25-.53h-1.26v5.56h1.26a1.49,1.49,0,0,0,1.25-.53c.31-.38.36-1,.36-2.29S585.62,345,585.31,344.65Z"/><path class="cls-4" d="M589.35,351.18v-8.54H595v1.49h-4v2h3.37v1.49H591v2.08h4v1.49Z"/><path class="cls-4" d="M601.44,351.18l-1.67-3.41h-1.2v3.41h-1.67v-8.54h3.35a2.58,2.58,0,0,1,2.77,2.61,2.3,2.3,0,0,1-1.56,2.24l1.91,3.68Zm-1.29-7.05h-1.57v2.25h1.57a1.13,1.13,0,1,0,0-2.25Z"/><path class="cls-4" d="M607.41,351.25a4,4,0,0,1-3.12-1.13l1.08-1.08a2.79,2.79,0,0,0,2.06.72c1,0,1.51-.37,1.51-1.06a1,1,0,0,0-.26-.72,1.28,1.28,0,0,0-.76-.3l-1-.14a2.9,2.9,0,0,1-1.66-.71,2.25,2.25,0,0,1-.61-1.68c0-1.52,1.13-2.59,3-2.59a3.66,3.66,0,0,1,2.76,1l-1.06,1a2.38,2.38,0,0,0-1.75-.59c-.89,0-1.32.49-1.32,1.08a.83.83,0,0,0,.25.61,1.47,1.47,0,0,0,.79.34l1,.14a2.83,2.83,0,0,1,1.63.66,2.39,2.39,0,0,1,.66,1.81C610.57,350.31,609.19,351.25,607.41,351.25Z"/><path class="cls-4" d="M617,351.18V347.6h-2.89v3.57h-1.67v-8.54h1.67v3.49H617v-3.49h1.67v8.54Z"/><path class="cls-4" d="M621,351.18v-8.54h1.67v8.54Z"/><path class="cls-4" d="M628.24,348h-1.64v3.21h-1.67v-8.54h3.31a2.67,2.67,0,1,1,0,5.33Zm-.08-3.84h-1.56v2.34h1.56a1.17,1.17,0,1,0,0-2.34Z"/><path class="cls-4" d="M561.28,365.65a3.15,3.15,0,0,1-2.3-.94c-.86-.86-.84-1.93-.84-3.41s0-2.54.84-3.41a3.15,3.15,0,0,1,2.3-.94,3,3,0,0,1,3.14,2.7h-1.69a1.41,1.41,0,0,0-1.44-1.21,1.38,1.38,0,0,0-1.07.44c-.32.36-.42.77-.42,2.41s.1,2.05.42,2.41a1.38,1.38,0,0,0,1.07.44,1.41,1.41,0,0,0,1.44-1.21h1.69A3,3,0,0,1,561.28,365.65Z"/><path class="cls-4" d="M571.33,364.71a3.32,3.32,0,0,1-4.62,0c-.86-.86-.84-1.93-.84-3.41s0-2.54.84-3.41a3.32,3.32,0,0,1,4.62,0c.86.86.85,1.93.85,3.41S572.2,363.85,571.33,364.71Zm-1.24-5.8a1.38,1.38,0,0,0-1.07-.46,1.41,1.41,0,0,0-1.08.46c-.32.36-.41.75-.41,2.4s.08,2,.41,2.4a1.41,1.41,0,0,0,1.08.46,1.38,1.38,0,0,0,1.07-.46c.32-.36.42-.76.42-2.4S570.42,359.27,570.1,358.91Z"/><path class="cls-4" d="M577.2,365.65a3,3,0,0,1-3.14-3V357h1.67v5.55a1.48,1.48,0,1,0,3,0V357h1.66v5.61A3,3,0,0,1,577.2,365.65Z"/><path class="cls-4" d="M587,365.57l-1.67-3.41h-1.2v3.41h-1.67V357h3.35a2.58,2.58,0,0,1,2.77,2.61,2.3,2.3,0,0,1-1.56,2.24l1.91,3.68Zm-1.29-7.05h-1.57v2.25h1.57a1.13,1.13,0,1,0,0-2.25Z"/><path class="cls-4" d="M595.51,365.57l-.5-1.51h-3l-.52,1.51h-1.74l3.11-8.54h1.31l3.12,8.54Zm-2-6-1.08,3.11h2.12Z"/><path class="cls-4" d="M603.76,364.68a3.39,3.39,0,0,1-4.71,0c-.86-.86-.84-1.93-.84-3.41s0-2.54.84-3.41a3.11,3.11,0,0,1,2.3-.94,3.07,3.07,0,0,1,3.21,2.73h-1.68a1.45,1.45,0,0,0-1.54-1.25,1.38,1.38,0,0,0-1.07.46c-.32.36-.41.75-.41,2.4s.08,2.05.41,2.41a1.38,1.38,0,0,0,1.07.44,1.57,1.57,0,0,0,1.19-.48,1.65,1.65,0,0,0,.38-1.14v-.32h-1.57v-1.39h3.23v1.25A3.39,3.39,0,0,1,603.76,364.68Z"/><path class="cls-4" d="M606.57,365.57V357h5.63v1.49h-4v2h3.37V362h-3.37v2.08h4v1.49Z"/><path class="cls-4" d="M561.73,376.76h-1.64V380h-1.67v-8.54h3.31a2.67,2.67,0,1,1,0,5.33Zm-.08-3.84h-1.56v2.34h1.56a1.17,1.17,0,1,0,0-2.34Z"/><path class="cls-4" d="M566.26,380v-8.54h5.63v1.49h-4v2h3.37v1.49h-3.37v2.08h4V380Z"/><path class="cls-4" d="M578.35,380l-1.67-3.41h-1.2V380h-1.67v-8.54h3.35a2.58,2.58,0,0,1,2.77,2.61,2.3,2.3,0,0,1-1.56,2.24l1.91,3.68Zm-1.3-7.05h-1.57v2.25h1.57a1.13,1.13,0,1,0,0-2.25Z"/><path class="cls-4" d="M584.32,380a4,4,0,0,1-3.12-1.13l1.08-1.08a2.8,2.8,0,0,0,2.06.72c1,0,1.51-.37,1.51-1.06a1,1,0,0,0-.26-.72,1.28,1.28,0,0,0-.76-.3l-1-.14a2.9,2.9,0,0,1-1.66-.71,2.26,2.26,0,0,1-.61-1.68c0-1.52,1.13-2.59,3-2.59a3.66,3.66,0,0,1,2.76,1l-1.05,1a2.38,2.38,0,0,0-1.75-.59c-.89,0-1.32.49-1.32,1.08a.82.82,0,0,0,.25.61,1.48,1.48,0,0,0,.79.34l1,.14a2.83,2.83,0,0,1,1.63.66,2.39,2.39,0,0,1,.66,1.81C587.48,379.11,586.1,380,584.32,380Z"/><path class="cls-4" d="M589.36,380v-8.54H591V380Z"/><path class="cls-4" d="M595.67,380a4,4,0,0,1-3.12-1.13l1.08-1.08a2.8,2.8,0,0,0,2.06.72c1,0,1.51-.37,1.51-1.06a1,1,0,0,0-.26-.72,1.28,1.28,0,0,0-.76-.3l-1-.14a2.9,2.9,0,0,1-1.66-.71,2.26,2.26,0,0,1-.61-1.68c0-1.52,1.13-2.59,3-2.59a3.66,3.66,0,0,1,2.76,1l-1.05,1a2.38,2.38,0,0,0-1.75-.59c-.89,0-1.32.49-1.32,1.08a.82.82,0,0,0,.25.61,1.48,1.48,0,0,0,.79.34l1,.14a2.83,2.83,0,0,1,1.63.66,2.39,2.39,0,0,1,.66,1.81C598.83,379.11,597.46,380,595.67,380Z"/><path class="cls-4" d="M604,372.92V380h-1.67v-7.05h-2.23v-1.49h6.13v1.49Z"/><path class="cls-4" d="M607.86,380v-8.54h5.63v1.49h-4v2h3.37v1.49h-3.37v2.08h4V380Z"/><path class="cls-4" d="M620.47,380l-3.38-5.24V380h-1.67v-8.54h1.49l3.38,5.23v-5.23H622V380Z"/><path class="cls-4" d="M627.11,380a3.15,3.15,0,0,1-2.3-.94c-.86-.86-.84-1.93-.84-3.41s0-2.54.84-3.41a3.15,3.15,0,0,1,2.3-.94,3,3,0,0,1,3.14,2.7h-1.69a1.41,1.41,0,0,0-1.44-1.21,1.38,1.38,0,0,0-1.07.44c-.32.36-.42.77-.42,2.41s.1,2.05.42,2.41a1.38,1.38,0,0,0,1.07.44,1.41,1.41,0,0,0,1.44-1.21h1.69A3,3,0,0,1,627.11,380Z"/><path class="cls-4" d="M632,380v-8.54h5.63v1.49h-4v2H637v1.49h-3.37v2.08h4V380Z"/><path class="cls-4" d="M557.91,394.37V393l3.65-5.71h-3.49v-1.49h5.46v1.32l-3.66,5.73h3.66v1.49Z"/><path class="cls-4" d="M565.3,394.37v-8.54h5.63v1.49h-4v2h3.37v1.49H567v2.08h4v1.49Z"/><path class="cls-4" d="M577.91,394.37l-3.38-5.24v5.24h-1.67v-8.54h1.49l3.38,5.23v-5.23h1.67v8.54Z"/><path class="cls-4" d="M563.8,408.78l-.62-.74a3.16,3.16,0,0,1-2.21.82c-1.88,0-2.82-1-2.82-2.59a2.84,2.84,0,0,1,1.54-2.29,2.78,2.78,0,0,1-.85-1.81,2,2,0,0,1,2.28-2,2,2,0,0,1,2.18,2,1.78,1.78,0,0,1-.88,1.49s-.4.3-.61.44l1.44,1.7a2.67,2.67,0,0,0,.43-1.5h1.48a4.13,4.13,0,0,1-.91,2.65l1.54,1.81Zm-3.27-3.85a1.54,1.54,0,0,0-.86,1.31,1.22,1.22,0,0,0,1.29,1.2,1.79,1.79,0,0,0,1.27-.5Zm.59-3.43a.65.65,0,0,0-.71.7c0,.31.26.61.56,1l.36-.24a.93.93,0,0,0,.49-.72A.66.66,0,0,0,561.11,401.49Z"/><path class="cls-4" d="M563.28,423.18l-.5-1.51h-3l-.52,1.51h-1.74l3.11-8.54h1.31l3.12,8.54Zm-2-6-1.08,3.11h2.12Z"/><path class="cls-4" d="M575.53,423.18v-5l-1.63,3.24h-1.13l-1.64-3.24v5h-1.67v-8.54h1.64l2.23,4.62,2.22-4.62h1.64v8.54Z"/><path class="cls-4" d="M579.5,423.18v-8.54h5.62v1.49h-4v2h3.37v1.49h-3.37v2.08h4v1.49Z"/><path class="cls-4" d="M591.91,423.18l-.5-1.51h-3l-.52,1.51h-1.74l3.11-8.54h1.31l3.12,8.54Zm-2-6-1.08,3.11H591Z"/><path class="cls-4" d="M595,423.18v-8.54h1.67v7.05h3.87v1.49Z"/><path class="cls-4" d="M612.57,423.18h-1.39L609.61,418,608,423.18h-1.39l-2.28-8.54h1.74l1.32,5.38,1.56-5.38h1.25l1.56,5.38,1.33-5.38h1.74Z"/><path class="cls-4" d="M616.24,423.18v-8.54h1.67v8.54Z"/><path class="cls-4" d="M623.46,416.12v7.05h-1.67v-7.05h-2.23v-1.49h6.13v1.49Z"/><path class="cls-4" d="M631.91,423.18V419.6H629v3.57h-1.67v-8.54H629v3.49h2.89v-3.49h1.67v8.54Z"/><path class="cls-4" d="M645,423.18v-5l-1.63,3.24h-1.13l-1.64-3.24v5H639v-8.54h1.64l2.23,4.62,2.22-4.62h1.64v8.54Z"/><path class="cls-4" d="M649,423.18v-8.54h5.62v1.49h-4v2H654v1.49h-3.37v2.08h4v1.49Z"/><path class="cls-4" d="M661.59,423.18l-3.38-5.24v5.24h-1.67v-8.54H658l3.38,5.23v-5.23h1.67v8.54Z"/><path class="cls-4" d="M668.64,416.12v7.05H667v-7.05h-2.23v-1.49h6.13v1.49Z"/><path class="cls-4" d="M677.46,422.31a3.32,3.32,0,0,1-4.62,0c-.86-.86-.84-1.93-.84-3.41s0-2.54.84-3.41a3.32,3.32,0,0,1,4.62,0c.86.86.85,1.93.85,3.41S678.32,421.45,677.46,422.31Zm-1.24-5.8a1.39,1.39,0,0,0-1.07-.46,1.41,1.41,0,0,0-1.08.46c-.32.36-.41.75-.41,2.4s.08,2,.41,2.4a1.41,1.41,0,0,0,1.08.46,1.39,1.39,0,0,0,1.07-.46c.32-.36.42-.76.42-2.4S676.55,416.87,676.22,416.51Z"/><path class="cls-4" d="M684.85,423.18l-1.67-3.41H682v3.41h-1.67v-8.54h3.35a2.58,2.58,0,0,1,2.77,2.61,2.3,2.3,0,0,1-1.56,2.24l1.91,3.68Zm-1.29-7.05H682v2.25h1.57a1.13,1.13,0,1,0,0-2.25Z"/><path class="cls-4" d="M690.82,423.25a4,4,0,0,1-3.12-1.13l1.08-1.08a2.79,2.79,0,0,0,2.06.72c1,0,1.51-.37,1.51-1.06a1,1,0,0,0-.26-.72,1.28,1.28,0,0,0-.76-.3l-1-.14a2.9,2.9,0,0,1-1.66-.71,2.25,2.25,0,0,1-.61-1.68c0-1.52,1.13-2.59,3-2.59a3.66,3.66,0,0,1,2.76,1l-1.06,1A2.38,2.38,0,0,0,691,416c-.89,0-1.32.49-1.32,1.08a.83.83,0,0,0,.25.61,1.47,1.47,0,0,0,.79.34l1,.14a2.83,2.83,0,0,1,1.63.66,2.39,2.39,0,0,1,.66,1.81C694,422.31,692.6,423.25,690.82,423.25Z"/><path class="cls-4" d="M666,189.68h-2c0-4.23-2.18-6-3.94-7.47-1.13-.93-2.19-1.8-2.14-3.13s1.08-2.48,3.57-4.22c1.46-1,2.15-1.93,2.1-2.78-.15-2.53-6.51-6.28-12.71-9.61l-3.5-1.88H665v2h-9.76c7.42,4.22,10.2,6.8,10.35,9.38.09,1.59-.87,3.08-3,4.54-2.43,1.7-2.71,2.43-2.72,2.66s.71.93,1.41,1.51C663.24,182.19,666,184.5,666,189.68Z"/><path class="cls-4" d="M650.1,123.42a28.15,28.15,0,0,1-.41-4.73c0-15.95,14.09-28.61,14.69-29.14L665,89l.66.59c.6.53,14.69,13.19,14.69,29.14a28.22,28.22,0,0,1-.4,4.71l-2-.33a26.22,26.22,0,0,0,.38-4.37c0-13.14-10.57-24.31-13.36-27-2.78,2.71-13.36,13.89-13.36,27a26.22,26.22,0,0,0,.38,4.4Z"/><path class="cls-4" d="M664.91,148.44l-.66-.59c-.49-.43-11.94-10.71-14.28-24.41l2-.34c1.91,11.17,10.51,20.22,13,22.62,2.47-2.41,11.08-11.48,13-22.64l2,.34c-2.33,13.71-13.8,24-14.29,24.43Z"/><polygon class="cls-4" points="686.37 139.89 672.09 139.89 672.09 137.89 683.12 137.89 677.52 126.83 679.31 125.93 686.37 139.89"/><polygon class="cls-4" points="657.73 139.89 643.45 139.89 650.51 125.93 652.3 126.83 646.7 137.89 657.73 137.89 657.73 139.89"/><rect class="cls-4" x="664.02" y="126.38" width="2" height="12.51"/><path class="cls-4" d="M664.42,115.05a5.62,5.62,0,1,1,5.62-5.62A5.63,5.63,0,0,1,664.42,115.05Zm0-9.25a3.62,3.62,0,1,0,3.62,3.62A3.63,3.63,0,0,0,664.42,105.8Z"/><rect class="cls-4" x="122.33" y="457.44" width="106" height="2"/><rect class="cls-4" x="122.33" y="466.28" width="106" height="2"/><rect class="cls-4" x="122.33" y="475.11" width="101.75" height="2"/><rect class="cls-4" x="122.33" y="483.94" width="64.53" height="2"/><rect class="cls-4" x="122.33" y="492.78" width="106" height="2"/><rect class="cls-4" x="122.33" y="501.61" width="97.5" height="2"/><rect class="cls-4" x="122.33" y="510.44" width="106" height="2"/><rect class="cls-4" x="122.33" y="519.28" width="106" height="2"/><rect class="cls-4" x="122.33" y="529.61" width="80.92" height="2"/><rect class="cls-4" x="122.33" y="538.44" width="23.67" height="2"/></g></g></svg>