<svg xmlns="http://www.w3.org/2000/svg" viewBox="0 0 411.12 99.86"><defs><style>.cls-1{fill:#fff;}</style></defs><title>ancient alt 1</title><g id="Layer_2" data-name="Layer 2"><g id="Layer_2-2" data-name="Layer 2"><path class="cls-1" d="M157.15,48c-.43.1-.86.23-1.29.36,0,0-.11,0-.11.08-.09.81-.64.58-.94.93a2.92,2.92,0,0,1-1.51.8c-.84.23-1.69.34-2.54.5-1.1.2-2.21.35-3.3.59-.8.17-1.59.44-2.38.67a26.17,26.17,0,0,0-2.77.86,13.65,13.65,0,0,0-2.24,1.3,7.7,7.7,0,0,0-.82.9,1.34,1.34,0,0,1-.45.21,4,4,0,0,0,0-.57,1.32,1.32,0,0,0-.57-.18.76.76,0,0,0-.44.2c-.26.21-.57.26-.57,1,0,.93-.17,1.13-.77.93a2.65,2.65,0,0,0-2,.3,3.56,3.56,0,0,1-.87.15,2.69,2.69,0,0,0-.58.13,9.34,9.34,0,0,1-1.34.59c-2.67.62-5.35,1.27-8,1.78-2.15.41-4.31.68-6.48.91a18.44,18.44,0,0,1-2.64-.16,2.72,2.72,0,0,0-2.42.92,4.46,4.46,0,0,0-.35.62.66.66,0,0,0-.34.11c2.18-1.84,7.33-4.49,5-2.86a18.08,18.08,0,0,0-3.35,2.49,24.4,24.4,0,0,0-2.49,2.61,1.34,1.34,0,0,0-.37,1.41,1.25,1.25,0,0,0,1.22.78,18.37,18.37,0,0,0,5.88-.63c2.18-.46,4.37-.93,6.55-1.38,3.64-.74,7.27-1.62,10.93-2.16,4-.59,8.07-.87,12.11-1.24,1.65-.15,3.3-.2,5-.24a20.41,20.41,0,0,1,3.61.22,3.4,3.4,0,0,0-.64.07,3,3,0,0,0-.6.29c-.39.21-.77.45-1.16.65a8.51,8.51,0,0,1-1.84.85c-.75.17-1.1,1.23-2,1-.71.82-1.78.79-2.56,1.34-1.55,1.1-3.36,1.07-5,1.79l-.41.19,0,.26,2.78-.25.05.17-3,1,.18.27c-1.6.47-3.18.9-4.75,1.42-1.31.43-2.58,1.06-3.9,1.44a56,56,0,0,1-10.13,2c-1.42-.57-2.85,0-4.28.07-3.4.19-6.8.45-10.2.68-1.47.1-2.93.23-4.4.23-1.18,0-2.36-.16-3.54-.26a2.08,2.08,0,0,1-.41-.1c-1-.3-1.08-.66-.47-1.62a43.69,43.69,0,0,1,12.32-12.83,19.34,19.34,0,0,1-3.72-.37c-.47,0-.86.22-1.38.2a3.29,3.29,0,0,1,.1-.7c1.25-2.86,2.92-4.88,5.07-5.9A22,22,0,0,1,114,51.8a4.46,4.46,0,0,0,1.91-.93,1.55,1.55,0,0,1,.81-.3c.1,0,.22.11.43.22l1.2-.75.06.18-.26.25,0,.1.47-.1,0,.13-.79.39v.13a.9.9,0,0,0,.31,0c1.19-.5,2.37-1.08,3.58-1.51.88-.31,11.92-3.16,12.74-3.62,1.16-.64,18.18-7.31,19.86-8a2.38,2.38,0,0,0,.32-.26,3.76,3.76,0,0,0-.6,0c-1.3.16-2.61.28-3.91.52s-2.59.68-3.9.91c-2.92.51-5.86.9-8.78,1.43-2.31.42-4.6,1-6.9,1.5-3.28.71-6.54,1.47-9.83,2.1a44.73,44.73,0,0,1-5.71.74c-3,.18-6,.23-9.05.29-1,0-1.65-.54-1.56-1.43a3.87,3.87,0,0,1,.63-1.58,19.52,19.52,0,0,1,1.83-2.55c1.6-1.8,3.1-3.77,5.47-4.38,3.55-.91,7.07-2,10.63-2.85,2.68-.66,5.4-1.17,8.11-1.67,4-.75,8.08-1.56,12.15-2.09s8.43-.87,12.66-1.13c3-.19,6-.21,9.07-.16a24.41,24.41,0,0,1,4.35.65,3.09,3.09,0,0,1,1.31.77,1.16,1.16,0,0,1,0,1.73,14.47,14.47,0,0,1-2,1.62,32.05,32.05,0,0,1-3,1.71c-.92.47-1.87.83-2.81,1.24-1.09.48-2.17,1-3.27,1.43-1.51.61-3,1.16-4.57,1.75-.27.1-.53.23-.83.36.07.18-16.71,7.08-17.64,7.55.71-.06,2.43-.32,3.76-.39l3.43-.17c.82,0,1.63-.13,2.45-.15a.86.86,0,0,1,.53.3c.26.26,1.11.1,1.37,0a2.41,2.41,0,0,1,1.13,0c.24,0,.49.12.73.13a6,6,0,0,0,.68-.09c.78-.06,1.55.52,2.35.28.25-.07.73-.35,1,.33a.21.21,0,0,0,.25.07c.79-.34,1.62.2,2.42.07.16,0,.36.17.54.28.42.27.44.9.84.51"/><path class="cls-1" d="M207.44,61.11c-1.26,1.44-2.47,2.92-3.77,4.33-3.11,3.36-6.21,6.73-10.41,9.15a12.64,12.64,0,0,1-1.69.82,1.46,1.46,0,0,1-1.56-.08,1.63,1.63,0,0,1-.64-1.69A12.12,12.12,0,0,1,190.69,71c1-1.28,2.13-2.41,3.1-3.68,1.36-1.8,2.62-3.66,3.91-5.51s2.78-3.91,4.09-5.91a26.31,26.31,0,0,0,2-3.63c1.09-2.44,2.2-4.89,3.09-7.44a43.18,43.18,0,0,0,1.31-5.72,3.46,3.46,0,0,0-.17-1.44,2,2,0,0,0-1.75-1.49,11.93,11.93,0,0,0-4.21-.29,23.92,23.92,0,0,0-7.6,2.73,44.42,44.42,0,0,0-7.73,5A58.28,58.28,0,0,0,181.64,48a29.54,29.54,0,0,0-5.91,7.81c-1.17,2.39-.8,5.12,1.14,8.06A17.29,17.29,0,0,0,178,65.28c-.6-.06-.56.21-.24.58s.66.92.26,1.32c-.11.11.07.43.06.64a6.86,6.86,0,0,1-.12.8l-.24,0L179,70.45l-.58-.18.18.72-.6-.27-.11.12.91.75-.26,2.24-.65-.14-.09.17,1.17.78.27,1.67c-.69-.27-1.38-.78-1.9-.29,0,0-.27-.07-.4-.13-.77-.34-1.56-.66-2.32-1a6.08,6.08,0,0,1-1.56-1c-1.19-1.21-2.26-2.5-3.45-3.71a3.79,3.79,0,0,1-1.28-2.49c0-.64.15-1.23.16-1.87s-.13-1.33-.15-2c0-.18.18-.32.26-.48s.28-.37.23-.56a7.86,7.86,0,0,1,.15-3.51,19,19,0,0,0,.42-4.77,7,7,0,0,1,.19-1.4c0-.46,0-.95,0-1.42l-.22-.08-.51,1.75-.24-.06a1.74,1.74,0,0,1-.09-.65,16.26,16.26,0,0,1,.66-1.77c.55-1.25,1.06-2.52,1.72-3.7a31.1,31.1,0,0,1,2.42-3.8,37.07,37.07,0,0,1,3.3-3.77c1.76-1.76,3.55-3.52,5.49-5.13S186,31.57,188,30.21c1-.67,2.11-1.19,3.18-1.78l2.49-1.34a1.34,1.34,0,0,0,.37-.33c.12-.15.1-.47.54-.16a.28.28,0,0,0,.26-.09c.29-.83,1.3-.75,2.13-.91a4.33,4.33,0,0,0,1.07-.42c.44-.21.86-.45,1.29-.68l.15.17-1,.51c1.3.08,2.1-1.07,3.87-.05l.28-.47h1.2l.1.51.51-.05c1.26-.09,2.49-.26,3.78-.24a6.73,6.73,0,0,1,2.85.66c.76.37,1.65.46,2.36.88a9.74,9.74,0,0,1,2.27,1.86,9.4,9.4,0,0,1,2.2,5,17.06,17.06,0,0,1-.22,6.22,35.91,35.91,0,0,1-3.4,10.14c-1.81,3.27-3.85,6.4-5.79,9.59"/><path class="cls-1" d="M135.38,62.65c-.25,0-.29-.07-.33-.06-.77.25-1.52.69-2.27-.06-.39-.39-1.24,0-1.36.57l3.16.12c.1,0,.23,0,.3,0A5.62,5.62,0,0,0,135.38,62.65Z"/><path class="cls-1" d="M124.72,62.84v.23l2.56-.12v-.32Z"/><path class="cls-1" d="M38.74,59.5a2.75,2.75,0,0,0-1.77.84c-.57.48-1.18.9-1.77,1.36-.17.13-.45.36-.42.46.3,1-1,1.11-1,1.9,0,.06-.45.14-.68.14a1.82,1.82,0,0,0-2,1.1c-.37.75-1.42,1.14-1.46,2.19a2.34,2.34,0,0,0-1.74,2c-.08.3-.92.42-1.41.61-.24.09-.5.15-.75.24a8.24,8.24,0,0,1-1.27.43,13.92,13.92,0,0,1-1.69.07l.21.6a6.27,6.27,0,0,0-1.33.58,7.74,7.74,0,0,0-1.2,1.24.42.42,0,0,0,.08.4.9.9,0,0,0,.54.09c.36-.05.71-.15,1.07-.24l.24.36c-.15.07-.36.23-.45.18-.91-.48-1.16.35-1.49.81s-.66.93-1.36.77a.65.65,0,0,0-.35.06l-1.83.74.06.21.17.6a2.08,2.08,0,0,1-.75.19c-.54-.08-1-.17-1,.63,0,.08-.27.24-.4.24-.66,0-.8.34-.86.87s-.14,1-.88.7c-.17-.06-.5.35-.78.56-.4-.49-.11-.81.24-1.16s.6-.7,1-1.13a1.22,1.22,0,0,0-1.44.63,1.11,1.11,0,0,1-1.38.44,1.37,1.37,0,0,1-.69-.79c-.07-.19.22-.5.4-.88a1.74,1.74,0,0,0-.53,0A7.27,7.27,0,0,0,7.21,80C6.26,81,5.36,82.12,4.43,83.19Q2.57,85.34.69,87.47A1.65,1.65,0,0,1,0,88C2.84,84,5.8,80.13,8.5,76.09s5.15-8.24,7.72-12.39c-1.85-.78-2.68-.65-2.63.38a3.08,3.08,0,0,0-2.92.79C9,66.06,7.38,67.28,5.73,68.48c0,0-.09,0-.33,0,.55-.54,1-1,1.47-1.47a63.67,63.67,0,0,1,7.71-6.87c1.75-1.37,3.48-2.75,5.23-4.11a13.41,13.41,0,0,1,1.64-1.17c1.84-1,2.75-2.85,3.87-4.49,2-3,4-6,6.05-8.92,1.14-1.67,2.3-3.33,3.45-5,1.74-2.5,3.46-5,5.25-7.5,2-2.74,4.06-5.45,6.12-8.14q3.72-4.84,7.5-9.64c1.22-1.55,2.51-3,3.71-4.61,1-1.35,1.94-2.78,2.94-4.14a19.22,19.22,0,0,1,1.77-2c.54-.55,1-.47,1.37.22,1.24,2.53,2.46,5.05,2,8a15.78,15.78,0,0,0,.13,3.13A37.4,37.4,0,0,1,65.7,17a12.53,12.53,0,0,1-1.23,3.58c-1.31,3-2.68,6-4.05,8.92-.4.86-.9,1.66-1.35,2.5a4.14,4.14,0,0,0-.19.56,3.16,3.16,0,0,0,.43-.08c3.32-1.22,6.64-2.46,10-3.64,1.77-.63,3.57-1.18,5.36-1.76,2.63-.86,5.24-1.76,7.89-2.56,1.52-.46,3.09-.75,4.63-1.12,1.86-.44,3.73-.88,5.59-1.31.53-.12,1.09-.12,1.63-.25s1.1-.4,1.66-.54a2.68,2.68,0,0,1,1.11-.06c.12,0,.26.44.23.66A7.59,7.59,0,0,1,97,23.5a3.83,3.83,0,0,1-.66.86c1,.14.67,1.08,1,1.63a6.12,6.12,0,0,1,.54,1.19c.07.17.18.42.11.55-.54,1-.15,2.11-.07,3.16,0,.13.2.25.22.27L97.8,33c-.5.33-1.18.82-1.9,1.22-.16.09-.49-.12-.53-.13a7.38,7.38,0,0,1-1.25.75c-1,.33-2,.55-2.93.87-1.14.37-2.24.82-3.38,1.2-.81.27-1.64.45-2.45.69a1.64,1.64,0,0,0-.39.25l.05.21,1.3-.15.08.15-1.19.68c.19.67.48.36.81.15a2.19,2.19,0,0,1,.92-.26c-.92,1-1.65,1.16-2.54.72-.77.52-1.5,1-2.2,1.51-.1.07-.1.42,0,.57s.32.17.5.26l.06.24-1.49.53c-.16.05-.37,0-.47.14a1,1,0,0,1-1.12.29c-.29-.07-.69.27-1,.45a3.1,3.1,0,0,0-.45.39l0-.65c-.07,0-.17-.08-.24-.05-.4.12-.72-.81-1.2-.06a3.66,3.66,0,0,1-1,.94,4.22,4.22,0,0,1-1.28.58,1.8,1.8,0,0,1-1.56,1,2.45,2.45,0,0,0-1.67.79,1.33,1.33,0,0,1-2,0c-.46.41-.91.86-1.4,1.26a2.12,2.12,0,0,1-.66.3c-.16.06-.36,0-.5.1-.7.4-.7.41-.93-.27-.85,0-.49.77-.8,1l-4.57,1.76-.06-.6c-.26.31-.5.47-.53.65-.08.61-.33.65-.8.36-.15-.09-.39,0-.6-.06l.14.25c-.11.18-.18.43-.34.53a11.35,11.35,0,0,1-1.26.61L53,53.85l.42-1.43c-.75-.19-1.18.2-1.66.74l.7.13a1.92,1.92,0,0,1-1.76,1.3c-.62,0-1.19.95-1.73,1.51a1.68,1.68,0,0,0,.51.7c2.18,1.54,4.32,3.15,6.59,4.56C61.89,65,67.82,68.6,73.71,72.22c4.93,3,9.89,6,14.78,9.11,2.24,1.41,4.35,3,6.53,4.52a6.29,6.29,0,0,1,1.08.84l-.94-.28-.08.16,1.42.8c0,.29-.94.19-.25.8l-.71,0-.07.2c.86.67,2.11.46,3.11,1.18-.42-.07-.7-.14-1-.17s-.87-.34-1.1.35c-.05.16-.53.17-.85.27l.75,1.71L96,94.16l-.66,0,.6.47L94.55,95l1.3,1-1,1.38c-.8-.5-.81.25-1,.73s-.43.78-.7,1.26l.72.44A10.67,10.67,0,0,1,89,99.27a9.38,9.38,0,0,0-1.73-.3c-.16,0-.27-.27-.43-.34a2.67,2.67,0,0,0-1-.3c-.45,0-.92.21-1-.53,0-.09-.3-.2-.48-.23a1.66,1.66,0,0,1-1.4-.85c-.07-.15-.33-.33-.45-.3-1.13.27-1.84-.57-2.68-1s-1.4-1.07-2.14-1.55c-.49-.33-1.41-.45-1.51-.84-.25-.93-1-1-1.62-1.37A6.54,6.54,0,0,0,73,90.91a1.56,1.56,0,0,0-2,.78l-2.84-1.45c0-.09.06-.25.08-.42s.14-.85.06-.88c-.37-.14-.78-.55-1.21.06-.13.19-.8.19-1.08,0a2.24,2.24,0,0,1-.7-1c0-.06.3-.27.41-.45a5.08,5.08,0,0,0,.31-.68,1.76,1.76,0,0,0-.57-.13c-.6.08-1.2.2-1.84.32l.18.55a1.86,1.86,0,0,1-.45-.16C61.23,86,59.1,84.64,57.12,83a36.55,36.55,0,0,1-6.62-6.58c-1.24-1.67-2.36-3.44-3.44-5.22a3.94,3.94,0,0,1-.19-1.54c0-.14,0-.34,0-.41a14.42,14.42,0,0,1-3.09-4.78c-.72-1.61-1.42-3.23-2.11-4.86-.28-.66-.53-1.33-.77-2s-.61-.42-.81-.16A22.78,22.78,0,0,0,38.74,59.5Zm12.08-6.18-.52.32-1.49-.86-.16.22.76.9c-.9.56-1.91-.48-2.92.38.37.12.63.31.79.25.79-.29.69.14.46.83,1.17-.59,2.21-1.05,3.17-1.63.43-.26.2-.91-.37-1.07ZM87.36,24.16a3.09,3.09,0,0,1,1.1,0c.69.28,1-.13,1.33-.61C87.5,23.51,87.5,23.51,87.36,24.16Zm4.9,10.61c.88.27,1.18.15,1.47-.56A1.12,1.12,0,0,0,92.26,34.77Zm-38,17.07a.9.9,0,0,0,1.26-1ZM77.88,93v.41l.78.12v-.67ZM19.45,74.82c.44-.72.36-.88-.65-1.18ZM53.34,51.74c-.34-.27-.56-.46-.8-.63a.65.65,0,0,0-.33-.09s-.13.15-.12.16a3.27,3.27,0,0,0,.64.67C52.85,51.92,53.11,51.79,53.34,51.74Zm9.51,34.08,0,.17c.17.11.34.23.53.33a1.18,1.18,0,0,0,.44.15s.17-.25.14-.29a1,1,0,0,0-.43-.31A2.94,2.94,0,0,0,62.85,85.82Z"/><path class="cls-1" d="M296.07,27.13c.47,0,.94.12,1.42.14,3.46.12,6.91.21,10.37.36a136.38,136.38,0,0,1,14.46,1.23c1.71.26,3.41.5,5.12.77a6.15,6.15,0,0,1,.89.28l0,.24-2.36.39c-.75.13-1.5.24-2.25.39-1.27.26-2.52.58-3.8.81s-2.45.35-3.66.57c-.3.06-.55.36-.84.52a1.34,1.34,0,0,1-.54.16c-2.28.14-4.56.24-6.84.42-1,.08-2,.33-3.07.46-.87.11-1.74.15-2.61.22-1.19.11-2.38.23-3.57.33s-2.25.1-3.37.22c-.91.1-1.79.4-2.7.49q-4.37.43-8.75.75c-.63,0-.69.24-.6.75.43,2.21.8,4.42,1.21,6.63.07.38.21.75.27,1.13s.4.86,0,1.37c-.2.23,0,.77.07,1.17,0,.05.34.06.55.09.27.59.4,1.18-.48,1.61a13.78,13.78,0,0,1,1,1.09c.25.33.54.69.08,1.12a.91.91,0,0,0-.16.7c0,.08.36.12.62.2,0,.37.27.88-.38,1.21-.13-.06-.28-.19-.41-.17a1.5,1.5,0,0,0-.47.26c.09.12.16.29.28.36a1.18,1.18,0,0,0,.47,0c.58,0,.91.23.8.82a.52.52,0,0,0,0,.3c.28.61-.18.72-.63.82.35.36,1,.76,1,1.1-.05.56.31.76.55,1.06l-.54.89c1.24.07.76,1,1,1.49s.08.9-.46,1.71l.76.1c0,1.6,1,3.09.47,4.82l-.47-.37c-.19.36-.28.61.29.65.16,0,.39,0,.44.13a1.26,1.26,0,0,1,.21.69c0,.07-.39.13-.78.24l.75,1.17.36-.63c.25.49.23.5-.31.89a1.82,1.82,0,0,0-.34.46,2,2,0,0,1,.45.26,1.67,1.67,0,0,1,.43.58,2.89,2.89,0,0,1,0,.8l-.39.14.34,1.27c-.72.61,0,1.29,0,2,0,.38.12.66-.2,1s.2.78.51,1.23l.13-.5c.09.12.21.22.21.31,0,.59-.08,1.18-.13,1.84l.4.13a1.22,1.22,0,0,0,.58,1.58l-1.21.27.43,1.09a2.38,2.38,0,0,0-.47,0,2.2,2.2,0,0,0-.55.15s0,.26,0,.27.34,0,.51.07.35.1.52.15l-.06.19-.49.12,0,.17.94.17a4.81,4.81,0,0,0-.72.45,4.08,4.08,0,0,0-.48.7l-1.43-.15c.57-.48.69-.83.24-1.2-.55.37-.18,1.25-1,1.4a5.83,5.83,0,0,1-.62.05l-.05-.15.89-.53a3.29,3.29,0,0,0-.8-.32,2.51,2.51,0,0,0-1,.09c-.72.22-1.31-.18-2-.3-.32-.06-.65-.08-1.11-.13l-.32-.86-.13.1-.67-.75s0,0,0-.06a3.87,3.87,0,0,1-1.59-2.23l.24-.27a1.88,1.88,0,0,0-.4,0c-.88.16-1,.06-1.16-.69,0-.08,0-.22-.09-.23-.94-.25-.29-.65-.12-.94l-1.13-.3c-.11-.38-.18-.64-.25-.89,0-.08-.06-.21,0-.24.78-.56-.08-1.08-.05-1.61,0-.09-.18-.22-.31-.28s-.26.12-.25.15a1.25,1.25,0,0,0,.2.34.78.78,0,0,0,.15.12,1.13,1.13,0,0,0-.15,1.58.78.78,0,0,1,0,.69c-.06.12-.42.18-.62.16s-.64-.24-1-.27a4,4,0,0,0-1,.15,1.8,1.8,0,0,0,.06.36c.3,0,.59-.05,1-.1a2.58,2.58,0,0,1,0,.34c0,.17,0,.33,0,.5-.51,0-1,0-1.16.63,0,.09-.4.22-.46.17a.83.83,0,0,1-.26-.5,2.47,2.47,0,0,1,.08-.64l-1.13,0v.15l.57.4c-.34.12-.72.14-.87.32a1.49,1.49,0,0,0-.22.86,7.28,7.28,0,0,0,.12,1.08,6.17,6.17,0,0,0-1.05-.41,4.41,4.41,0,0,0-.94,0L269,76.71c-.45.46-.7.26-.87-.1s-.26-.62-.41-1l.49-.39c-.2-.1-.35-.23-.49-.22-.6,0-.78-.21-.69-.72.11-.66-.59-.87-.9-1.29-.08-.11-.26-.15-.47-.26l.4-.19-1.38-1.83a3.2,3.2,0,0,0,.62,0,2.58,2.58,0,0,0,.5-.18c-.12-.18-.2-.45-.36-.51-.89-.31-.88-.29-.52-1.13a3.92,3.92,0,0,0,.12-.95l-.47.35c-.37-.16-1.75-4.42-1.62-5-.75-.27-.65-.94-.76-1.48a48.9,48.9,0,0,0-1-5c-.36-1.16-.42-2.4-.67-3.59-.21-1-.52-2-.76-3-.49-2-.89-4-1.48-6s-1.52-4.08-2.06-6.16a2.58,2.58,0,0,0-2.89-2.19c-1.42,0-2.83-.44-4.25-.48a30.81,30.81,0,0,0-3.84.29c-.69.06-1.38.17-2.07.26l-.07-.25,1.89-.7,0-.22c-.86,0-1.72-.15-2.58-.11a62.4,62.4,0,0,1-10.65-.2,15.84,15.84,0,0,1-5.18-1c-1.26-.62-1.31-.71-.36-1.71a6.87,6.87,0,0,1,.93-.84c1.59-1.16,3.13-2.39,4.82-3.41a8.82,8.82,0,0,1,2.87-.84c2.53-.48,5.07-1,7.63-1.31,2.9-.37,5.83-.58,8.75-.8.69-.05.73-.26.6-.78-.37-1.47-.69-3-1-4.45l1.28-.12c.17-.61-.37-1.53.78-1.82.28-.53.59-1.1.9-1.67a.48.48,0,0,0,.08-.3c-.14-.51-.1-.88.64-.87.1,0,.25-.24.29-.39.08-.34.12-.69.63-.41l.42-1.25,1,.82L256.6,12l1.18-.41-.15-1,.16-.06.63,1,.09,0-.09-1.2.26,0c1.77,2.71,2.67,5.75,3.81,8.73l-.42.34.89.38c.09.46.12.8.22,1.13.22.75.5,1.48.71,2.23a2.28,2.28,0,0,1-.09.74l1-.25c.21.48.64.33.95.11a9.6,9.6,0,0,1-.68-1.43,10.62,10.62,0,0,0-1.71-4c-.47-.59.08-1.19.48-1.59a18.74,18.74,0,0,1,2.5-2.07c1.25-.88,2.58-1.66,3.87-2.5.7-.46,1.38-1,2.08-1.42a1.77,1.77,0,0,1,2.41.26l-.78-.17c.88.7.23,1.18.11,1.47.38.8.69,1.41.94,2s.37,1.12.54,1.68a11.53,11.53,0,0,1,.39,1.36c.09.48.46.68,1.2.41a4.77,4.77,0,0,1-.27.78c-.36.62-.22,1.11.28,1.35.13.49.22.89.34,1.27.22.66.43,1.33.71,2a.84.84,0,0,0,.6.42c4.24,0,8.49,0,12.73.11,3.61.11,7.22.43,10.82.66.07,0,.16,0,.2,0,.28.2.78.39.79.62,0,.49-.48.32-.83.38-.5.09-1.14-.24-1.5.41-.08.14-.52.1-.78.17-.56.16-1.1.36-1.66.51s-1.12.24-1.67.37c-.29.07-.58.16-.87.24Zm-8.61,55.74,0-.15-.93-.51L285.23,82l0,.39c.61.2,1.09.37,1.59.5A2.66,2.66,0,0,0,287.45,82.87Zm-12.76-8,1.76-.26C276.32,74.07,275.33,74.12,274.7,74.83Zm-4.12,4.57c.54-.46.5-.6-.39-1.16Zm5.88-2.89.22-.1c-.15-.33-.3-.66-.48-1,0,0-.31.11-.47.18Zm1.94-.49.07.18.55-.1c.16,0,.33,0,.49-.09s0-.21,0-.22a1.28,1.28,0,0,0-.57-.09A1.91,1.91,0,0,0,278.41,76Zm-2.61-53.94-.11.16,1,.61C276.59,22.17,276.43,22.06,275.79,22.08Z"/><path class="cls-1" d="M309.88,70.91a.76.76,0,0,0,1-.59,3.89,3.89,0,0,1-.61.06.79.79,0,0,1-.46-.14c-.06-.06,0-.29,0-.4.26-.51.57-1,.81-1.51a3.47,3.47,0,0,0,.12-.75,1.63,1.63,0,0,1,.16-.31c.2-.44.6-.9.55-1.32a2.06,2.06,0,0,1,.38-1.35c.13-.24,0-.6.06-.9s-.06-.5,0-.55c.81-.49.88-1.7,1.9-1.95a6.64,6.64,0,0,1,.8,0c.26,0,.61,0,.74-.19.86-1,1.68-2.13,2.5-3.22,2-2.65,4-5.29,6-8,1.59-2.19,3.12-4.43,4.64-6.67q3.46-5.12,6.86-10.28c1.32-2,2.58-4,3.93-6,.65-.95,1.44-1.8,2.15-2.71.12-.16.16-.38.29-.53a8.28,8.28,0,0,1,.69-.64l.89-.8c-.65,1.58.55,2.53.88,3.77-.51.72-.48.83.41,1.2.21.09.43.15.64.23l-.26.23c-.15.06-.44.12-.44.17,0,.53-.46,1.17.35,1.55a.8.8,0,0,1,.29.65c0,.51.4,1.11-.23,1.55a3.68,3.68,0,0,0,.38.63c.11.15.43.3.41.36-.3.85.57,1.36.57,2.11a.59.59,0,0,0,.15.38c1.17,1.19,1.3,2.82,1.81,4.28.25.7.4,1.43.61,2.15.37,1.26.85,1.45,2.05.9a3,3,0,0,1,.93-.09l.05.23-1,.82a2.08,2.08,0,0,0,.52,0l3.27-1.43c.06,0,.12-.09.18-.09,1.72-.1,3-1.29,4.47-1.89a2.19,2.19,0,0,1,.47,0l-1.28,1.27,0,.08,4.27-1.66c1.38-.54,2.76-1.06,4.13-1.61l5.44-2.19c.67-.27,1.37-.48,2-.77.41-.18.77-.49,1.18-.67s.66-.12,1-.22c1.07-.36,2.14-.73,3.19-1.14a29.86,29.86,0,0,1,3.83-1.24,28.12,28.12,0,0,0,3.59-1.45c.52-.21,1.07-.32,1.61-.49a5.5,5.5,0,0,0,.89-.32c1-.49.94-.5.48-1.47a.59.59,0,0,1,.19-.54c1-.57,2-1.1,3-1.63.37-.19.76-.35,1.14-.52l.08.15-3.21,2.9.16.23L395.95,26l-.65-.3c.55-.06.93-.76,1.6-.43.09,0,.28-.08.41-.15L399.17,24c.14-.09.28-.19.41-.29l-.07-.18-2.19.79.35-.86-.14-.16.83-.12c.86-.11,1.72-.18,2.56-.34.2,0,.35-.35.53-.54a1.68,1.68,0,0,0-.63-.15,11.62,11.62,0,0,0-1.27.38l-.09-.18c.69-.34,1.36-.73,2.08-1,1.18-.44,2.38-.76,3.56-1.25a38.53,38.53,0,0,1,5.64-1.48c.37-.09.45.15.33.45a1.86,1.86,0,0,1-.31.45A11.87,11.87,0,0,0,409,22.61a13.51,13.51,0,0,1-1,1.57c-.23.39-.38.82-.57,1.23a2.32,2.32,0,0,1-.36.62c-.74.77-1.51,1.5-2.24,2.28-1,1-1.87,2.14-2.89,3.12a21,21,0,0,1-5.25,4.05c-.14.07-.25.21-.39.28s-.44.2-.64.33c-.7.43-1.38.89-2.1,1.27-1.1.59-2.23,1.12-3.36,1.67-.16.08-.35.12-.51.19-.81.36-1.62.75-2.44,1.1-1.83.77-3.68,1.51-5.52,2.29-1.58.67-3.15,1.36-4.71,2.09q-3.79,1.77-7.55,3.6c-3.07,1.5-6.11,3-9.17,4.55-1.47.72-3,1.43-4.45,2.09-.51.23-.62.39-.37.94,1.12,2.46,2.25,4.93,3.24,7.45a24.53,24.53,0,0,1,1.84,7.94c0,.6.43,1.28-.09,1.87,0,0,0,.17,0,.25a17.72,17.72,0,0,1,.43,1.81c0,.23-.2.49-.31.74l-.24,0,.46,2.14a1.69,1.69,0,0,1-.36.07c-.53,0-.72.18-.54.7.05.15,0,.32.09.47.19.73.08.88-.83.8l.44,1.54c-.89.06-.75-1-1.41-1.3,0,.34.15.8,0,.92s-.61.06-1,.07l.62,1.61-.13.1-.64-.79-.27.5c-.64-.45-1,0-1.45.39-.89-.2-.86-1-1.15-1.62l-1.08-.27.28-.69c-.29-.1-.59-.32-.85-.27-.6.1-.93.12-.91-.68,0-.37-.43-.74-.65-1.12-.11-.19-.2-.39-.26-.51l-1.14-1.53.75-.22c-.38-1.32-1-2-1.41-1.75.44.41.44.41.08.9l-3-5.63.23-.14,1.31,2.32.17-.06a1.12,1.12,0,0,0,0-.41c-.41-.86-.84-1.72-1.28-2.56-.07-.13-.28-.19-.42-.29l-.31.59-3.71-8-2.69,1.19L335.64,64,332,65.6c-.48.21-1,.4-1.44.62a1.15,1.15,0,0,1-1.12-.06,2.72,2.72,0,0,0-1.35,0c-.21,0-.4.22-.61.28a1.62,1.62,0,0,1-.87.11c-.14-.05-.15-.48-.23-.8l-.81.15-.08-.18.85-.41c-.5-.35-.9-.28-1.37.21l-2.06-.38.34.67a2.47,2.47,0,0,1-.43.12c-.23,0-.49-.06-.69,0-.54.24-1.05.55-1.56.82l-.74-1c-.06,1.32-1.16,1.29-2,1.55l.56-.64c-.49-.47-.94,0-1.37.16a1.8,1.8,0,0,0-1.06.63c-.21.4-.67.55-.8.88a4.61,4.61,0,0,1-1,1.33,18.64,18.64,0,0,1-1.17,1.56A13.12,13.12,0,0,0,311,73.5c-.07.1-.31.09-.47.13,0-.16-.12-.37,0-.48.33-.52.71-1,1.08-1.55-.13-.64-.13-.64-.47-.49-.17.18-.32.48-.52.53-.57.12-.66-.32-.7-.75ZM338.31,49.4l-.84.89c1.77-.6,1.77-.6,1.5-1.14l-.68.26c-.16-.32-.06-.49.29-.59a.7.7,0,0,0,.51-.85,85.59,85.59,0,0,1-.06-11.6,5.32,5.32,0,0,0-.11-.79,10.7,10.7,0,0,0-1.14,1.47c-.39.75-.61,1.6-1,2.35-.54,1-1.28,2-1.74,3.07a33.16,33.16,0,0,1-3,4.7c-.79,1.23-1.65,2.43-2.48,3.64a.74.74,0,0,1-.26.21A5.75,5.75,0,0,0,327,53.63c-.39.75-1,1.26-1.38,2-.13.27-.51.42-.77.62l.2.23c.36-.31.7-.66,1.08-.94,1-.74,2.34-.95,3.24-1.89,0,0,.18,0,.26,0s.51,0,.62-.18a6,6,0,0,1,2.13-1.27c1.35-.7,2.65-1.51,4-2.26C337,49.63,337.55,49.18,338.31,49.4Zm49.54-12.07a2.07,2.07,0,0,1-1.92,1.17.88.88,0,0,0-.46.18c.16.71-.47.61-.8.8-.61.34-1.22.66-1.88,1,.25.34.36.74.78.26.65-.76,1.68-.82,2.48-1.31.06,0,.18,0,.27,0a1.73,1.73,0,0,0,2-.61C388.95,38,388.89,37.69,387.85,37.34Zm1.31.82a1.8,1.8,0,0,0,.41-.06c1.17-.53,2.35-1,3.5-1.62.55-.28,1-.63,1.53.29l.62-1.13c-.77-.78-1-.77-1.79,0a4.74,4.74,0,0,1-1,.77c-.39.21-.89.51-1.25.41s-.69-.32-1,.25c-.17.32-.65.47-1,.71C389.14,37.78,389.17,37.95,389.16,38.15Zm-50-5.35c-.23.3-.37.46-.49.64s-.26.43-.38.65-.17.33-.26.5c.21.1.41.29.62.29a.59.59,0,0,0,.44-.37C339.14,34,339.12,33.51,339.15,32.8Zm-5.23,19.07.1.17c1.76-.46,2.25-.77,2.17-1.53Zm-.5-9.64.27.24a3.28,3.28,0,0,0,.26-.3c.14-.21.23-.51.42-.62.54-.3.52-.76.58-1.22l-.18-.08Zm.71-4.24-.59-.6L332.7,39l.1.05Zm-2.81,7.44.25.26.68-.62-.25-.28Z"/></g></g></svg>