<svg xmlns="http://www.w3.org/2000/svg" viewBox="0 0 350.65 161.48"><defs><style>.cls-1{fill:#fff;}</style></defs><title>horror</title><g id="Layer_2" data-name="Layer 2"><g id="Layer_2-2" data-name="Layer 2"><path class="cls-1" d="M167,143.41a1.64,1.64,0,0,1-1.31-.83,23.8,23.8,0,0,0-2.56-4.21c-.49-.7-1-1.42-1.46-2.16-.36-.57-.77-1.25-1.14-2q-1.55-3.06-3.06-6.14c-.4-.81-.78-1.62-1.17-2.43-.67-1.39-1.35-2.83-2.07-4.21-.54-1-1.14-2.1-1.71-3.11-.66-1.18-1.35-2.4-2-3.63-1.57-3.09-3-6.22-4.41-9.17-1.64-3.52-3.79-8.16-5.89-12.86-1.39-3.11-2.81-6.42-4.33-10.1a9.2,9.2,0,0,1-.63-2.8c-.16-2.07-.23-3.8-.21-5.42,0-1.85,1.07-2.12,1.7-2.12a3.5,3.5,0,0,1,1.16.24,8.14,8.14,0,0,1,4.17,2.63,76.47,76.47,0,0,1,13.66-17.47,76,76,0,0,0,6.57-6.84c3.12-3.84,6.56-7.77,11.16-12.73l1.05-1.14c1.27-1.39,2.59-2.82,4-4.16a17.5,17.5,0,0,1,4.69-3.2l1.13-.55.1,1.25c0,.24,0,.46.07.66a5.88,5.88,0,0,1,.06,1.27,15.68,15.68,0,0,1-1.9,6.19c0,.07-.07.16-.11.24a3.18,3.18,0,0,1-.3.57c-.13.19-.21.31.19.94s.67,1.15,1,1.71l.31.59a2.92,2.92,0,0,1,.17.41l0,.08a4.36,4.36,0,0,1,1.63,2.85l.79-.06.24.56a1.05,1.05,0,0,1,.16.83c-.13.45,0,.84.45,1.52L188,50c.51.83,1,1.7,1.53,2.58l.44.8c1.55,2.82,3.15,5.73,4.63,8.65.6,1.18,1.1,2.42,1.58,3.62.28.7.57,1.4.87,2.09a28,28,0,0,0,1.36,2.73c.38.66.79,1.31,1.19,2s.78,1.25,1.15,1.89a2.89,2.89,0,0,1,.31,1.08c0,.12,0,.25.06.39l.34,1.58-1.5-.59a9.5,9.5,0,0,1-3.88-3.23c-1.21-1.48-2.52-2.93-3.78-4.34l-.52-.57a19.26,19.26,0,0,1-2.9-4.25l-.93-1.82a64.72,64.72,0,0,1-3.13-6.66,6.06,6.06,0,0,0-.86-1.42,27.11,27.11,0,0,1-2.76-4.84c-.32-.68-.65-1.35-1-2l-.5-1c-.41-.79-.84-1.61-1.28-2.39a1.57,1.57,0,0,0-.28-.31l-.12.11-1.46,1.37a85.14,85.14,0,0,0-6.2,6.59c-1,1.17-2.08,2.37-3.15,3.53q-2.88,3.1-5.78,6.17l-4,4.23-2.8,3c-1.74,1.89-3.54,3.84-5.36,5.71a64.58,64.58,0,0,1-4.84,4.39c-.35.29-.36.41-.26.77.22.82.42,1.65.62,2.48l.27,1.13c.17.69.33,1.39.5,2.09.37,1.58.75,3.21,1.22,4.77a40.21,40.21,0,0,0,2,5.13c.8,1.77,1.67,3.55,2.5,5.27.66,1.37,1.33,2.74,2,4.12l1.51,3.21c2.52,5.36,5.13,10.89,7.16,16.59,1,2.92,2,5.9,3,8.79.5,1.54,1,3.08,1.52,4.61.18.53.38,1.05.57,1.57s.32.83.46,1.25.21.67.3,1l.12.43.22.76-.89.34Z"/><path class="cls-1" d="M183.55,30.36a11.57,11.57,0,0,1,.13,1.77,14.79,14.79,0,0,1-1.8,5.85c-.13.24-.21.51-.36.74a1.54,1.54,0,0,0,.18,1.89c.46.72.84,1.5,1.25,2.25.13.24.17.6.37.72,1.12.72,1.25,1.92,1.54,3.12l.92-.07c0,.1.13.2.11.26a2.72,2.72,0,0,0,.54,2.19c.77,1.3,1.6,2.56,2.33,3.88,1.72,3.12,3.45,6.24,5.06,9.42.93,1.83,1.61,3.78,2.44,5.67a29.25,29.25,0,0,0,1.4,2.82c.75,1.3,1.59,2.55,2.35,3.85a4.47,4.47,0,0,1,.28,1.22,8.66,8.66,0,0,1-3.53-3c-1.38-1.7-2.86-3.32-4.33-4.94A18.43,18.43,0,0,1,189.65,64a89,89,0,0,1-4-8.39,6.73,6.73,0,0,0-1-1.64c-1.57-2.06-2.49-4.47-3.68-6.73-.6-1.13-1.16-2.28-1.8-3.38a6.55,6.55,0,0,0-1-1.06c-.78.73-1.46,1.39-2.16,2-3.41,3.14-6.27,6.78-9.41,10.17s-6.51,6.93-9.76,10.4c-2.72,2.91-5.37,5.87-8.14,8.72a63.08,63.08,0,0,1-4.77,4.33,1.4,1.4,0,0,0-.54,1.65c.32,1.19.59,2.4.89,3.6.57,2.3,1,4.63,1.73,6.9a41.29,41.29,0,0,0,2,5.24c1.44,3.16,3,6.26,4.48,9.4,3,6.51,6.22,13,8.64,19.73,1.58,4.43,3,8.93,4.47,13.39.32,1,.71,1.89,1,2.83.16.45.27.92.4,1.39h0a.88.88,0,0,1-.52-.31c-1-2.38-2.72-4.33-4.08-6.49-.39-.62-.77-1.25-1.1-1.9q-1.55-3.05-3.06-6.13c-1.09-2.21-2.11-4.46-3.25-6.65s-2.53-4.46-3.68-6.74c-1.53-3-3-6.08-4.39-9.14-2-4.27-4-8.55-5.89-12.84q-2.24-5-4.32-10.08a8.44,8.44,0,0,1-.56-2.53c-.14-1.78-.23-3.56-.21-5.34,0-.89.26-1.27.83-1.27a2.75,2.75,0,0,1,.87.19c2.21.78,2.55,1,4.49,3.11a4.05,4.05,0,0,0,.61-.67,75.19,75.19,0,0,1,13.62-17.47A75.87,75.87,0,0,0,163,51.36c3.55-4.38,7.3-8.56,11.12-12.69,1.64-1.78,3.26-3.59,5-5.27a16.72,16.72,0,0,1,4.46-3m1.52-2.65-2.27,1.1a18.56,18.56,0,0,0-4.91,3.35c-1.4,1.36-2.73,2.8-4,4.2l-1,1.13c-4.61,5-8.06,8.92-11.19,12.78a75.09,75.09,0,0,1-6.5,6.76,77.36,77.36,0,0,0-13.25,16.69,8.82,8.82,0,0,0-3.7-2,4.32,4.32,0,0,0-1.44-.29c-.42,0-2.52.14-2.56,3,0,1.65,0,3.39.21,5.5a10.07,10.07,0,0,0,.69,3.06c1.53,3.7,2.95,7,4.34,10.12,1.66,3.71,3.48,7.68,5.9,12.87,1.37,2.94,2.84,6.08,4.42,9.19.63,1.25,1.33,2.48,2,3.66.57,1,1.16,2.06,1.7,3.09.71,1.38,1.4,2.81,2.07,4.2.39.81.77,1.62,1.17,2.42,1.14,2.31,2.14,4.32,3.07,6.15.37.74.81,1.44,1.18,2,.48.76,1,1.49,1.49,2.2a23.17,23.17,0,0,1,2.47,4.06,2.49,2.49,0,0,0,2.1,1.35h.33l.32-.12,1.46-.57-.43-1.51-.11-.41c-.09-.35-.19-.7-.32-1.07s-.31-.85-.47-1.27-.39-1-.56-1.54c-.51-1.53-1-3.06-1.51-4.58-.95-2.9-1.93-5.9-3-8.84-2-5.74-4.66-11.3-7.2-16.68l-1.5-3.2c-.65-1.39-1.33-2.79-2-4.14-.83-1.72-1.69-3.49-2.49-5.25a39.24,39.24,0,0,1-1.91-5c-.46-1.54-.84-3.17-1.21-4.74-.16-.69-.33-1.39-.5-2.08l-.28-1.14c-.19-.79-.38-1.6-.6-2.4a64.78,64.78,0,0,0,4.86-4.41c1.83-1.88,3.63-3.84,5.38-5.73l2.79-3,4-4.22c1.9-2,3.87-4.11,5.8-6.19C168.92,55,170,53.76,171,52.59a84.36,84.36,0,0,1,6.14-6.53l.86-.8c.31.57.62,1.16.94,1.78l.51,1c.34.65.65,1.3,1,2a27.73,27.73,0,0,0,2.85,5,5.34,5.34,0,0,1,.74,1.2,65.45,65.45,0,0,0,3.17,6.74l.93,1.81a20,20,0,0,0,3,4.44l.5.55c1.27,1.4,2.58,2.85,3.77,4.32a10.33,10.33,0,0,0,4.23,3.48l3,1.19L202,75.58c0-.11,0-.22-.05-.33a3.68,3.68,0,0,0-.42-1.4c-.38-.66-.78-1.3-1.17-1.92s-.8-1.28-1.17-1.92a27.24,27.24,0,0,1-1.32-2.65c-.3-.68-.59-1.39-.87-2.08-.49-1.21-1-2.46-1.61-3.67-1.48-2.92-3.08-5.82-4.62-8.63l-.46-.84c-.49-.9-1-1.77-1.55-2.61l-.81-1.32c-.26-.43-.4-.71-.36-.85a1.88,1.88,0,0,0-.22-1.47l-.47-1.06-.68,0a4.78,4.78,0,0,0-1.55-2.47,3,3,0,0,0-.17-.37l-.31-.59c-.31-.58-.62-1.18-1-1.77l-.1-.16a4.6,4.6,0,0,0,.27-.54c0-.05,0-.11.07-.16a16.56,16.56,0,0,0,2-6.53,6.64,6.64,0,0,0-.06-1.45c0-.19,0-.4-.07-.62l-.2-2.51Z"/><path class="cls-1" d="M170.47,144.08a26.16,26.16,0,0,1,2-6.75l.45-1.16a135.3,135.3,0,0,1,8.08-16.62c1.65-3,3.52-6.45,5.14-9.94,1-2.16,1.85-4.45,2.66-6.67l.72-1.94a88.18,88.18,0,0,1,6.32-13.39c1.17-2,2.23-4.11,3.27-6.16.57-1.14,1.15-2.27,1.74-3.4,1.15-2.17,2.31-4.27,3.29-6,0,0,1.74-2.44,2.73-2.44h.4l.29.32.26.31-.07.46a95.66,95.66,0,0,1-5.16,17.14,102.62,102.62,0,0,1-5.48,11.48c-1.32,2.34-2.62,4.76-3.87,7.09s-2.51,4.68-3.82,7c-.86,1.53-1.8,3-2.71,4.5s-1.68,2.7-2.47,4.07c-2.29,4-4.16,7.41-5.82,11-1.09,2.33-2.36,4.6-3.6,6.8-.54,1-1.08,1.93-1.61,2.9l-.73,1.33-2.43,4.4Z"/><path class="cls-1" d="M206.82,70.44s0,0,0,.07a95.38,95.38,0,0,1-5.11,17,102.24,102.24,0,0,1-5.43,11.38c-2.62,4.66-5.06,9.43-7.68,14.09-1.63,2.91-3.52,5.67-5.18,8.56-2.06,3.61-4.09,7.24-5.85,11-1.55,3.31-3.44,6.45-5.18,9.66-.36.66-.73,1.32-1.09,2a31,31,0,0,1,2.36-7.7,135.25,135.25,0,0,1,8-16.52c1.8-3.29,3.59-6.59,5.16-10,1.31-2.81,2.32-5.77,3.41-8.68A86.86,86.86,0,0,1,196.54,88c1.82-3.11,3.34-6.4,5-9.59,1.07-2,2.17-4,3.28-6a8,8,0,0,1,2-2m-9.38,19.85a32.38,32.38,0,0,0-4.15,9.71c1.59-3.15,3.81-6,4.15-9.71m9.38-21.57h0c-1.58,0-3.46,2.85-3.48,2.88-1,1.79-2.17,3.91-3.3,6-.6,1.13-1.18,2.29-1.75,3.41-1,2-2.09,4.14-3.24,6.12a89.16,89.16,0,0,0-6.38,13.52l-.72,2c-.81,2.2-1.65,4.48-2.64,6.61-1.6,3.46-3.47,6.87-5.11,9.89a136.09,136.09,0,0,0-8.12,16.73l-.45,1.16a26.78,26.78,0,0,0-2,7l-.92,8.5,4.14-7.48.35-.63.75-1.36c.52-1,1.06-1.93,1.6-2.89,1.24-2.21,2.52-4.5,3.63-6.87,1.65-3.52,3.51-6.9,5.79-10.9.78-1.36,1.63-2.72,2.45-4,.92-1.47,1.86-3,2.74-4.54,1.31-2.33,2.59-4.71,3.83-7s2.54-4.74,3.86-7.07a103.74,103.74,0,0,0,5.53-11.57,96.67,96.67,0,0,0,5.21-17.32,1.79,1.79,0,0,0-.38-1.47l-.52-.62Z"/><path class="cls-1" d="M12.34,86.54c1.88-.33,3,1,4.12,2.4a1.85,1.85,0,0,1,.4,1.39c-.47,1.69-.54,3.53-1.79,5a3.49,3.49,0,0,1-2.69,1.43A13.65,13.65,0,0,1,9,96.44a4.38,4.38,0,0,1-2.36-7c.32-.39.62-.79,1-1.16C8.86,86.9,9.91,86.5,12.34,86.54Z"/><path class="cls-1" d="M32.16,92.87l-.09-.31A5,5,0,0,0,31,95.45,4.43,4.43,0,0,1,30.89,97a11.67,11.67,0,0,1-1,2.71A57.29,57.29,0,0,1,26,105.6c-.65.84-1.37,1.64-2,2.53a1.15,1.15,0,0,0-.28.59c.08,1.19-.71,1.81-1.39,2.63a29.78,29.78,0,0,0-2.82,4.5c-1.86,3.34-3.66,6.7-5.47,10.07-.38.7-.63,1.47-1,2.19-1.28,2.68-2.52,5.36-3.53,8.17a22.69,22.69,0,0,0-1.24,4.3A4.88,4.88,0,0,1,8,141.86a15.54,15.54,0,0,0-1.37,7.75c0,.22,0,.44,0,.64l.83.33L6.3,151.84l.94.1-.44.82L8,153c-.13.3-.21.54-.34.76-.36.62-.6,1.22.18,1.73a3.86,3.86,0,0,1,0,1.71c-.29.28-.59.53-.92.83.47,1.19-.19,1.79-1.08,2.27-.51.27-1,.51-1.52.81-.91.58-1,.56-1.81-.17a7.93,7.93,0,0,1-2.49-6,14.88,14.88,0,0,1,.19-2.79c.56-3.83,1.13-7.65,1.76-11.46a17.89,17.89,0,0,1,.89-3.2A84.52,84.52,0,0,1,7.3,126.93a30.1,30.1,0,0,0,2.53-6.58,54.83,54.83,0,0,1,4-9.88c2-4.21,4-8.44,6-12.66.19-.41.31-.78.87-.88s.61-.62.56-1.07c-.16-1.35-.15-1.41.93-2.1a1.22,1.22,0,0,0,.43-.49c.8-1.72,1.59-3.44,2.35-5.17.3-.68.51-1.4.78-2.16A6,6,0,0,1,23.2,82.5,6.58,6.58,0,0,1,27.55,81c.51-1.3,1-2.6,1.54-3.83a8.17,8.17,0,0,1,1.32-2.26c.37-.4.2-1.31.3-2.17-2.46,1.12-4.68,2.52-7.1,3.14S19,77.9,16.23,78c.26-.22.42-.37.6-.49a53.24,53.24,0,0,1,10.05-4.89,29.5,29.5,0,0,0,6.6-3.73,3,3,0,0,0,.86-1c.66-1.24,1.28-2.5,1.85-3.78.15-.33-.08-1,.13-1.12,1.1-.8,1-2.08,1.46-3.14A64.13,64.13,0,0,1,40.89,54c1.57-2.79,3.27-5.51,4.75-8.34a30.83,30.83,0,0,1,4-6,21.91,21.91,0,0,0,3.25-6.08c.09-.2.21-.48.13-.63-.43-.84.12-1.42.46-2.07q2.87-5.49,5.72-11a16.33,16.33,0,0,1,4.25-5.25c1.21-1,2.29-2.1,3.42-3.17a36.71,36.71,0,0,1,7-4.84,41.47,41.47,0,0,0,5.22-3.89A11.58,11.58,0,0,1,85.38,0,2.18,2.18,0,0,1,88,1.74a8,8,0,0,1-.18,5.36A22.29,22.29,0,0,1,83.56,14c-1.56,1.76-3.14,3.51-4.78,5.2A17.76,17.76,0,0,0,76,23.53c-.67,1.3-1.45,2.54-2.21,3.79-.62,1-1.25,2.05-1.92,3a24.69,24.69,0,0,1-2.57,3.56,25.6,25.6,0,0,0-4.12,6.5A21.45,21.45,0,0,1,61.37,46a7,7,0,0,0-1.12,1.49,31.44,31.44,0,0,1-4.19,5.34,14.45,14.45,0,0,0-2.11,3,6.32,6.32,0,0,0,.77-.31q8.4-4.65,16.79-9.31a41.7,41.7,0,0,0,5-3c1.06-.81,2.41-1.16,3.26-2.38a8.4,8.4,0,0,1,2.5-1.71c2.25-1.43,4.5-2.84,6.74-4.28.44-.29.81-.7,1.24-1,1.12-.78,2.28-1.51,3.38-2.32.52-.38.92-.93,1.4-1.37a18.17,18.17,0,0,1,1.73-1.42c6.47-4.49,13.46-8.13,20.2-12.18,1.9-1.14,3.67-2.5,5.51-3.75.92-.62,1.83-1.27,2.79-1.82,3.3-1.92,6.61-3.83,10-5.68,1.31-.73,2.71-1.29,4.08-1.94a1.07,1.07,0,0,1-.1,1.45c-.52.66-1.11,1.27-1.62,1.94-1.62,2.11-3.22,4.24-4.84,6.36a13.66,13.66,0,0,0-2.13,3.5c-.56,1.51-1.93,2.39-3.13,3.38a30.26,30.26,0,0,1-7,3.83c-1.37.62-2.71,1.34-4,2.06a125.65,125.65,0,0,0-14.4,9.61,40.83,40.83,0,0,1-3.81,2.44c-2.42,1.41-4.81,2.84-7.12,4.44a34.22,34.22,0,0,1-7,4l1-1L85,45.09c-.81.5-1.62,1-2.42,1.51s-1.47,1-2.23,1.44a2,2,0,0,1-1.35.21,5.89,5.89,0,0,0-2.54.42c-1.45.52-2.84,1.18-4.27,1.78a4.06,4.06,0,0,1-1,.36c-1.91.25-3.62,1.16-5.44,1.67a10,10,0,0,0-1.45.63,3.61,3.61,0,0,1-1,.46c-1.76.2-3.2,1.18-4.73,1.93s-3.15,1.44-4.63,2.31A9.73,9.73,0,0,0,49.86,62c-2,4.16-4.27,8.19-6.42,12.29-.91,1.73-1.74,3.5-2.67,5.22a8.44,8.44,0,0,1-2.65,3.42c-.2.13-.27.44-.43.73a3.94,3.94,0,0,0,.76.55,15.92,15.92,0,0,1,4.05,2.54c1.89,1.54,4.13,2.65,5.71,4.56A6.34,6.34,0,0,0,50.5,93a9.6,9.6,0,0,1,2.57,2.26c.7.74,1.22,1.64,1.89,2.41a9.93,9.93,0,0,0,1.8,1.73c2.38,1.63,4.88,3.05,7.14,4.89S68.62,107.43,71,109c.15-.12.29-.18.34-.28q1.42-3.08,2.82-6.18c.62-1.37,1.23-2.73,1.8-4.12a62.48,62.48,0,0,0,2.81-8.88,91.21,91.21,0,0,1,3.48-10.21,30.51,30.51,0,0,1,2.54-5.11c1.18-1.92,2.17-4,3.36-6.15-.93-.15-1.72-.26-2.5-.42a15.89,15.89,0,0,0-7.52.07c-.17,0-.42.16-.51.09-.9-.67-1.81-.07-2.69,0-1.54.13-3.07.43-4.6.66-.17,0-.37.15-.51.1-.43-.16-.65-.73-1.27-.54a3.62,3.62,0,0,1-1.27.13,39,39,0,0,1,9.07-2.61c4.73-.8,9.48-1.49,14.24-2.11a43.21,43.21,0,0,0,6-1.31,77.28,77.28,0,0,1,14.52-2.73c4-.32,8.06-.67,12.09-1l6.63-.54a1.09,1.09,0,0,1,.8.29c-1.09.72-2.21,1.41-3.27,2.18-2.05,1.48-4,3-6.12,4.49a14,14,0,0,1-3.26,1.77,28.58,28.58,0,0,1-10.26,2.11c-1.5,0-3-.32-4.5-.43a5.4,5.4,0,0,0-1.81.15,14.49,14.49,0,0,1-4.06.65c-.84,0-1.68.14-2.52.18-.34,0-.69-.08-1-.09-.65,0-1.29,0-2,0,0,.7-.08,1.22-.11,1.74a18.34,18.34,0,0,1-1.85,7.45,59.06,59.06,0,0,0-4.41,11.13,24,24,0,0,1-1.09,2.57,14.72,14.72,0,0,0,4-1.47c2.63-1.07,5.25-2.14,7.89-3.2a3.61,3.61,0,0,1,.92-.08,19.15,19.15,0,0,1,0,2,27.93,27.93,0,0,1-2,7,12.17,12.17,0,0,1-2.33,4.3,10.65,10.65,0,0,1-1.57,1.13,5.8,5.8,0,0,1-.64.44,2.06,2.06,0,0,1-.78.29c-1.11.06-2.23.09-3.35.11a2.79,2.79,0,0,1-.79-.07,3,3,0,0,0-3,.35,6.69,6.69,0,0,1-1.74.79,4.59,4.59,0,0,0-2.25,2.3,50.91,50.91,0,0,0-2.91,6.57c1.19.71,2.3,1.43,3.46,2.06a16.32,16.32,0,0,1,2.69,1.93c1.94,1.62,4,3.13,6,4.68a2.28,2.28,0,0,0,1.86.47q3.36-.51,6.74-.88c2.52-.27,5.06-.38,7.57-.69,3.84-.47,7.66-1,11.49-1.58,3.65-.52,7.29-1.11,11-1.58a25.14,25.14,0,0,1,5.17-.11,3.82,3.82,0,0,1-.65.6c-3.6,2.06-7.27,4-11.41,4.68-3.19.56-6.41,1-9.59,1.64-1.74.33-3.44.87-5.16,1.31l-6.71,1.76c-.38.1-.74.25-1.3.45.44.42.73.73,1.06,1q2,1.59,3.93,3.16a5.66,5.66,0,0,0,.71.34c.34.2.82.34,1,.65a6.45,6.45,0,0,0,2.82,2.34c.07,0,.11.13.33.41-.49-.23-.78-.35-1.06-.49-3.44-1.85-7-3.56-10.28-5.62a6.3,6.3,0,0,0-4.91-.73c-3.93.73-7.86,1.46-11.81,2s-8.08,1.13-12.08,2c-1.29.28-2.61.46-3.93.62a1.58,1.58,0,0,1-1.11-.28c-1.26-1.1-2.72-.88-4.16-.73a8.39,8.39,0,0,0-1.67.43,1.21,1.21,0,0,1-1.41-.29A8.78,8.78,0,0,1,57,130.77c2.48-1,5-2,7.46-2.89a1.73,1.73,0,0,0,1.27-1.5,66.06,66.06,0,0,1,2.91-9.82c.32-1,.63-1.94,1-3.05A26.39,26.39,0,0,0,67,112.29a45.88,45.88,0,0,1-11.61-6.45A26.09,26.09,0,0,0,50,103c-2-.84-4-1.62-6-2.55a40.31,40.31,0,0,1-3.67-2.16c-.91-.55-1.82-1.11-2.69-1.72-1.38-1-2.72-2-4.09-3a14.56,14.56,0,0,0-1.35-.77Zm41.91,23.34a17.33,17.33,0,0,1-1.12,1.94,20.71,20.71,0,0,1-1.47,1.51,3.93,3.93,0,0,0-.43.67,34.87,34.87,0,0,0-2.23,4.19,18.86,18.86,0,0,1-1.09,1.86c3-.86,5.7-1.76,8.48-2.41s5.56-1.06,8.5-1.61Z"/><path class="cls-1" d="M341.9,74.4l-.91.31C341.38,75.09,341.8,74.9,341.9,74.4Z"/><path class="cls-1" d="M336.27,77a3.76,3.76,0,0,0-.92.55c-.1.09-.11.42-.16.64l.46.26.81-1.24S336.33,76.94,336.27,77Z"/><path class="cls-1" d="M315.26,100.55a7.39,7.39,0,0,1-.48-1.55,16.46,16.46,0,0,0-2.07-5.77,40.85,40.85,0,0,1-2.13-4.45l1-.47c.19-.28.27-.72.59-.79s.38-.19.57-.24.29,0,.44,0c.58-.13,1.15-.29,1.72-.42H315l1.29-.53a.59.59,0,0,0,.1-.27c0-.55.27-.6.56-.55l-.43.57.13.1,1.32-.54a2.16,2.16,0,0,0,.13-.43c.1.09.18.21.27.24h0l.52-.21c.15-.25.37-.21.57-.23l.79-.32a2.26,2.26,0,0,0,.32-.2,15.7,15.7,0,0,1,2.54-1.34c.12-.54.36-.73.62-.26.11.2.21.27.3.27l.24-.09c.09-.07.18-.15.28-.21l-.43-.34v-.2l.82-.25c.18.26.28.53.39.55a.4.4,0,0,0,.13,0l.18-.07a1.52,1.52,0,0,0,.46-.9c.31.43.6.17.9,0,.75-.43,1.51-.83,2.27-1.27.18-.11.37-.5.49-.45.42.18.71-.27,1.07-.35a3,3,0,0,0,.84-.39c.56-.34,1.11-.74,1.68-1.07.14-.08.33,0,.59,0-.13.27-.2.51-.24.5-.51-.16-.83.48-1.25.67-.13.05-.27.18-.38.13-.51-.27-.66.62-1.08.65a1.06,1.06,0,0,0,.78.14c.48-.2.94-.52,1.41-.76s1-.43,1.42-.68c.13-.07.23-.29.35-.43a1.67,1.67,0,0,0-.46-.28c-.11,0-.23.11-.34.18l-.08-.23c.3-.26.59-.55.9-.78a4.33,4.33,0,0,1,1-.62,3.77,3.77,0,0,1,1-.1v.21l-.45.2c.59.89,1.06-.06,1.54.12l0-.22-.86-.51a3.39,3.39,0,0,1,.32-.61s.25.16.3.32c.18.55.43.78.81.51a.64.64,0,0,0,.25-.41,1.6,1.6,0,0,0-.21-.53l-.32.27-.07-.14c.11-.13.2-.31.32-.37a5.82,5.82,0,0,1,.81-.28l-.51-.81.32-.18a3.91,3.91,0,0,0,.26.6c0,.06.17,0,.26,0l-.09-.83c.38-.15.75-.57,1.26-.32l-.32.71c.34.17.55,0,.6-.36a2.19,2.19,0,0,1,.27-.87,2.14,2.14,0,0,1,.7-.64c.42-.24.85-.62,1.35-.15,0-.16,0-.32,0-.53l.26.2.33.18-.12-.38c.83-.73,1.77-1.13,2.35-2.27.13.2.27.46.3.44a6.29,6.29,0,0,0,.61-.63,1.17,1.17,0,0,1,.32-.31,3,3,0,0,1,.54-.32c.11,0,.32.09.34,0,.19-.52.56-.34.82-.56a4,4,0,0,0,1.33-1.51,10.24,10.24,0,0,0-1.68,0c-1.06.12-2.17.5-3.25.7a33.58,33.58,0,0,0-7.47,2.31c-4.69,2.06-9.37,4.2-14.05,6.26-3,1.32-6,2.54-9,3.85-2.09.92-4.18,1.93-6.27,2.88-1.32.6-1.38.58-1.87-.5-.56-1.24-1.06-2.53-1.6-3.78a37.34,37.34,0,0,1-2.59-8,47.09,47.09,0,0,0-1.62-5.64c-.34-1.07-.83-2-1.2-3.09a18.27,18.27,0,0,0-2-4.62,4.74,4.74,0,0,1-.62-4.92,4,4,0,0,0,.18-1.67c0-.26-.3-.4-.54-.69-.36.61-.59,1-.84,1.41-1.06,1.67-1.57,3.45-2.47,5.14-2.88,5.46-4.87,11.06-7.22,16.6-.83,1.95-1.33,3.94-2.12,5.89A117.62,117.62,0,0,0,280,91.18a27.76,27.76,0,0,1-3.66,7.46,3.45,3.45,0,0,1-.93,1c-2.42,1.5-4.84,3-7.29,4.39-2.65,1.47-5.34,2.73-8,4.14-1,.52-1.94,1.18-2.91,1.78a1.73,1.73,0,0,0-1,1.71c2.72-.63,5.46-2,8.17-2.93A90,90,0,0,0,272.7,105l-.51,1c-.94,1.87-2,3.73-2.81,5.62a104.23,104.23,0,0,0-4.7,14.66,13.23,13.23,0,0,0-.35,2.19,1.85,1.85,0,0,0,.71,1.88l3.29-2.48a13.18,13.18,0,0,1,.85-1.94c.89-1.39,2-2.71,2.78-4.13,2.08-3.69,4.08-7.42,6.06-11.14,1.65-3.11,3.23-6.23,4.81-9.36a3,3,0,0,1,1.42-1.48c1.54-.74,3.07-1.57,4.61-2.22,4.69-2,9.39-3.92,14.08-5.85,1.58-.65,1.58-.63,2.1.71,1.46,3.78,2.91,7.56,4.37,11.33.37,1,.77,1.88,1.19,2.8a5.31,5.31,0,0,0,4.74,3.39,4.39,4.39,0,0,0,1.09-3.3A20.24,20.24,0,0,0,315.26,100.55Zm-28.65-7a3.93,3.93,0,0,1,.21-.82,66.36,66.36,0,0,0,5-13.79c1.26-4.66,2.74-9.34,4.14-14a5.65,5.65,0,0,1,1-1.85c.61,2.45,1.17,4.92,1.84,7.34s1.5,4.74,2.16,7.16,1.2,5,1.84,7.72Z"/><path class="cls-1" d="M341.42,73.87l.65-.29C341.86,73.11,341.71,73.17,341.42,73.87Z"/><path class="cls-1" d="M228.79,85.74a1,1,0,0,0-.14-.86Z"/><path class="cls-1" d="M231.7,103.25c.47,0,.43-.3-.18-1Z"/><path class="cls-1" d="M280.23,50a17.82,17.82,0,0,0-7-1.92c-4.18-.41-8.38-.7-12.57-1.11-3.64-.36-7.27-.84-10.91-1.22a28.38,28.38,0,0,0-7.38-.24,44.28,44.28,0,0,1-7.25.06.79.79,0,0,1-.52-.12,4.47,4.47,0,0,1-.46-.9A126.16,126.16,0,0,0,266.07,42v-.3c-.38-.08-.76-.18-1.14-.24-1.36-.21-2.74-.3-4.07-.64-5.71-1.44-11.51-1.36-17.32-1.26-3.2.06-6.4,0-9.6,0-.12,0-.24-.1-.35-.15-.12-.6-.25-1.17-.36-1.74a17.86,17.86,0,0,1-.6-3.47,51,51,0,0,0-1-8.27c-.07-.5-.13-1.1-.73-1.36a3.36,3.36,0,0,0-.51,2.23,101.08,101.08,0,0,0,.42,12.06,2.59,2.59,0,0,1-.24.8,27.52,27.52,0,0,0-2-3.59c-.76-1-1.32-2.28-2.73-2.94a7.89,7.89,0,0,0-.59,1.3c-.18.75-.28,1.53-.4,2.29s-.29,1.77-.42,2.57a1.85,1.85,0,0,1-.42.15l-1.09,0a90.07,90.07,0,0,0-14.39.1c-2.41.23-4.82.53-7.2,1-1.88.34-3.72.92-5.57,1.4,0,0-.07.14-.13.26h.79l-.14.41,1.34.8a1.77,1.77,0,0,0,.47.25c1.77.39,3.43,1.11,5.27,1.39,4.32.65,8.58.09,12.86-.05a2.22,2.22,0,0,0,.27,0,35.28,35.28,0,0,1,8.28-.16c.22.9-.36.9-.86.9-2.29,0-4.57-.06-6.86,0a19.62,19.62,0,0,0-3.55.22c-3.14.6-6.25,1.32-9.37,2-.06,0-.11.12-.17.2,1.18.13,2.36.33,3.54.39,4.24.23,8.5.27,12.72.82,1.36.17,2.72.31,4.08.45a1.13,1.13,0,0,1,1.07,1.19c.11,1.09.23,2.18.34,3.27q.23,2.42.45,4.84l.07-.32a1,1,0,0,1,.17-.88.48.48,0,0,0,.1-.27l-.26,1.15a6.69,6.69,0,0,0,.29.95.9.9,0,0,0,.32.4c.6.37.56.73.41,1.11l-.48-.94a1,1,0,0,0-.47.48c0,.45.08.89.13,1.34a2.87,2.87,0,0,0,.74.9c-.13.08-.3.12-.37.24a2,2,0,0,0-.21.48v.13c.64.59.23,1,.27,1.43a8.85,8.85,0,0,0,.2,1.64,31.54,31.54,0,0,1,.58,4.34c.56.48.69.93.07,1s-.35.65-.26,1.15l.53-.39.22.1,0,1.29c-.36.1-.68.08-.74.22-.19.46.1,1,.82,1.65-.58.18-.4.74-.31,1.26.21,1.3.38,2.6.6,3.91.05.31.43.8.32,1-.34.48,0,1.15,0,1.71a5.9,5.9,0,0,0,.13,1.4c.18,1,.42,2,.59,3,0,.25-.09.47-.18.84l-.13-.17.07.42.17,0c.19.57.41,1.14.55,1.71a8.72,8.72,0,0,1,.33,1.8,6.24,6.24,0,0,1-.23,1.41l.09.57,0,0a5.6,5.6,0,0,1,.57.8c0,.06-.23.22-.41.23l.14.82h0a2.8,2.8,0,0,1,.3.67,11.45,11.45,0,0,1,0,1.3l1.08-.24.09.56a3.44,3.44,0,0,0-.76,0c-.08,0,0,.24-.06.37l.95.36c0,.62.37,1.38-.09,1.94l-.67-.87a.75.75,0,0,0-.14.26l.09.54a1,1,0,0,0,.24.25,3.16,3.16,0,0,1,.87.89,4.15,4.15,0,0,1,.47,1.36c.11.73.39,1.55-.32,2l.59.3c-.14.11-.23.17-.31.25s-.16.18-.31.35l.47.06c.51,1.58.62,3.13,1.69,4.62-.26.07-.61.11-.59.17a12,12,0,0,0,.48,1.22,2.25,2.25,0,0,1,.23.62,6.08,6.08,0,0,1,.17.95c0,.18-.21.39-.14.46.5.56.18,1,.33,1.47a13.74,13.74,0,0,0,.59,1.73l.08-6.11c.87,1.14.15,2.64,1.27,3.87a7.18,7.18,0,0,0,.19-1.07c0-1.51-.06-3,0-4.53.14-3.93.38-7.86.48-11.79.08-3.11.05-6.22,0-9.33,0-2.05-.17-4.11-.3-6.16-.15-2.24-.33-4.47-.52-6.7-.21-2.5-.4-5-.7-7.51s-.75-5-1-7.46-.53-5-.73-7.51a12,12,0,0,1,0-3.26c1.91,0,3.64,0,5.37,0,1.14,0,2.27.21,3.41.31,3.1.28,6.2.52,9.29.84,2.82.29,5.62.72,8.44,1q5.8.59,11.61,1.05a25.66,25.66,0,0,0,4,0,4.73,4.73,0,0,0,4-2.53C281.19,50.75,281.09,50.45,280.23,50Zm-46.9,32.71a4.21,4.21,0,0,1-.12-.67c-.29-2.9-.61-5.8-.87-8.71a66.69,66.69,0,0,1-.42-8.46c.11-2.91-.11-5.84-.18-8.76,0-.82,0-1.63,0-2.45,1.63,9.86,1.34,19.78,1.93,30C233.49,83.11,233.4,82.9,233.34,82.68Z"/></g></g></svg>