<svg xmlns="http://www.w3.org/2000/svg" viewBox="0 0 262.74 104.32"><defs><style>.cls-1{fill:#fff;}</style></defs><title>horror alt 2</title><g id="Layer_2" data-name="Layer 2"><g id="Layer_2-2" data-name="Layer 2"><path class="cls-1" d="M107.87,92.64a1.06,1.06,0,0,1-.85-.54,15.38,15.38,0,0,0-1.65-2.72c-.32-.45-.64-.92-.95-1.4s-.5-.81-.74-1.27q-1-2-2-4L101,81.18c-.43-.9-.87-1.83-1.34-2.72-.35-.68-.73-1.35-1.1-2s-.87-1.55-1.28-2.35c-1-2-2-4-2.85-5.92-1.06-2.27-2.45-5.27-3.81-8.31-.9-2-1.81-4.14-2.8-6.52a5.94,5.94,0,0,1-.4-1.81c-.11-1.34-.15-2.45-.14-3.5s.69-1.37,1.1-1.37a2.26,2.26,0,0,1,.75.15,5.26,5.26,0,0,1,2.69,1.7,49.4,49.4,0,0,1,8.83-11.28,49.12,49.12,0,0,0,4.25-4.42c2-2.48,4.24-5,7.21-8.23l.68-.74c.82-.9,1.67-1.82,2.57-2.69a11.3,11.3,0,0,1,3-2.07l.73-.35.07.81c0,.16,0,.3,0,.42a3.8,3.8,0,0,1,0,.82,10.13,10.13,0,0,1-1.23,4l-.07.15a2.05,2.05,0,0,1-.19.37c-.09.12-.14.2.12.61s.43.74.62,1.11l.2.38a1.89,1.89,0,0,1,.11.26l0,.05a2.81,2.81,0,0,1,1.05,1.84l.51,0,.16.36a.68.68,0,0,1,.1.54c-.08.29,0,.54.29,1l.52.86c.33.54.68,1.1,1,1.67l.29.52c1,1.82,2,3.7,3,5.59.39.76.71,1.56,1,2.34.18.45.37.91.56,1.35a18.11,18.11,0,0,0,.88,1.77c.25.43.51.85.77,1.26s.51.81.75,1.22a1.87,1.87,0,0,1,.2.7c0,.08,0,.16,0,.25l.22,1-1-.38a6.13,6.13,0,0,1-2.5-2.08c-.78-1-1.63-1.89-2.44-2.8l-.33-.37A12.44,12.44,0,0,1,122,41.58l-.6-1.18a41.81,41.81,0,0,1-2-4.3,3.92,3.92,0,0,0-.55-.92,17.52,17.52,0,0,1-1.78-3.12c-.21-.44-.42-.87-.65-1.3l-.33-.62c-.27-.51-.54-1-.83-1.54a1,1,0,0,0-.18-.2l-.08.07-.95.88a55,55,0,0,0-4,4.26c-.66.75-1.34,1.53-2,2.28q-1.86,2-3.74,4l-2.57,2.73-1.81,2c-1.12,1.22-2.29,2.48-3.46,3.69a41.72,41.72,0,0,1-3.13,2.83c-.22.19-.23.26-.17.5.14.53.27,1.07.4,1.6l.18.73c.11.45.22.9.32,1.35.24,1,.49,2.07.79,3.08a26,26,0,0,0,1.26,3.31c.52,1.14,1.08,2.29,1.62,3.41.43.89.86,1.77,1.27,2.66l1,2.08c1.63,3.46,3.31,7,4.62,10.72.67,1.88,1.3,3.81,1.91,5.68.33,1,.65,2,1,3,.11.34.24.68.37,1s.2.54.3.81.14.43.2.65l.08.28.14.49-.57.22Z"/><path class="cls-1" d="M118.58,19.61a7.48,7.48,0,0,1,.08,1.15,9.56,9.56,0,0,1-1.16,3.78c-.09.15-.14.33-.23.48a1,1,0,0,0,.12,1.22c.3.47.54,1,.81,1.45.08.16.11.39.24.47.72.47.81,1.24,1,2l.59,0c0,.07.08.13.07.17a1.76,1.76,0,0,0,.35,1.41c.5.84,1,1.65,1.5,2.51,1.11,2,2.23,4,3.27,6.09.6,1.18,1,2.44,1.57,3.66a18.9,18.9,0,0,0,.9,1.82c.48.84,1,1.65,1.52,2.49a2.89,2.89,0,0,1,.18.79,5.59,5.59,0,0,1-2.28-1.92c-.89-1.1-1.85-2.14-2.8-3.19a11.91,11.91,0,0,1-1.79-2.62,57.48,57.48,0,0,1-2.6-5.42,4.35,4.35,0,0,0-.63-1.06,29.42,29.42,0,0,1-2.38-4.35c-.38-.73-.75-1.47-1.16-2.18a4.23,4.23,0,0,0-.66-.69l-1.4,1.31c-2.2,2-4,4.38-6.08,6.57s-4.21,4.48-6.3,6.72C99.55,44.1,97.83,46,96,47.86A40.75,40.75,0,0,1,93,50.66a.91.91,0,0,0-.35,1.07c.21.77.38,1.55.57,2.32.37,1.49.68,3,1.12,4.46a26.67,26.67,0,0,0,1.29,3.38c.93,2,1.94,4,2.89,6.07,2,4.2,4,8.37,5.58,12.75,1,2.86,1.93,5.77,2.89,8.65.21.62.46,1.22.67,1.83.1.29.18.6.26.89h0a.57.57,0,0,1-.34-.2,31.94,31.94,0,0,0-2.64-4.19c-.25-.4-.5-.81-.71-1.23q-1-2-2-4c-.7-1.43-1.37-2.88-2.1-4.3s-1.63-2.88-2.38-4.35c-1-1.95-1.92-3.93-2.84-5.91-1.28-2.76-2.56-5.52-3.8-8.3q-1.45-3.23-2.79-6.51a5.45,5.45,0,0,1-.36-1.64c-.09-1.15-.15-2.3-.13-3.45,0-.57.17-.82.54-.82a1.77,1.77,0,0,1,.56.12,5.29,5.29,0,0,1,2.9,2,2.62,2.62,0,0,0,.39-.43A48.57,48.57,0,0,1,101,37.65a49,49,0,0,0,4.29-4.47c2.29-2.83,4.71-5.53,7.18-8.2,1.06-1.15,2.1-2.32,3.23-3.4a10.8,10.8,0,0,1,2.88-2m1-1.71-1.46.71a12,12,0,0,0-3.17,2.17c-.91.88-1.76,1.81-2.59,2.71l-.68.73c-3,3.22-5.21,5.76-7.23,8.25a48.51,48.51,0,0,1-4.2,4.37,50,50,0,0,0-8.56,10.78,5.7,5.7,0,0,0-2.39-1.32,2.79,2.79,0,0,0-.93-.18c-.27,0-1.63.09-1.65,1.92,0,1.06,0,2.19.14,3.55a6.51,6.51,0,0,0,.45,2c1,2.39,1.9,4.53,2.8,6.54,1.07,2.4,2.25,5,3.81,8.31.89,1.9,1.84,3.93,2.85,5.94.41.81.86,1.6,1.29,2.37s.75,1.33,1.1,2c.46.89.91,1.82,1.33,2.71l.75,1.56c.73,1.49,1.38,2.79,2,4,.24.48.52.93.76,1.31s.64,1,1,1.42a15,15,0,0,1,1.6,2.62,1.61,1.61,0,0,0,1.36.87h.21l.21-.08.94-.37-.28-1-.07-.26c-.06-.22-.12-.45-.21-.69s-.2-.55-.3-.82-.25-.67-.36-1c-.33-1-.65-2-1-3-.61-1.87-1.25-3.81-1.92-5.71-1.32-3.71-3-7.3-4.65-10.78l-1-2.07c-.42-.9-.86-1.8-1.28-2.67-.54-1.11-1.09-2.26-1.61-3.39a25.35,25.35,0,0,1-1.24-3.24c-.3-1-.54-2-.78-3.06-.1-.45-.21-.9-.32-1.34L94.09,53c-.12-.51-.25-1-.39-1.55a41.85,41.85,0,0,0,3.14-2.85c1.18-1.22,2.35-2.48,3.47-3.7l1.8-1.95,2.56-2.73c1.23-1.31,2.5-2.66,3.74-4,.7-.75,1.38-1.54,2-2.29a54.5,54.5,0,0,1,4-4.22l.55-.51c.2.37.4.75.61,1.15l.33.63c.22.42.42.84.64,1.29a17.92,17.92,0,0,0,1.84,3.22,3.45,3.45,0,0,1,.48.78,42.28,42.28,0,0,0,2,4.36l.6,1.17a13,13,0,0,0,2,2.87l.32.36c.82.91,1.66,1.84,2.44,2.79A6.67,6.67,0,0,0,129,50.1l1.93.77-.44-2c0-.07,0-.14,0-.21a2.38,2.38,0,0,0-.27-.9c-.25-.42-.51-.84-.76-1.24s-.52-.83-.76-1.24a17.6,17.6,0,0,1-.85-1.71c-.19-.44-.38-.9-.56-1.34-.32-.78-.64-1.59-1-2.37-1-1.89-2-3.76-3-5.58l-.3-.54c-.32-.58-.67-1.14-1-1.69l-.52-.86c-.17-.28-.26-.46-.23-.55a1.21,1.21,0,0,0-.14-.95l-.3-.68-.44,0a3.09,3.09,0,0,0-1-1.59,2,2,0,0,0-.11-.24l-.2-.38c-.2-.38-.4-.76-.65-1.15l-.06-.1a3,3,0,0,0,.17-.35l0-.1a10.7,10.7,0,0,0,1.3-4.22,4.29,4.29,0,0,0,0-.94c0-.12,0-.26,0-.4l-.13-1.62Z"/><path class="cls-1" d="M110.13,93.08a16.9,16.9,0,0,1,1.26-4.36l.29-.75a87.41,87.41,0,0,1,5.22-10.74c1.07-2,2.28-4.17,3.32-6.42.65-1.4,1.19-2.88,1.72-4.31l.47-1.25a57,57,0,0,1,4.08-8.65c.75-1.29,1.44-2.66,2.11-4,.37-.73.74-1.47,1.13-2.19.74-1.4,1.49-2.76,2.13-3.89,0,0,1.13-1.58,1.76-1.58h.26l.18.21.17.2,0,.29a61.8,61.8,0,0,1-3.33,11.07,66.3,66.3,0,0,1-3.54,7.41c-.85,1.51-1.69,3.07-2.5,4.58s-1.62,3-2.46,4.52c-.56,1-1.16,2-1.75,2.9s-1.09,1.74-1.6,2.63c-1.48,2.59-2.69,4.79-3.76,7.08-.7,1.51-1.53,3-2.32,4.4-.35.62-.7,1.25-1,1.88l-.47.86-1.57,2.84Z"/><path class="cls-1" d="M133.61,45.51s0,0,0,0a61.62,61.62,0,0,1-3.3,11,66,66,0,0,1-3.51,7.35c-1.7,3-3.27,6.09-5,9.1-1.06,1.88-2.28,3.66-3.35,5.53-1.33,2.33-2.64,4.68-3.78,7.12-1,2.14-2.22,4.17-3.35,6.24l-.71,1.28a20,20,0,0,1,1.52-5,87.37,87.37,0,0,1,5.19-10.67c1.16-2.12,2.32-4.26,3.34-6.45.84-1.82,1.5-3.73,2.2-5.61a56.11,56.11,0,0,1,4-8.56c1.17-2,2.16-4.13,3.25-6.2.69-1.3,1.4-2.6,2.12-3.88a5.19,5.19,0,0,1,1.28-1.29m-6.06,12.82a20.92,20.92,0,0,0-2.68,6.27c1-2,2.46-3.89,2.68-6.27m6.06-13.94h0c-1,0-2.24,1.84-2.25,1.86-.65,1.16-1.4,2.53-2.13,3.91-.39.73-.76,1.48-1.13,2.2-.66,1.31-1.35,2.67-2.1,4A57.6,57.6,0,0,0,121.88,65l-.47,1.26c-.52,1.42-1.07,2.89-1.7,4.27-1,2.23-2.24,4.44-3.3,6.39a87.92,87.92,0,0,0-5.25,10.81l-.29.75a17.3,17.3,0,0,0-1.3,4.5L109,98.51l2.67-4.84.22-.4.49-.88c.34-.62.69-1.24,1-1.86.8-1.43,1.63-2.91,2.34-4.44,1.06-2.28,2.27-4.46,3.74-7,.5-.88,1.05-1.76,1.58-2.61s1.2-1.93,1.77-2.93c.85-1.5,1.67-3,2.47-4.53s1.64-3.06,2.49-4.57a67,67,0,0,0,3.57-7.48,62.45,62.45,0,0,0,3.37-11.19,1.16,1.16,0,0,0-.24-1l-.33-.4Z"/><path class="cls-1" d="M8,55.91c1.21-.21,2,.67,2.66,1.55a1.19,1.19,0,0,1,.26.9c-.3,1.09-.35,2.28-1.16,3.21A2.26,2.26,0,0,1,8,62.49a8.82,8.82,0,0,1-2.19-.19,2.83,2.83,0,0,1-1.52-4.52c.21-.25.4-.51.62-.75A3.36,3.36,0,0,1,8,55.91Z"/><path class="cls-1" d="M20.77,60l-.06-.2A3.2,3.2,0,0,0,20,61.67a2.86,2.86,0,0,1,0,1,7.54,7.54,0,0,1-.66,1.75,37,37,0,0,1-2.48,3.82c-.42.54-.89,1.06-1.28,1.63a.74.74,0,0,0-.18.38c.05.77-.46,1.17-.9,1.7a19.24,19.24,0,0,0-1.82,2.91c-1.2,2.16-2.37,4.33-3.53,6.51-.24.45-.41.95-.63,1.41C7.66,84.5,6.86,86.23,6.21,88a14.66,14.66,0,0,0-.8,2.78,3.15,3.15,0,0,1-.25.82,10,10,0,0,0-.88,5c0,.14,0,.28,0,.42l.54.22-.73.81.6.06-.29.53.79.14c-.09.19-.14.35-.22.49-.23.4-.38.79.12,1.12a2.49,2.49,0,0,1,0,1.11c-.19.18-.38.34-.6.53.31.77-.12,1.16-.7,1.46-.33.17-.67.33-1,.53-.59.37-.64.36-1.17-.11A5.12,5.12,0,0,1,0,100.1a9.61,9.61,0,0,1,.12-1.8c.36-2.47.73-4.94,1.13-7.41a11.56,11.56,0,0,1,.58-2.07A54.6,54.6,0,0,1,4.71,82a19.44,19.44,0,0,0,1.63-4.25,35.42,35.42,0,0,1,2.57-6.38c1.3-2.72,2.57-5.45,3.85-8.18.12-.27.2-.51.56-.57s.39-.4.36-.69c-.11-.87-.09-.91.6-1.36a.79.79,0,0,0,.28-.32c.51-1.11,1-2.22,1.52-3.34.19-.44.33-.9.5-1.39A3.88,3.88,0,0,1,15,53.29a4.25,4.25,0,0,1,2.81-1c.33-.84.62-1.68,1-2.48a5.28,5.28,0,0,1,.85-1.46c.24-.26.13-.85.19-1.4a29.55,29.55,0,0,1-4.59,2c-1.57.41-3,1.31-4.77,1.38.17-.14.27-.24.39-.31a34.4,34.4,0,0,1,6.49-3.16,19.06,19.06,0,0,0,4.26-2.41,2,2,0,0,0,.56-.63c.42-.8.83-1.61,1.2-2.44.1-.21,0-.63.08-.72.71-.52.65-1.34.94-2a41.43,41.43,0,0,1,2-3.8c1-1.8,2.11-3.56,3.07-5.39a19.92,19.92,0,0,1,2.6-3.91,14.15,14.15,0,0,0,2.1-3.93c.05-.13.14-.31.09-.41-.28-.54.08-.91.3-1.34q1.86-3.54,3.7-7.1A10.55,10.55,0,0,1,41,9.44c.78-.63,1.48-1.36,2.21-2a23.72,23.72,0,0,1,4.52-3.12,26.79,26.79,0,0,0,3.37-2.52A7.48,7.48,0,0,1,55.16,0a1.41,1.41,0,0,1,1.68,1.11,5.16,5.16,0,0,1-.12,3.46A14.4,14.4,0,0,1,54,9c-1,1.14-2,2.27-3.09,3.36a11.47,11.47,0,0,0-1.82,2.8c-.44.84-.94,1.64-1.43,2.45s-.81,1.33-1.24,2a16,16,0,0,1-1.66,2.3,16.54,16.54,0,0,0-2.66,4.2,13.86,13.86,0,0,1-2.44,3.62,4.52,4.52,0,0,0-.72,1,20.31,20.31,0,0,1-2.7,3.45,9.33,9.33,0,0,0-1.36,1.91,4.08,4.08,0,0,0,.5-.2q5.43-3,10.85-6a26.94,26.94,0,0,0,3.24-2c.69-.52,1.56-.75,2.11-1.54a5.42,5.42,0,0,1,1.61-1.1c1.45-.92,2.91-1.83,4.36-2.76.29-.18.52-.45.8-.65.72-.51,1.47-1,2.18-1.5.34-.25.59-.6.91-.89a11.74,11.74,0,0,1,1.12-.91c4.18-2.9,8.7-5.25,13.05-7.87,1.23-.74,2.37-1.62,3.56-2.42.59-.4,1.18-.82,1.8-1.18,2.13-1.24,4.27-2.47,6.43-3.67.85-.47,1.75-.83,2.64-1.25a.69.69,0,0,1-.07.94c-.33.43-.71.82-1,1.25-1,1.36-2.08,2.74-3.13,4.11a8.82,8.82,0,0,0-1.38,2.26,5.66,5.66,0,0,1-2,2.19,19.55,19.55,0,0,1-4.52,2.47c-.89.4-1.75.86-2.61,1.33a81.17,81.17,0,0,0-9.3,6.21,26.38,26.38,0,0,1-2.46,1.58c-1.56.91-3.11,1.83-4.6,2.87a22.1,22.1,0,0,1-4.5,2.58l.62-.66-.11-.14-1.56,1c-.48.31-1,.63-1.44.93a1.28,1.28,0,0,1-.87.14,3.8,3.8,0,0,0-1.64.27c-.94.33-1.84.76-2.76,1.15a2.63,2.63,0,0,1-.65.23,25.13,25.13,0,0,0-3.52,1.08,6.49,6.49,0,0,0-.94.41,2.33,2.33,0,0,1-.61.3,9.51,9.51,0,0,0-3.05,1.25c-1,.49-2,.93-3,1.49a6.29,6.29,0,0,0-2.64,2.71c-1.3,2.69-2.76,5.29-4.15,7.94-.59,1.12-1.13,2.26-1.72,3.37a5.45,5.45,0,0,1-1.71,2.21c-.13.08-.17.28-.28.47a2.54,2.54,0,0,0,.49.36A10.28,10.28,0,0,1,27.45,56,23.92,23.92,0,0,1,31.14,59a4.09,4.09,0,0,0,1.49,1.07,6.2,6.2,0,0,1,1.66,1.46c.45.48.79,1.06,1.22,1.56a6.41,6.41,0,0,0,1.16,1.12c1.54,1.05,3.15,2,4.61,3.16s3,2,4.58,3.05c.1-.08.19-.12.22-.18q.92-2,1.82-4c.4-.88.79-1.77,1.16-2.66a40.36,40.36,0,0,0,1.81-5.74,58.93,58.93,0,0,1,2.25-6.59A19.71,19.71,0,0,1,54.78,48c.76-1.24,1.4-2.56,2.17-4-.6-.1-1.11-.17-1.62-.27a10.26,10.26,0,0,0-4.86,0c-.11,0-.27.1-.33.06-.58-.44-1.17,0-1.74,0-1,.09-2,.28-3,.43-.11,0-.24.1-.33.06-.27-.1-.42-.47-.82-.35a2.34,2.34,0,0,1-.82.08,25.19,25.19,0,0,1,5.86-1.68c3.06-.52,6.12-1,9.2-1.36a27.91,27.91,0,0,0,3.86-.85,49.93,49.93,0,0,1,9.38-1.76l7.81-.65,4.28-.35a.7.7,0,0,1,.52.19c-.71.47-1.43.91-2.11,1.41-1.33,1-2.61,2-4,2.9A9.07,9.07,0,0,1,76.19,43a18.46,18.46,0,0,1-6.63,1.36c-1,0-1.94-.21-2.91-.28a3.49,3.49,0,0,0-1.17.1,9.36,9.36,0,0,1-2.62.42c-.54,0-1.08.09-1.63.12-.22,0-.45-.05-.67-.06H59.26c0,.45-.05.79-.07,1.13A11.85,11.85,0,0,1,58,50.62a38.15,38.15,0,0,0-2.85,7.19,15.5,15.5,0,0,1-.7,1.66A9.51,9.51,0,0,0,57,58.52l5.1-2.07a2.33,2.33,0,0,1,.59,0,12.37,12.37,0,0,1,0,1.3,18,18,0,0,1-1.26,4.55A7.87,7.87,0,0,1,59.92,65a6.88,6.88,0,0,1-1,.73,3.75,3.75,0,0,1-.42.29,1.33,1.33,0,0,1-.5.19c-.72,0-1.44.06-2.16.07a1.8,1.8,0,0,1-.51,0,1.91,1.91,0,0,0-1.92.23,4.32,4.32,0,0,1-1.13.51,3,3,0,0,0-1.45,1.49,32.89,32.89,0,0,0-1.88,4.25c.77.46,1.48.92,2.23,1.33a10.54,10.54,0,0,1,1.73,1.25c1.25,1,2.56,2,3.85,3a1.48,1.48,0,0,0,1.2.3q2.17-.33,4.36-.57c1.63-.17,3.27-.25,4.89-.44,2.48-.3,5-.67,7.42-1s4.71-.71,7.08-1A16.24,16.24,0,0,1,85,75.52a2.47,2.47,0,0,1-.42.39,23,23,0,0,1-7.37,3c-2.06.36-4.14.67-6.2,1.06-1.12.21-2.22.56-3.33.85L63.38,82c-.24.06-.48.16-.84.29.28.27.47.47.68.65q1.26,1,2.54,2a3.66,3.66,0,0,0,.46.22c.22.13.53.22.63.42a4.16,4.16,0,0,0,1.82,1.51s.07.08.21.26c-.32-.15-.51-.22-.68-.32-2.22-1.19-4.5-2.3-6.64-3.63a4.07,4.07,0,0,0-3.17-.47c-2.54.47-5.08.94-7.63,1.32s-5.22.73-7.8,1.3c-.83.18-1.69.3-2.54.4a1,1,0,0,1-.72-.18A3.19,3.19,0,0,0,37,85.31a5.42,5.42,0,0,0-1.08.28A.78.78,0,0,1,35,85.4a5.67,5.67,0,0,1,1.78-.92c1.6-.63,3.21-1.26,4.82-1.87a1.12,1.12,0,0,0,.82-1,42.68,42.68,0,0,1,1.88-6.35l.64-2a17.05,17.05,0,0,0-1.65-.79,29.64,29.64,0,0,1-7.5-4.17,16.86,16.86,0,0,0-3.51-1.8c-1.3-.54-2.61-1-3.88-1.65A26,26,0,0,1,26,63.53c-.59-.36-1.18-.72-1.74-1.11-.89-.63-1.75-1.29-2.64-1.92a9.41,9.41,0,0,0-.87-.5ZM47.85,75.08a11.19,11.19,0,0,1-.72,1.26,13.38,13.38,0,0,1-1,1,2.54,2.54,0,0,0-.28.43,22.53,22.53,0,0,0-1.44,2.71,12.18,12.18,0,0,1-.7,1.2c1.92-.55,3.68-1.13,5.48-1.56s3.59-.69,5.49-1Z"/><path class="cls-1" d="M147.81,55.39a.65.65,0,0,0-.09-.56Z"/><path class="cls-1" d="M149.69,66.7c.3,0,.28-.2-.11-.67Z"/><path class="cls-1" d="M181,32.29a11.51,11.51,0,0,0-4.5-1.24c-2.7-.27-5.42-.45-8.12-.72-2.35-.23-4.7-.54-7-.79a18.33,18.33,0,0,0-4.77-.16,28.61,28.61,0,0,1-4.69,0,.51.51,0,0,1-.34-.08,2.89,2.89,0,0,1-.3-.58,81.5,81.5,0,0,0,20.6-1.6V27c-.25-.05-.49-.12-.74-.16-.88-.14-1.77-.19-2.63-.41a42.09,42.09,0,0,0-11.19-.81c-2.07,0-4.13,0-6.2,0-.08,0-.16-.07-.23-.1-.08-.39-.16-.76-.23-1.13a11.54,11.54,0,0,1-.39-2.24,33,33,0,0,0-.67-5.34c0-.32-.08-.71-.47-.88a2.17,2.17,0,0,0-.33,1.44,65.3,65.3,0,0,0,.27,7.79,1.68,1.68,0,0,1-.16.51,17.78,17.78,0,0,0-1.27-2.32c-.49-.65-.85-1.47-1.77-1.9a5.1,5.1,0,0,0-.38.84c-.12.49-.18,1-.26,1.48L145,25.42a1.2,1.2,0,0,1-.27.09l-.71,0a58.18,58.18,0,0,0-9.3.07c-1.56.15-3.11.34-4.65.62-1.22.22-2.4.59-3.6.91,0,0,0,.09-.08.17h.51l-.09.26.87.52a1.15,1.15,0,0,0,.31.16c1.14.25,2.21.72,3.4.9,2.79.42,5.54.06,8.31,0l.17,0a22.79,22.79,0,0,1,5.35-.1c.14.58-.23.58-.56.58-1.48,0-3,0-4.43,0a12.68,12.68,0,0,0-2.29.14c-2,.39-4,.85-6.06,1.29,0,0-.07.08-.11.13.77.09,1.52.21,2.29.25,2.74.15,5.49.18,8.22.53.88.11,1.76.2,2.64.29a.73.73,0,0,1,.69.77c.07.7.15,1.41.22,2.11q.15,1.56.29,3.13l0-.2a.66.66,0,0,1,.11-.57.31.31,0,0,0,.06-.17l-.17.75a4.32,4.32,0,0,0,.19.61.58.58,0,0,0,.21.26c.39.24.36.47.27.72l-.31-.61a.66.66,0,0,0-.3.31c0,.29.05.58.08.87a1.86,1.86,0,0,0,.48.58c-.09.05-.19.08-.24.15a1.27,1.27,0,0,0-.14.31v.08c.41.38.15.63.18.93a5.72,5.72,0,0,0,.13,1.06,20.38,20.38,0,0,1,.38,2.8c.36.31.44.6,0,.66s-.22.42-.17.74l.34-.25.14.06V48c-.23.06-.44.05-.48.14-.12.3.07.65.53,1.07-.38.12-.26.48-.2.82.14.84.25,1.68.39,2.52,0,.2.28.52.21.62-.22.31,0,.75,0,1.1a3.81,3.81,0,0,0,.09.9c.12.64.27,1.28.38,1.92,0,.16-.06.3-.12.54l-.09-.11,0,.27h.11c.12.37.26.74.36,1.11a5.63,5.63,0,0,1,.21,1.16,4,4,0,0,1-.15.91l.06.37h0a3.62,3.62,0,0,1,.37.52s-.15.14-.27.15l.09.53h0a1.81,1.81,0,0,1,.19.43,7.4,7.4,0,0,1,0,.84l.7-.16L150,64a2.22,2.22,0,0,0-.49,0c-.05,0,0,.16,0,.24l.61.23c0,.4.24.89-.06,1.26l-.43-.56a.48.48,0,0,0-.09.17l.06.35a.64.64,0,0,0,.15.16,2,2,0,0,1,.56.58,2.68,2.68,0,0,1,.3.88c.07.47.25,1-.2,1.27l.38.2-.2.16-.2.23.3,0a9.59,9.59,0,0,0,1.09,3c-.17,0-.39.07-.38.11a7.77,7.77,0,0,0,.31.79,1.46,1.46,0,0,1,.15.4,3.93,3.93,0,0,1,.11.61c0,.11-.13.25-.09.3.33.36.12.64.21,1a8.87,8.87,0,0,0,.38,1.12l.05-3.94c.56.74.09,1.71.82,2.5a4.64,4.64,0,0,0,.13-.69c0-1,0-2,0-2.92.09-2.54.25-5.08.31-7.62.05-2,0-4,0-6,0-1.33-.11-2.65-.2-4s-.21-2.89-.34-4.33c-.14-1.62-.26-3.24-.45-4.85s-.48-3.21-.68-4.82-.34-3.23-.47-4.85a7.77,7.77,0,0,1,0-2.1c1.23,0,2.35,0,3.47,0,.74,0,1.47.14,2.2.2,2,.18,4,.33,6,.54,1.82.19,3.63.47,5.45.65q3.75.38,7.5.68a16.58,16.58,0,0,0,2.57,0,3.06,3.06,0,0,0,2.58-1.64C181.66,32.79,181.59,32.59,181,32.29Zm-30.3,21.13a2.72,2.72,0,0,1-.08-.43c-.19-1.88-.39-3.75-.56-5.63a43.09,43.09,0,0,1-.27-5.47c.07-1.88-.07-3.77-.11-5.66,0-.53,0-1.06,0-1.58C150.77,41,150.59,47.43,151,54,150.84,53.69,150.78,53.56,150.74,53.42Z"/><path class="cls-1" d="M262.74,30.14a24,24,0,0,0-3.56,2.2l.09.18,3-1.42.12.17a3.82,3.82,0,0,1-.4.33,34.66,34.66,0,0,1-6.53,2.91c-.79.3-1.55.72-2.36,1a30.84,30.84,0,0,0-3.64,1.44c-.06,0-.14,0-.29-.11l1-.64a2.63,2.63,0,0,0-2,.77l.44.11c-.3.56-.76.59-1.29.5a3.26,3.26,0,0,0-1.57.31c-.23.09-.35.44-.52.68l.14.17-2.49.85c-.17.06-.43.09-.5.22-.2.38-.47.22-.77.23a2.28,2.28,0,0,0-.89.4c-.17.09-.31.26-.48.33a9.21,9.21,0,0,1-1.16.42c-.64.18-1.3.29-1.94.48-.25.08-.47.44-.68.42-.68-.06-1,.66-1.65.63a2.68,2.68,0,0,0-1.66.64,4.74,4.74,0,0,1-1.3.47,14.86,14.86,0,0,0-1.56.47c-1.08.47-2.13,1-3.2,1.51a10,10,0,0,0-1.09.44c-.37.23-.65.6-1,.84a16.55,16.55,0,0,1-1.72,1.06c-.66.34-1.35.63-2,.92L210,53.86c-.69.29-1.37.59-2.07.85-.49.18-.56.4-.31.88.81,1.59,1.62,3.19,2.33,4.82,1.18,2.7,2.28,5.43,3.42,8.15.14.34.32.68.43,1s.19.78.28,1.17l-.17.07c-.29-.5-.57-1-.88-1.51a1.92,1.92,0,0,0-.36-.34c-.06.17-.19.36-.15.52a5.06,5.06,0,0,0,.36,1.06c.27.59-.15,1.75-.76,1.76a2.13,2.13,0,0,1-1.43-.59,13.16,13.16,0,0,1-1.79-2.37,89.6,89.6,0,0,1-5.33-11.11c-.2-.48-.45-.94-.68-1.4a2.29,2.29,0,0,0-.28-.31l-9.46,3.84c-.77.31-1.56.57-2.33.87-2.65,1-5.28,2.1-8,3.06-2.12.76-4.3,1.38-6.45,2.07a3.9,3.9,0,0,0-.65.36,2.44,2.44,0,0,1,.64.29c.25.24.48.5-.15.58-.22,0-.4.33-.61.47s-.46.27-.83.47l1-1.21c-.58-.33-.58-.33-1.4.27.28.39.1.66-.27.87l-1.49.79a2.63,2.63,0,0,0-.4.28l-.94.79-.25-.92-.74,1.5h-.09c.15-.81.28-1.63.45-2.44.27-1.22.25-1.26-1-1.26-.53,0-1.06-.06-1.78-.11a3.77,3.77,0,0,0,.77-.46,4.46,4.46,0,0,1,2.44-1.29c.31-.07.57-.75.72-1.19A23.26,23.26,0,0,1,176.55,56c2.53-2.8,5-5.66,7.5-8.49a13.44,13.44,0,0,1,.94-1,4.06,4.06,0,0,1,2-2.07c.43-.16.8-.34.71-.93a.72.72,0,0,1,.19-.48q1.2-1.46,2.44-2.89a3.21,3.21,0,0,1,.59-.43l1.14-.81-.56-.19c.95-1.14,1.88-2.25,2.78-3.39a.86.86,0,0,0,.1-.67c-.82-2.87-1.7-5.73-2.5-8.61-.31-1.13-.45-2.31-.66-3.47l.17-.07.36.58c.62,1,1.25,2,1.86,3a18,18,0,0,0,1.18,2c1,1.27,1.34,2.83,2,4.27.08.18.17.36.26.57l1.72-1.06.13.11a2.78,2.78,0,0,1-.16.56c-.28.54-.62,1.06-.87,1.61a1,1,0,0,0,.05.75c1.24,2.44,2.56,4.84,3.75,7.3,1,2,1.83,4.09,2.72,6.14.34.78.61,1.59.89,2.39.12.33.28.45.65.31q6.75-2.55,13.51-5.08c1.2-.45,2.43-.83,3.63-1.28.79-.3,1.55-.66,2.33-1,.59-.24,1.18-.48,1.79-.68.15,0,.35.1.53.1a.58.58,0,0,0,.39-.13c.11-.11.15-.4.25-.41.56-.07,1-.55,1.64-.38a.93.93,0,0,0,1.15-.64l-.58.22-.08-.16,2.35-1.08L233,41l3.64-1.38a.83.83,0,0,0,.3-.28c.06-.08.05-.23.12-.27a9.57,9.57,0,0,1,1.46-.68c.78-.24.84-.35.24-.94m.2-.15a.8.8,0,0,0,1.16.17c1-.52,2-.86,3.06-1.29s2.12-.9,3.19-1.33a4,4,0,0,1,1.06-.24,2.14,2.14,0,0,1,1.35-.65c.31,0,1,0,1.11-.58,0,0,.13,0,.2-.07l1-.3,1.5-.4c.1,0,.22,0,.29-.05a9.9,9.9,0,0,1,1-.71c.66-.33,1.35-.6,2-.87s1.61-.56,2.41-.85c.54-.2,1.06-.46,1.6-.65a9.44,9.44,0,0,0,2.53-.87M181.36,59.91l.06.11,2-.74c3.22-1.21,6.45-2.4,9.66-3.64a54.69,54.69,0,0,1,7.68-2.86c.32-.07.45-.24.33-.59-.25-.73-.44-1.47-.7-2.19q-1.52-4.21-3.09-8.4c-.23-.6-.54-1.18-.85-1.85-.29.32-.47.55-.68.73a1.92,1.92,0,0,0-.76,1.19c-.14.85-.52,1.09-1.37,1.13l-.36,0c.39.51.36.56,0,.95a7.78,7.78,0,0,0-1.91,2.31,5.48,5.48,0,0,1-1.06,1.18s.06.2,0,.3c-.7.95-1.42,1.88-2.13,2.82s-1.27,1.62-1.84,2.47c-.39.57-.6,1.26-1,1.83-.88,1.27-1.88,2.46-2.69,3.79A10.05,10.05,0,0,1,181.36,59.91Zm-6.72.84c-.39-.06-.63-.17-.81-.1a1.06,1.06,0,0,0-.43.49.36.36,0,0,0,.08.34.4.4,0,0,0,.37.06A10.78,10.78,0,0,0,174.64,60.76Z"/></g></g></svg>