<svg xmlns="http://www.w3.org/2000/svg" viewBox="0 0 208.77 105.85"><defs><style>.cls-1{fill:#fff;}</style></defs><title>horror alt 1</title><g id="Layer_2" data-name="Layer 2"><g id="Layer_2-2" data-name="Layer 2"><path class="cls-1" d="M47.67,10.15C48.89,9,50.12,7.84,51.32,6.66s2.17-2.26,3.3-3.33A13.9,13.9,0,0,1,58.23.78C58.61.6,59,.32,59.3.87L60.54,0a.94.94,0,0,1-.18,1,4.16,4.16,0,0,0-.7,2.31,4.63,4.63,0,0,1-1.49,3.13c-1.78,1.77-3.6,3.5-5.41,5.25a15.85,15.85,0,0,0-2.37,2.73,8.08,8.08,0,0,1-1.93,1.92,14.1,14.1,0,0,0-3.28,3.06c-.7,1-1.53,1.95-2.27,2.94-1.1,1.47-2.14,3-3.26,4.42-1.65,2.13-2.92,4.51-4.44,6.72-.7,1-1.43,2-2.15,3l-.76,1.11a1.87,1.87,0,0,0,.44,0c4-1.6,8-3.16,12-4.83s8-3.58,12-5.28c4.25-1.79,8.43-3.72,12.75-5.35s8.7-3.22,13.11-4.66c3.43-1.12,6.89-2.11,10.31-3.25q4.16-1.39,8.24-3c2.39-.94,4.69-2.11,7.09-3a26.1,26.1,0,0,1,6.35-1.54c.76-.08,1.5-.24,2.25-.36a1.43,1.43,0,0,1-.26,1.91,4.1,4.1,0,0,1-2.43,1.16c-.87.15-1.75.26-2.63.39a20.81,20.81,0,0,0-6.38,2.33,51.8,51.8,0,0,1-9.94,3.7,46.63,46.63,0,0,0-4.39,1.64c-.55.21-1.11.42-1.65.65-1.06.45-2.09,1-3.16,1.37q-2.69,1-5.43,1.93A126.68,126.68,0,0,0,64.15,28c-3,1.52-6.11,3-9.18,4.43q-6.25,3-12.53,5.85c-.78.36-1.61.59-2.39.94-.94.43-1.83,1-2.78,1.37-1.47.63-3,1.18-4.45,1.76l-3.31,1.27A2.65,2.65,0,0,0,28.07,45c-1.48,2.82-3,5.62-4.53,8.43-.53,1-1.09,2-1.61,3-.34.65-.28.76.24,1.31,1.3,1.37,2.54,2.79,3.86,4.14,1,1,2,2,3,2.85A44.69,44.69,0,0,1,33.89,69c.8.9,1.81,1.61,2.68,2.45a60.34,60.34,0,0,1,4.81,4.95,4.22,4.22,0,0,0,.51.49.83.83,0,0,0,.23.1c.73-.84,5.23-12.32,5.54-14.13-.31-.31-.66-.12-1-.05-1.07.22-2.14.46-3.21.65a10.58,10.58,0,0,1-1.32.07A6,6,0,0,1,45.54,61c.93-.28,1.89-.49,2.84-.7a1.3,1.3,0,0,0,1-.69c.89-1.67,1.83-3.31,2.67-5a15.61,15.61,0,0,0,.72-2.27,44.7,44.7,0,0,1,2.8-6.51c.33-.66.6-1.34,1-2.12-1.06-.32-2.11.31-3.16-.29a8.11,8.11,0,0,1,1.47-.67c.61-.22,1.24-.39,1.85-.61a2,2,0,0,0,1.19-1c.6-1.05,1.28-2.06,2-3.06a13.18,13.18,0,0,1,1-1.14c.86,1,.41,2,.23,2.93.13,0,.24,0,.28,0A7.63,7.63,0,0,1,65,38.61c1.77-.34,3.53-.69,5.31-1s3.61-.61,5.43-.87c2.16-.32,4.33-.61,6.5-.88a8.45,8.45,0,0,1,2.12,0c1.09.14,1.41.83.86,1.77a4.67,4.67,0,0,1-1.91,1.78c-2.06,1.1-4.31,1.15-6.54,1.42s-4.51.56-6.76.87-4.38.65-6.57,1c-.93.14-1.86.34-2.79.47a.66.66,0,0,0-.58.46c-.19.5-.34,1-.54,1.5-.88,2.1-1.79,4.18-2.65,6.28-.76,1.83-1.46,3.68-2.22,5.51-.3.74-.69,1.44-1,2.16-.07.15-.13.31-.25.6a7.29,7.29,0,0,0,.74,0L59.57,59c.46-.05.92-.08,1.54-.13-.18.28-.24.46-.36.53a6.52,6.52,0,0,1-1.32.71c-2.19.71-4.38,1.42-6.6,2a1.76,1.76,0,0,0-1.3,1.15c-1.15,3-2.33,5.94-3.5,8.91a3.09,3.09,0,0,0-.22.77,24,24,0,0,1-2,6.22c-.09.22-.18.44-.26.66a.57.57,0,0,0,0,.19c1,.84,2,1.67,3,2.53a1.18,1.18,0,0,0,1.09.17c1.34-.25,2.66-.56,4-.75,3.86-.57,7.73-1.07,11.59-1.65,1.2-.18,2.37-.52,3.55-.77L76.39,78a.51.51,0,0,1,.38.06,4.51,4.51,0,0,1-.65.36,2.36,2.36,0,0,0-1.37,1.31,1.24,1.24,0,0,1-.74.71c-.3.11-.6.25-.91.35-3.66,1.15-7.31,2.31-11,3.45q-2,.63-4.09,1.15a2.27,2.27,0,0,1-1.13,0c-1.34-.38-2.59.06-4.09.18a3.69,3.69,0,0,0,.47.72c.71.58,1.42,1.16,2.15,1.7,1.19.88,2.4,1.73,3.59,2.6a2.67,2.67,0,0,1,.62.62,23.75,23.75,0,0,0,4.26,4.37c1.89,1.65,3.84,3.22,5.76,4.84.63.53,1.23,1.11,1.88,1.69H71c-.54,0-.71.2-.56.7l0,.08,1.29,3c-.27-.15-.43-.23-.57-.33-3.46-2.53-6.8-5.21-10.07-8-1-.88-2.14-1.68-3.19-2.55-.61-.51-1.17-1.08-1.77-1.6Q54,91.53,51.85,89.71c-.82-.68-1.66-1.33-2.47-2a2.31,2.31,0,0,0-2.23-.5c-2.09.53-4.19,1-6.28,1.55a3.72,3.72,0,0,0-1.79,1.37,1.22,1.22,0,0,1-.57.42V89.31c-2.7.3-5.32.54-8,.93.35-.29.68-.59,1.05-.85s1-.65,1.48-1a1.44,1.44,0,0,0,.33-.3A20.83,20.83,0,0,1,37,85a4.5,4.5,0,0,1,2.29-.9,1,1,0,0,0,.89-.73c.22-.67.42-1.36.67-2a.92.92,0,0,0-.26-1.11c-1.06-1-2.14-2-3.15-3.12-1.4-1.48-2.77-3-4.14-4.5a32.42,32.42,0,0,0-4.4-4.36c-1.3-1-2.5-2.08-3.77-3.09-.92-.74-1.87-1.44-2.82-2.14s-1.77-1.27-2.75-2l-.45.87c-.38.73-.71,1.5-1.16,2.19a36.74,36.74,0,0,0-2.73,5.27c-.42.94-1,1.83-1.44,2.74-.14.26-.32.5-.43.77-.84,2-1.72,4-2.49,6.06-1,2.57-1.86,5.17-2.74,7.77C7.73,88,7.37,89.32,7,90.64a3.39,3.39,0,0,0,0,2c.29-.15.55-.26.78-.41A28.81,28.81,0,0,0,16,84.11c1.25-1.87,2.65-3.63,4-5.42a12.57,12.57,0,0,1,.94-1l.15.1c-.19.44-.38.89-.57,1.33L19,82.79c-.47,1.15-.9,2.31-1.43,3.43-.45,1-1,1.87-1.53,2.79-.87,1.54-1.73,3.08-2.61,4.61-.53.92-1.07,1.84-1.65,2.73-.71,1.08-1.49,2.13-2.22,3.2a11,11,0,0,1-.78,1.27,27,27,0,0,1-2.44,2.43c-.31.26-.86.23-1.47.37l.41-.87c-.13,0-.22-.09-.28-.06a8.82,8.82,0,0,0-2.45.89c-.35.24-.68.06-1-.22C.17,102.23,0,100.68,0,99.06a31.57,31.57,0,0,1,1.67-8.77c.91-2.91,1.85-5.8,3-8.62a2.05,2.05,0,0,0,.06-.32l-.5.24c-.21-.21.31-.66-.25-.77,0,0-.08-.33,0-.49a7,7,0,0,1,.29-.93c.93-2.49,1.83-5,2.8-7.47a34.39,34.39,0,0,1,3.43-6.5,16.49,16.49,0,0,0,.94-1.6c1-2,2-4,3.05-6,.13-.26.25-.53.4-.84a8.12,8.12,0,0,0-.6-.65,11.8,11.8,0,0,1-2.3-2.9c-1-1.66-.76-1.51-2.31-.68l-5.09,2.7a1.7,1.7,0,0,1,.65-1.08c1-1,2.11-1.9,3.16-2.85.41-.37.81-.76,1.25-1.17-.68-.76-1.12-1.5-.29-2.35a8.08,8.08,0,0,1,.9.55,1.23,1.23,0,0,0,1.69-.08A66.31,66.31,0,0,1,22.12,42.6a2.22,2.22,0,0,0,1-1,58,58,0,0,1,5.53-8.12,29.31,29.31,0,0,0,1.86-2.8c.8-1.28,1.59-2.56,2.34-3.86a48.25,48.25,0,0,1,6.7-8.79,14.75,14.75,0,0,0,2.2-3.1,15.35,15.35,0,0,1,1.91-2.65c1.27-1.48,2.53-3,3.79-4.45C48.24,6.93,49,6,49.89,5a4.62,4.62,0,0,1-1,2.59,14.62,14.62,0,0,0-1.05,1.64c-.16.27-.39.55-.17.89-.38,0-.57.16-.67.5ZM18,50.73a9.27,9.27,0,0,0,1.51-2.6C18.34,48.65,18,49.19,18,50.73Z"/><path class="cls-1" d="M183.13,59a1.7,1.7,0,0,0,.35.11c2.12-.16,4.24-.34,6.37-.47q5.09-.32,10.18-.58c1.92-.1,3.84-.18,5.76-.2a20.35,20.35,0,0,1,2.47.22,2.21,2.21,0,0,1,.51.21c-.42.59-1,.61-1.58.78a6.14,6.14,0,0,0-1,.31A5.65,5.65,0,0,1,204,60c-3.56.26-7.12.56-10.68.81-2.24.16-4.48.22-6.72.39s-4.53.43-6.79.66c-.71.07-1.41.13-2.11.21-.34,0-.68.13-1.06.21a2.15,2.15,0,0,0,.08.49c.69,1.47,1.36,3,2.09,4.4.89,1.77,1.8,3.53,2.78,5.25a54.83,54.83,0,0,1,3,6.23c.16.38.36.75.53,1.12.47,1,1,2,1.38,3.06a17.81,17.81,0,0,1,1.2,4,14.64,14.64,0,0,0,.57,1.86c.14.48.26,1,.37,1.45.17.75.31,1.5.48,2.24.09.4.1.39-.46.77-.55-.79-1.15-1.55-1.65-2.37a64.18,64.18,0,0,1-5.36-10.68c-.57-1.52-1.33-3-2-4.43-1.24-2.55-2.51-5.09-3.76-7.64-.7-1.43-1.37-2.89-2-4.33-.07-.16-.17-.3-.3-.52-.52.19-1,.36-1.5.57l-6.71,3-.16.08a3.75,3.75,0,0,0-2.22,2.61c-.67,2.35-1.62,4.63-2.45,6.93l-2.3,6.33a1.77,1.77,0,0,1-.48.75c.05-.72.14-1.44.14-2.15,0-1.26-.08-2.53,0-3.79a13,13,0,0,1,.43-2.34c.4-1.7.85-3.38,1.26-5.08a10.26,10.26,0,0,0,.14-1,2.94,2.94,0,0,0-.6.19,5.57,5.57,0,0,1-2.28.93c-.21,0-.4.25-.61.34a1.9,1.9,0,0,1-.64.18c-.63,0-.62,0-.75.7a2.76,2.76,0,0,1-.23.53c-.74-.62-.8-.86-.31-1.5a4.75,4.75,0,0,1,.93-.94c1.59-1.18,3.18-2.36,4.8-3.49a1.66,1.66,0,0,0,.81-1.18c.11-.75.28-1.5.44-2.37-2.47,0-4.82.33-7.32.5.41-.58,1-.57,1.41-.8s1-.45,1.45-.66a7,7,0,0,1,3.07-.77c.52-.05,1.05-.08,1.65-.12.33-1.45.71-2.84.94-4.26.34-2,.54-4.1.86-6.13.36-2.25.78-4.48,1.19-6.72.13-.7.26-1.39.45-2.08a2.44,2.44,0,0,1,.49-.92c.63-.72,1.13-.78,1.77-.09a6.2,6.2,0,0,1,2,3.91,4.4,4.4,0,0,0,.56,1.67,60,60,0,0,1,2.82,7.17c.64,1.81,1.44,3.56,2.17,5.34a3.22,3.22,0,0,0,.28.43c.34-.1.68-.18,1-.3,5.4-2.09,10.76-4.29,16-6.86,1.93-1,3.94-1.75,5.91-2.64.94-.43,1.84-.94,2.79-1.34,1.85-.78,3.71-1.53,5.59-2.24a5.05,5.05,0,0,1,1.73-.27c.52,0,.62.33.31.77a4.59,4.59,0,0,1-.88,1.17,15.09,15.09,0,0,1-4.13,2.55,3.07,3.07,0,0,0-1,.48,24.63,24.63,0,0,1-6.56,3.46c-1.1.43-2.27.68-3.35,1.15-2.86,1.21-5.68,2.49-8.52,3.75C183.62,58.68,183.43,58.82,183.13,59Zm-17.38.73a21.54,21.54,0,0,0,6-.2c-.1-.24-.2-.48-.29-.72-.77-2-1.57-4-2.28-6-.34-1-.51-2-.77-3a1.14,1.14,0,0,0-.59-.91C167.67,52.72,166.37,56.16,165.75,59.73Zm.39,3-.07-.18c-.92,0-.92,0-1.12.63Z"/><path class="cls-1" d="M166.45,28a81.5,81.5,0,0,1-20.6,1.6,2.88,2.88,0,0,0,.3.58.51.51,0,0,0,.34.08,28.6,28.6,0,0,0,4.69,0,18.34,18.34,0,0,1,4.77.16c2.35.25,4.69.55,7,.79,2.7.27,5.42.45,8.12.72a11.51,11.51,0,0,1,4.5,1.24c.55.3.62.5.31,1.06a3.06,3.06,0,0,1-2.58,1.64,16.58,16.58,0,0,1-2.57,0q-3.75-.3-7.5-.68c-1.82-.19-3.63-.46-5.45-.65-2-.21-4-.36-6-.54-.73-.07-1.47-.18-2.2-.2-1.12,0-2.24,0-3.47,0a7.77,7.77,0,0,0,0,2.1c.13,1.62.27,3.24.47,4.85s.49,3.21.68,4.82.31,3.23.45,4.85c.12,1.44.24,2.89.34,4.33s.17,2.65.2,4c0,2,.05,4,0,6-.07,2.54-.22,5.08-.31,7.62,0,1,0,1.95,0,2.93a4.63,4.63,0,0,1-.13.69c-.73-.79-.26-1.77-.82-2.5l-.06,4.29a1.14,1.14,0,0,1-.76-.81c-.34-1.28-.77-2.55-1-3.86-.81-4.57-1.54-9.15-2.3-13.72-.42-2.51-.84-5-1.24-7.52a42.36,42.36,0,0,1-.53-7.15c0-1.56-.21-3.12-.34-4.67-.12-1.38-.25-2.76-.39-4.14-.07-.7-.15-1.41-.22-2.11a.73.73,0,0,0-.69-.77c-.88-.09-1.76-.18-2.64-.29-2.73-.35-5.48-.38-8.22-.53-.76,0-1.52-.17-2.29-.25,0-.05.07-.12.11-.13,2-.44,4-.91,6.06-1.29a12.67,12.67,0,0,1,2.29-.14c1.48,0,3,0,4.43,0,.33,0,.7,0,.56-.58a22.8,22.8,0,0,0-5.35.1l-.17,0c-2.77.09-5.52.45-8.31,0-1.19-.18-2.26-.65-3.4-.9a1.15,1.15,0,0,1-.31-.16l-.87-.52.09-.26h-.51c0-.08,0-.16.08-.17,1.2-.31,2.38-.69,3.6-.91,1.54-.28,3.09-.47,4.65-.62a58.19,58.19,0,0,1,9.3-.07l.71,0a1.2,1.2,0,0,0,.27-.09l.27-1.66c.08-.5.14-1,.26-1.48a5.1,5.1,0,0,1,.38-.84c.91.42,1.27,1.25,1.77,1.9a17.77,17.77,0,0,1,1.27,2.32,1.68,1.68,0,0,0,.16-.51,65.31,65.31,0,0,1-.27-7.79,2.17,2.17,0,0,1,.33-1.44c.39.17.43.56.47.88a33,33,0,0,1,.67,5.34,11.53,11.53,0,0,0,.39,2.24c.07.37.15.74.23,1.13.07,0,.15.1.23.1,2.07,0,4.14,0,6.2,0a42.09,42.09,0,0,1,11.19.81c.86.22,1.75.27,2.63.41.25,0,.49.1.74.16Zm-22.17,7.48c0,.53,0,1.06,0,1.58,0,1.89.18,3.78.11,5.66a43.1,43.1,0,0,0,.27,5.47c.17,1.88.37,3.75.56,5.63a2.7,2.7,0,0,0,.08.43c0,.14.1.27.22.61C145.15,48.26,145.34,41.85,144.28,35.48Z"/><path class="cls-1" d="M102.31,93a1.17,1.17,0,0,1-.21-.25,32,32,0,0,0-2.64-4.19c-.25-.4-.5-.81-.71-1.23q-1-2-2-4c-.7-1.43-1.37-2.88-2.1-4.3S93,76.16,92.3,74.69c-1-1.95-1.92-3.93-2.84-5.91-1.28-2.76-2.56-5.52-3.8-8.3Q84.21,57.25,82.87,54a5.45,5.45,0,0,1-.36-1.64c-.09-1.15-.15-2.3-.13-3.45,0-.81.33-1,1.1-.7a5.29,5.29,0,0,1,2.9,2,2.62,2.62,0,0,0,.39-.43,48.57,48.57,0,0,1,8.8-11.28A49,49,0,0,0,99.85,34c2.29-2.83,4.71-5.53,7.18-8.2,1.06-1.15,2.1-2.32,3.23-3.4a10.8,10.8,0,0,1,2.88-2,7.46,7.46,0,0,1,.08,1.15,9.56,9.56,0,0,1-1.16,3.78c-.09.15-.14.33-.23.48a1,1,0,0,0,.12,1.22c.3.47.54,1,.81,1.45.08.16.11.39.24.47.72.47.81,1.24,1,2l.59,0c0,.07.08.13.07.17a1.76,1.76,0,0,0,.35,1.41c.5.84,1,1.65,1.5,2.51,1.11,2,2.23,4,3.27,6.09.6,1.18,1,2.44,1.57,3.66a18.93,18.93,0,0,0,.9,1.82c.48.84,1,1.65,1.52,2.49a2.9,2.9,0,0,1,.18.79A5.59,5.59,0,0,1,121.67,48c-.89-1.1-1.85-2.14-2.8-3.19a11.91,11.91,0,0,1-1.79-2.62,57.49,57.49,0,0,1-2.6-5.42,4.35,4.35,0,0,0-.63-1.06,29.43,29.43,0,0,1-2.38-4.35c-.38-.73-.75-1.47-1.16-2.18a4.23,4.23,0,0,0-.66-.69l-1.4,1.31c-2.2,2-4,4.38-6.08,6.57s-4.21,4.48-6.3,6.72c-1.76,1.88-3.47,3.79-5.26,5.63a40.77,40.77,0,0,1-3.08,2.8.91.91,0,0,0-.35,1.07c.21.77.38,1.55.57,2.32.37,1.49.68,3,1.12,4.46a26.69,26.69,0,0,0,1.29,3.38c.93,2,1.94,4,2.89,6.07,2,4.2,4,8.37,5.58,12.75,1,2.86,1.93,5.77,2.89,8.65.21.62.46,1.22.67,1.83.1.29.18.6.26.89Z"/><path class="cls-1" d="M105.24,94a20,20,0,0,1,1.52-5A87.35,87.35,0,0,1,112,78.33c1.16-2.12,2.32-4.26,3.34-6.45.84-1.82,1.5-3.73,2.2-5.61a56.11,56.11,0,0,1,4-8.56c1.17-2,2.16-4.13,3.25-6.2.69-1.3,1.4-2.6,2.12-3.88.2-.35.46-.67.69-1l.19.05c0,.3,0,.6-.09.89a48.65,48.65,0,0,1-2.79,9.78,66,66,0,0,1-3.51,7.35c-1.7,3-3.27,6.09-5,9.1-1.06,1.88-2.28,3.66-3.35,5.53-1.33,2.33-2.64,4.68-3.78,7.12-1,2.14-2.22,4.17-3.35,6.24Zm16.87-34.81a20.91,20.91,0,0,0-2.68,6.27C120.46,63.4,121.9,61.54,122.12,59.16Z"/><path class="cls-1" d="M8.3,58.12c1.21-.21,2,.67,2.66,1.55a1.19,1.19,0,0,1,.26.9c-.3,1.09-.35,2.28-1.16,3.21a2.26,2.26,0,0,1-1.74.92,8.82,8.82,0,0,1-2.19-.19A2.83,2.83,0,0,1,4.62,60c.21-.25.4-.51.62-.75A3.36,3.36,0,0,1,8.3,58.12Z"/></g></g></svg>