<svg xmlns="http://www.w3.org/2000/svg" viewBox="0 0 408.78 82.63"><defs><style>.cls-1{fill:#fff;}</style></defs><title>hyperlight</title><g id="Layer_2" data-name="Layer 2"><g id="Layer_1-2" data-name="Layer 1"><rect class="cls-1" x="253.73" y="1.33" width="56.68" height="8.69"/><rect class="cls-1" x="277.72" y="23.68" width="8.69" height="53.93"/><polygon class="cls-1" points="50.07 0 8.86 41.21 8.93 41.29 8.86 41.36 50.07 82.58 56.22 76.43 21.08 41.29 56.22 6.15 50.07 0"/><rect class="cls-1" y="0.09" width="8.69" height="17.86"/><rect class="cls-1" y="64.76" width="8.69" height="17.86"/><rect class="cls-1" x="354.76" y="37.04" width="25.26" height="8.69"/><polygon class="cls-1" points="408.78 41.21 367.57 0 367.55 0.02 367.54 0 326.32 41.21 332.47 47.36 367.55 12.28 396.56 41.29 361.42 76.43 367.57 82.58 408.78 41.36 408.71 41.29 408.78 41.21"/><rect class="cls-1" x="100.36" y="37.04" width="21.65" height="8.69"/><polygon class="cls-1" points="116.34 0 75.13 41.21 75.2 41.29 75.13 41.36 116.34 82.58 122.49 76.43 87.35 41.29 122.49 6.15 116.34 0"/><path class="cls-1" d="M196.81,0l-.14.14L196.53,0,155.31,41.21l.08.08-.08.07,41.21,41.21.14-.14.14.14L238,41.36l-.08-.07.08-.08Zm29,41.29L196.67,70.42,167.53,41.29l29.13-29.13Z"/></g></g></svg>