<svg xmlns="http://www.w3.org/2000/svg" viewBox="0 0 565 124.99"><defs><style>.cls-1,.cls-2{fill:none;stroke-miterlimit:10;}.cls-1{stroke:#fff;}.cls-2{stroke:#ed1c24;stroke-width:0.5px;}</style></defs><title>hyperlight-guides</title><g id="Layer_2" data-name="Layer 2"><g id="Layer_1-2" data-name="Layer 1"><rect class="cls-1" x="336.74" y="22.54" width="56.68" height="8.69"/><rect class="cls-1" x="360.73" y="44.89" width="8.69" height="53.93"/><polygon class="cls-1" points="133.08 21.21 91.87 62.42 91.94 62.5 91.87 62.57 133.08 103.78 139.23 97.64 104.09 62.5 139.23 27.36 133.08 21.21"/><rect class="cls-1" x="83.01" y="21.3" width="8.69" height="17.86"/><rect class="cls-1" x="83.01" y="85.97" width="8.69" height="17.86"/><rect class="cls-1" x="437.77" y="58.25" width="25.26" height="8.69"/><polygon class="cls-1" points="491.8 62.42 450.58 21.21 450.56 21.23 450.55 21.21 409.33 62.42 415.48 68.57 450.56 33.49 479.57 62.5 444.44 97.64 450.58 103.78 491.8 62.57 491.72 62.5 491.8 62.42"/><rect class="cls-1" x="183.37" y="58.25" width="21.65" height="8.69"/><polygon class="cls-1" points="199.35 21.21 158.14 62.42 158.22 62.5 158.14 62.57 199.35 103.78 205.5 97.64 170.36 62.5 205.5 27.36 199.35 21.21"/><path class="cls-1" d="M279.82,21.21l-.14.14-.14-.14L238.32,62.42l.08.08-.08.07,41.21,41.21.14-.14.14.14L321,62.57,321,62.5l.08-.08Zm29,41.29L279.68,91.63,250.55,62.5l29.13-29.13Z"/><line class="cls-2" y1="62.5" x2="565" y2="62.5"/><line class="cls-2" y1="97.82" x2="565" y2="97.82"/><line class="cls-2" y1="26.88" x2="565" y2="26.88"/><line class="cls-2" x1="133.08" x2="133.08" y2="124.99"/><line class="cls-2" x1="91.71" x2="91.71" y2="124.99"/><line class="cls-2" x1="199.5" x2="199.5" y2="124.99"/><line class="cls-2" x1="279.82" x2="279.82" y2="124.99"/><line class="cls-2" x1="365.08" x2="365.08" y2="124.99"/><line class="cls-2" x1="450.56" x2="450.56" y2="124.99"/></g></g></svg>