<svg xmlns="http://www.w3.org/2000/svg" viewBox="0 0 430.28 241.36"><defs><style>.cls-1,.cls-2{fill:none;stroke-miterlimit:10;}.cls-1{stroke:#fff;}.cls-2{stroke:#ed1c24;stroke-width:0.5px;}</style></defs><title>signature-guides</title><g id="Layer_2" data-name="Layer 2"><g id="Layer_1-2" data-name="Layer 1"><path class="cls-1" d="M107.69,155.77c3.06-.75,5.86-1.53,8.71-2.1,11.89-2.39,23.76-4.86,35.7-7,7.67-1.37,15.45-1.09,23.19-.4a27.2,27.2,0,0,1,4.82,1.09c-7.68-.51-15,1.7-22.48,2.74-9.67,1.35-19.31,3-28.89,5-8.14,1.64-16.18,3.82-24.24,5.84a3.47,3.47,0,0,0-1.69,1.34C95.63,172,88.55,181.88,81.29,191.6c-6.68,8.94-13.54,17.74-20.32,26.6-1.06,1.38-2.6,1.57-4.16,1.75a4.71,4.71,0,0,1,.15-4.36c8.3-17.13,18.56-33.07,29.29-48.73.33-.49.65-1,1.09-1.67-2.35.28-4.5.49-6.65.79a4.68,4.68,0,0,1-5.28-3.33,3.67,3.67,0,0,1,.25-2,20.84,20.84,0,0,1,5.58-7.91c5-4.52,9.92-9.08,15.24-13.16,5.53-4.23,11.57-7.79,17.21-11.89a25.16,25.16,0,0,0,5-5.4c6.88-9.19,13.75-18.4,20.45-27.73,3.21-4.46,6-9.21,9-13.82l.43.15a52.87,52.87,0,0,1-1.93,5.67,137.93,137.93,0,0,1-13.11,21.64c-3.08,4.31-6.22,8.57-9.23,13,2.51-1.59,5.56-2.34,7.37-5,3.86-5.57,8.84-10,14.16-14.25l-7,10.61c18.72-9.92,37.22-20.22,56.57-28.86l.46.65a22,22,0,0,1-3.5,3.22Q181.55,94,170.5,100.16c-12.23,6.82-24.55,13.48-36.72,20.42-1.8,1-3.07,3.12-4.36,4.89-7.09,9.72-14.11,19.48-21.15,29.24A11.75,11.75,0,0,0,107.69,155.77Zm-.13-19c-9.2,6-18,12.36-25.47,20.33A26.21,26.21,0,0,0,79.73,160a1.62,1.62,0,0,0-.2,1.43,1.73,1.73,0,0,0,1.41.37c2.73-.37,5.46-.8,8.18-1.23a3.57,3.57,0,0,0,2.62-1.64c2.49-3.67,5.11-7.26,7.7-10.86Q103.49,142.39,107.57,136.76ZM96.37,158.7c1.84-.47,3.22-.74,4.54-1.18a3.28,3.28,0,0,0,1.51-1.11q9.09-12.37,18.11-24.78c1.23-1.7,2.42-3.42,3.63-5.14l-.32-.28c-2.64,1.89-5.9,2.86-7.94,5.63-4,5.4-8,10.77-12,16.19C101.46,151.42,99.07,154.89,96.37,158.7Zm1.26,4.46-.3-.42c-2.07.72-4.38.53-5.89,2.91-6.19,9.73-12.58,19.33-18.84,29-1.63,2.52-3.06,5.16-4.59,7.74l.44.29Z"/><path class="cls-1" d="M335.2,140.7l4.25-2c-3.27,1.68-4.72,4.53-5.31,8.2,1-.38,2-.72,2.9-1.12,15.36-6.53,31-12.35,46.91-17.35,4.07-1.28,8.26-2.19,12.4-3.26a5.72,5.72,0,0,1,1.13-.14c2.54-.13,3.09.3,3.54,2.56-.61.77-1.06,1.43-1.6,2a3.57,3.57,0,0,1-1.31.9c-5.35,1.87-10.66,3.87-16.07,5.53q-23.24,7.11-45.77,16.19c-.6.24-1.21.46-1.8.74-.89.43-2.32.75-2.51,1.41a8.63,8.63,0,0,0,0,4.29,11.77,11.77,0,0,0,4.79,6.56c3.14,2.3,6.32,4.55,9.61,6.64a4.37,4.37,0,0,1,2.33,3.72c-1.77,1.27-3.58.94-5.52.38-7.21-2.11-13.93-5.33-20.63-8.65a35.07,35.07,0,0,0-12.61-3.45,5.33,5.33,0,0,0-4.33,1.28c-2.76,2.44-5.59,4.81-8.54,7a7,7,0,0,1-3.45.89c-.78.07-1-2.6-.2-3.39s1.35-1.22,1.93-1.73c-.6-.75-1.4-1.35-1.64-2.13-.37-1.24-.15-2.53,1.35-3,3-1,6-1.85,9-2.82a7.47,7.47,0,0,0,2.42-1.12c7-5.69,13.87-11.46,20.82-17.16a18.16,18.16,0,0,1,3.16-2C332.83,138.45,333.44,138.6,335.2,140.7Zm-7,14.64-12.55,4.59L333,167.54C329.51,164.29,328.17,160.2,328.22,155.34Zm-4.39-4.13.21.25c1.31-.58,2.62-1.19,3.95-1.73,1.17-.47,1.38-1.38,1.39-2.7Z"/><path class="cls-1" d="M263,124.5,258.7,128c3.52-.71,6.92-1.51,10.36-2a11.28,11.28,0,0,1,7.13.76,5.73,5.73,0,0,1,2.91,7.14c-2.15,6.88-6.92,11.87-12.22,16.23A115.51,115.51,0,0,1,235,168.21c-3.42,1.34-7,2.22-10.76,1.12a4.6,4.6,0,0,1-3.33-4.19,12.77,12.77,0,0,1,2-7.6,129.51,129.51,0,0,1,8.14-11.67c4.1-5.17,9.57-8.72,15.2-12,3.49-2.06,6.78-4.44,10.22-6.59a38.43,38.43,0,0,1,4.33-2.24A11.11,11.11,0,0,1,263,124.5Zm-28.62,31.93a20,20,0,0,0,2.9-.43q11.44-3.41,22.84-6.93a10.55,10.55,0,0,0,3.38-1.52A47,47,0,0,0,275,135.07c1.66-2.72.37-4.84-2.82-4.82a35.63,35.63,0,0,0-11.72,2.28c-4.89,1.72-9.8,3.45-13.94,6.69-2.77,2.17-5.43,4.49-8,6.88s-5,4.86-7.37,7.34c-1.12,1.15-.73,2.29.83,2.64C232.72,156.26,233.53,156.32,234.34,156.43Zm-6.92,1.37c-.7,1-1.32,1.71-1.83,2.52a10.6,10.6,0,0,0-.79,1.77c-.85,2.13,0,3.6,2.19,3.31a35.22,35.22,0,0,0,8-1.89c4.15-1.59,8.14-3.58,12.47-5.53-.48-.27-.54-.32-.58-.31l-.61.15c-4.28,1.23-8.45,3.11-13,2.78C231.05,160.44,228.67,160.51,227.42,157.8Z"/><path class="cls-1" d="M270.2,171.82H268c-1.66-2.54-.24-4.57,1.4-6.21,3.93-4,8-7.78,12.14-11.52,5.83-5.27,11.77-10.4,17.66-15.61.39-.35.73-.76,1.32-1.39-2.77.27-5.21.64-7.65.69a8.25,8.25,0,0,1-4.34-.81c-2.3-1.45-1.76-4.37.16-5.89,3.11-2.46,6.79-3.53,10.55-4.35a12.38,12.38,0,0,1,3.54-.32c2.75.21,5.33.81,5.54,4.37,5.25-1,10.37-1.88,15.44-3,2.79-.61,5.49-1.62,8.24-2.4,2-.57,4.06-1.15,6.12-1.56a4.11,4.11,0,0,1,2.53.23c.81.42,1.91,1.31,1.91,2a2.32,2.32,0,0,1-1.72,2.59c-4.27.9-8.5,2-12.77,2.85-6.66,1.37-13.34,2.64-20,4a2.52,2.52,0,0,0-1.46.89c-3.24,4.63-7.59,8.16-11.76,11.87-7.49,6.66-15.06,13.24-22.57,19.86a14,14,0,0,0-2,2.14C270,170.53,270.2,171.09,270.2,171.82Zm34.1-40,0-.5c-3.47-1-6.48.58-9.59,1.61l.07.39Z"/><path class="cls-1" d="M178.2,154c2.91-.78,5.8-1.62,8.72-2.31,1.73-.41,3.51-.62,5.28-.87s3.23.22,3.88,2.2a3.21,3.21,0,0,1-2.83,1.13,18.45,18.45,0,0,0-5.61.72c-6.57,1.9-13.09,4-19.65,5.95a10.43,10.43,0,0,1-2.78,0,2.74,2.74,0,0,1,1.6-2.62,39.51,39.51,0,0,0,4.55-3.12c8.52-6.45,17.87-11.45,27.48-16,8-3.8,16-7.57,23.33-12.54.45-.3.85-.66,1.29-1a5.55,5.55,0,0,0,1.54-1.48,247.83,247.83,0,0,0-47,8.08l-.18-.67c2.26-.75,4.5-1.61,6.79-2.24,10.68-2.91,21.58-4.71,32.5-6.44,2.68-.42,5.33-1,8-1.46a8.36,8.36,0,0,1,2.57-.23,2.17,2.17,0,0,1,1.54,1.08,2,2,0,0,1-.59,1.76c-3.14,2.45-6.29,4.88-9.56,7.16-7.74,5.41-16.19,9.55-24.57,13.83-4.86,2.49-9.64,5.14-14.44,7.73-.66.36-1.28.78-1.92,1.17Z"/><path class="cls-1" d="M215,163c-.4-.2-.69-.47-.93-.44-3.67.58-7.37,1.07-11,1.83-9.34,2-18.64,4.06-28,6.07-6.21,1.34-12.42,2.64-18.72,3.74,2.56-1,5.12-2,7.67-3a191.5,191.5,0,0,1,29.26-9.13c6-1.32,12.13-2.17,18.22-3.1a5.1,5.1,0,0,1,3,.72C216.47,160.78,216.47,161.49,215,163Z"/><path class="cls-2" d="M364.12,184.14c-91.5-27.5-178-45-364,57"/><path class="cls-2" d="M411.12,135.14c-91.5-27.5-225-39.07-411,62.93"/><path class="cls-2" d="M404.62,147.16c-91.5-27.5-218.5-51.09-404.5,50.91"/><line class="cls-2" x1="244.62" y1="198.07" x2="383.52" y2="60.14"/><line class="cls-2" x1="262.12" y1="202.02" x2="430.12" y2="59.14"/><line class="cls-2" x1="200.62" y1="198.07" x2="367.12" y2="39.14"/><line class="cls-2" x1="63.62" y1="226.64" x2="223.62" y2="0.14"/><line class="cls-2" x1="141.12" y1="205.64" x2="290.12" y2="17.14"/></g></g></svg>