<svg xmlns="http://www.w3.org/2000/svg" viewBox="0 0 412.58 112.63"><defs><style>.cls-1{fill:#fff;}</style></defs><title>tech alt 2</title><g id="Layer_2" data-name="Layer 2"><g id="Layer_2-2" data-name="Layer 2"><line class="cls-1" x1="72.55" y1="12.71" x2="1.59" y2="105.16"/><rect class="cls-1" x="-21.21" y="56.94" width="116.55" height="4" transform="translate(-32.25 52.45) rotate(-52.49)"/><line class="cls-1" x1="116.08" y1="3.04" x2="37.76" y2="105.55"/><rect class="cls-1" x="12.41" y="49.29" width="129.01" height="10" transform="translate(-12.92 82.46) rotate(-52.62)"/><polygon class="cls-1" points="96.15 87.45 0.68 67.27 134.74 28.93 135.84 32.78 17.26 66.69 96.98 83.53 96.15 87.45"/><polygon class="cls-1" points="121.33 55.16 119.32 51.7 128.41 46.4 128.79 46.34 185.72 37.73 159.87 52.99 157.84 49.55 165.93 44.77 129.77 50.24 121.33 55.16"/><polygon class="cls-1" points="105.35 80.53 128.67 66.77 130.7 70.21 125.69 73.17 154.93 68.41 155.57 72.36 105.35 80.53"/><line class="cls-1" x1="103.15" y1="97.15" x2="173.25" y2="81.55"/><rect class="cls-1" x="102.29" y="87.35" width="71.82" height="4" transform="translate(-16.11 32.16) rotate(-12.55)"/><line class="cls-1" x1="132.95" y1="47.58" x2="96.56" y2="111.64"/><rect class="cls-1" x="77.91" y="77.61" width="73.67" height="4" transform="translate(-11.16 140.03) rotate(-60.39)"/><line class="cls-1" x1="317.88" y1="38.61" x2="255.52" y2="38.81"/><rect class="cls-1" x="255.52" y="36.71" width="62.36" height="4" transform="translate(-0.11 0.84) rotate(-0.17)"/><line class="cls-1" x1="275.76" y1="34.83" x2="300.55" y2="100.1"/><rect class="cls-1" x="285.16" y="32.55" width="6" height="69.82" transform="translate(-5.18 106.7) rotate(-20.8)"/><line class="cls-1" x1="286.25" y1="33.42" x2="302.36" y2="78.23"/><rect class="cls-1" x="292.31" y="32.01" width="4" height="47.62" transform="translate(-1.53 102.85) rotate(-19.77)"/><line class="cls-1" x1="263.45" y1="46.44" x2="305.45" y2="45.99"/><rect class="cls-1" x="263.45" y="44.22" width="42" height="4" transform="translate(-0.48 3.06) rotate(-0.62)"/><line class="cls-1" x1="322.03" y1="9.38" x2="364.74" y2="69.84"/><rect class="cls-1" x="341.38" y="2.6" width="4" height="74.03" transform="translate(40.07 205.4) rotate(-35.24)"/><line class="cls-1" x1="310.98" y1="56.74" x2="412.51" y2="53.05"/><rect class="cls-1" x="310.95" y="52.9" width="101.59" height="4" transform="matrix(1, -0.04, 0.04, 1, -1.75, 13.1)"/><line class="cls-1" x1="316.03" y1="100.58" x2="335.45" y2="28.6"/><rect class="cls-1" x="288.47" y="61.59" width="74.55" height="6" transform="translate(178.55 362.27) rotate(-74.91)"/><line class="cls-1" x1="323.37" y1="102.24" x2="342.78" y2="30.27"/><rect class="cls-1" x="295.8" y="64.26" width="74.55" height="4" transform="translate(182.4 370.6) rotate(-74.91)"/><path class="cls-1" d="M220.24,107.68,182.82,64.19l39.11-45.91L257.24,64.8ZM190.72,64.17l29.52,34.32,29.28-33.93L221.66,27.85Z"/><path class="cls-1" d="M204.93,106.34,189.13,28.9,222,22l30.83,12.1ZM193.85,32l13.07,64.1L246.74,36l-25.11-9.85Z"/></g></g></svg>