<svg xmlns="http://www.w3.org/2000/svg" viewBox="0 0 491.48 108.45"><defs><style>.cls-1{fill:#fff;}</style></defs><title>tech alt 1</title><g id="Layer_2" data-name="Layer 2"><g id="Layer_2-2" data-name="Layer 2"><line class="cls-1" x1="72.55" y1="8.03" x2="1.59" y2="100.48"/><polygon class="cls-1" points="7.6 95.94 0 99.27 68.26 10.34 74.14 9.25 7.6 95.94"/><line class="cls-1" x1="97.46" x2="19.13" y2="102.52"/><polygon class="cls-1" points="23.11 105.55 8.31 108.45 85.96 6.81 101.43 3.04 23.11 105.55"/><polygon class="cls-1" points="96.15 82.77 0.68 62.59 141.21 21.26 135.84 28.1 17.26 62.01 101.43 82.77 96.15 82.77"/><polyline class="cls-1" points="200.27 25.88 153.54 32.94 144.77 38.05"/><polyline class="cls-1" points="182.28 36.17 190.38 29.4 154.21 34.86 145.78 39.78 152.86 31.02 152.86 31.02 153.24 30.96 210.17 22.36"/><polyline class="cls-1" points="173.54 43.98 150.14 57.79 179.38 53.03 180.02 56.98 129.8 65.15"/><line class="cls-1" x1="127.59" y1="81.78" x2="197.69" y2="66.17"/><polygon class="cls-1" points="128.03 83.73 130.16 78.82 197.26 64.22 185.77 70.87 128.03 83.73"/><line class="cls-1" x1="157.39" y1="32.21" x2="121" y2="96.26"/><polygon class="cls-1" points="130.42 83.73 119.26 95.27 155.66 31.22 159.13 33.19 130.42 83.73"/><line class="cls-1" x1="388.78" y1="24.07" x2="302.89" y2="24.26"/><polyline class="cls-1" points="391.37 27.28 307.11 26.31 302.89 22.26"/><line class="cls-1" x1="330.78" y1="18.01" x2="364.92" y2="85.56"/><polyline class="cls-1" points="363.15 86.48 322.37 18.01 332.12 18.01"/><line class="cls-1" x1="339.86" y1="18.01" x2="362.05" y2="63.69"/><polygon class="cls-1" points="365.88 75.69 336.69 18.01 341.65 18.01 363.84 62.8 365.88 75.69"/><line class="cls-1" x1="313.82" y1="31.9" x2="371.66" y2="31.45"/><polygon class="cls-1" points="318.37 33.88 313.8 29.9 371.64 29.45 371.68 33.45 318.37 33.88"/><line class="cls-1" x1="413.84" y1="8.29" x2="450.49" y2="60.17"/><polygon class="cls-1" points="448.86 61.32 412.21 9.45 419.97 13.5 452.13 59.02 448.86 61.32"/><line class="cls-1" x1="404.36" y1="48.93" x2="491.48" y2="45.76"/><polyline class="cls-1" points="402.12 55.66 404.29 46.93 491.41 53.77"/><line class="cls-1" x1="408.7" y1="86.54" x2="425.36" y2="24.79"/><rect class="cls-1" x="385.05" y="53.66" width="63.97" height="4" transform="translate(254.73 443.83) rotate(-74.91)"/><line class="cls-1" x1="417.62" y1="79.8" x2="434.28" y2="18.04"/><polygon class="cls-1" points="419.55 80.32 415.69 79.28 432.76 15.99 435.78 20.15 419.55 80.32"/><path class="cls-1" d="M254.26,98.47l-36.1-42,37.75-44.31L290,57.08Zm-30.84-42,30.84,35.85,30.57-35.42L255.73,18.57Z"/><path class="cls-1" d="M254.26,98.47,222.91,25.73l33-14.56,30.51,15.24ZM228.12,27.8l26.18,62.5,26.91-62L255.77,15.59Z"/></g></g></svg>