<svg xmlns="http://www.w3.org/2000/svg" viewBox="0 0 563.39 169.49"><defs><style>.cls-1,.cls-2{fill:none;stroke-miterlimit:10;}.cls-1{stroke:#fff;}.cls-2{stroke:#ed1c24;stroke-width:0.5px;}</style></defs><title>tech-guides</title><g id="Layer_2" data-name="Layer 2"><g id="Layer_2-2" data-name="Layer 2"><line class="cls-1" x1="153.43" y1="33.27" x2="93.44" y2="111.43"/><polygon class="cls-1" points="104.93 102.97 91.65 107.25 150.29 30.85 156.58 35.68 104.93 102.97"/><line class="cls-1" x1="176.14" y1="30.77" x2="109.92" y2="117.44"/><polygon class="cls-1" points="119.73 115.48 100.91 118.36 170.89 26.76 181.39 34.78 119.73 115.48"/><polygon class="cls-1" points="173.82 104 79.25 84.02 201.4 49.09 203.58 56.71 112.14 82.86 170.57 95.21 173.82 104"/><polyline class="cls-1" points="211.89 61.52 269.53 42.23 235.79 67.17 240.69 62.77 245.3 58.49 214.45 69.83 214.45 69.83"/><line class="cls-1" x1="240.93" y1="74.33" x2="208.02" y2="82.99"/><polygon class="cls-1" points="209.03 86.82 207.01 79.15 233.9 72.87 235.91 80.54 209.03 86.82"/><line class="cls-1" x1="195.98" y1="99.91" x2="249.34" y2="91.99"/><polygon class="cls-1" points="196.56 103.83 195.4 95.98 246.2 87.16 248.87 95.76 196.56 103.83"/><line class="cls-1" x1="221.18" y1="58" x2="190.41" y2="112.15"/><polygon class="cls-1" points="196.92 108.72 186.96 110.19 215.26 60.39 224.62 59.96 196.92 108.72"/><line class="cls-1" x1="413.07" y1="55.23" x2="340.46" y2="55.4"/><rect class="cls-1" x="340.46" y="51.35" width="72.61" height="7.93" transform="matrix(1, 0, 0, 1, -0.13, 0.86)"/><line class="cls-1" x1="367.76" y1="47.92" x2="396.62" y2="103.1"/><polygon class="cls-1" points="394.33 107.27 364.25 49.76 371.27 46.08 402.77 106.31 394.33 107.27"/><line class="cls-1" x1="379.97" y1="46.73" x2="398.73" y2="84.61"/><polygon class="cls-1" points="393.9 84.24 376.42 48.49 383.53 44.97 402.84 84.41 393.9 84.24"/><line class="cls-1" x1="357.91" y1="65.86" x2="406.81" y2="65.48"/><rect class="cls-1" x="357.91" y="61.71" width="48.9" height="7.93" transform="translate(-0.5 2.99) rotate(-0.45)"/><line class="cls-1" x1="429.6" y1="41.03" x2="460.58" y2="84.89"/><polygon class="cls-1" points="456.32 85.38 420.45 34.95 432.84 38.74 465.78 85.55 456.32 85.38"/><polyline class="cls-1" points="415.84 84.64 416.49 77.16 514.65 61.52"/><line class="cls-1" x1="423.16" y1="116.29" x2="439.09" y2="55.15"/><polygon class="cls-1" points="427.49 117.5 418.83 115.08 434.76 53.94 443.41 56.36 427.49 117.5"/><line class="cls-1" x1="438.05" y1="101.7" x2="452.13" y2="49.49"/><polygon class="cls-1" points="442.15 101.86 433.25 102.87 448.41 46.23 456.83 49.09 442.15 101.86"/><path class="cls-1" d="M303.76,117.5l-34.2-39,34.2-41.1,32.43,41.66ZM280,78.52l23.77,26.83L326,78.8,303.76,50.1Z"/><path class="cls-1" d="M303.76,117.5,273.6,51.34,303.76,37.7,333.17,52Zm-19.83-62,19.83,45.86L322.9,55.77l-19.14-9.3Z"/><line class="cls-2" x1="303.7" y1="0.24" x2="303.7" y2="169.49"/><line class="cls-2" x1="303.7" y1="39.58" x2="563.31" y2="88.36"/><line class="cls-2" x1="303.7" y1="117.69" x2="563.31" y2="88.36"/><line class="cls-2" x1="303.7" y1="67.12" x2="0.1" y2="134.66"/><line class="cls-2" x1="303.33" y1="83.63" x2="563.31" y2="88.36"/><line class="cls-2" x1="303.33" y1="88.36" x2="0.1" y2="134.66"/><line class="cls-2" x1="303.7" y1="0.24" x2="0.1" y2="134.66"/><line class="cls-2" x1="303.7" y1="33.06" x2="0.1" y2="134.66"/><line class="cls-2" x1="303.7" y1="0.24" x2="563.31" y2="88.36"/><line class="cls-2" x1="303.7" y1="117.69" x2="0.1" y2="134.66"/></g></g></svg>