<svg xmlns="http://www.w3.org/2000/svg" viewBox="0 0 329.45 69.31"><defs><style>.cls-1{fill:#fff;}</style></defs><title>technuhuh</title><g id="Layer_2" data-name="Layer 2"><g id="Layer_2-2" data-name="Layer 2"><line class="cls-1" x1="56.13" y1="4.92" x2="10.73" y2="64.07"/><polygon class="cls-1" points="19.43 57.67 9.38 60.9 53.75 3.1 58.51 6.75 19.43 57.67"/><line class="cls-1" x1="73.31" y1="3.04" x2="23.21" y2="68.61"/><polygon class="cls-1" points="30.63 67.14 16.38 69.31 69.34 0 77.28 6.07 30.63 67.14"/><polygon class="cls-1" points="71.55 58.45 0 43.33 92.42 16.9 94.07 22.66 24.88 42.45 69.09 51.8 71.55 58.45"/><polyline class="cls-1" points="100.36 26.3 143.98 11.7 118.45 30.57 122.16 27.25 125.64 24.01 102.3 32.59 102.3 32.59"/><line class="cls-1" x1="122.33" y1="36" x2="97.43" y2="42.55"/><polygon class="cls-1" points="98.19 45.45 96.67 39.65 117.01 34.89 118.54 40.69 98.19 45.45"/><line class="cls-1" x1="88.32" y1="55.35" x2="128.7" y2="49.36"/><polygon class="cls-1" points="88.76 58.31 87.88 52.38 126.32 45.7 128.34 52.21 88.76 58.31"/><line class="cls-1" x1="107.39" y1="23.64" x2="84.11" y2="64.61"/><polygon class="cls-1" points="89.03 62.02 81.5 63.13 102.91 25.45 110 25.12 89.03 62.02"/><line class="cls-1" x1="252.59" y1="21.55" x2="197.65" y2="21.67"/><rect class="cls-1" x="197.65" y="18.61" width="54.94" height="6" transform="translate(-0.05 0.51) rotate(-0.13)"/><line class="cls-1" x1="218.3" y1="16.01" x2="240.14" y2="57.77"/><polygon class="cls-1" points="238.41 60.92 215.65 17.4 220.96 14.62 244.8 60.2 238.41 60.92"/><line class="cls-1" x1="227.54" y1="15.11" x2="241.74" y2="43.78"/><polygon class="cls-1" points="238.09 43.5 224.85 16.44 230.23 13.78 244.85 43.62 238.09 43.5"/><line class="cls-1" x1="210.85" y1="29.59" x2="247.85" y2="29.3"/><rect class="cls-1" x="210.85" y="26.44" width="37" height="6" transform="translate(-0.22 1.79) rotate(-0.45)"/><line class="cls-1" x1="265.09" y1="10.8" x2="288.54" y2="43.98"/><polygon class="cls-1" points="285.31 44.35 258.17 6.2 267.55 9.06 292.47 44.48 285.31 44.35"/><polyline class="cls-1" points="254.69 43.8 255.17 38.13 329.45 45.33"/><line class="cls-1" x1="260.22" y1="67.75" x2="272.27" y2="21.48"/><polygon class="cls-1" points="263.5 68.66 256.95 66.83 269 20.57 275.55 22.39 263.5 68.66"/><line class="cls-1" x1="271.49" y1="56.7" x2="282.15" y2="17.2"/><polygon class="cls-1" points="274.6 56.83 267.86 57.59 279.33 14.73 285.7 16.89 274.6 56.83"/><path class="cls-1" d="M169.88,68.66,144,39.19l25.88-31.1,24.54,31.53Zm-18-29.49,18,20.3L186.7,39.38,169.88,17.66Z"/><path class="cls-1" d="M169.88,68.66,147.06,18.6,169.88,8.28l22.25,10.84Zm-15-46.95,15,34.7L184.36,22l-14.48-7Z"/></g></g></svg>