<svg xmlns="http://www.w3.org/2000/svg" viewBox="0 0 146.28 133.42"><defs><style>.a{fill:#00aeef;}.b{fill:#5652a3;}.c{fill:#0a1e2f;}.d{fill:#aadff1;}.e{fill:#fff;}</style></defs><title>lime</title><path class="a" d="M33.67,38.5A89.18,89.18,0,0,1,44,52.32a2.05,2.05,0,0,0,3.54-2.07c-1.32-2.64-1.42-4.53-2-7.09s-3.43-4.7-5.08-6.42C37.83,34,34,38,36.37,40.81c1,1.14,2,2.26,2.88,3.43l-.8-3h0l5.23-1.38-.32-.28c-1.77-1.46-4.57-1.05-5.25,1.39s2.36,4.85,3.77,6.41l4.61-4.61c-2.11-2.23-4.67-4.76-8-4-3.18.75-2.32,2.19-5.77.05C30,37.11,25.85,40,27,43.17c1.27,3.53,2.86,8.39,6.31,10.46,3.13,1.89,7.12,2.39,10.4,4.16,5.14,2.79,8.83-4.24,4.45-7.61-2-1.57-4-3.05-5.09-5.41-1.37-3-2.12-6.36-3.54-9.42L32,41.15c7.6,7.39,14.75,15.2,22.46,22.47,3.23,3,9.19.07,7.74-4.5C59.29,49.86,57.51,40.36,54.86,31c-1.41-5-9.14-4.06-9.07,1.23s-.28,10.66.4,15.92c.71,5.5,3,10.45,5.35,15.41,2.26,4.67,9.11,2.1,9.26-2.51.34-10.74,1.52-21.42,1.8-32.16H52.38c.59,6.5,1.41,13,2.23,19.43,1,7.63.91,15.66,5.91,21.91,2.43,3,7.08,1,8.09-2.14,3.9-12,8.39-23.73,12.31-35.69l-9.56-2.64c-2.62,12.72-4.23,25.48-5.62,38.38-.54,5.06,6.37,5.76,8.73,2.36,7-10.1,13.94-20.29,21.19-30.24l-8-4.7c-7.17,12.47-12.86,25.68-20,38.15C64.81,78.61,71,82.71,75,79.44a332.57,332.57,0,0,1,33.43-24.06l-6-7.72a283,283,0,0,1-33.9,29.08c-5,3.65-.67,11.69,5,8.5,14.06-8,24-20.94,40-25.28l-2.71-9.83a41,41,0,0,0-14.7,9c-4.14,4-7.64,7.3-13.18,9.37C77.82,70.39,78,79.1,84.33,78.72c12.53-.76,24.45-1,36.8,1.59l1.42-10.51c-12.3-.58-24.19,1.49-36.38,2.73-5.91.6-8,9.34-1.49,11C96.9,86.63,107,93.87,119.25,97.06l3.22-11.68c-7.8-1.54-14.73-4.39-22.24-6.74-7.15-2.24-22.79-7.2-25.22,3.72-.78,3.5,1.07,6.12,4.23,7.44,11.85,5,24.58,5.11,36.34,10.21l4.47-10.61a54.7,54.7,0,0,0-22-1.33,49.66,49.66,0,0,1-19.5-.65c-5.13-1.22-10.57,5.91-5.66,9.72,10.48,8.15,21.61,15.41,32,23.73,5.52,4.44,12.2-2.22,7.75-7.75C105.28,104,98.38,94.82,90.08,86.53l-7.85,7.85c4.08,4.07,8.36,8.31,13.64,10.8s10.74,3.88,16,6.2c6.42,2.86,11.55-5.48,5.57-9.53a36.65,36.65,0,0,0-10.95-5.42,17.79,17.79,0,0,1-3.33-1.18c-1.16-.57-6.43-3.21-6.52-4.34l-2.81,4.9c8.07-3.92,16.9-8,23.12-14.73,5.1-5.49,4.72-11.5,4.77-18.52,0-4.07-4.71-6.95-8.25-4.74C105.83,62.55,98,66.87,90.46,71.69l7.88,6.06a70.32,70.32,0,0,1,12.19-23.9c3.92-5.21-4.1-10.09-8.43-6.5C96.2,52.23,90.86,57,86.07,63l9.17,5.34c3.91-10,.77-20,2-30.34.75-6.22-7.55-6.61-10.43-2.83C81,42.8,77.89,52,72.08,59.63L82.43,64c2.94-11.77,2.14-22.7-.77-34.38-1.15-4.62-8.2-5.76-10.44-1.37-4,7.73-6.92,15.29-8.1,23.94h11.1L72.68,45.8c-1.73-7.21-12.88-4.16-11.12,3.07l1.56,6.37c1.67,6.85,10.51,4.42,11.3-1.53.95-7.13,3.43-13.33,6.66-19.7L70.64,32.65c2.45,9.68,3.29,18.55.87,28.33-1.62,6.59,6.63,9.3,10.35,4.36,5.78-7.69,8.85-16.86,14.62-24.56L86,38c-1,9.26,2,18.49-1.39,27.43-1.91,5,5.83,9.61,9.17,5.34,4.72-6.06,10-10.85,15.87-15.79l-8.43-6.5A83.24,83.24,0,0,0,88,74.89c-1.33,4.42,3.93,8.53,7.88,6.06,7.58-4.74,15.45-9,23.07-13.67l-8.25-4.74c-.1,5.62.73,8.87-3.88,12.72C101.28,79.89,94.51,82.94,88,86a5.5,5.5,0,0,0-2.81,4.9c1.12,13.23,17.62,14.54,26.57,20.48l5.57-9.53c-5.13-2.22-10.51-3.83-15.62-6-4.65-2-8.18-5.76-11.68-9.29-5-5.08-12.89,2.77-7.85,7.85,8.24,8.32,15.25,17.46,22.65,26.5l7.75-7.75c-10.38-8.22-21.24-15.81-31.48-24.21l-5.66,9.72a52.69,52.69,0,0,0,22,1.33,47.65,47.65,0,0,1,19.5.63c6.09,1.51,10.74-7.93,4.47-10.61a82.36,82.36,0,0,0-19.34-6,72.41,72.41,0,0,1-18.2-5.25l2.78,6.83Q83.17,88,86.37,88q1.67.33,3.32.71c1.74.4,3.47.83,5.18,1.34,2.23.66,4.4,1.48,6.57,2.31a91.83,91.83,0,0,0,17.81,4.68c7.54,1.26,10.94-9.89,3.22-11.68-12.24-2.83-22.56-9.73-34.81-12.66l-1.49,11c12.18-1.41,24.06-3.64,36.38-3.23,5.94.2,7.4-9.29,1.42-10.51-13.33-2.71-26.14-2.6-39.65-1.69l1.39,10.24a41,41,0,0,0,14.68-9.09c4.12-4,7.61-7.39,13.14-9.49,6-2.28,3.74-11.62-2.71-9.83a60.26,60.26,0,0,0-22.1,11.34c-6.66,5.36-12.74,11-20.2,15.27l5,8.5a332.31,332.31,0,0,0,35.88-30.63c3.92-3.87-1.16-10.73-6-7.72A307.62,307.62,0,0,0,68.33,72.82l7.35,5.67c7-12.55,13-25.63,20-38.18,3-5.32-4.62-9.52-8-4.7-7.12,10-13.91,20.31-21.24,30.21l8.56,3.61c1.69-12.38,3.55-24.73,6-37,1.23-6.23-7.61-8.77-9.56-2.64-3.82,12-8.24,23.77-12.09,35.75l8.09-2.14c-3.49-4.32-2.29-13.11-3-18.43S63.09,34.31,62.6,28.94c-.59-6.46-10-6.68-10.22,0-.29,10.73-1.29,21.42-1.52,32.16l9.26-2.51c-1.94-3.9-3.89-7.95-4.51-12.3-.66-4.59-.38-9.39-.58-14L46,33.49c2.92,9.26,4.7,18.75,7.34,28.08L61,57.07c-7.48-7.5-14.65-15.3-22.24-22.68-4.08-4-9.73,1-7.51,5.79C32.75,43.37,33.66,47,35.42,50c1.93,3.32,5.25,5.55,8.3,7.75l4.45-7.61c-3.4-1.71-6.78-2.46-10.28-3.71-1.26-.45,0,.48-.75-.53-1.3-1.69-2-3.91-3.06-5.76l-5.29,5.29c2.85,1.41,6,2.71,9.13,1.47,1-.38,1.62-1.23,2.52-1.61.63-.27-.84.1-.88.08a8,8,0,0,1,2.31,1.92c3,2.89,7.6-1.64,4.61-4.61-1-1-2.17-2.05-3.14-3.17l.81,3.06h0l-4.61,1.88c-1.1-.81.06.06.33.26,1.59,1.18,4.2,0,4.6-1.87.59-2.72-2.32-4.57-4-6.13l-4.07,4.07a26.56,26.56,0,0,1,4.26,3.54c.75.95-.19-.73.21.45A34.4,34.4,0,0,0,44,52.32l3.54-2.07A72.07,72.07,0,0,0,35.13,37c-1-.82-2.39.47-1.46,1.46Z"/><path class="b" d="M94.8,113.23c-.67-2-.94-3.86-2-5.69l-2.43,1.88c3.56,4.46,5.37,10.06,11.6,11.09a1.29,1.29,0,0,0,1.25-2.14A132.5,132.5,0,0,0,83.71,99.12l-2.08,2.7,14.06,9.37c4.07,2.71,8.2,6.38,13,7.46,2.09.46,4.05-2.22,2.23-3.83-7.93-7-17-12.73-25.4-19.14L82.68,99.4c8.24,6.91,17.49,13.86,28.29,15.86a2.83,2.83,0,0,0,2.17-5.14q-13.3-9-26.59-17.94l-2.75,4.7a239.45,239.45,0,0,0,31,12.15l1.67-6c-8.12-1.34-16.16-2.76-23.84-5.8L94.12,103c.41-.47,9,1.51,10.34,1.7,3.52.49,7,1,10.56,1.43,3.87.47,5.53-5.86,2-7.44l-16.54-7.43v7c2.36-1.24,5.86-.87,8.47-1,3-.18,6-.4,9-.6,4.43-.31,5.73-6.75,1.08-8-4.17-1.13-8.36-2.15-12.52-3.33l-.9,6.62,10.59-.51c3.57-.17,4.57-5.47.87-6.42-4.07-1-8.14-2.09-12.21-3.17l.76,5.83a43.66,43.66,0,0,1,11.22-4.89c2.41-.67,3.4-4.7.76-5.83l-2.33-1V81.5l3.42-2c2.26-1.3,2-5.35-.77-5.88-1.58-.3-3.16-.6-4.74-.88l.77,5.88c2.91-1.93,3.78-4.33,5.1-7.44a3,3,0,0,0-1-3.95l-2.06-1.15.63,4.88,1.48-1.22c2-1.62.71-4.77-1.43-5.42l-3.46-1.06,2.42,3.18.25-6.69-1.1,2.67a13.8,13.8,0,0,0,1.63-1.86c1.78-2.23,1.25-5.41-1.67-6.34s-4.85-4.34-6.87-6.53a17.81,17.81,0,0,0-7-4.85c-3.38-1.29-5.63,4.16-2.46,5.83s4.69,4.86,6.91,7.56a17.73,17.73,0,0,0,7.38,5.31L111,55.23c-3.34,3.62-2.49,6.58-2,11.25a3.43,3.43,0,0,0,2.42,3.18l3.49,1-1.43-5.42-1.3,1.4a3.15,3.15,0,0,0,1.37,5.2l2.23.74-1.72-4.24c-.83,1.68-1.68,3.78-3.37,4.79-2.23,1.33-2,5.34.77,5.88,1.58.3,3.16.59,4.74.88L115.43,74,112,76c-2.62,1.53-1.64,4.84.76,5.85l2.34,1V76.65a51.13,51.13,0,0,0-12.74,5.54,3.23,3.23,0,0,0,.76,5.83c4.06,1.08,8.11,2.21,12.16,3.33l.87-6.42-10.59.31c-3.93.12-4.4,5.32-.9,6.62,4.07,1.5,8.08,3.15,12.14,4.69l1.08-8c-6.72.38-15.45-.52-21.54,2.76-2.49,1.34-2.82,5.79,0,7L113,105.62l2-7.44c-5.4-.61-10.82-1.05-16.23-1.57-3.22-.3-7.27-1.42-9.62,1.47a3.55,3.55,0,0,0,1.54,5.85c7.8,2.71,15.88,4,24,5.1,3.87.54,5.67-4.9,1.67-6a228.54,228.54,0,0,1-29.87-10.8,2.72,2.72,0,0,0-2.75,4.7q13.27,9,26.5,18.1l2.17-5.14c-9.83-3.32-18.17-8.73-26.91-14.17-2.66-1.65-4.8,2.33-2.4,4.11,8.35,6.17,16.21,13.11,25,18.64l1.16-4.28c-4.47-.45-9.49-5-13.23-7.37L83.37,98.85c-1.93-1.2-3.46,1.68-1.74,3a130.54,130.54,0,0,1,19.79,18.36l.91-2.19c-5.47-.72-7.17-6.27-9.5-10.45-.83-1.5-3.45-.49-2.83,1.19a31.56,31.56,0,0,0,2.5,5.47c.71,1.19,2.79.42,2.31-1Z"/><path class="c" d="M81,116.89a.28.28,0,0,0,0-.56.28.28,0,0,0,0,.56Z"/><path class="d" d="M56.18,87.93c3.32,0,3.32-5.16,0-5.16s-3.32,5.16,0,5.16Z"/><path class="e" d="M60.72,75c-.43-10.19,2.16-19.89,2.56-30,.06-1.56-2.1-1.68-2.58-.35-3.45,9.52-2.46,20.41-2,30.34.06,1.32,2.12,1.33,2.06,0Z"/><path class="e" d="M63.57,52.72a67.34,67.34,0,0,1-1.94,12.13.75.75,0,0,0,1.45.4,54.16,54.16,0,0,0,2.08-12.53c.06-1-1.53-1-1.59,0Z"/><path class="e" d="M74.29,50.1a12.19,12.19,0,0,1-1.59,3,1.13,1.13,0,0,0,.4,1.54,1.15,1.15,0,0,0,1.54-.4,14.32,14.32,0,0,0,1.9-3.55c.53-1.4-1.76-2-2.26-.62Z"/><path class="e" d="M66.69,65a.23.23,0,0,0,0-.47.23.23,0,0,0,0,.47Z"/><path class="e" d="M99.69,57.19a.47.47,0,0,0,0-.94.47.47,0,0,0,0,.94Z"/><path class="e" d="M79.34,70.13l-2.22,1.44c-.32.21-.32.81.12.89a4,4,0,0,0,2.64-.39c.32-.17.1-.73-.25-.6a3.18,3.18,0,0,1-2.13.05l.12.89L80,71.26c.76-.36.06-1.6-.66-1.13Z"/><path class="e" d="M83.73,73.34A.89.89,0,0,0,84.25,75a10.62,10.62,0,0,0,2.55-.65c1-.26,2-.47,2.95-.69.24-.05.13-.4-.1-.36-1,.15-2,.31-2.93.41l-1.28.13-.43,0q-.59-.12-.68.52c.71-.36,0-1.52-.62-1.05Z"/><path class="e" d="M74.36,81.45,89,81.77c1.47,0,1.41-2.11,0-2.25L74.36,78.07c-2.13-.21-2.2,3.33,0,3.38Z"/><path class="e" d="M70,80.94l.67,1c.3.45,1,0,.73-.43l-.67-1c-.3-.45-1,0-.73.43Z"/><path class="e" d="M81,88.44a0,0,0,0,0,0-.09,0,0,0,0,0,0,.09Z"/><path class="e" d="M97.45,99.52c-6-3-12.62-5.39-18.18-9.21-1.53-1-3.24,1.27-2,2.53A18.38,18.38,0,0,0,82,96.31a1.41,1.41,0,0,0,1.7-2.21,18.61,18.61,0,0,0-4.39-3.8L78,93.25C84.6,95,90.79,97.94,97.41,99.6c0,0,.09-.06,0-.09Z"/><path class="e" d="M74,86.42a1,1,0,0,0,0-2.06,1,1,0,0,0,0,2.06Z"/><path class="d" d="M42,37.16l.31,1,.13-.5-.36.34a1.84,1.84,0,1,0,3.15,1.31,26.12,26.12,0,0,0,0-2.7,2.09,2.09,0,0,0-4.08-.55,3.17,3.17,0,0,0,3.78,3.8c2.43-.62,3.11-3.51,1.89-5.49-1-1.67-4.12-1.6-4.51.59a4.55,4.55,0,0,0,.74,3.7,3.69,3.69,0,0,0,3.77,1.51c2.39-.66,3.38-4.77.67-5.66a1.52,1.52,0,0,0-1.9,1.45c.06-.53.63-.41,1-.68l.25,0q-1.06-.16-.56-.07c.57.37.91.32.81,1.06l-4.51.59c.31.46-.07-.12,0-.43s.32-.55.87-.54q1-1.06,1.7.36v1.11l0-.2-4.08-.55a31.06,31.06,0,0,0,.51,3.19l1.78-2.34-.58.05.44.25-.55-.9a.38.38,0,0,0-.69.29Z"/><path class="c" d="M103.36,121.84l-7.58-10.68c-2.25-3.17-4.36-6.73-7.32-9.29a.8.8,0,0,0-1.25,1c1.67,3.53,4.56,6.52,7,9.53l8.27,10.15c.4.49,1.25-.16.88-.68Z"/><path class="c" d="M91.36,108.4c5.28,8.3,11.11,17.47,20.83,20.93,2.3.82,3.47-2.55,1.59-3.78-4.55-3-8.38-7.78-12.26-11.56-3.23-3.15-6.46-6.28-9.79-9.32C84.6,98.16,77.55,91.52,70,85.52c-2-1.61-5.69.46-4,3,5,7.48,12.14,12.17,18.75,18.15,7.91,7.16,14.79,15.08,21.79,23.09l3.23-3.23c-5.29-4.49-10.33-9.07-15.31-13.9a1.27,1.27,0,0,0-1.79,1.79c4.82,5,9.39,10,13.87,15.34,1.93,2.28,5-1,3.23-3.23A158.77,158.77,0,0,0,89.5,105.83c-3.55-3.11-7.22-6.07-10.89-9-3.38-2.74-7.32-5.58-8-10.15l-4.21,2.45c7.09,7,14.75,13.46,22.22,20.06,3.63,3.21,7.36,6.29,11.07,9.4,3.86,3.24,8.44,6.31,11.58,10.25l2.51-3.25c-8.61-4.47-15.46-10.4-22.2-17.32a.14.14,0,0,0-.22.17Z"/><path class="c" d="M69.18,90.22a36.82,36.82,0,0,0,3.26-3.06.61.61,0,0,0-.86-.86,36.81,36.81,0,0,0-3.06,3.26.47.47,0,0,0,.66.66Z"/><path class="c" d="M68.3,87.26c5.95,1.61,12.36,2.16,18.43,3.25s12.32,2.54,18.39,4.21l.49-3.66c-6.09.58-12.65-2.91-18.3-4.91L70,80c-1.85-.65-3.13,2.32-1.34,3.19a86.53,86.53,0,0,0,33.4,8.31c1.89.09,2.31-2.9.45-3.31-10.94-2.41-21.85-2.95-32.09-8l-1.34,3.19,19.1,6.91c5.54,2,11.41,5.11,17.44,4.48,1.93-.2,2.71-3.17.49-3.66-11.88-2.64-25.61-5.72-37.81-4-.1,0-.08.16,0,.18Z"/><path class="c" d="M68.74,88.56c13.93-4.18,27.57-9.41,41.19-14.5l-1.17-2-1.38,1.2a.9.9,0,0,0,.45,1.66c1.52.1,1.68,0,2.64-1.15.65-.82.08-2.51-1.17-2C95.72,77.11,82,82.06,68.49,87.65c-.54.22-.35,1.08.25.9Z"/><path class="c" d="M70,87a104.38,104.38,0,0,0,21.18-9.37c.52-.3,0-1.13-.47-.81a103.76,103.76,0,0,1-20.76,10c-.11,0-.07.22,0,.18Z"/><path class="c" d="M73.73,83.13c4.46-6,8.72-12.4,11.6-19.36.3-.74-.92-1.24-1.29-.54-3.44,6.67-6.6,13.37-10.64,19.71-.13.21.18.38.32.19Z"/><path class="c" d="M86.74,55.25a.09.09,0,0,0,0-.19.09.09,0,0,0,0,.19Z"/><path class="c" d="M69.63,83.79c4.45-10.64,10-20.64,15.53-30.74a1.56,1.56,0,0,0-2.7-1.58C79,57.43,75.27,63.25,72,69.34s-5.92,12.43-9,18.57L66,89.2C68.45,74.14,70.33,58.28,70.25,43c0-1.59-2.53-2-2.85-.39-3,15-4.16,30.88-4.64,46.13-.06,1.93,2.73,2.2,3.28.44,4-12.66,11.15-25.56,19.13-36.15l-2.7-1.58c-6.16,9.93-10.6,20.85-14.37,31.89-.34,1,1.15,1.34,1.54.42Z"/><path class="c" d="M58.3,78A35.46,35.46,0,0,0,53,50.79,1.81,1.81,0,1,0,50.14,53l1.79,3.53a1.18,1.18,0,0,0,2.3-.31A9.58,9.58,0,0,0,53,50.79l-3.14,1.84a37.57,37.57,0,0,1,6.79,25.11A.85.85,0,0,0,58.3,78Z"/><path class="c" d="M56,74a25.14,25.14,0,0,1,1.63,3.57c.6,1.81,3.44,1.06,2.88-.79-2.63-8.72-8.38-19.35-15.67-25A1,1,0,0,0,43.24,53c2,4.44,4.91,8.21,7.43,12.34s4.58,8.48,7.13,12.55l2.35-1.81A25.37,25.37,0,0,1,57.27,73c-.6-.72-1.65.2-1.25,1Z"/><path class="c" d="M53.25,64.43c2.69,3.41,6.63,8.51,6.29,13.13l2.76-.75c-4.08-6.72-10.73-12.34-16.13-18C40.26,52.6,34.5,46.19,28.36,40.21l-2.7,3.49,1.88,1.37,1-3.63-3.52-1,.35,2.69A205.51,205.51,0,0,1,44.3,29a1.45,1.45,0,0,0-1.47-2.51,118.58,118.58,0,0,0-19.9,14.18,1.72,1.72,0,0,0,.35,2.69A27.9,27.9,0,0,0,28,45.26c2,.62,3.08-1.87,1.9-3.26l-1.54-1.8c-1.86-2.17-5.06,1-3.15,3.15C30.92,49.75,37.07,55.79,43,62c5.42,5.63,10.74,12.51,17.26,16.87,1.43,1,2.93-1.14,1.8-2.33C58.67,73,56.93,67.81,53.71,64c-.27-.33-.72.14-.46.46Z"/><path class="c" d="M106.11,108.34l.54,2.63c0,.18.31.1.27-.07l-.54-2.63c0-.18-.31-.1-.27.07Z"/><path class="c" d="M105.43,109.36c.12,4.87,1.34,9.43,1.75,14.24a1.57,1.57,0,0,0,2.64,1.09A74.39,74.39,0,0,0,127.1,91a1.22,1.22,0,0,0-2.35-.65,168,168,0,0,1-17.37,32.5h2.67c-2.34-4-2.73-8.91-2.94-13.46-.05-1.08-1.71-1.09-1.69,0Z"/><path class="c" d="M113.11,121.37c5.63-5.55,9.1-14.39,12.07-21.62,1.51-3.68,2.81-7.48,2.5-11.52-.35-4.41-2.19-8.66-2.78-13.07-.26-2-3.28-3.59-4.37-1.18-1.34,3-1,5.35-.16,8.43,1.47,5.31,2.12,8.72.15,14.14-2.86,7.9-8.15,15-10.63,23a1.94,1.94,0,0,0,3.21,1.87Z"/><path class="c" d="M127.17,83.67c2.62-12.78-6.69-28.18-15.63-36.48-2.8-2.6-6.69,1.34-4.18,4.18a64.74,64.74,0,0,1,10,15.07c2.62,5.55,3.13,11.63,5.34,17.24.75,1.9,3.93,2.45,4.43,0Z"/><path class="c" d="M112.67,54.76c-5.76-10.07-14.1-18.6-25.9-21.09a2.06,2.06,0,0,0-1.1,4c9.94,3.62,19.77,8.8,26,17.68a.56.56,0,0,0,1-.57Z"/><path class="c" d="M100.86,35.68c-11.91-4.52-25.51-9.3-38.26-5.8a1.79,1.79,0,0,0,.47,3.5c12.71.13,24.74,2.29,37.23,4.29a1,1,0,0,0,.55-2Z"/><path class="c" d="M83,28.82c-14.5-5.61-29.5-2.2-43.85,2.23-3.51,1.08-2,6.6,1.52,5.51,13.51-4.17,27.68-9.09,42-6.57A.61.61,0,0,0,83,28.82Z"/><path class="c" d="M50.22,28.59a64,64,0,0,0-23.58,8.67c-2.42,1.44-.26,5.13,2.2,3.77A87.22,87.22,0,0,1,63.58,30.62c3.62-.33,3.69-6,0-5.72A80.54,80.54,0,0,0,26.64,37.26l2.65,3.43A53,53,0,0,1,50.6,29.94c.9-.23.5-1.48-.37-1.36Z"/><path class="c" d="M115.15,131.12a.19.19,0,0,0,0-.37.19.19,0,0,0,0,.38Z"/><path class="c" d="M127.88,73.78a21.8,21.8,0,0,0,2.34,6.15,2.22,2.22,0,0,0,4-1.7c-.71-3.59-.56-7.17-1.5-10.74s-2.28-8.06-2.53-11.65a2.75,2.75,0,1,0-5.43.74l.85,5.6L131,59.91a22.25,22.25,0,0,0-2.93-4.77,2.61,2.61,0,0,0-2.61-.69l-.4.13,1.33.75c-2.37-6.45-6.75-12-11.13-17.18-2.46-2.94-7.12,1.76-4.18,4.18,5.13,4.2,9,9.21,13.5,14V54.86l-.31.28a2.63,2.63,0,0,0-.69,2.61,36.49,36.49,0,0,0,2.33,5.13c1.64,3,6.07.89,5.39-2.27l-1.2-5.51-5.06,2.13c1.93,3.32,2.8,8.06,3.29,11.75.43,3.19,1.53,6.64,1.56,9.84h4.41a21.65,21.65,0,0,0-1.75-6.34c-1.12-2.85-5.55-1.81-4.7,1.3Z"/><path class="c" d="M132.87,98.52c4,0,4-6.2,0-6.2s-4,6.2,0,6.2Z"/><path class="c" d="M115.88,132.72a51.89,51.89,0,0,0,10.3-13.24A2,2,0,0,0,123,117a40.33,40.33,0,0,0-7.34,7.72l4.86,2.84a69.16,69.16,0,0,0,3.64-6.38,3,3,0,0,0-.46-3.53l-.42-.36v1.58c3.48-4.38,5.93-9.44,8.57-14.35,2-3.8-4.25-6.4-5.4-2.28-1.46,5.26-3.62,10.27-5,15.54l1.37-.78-.37-.1a3,3,0,0,0-3.29,1.34c-1.23,2.12-2.33,4.31-3.47,6.48-1.71,3.25,3.39,6.1,4.86,2.84a25.37,25.37,0,0,1,5.36-7.68L123,117c-3.45,4.15-7,8.15-10.55,12.26a2.44,2.44,0,0,0,3.45,3.45Z"/><path class="c" d="M116,48a1.91,1.91,0,0,0,2.63.39.75.75,0,0,0,.27-1A159.2,159.2,0,0,0,106,29.86L103.5,32.4A51.35,51.35,0,0,1,110.21,39c.59.67,1.8-.24,1.25-1a50.68,50.68,0,0,1-5.14-7.83c-1.12-2.19-4.52,0-2.82,2.18a156.21,156.21,0,0,0,14.25,15.89v-1l-1.33.26c-.32-.14-.68.23-.4.52Z"/><path class="c" d="M117.53,42.28c-6.31-7-13.33-14.23-22.47-17.51-1.58-.57-2.33,1.72-1.08,2.57,7.64,5.21,15.89,9.36,22.56,15.94.65.64,1.6-.32,1-1Z"/><path class="c" d="M102.32,28.85A40.62,40.62,0,0,0,83.69,21.1c-.52-.08-.77.68-.22.81a62.56,62.56,0,0,1,18.38,7.74c.52.33.95-.46.47-.81Z"/><path class="c" d="M91.8,23.51a41,41,0,0,0-24.47-4.34,1.17,1.17,0,1,0,.31,2.3,50,50,0,0,1,23.8,2.9c.5.18.83-.61.36-.86Z"/><path class="c" d="M60.75,22.4a5.2,5.2,0,0,0,.09-2,4.83,4.83,0,0,0-1.45-3,6.18,6.18,0,0,0-2.26-1.31,4.91,4.91,0,0,0-3.33.26A5.08,5.08,0,0,0,50.66,21a5.33,5.33,0,0,0,2.53,4.41,5.2,5.2,0,0,0,6.19-.8,7.58,7.58,0,0,0,.89-1.16l-.75,1a4.65,4.65,0,0,0,1.22-2.06Z"/><path class="c" d="M47.35,21.21c-.44.25-1,.51-1,1.07l.54-.54-1.24.37c-1,.31-.54,2,.44,1.61l1.21-.48L46.5,23c.49.48,1.11.34,1.72.24a1.13,1.13,0,1,0-.87-2.07Z"/><path class="c" d="M44.64,23.41a.3.3,0,0,0,0-.6.3.3,0,0,0,0,.6Z"/><path class="c" d="M41.24,23,40,23.43a1.61,1.61,0,1,0,1.57,2.69l1-.87c1-.87-.06-2.78-1.33-2.29Z"/><path class="c" d="M22.82,34.51A15.91,15.91,0,0,1,26.58,32c1-.49,0-2.14-1-1.31a16.6,16.6,0,0,0-3.12,3.51c-.16.24.18.46.37.29Z"/><path class="c" d="M22.43,37.4c3.92-3.11,7.34-6.57,11.87-8.89,2.26-1.16.69-5-1.74-4.14-5.51,1.93-11,5.61-13,11.35-.63,1.81,1.68,2.64,2.89,1.68Z"/><path class="c" d="M68,108.37a.12.12,0,0,0,0-.24.12.12,0,0,0,0,.24Z"/><path class="e" d="M54.57,35.27c-1.89-1.37-3.35-.48-5.21.72a1.18,1.18,0,0,0,.91,2.15c7.36-1.49,13.75-.33,21,.48a.85.85,0,0,0,.6-1.44c-6-5.47-15.11-2.81-22.25-1.31L50,38.19a6,6,0,0,0,3.42-.34,1.71,1.71,0,0,0,1.2-1.2l.19-.89a.44.44,0,0,0-.19-.48Z"/><path class="e" d="M77.11,39.27a.38.38,0,0,0,0-.75.38.38,0,0,0,0,.75Z"/><path class="e" d="M68.47,37.87c6.1,1.24,11.43,4.24,16.39,7.9s8.63,8.46,13.29,12.36c1.25,1,3.26-.26,2.36-1.82C94,45.19,81.19,37.91,68.59,37a.47.47,0,0,0-.12.92Z"/><path class="e" d="M109.36,63.53l.75,3a.52.52,0,0,0,1-.27l-.75-3a.52.52,0,0,0-1,.27Z"/><path class="e" d="M110.54,63.2a16.09,16.09,0,0,1-.5-2.53l-1.89.26a5.71,5.71,0,0,0,.7,1.66c.46.93,1.86.27,1.63-.69a5.58,5.58,0,0,0-.56-1.72,1,1,0,0,0-1.66,1,16.1,16.1,0,0,1,.94,2.42.7.7,0,0,0,1.36-.37Z"/><path class="e" d="M115.06,88.89c-.29,2.25-.59,4.5-.86,6.75-.07.59.93.62.94,0,0-2.25,0-4.5,0-6.75,0-.06-.09-.06-.09,0Z"/><path class="e" d="M114.92,97.13c-1.71,3.68-4.54,6.39-7,9.57-1.07,1.41-4.26,4.57-2.45,6.37a.85.85,0,0,0,1.41-.82c-.09-.57,1.84-2.75,2.19-3.23.94-1.29,1.9-2.54,2.79-3.86a30.52,30.52,0,0,0,4-7.63c.18-.55-.69-.93-.94-.4Z"/><path class="e" d="M109.11,104.6c-2.06.78-3.44,3.57-4.39,5.43l4.69.61a.18.18,0,0,1-.05-.26,2.83,2.83,0,0,0-3.45-3.45,3.58,3.58,0,0,0-2.23,1.69c-1.13,1.69.11,3.58,1.72,4.22,2.71,1.08,5.63-.85,7-3.12a8.5,8.5,0,0,0,1.09-5.89,1,1,0,0,0-1.72-.46c-2.2,2.33-5.62,2.29-7.64,4.67l4.8,2.79.12-.33-1.3,1.69.32-.15-4.22-2.42a4.43,4.43,0,0,0,1.27,3.5c1.57,1.81,4.23.23,4.38-1.81s1.14-4.07.86-6a1,1,0,0,0-1.25-.71Z"/><path class="e" d="M110.58,104.9c1.72-1.42,2.35-3.27,2.92-5.37A63,63,0,0,1,117.3,88.9c.21-.44-.45-.82-.65-.38a55.83,55.83,0,0,0-2.94,7.72c-.84,2.89-1.09,6.2-3.52,8.26-.28.23.12.63.4.4Z"/><path class="e" d="M115.83,84.39l.17-3.5a8.65,8.65,0,0,0-.1-3.22c-.24-.71-1.49-.89-1.63,0a8.28,8.28,0,0,0,.38,3.16l.81,3.61c0,.21.36.15.37,0Z"/><path class="e" d="M115.11,74.84a1.45,1.45,0,0,0,0-2.91,1.45,1.45,0,0,0,0,2.91Z"/><path class="d" d="M36.36,83a1.64,1.64,0,0,0,0-3.28,1.64,1.64,0,0,0,0,3.28Z"/><path class="d" d="M126.61,36.3c6.64,0,6.65-10.31,0-10.31s-6.65,10.31,0,10.31Z"/><path class="d" d="M53.36,14.77c4.34,0,4.35-6.75,0-6.75s-4.35,6.75,0,6.75Z"/><path class="d" d="M93.11,21a.61.61,0,0,0,0-1.22.61.61,0,0,0,0,1.22Z"/><path class="d" d="M118.36,9.28a4.79,4.79,0,0,0,3.28-1.36A4.72,4.72,0,0,0,123,4.64a4.69,4.69,0,0,0-1.36-3.28,4.64,4.64,0,0,0-6.56,0,4.72,4.72,0,0,0-1.36,3.28,4.69,4.69,0,0,0,1.36,3.28,4.82,4.82,0,0,0,3.28,1.36Z"/><path class="d" d="M64.86,123.83a1.69,1.69,0,0,0,0-3.37,1.69,1.69,0,0,0,0,3.38Z"/><path class="a" d="M30.62,98.09l-.33,0a2.8,2.8,0,0,0-2.66,2l0,.12a2.68,2.68,0,0,0,.26,2,3,3,0,0,0,1.57,1.21l.13,0a2.57,2.57,0,0,0,1.8-.14,2.91,2.91,0,0,0,1.32-1.13l.17-.26a2.57,2.57,0,0,0,0-2.6,2.66,2.66,0,0,0-2.23-1.28Z"/><path class="a" d="M43.86,8.58l-.24,0a1.84,1.84,0,0,0,0,3.53l.24,0a1.88,1.88,0,1,0,0-3.62Z"/><path class="a" d="M143.11,90.92c4.22,0,4.23-6.56,0-6.56s-4.23,6.56,0,6.56Z"/><path class="a" d="M15.19,63.32a6.64,6.64,0,0,0,4.55-1.88,6.43,6.43,0,0,0,0-9.1,6.68,6.68,0,0,0-4.55-1.88,6.64,6.64,0,0,0-4.55,1.88,6.43,6.43,0,0,0,0,9.1,6.68,6.68,0,0,0,4.55,1.88Z"/><path class="c" d="M1.36,43.3a1.41,1.41,0,0,0,0-2.81,1.41,1.41,0,0,0,0,2.81Z"/><path class="c" d="M137.94,17.49l0,0a4.45,4.45,0,0,0-4.33-1.14A4.45,4.45,0,0,0,134.75,25h.05a5.2,5.2,0,0,0,2.23-.6,4.39,4.39,0,0,0,1.81-2.12,4.47,4.47,0,0,0-.91-4.83Z"/><path class="c" d="M77.11,111.16c2.59,0,2.6-4,0-4s-2.6,4,0,4Z"/></svg>