<svg xmlns="http://www.w3.org/2000/svg" viewBox="0 0 510.78 479.41"><defs><style>.a{fill:#fff;}</style></defs><title>logobatch</title><path class="a" d="M304.88,242.77c.45-1.5.89-3,1.23-4.49h-2.92c1,6.49,1.91,13,3.43,19.44.51,2.13,3.62,1.21,3.25-.9-.78-4.36-1-8.85-1.59-13.24-.67-4.85-1.72-9.72-2-14.61-.15-2.78-4.49-2.8-4.34,0a256.9,256.9,0,0,0,6.44,43.49c.79,3.41,5.75,1.92,5.17-1.43-1.39-8-2.63-16-3.83-24L308,235.52c-.51-3.38-.4-6.34-2.63-9a1.32,1.32,0,0,0-2.06.27c-1.14,2.63-.7,4.16-.28,7.06l1.82,12.52c1.23,8.44,2.44,16.88,3.47,25.34l5.27-.71c-2.52-14.2-4.79-28.45-7.35-42.64L302,229.55a82.85,82.85,0,0,1,4.53,27.72l3.31-.45c-.88-6.51-2.38-12.93-3.75-19.35-.35-1.64-3.19-1.31-3,.4s.51,3.25.85,4.89a.47.47,0,0,0,.9,0Z"/><path class="a" d="M386.1,222.24l-.1-1.52-3.34-.9c1.6,17.38,6.66,34.85,10.89,51.74,1.17,4.67,9.16,3.85,8.62-1.17-.6-5.64-2.5-10.33-5.14-15.3-1.6-3-5.85-.84-5.24,2.21.87,4.38,1.61,8.82,2.72,13.15.94,3.69,6.2,2.07,5.6-1.55-.73-4.41-1.83-8.77-2.79-13.13l-5.53,1.52c1.49,4.28,1.67,8.6,1.6,13.09l8.62-1.17c-6.14-16.39-10.09-33.4-15.84-49.88a1.78,1.78,0,1,0-3.28,1.38,5.72,5.72,0,0,0,2.17,2.55c.68.46,1.32-.41,1-1Z"/><path class="a" d="M310,265.3A107.65,107.65,0,0,0,316.15,286c1.24,3,6.08,1.84,5-1.37a30.19,30.19,0,0,1-1.67-10.48l-3.74.51a90,90,0,0,1,.64,16.89,2.09,2.09,0,0,0,2.63,2c7.82-2.1,15.67-4.08,23.53-6.06l-.87-3.17A70,70,0,0,1,318.71,287l.63,4.63q6.61-1.43,13.19-3c4.4-1.07,8.54-2.93,12.93-4a1.75,1.75,0,0,0,1.28-1.68c-.33-3.66-.68-7.32-1-11-.17-1.93-3-2.53-3.52-.48a20.69,20.69,0,0,0,.24,12.37c.73,2.23,4.38,2,4.26-.58a56.31,56.31,0,0,0-5.25-21.37c-1.26-2.74-5.07-.68-4.58,1.93a47.08,47.08,0,0,0,4.21,12.46c1.37,2.77,6.14.83,5.05-2.13-1.35-3.69-3.1-7.47-3.76-11.32-.31-1.78-.11-2.76-2-3.6a2.35,2.35,0,0,0-3.07.81,2.39,2.39,0,0,0-.33,2.41,2,2,0,0,0,1.91,1.45h.34c2,.06,2.39-2.5.95-3.49l-.29-.2.91,2.23.13-.45-1.48,1.48.4-.14-2.54-1c.17.23.6,4.14.66,4.34.9,3,1.89,6,2.83,9l5.05-2.13a41.53,41.53,0,0,1-4.15-11l-4.58,1.93a49.48,49.48,0,0,1,5.24,18.84l4.26-.58a18.76,18.76,0,0,1-1-10.26l-3.52-.48c.38,3.66.73,7.32,1.09,11l1.28-1.68c-4.39,1.09-8.94,1.35-13.35,2.43s-8.74,2.2-13.09,3.39c-3,.82-1.66,5,1.25,4.55,7.72-1.08,15.59-2.28,23.17-4.14,2.06-.5,1.19-3.64-.87-3.17-7.91,1.79-15.82,3.57-23.76,5.23l2.63,2a74.7,74.7,0,0,0-1.12-17.9c-.36-2.27-3.56-1.47-3.74.51a47.26,47.26,0,0,0,.51,11.85l5-1.37c-2.25-6.83-4.66-13.62-7-20.41A2.11,2.11,0,0,0,310,265.3Z"/><path class="a" d="M339,259.69a25.14,25.14,0,0,0,.79,4.14,14.58,14.58,0,0,0,1.28,4,.33.33,0,0,0,.61-.17,14.65,14.65,0,0,0-.84-4.14,25.31,25.31,0,0,0-1.32-4,.28.28,0,0,0-.52.14Z"/><path class="a" d="M340,259.75c0-.28.24-.4.49-.47l-.33-.14a1.12,1.12,0,0,0,.78.5.57.57,0,0,1,.38.35c.3.6-.05,1.42.47,1.9a.66.66,0,0,0,.9,0c.52-.46.3-1.53.1-2.11a2.24,2.24,0,0,0-1.11-1.38,1.62,1.62,0,0,0-.86-.17.83.83,0,0,0-.48.22c-.11.11-.1.22-.17.32s-.32.22-.43.4a.93.93,0,0,0-.12.56.19.19,0,0,0,.38,0Z"/><path class="a" d="M340.73,259.09c1.86,3.2,1.88,5.45,5.95,6.78,1.11.36,1.77-.9,1.37-1.78a16.66,16.66,0,0,0-4.14-5.73l-2.25,2.25a38.23,38.23,0,0,1,6.55,7.87l3.7-2.17-1-2-3.15,2.42a73.19,73.19,0,0,0,6.63,3.77c1.55.73,3.78-.89,2.6-2.6-2.16-3.14-4.88-4.83-8.06-6.83a1.33,1.33,0,0,0-1.8,1.8c2.71,4.88,7.17,7.86,12.31,9.81,2.12.8,3.63-2.74,1.55-3.68l-3.52-1.61.43,3.31c4.45-4.5,7.72-8.59,8.1-15.18.16-2.76-4.17-3.33-4.81-.65L358,267.78c-.77,3.22,3.85,4.44,4.93,1.36a91.78,91.78,0,0,0,3.91-15.57l-5-.68c0,3.16,0,6.31,0,9.47s4.1,3.33,5,.68a15.47,15.47,0,0,0-.87-12.23l-1.36,3.33.7.22.76-2.92.42.37h-2.83c3.93,5.29,7.31,9.77,9,16.3.66,2.57,4.7,1.47,4-1.1-1.83-6.52-5.19-13.3-10.72-17.44a1.64,1.64,0,0,0-2,.26,3.45,3.45,0,0,0,3.8,5.51c1-.37,2-1.48,1.49-2.62-1.05-2.55-3-3.8-5.8-3a2.29,2.29,0,0,0-1.59,2.79,12.09,12.09,0,0,1,.06,9.11l5,.68c0-3.16,0-6.31,0-9.47,0-2.77-4.5-3.57-5-.68A104.71,104.71,0,0,1,358,267.78l4.93,1.36,2.89-12.94-4.81-.65c-.19,4.46-1.61,9.47-5.76,11.87a2.14,2.14,0,0,0,.5,3.86l3.6,1.44,1.07-3.89c-4.55-1.49-7.94-4.21-11.32-7.52l-1.28,2.2c2.91.89,4.55,3.24,5.6,5.89l3.18-1.85a78.08,78.08,0,0,0-6.76-4.49,2.16,2.16,0,0,0-3.15,2.42,7.78,7.78,0,0,0,1.47,3c1.59,2.21,5.28.13,3.7-2.17a29.08,29.08,0,0,0-8.33-8.21c-1.74-1.14-3.24,1.57-1.61,2.75a13.87,13.87,0,0,1,4,4.45l1.37-1.78c-3.43-.71-3.79-3.64-5.91-5.71a.72.72,0,0,0-.85-.11c-.61.38-.66.42-.81,1.14a.44.44,0,0,0,.19.48l.33.21a.33.33,0,0,0,.45-.45Z"/><path class="a" d="M368.66,254.21c-1.75,3.65-.12,8.86.47,12.74.51,3.34.29,9,4.14,10.16a2.35,2.35,0,0,0,2.31-.61,2.72,2.72,0,0,0,.9-2.27,1.87,1.87,0,0,0-.93-1.63l-.33-.15c-1-.46-2.71,0-2.54,1.46l0,.32.93-1.63q3,1.25,1.66-1.24-.36-1.43-.7-2.87-.69-2.87-1.4-5.73c-.75-3-.91-6.47-3.13-8.75a.9.9,0,0,0-1.4.18Z"/><path class="a" d="M371.71,261.66a12.34,12.34,0,0,1,.16-5.21h-3.2c1.19,6.45,2.4,12.2,2.25,18.84A2.4,2.4,0,0,0,375,277c3.63-3.79,9-4.77,14-4.15l-1-3.67-6.34,2.95c-2.08,1-.58,4.12,1.52,3.6,4.13-1,8.31-1.85,12.46-2.75,2.12-.46,2.66-3.84.63-4.8-3.32-1.57-6-1.07-9.11.83-2.46,1.53-1.7,6.21,1.59,5.89,4.13-.41,8.15-1.74,10.9-5,2.16-2.53-.55-6.62-3.69-4.79a25.79,25.79,0,0,1-8,3.55l3.57,4.64a2,2,0,0,1,2.77-.36v-5.06c-4,1.35-8,2.78-12.11,4l1.52,3.6,6.34-2.95c1.45-.68,1.19-3.36-.47-3.6-6.71-.95-11.79.76-17.45,4.28l3.49,2.69c1-6.82.12-15-3.88-20.75a1.65,1.65,0,1,0-2.61,2,12.5,12.5,0,0,1,2,4.57c.1.34.68.29.64-.09Z"/><path class="a" d="M305,229.69c6-1.2,11.78-3.9,17.41-6.23l-2-3.4a24.07,24.07,0,0,1-13.72,5.65l.47,3.47a64.81,64.81,0,0,1,16.33-2.47,2.08,2.08,0,0,0,1.78-3.1c.52.89,4.17,2.33,5.48,2.62a4.74,4.74,0,0,0,3.93-.53c1.88-1.44,1.49-3.87-.05-5.31-2-1.9-4.65.9-3,3,4,5,9.61,10.74,16.19,12,2.2.41,4-2.87,1.65-3.93a20.8,20.8,0,0,1-8.07-5.68L339,228.14a47.05,47.05,0,0,1,6.38,7c.76,1,2.44,1.65,3.43.44a32,32,0,0,0,7-15.08l-4.74-1.31a46.89,46.89,0,0,1-2.58,10.13l5.1,1.41c.65-4.39.27-9.09,1.18-13.37l-2,1.54a48.61,48.61,0,0,0,18.72-5.72c3.12-1.65.38-6.21-2.74-4.7a91.6,91.6,0,0,0-9.84,5.77c-2.13,1.39-.83,5,1.78,4.23,7.39-2.16,14.83-4.14,22.26-6.16l-3.4-1.93c1.28,3.56,2.27,7.67,4.29,10.9V219l-.25.41,2.07-.84-.41-.1a1.47,1.47,0,0,0-1.79,1l-.06.36a1.9,1.9,0,0,0,.84,2.07l.41.21a2.28,2.28,0,0,0,2.31,0c4.16-3-.63-9.69-2.08-13.2a2.82,2.82,0,0,0-3.4-1.93c-7.33,2.38-14.64,4.79-22,7l1.78,4.23a47.12,47.12,0,0,1,9.6-4.79l-2.09-5a57.9,57.9,0,0,1-16.54,6.3,2.14,2.14,0,0,0-1.54,2c-.2,4.37-1.76,8.81-2.25,13.22-.35,3.1,4.29,3.37,5.19.7A49.87,49.87,0,0,0,356,219.82c.29-2.73-4.45-3.4-4.83-.65a28.57,28.57,0,0,1-5.7,13.75l3.43-.44a40.07,40.07,0,0,0-7.75-7c-1.6-1.14-3.41,1.34-2.06,2.67a46.46,46.46,0,0,0,8.31,7l2.6-3.37c-5-4.06-10.7-6.63-15.29-11.36l-3,3c-2.29-2-5.18-5.23-8.57-3.13-2.08,1.29-2.32,3.42-1.36,5.44l1.78-3.1a45.22,45.22,0,0,0-17.27,3.19,1.77,1.77,0,0,0,.94,3.4,35.65,35.65,0,0,0,15.72-5.92c1.79-1.24.76-4.46-1.57-3.71-6,1.92-12.28,3.67-17.78,6.72-1.94,1.08-.57,3.83,1.44,3.43Z"/><path class="a" d="M383.55,212.89c.61,3.68,1.13,7.37,2,11,.23.9,1.77.74,1.66-.22-.43-3.79-1.24-7.5-2-11.24-.23-1.13-1.9-.64-1.72.47Z"/><path class="a" d="M293.54,213.24c-2-.4-4-1-6.08-1.32v3.71c11.11-2.28,22.22-4.54,33.32-6.86l-1.87-4.45A159.84,159.84,0,0,1,290.55,215l.8,2.91c23.39-7,46.56-15,69.87-22.28l-2.61-3.4a18.27,18.27,0,0,1-6.8,6.4c-1.38.79-.38,2.62,1,2.4,4.35-.68,7.32-2.88,9.78-6.46,1.19-1.73-.77-3.87-2.61-3.4-23.64,6.12-47.58,13.76-69.8,24-1.54.71-.45,3.34,1.16,2.76,9.65-3.51,19.73-5.72,29.42-9.13a2.44,2.44,0,0,0-1.29-4.69c-11,2.58-22,5.22-33,7.84-2.43.58-1.39,4.2,1,3.71,2.06-.42,4-1.09,6.08-1.58a.43.43,0,0,0,0-.81Z"/><path class="a" d="M315.34,211.33a70.31,70.31,0,0,1-9.17,1.06l.33,2.44c15.23-4,30.11-9.53,45.32-13.72q11-3,22.05-5.65c8-1.91,16.29-2.9,24.12-5.16l-2.52-6-8.94,4.87c-2,1.06-.6,4,1.48,3.51l10-2.4c3.49-.84,2.85-6.88-.87-6.42-7.74.95-15.46,3.4-23,5.31q-12,3-23.74,6.67c-15.07,4.63-30.75,9.51-44.82,16.71-1.46.75-.18,2.76,1.26,2.15a70.55,70.55,0,0,1,8.71-2.74c.42-.12.23-.69-.17-.63Z"/><path class="a" d="M365.82,197.21l-1.74,0-.62,1.51c9.36-1.82,18.52-5.77,27.86-8l-2.53-1c5.47,11.46,11.44,22.69,17.23,34,2.82,5.51,5.68,11,8.63,16.43,2.82,5.2,5.38,10.8,9.45,15.16a1.18,1.18,0,0,0,2-1.14c-1.23-5.87-4.41-11.24-7.05-16.57-2.75-5.55-5.59-11-8.48-16.52-5.91-11.23-11.65-22.56-17.88-33.62a2.27,2.27,0,0,0-2.53-1c-9,2.75-19.44,5.37-27.47,10.43a1,1,0,0,0,0,1.78,2.68,2.68,0,0,0,4.11-.71c.42-.58-.47-1.19-1-.74Z"/><path class="a" d="M404.6,199l-1.11-2.61c-.66-2.45-4.78-2.05-4.55.62,1.26,15,9.19,29.35,14.4,43.25a128.71,128.71,0,0,1,6.31,21.49c1.34,7.19,1.29,14.49,5.48,20.79,2.31,3.48,8.84,1.37,7.17-3q-3.3-8.73-6.74-17.4a2.39,2.39,0,0,0-4.61,1.27q1.83,9.13,3.78,18.22l7.17-3c-3.69-6.15-3.61-13.73-5.18-20.56A136,136,0,0,0,420,237.5c-2.72-6.72-5.71-13.33-8.49-20-2.89-7-5.18-14.13-8-21.11L400.08,199l2.38,1.64A1.37,1.37,0,0,0,404.6,199Z"/><path class="a" d="M412.15,222.36c-.63-1.93-1.28-3.83-2-5.72a1.43,1.43,0,0,0-2.8.38c-.11,12.59,3,25.51,6.68,37.46A184,184,0,0,0,420.45,272q1.06,2.48,2.18,4.92c.47,1,2.27,3.76,2.33,4.85.19,3.89-7,4.86-9.72,5.75-27.92,9.27-56.2,16.36-84.8,23.06l2.42,8.79c12.49-4.88,25.21-9.23,38.06-13.07s25.87-7.88,38.88-10.4c3.81-.74,3.89-7.11,0-7.79-16-2.79-31.15,7.3-45.75,12.41q-11.81,4.13-24,7.1-6.3,1.54-12.68,2.76c-2.14.41-11.65,1-12,2.63l-5.1,2.9a14.85,14.85,0,0,1,6.37,2.84l2-3.39a4.45,4.45,0,0,1-3.7-2.2c-.49-.6-1.29.07-1.18.68a7.56,7.56,0,0,0,2.9,4.91,2,2,0,0,0,3.19-2.46,19.38,19.38,0,0,0-5.52-7.31c-2.25-1.87-4.79-1.4-6.51.84a6.65,6.65,0,0,0,.72,8.58c2.91,3.18,7.3,2.64,11.11,2.06a251.45,251.45,0,0,0,29.86-6.53,258,258,0,0,0,28-9.66c9.36-3.84,19.62-10.13,30.13-8.37V288.1c-13.26,2.66-26.28,5-39.31,8.82a370.54,370.54,0,0,0-37.9,13.64c-5.25,2.2-3.21,10.83,2.42,8.79,15.53-5.61,31-11.18,46.71-16.33,15.22-5,31-8.08,46.23-13.06,4.69-1.54,7-5,5-9.8-2.75-6.91-6.63-13.36-9.31-20.34-5.41-14.09-8.05-28.56-11.43-43.18l-2.61,1.1c1.25,1.73,2.57,3.38,3.93,5,.27.33.83,0,.71-.41Z"/><path class="a" d="M294.21,270.44c-4.57-15.34-10.13-31.12-17.41-45.39-1.32-2.59-5.45-.79-4.66,2,4.3,15.07,8.53,30.17,13.26,45.12q3.48,11,7.21,21.87c2.46,7.12,4.63,14.63,8.14,21.32l3.85-3.85a6.3,6.3,0,0,1-3-5.75c0-1.86-2.86-2.35-3.31-.45a11.05,11.05,0,0,0,2.89,10.62c1.95,2.14,5.37-.12,4.7-2.74-1.89-7.38-5.13-14.51-7.64-21.7s-5-14.53-7.32-21.84q-7.07-21.94-13.87-44l-4.66,2c7.6,14.13,14.63,28.1,20.1,43.28.38,1.06,2,.64,1.72-.47Z"/><path class="a" d="M282.47,225.68l2-2a.05.05,0,0,0-.07-.07l-2,2a.05.05,0,0,0,.07.07Z"/><path class="a" d="M287.25,217.71c-1.58-2-5.35-1.79-7,.07a1.77,1.77,0,0,0,1.71,2.94,92.82,92.82,0,0,0,16.91-4.46,1.92,1.92,0,0,0-1-3.71A92.86,92.86,0,0,0,281,217.33l2.22,1.69c-.25-2.25,2.24-2.58,3.73-1,.17.18.41-.08.27-.27Z"/><path class="a" d="M189.62,109.29a29.68,29.68,0,0,0-3.28,3c-.93,1.21-1.71,2.56-2.62,3.79a74.11,74.11,0,0,1-6.68,7.74l3.44,3.44a129.54,129.54,0,0,0,11.32-16l-3.73-2.18-3.23,5.52c-.49.85-2,4.44-2.86,4.62l1.83.48.23,1.28-2.11.55.22.11c1,.52,2.64-.37,2.13-1.64l-.09-.21a1.58,1.58,0,0,0-1.9-1.08,2.19,2.19,0,0,0-1.63,2.82,2,2,0,0,0,1.81,1.38c2.11.28,3.11-1.72,4.07-3.27l5.24-8.39c1.48-2.37-2.24-4.52-3.73-2.18a121.68,121.68,0,0,1-11,14.75c-2,2.34,1.28,5.75,3.44,3.44a72.86,72.86,0,0,0,6.49-8,41.25,41.25,0,0,0,2.64-4.08c1-1.79.94-3.16,1.33-5.1a.8.8,0,0,0-1.33-.78Z"/><path class="a" d="M179.05,129.84c-.78,3.83.59,8,1.41,11.77s.81,9,3.93,11.53a1.34,1.34,0,0,0,2.19-.58c1.49-3.72-1.15-8.37-2.27-12s-2-7.93-4.56-10.9a.42.42,0,0,0-.71.19Z"/><path class="a" d="M179.85,125.58a95.56,95.56,0,0,0,6.37,28.5c.57,1.45,2.95.79,2.35-.65a115,115,0,0,1-7.7-28c-.08-.57-1.05-.44-1,.14Z"/><path class="a" d="M193.7,107.72c-3.24,3.94-.89,9.09.27,13.43,1.92,7.18,3.18,16.27,7.27,22.55.86,1.32,3.24.91,3.14-.85-.31-5.79-3.22-11.71-5.27-17.09-1-2.73-2.1-5.45-3.15-8.17s-3.24-6.61-2-9.73a.14.14,0,0,0-.24-.14Z"/><path class="a" d="M194.4,114.59c-1.56,7.4.12,15.68,2.5,22.73,2.06,6.08,5.46,15.68,11.5,18.74a1.61,1.61,0,0,0,2.34-1.8c-.92-3.08-3.26-5.42-5-8.09a57.25,57.25,0,0,1-5.51-10.63c-2.66-6.86-3.26-13.8-4.56-21a.66.66,0,0,0-1.27,0Z"/><path class="a" d="M206,140.07c1.68,4.67.14,15.73,8.3,15.17,7.56-.52,8.5-11.51,7.34-17-.46-2.15-3.77-1.62-3.78.51,0,2.59-1.33,13-5.17,12.32-4-.66-4-8.58-5.58-11.48-.33-.59-1.35-.19-1.11.47Z"/><path class="a" d="M216.54,152.71c7.78,2.23,6.74-8.9,6.38-13.29-.8-9.58-3.11-20.8-8.59-28.87a.94.94,0,0,0-1.71.72q.33,1.69.68,3.38c.13.64,1.09.47,1.1-.15q0-1.74.06-3.48l-1.84.25c1.12,4.73,13.68,40.73,4.08,40.34a.57.57,0,0,0-.15,1.1Z"/><path class="a" d="M222.62,143.49c-1.56-13.87-3.13-28-6-41.61-.57-2.66-4.82-2.07-4.73.64s-.09,5.09,1.35,7.44a1.61,1.61,0,0,0,2.75,0c1.22-2.51.9-4.63.72-7.44l-4.73.64c3.32,13.5,7,26.8,9.59,40.48.12.61,1.18.48,1.1-.15Z"/><path class="a" d="M212.65,101.43l.22,1.61a3.39,3.39,0,0,0,.46,1.38.28.28,0,0,0,.52-.14,3.32,3.32,0,0,0-.22-1.45l-.53-1.53a.23.23,0,0,0-.45.12Z"/><path class="a" d="M213.8,101.6a41.54,41.54,0,0,0,16.65,0c1.68-.4.93-2.77-.7-2.53-5.33.79-10.54,1.89-15.93,2.36-.1,0-.14.16,0,.18Z"/><path class="a" d="M218.63,101c3,2.44,10.07,1,13.05-1,1.82-1.17.7-4.27-1.52-3.6-2.06.62-3.94,1.67-6,2.23-1.71.46-3.93.6-5.4,1.6a.47.47,0,0,0-.09.74Z"/><path class="a" d="M230.28,99.28c4.35,15.22,6.36,30.65,9.42,46.12a.57.57,0,0,0,1.1-.15c-.56-15.6-5-31.4-9.71-46.19a.42.42,0,0,0-.81.22Z"/><path class="a" d="M231,108c1.24,9.46,4.54,18.33,6.7,27.58a53,53,0,0,1,1.57,14c-.19,5.11-2.19,9.18-3.21,14-.4,1.93,1.94,3.57,3.45,2,6-6.22,5-17.76,3.39-25.52-2.26-11.11-7.6-21.31-10-32.4-.23-1.06-2.08-.85-1.93.26Z"/><path class="a" d="M238.42,148.66c-1.4,13.62-12.82,23.2-25.76,25.49-2.12.37-1.48,3.49.49,3.59,15.54.8,27.63-14.21,26.3-29.08a.52.52,0,0,0-1,0Z"/><path class="a" d="M218.39,175.85a27.46,27.46,0,0,1-22.95-4.48c-6.1-4.26-8.54-10.54-12-16.77l-2.39,1c2.73,11.4,13.28,22.65,25.16,24.4,10.24,1.52,22.61-6.4,18.88-17.9a2.35,2.35,0,0,0-4.6.62c-.18,10.53-11.15,13.39-19.42,9.94s-13.36-10.53-17.62-18.07a1.32,1.32,0,0,0-2.43.66c-.41,8.08,5.89,15.52,12.4,19.55,7.4,4.58,17.12,4.55,25.14,1.67a.33.33,0,0,0-.17-.63Z"/><path class="a" d="M196.2,85.92c-5.42.72-10.59,3.33-15.79,5-4.79,1.54-9.83,2.76-14.46,4.75C158.17,99,153.39,106.9,151.72,115c-4.72,22.84,14.39,40.89,16.11,62.8.07.83,1.36.85,1.31,0-.49-9.34-3.9-18-6.85-26.79-3.29-9.76-8-19.3-7.88-29.84.1-9.68,4.36-18.18,13.35-22.4,4.57-2.15,9.64-3.39,14.45-4.9s10.32-2.31,14.88-4.71c1.44-.76.87-3.46-.88-3.23Z"/><path class="a" d="M169.76,185.59c1.28,6.07,4.12,11.49,10.21,13.78,6.94,2.61,15.64.92,22.66-.48,18.12-3.62,35.93-11.06,52.72-18.59.19-.09.05-.42-.14-.34-14.25,5.45-28.31,11.11-43.29,14.31a156.72,156.72,0,0,1-23.09,3.53c-9.24.55-16.75-2.45-18.44-12.38-.07-.41-.72-.24-.63.17Z"/><path class="a" d="M271.18,155.25c-2.52-9-3.38-18.41-5-27.6-.13-.73-1.32-.56-1.29.17.46,9.48,3.34,18.5,6.19,27.46a.05.05,0,0,0,.1,0Z"/><path class="a" d="M212.62,83.87c4.54-.2,8.78-2.82,13-4.32q3.88-1.37,7.84-2.51c2.31-.66,6.07-2.32,8.43-1.93,6.39,1,8.07,9.86,10,15,2,5.31,3.83,10.65,5.59,16q5,15.24,8.93,30.78c2.72,10.64,4.44,21.58,7.46,32.13.24.83,1.65.71,1.57-.21-1.19-12.49-4.8-25-8-37.07-3.34-12.44-7.19-24.75-11.46-36.91-1.8-5.14-3.48-10.44-5.75-15.39-1.34-2.92-3.26-5.72-6.56-6.48-4.87-1.12-11.46,1.9-16,3.38-5,1.62-11.53,3.06-15.23,6.94a.33.33,0,0,0,.23.56Z"/><path class="a" d="M39.81,285.59c9.53,0,19.16-4.58,28.15-7.43,9.39-3,18.89-5.62,28.35-8.37,9.7-2.82,19.3-5.88,28.89-9.09,2.16-.72,4.32-1.45,6.51-2.09,3.45-1,6.5,1,7.95,4,2.1,4.44,3.1,9.88,4.46,14.59s2.65,9.16,4.07,13.72,4,10,4,14.76c.08,6.56-6.74,6-11.43,6.73a102.75,102.75,0,0,0-12.94,2.91c-16,4.61-31.4,11.5-47.71,14.88-5,1-10.53,2-15.65,1.71-6.95-.43-9.17-7.17-12.24-12.49-2.67-4.62-5.38-9.22-8-13.85-2.81-4.93-6.14-12-1.94-17.25a.61.61,0,0,0-.74-1C33,291.76,37,301.25,40.67,307.7c2.78,4.92,5.62,9.8,8.44,14.7,2.3,4,4.33,9.56,8,12.55s9.74,1.94,14,1.47a91.59,91.59,0,0,0,15.06-3c10.49-3,20.42-7.47,30.54-11.47a129.08,129.08,0,0,1,15.07-5c5.2-1.35,10.47-1.76,15.71-2.82,9.72-2,6.81-11.14,5.17-18.43a263,263,0,0,0-10.28-35.74c-1.11-2.92-2.49-5.29-5.89-5.6-5-.47-11.22,2.63-16,3.93C107,262,93.65,266.26,80.3,270.5c-7,2.21-14,4.29-21,6.33-6.8,2-14,3.3-19.92,7.27a.8.8,0,0,0,.4,1.48Z"/><path class="a" d="M154.59,252.7l26.64-6.3c4.44-1,8.89-2.07,13.32-3.16,2.2-.54,5.34-2,7.58-1.91,5.68.25,5.81,3.73,7,7.46q8.1,26,13.73,52.58l.72-1.27q-1.88.69-3.73,1.45a.7.7,0,0,0,.37,1.36q2-.38,3.9-.81a1.05,1.05,0,0,0,.72-1.27q-3.38-15.86-7.6-31.52-2.12-7.82-4.46-15.59c-1.18-3.9-1.88-9.57-4.39-12.87-1.32-1.74-3.13-2.07-5.22-1.84-5.24.59-10.68,2.63-15.78,4l-33,8.8a.47.47,0,0,0,.25.9Z"/><path class="a" d="M190,310c-2.83.59-6.13,1.78-9,1.76-2.56,0-3.86-.43-5.42-2.8a21.63,21.63,0,0,1-1.46-3.2c-2.64-5.9-5.42-11.71-7.73-17.75a136.72,136.72,0,0,1-8.13-36.85c-.09-1-1.68-1.38-1.84-.25-2.12,14.72,1.48,28.85,7.57,42.19,2.94,6.45,5.58,13.31,10.62,18.42,1,1,1.84,2.22,3.22,2.5s3.85-1.33,5.21-1.77c2.32-.75,4.69-1.38,7-2.06a.09.09,0,0,0,0-.18Z"/><path class="a" d="M175.13,261.54c5.93,3.74,10.72,8,14.34,14.06l3.19-2.46c-4.76-4.14-9.79-8-14.56-12.11-1.6-1.39-3.94.9-2.35,2.35q7.58,6.86,15.69,13.09c1.58,1.2,7.56,6.86,9,2.5.8-2.48-1.76-4.13-3.88-3.09-1.75.87-2.6,3.22-3.43,4.8-1.8,3.38-3.64,6.73-5.3,10.18l4.24,1.79c1.76-4.71,3.22-9.38,4.56-14.22.61-2.22-2.62-3-3.39-.94a111.34,111.34,0,0,1-6.54,14l3.66,2.14c2.54-5.6,4.83-11.27,7.64-16.74l-5-.65a3.46,3.46,0,0,1-1.49,4c-2.43,2.19.7,6.13,3.46,4.49,4.51-2.68,5.66-7.89,4-12.71-2.13-6.31-8.84-9.12-14.08-12.31-2.71-1.65-5.85,2.26-3.43,4.45l12.94,11.77,4-4a28.46,28.46,0,0,0-13.53-6.46,2.53,2.53,0,0,0-2.43,4.18c3.41,4.3,10.36,1,12.28,7,2.14,6.72-2.64,15.23-6.59,20.29a1.87,1.87,0,1,0,2.94,2.27c4.53-5.91,8.64-14.11,7.5-21.8a11.88,11.88,0,0,0-3-6.71c-2.24-2.22-7.64-1.75-9.16-4.1l-2.83,3.68a29.44,29.44,0,0,1,10.88,5.62c2.75,2.28,6.7-1.5,4-4l-12.91-11.79-3.43,4.45c3.05,1.87,6.62,3.4,9.21,5.9,2.33,2.24,4.54,7.09.82,9.29l3.46,4.49a9.13,9.13,0,0,0,2.69-9.49c-.55-2.12-4-2.83-5-.65A107.32,107.32,0,0,0,186.45,292c-.69,2.66,3.2,3.69,4.09,1.13a111.16,111.16,0,0,1,5.88-14.29l-3-1.78c-2.15,4.75-4.09,9.42-5.82,14.34-.86,2.45,3.15,4.19,4.24,1.79a114.35,114.35,0,0,0,5.7-14.82l1.44-1.09c-.3,0-3.64-3-4-3.24q-2.6-1.82-5.14-3.71c-4-3-7.89-6.09-11.7-9.31l-2.35,2.35c4.76,4.12,9.27,8.53,14,12.64,1.62,1.4,4.63-.47,3.19-2.46-4.38-6.07-10-11.08-17.08-13.81-1.08-.42-1.66,1.23-.76,1.8Z"/><path class="a" d="M78.66,282.45c-5.6-.6-9.62,2.85-13.16,6.84-1.83,2.06-3.77,4.92-.5,6.76,1.76,1,3.3.41,5.13-.11,3.47-1,6.75-1.55,10,.63a8.44,8.44,0,0,1,2.52,11.19c-2.63,4.26-8.24,3.8-12.07,1.71-1.06-.58-2.62.67-1.8,1.8,7.18,9.83,20.92,0,18.25-10.49a12.09,12.09,0,0,0-10.9-8.86,12.26,12.26,0,0,0-3,.13c-.67.11-3.5,1.55-4.07,1.42-5.06-1.15-.35-5.06.94-6.27a14.48,14.48,0,0,1,8.63-4.38.19.19,0,0,0,0-.37Z"/><path class="a" d="M83,287.18l13.12,27.6c.79,1.66,3,.4,2.77-1.17-1.74-10.17-4-20-4.26-30.37a.61.61,0,0,0-1.22,0c0,10.32,0,21.09,2.56,31.17l2.77-1.17L83.63,286.8c-.24-.42-.85-.05-.65.38Z"/><path class="a" d="M104.48,282.59c-.64,7.52.93,15.56,1.41,23.1.21,3.32-1.51,10.73,3.33,11.45,4.55.67,10.37-6.29,13.21-9A77.49,77.49,0,0,0,134.74,293c1.54-2.48-1.39-4.55-3.61-3.61a56.28,56.28,0,0,1-5.88,2.07c-2.55.76-3,.38-3.4,2.85.21-1.44,2.06-3.35,2.83-4.69.91-1.58,1.75-3.21,2.62-4.81,2.4-4.39,5.84-9.76,3.48-14.89-2.09-4.54-8.32-5.83-12.74-6.49-5.19-.77-13.22-1.24-17.18,2.77-1.21,1.22-.78,3.72,1.08,4.07,3.12.59,5.78-.54,8.92-.71a28.36,28.36,0,0,1,10,1.23c4.65,1.45,4.24,3.69,2.46,7.45-1.56,3.3-3.43,6.46-5,9.76-1.28,2.68-4.17,7.47-.43,9.69,1.79,1.06,3.66.1,5.37-.54a70.66,70.66,0,0,1,9.92-2.95l-3-3.87c-2.91,3.91-6,7.81-9.23,11.42q-2.3,2.53-4.78,4.9c-1.39,1.32-4.08,4.73-5.66,5.35q-.72,1.71-.71-.12l-.33-1.88c-.29-1.77-.53-3.54-.74-5.32-.3-2.56-.54-5.13-.82-7.7-.51-4.84-.59-10-1.87-14.65a.8.8,0,0,0-1.57.21Z"/><path class="a" d="M365.21,375.88c-.12,14.26.39,28.46-.32,42.72s-3.41,28.43-3.21,42.53a1.32,1.32,0,0,0,2.58.35c4-13.24,4.13-28.2,4.73-41.91.64-14.47,1.06-29.26-.41-43.69-.22-2.12-3.36-2.22-3.37,0Z"/><path class="a" d="M366.29,372.84c6.23,8.9,12.64,17.67,19.08,26.43L394.74,412c1,1.34,9.11,12,8.79,12.15l1.71.22c-7.82-6.23-13.84-15.33-19.13-23.7A187.7,187.7,0,0,1,372.54,375c-.86-2-4-.56-3.46,1.46,3.69,13.56,12.53,26.14,21.09,37.06,9.88,12.61,20.14,25.59,31.46,36.92,2.22,2.22,5.64-1.2,3.44-3.44-7.22-7.35-13.72-15.14-20.25-23.1-.47-.57-1.48.2-1,.8,6.13,8.26,12.09,16.47,17.46,25.25l4.2-2.46c-8.84-12.41-19.52-23.52-29.13-35.32A189,189,0,0,1,372.54,375l-3.27,1.91a203.18,203.18,0,0,0,15.39,25.64c5.77,8.09,12.82,15.34,18.37,23.54a1.39,1.39,0,0,0,1.22.7c9.42-1.26-6.55-18.83-8.32-21.16-8.87-11.71-17.69-23.44-26.83-34.95-1.25-1.57-4,.5-2.8,2.16Z"/><path class="a" d="M390.72,405.31c-4.37-8.56-9-17.58-15.13-25.05-.41-.5-1.21.14-.88.68,5,8.34,10.67,16.18,15.28,24.8.26.48,1,.06.73-.43Z"/><path class="a" d="M372,382l.29-.28a.78.78,0,0,0,.2-.77c-.63-1.82-2.41-1.59-3.31,0-1.42,2.45-.72,7.41-.86,10.1-.23,4.26-.34,8.53-.5,12.8-.62,17.06-1.38,34.13-1.59,51.2h3.5c-.93-18.58-.76-37.2-1.76-55.78a.8.8,0,0,0-1.59,0c-.47,18.59.25,37.18-.14,55.78,0,2.26,3.38,2.24,3.5,0,.64-12.46,1-24.94,1.3-37.41l.48-17.72c.09-3.28.19-6.56.21-9.85,0-1.31,0-2.63,0-3.94v-3a1.39,1.39,0,0,0-.9-1.82c-.27.69.71,1.14,1.18.68Z"/><path class="a" d="M363.07,383.09c-.56,15-.8,29.9-.66,44.86s1.33,30,.85,44.92l3.78-.51a67.73,67.73,0,0,1,.07-20.4h-3.62a84.14,84.14,0,0,0,2.28,10.49c.24.75,1.93,4.11,1.73,4.58-.4,1-5.45-.21-6.25-.32a2.17,2.17,0,1,0-.58,4.29c3.49.33,7,.27,10.53.31l-.74-5.43A40.66,40.66,0,0,0,361,470.6l4,4,1.74-1c3.95-.17,3.71-5.48,0-6a23.67,23.67,0,0,0-13,2L358.1,473a291.42,291.42,0,0,0,7.07-29.21c1.71-9.18,3.55-19.22,3.18-28.57-.07-1.74-2.9-2.33-3.2-.43-2.07,13.1-5.1,25.66-5.67,39,0,.36.53.36.56,0,1-12.52,2.7-26.24,8.09-37.73l-3-1.26c-2.26,9.34-3.25,19.09-5.26,28.52s-4.57,18.86-7.54,28.11c-.64,2,1.55,4.53,3.67,3.67a21.07,21.07,0,0,1,10.75-1.5v-6a7.78,7.78,0,0,0-6.81,4c-1.49,2.4,1.56,5.71,4,4a49.09,49.09,0,0,1,8.63-4.72c2.53-1.1,1.23-5.32-1.4-5.15-3.71.24-7.43.39-11.11.93l1.16,4.21c2.74-.59,7.48-.08,8.47-3.23,1.43-4.53-1.51-12.36-2.61-16.73-.54-2.16-3.51-1.52-3.69.5a134.57,134.57,0,0,0-.17,21.41,1.93,1.93,0,0,0,3.85,0c1.68-14.9.93-30,.39-44.92S366,398,364.76,383.09a.84.84,0,0,0-1.69,0Z"/><path class="a" d="M357.52,470.24a731.32,731.32,0,0,0,11-80.31c.18-2.48-3.95-3.08-4.38-.59-4,23.23-6.9,47-7,70.59,0,2.91,4.71,3.74,5.24.71,4.78-27.56,2-55.9,7.79-83.3L365,375.94a421.93,421.93,0,0,0-6.7,51q-.8,12.64-.87,25.31c0,8.52-.3,17.52,1.81,25.83.44,1.72,3.43,1.94,3.71,0,1.14-7.86.57-16,.57-23.88q0-12.67.76-25.32a458.46,458.46,0,0,1,5.79-51.5c.57-3.28-4.38-4.73-5.06-1.39-5.63,27.48-2.17,55.85-7.87,83.28l5.24.71c.92-23.3,2.38-46.34,6-69.4l-4.38-.59c-1.61,26.8-4.74,53.5-7,80.25a.24.24,0,0,0,.46.06Z"/><path class="a" d="M422.93,448.43c3.2-.65,6.3-1.54,9.44-2.42l-1.74-4.13-7.38,4.82c-2.23,1.46-1.16,4.43,1.28,4.71,4.36.51,9-1.95,10.31-6.24.7-2.31-2.67-4.57-4.29-2.5s-3.26,3.78-6,3.68l1.28,4.71,7.11-5.28c1.88-1.4.89-5.05-1.74-4.13-3.24,1.13-6.43,2.25-9.58,3.61-1.89.82-.48,3.54,1.34,3.17Z"/><path class="a" d="M412.55,425.23c-3.48-3.65-6.92-7.34-10.45-10.94-1.54-1.57-4.48.53-3.14,2.42a102.87,102.87,0,0,0,24.45,24.59c2,1.4,4.18-1.64,2.54-3.29-9-9.08-17.5-18.68-26.15-28.13S382.35,391,374.23,381.13c-2.24-2.74-6.21.27-5.54,3.23,1.56,6.89,6.47,12.53,11.07,17.67,5.31,5.94,10.94,11.62,16.68,17.14s11.72,10.86,17.92,15.9c3,2.47,9.29,9.36,13.3,4.87a2.59,2.59,0,0,0-.51-4c-4.91-3.37-8.69-8.71-12.63-13.12s-7.92-8.91-11.93-13.33c-7.78-8.58-15.9-16.94-23.11-26-2-2.52-6.48.88-4.5,3.47,10.42,13.63,22.42,26.3,33.71,39.23l8.54,9.79c2.69,3.08,5.21,6.79,8.3,9.45s8.93,2.18,8.43-3c-.42-4.35-7.28-4.38-6.84,0l.07.67,1-2.42.29-.1,2.63.34c-2.52-1.09-4.7-4.74-6.46-6.73L418,426.69c-4.18-4.75-8.35-9.5-12.56-14.23-8.59-9.65-16.85-19.87-26-29l-4.05,4.05c8.43,7.93,16.07,16.7,24,25.16,3.84,4.11,7.72,8.18,11.59,12.26,4.32,4.55,9.57,9,12.69,14.46l1.52-3.73c-1.14.47-5-4.57-6-5.49-2.41-2.36-4.9-4.64-7.34-7-4.66-4.45-9.43-8.78-14.06-13.26-8.83-8.55-17.58-17.06-23.08-28.17l-5.21,4A409.65,409.65,0,0,1,423,441l3-3a161.39,161.39,0,0,1-23.85-23.72l-2.83,2.83c3.9,3.24,7.87,6.39,11.82,9.58,1,.82,2.39-.47,1.46-1.46Z"/><path class="a" d="M378.76,423.49c-.61,4.94-1.07,9.88-1.51,14.83h2.44l.2-8.43h-2.7c-.05,3.17-.13,6.34-.2,9.51a1.68,1.68,0,0,0,1.22,1.6A109.19,109.19,0,0,1,389,444.15c2.45.83,3.69-2.7,1.69-4-3.57-2.33-7.09-2.35-10.93-.68-2.21,1-1.35,4.25.63,4.85a54.62,54.62,0,0,0,9.29,2c3,.36,4.25-4.5,1.55-5.72a13.84,13.84,0,0,0-10.31-.87c-3.15.92-2.8,5,0,6.06a61.45,61.45,0,0,0,14.79,3.53l-2.31-5.57a63.22,63.22,0,0,0-13,14.14c-2.2,3.19,2.9,6,5.13,3a50.43,50.43,0,0,1,8.86-9.15l-4.1-4.1c-3.49,4-7,7.73-10.09,12-2.38,3.3,2.1,6.72,5.16,5.16a24.86,24.86,0,0,0,11.07-10.94c2.45-4.71-4.6-8.88-7.15-4.18-2.34,4.33-5,9-10,10.44l3.59,6.16c4.31-3.5,8.89-6.68,13.22-10.16L390.72,452c-.89,1.24-1.73,2.47-2.53,3.76-1.93,3.15,2.75,7,5.23,4,1.17-1.38,2.25-2.82,3.32-4.28,2.53-3.47-2.65-6.44-5.47-4.22a130.89,130.89,0,0,1-12.76,9.3c-3,1.83-1.9,7,1.86,6.87,8.17-.35,12.64-6.86,16.18-13.5l-7.15-4.18a20.9,20.9,0,0,1-7.74,8.6l5.16,5.16a92.11,92.11,0,0,1,7.67-11.75,2.9,2.9,0,0,0-4.1-4.1,66.9,66.9,0,0,0-9.43,9.65l4.67,3.6a70.47,70.47,0,0,1,12.44-12.53c2.44-2,.17-5.32-2.31-5.57a54.38,54.38,0,0,1-13.12-3.06v6.06a6.36,6.36,0,0,1,5.54.11l1.55-5.72c-2.64-.27-5.27-.52-7.88-1l.63,4.85a5.29,5.29,0,0,1,6-.1l1.69-4c-3.68-.85-7.39-1.52-11.12-2.11l1.22,1.6c-.14-3.17-.29-6.34-.42-9.51a1.35,1.35,0,0,0-2.7,0l.06,8.43a1.22,1.22,0,0,0,2.44,0c.29-4.95.55-9.88.66-14.83,0-1.05-1.47-1-1.59,0Z"/><path class="a" d="M237.14,351.4c-18.11,2-33.78,14.7-38.36,32.6-4.81,18.84,3.07,39.68,20.14,49.4,16.3,9.28,37,6.88,50.26-6.57,15.14-15.39,14.28-37.08,3.85-54.85-5.43-9.25-13.31-20.57-23.47-25-7.88-3.44-18.11-1.26-21.14,7.53-.72,2.07,2.46,3.37,3.51,1.48,4.72-8.48,15.43-5.1,21.24,0,6.33,5.58,11.62,13,15.64,20.4,8.15,15,9,32.84-3.16,45.88-11.29,12.12-28.91,14.49-43.52,7-15.1-7.69-23-24.75-20.35-41.35,2.89-17.94,18.13-31.87,35.43-36,.35-.08.29-.69-.09-.64Z"/><path class="a" d="M223.38,373.64a91.34,91.34,0,0,1,3.55,14.8c1,6.67,1.31,3.54-1.66,1.28-4.47-3.4-9.92-1.92-14.39.65-6,3.48-8.93,6.21-8.3,13.49a28.76,28.76,0,0,0,8.65,18.38c1.32,1.27,3.14-.62,2-2-4.13-4.89-9.06-12.87-7.89-19.65.74-4.26,4-6.51,7.56-8.46,4.42-2.43,12.07-4.77,14.71,2,.14.36.78.36.74-.1a89.7,89.7,0,0,0-4.6-20.48c-.08-.23-.44-.13-.36.1Z"/><path class="a" d="M223.44,388.27A160.85,160.85,0,0,0,224.1,372l-2.8.38c.41,2.82.91,5.63,1.4,8.44.43,2.46.47,5.23,1.82,7.36a1.09,1.09,0,0,0,2-.26c.53-2.44-.3-4.88-.74-7.31-.54-3-1.07-6-1.69-9a1.43,1.43,0,0,0-2.8.38,161.94,161.94,0,0,0,1.64,16.32c.05.34.52.22.55-.07Z"/><path class="a" d="M220.46,372c2.21-1,3.78-2.6,6.23-3.28s4.63-.08,7-.38a1.33,1.33,0,0,0,.66-2.45c-4.12-2.89-13.55-.11-15.52,4.5a1.18,1.18,0,0,0,1.6,1.6Z"/><path class="a" d="M226.48,370.45,224.7,369,224,370.7c4.55-.58,9-2.58,13.46-3.67s9.69-1,13.66-3.29a1.47,1.47,0,0,0-.35-2.66c-4.51-1.49-10.08.42-14.47,1.75s-9.6,3-13,6.11a1,1,0,0,0,.72,1.74l2.28.26a.28.28,0,0,0,.22-.51Z"/><path class="a" d="M232.54,367.18c7.61-1.21,21.57,1.07,20.08,11.68a1.51,1.51,0,0,0,2.51,1.46c4.43-4.29.87-10.17-3.24-13.22-5.64-4.17-13.68-3.67-19.79-.95-.63.28-.14,1.12.43,1Z"/><path class="a" d="M246.58,368.06c4.35,2.77,7.44,7.15,7.08,12.49-.34,5-4.48,7-6.22,11.13-.47,1.11.68,2,1.63,2.14,6.71.64,10.16-9.33,9.58-14.69a14,14,0,0,0-11.68-12,.52.52,0,0,0-.4.94Z"/><path class="a" d="M252.51,382.2a31.42,31.42,0,0,1-1.55,7.9,17.3,17.3,0,0,1-1.87,4.18L248,395.91q-3.77.34-1.82,1.66c.5,1.48,3.56,3.61,4.66,4.83A61.78,61.78,0,0,0,256,407.9c.91.8,2.51-.24,1.77-1.36-3.11-4.7-7.88-8.37-12.16-12a1,1,0,0,0-1.1-.14c-4,1.78-.72,6.92,3,6.18,6.66-1.34,6-13.66,5.42-18.42a.19.19,0,0,0-.37,0Z"/><path class="a" d="M247,401.34c.76,1.69,2.35,3.15,3.55,4.55,1.66,1.92,3.46,3.73,5.25,5.52.91.91,1.9,2,3.3,2-.13,0,1.51-.34.82-.2.15,0,.32.07.48,0,1.66-.5,2.48-2.24.67-3.32a1.46,1.46,0,0,0-2.19,1.25q0,.51.2-.46l1.42-.81c1.08-.07,1.8,2,1.26,0a4.22,4.22,0,0,0-1.92-2.19c-1.37-1-2.76-2-4.12-3-2.23-1.65-4.9-4.12-7.61-4.86a1,1,0,0,0-1.1,1.43Z"/><path class="a" d="M246.61,401.7a71,71,0,0,0,8.71,7.27c1.78,1.36,9.88,5.92,9.62,8.15l4.09-2.35c-4.68-3.25-9.5-6.35-13.84-10.05-1.21-1-3.28.29-2.32,1.79A19.58,19.58,0,0,0,263.74,415c1.91.62,3.26-2.42,1.39-3.29a49.6,49.6,0,0,1-8.2-4.8c-2.34-1.69-4.16-3.58-6.95-4.5a1,1,0,0,0-1.21,1.21c1.85,6,9.61,9.27,15,11.38l1-3.47a15.09,15.09,0,0,1-9.27-6.54l-2.32,1.79c4.52,3.74,8.51,8.06,12.63,12.23,1.33,1.34,4.21.87,4.55-1.2.82-5-3.66-7.07-7.43-9.39-4.91-3-9.92-6.29-15.3-8.39-1-.38-1.58,1-1,1.65Z"/><path class="a" d="M257.75,423.73a151.29,151.29,0,0,1-12.07-12.32c-1.16-1.36-3.24.67-2,2,3.61,3.73,7.36,7.32,11.2,10.82l2.87-2.87-12.41-10.18a2.21,2.21,0,0,0-3.12,3.12A53.51,53.51,0,0,0,256.4,427c2.76,1.71,5.23-2.58,2.53-4.33-5.74-3.72-10.78-7.63-15.11-13-1.37-1.69-4.24.13-3.6,2.1L246.16,430l3.94-1.66a94.59,94.59,0,0,1-8.74-19.12c-1-3.06-5.81-1.79-4.87,1.34,1.88,6.24,3.83,12.43,5.91,18.61,1.17,3.47,5.84,2,5.35-1.48a60,60,0,0,0-3.8-14.08,2.63,2.63,0,0,0-5.07,1.4,31.34,31.34,0,0,0,7.75,15.42c1.36,1.51,4.35.38,4.17-1.73l-.53-6.37-4,1.68q3.83,3.6,7.63,7.24c2.13,2,5.38-1.19,3.25-3.25q-3.79-3.64-7.53-7.34c-1.39-1.37-4.18-.43-4,1.68l.39,6.37,4.17-1.73A26.6,26.6,0,0,1,244,413.62l-5.07,1.4a60.79,60.79,0,0,1,3.42,13.42l5.45-.74c-2-6.2-4.17-12.34-6.39-18.47l-4.87,1.34a135,135,0,0,0,9.88,20c1.23,2,4.72.72,3.94-1.66l-5.93-18.25-3.6,2.1A62.1,62.1,0,0,0,256.4,427l2.53-4.33a48,48,0,0,1-13.59-11.49l-3.12,3.12,12.66,9.93c2,1.57,4.87-1.12,2.87-2.87-4-3.51-8.14-6.9-12.37-10.15L244,413.6a149.45,149.45,0,0,1,13.57,10.32c.14.11.33-.07.2-.2Z"/><path class="a" d="M252.55,394.63a14.91,14.91,0,0,0,3.84,10.69c1.3,1.46,3.64-.09,3.18-1.85-1.14-4.34-2.48-8.63-3.79-12.92l-4.57,1.93a129,129,0,0,0,7.93,12.9c1.88,2.68,5.44,1.5,5.83-1.58.92-7.28-.24-13.65-2.39-20.58-.78-2.52-5.11-2.23-4.83.65a87.15,87.15,0,0,0,8,28.84c1.66,3.53,6.3,1.32,6.62-1.79.9-8.76-1.39-17.17-5.61-24.81-1.63-2.94-6.9-.92-5.58,2.35,1.84,4.57,3.31,9.31,4.93,14,1.28,3.68,6.81,3.16,6.91-.94A42,42,0,0,0,263.77,374l-5,5c2.73,3.39,2.86,8.22,5.14,11.91a12.42,12.42,0,0,0,7.92,6,4.18,4.18,0,0,0,5.09-5.09c-2.56-9.55-7.63-17-14.1-24.33-1.81-2.05-6.15-1.18-6.57,1.73-1,7.25,1.71,13.75,8.12,17.54,2.57,1.52,6.72-.38,6.39-3.67-.9-9-5.66-16-13.26-20.81-2.74-1.75-7.23,1.23-5.89,4.53a17.22,17.22,0,0,0,8.51,9.57c3,1.48,7.25-1,6-4.64a33.35,33.35,0,0,0-15-18.62,4.38,4.38,0,0,0-6.36,2.59c-1.17,4.67,1.06,8.21,5.4,9.9,3.06,1.2,6.46-2.42,5.4-5.4-1.6-4.53-4.6-9.77-10.16-9.38-4.71.33-8.28,4.52-6.9,9.18l5-5a23.1,23.1,0,0,0-21,5.34l3.57-.94c-5.62-1.25-11.61,5.15-13.67,9.93s-1,10.53,3.92,13.06c2.54,1.3,5-.36,5.27-3q.21-1.85.41-3.69l-7.27,1a40.61,40.61,0,0,1,2,6.91l3.89-5.11q-2,.16-4,.4l3.92,3-2.13-10c-.73-3.44-5.71-3.86-7.37-1-4.21,7.36-9,14.66-12.47,22.42-1.79,4,4.13,7.62,6,3.52a26.41,26.41,0,0,1,5-7.08c2.12-2.24,3.86-2.45,6.73-2.87a7.87,7.87,0,0,0,6.51-6.5,3.25,3.25,0,0,0-2.23-3.94c-5.05-1.11,2.87-7.79,4.05-8.78a32.43,32.43,0,0,1,9-5.34c3.6-1.47,6.38-3.37,5.78-7.53a2.05,2.05,0,0,0-2-1.51c-2.81.29-5.12.84-7.12,2.89-1.72,1.76,1.22,4.18,2.72,2.1l3.36-1.16-.74-2.82c-.9,1.81-3.88,1.83-5.56,2.42a23.69,23.69,0,0,0-5,2.45,42.73,42.73,0,0,0-9.72,8.25c-4,4.91-4,13.71,3.47,15.19l-2.23-3.94c-.47,2.52-4.39,1.84-6.08,2.47a11.34,11.34,0,0,0-3.06,1.91c-3.41,2.7-5.75,6.18-8.41,9.55l5.48,4.23c5.08-6.79,9.07-14.59,13.41-21.87l-7.37-1,2.06,10a4.07,4.07,0,0,0,3.92,3q2-.19,4-.47c2.5-.32,4.72-2.33,3.89-5.11a46.51,46.51,0,0,0-3-7.62c-1.69-3.39-6.87-1.64-6.89,1.87q0,1.85,0,3.69L219,376c-3.83-1.46.08-6.25,1.84-7.56,2.25-1.67,3.34-1.35,5.64-2.14s3.88-2.75,6.28-3.45a15.49,15.49,0,0,1,8.57.06,4.14,4.14,0,0,0,5-5,2.45,2.45,0,0,0-.08,2.81,13.14,13.14,0,0,1,.78,1.9l5.4-5.4.62.87-6.36,2.59A24.37,24.37,0,0,1,258.19,374l6-4.64a9.86,9.86,0,0,1-5.33-5.56l-5.48,5.48c5.39,3.28,8.1,8.92,9,15l6.24-4.8c-3.68-2-5.11-5.09-4.69-9.16l-6.71,2.78c5.55,5.77,9.21,13.45,11.68,21L274,389c-3.74-.63-4.68-4.47-5.9-7.57a23.77,23.77,0,0,0-4.31-7.38c-2.63-3-8,1-5.6,4.32A39.66,39.66,0,0,1,266,401.49l6.56-1.78c-1.84-4.27-3.84-8.52-5.47-12.88l-5.58,2.35c3.05,6.93,3.93,14.22,3.78,21.73l6.62-1.79a78.2,78.2,0,0,1-9.28-25.91l-4.74,1.31c1.37,6.24,1.28,12.92.87,19.27l5.34-2.21a123.08,123.08,0,0,1-8.53-11.63c-1.46-2.25-5.63-.86-4.57,1.93,1.66,4.37,3.31,8.75,5.14,13.06l3-2.3a15.1,15.1,0,0,1-5.43-8.16.57.57,0,0,0-1.1.15Z"/><path class="a" d="M238.47,352.4c-9.69-2.6-16.37,6.66-21.88,13.08-1.23,1.44.32,3.78,2.1,2.72C225.82,364,229.38,354,238.38,353a.33.33,0,0,0,.09-.64Z"/><path class="a" d="M239.48,352.27a2.14,2.14,0,0,0,.77-3.47c-2-2.57-7.54-.46-9.85.35-7.27,2.54-15.39,9-17.09,16.86a2.5,2.5,0,0,0,4.54,1.91c2.62-3.71,4.57-7.59,8.08-10.62a29.85,29.85,0,0,1,5.59-3.76,27.11,27.11,0,0,1,3.16-1.44c-.07,0,4.6-1.43,4.15-.47a.47.47,0,0,0,.64.64Z"/><path class="a" d="M238.94,350.77c-8.9,1.87-16.79,6.08-24.06,11.47-6.61,4.9-14.16,11.09-18.08,18.46-1.05,2,1.51,4.11,3.17,2.44,6-6.1,10.86-12.8,17.76-18.12,6.7-5.16,14.25-9.16,21.68-13.14.63-.34.18-1.25-.47-1.11Z"/><path class="a" d="M231.38,340.24l-1.94.47c-.66.16-.33,1.24.27,1l1.87-.74a.38.38,0,0,0-.2-.72Z"/><path class="a" d="M217.74,344.57c-9,6.4-18.25,11.81-25.08,20.78s-8.67,18.94-7.51,30,2.8,21.91,9.86,30.87a42.75,42.75,0,0,0,25,15.52c20.92,4.28,46.89.5,60.42-17.64s10.69-42.09-2-59.73c-14.45-20.13-41.15-29.76-63.95-17.79-1.94,1-.24,3.83,1.7,2.91,39.43-18.54,86.37,29.38,65,68.13-10.21,18.55-33.92,25.95-54,23a50.17,50.17,0,0,1-26.57-13.27c-7.17-7-9.91-15.68-11.26-25.39-1.67-11.94-2.07-23,5.09-33.3,6.13-8.82,15.24-16.69,23.95-22.85.73-.52,0-1.74-.71-1.21Z"/><path class="a" d="M227.42,350.28C204.2,352,190.88,378.76,198,399.71a1.46,1.46,0,0,0,2.85-.39c0-10.87-.17-20.93,4.71-31a33.24,33.24,0,0,1,21.93-17.61c.25-.06.2-.48-.06-.46Z"/><path class="a" d="M198.9,377.09c-7.5-4.2-7.59,11.33-7.4,14.85.52,9.37,3.08,20.57,9.76,27.53,1.2,1.25,3.73,0,3.06-1.78-2.27-5.88-5.32-11.26-6.77-17.46-.47-2-3.29-21.06.66-20.6,1.38.16,1.79-1.91.69-2.53Z"/><path class="a" d="M197.6,411.45c3.87,7.83,9.08,15.34,16.24,20.46,1.13.81,2.47-1,1.48-1.91-6.27-5.92-12.14-11.74-16.58-19.21a.66.66,0,0,0-1.13.66Z"/><path class="a" d="M387.06,83.4c-4.88-1.32-9.13,3.16-12.11,6.5-5,5.57-9.61,11.49-14.3,17.3-9.41,11.66-18.82,23.44-27.49,35.66l5.85,3.42c1.52-2.6,3.23-5.09,4.12-8,.53-1.73-1.65-3.63-3.24-2.49-2.45,1.77-4.23,4.09-6.2,6.37-3.18,3.67,2.39,8.08,5.32,4.11,8.18-11.08,16.11-22.33,24.46-33.28,4.3-5.64,8.65-11.26,13.09-16.79,3.3-4.11,8.08-7.49,10.89-11.84a.66.66,0,0,0-.39-1Z"/><path class="a" d="M449,71.55c-.66-1.6-1.32-2.4-3.15-2.73-4.13-.73-5.79,5.69-1.72,6.25,10.45,1.44,21.13,1.6,31.65,2.24,5.13.31,10.26.65,15.4.91s9.4.28,14,2.22a4.33,4.33,0,0,0,4.31-1.14,4.26,4.26,0,0,0,.69-.9,4.55,4.55,0,0,0-1.59-6.06c-3.39-2.44-7.63-2.73-11.68-2.9-5.77-.24-11.55-.31-17.32-.41-11.49-.2-23.17-1-34.64-.35L448.2,72l-.08-.76-1.16,2,.88-.19A1.18,1.18,0,0,0,449,71.55Z"/><path class="a" d="M333.62,148.5c29.12-10.15,58-21.12,86.66-32.41L462.93,99.3c7.11-2.8,14.19-5.58,21.42-8.07,6.91-2.37,14.77-5.11,21-8.93,3.13-1.92,1.06-6.61-2.46-5.83-7.14,1.59-14.68,5.09-21.3,8.21-7,3.29-14.07,6.2-21.19,9.16l-43.35,18c-28,11.65-56,23.64-83.54,36.39-.14.07,0,.31.11.26Z"/><path class="a" d="M380.52,87.53c.2,1.5,1.26,3.19,2.88,3.36a.66.66,0,0,0,.46-1.12,2.26,2.26,0,0,1-.82-2.24,1.32,1.32,0,0,0-1.26-1.66,1.34,1.34,0,0,0-1.26,1.66Z"/><path class="a" d="M385.93,94.6c-1.08-2.66-3-6.32-2.19-9.31s-4.28-3.19-3.62,0a113.57,113.57,0,0,0,11.5,30.89c1.65,3.06,6,.37,4.6-2.69a23.31,23.31,0,0,0-4-6.06,1.09,1.09,0,0,0-1.84.76,23.64,23.64,0,0,0,.95,7.35l4.86-2.05a132.27,132.27,0,0,1-12.48-29.2L381,86.41c2.66,1.55,3.82,5.63,4.85,8.22,0,.06.12,0,.1,0Z"/><path class="a" d="M386.6,94.41c-.9-2.11-.1-3.08-2.35-4.46a.31.31,0,0,0-.45.35c.89,3.3.18,4.91,1.42,8.07a58.47,58.47,0,0,0,3.06,6.47c2.12,3.91,4.39,9,8.32,11.29a2.13,2.13,0,0,0,3.1-2.38c-1.31-4.86-5.73-9.24-8.26-13.6-.75-1.29-2.57-6.07-3.86-6.58-.71-.28-1.74-.11-1.22,1,.08.17.31,0,.24-.14Z"/><path class="a" d="M400.36,116.58c4.66-10.92,6.35-23.28,8.76-34.83a2.06,2.06,0,0,0-4-1.1,149.73,149.73,0,0,0-6.08,32.66c-.2,2.74,4.25,3.35,4.81.65q4.08-19.66,8.5-39.25l-5.24.69c7.59,11.81,18.24,22.38,31.11,28.25,3.07,1.4,5.74-2.86,2.7-4.61a87.54,87.54,0,0,1-28.85-26.53c-1.27-1.83-4.75-1.94-5.24.69q-3.7,19.77-7.69,39.47l4.81.65a159.59,159.59,0,0,1,5.16-31.57l-4.05-.55c-.54,12-3.94,23-6.25,34.73-.17.87,1.14,1.59,1.54.65Z"/><path class="a" d="M415.23,80.57a135.44,135.44,0,0,0,13.35,17.27c3,3.47,7.27,9,12.57,7.24a2.86,2.86,0,0,0,2-3.46l-.17-.57a1.86,1.86,0,0,0-1.31-1.31c-2.16-.39-3.88-.16-5.71-1.75-2.2-1.92-4.24-4.13-6.31-6.19-4.21-4.18-8.09-8.67-12.32-12.83a1.32,1.32,0,0,0-2.06,1.59Z"/><path class="a" d="M442.27,101.6c2.17-11.11,3.07-22.36,4.74-33.54.58-3.92-5.11-4.71-5.38-.73-.37,5.65-.75,11.3-1.22,16.95l4.42-.6-1.46-3.47c-.65-1.54-3.1-.7-3.06.83q0,1.62.09,3.24c.09,3,4.17,2.81,4.5,0,.64-5.42,1.36-10.81,2.09-16.22l-5.38-.73c-.19,11.37-1.15,22.69-.83,34.07,0,.81,1.3,1.06,1.47.2Z"/><path class="a" d="M386.29,78c3.43-7.37,6.14-15.06,9-22.66,3-8,6.51-15.88,9.25-24,.54-1.59-1.94-2.24-2.5-.69-5,13.72-10.22,27.2-13.92,41.34-.26,1,1.24,1.7,1.7.72,7.57-16,13.8-32.66,20.56-49l-3.71.49c3.8,8.69,9.92,16.35,16,23.51,3.44,4,6.95,8.11,10.71,11.84,3.17,3.15,7.17,5.19,10.31,8.37l.61-1.47c-5.27.28-10.54-2.72-15-5.15-4.92-2.66-9.64-5.65-14.42-8.55-4.35-2.63-8.64-5.43-13.12-7.83-5.88-3.15-13.94-2.67-20.28-1.64-3,.49-2.34,5.74.73,5.37a107.19,107.19,0,0,0,52.13-21.06L431,23.2c-8.64,8.73-15.19,19.11-22,29.25-7.17,10.65-14.64,19.83-25.24,27.18l5.16,3a5.21,5.21,0,0,1,2-4.3c2.08-2-.55-5.16-3-3.9a11,11,0,0,0-5.67,7.29c-.87,3,2.47,5.24,5,3.87,10.57-5.64,18.17-16.57,24.66-26.28,7.33-11,13.86-22.59,23.11-32.09,2.14-2.19-.78-6.41-3.41-4.42a103.5,103.5,0,0,1-49.29,20.45l.73,5.37a38.69,38.69,0,0,1,13.57.16c3.12.56,6.34.63,9.32,1.78,4.75,1.85,9,4.71,13.4,7.3,7.09,4.19,16.4,10.94,25.1,10.37a.87.87,0,0,0,.61-1.47c-3.05-3-4.86-6.85-7.69-10-3.35-3.78-6.92-7.36-10.24-11.17-6.27-7.18-12.72-14.68-16.85-23.35-.82-1.73-3.16-1-3.71.49C400.3,39,393.5,55.33,388.14,72l1.8.5c3.25-14,7.47-28.22,14.49-40.84l-2.24-1.31c-3.78,7.15-6.67,14.75-9.64,22.27-3.16,8-6.28,16.16-8.24,24.57-.26,1.13,1.43,2,2,.83Z"/><path class="a" d="M354.57,122.06l.34.28a1.82,1.82,0,0,0,2.48,0c1-.88,1.09-1.49.89-2.8a1.83,1.83,0,0,0-1.75-1.33c-3.92-.32-7.77,4.71-10.29,7.21a47.25,47.25,0,0,0-9.4,13,2.53,2.53,0,0,0,4,3c11.1-10.25,19.33-21.68,26.63-34.82l-4.34-1.83a156.68,156.68,0,0,1-19,35l4.71,2.75Q363,120.9,377.4,99.38L371.66,96q-11,18.64-21.78,37.44c-2.35,4.11,3.94,7.78,6.34,3.71a195.23,195.23,0,0,1,27.52-36.22L378.5,95.7a147.79,147.79,0,0,0-22,37.6c-1.58,3.95,4.74,6.42,6.77,2.85a144.9,144.9,0,0,1,21.06-28.37l-5.85-4.52a136.53,136.53,0,0,0-17.26,32.35c-1.54,4.14,4.7,6.39,6.89,2.91a97,97,0,0,1,18.75-21.77l-5.68-4.38a80.51,80.51,0,0,0-6.19,13c-1.26,3.36,3.61,6,5.93,3.45a73.37,73.37,0,0,1,8.75-8l-4.49-4.49a15.52,15.52,0,0,0-5,8.71c-.47,2.51,2,4.87,4.47,3.44a29.47,29.47,0,0,0,6.9-5.55l-5-1.31.07,2c-.41,2,1.34,4.35,3.57,3.57a52.87,52.87,0,0,0,27.08-21.32c1.83-2.89-2.65-6.51-4.83-3.73a53.11,53.11,0,0,0-6.6,10.67c-1.49,3.26,2.34,6.75,5.17,4A25.82,25.82,0,0,0,419,97.56c0-3-3.35-3.88-5.43-2.25a19.24,19.24,0,0,0-6,7.88c-1.56,3.64,3.09,6.56,5.4,3.15a86.82,86.82,0,0,0,9.87-19.45c1-2.67-2.21-4.19-4.28-3.29a13.86,13.86,0,0,0-7.83,8.71c-1,3.1,3.8,5.17,5.31,2.24a30.1,30.1,0,0,0,3.13-10.24c.24-1.88-2.12-3.51-3.81-2.9l-1-.32c-1.12-2.12-5.19-1.91-5.55.72-.66,4.86-1.26,9.74-2,14.59-.47,3,2.79,5.32,5.25,3.05a13.77,13.77,0,0,0,4.71-11.38,2.94,2.94,0,0,0-5.75-.78c-2.78,8.76-5.5,17.12-7.25,26.19a3.61,3.61,0,0,0,6,3.48c5.13-4.55,9-10.85,12.79-16.54l-6.11-2.58-3.08,9.79c-1.09,3.45,3.39,5.67,5.82,3.39,3.38-3.16,6.18-7.11,9.67-10.06l-4.62-3.56c-1.81,3-3.51,6-5.12,9.15s1,5.81,4.09,5.32a25.83,25.83,0,0,0,15.22-7.69c2.45-2.45-.71-6.73-3.75-4.86a43.88,43.88,0,0,1-13.39,5.56l4.09,5.32c1.54-3.5,2.93-6.95,4.24-10.54,1-2.77-3-5-4.91-2.86-3.08,3.36-7.17,6.06-10.44,9.29l5.82,3.39,2.81-9.87c1.05-3.7-4.13-5.76-6.11-2.58-3.46,5.56-7.93,9.87-12.07,14.85l6.11,2.53c.44-8.21,2.1-17.35,5.58-24.88l-5.46-1.48A11.15,11.15,0,0,1,407.55,95l5.36,2.22c.52-4.88,1.19-9.75,1.8-14.62l-5.65,1.53a6.19,6.19,0,0,0,7.83,3.06l-3.81-2.9A22.68,22.68,0,0,1,411,91.61l5.31,2.24a6.77,6.77,0,0,1,4.48-4.92l-3.29-4.28a126.67,126.67,0,0,1-9.93,18.54l5.71,2.41a11.94,11.94,0,0,1,4.15-5.29l-4.78-2.75a21.15,21.15,0,0,1-6.12,14.62l5.5,3.2a46.46,46.46,0,0,1,5.42-9.47l-5.31-3.1a40.21,40.21,0,0,1-23.31,18.83l3.57,3.57a10.73,10.73,0,0,0,.06-5.14c-.46-2.21-3.47-2.83-5-1.31a26.18,26.18,0,0,1-5.77,4.49l4.47,3.44a8.15,8.15,0,0,1,2.93-5.34c3.15-2.39.41-7.63-3.2-5.48a45.47,45.47,0,0,0-9.93,8l5.93,3.45A69.94,69.94,0,0,1,387.46,116c2.24-3.68-2.67-6.94-5.68-4.38a103.62,103.62,0,0,0-20.14,23.08l6.89,2.91A136.68,136.68,0,0,1,384.95,107c2.47-3.47-3-7.56-5.85-4.52a156,156,0,0,0-22.18,29.9l6.77,2.85a135.9,135.9,0,0,1,20.06-34.33c2.91-3.63-1.86-8.76-5.24-5.24a203.2,203.2,0,0,0-28.62,37.75l6.34,3.71Q367,118.34,377.4,99.38c2.07-3.76-3.48-7-5.75-3.36Q358,117.95,344.1,139.76c-1.9,3,2.74,5.61,4.71,2.75a161.56,161.56,0,0,0,18.86-36.46c.93-2.53-3.09-4.19-4.34-1.83-6.62,12.41-16,23.91-26.09,33.66l4,3a43.41,43.41,0,0,1,6.7-10.39c1.66-1.95,6.14-8.69,8.65-8.71l-1.75-1.33.12-.64,2.13-.27-.37-.25c-1.61-1.09-3.64,1.47-2.1,2.72Z"/><path class="a" d="M454.74,85.26a18.93,18.93,0,0,0,.1-2.61c0-2.47-3.59-4.42-5.32-2.2a107.35,107.35,0,0,1-8.84,10c-3.58,3.57,1.92,9.06,5.54,5.54,5.71-5.56,9.23-13.47,11.15-21.12.89-3.53-3.81-6.8-6.45-3.76a28.11,28.11,0,0,0-6.12,11.31,4.16,4.16,0,0,0,6,4.64,102.88,102.88,0,0,0,13.79-10l-6.41-4.94A71.71,71.71,0,0,0,447,95.36a4,4,0,0,0,6.71,3.91c7.44-7.41,14.46-15.23,22.06-22.48l-5.25-5.25L456.81,87.67a4.22,4.22,0,0,0,5.09,6.59,34.16,34.16,0,0,0,11.82-9.08L466.94,80A51.91,51.91,0,0,1,456.48,91.7c-4.05,3.32,1.7,8.89,5.71,5.71a76.7,76.7,0,0,1,23.16-12.79l-5.48-5.48a12.67,12.67,0,0,1-4,6.37c-3.84,3.72,1.42,11,5.88,7.62,3.82-2.94,7.4-6.23,11.47-8.8,4.5-2.84,1.53-9.38-3.53-8.38-4.43.88-7.73,3.71-8.74,8.16-1.14,5,5.91,8.44,8.57,3.61.63-1.15,1.28-2.44,2.61-2.93l-4.46-7.66c-3.35,2.86-7.22,5.08-10.81,7.63l5.88,7.62a18.77,18.77,0,0,0,5.75-10.86c.69-4-2.88-6.62-6.54-5A110.77,110.77,0,0,0,456.48,91.7l5.71,5.71a67,67,0,0,0,12.2-13.11c2.79-4-3.61-9-6.77-5.23a32.23,32.23,0,0,1-10,7.93l5.09,6.59,13-16.82c2.83-3.66-1.85-8.82-5.25-5.25-7.26,7.59-15.07,14.62-22.49,22.06l6.71,3.91a60.41,60.41,0,0,1,10.55-21.28c3-4-3.12-7.58-6.41-4.94-3.89,3.12-8,5.94-12.17,8.68l6,4.64a19.21,19.21,0,0,1,3.65-8l-6.45-3.76c-1.53,7-4.8,12.12-9.24,17.63L446.22,96a115.31,115.31,0,0,0,8.19-11.74H449a18.61,18.61,0,0,0,1.33,2.22,2.36,2.36,0,0,0,4.37-1.18Z"/><path class="a" d="M71.9,166.71c-3.71-.36-4,4.77-3,7.24,1.58,4,6,4.58,9.39,2.45S86,169,81,165.85c-3.36-2.07-8.43-.47-9.78,3.31-1.52,4.26,2.29,9,6.71,8.84s6.92-5,5.7-9c-1.64-5.27-8.65-5.58-12.52-2.78-4.27,3.09-4.95,9.35-.68,12.81a6.82,6.82,0,0,0,11-5.8,5.46,5.46,0,0,0-4.71-5.06c-2.27-.31-5.15.62-5.62,3.13a1.66,1.66,0,0,0,2,2c.87-.22,3.84-.58,2.47,1.21s-3.09-1.08-2.56-2.52c.62-1.68,4.37-3.57,5.63-1.57.77,1.22-.36,3.14-1.79,2.81a2.17,2.17,0,0,1-.23-4.21c.72-.27,2.52-.41,2.89.58s-2.43,3.22-3.05,3.64c-1.85,1.24-3.95,1.23-4.94-1-.78-1.72-.12-3.6.58-5.22a.29.29,0,0,0-.24-.42Z"/><path class="a" d="M40.89,198.38a5,5,0,0,0-.6,6.7,3.88,3.88,0,0,0,1.42,1.24c.87.4,1.62-.05,2.42-.44,1.28-.62,3.77-1.88,4.18-3.36.94-3.33-3.42-5.95-6.22-5.1a5,5,0,0,0-2.51,7.46,1.81,1.81,0,0,0,2.43.64,6.68,6.68,0,0,0,3.23-6.24c-.06-.7-.51-1.62-1.32-1.73a5,5,0,0,0-5.84,3.92c-.43,2.62,1.52,5.42,4.29,5.27a1.51,1.51,0,0,0,.76-2.8c-.62-.34-1.59-1-1.49-1.86s1.08-1.09,1.8-1l-1.8-1.8a3.16,3.16,0,0,1-1.43,3.17l2.43.64a1.55,1.55,0,0,1,.29-2.23c.82-.47,1.95.35,2.05,1.22l.5-1.2a13.18,13.18,0,0,1-3.78,3h1.41a3,3,0,0,1-1.23-4.53.7.7,0,0,0-1-1Z"/><path class="a" d="M72,231.9a78.93,78.93,0,0,0,31.61-29.47c7.54-12.68,13-27.48,4-40.78-17.25-25.41-52.42-34-78.91-18.18-1.06.63-.13,2.1.95,1.62,25.8-11.39,57.72-5.19,74.09,18.83,4.76,7,5.63,13.9,3.16,22a74.8,74.8,0,0,1-8,17.34,89,89,0,0,1-27.25,28,.38.38,0,0,0,.38.65Z"/><path class="a" d="M82.38,173.17c11.24-1.38,11.5-14.08,10.58-22.79a1.85,1.85,0,0,0-3.69,0c-.67,5.82-1.14,11.76-3.32,17.26s-6,8.94-10.89,12.29a1.32,1.32,0,0,0,1,2.4c13.19-3,15.9-21,16.89-32l-3.63.49c1.38,7.78,2.38,18.82-7,22-.14,0-.13.3,0,.28Z"/><path class="a" d="M89.8,163.9c-1.75-7.71-4.29-13.33-11-17.79L77,150.39a5.37,5.37,0,0,0,6.63-2.79h-4.2a51.78,51.78,0,0,1,4.79,11.54,46,46,0,0,1,1.19,5.66,17.3,17.3,0,0,1,.3,2.67q-.7,4.28-1.14,2.2c.17-.87-1-1.78-1.65-1-3.45,4.1,4.1,8.89,7.37,3.91,2.17-3.31.91-8,.07-11.52a56.19,56.19,0,0,0-6.72-16c-.9-1.48-3.36-1.69-4.2,0l-1.19.73a2.35,2.35,0,0,0-1.8,4.28c5.24,3.19,10.88,8.06,13.19,13.8a.09.09,0,0,0,.18,0Z"/><path class="a" d="M86.33,159.22a78.11,78.11,0,0,0-13.55-25.1L68.86,138c6.28,5.62,11.24,11.26,14.2,19.3,2.81,7.63,2.42,15.09,3,23a1.74,1.74,0,0,0,3.41.46c6.18-15.65-4.59-37.71-17.21-47.16-2.49-1.87-5.81,2.38-3.36,4.35a58.4,58.4,0,0,1,16.61,21.55c.22.48,1,.14.86-.36Z"/><path class="a" d="M88.06,156.32c-1.73,7-3.64,14.67-8.49,20.2a18.22,18.22,0,0,1-8.8,5.65c-2.76.73-5.47,0-8.17.65A1.32,1.32,0,0,0,62,185c5.2,4.68,14.48-.37,18.59-4.39,6.5-6.35,8.07-15.49,8.29-24.2a.42.42,0,0,0-.83-.11Z"/><path class="a" d="M71.59,183.58a37,37,0,0,0-9.36,2.31l1.3,2.23c4.6-3.74,10.36.14,12.07,4.86,1.17,3.25,1,6.89.55,10.25-.9,6.86-4.17,12.39-6.11,18.87a1.46,1.46,0,0,0,2.43,1.41c7.14-6.77,9.65-21.55,6.63-30.69-2.38-7.23-11-12.3-17.46-6.59-1,.85.06,2.74,1.3,2.23a37.58,37.58,0,0,0,8.72-4.63c.1-.07.08-.28-.07-.26Z"/><path class="a" d="M76.57,211.64c2.84-3.76,5.86-7.8,10.08-10.11,4.67-2.56,8.43-1,13.06.33a1.32,1.32,0,0,0,1.28-2.19c-3.21-3.61-8.83-2.47-12.62-.48-5.34,2.8-8.66,7.47-12,12.36-.07.1.09.19.16.09Z"/><path class="a" d="M42.46,204.9c8.95.11,16.95-6.92,21.44-14.08,1.07-1.7-1.51-3.78-2.83-2.18-7.72,9.32-9.21,22.82.48,31.55l1.63-2.11a12.18,12.18,0,0,0-17.44,7.34H48.1a12,12,0,0,0-13-9.58l1.66,2.89c3.09-4,6.74-10.87,4.66-16a1.37,1.37,0,0,0-2.62,0c-.93,2.22-.81,4.57-1.53,6.87a23.26,23.26,0,0,1-3.83,7.19c-1.13,1.49.73,3.08,2.17,2.83a8.71,8.71,0,0,1,10.11,6.45,1.23,1.23,0,0,0,2.36,0,9.57,9.57,0,0,1,13.72-5.67c1.3.72,2.78-1,1.63-2.11-7-6.46-8.79-20.66-.19-26.82L60.79,189c-4.8,7.42-11.22,10.91-18.47,15.38a.28.28,0,0,0,.14.52Z"/><path class="a" d="M77.14,177.1c-2.24,3.09-7.28,12.51-1,14.51,2.16.69,4.13-.45,5.65-1.93,3.21-3.12,5.81-7.24,8.6-10.75l-4.87-2.83a111.86,111.86,0,0,1-6.71,20.42c-1.61,3.8,3.15,8.86,6.39,4.93,7.08-8.58,10.94-18.87,12.85-29.72.56-3.21-4-5.81-5.69-2.4A273.8,273.8,0,0,0,81,197.41c-1.18,3.31,3.85,6.43,6.1,3.55a68,68,0,0,0,9.14-15c2.42-5.63,3.45-11.72,5.27-17.54,1-3.35-4-4.63-5.19-1.43-2.15,5.75-2.43,12.28-1.93,18.35.37,4.42,7.16,4.55,7,0-.44-11.62-2.75-23.2-2.7-34.83,0-3.72-6.09-4.8-6.7-.91a35.7,35.7,0,0,0,8.33,28.82c2.91,3.34,7.87-.92,5.93-4.57-1.79-3.37-4.89-9.47-1.15-12.57H99.72c3.16,2.56,2.06,7.74,2,11.36l-.06,16.54h9c-.26-5-1.19-9.87-1.43-14.83-.18-3.59-6.06-4.88-6.66-.9-.95,6.23-2.22,12.34-5.39,17.85l6.06-1.59a22.13,22.13,0,0,0-4.84-2.07c-4.73-1.61-6.72,5-3.18,7.54a21.75,21.75,0,0,0,4.61,2.62c2.1.88,5-1,5.44-3.09,1.34-6.8,3.12-13.45,4-20.35h-6.78c0,5-.73,9.88-.77,14.83,0,5.78,9,5.79,9,0-.07-7.67.4-15.57-.33-23.21-.47-4.89-2.08-9.21-7-11a3.81,3.81,0,0,0-4.27,1.74c-4,6.56-2.43,13.25.18,20.06l6.9-2.91a45.51,45.51,0,0,1-7.56-23.34l-6.7.91c1.74,11.18,1.15,22.68,2.41,33.92l6.86-.93c-.9-5.69-.31-11,.36-16.7H96.2c-.46,10.25-7.5,20.74-14.29,28.13l6.1,3.55a265.9,265.9,0,0,0,10-27.62l-6-1.65c-3,9.53-8,18-13.23,26.45l7.44,3.14c1.95-7.28,3.31-14.65,4.89-22,.55-2.57-2.9-5.29-4.87-2.83-2.24,2.8-5.36,5.65-7.05,8.8L78,185.08q1.09,3.16,1-1.59c.31-1.71.8-3.42,1.26-5.09.53-1.94-2-2.79-3.08-1.3Z"/><path class="a" d="M45.26,207c-.39,2.14-3,3-2.15,5.59a4.51,4.51,0,0,0,4.14,2.84,4.69,4.69,0,0,0,4.83-3c1.17-2.77.17-5.29-1.31-7.7a1.69,1.69,0,0,0-1.84-.75c-5.06.88-10.44,6.07-6.42,11.18,3.71,4.72,11.27-.27,8.16-5.45-1.17-1.95-4.16-2.05-6.05-1.23a6.06,6.06,0,0,0-3.43,6.58,6.78,6.78,0,0,0,7,5.49c3.8-.34,5.38-3.58,6.64-6.7.91-2.25-2.35-3.76-3.88-2.26-2.35,2.32-.5,6.43,2.8,6.45s4.93-3.75,4.27-6.58c-.49-2.12-2.34-5.4-4.8-5.39-2.87,0-4.85,3.09-2.8,5.36a1.85,1.85,0,0,0,3.12-1.29q-.1-1,.78.12a8.52,8.52,0,0,0-.3.91q-.14.47-.25,1-.91,1.28.82,2.3l-4.24-1.79c-.21,1.45-2,1.81-3.25,1.19-.68-.35-1.27-1.15-1-1.85.21-.51,2-1.73,2-.37,0,.42-1.3,1.32-1.72,1.39a2.38,2.38,0,0,1-2.47-1.9c-.91-3.05,2.42-4.65,4.92-4l-1.19-1.57a22.1,22.1,0,0,1,.17,3.27c-.05,1.34-.12,1.42-1.11,2-.18.09,0,.4.28-.07s.44-.75.62-1.15a4.58,4.58,0,0,0,.49-2.21c-.05-1.61-2.63-2.13-2.95-.4Z"/><path class="a" d="M17.14,147.26a71.27,71.27,0,0,1-7.79,4.81c-1.82,1-1,4.14,1.08,4,4.28-.34,8.6-2.27,11-6A2.48,2.48,0,0,0,18,146.7c-4.55,2.82-9.4,5-13.81,8.08-2.38,1.69-.33,5.38,2.32,4,1.58-.85,3.16-1.66,4.66-2.64,2.39-1.57.33-4.81-2.19-3.74-3,1.26-5.68,2.28-8.21,4.34l3.43,3.43a23.49,23.49,0,0,1,2.27-2.07c1.3-1,1-3.26-.88-3.23A6.51,6.51,0,0,0,.79,156.7c-2.35,2.09,1.07,5.43,3.43,3.43,1.92-1.63,3.95-3.23,6.46-3.81l-1.67-4c-1.65.71-3.21,1.57-4.79,2.42l2.32,4c4-2.85,8.62-6.14,13.39-7.54l-2.39-4.11c-2.46,2.17-4.45,3.83-7.66,4.77l2.07,3.56A71.65,71.65,0,0,1,18.45,149c.9-.81-.29-2.4-1.31-1.69Z"/><path class="a" d="M11.64,151.67a9,9,0,0,0-2.27-1.79c-2.64-1.81-5.28,2.07-3.29,4.26,3.33,3.67,10,4.2,14.37,2.41a3.25,3.25,0,0,0,.76-5.85c-3.6-2.53-11.82-1.38-10.83,4.36a2,2,0,0,0,2.42,1.38c1.5-.4,3.19-2.14,4.53-.71l1.41-5.35a16.85,16.85,0,0,1-5,.35c-1.69-.2-3.31-.85-5-1.13l1.89,3.34.31-1.25-.89.68,1.28.1c.45,0,.55-.52.33-.8Z"/><path class="a" d="M289.52,37.22l.42.54c1,1.32,3,1.13,4.28.55,7.84-3.47,15.65-7,23.42-10.6l-5.14-5.14c-7.13,11.81-13.77,23.9-21,35.63-1.5,2.43,1.65,6,4.14,4.14,7-5.26,14.36-8.75,22.11-12.63,3-1.5.91-6.39-2.28-5.4-8.28,2.58-16,7.58-22.89,12.8l4.14,4.14c7.19-11.79,15-23.19,22.28-34.9,2.16-3.45-2-6.59-5.14-5.14-7.78,3.57-15.49,7.25-23.2,11a3.58,3.58,0,0,0-1.62,4,2.4,2.4,0,0,0,.49,1Z"/><path class="a" d="M321,36.31c1.5-1.28,4.27-3.8,6.33-3.81q4.42,2.26,1.4,4.34L327.38,38c-1.56,1.55-2.67,2.6-3.3,4.75a2,2,0,0,0,2.4,2.4c1.93-.51,7.37-.18,5.69,2.51-.53.84-2.43,1.91-3.14,2.46-2.27,1.76-4.65,3.39-6.76,5.34s.77,6.12,3.29,4.27a95,95,0,0,0,9.62-8.29c1.54-1.5,2.91-3.06,2.76-5.38-.41-6.49-8.12-6.11-12.5-4.67l2.4,2.4c1-4.21,9.36-7.68,4.06-12.65-4.49-4.21-9.82.13-12.49,4-.67,1,.75,1.88,1.55,1.19Z"/><path class="a" d="M318.9.44C301-2.47,285.27,9.45,279,25.71c-6.14,15.92-5.28,38.42,9.21,49.65C301.42,85.6,321,84,334,74.34c15.59-11.59,18.47-30,10.58-47.18C336.38,9.41,316.63-6.21,296.7,3.65c-3,1.51-.89,6.83,2.35,5.57,14.87-5.76,28.34,3.78,35.76,16.29,7.77,13.09,9.48,28.46-2.23,39.76-9.19,8.87-23.78,12-35.56,6.56-14.08-6.53-16.37-24.51-13.87-38.24,3.11-17.08,16.91-31.79,35.29-29.73,1.92.22,2.39-3.09.46-3.41Z"/></svg>