<svg xmlns="http://www.w3.org/2000/svg" viewBox="0 0 324 610.95"><defs><style>.a{fill:gray;}</style></defs><title>logobatchgrey</title><path class="a" d="M217.18,144.45a10.68,10.68,0,0,0,1-2l-2.82-.76a96.77,96.77,0,0,0,1.77,10.61c.52,2.12,3.65,1.21,3.25-.9A72.08,72.08,0,0,1,218.78,137c.06-2.79-4.41-2.8-4.34,0a106.19,106.19,0,0,0,3.17,23.12c.86,3.37,5.84,1.93,5.17-1.43-.88-4.42-1.58-8.85-2.26-13.3-.54-3.51-.3-7.44-2.83-10.1a1.32,1.32,0,0,0-2.06.27c-1.53,3.06-.45,6,0,9.32.69,4.84,1.38,9.66,1.86,14.53l5.27-.71c-1.14-7.42-2.51-14.93-4.08-22.27l-4,1.67c1.78,3.94,2.42,9.48,2.35,13.73h3.37a96.81,96.81,0,0,0-2.1-10.56c-.46-1.91-3.56-1-2.92.81a21,21,0,0,0,.94,2.33.47.47,0,0,0,.81,0Z"/><path class="a" d="M260,133.72l0-.21-3-1.26c.24,9.25,2.76,18.61,4.53,27.66,1.08,5.54,9.55,3.2,8.46-2.33a20.57,20.57,0,0,0-3.45-7.54,2.88,2.88,0,0,0-5.24,2.21c.44,2.31.84,4.61,1.41,6.89.92,3.69,6.22,2.08,5.6-1.55-.39-2.31-1-4.59-1.48-6.87l-5.53,1.52a23,23,0,0,1,.06,6.49l8.18-2.22c-3.55-8.23-5.74-16.95-9.24-25.17-1-2.32-5.12.45-2.43,2.43a2.9,2.9,0,0,0,1,.58c.46.21,1.19,0,1.13-.65Z"/><path class="a" d="M218.66,155.79A42.51,42.51,0,0,0,222,167.85c1.37,3,5.76.4,4.45-2.6a11.72,11.72,0,0,1-.89-4.55l-3.74.51a58.9,58.9,0,0,1,.22,8.61,2.09,2.09,0,0,0,2.62,2c4.07-1.2,8.17-2.29,12.27-3.37l-.87-3.17c-3.79,1.06-7.23,1.73-11.17,1.11v4.56c2.31-.47,4.64-.93,6.93-1.5s4.37-1.91,6.67-2.45a1.75,1.75,0,0,0,1.28-1.68c-.17-1.92-.35-3.83-.5-5.75a1.8,1.8,0,0,0-3.53-.48,11.57,11.57,0,0,0,0,7c.67,2.3,4.36,1.93,4.27-.58a31.87,31.87,0,0,0-2.75-11.8c-1.21-2.8-5-.64-4.59,1.93a26.31,26.31,0,0,0,2.22,6.87c1.31,2.8,6.2.8,5.05-2.13a37.91,37.91,0,0,1-2.22-6.85,2.48,2.48,0,0,0-2.34-1.78l-.31,0c-1.26-.13-2.11,1.12-2.21,2.21l0,.27a2,2,0,0,0,1.49,2l.24,0a1.9,1.9,0,0,0,2.31-2.31l-.06-.22-1.41,2.49.26-.09-2.72-1.54c.22.67.15,2,.35,2.79.39,1.53.88,3,1.33,4.54l5.05-2.13a21.11,21.11,0,0,1-2.16-5.41l-4.59,1.93a24.94,24.94,0,0,1,2.74,9.26l4.27-.58a10.79,10.79,0,0,1-.62-5.35h-3.59c.22,1.92.4,3.83.6,5.75l1.28-1.68c-2.29.58-4.77.35-7.1.91s-4.57,1.21-6.83,1.86c-2.92.84-1.7,5.3,1.26,4.56,4-1,8-1.57,12-2.5,2.07-.48,1.19-3.61-.87-3.17-4.16.89-8.31,1.77-12.5,2.54l2.62,2a36.24,36.24,0,0,0-.7-9.62c-.37-2.31-3.5-1.42-3.74.51a30.79,30.79,0,0,0-.11,5.85l5.06-.69a102.29,102.29,0,0,0-4.11-11.14c-.8-1.88-4.19-1-3.93,1.06Z"/><path class="a" d="M234.74,153.14a7.11,7.11,0,0,0,.34,2.4c.19.68.24,1.54.79,2a.33.33,0,0,0,.55-.14,3.88,3.88,0,0,0-.29-2.16,7.07,7.07,0,0,0-.86-2.25.28.28,0,0,0-.52.14Z"/><path class="a" d="M235.48,153.22l.1-.14-.35-.09a1.12,1.12,0,0,0,.33.37s.29.13.24.08a4.12,4.12,0,0,1,0,.56.75.75,0,0,0,1.5,0c0-.8-.3-1.78-1.22-1.93-.34-.05-.81.08-.87.49a2.3,2.3,0,0,0-.12.61.19.19,0,0,0,.37,0Z"/><path class="a" d="M236,152.91c-.1,1.07-.34,1.44.5,2.5a4.58,4.58,0,0,0,2,1.4c.83.37,2.21-.27,1.77-1.36a10.46,10.46,0,0,0-2.26-3.53l-2.24,2.24a27.61,27.61,0,0,1,3.08,4.11l3.7-2.16-.44-.79-3.15,2.42a30.58,30.58,0,0,0,4,2.07c1.91.8,3-1.92,1.86-3.19-1.27-1.43-2.71-1.85-4.13-3.06-.89-.75-2.71-.06-2.19,1.27,1.22,3.12,3.86,4.8,6.86,6.07,2.09.88,3.6-2.7,1.55-3.68l-1.82-.88.43,3.31c2.35-2.9,4.3-4.73,4.7-8.66.28-2.77-4.16-3.29-4.81-.65l-1.67,6.74c-.8,3.22,3.84,4.43,4.93,1.36a46.86,46.86,0,0,0,2-8.16l-5-.68c0,1.65,0,3.31,0,5,0,3,4.2,3.42,5,.68A9.46,9.46,0,0,0,250,148l-1.35,3.33-.79-.41.76-2.91,1.57,1.07-3,.39c1.79,2.83,3.58,5.07,4.44,8.4.66,2.57,4.74,1.45,4-1.1-1.08-3.62-2.93-7.42-6.17-9.55a1.68,1.68,0,0,0-2.24.59,2.68,2.68,0,0,0,2.5,4.16,2.15,2.15,0,0,0,1.83-3.2c-.82-1.75-2.29-2.14-4.08-1.81a2.28,2.28,0,0,0-1.58,2.79,6.24,6.24,0,0,1-.11,4.16l5,.68c0-1.65,0-3.31,0-5,0-2.78-4.48-3.57-5-.68a60.93,60.93,0,0,1-2.07,8.15l4.93,1.36,1.47-6.79-4.81-.65c-.06,1.91-.38,4.37-2.36,5.35-1.77.88-1.05,3.28.5,3.86l1.9.71,1.07-3.89c-2.36-.76-4-2.26-6-3.66l-1,2.39a3.34,3.34,0,0,1,2.22,2.73l3.19-1.86A30.56,30.56,0,0,0,241.1,154a2.17,2.17,0,0,0-3.15,2.42,5.33,5.33,0,0,0,.88,1.82c1.61,2.21,5.33.07,3.7-2.16a14.34,14.34,0,0,0-4.86-4.43,1.59,1.59,0,0,0-1.6,2.74,5.48,5.48,0,0,1,2,2l1.36-1.77c-1.2-.25-2.14-2-3.18-2.74a.66.66,0,0,0-.89.23l-.2.29a.47.47,0,0,0,.07.57l.21.19a.33.33,0,0,0,.56-.23Z"/><path class="a" d="M249.21,151.27a23.14,23.14,0,0,0,.23,5.33,21.3,21.3,0,0,0,.83,4.92,2.78,2.78,0,0,0,3.31,1.88l.22,0a2.4,2.4,0,0,0,1.74-2.29,2.23,2.23,0,0,0-.68-1.64,1.88,1.88,0,0,0-1.83-.48,2,2,0,0,0-1.13.87l1.63-.93h-.12l1.51.62-.07-.1.69,1.68c.1-1.61-.77-3.59-1.21-5.13a32.57,32.57,0,0,0-1.87-5.55c-.86-1.72-3-.64-3.24.88Z"/><path class="a" d="M252.17,154.17a2.52,2.52,0,0,1,.26-1.79l-2.84-1.17c0,1.68.56,3.26.71,4.95s.12,3.43.16,5.15c0,1.87,2.7,3.38,4.06,1.68,1.56-1.95,4.24-2.29,6.56-2l-1-3.67-3.32,1.55c-2.11,1-.56,4,1.52,3.6s4.41-.78,6.61-1.14,2.55-3.83.63-4.8a6.15,6.15,0,0,0-5.41-.1c-3.19,1.11-2.92,6.38.84,6.2,2.84-.14,5.68-1.2,7.21-3.7,1.29-2.11-.9-5.48-3.44-4.48a41.83,41.83,0,0,1-4.61,2l3.89,3.89.22-.58-1.31,1.71.59-.11v-5.06c-2.08.82-4.14,1.69-6.26,2.4l1.52,3.6,3.32-1.55c1.46-.68,1.18-3.36-.47-3.6-3.89-.57-6.55.48-10,2.17l3.49,2.69c.71-3.85.15-9-2.7-11.9-1.87-1.92-4.31,1.95-1.62,2.78l.71,1.45c.12.33.65.31.64-.09Z"/><path class="a" d="M217.32,138.29a38.89,38.89,0,0,0,9.63-3.4l-2.46-3.19a10.86,10.86,0,0,1-6.51,2.8l.47,3.47a44.88,44.88,0,0,1,8.33-1.13,2.09,2.09,0,0,0,1.78-3.1l-.29-.61v2c-.59,1.33,3.24,1.44,3.71,1.39a2.08,2.08,0,0,0,1.79-1c.56-1.28.75-2-.12-3.25L230,134.41c2.6,3.42,5.4,6.52,9.82,7.05,2.61.31,2.62-3.41.57-4.23a7.63,7.63,0,0,1-3.66-2.44l-2.4,2.4a19.14,19.14,0,0,1,3,3.61c.72,1,2.47,1.64,3.42.44a19.4,19.4,0,0,0,4.07-8.32l-4.74-1.31a29.88,29.88,0,0,1-1.44,5.28l5.1,1.4c.38-2.32-.06-4.82.37-7.07l-2,1.54a25.52,25.52,0,0,0,10.46-2.88c3.12-1.53.34-6.41-2.74-4.7-1.75,1-3.36,2.12-5.06,3.19-2.17,1.36-.81,5,1.78,4.23,3.88-1.11,7.8-2,11.72-3l-3.4-1.93c.74,2.22,1.19,5.46,3.39,6.73a2.25,2.25,0,0,0,2.31,0l.27-.2c.95-.69,1.84-2,1.33-3.28-.73-1.81-1.47-3.6-2.26-5.39a2.76,2.76,0,0,0-3.12-1.27c-3.81,1.33-7.62,2.7-11.48,3.89l1.78,4.23a20.45,20.45,0,0,1,4.82-2.21l-2.09-5a38.38,38.38,0,0,1-8.27,3.45,2.17,2.17,0,0,0-1.54,2c-.16,2.29-1.22,4.57-1.44,6.93-.29,3,4.37,3.47,5.19.7a34.09,34.09,0,0,0,1.17-6c.3-2.73-4.41-3.39-4.83-.65a15.72,15.72,0,0,1-2.76,7l3.42-.44a26.36,26.36,0,0,0-4.38-3.63c-1.61-1.09-3.43,1.34-2.06,2.67a43.52,43.52,0,0,0,4.41,4l2.61-3.38c-2.38-2.38-5.52-3.64-8-5.93a2.11,2.11,0,0,0-3,3l.42.52-.54-2-.23.62,1.45-1.45c-1.83.28-3-2-5.14-.84a2.94,2.94,0,0,0-1.49,3.69l2-2.6a23.75,23.75,0,0,0-9.27,1.84,1.77,1.77,0,0,0,.94,3.41,24.65,24.65,0,0,0,8.5-3.08,2,2,0,0,0-1.56-3.71,38.92,38.92,0,0,0-9.51,3.68c-1.92,1.14-.57,3.77,1.44,3.43Z"/><path class="a" d="M257.81,128.74a36.39,36.39,0,0,0,1.09,5.75c.28.87,1.71.77,1.66-.22a37.77,37.77,0,0,0-1-6c-.25-1.14-1.88-.63-1.72.47Z"/><path class="a" d="M211.22,128.66q-1.29-.68-2.64-1.23l-.46,3.52c5.84-1.12,11.68-2.22,17.52-3.36l-1.87-4.45a68,68,0,0,1-14.46,5.9l.8,2.91c12.35-3,24.68-7.22,36.7-11.3l-2.61-3.4a14.41,14.41,0,0,1-3.19,3.57,1.32,1.32,0,0,0,.93,2.24,7.22,7.22,0,0,0,5.9-3c1.38-1.75.16-4.43-2.25-3.87-12.42,2.92-25.3,7.05-36.63,13-1.49.78-.46,3.34,1.16,2.76,5.07-1.83,10.37-2.83,15.53-4.36a2.43,2.43,0,0,0-1.29-4.69c-5.75,1.43-11.5,2.89-17.25,4.34-2.62.66-1.12,4.79,1.48,3.52q1.35-.62,2.64-1.37a.42.42,0,0,0,0-.73Z"/><path class="a" d="M222.53,127.64a22.15,22.15,0,0,1-4.85.12l.33,2.44c8.05-1.81,15.94-4.42,23.93-6.5s16.38-3.14,24.26-5.42l-2.52-6-4.36,3.1c-1.36,1-1.12,3.83,1,3.58l5-.59c4.14-.49,4.16-7.06,0-6.54-8.31,1-16.87,4-24.84,6.58s-16.08,5.42-23.43,9.5a1.24,1.24,0,0,0,1.26,2.15,22.61,22.61,0,0,1,4.31-1.8c.33-.11.3-.68-.09-.64Z"/><path class="a" d="M249,120l-.73-.05-.44,1.67c5-.77,9.83-2.56,14.75-3.61l-2.52-1c2.73,6.23,6,12.24,9.07,18.31,2.73,5.4,5.27,11.9,9.94,15.9.69.59,2.11.27,2-.83-.57-6-4.17-11.61-7-16.86-3.34-6.28-6.51-12.7-10.2-18.78a2.27,2.27,0,0,0-2.52-1c-4.8,1.63-10.11,3.23-14.34,6.09a1,1,0,0,0,.24,1.83c1.3.33,1.31.33,2.3-.6.42-.4,0-1.24-.59-1Z"/><path class="a" d="M270,121.69l-.18-1.4c-.37-2.86-4.73-3.07-4.64,0,.25,8.08,4.33,15.72,7,23.19a65.44,65.44,0,0,1,3.18,11.33c.67,4,.77,7.69,3,11.22,2.75,4.34,8.85.57,6.78-4-1.32-2.88-2.68-5.72-4.08-8.56-1-2-4.73-1.15-4.45,1.21q.61,5.2,1.36,10.37l7.17-3c-1.77-3.35-1.81-7.33-2.72-11A77.4,77.4,0,0,0,278.49,140c-2.93-6.94-5.73-14.1-9-20.88l-2.62,3.41,1.39.48a1.37,1.37,0,0,0,1.72-1.31Z"/><path class="a" d="M273.39,133.54a16.85,16.85,0,0,0-.6-3.12c-.4-1.66-2.66-1.14-2.8.38-.59,6.12.9,12.68,2.55,18.54a93.78,93.78,0,0,0,3,9c.47,1.19,1.25,2.68,1.63,3.89.85,2.74.46,2.71-2,4-6,3.2-13.87,4.85-20.47,6.46a222.46,222.46,0,0,1-23.71,4.8l1.21,9c13.16-4.94,26.74-8.7,40.23-12.54,3.53-1,4.14-7.18,0-7.79-8.51-1.24-15.49,3-23.25,5.81q-6.05,2.19-12.3,3.8-3.56.92-7.18,1.64-1.81.36-3.62.67-3-.46-1.59,2.4l-4.14,4.14a5.63,5.63,0,0,1,3,.64l.54-4-1.56-.5a.71.71,0,0,0-1.06.61,4.63,4.63,0,0,0,.87,2.94,2,2,0,0,0,3.69-1.56,12.14,12.14,0,0,0-1.89-4.38c-1.34-2-4.72-3.07-6.5-.84-2.49,3.12-2.06,7.3,1.88,9.12,4.46,2.06,11.82-.75,16.26-1.81a134.09,134.09,0,0,0,17.54-5.52c5.84-2.29,11.76-6.13,18.24-5.26V166c-14.92,1.76-28.89,6.2-42.67,12.13-5.3,2.28-.74,10.43,4.6,7.88a205.26,205.26,0,0,1,26.29-10.27q6.5-2.08,13.16-3.61c3.09-.71,7.22-.9,9.87-2.69,5.43-3.67-1.27-11.71-3-15.82-3.1-7.56-4.33-15.55-6.91-23.24l-2.38,1.39a16.3,16.3,0,0,0,2.28,2.15.43.43,0,0,0,.71-.41Z"/><path class="a" d="M211.83,158.66c-1.11-4-2.33-8.06-3.76-12S204.55,139,203.6,135c-.75-3.19-5.79-1.82-4.92,1.36,2.22,8.06,4.37,16.15,6.87,24.13,2.31,7.37,4.24,15.76,8.13,22.48l3.84-3.84L216,176.81c-.33-1.7-2.82-1.51-3.25,0a6.86,6.86,0,0,0,.91,6.15,2.82,2.82,0,0,0,5.13-2.16c-1.61-7.7-5.29-15.33-7.74-22.83-2.5-7.65-5-15.3-7.48-23l-4.26,2.48c5,5.64,8.06,14.76,10.77,21.66.41,1,2,.66,1.72-.47Z"/><path class="a" d="M205.28,135.34l1-1a.05.05,0,0,0-.07-.07l-1,1a.05.05,0,0,0,.07.07Z"/><path class="a" d="M207.86,131.13a3.69,3.69,0,0,0-3.57-1c-1.67.68-1.69,3.58.47,3.45a28,28,0,0,0,9.81-2.52c1.7-.76.89-3.8-1-3.58a28,28,0,0,0-9.72,2.83l2.4.63c-.41-.63,1.63.71,1.3.4.15.14.42,0,.29-.23Z"/><path class="a" d="M238.17,250.29a29.68,29.68,0,0,0-3.28,3c-.93,1.21-1.71,2.56-2.62,3.79a74.11,74.11,0,0,1-6.68,7.74l3.44,3.44a129.54,129.54,0,0,0,11.32-16l-3.73-2.18-3.23,5.52c-.49.85-2,4.44-2.86,4.62l1.83.48.23,1.28-2.11.55.22.11c1,.52,2.64-.37,2.13-1.64l-.09-.21a1.58,1.58,0,0,0-1.9-1.08,2.19,2.19,0,0,0-1.63,2.82,2,2,0,0,0,1.81,1.38c2.11.28,3.11-1.72,4.07-3.27l5.24-8.39c1.48-2.37-2.24-4.52-3.73-2.18a121.68,121.68,0,0,1-11,14.75c-2,2.34,1.28,5.75,3.44,3.44a72.86,72.86,0,0,0,6.49-8,41.25,41.25,0,0,0,2.64-4.08c1-1.79.94-3.16,1.33-5.1a.8.8,0,0,0-1.33-.78Z"/><path class="a" d="M227.6,270.84c-.78,3.83.59,8,1.41,11.77s.81,9,3.93,11.53a1.34,1.34,0,0,0,2.19-.58c1.49-3.72-1.15-8.37-2.27-12s-2-7.93-4.56-10.9a.42.42,0,0,0-.71.19Z"/><path class="a" d="M228.4,266.58a95.56,95.56,0,0,0,6.37,28.5c.57,1.45,2.95.79,2.35-.65a115,115,0,0,1-7.7-28c-.08-.57-1.05-.44-1,.14Z"/><path class="a" d="M242.25,248.72c-3.24,3.94-.89,9.09.27,13.43,1.92,7.18,3.18,16.27,7.27,22.55.86,1.32,3.24.91,3.14-.85-.31-5.79-3.22-11.71-5.27-17.09-1-2.73-2.1-5.45-3.15-8.17s-3.24-6.61-2-9.73a.14.14,0,0,0-.24-.14Z"/><path class="a" d="M242.95,255.59c-1.56,7.4.12,15.68,2.5,22.73,2.06,6.08,5.46,15.68,11.5,18.74a1.61,1.61,0,0,0,2.34-1.8c-.92-3.08-3.26-5.42-5-8.09a57.25,57.25,0,0,1-5.51-10.63c-2.66-6.86-3.26-13.8-4.56-21a.66.66,0,0,0-1.27,0Z"/><path class="a" d="M254.59,281.07c1.68,4.67.14,15.73,8.3,15.17,7.56-.52,8.5-11.51,7.34-17-.46-2.15-3.77-1.62-3.78.51,0,2.59-1.33,13-5.17,12.32-4-.66-4-8.58-5.58-11.48-.33-.59-1.35-.19-1.11.47Z"/><path class="a" d="M265.08,293.71c7.78,2.23,6.74-8.9,6.38-13.29-.8-9.58-3.11-20.8-8.59-28.87a.94.94,0,0,0-1.71.72q.33,1.69.68,3.38c.13.64,1.09.47,1.1-.15q0-1.74.06-3.48l-1.84.25c1.12,4.73,13.68,40.73,4.08,40.34a.57.57,0,0,0-.15,1.1Z"/><path class="a" d="M271.16,284.49c-1.56-13.87-3.13-28-6-41.61-.57-2.66-4.82-2.07-4.73.64s-.09,5.09,1.35,7.44a1.61,1.61,0,0,0,2.75,0c1.22-2.51.9-4.63.72-7.44l-4.73.64c3.32,13.5,7,26.8,9.59,40.48.12.61,1.18.48,1.1-.15Z"/><path class="a" d="M261.2,242.43l.22,1.61a3.39,3.39,0,0,0,.46,1.38.28.28,0,0,0,.52-.14,3.32,3.32,0,0,0-.22-1.45l-.53-1.53a.23.23,0,0,0-.45.12Z"/><path class="a" d="M262.35,242.6a41.54,41.54,0,0,0,16.65,0c1.68-.4.93-2.77-.7-2.53-5.33.79-10.54,1.89-15.93,2.36-.1,0-.14.16,0,.18Z"/><path class="a" d="M267.18,242c3,2.44,10.07,1,13.05-1,1.82-1.17.7-4.27-1.52-3.6-2.06.62-3.94,1.67-6,2.23-1.71.46-3.93.6-5.4,1.6a.47.47,0,0,0-.09.74Z"/><path class="a" d="M278.83,240.28c4.35,15.22,6.36,30.65,9.42,46.12a.57.57,0,0,0,1.1-.15c-.56-15.6-5-31.4-9.71-46.19a.42.42,0,0,0-.81.22Z"/><path class="a" d="M279.58,249c1.24,9.46,4.54,18.33,6.7,27.58a53,53,0,0,1,1.57,14c-.19,5.11-2.19,9.18-3.21,14-.4,1.93,1.94,3.57,3.45,2,6-6.22,5-17.76,3.39-25.52-2.26-11.11-7.6-21.31-10-32.4-.23-1.06-2.08-.85-1.93.26Z"/><path class="a" d="M287,289.66c-1.4,13.62-12.82,23.2-25.76,25.49-2.12.37-1.48,3.49.49,3.59,15.54.8,27.63-14.21,26.3-29.08a.52.52,0,0,0-1,0Z"/><path class="a" d="M266.93,316.85A27.46,27.46,0,0,1,244,312.37c-6.1-4.26-8.54-10.54-12-16.77l-2.39,1c2.73,11.4,13.28,22.65,25.16,24.4,10.24,1.52,22.61-6.4,18.88-17.9a2.35,2.35,0,0,0-4.6.62c-.18,10.53-11.15,13.39-19.42,9.94S236.26,303.15,232,295.6a1.32,1.32,0,0,0-2.43.66c-.41,8.08,5.89,15.52,12.4,19.55,7.4,4.58,17.12,4.55,25.14,1.67a.33.33,0,0,0-.17-.63Z"/><path class="a" d="M244.75,226.92c-5.42.72-10.59,3.33-15.79,5-4.79,1.54-9.83,2.76-14.46,4.75C206.72,240,201.94,247.9,200.27,256c-4.72,22.84,14.39,40.89,16.11,62.8.07.83,1.36.85,1.31,0-.49-9.34-3.9-18-6.85-26.79-3.29-9.76-8-19.3-7.88-29.84.1-9.68,4.36-18.18,13.35-22.4,4.57-2.15,9.64-3.39,14.45-4.9s10.32-2.31,14.88-4.71c1.44-.76.87-3.46-.88-3.23Z"/><path class="a" d="M218.31,326.59c1.28,6.07,4.12,11.49,10.21,13.78,6.94,2.61,15.64.92,22.66-.48,18.12-3.62,35.93-11.06,52.72-18.59.19-.09.05-.42-.14-.34-14.25,5.45-28.31,11.11-43.29,14.31a156.72,156.72,0,0,1-23.09,3.53c-9.24.55-16.75-2.45-18.44-12.38-.07-.41-.72-.24-.63.17Z"/><path class="a" d="M319.73,296.25c-2.52-9-3.38-18.41-5-27.6-.13-.73-1.32-.56-1.29.17.46,9.48,3.34,18.5,6.19,27.46a.05.05,0,0,0,.1,0Z"/><path class="a" d="M261.17,224.87c4.54-.2,8.78-2.82,13-4.32q3.88-1.37,7.84-2.51c2.31-.66,6.07-2.32,8.43-1.93,6.39,1,8.07,9.86,10,15,2,5.31,3.83,10.65,5.59,16q5,15.24,8.93,30.78c2.72,10.64,4.44,21.58,7.46,32.13.24.83,1.65.71,1.57-.21-1.19-12.49-4.8-25-8-37.07-3.34-12.44-7.19-24.75-11.46-36.91-1.8-5.14-3.48-10.44-5.75-15.39-1.34-2.92-3.26-5.72-6.56-6.48-4.87-1.12-11.46,1.9-16,3.38-5,1.62-11.53,3.06-15.23,6.94a.33.33,0,0,0,.23.56Z"/><path class="a" d="M3.35,324.59c9.53,0,19.16-4.58,28.15-7.43,9.39-3,18.89-5.62,28.35-8.37,9.7-2.82,19.3-5.88,28.89-9.09,2.16-.72,4.32-1.45,6.51-2.09,3.45-1,6.5,1,7.95,4,2.1,4.44,3.1,9.88,4.46,14.59s2.65,9.16,4.07,13.72,4,10,4,14.76c.08,6.56-6.74,6-11.43,6.73a102.75,102.75,0,0,0-12.94,2.91c-16,4.61-31.4,11.5-47.71,14.88-5,1-10.53,2-15.65,1.71-6.95-.43-9.17-7.17-12.24-12.49-2.67-4.62-5.38-9.22-8-13.85-2.81-4.93-6.14-12-1.94-17.25a.61.61,0,0,0-.74-1c-8.58,4.35-4.52,13.84-.88,20.29,2.78,4.92,5.62,9.8,8.44,14.7,2.3,4,4.33,9.56,8,12.55s9.74,1.94,14,1.47a91.59,91.59,0,0,0,15.06-3c10.49-3,20.42-7.47,30.54-11.47a129.08,129.08,0,0,1,15.07-5c5.2-1.35,10.47-1.76,15.71-2.82,9.72-2,6.81-11.14,5.17-18.43a263,263,0,0,0-10.28-35.74c-1.11-2.92-2.49-5.29-5.89-5.6-5-.47-11.22,2.63-16,3.93-13.51,3.71-26.82,8-40.17,12.23-7,2.21-14,4.29-21,6.33-6.8,2-14,3.3-19.92,7.27a.8.8,0,0,0,.4,1.48Z"/><path class="a" d="M118.14,291.7l26.64-6.3c4.44-1,8.89-2.07,13.32-3.16,2.2-.54,5.34-2,7.58-1.91,5.68.25,5.81,3.73,7,7.46q8.1,26,13.73,52.58l.72-1.27q-1.88.69-3.73,1.45a.7.7,0,0,0,.37,1.36q2-.38,3.9-.81a1.05,1.05,0,0,0,.72-1.27Q185,324,180.78,308.3q-2.12-7.82-4.46-15.59c-1.18-3.9-1.88-9.57-4.39-12.87-1.32-1.74-3.13-2.07-5.22-1.84-5.24.59-10.68,2.63-15.78,4l-33,8.8a.47.47,0,0,0,.25.9Z"/><path class="a" d="M153.54,349c-2.83.59-6.13,1.78-9,1.76-2.56,0-3.86-.43-5.42-2.8a21.63,21.63,0,0,1-1.46-3.2c-2.64-5.9-5.42-11.71-7.73-17.75a136.72,136.72,0,0,1-8.13-36.85c-.09-1-1.68-1.38-1.84-.25-2.12,14.72,1.48,28.85,7.57,42.19,2.94,6.45,5.58,13.31,10.62,18.42,1,1,1.84,2.22,3.22,2.5s3.85-1.33,5.21-1.77c2.32-.75,4.69-1.38,7-2.06a.09.09,0,0,0,0-.18Z"/><path class="a" d="M138.67,300.54c5.93,3.74,10.72,8,14.34,14.06l3.19-2.46c-4.76-4.14-9.79-8-14.56-12.11-1.6-1.39-3.94.9-2.35,2.35q7.58,6.86,15.69,13.09c1.58,1.2,7.56,6.86,9,2.5.8-2.48-1.76-4.13-3.88-3.09-1.75.87-2.6,3.22-3.43,4.8-1.8,3.38-3.64,6.73-5.3,10.18l4.24,1.79c1.76-4.71,3.22-9.38,4.56-14.22.61-2.22-2.62-3-3.39-.94a111.34,111.34,0,0,1-6.54,14l3.66,2.14c2.54-5.6,4.83-11.27,7.64-16.74l-5-.65a3.46,3.46,0,0,1-1.49,4c-2.43,2.19.7,6.13,3.46,4.49,4.51-2.68,5.66-7.89,4-12.71-2.13-6.31-8.84-9.12-14.08-12.31-2.71-1.65-5.85,2.26-3.43,4.45L158,314.94l4-4a28.46,28.46,0,0,0-13.53-6.46,2.53,2.53,0,0,0-2.43,4.18c3.41,4.3,10.36,1,12.28,7,2.14,6.72-2.64,15.23-6.59,20.29a1.87,1.87,0,1,0,2.94,2.27c4.53-5.91,8.64-14.11,7.5-21.8a11.88,11.88,0,0,0-3-6.71c-2.24-2.22-7.64-1.75-9.16-4.1l-2.83,3.68A29.44,29.44,0,0,1,158,314.94c2.75,2.28,6.7-1.5,4-4L149,299.16l-3.43,4.45c3.05,1.87,6.62,3.4,9.21,5.9,2.33,2.24,4.54,7.09.82,9.29l3.46,4.49a9.13,9.13,0,0,0,2.69-9.49c-.55-2.12-4-2.83-5-.65A107.32,107.32,0,0,0,150,331c-.69,2.66,3.2,3.69,4.09,1.13A111.16,111.16,0,0,1,160,317.83l-3-1.78c-2.15,4.75-4.09,9.42-5.82,14.34-.86,2.45,3.15,4.19,4.24,1.79a114.35,114.35,0,0,0,5.7-14.82l1.44-1.09c-.3,0-3.64-3-4-3.24q-2.6-1.82-5.14-3.71c-4-3-7.89-6.09-11.7-9.31l-2.35,2.35c4.76,4.12,9.27,8.53,14,12.64,1.62,1.4,4.63-.47,3.19-2.46-4.38-6.07-10-11.08-17.08-13.81-1.08-.42-1.66,1.23-.76,1.8Z"/><path class="a" d="M42.21,321.45c-5.6-.6-9.62,2.85-13.16,6.84-1.83,2.06-3.77,4.92-.5,6.76,1.76,1,3.3.41,5.13-.11,3.47-1,6.75-1.55,10,.63a8.44,8.44,0,0,1,2.52,11.19c-2.63,4.26-8.24,3.8-12.07,1.71-1.06-.58-2.62.67-1.8,1.8,7.18,9.83,20.92,0,18.25-10.49a12.09,12.09,0,0,0-10.9-8.86,12.26,12.26,0,0,0-3,.13c-.67.11-3.5,1.55-4.07,1.42-5.06-1.15-.35-5.06.94-6.27a14.48,14.48,0,0,1,8.63-4.38.19.19,0,0,0,0-.37Z"/><path class="a" d="M46.53,326.18l13.12,27.6c.79,1.66,3,.4,2.77-1.17-1.74-10.17-4-20-4.26-30.37a.61.61,0,0,0-1.22,0c0,10.32,0,21.09,2.56,31.17l2.77-1.17L47.17,325.8c-.24-.42-.85-.05-.65.38Z"/><path class="a" d="M68,321.59c-.64,7.52.93,15.56,1.41,23.1.21,3.32-1.51,10.73,3.33,11.45,4.55.67,10.37-6.29,13.21-9A77.49,77.49,0,0,0,98.29,332c1.54-2.48-1.39-4.55-3.61-3.61a56.28,56.28,0,0,1-5.88,2.07c-2.55.76-3,.38-3.4,2.85.21-1.44,2.06-3.35,2.83-4.69.91-1.58,1.75-3.21,2.62-4.81,2.4-4.39,5.84-9.76,3.48-14.89-2.09-4.54-8.32-5.83-12.74-6.49-5.19-.77-13.22-1.24-17.18,2.77-1.21,1.22-.78,3.72,1.08,4.07,3.12.59,5.78-.54,8.92-.71a28.36,28.36,0,0,1,10,1.23c4.65,1.45,4.24,3.69,2.46,7.45-1.56,3.3-3.43,6.46-5,9.76-1.28,2.68-4.17,7.47-.43,9.69,1.79,1.06,3.66.1,5.37-.54a70.66,70.66,0,0,1,9.92-2.95l-3-3.87c-2.91,3.91-6,7.81-9.23,11.42q-2.3,2.53-4.78,4.9c-1.39,1.32-4.08,4.73-5.66,5.35q-.72,1.71-.71-.12L73,349c-.29-1.77-.53-3.54-.74-5.32-.3-2.56-.54-5.13-.82-7.7-.51-4.84-.59-10-1.87-14.65a.8.8,0,0,0-1.57.21Z"/><path class="a" d="M251.76,481.88c-.12,14.26.39,28.46-.32,42.72S248,553,248.23,567.13a1.32,1.32,0,0,0,2.58.35c4-13.24,4.13-28.2,4.73-41.91.64-14.47,1.06-29.26-.41-43.69-.22-2.12-3.36-2.22-3.37,0Z"/><path class="a" d="M252.84,478.84c6.23,8.9,12.64,17.67,19.08,26.43L281.29,518c1,1.34,9.11,12,8.79,12.15l1.71.22c-7.82-6.23-13.84-15.33-19.13-23.7A187.7,187.7,0,0,1,259.08,481c-.86-2-4-.56-3.46,1.46,3.69,13.56,12.53,26.14,21.09,37.06,9.88,12.61,20.14,25.59,31.46,36.92,2.22,2.22,5.64-1.2,3.44-3.44-7.22-7.35-13.72-15.14-20.25-23.1-.47-.57-1.48.2-1,.8,6.13,8.26,12.09,16.47,17.46,25.25l4.2-2.46c-8.84-12.41-19.52-23.52-29.13-35.32A189,189,0,0,1,259.08,481l-3.27,1.91a203.18,203.18,0,0,0,15.39,25.64c5.77,8.09,12.82,15.34,18.37,23.54a1.39,1.39,0,0,0,1.22.7c9.42-1.26-6.55-18.83-8.32-21.16-8.87-11.71-17.69-23.44-26.83-34.95-1.25-1.57-4,.5-2.8,2.16Z"/><path class="a" d="M277.27,511.31c-4.37-8.56-9-17.58-15.13-25.05-.41-.5-1.21.14-.88.68,5,8.34,10.67,16.18,15.28,24.8.26.48,1,.06.73-.43Z"/><path class="a" d="M258.56,488l.29-.28a.78.78,0,0,0,.2-.77c-.63-1.82-2.41-1.59-3.31,0-1.42,2.45-.72,7.41-.86,10.1-.23,4.26-.34,8.53-.5,12.8-.62,17.06-1.38,34.13-1.59,51.2h3.5c-.93-18.58-.76-37.2-1.76-55.78a.8.8,0,0,0-1.59,0c-.47,18.59.25,37.18-.14,55.78,0,2.26,3.38,2.24,3.5,0,.64-12.46,1-24.94,1.3-37.41l.48-17.72c.09-3.28.19-6.56.21-9.85,0-1.31,0-2.63,0-3.94v-3a1.39,1.39,0,0,0-.9-1.82c-.27.69.71,1.14,1.18.68Z"/><path class="a" d="M249.62,489.09c-.56,15-.8,29.9-.66,44.86s1.33,30,.85,44.92l3.78-.51a67.73,67.73,0,0,1,.07-20.4H250a84.14,84.14,0,0,0,2.28,10.49c.24.75,1.93,4.11,1.73,4.58-.4,1-5.45-.21-6.25-.32a2.17,2.17,0,1,0-.58,4.29c3.49.33,7,.27,10.53.31l-.74-5.43a40.66,40.66,0,0,0-9.46,4.71l4,4,1.74-1c3.95-.17,3.71-5.48,0-6a23.67,23.67,0,0,0-13,2l4.38,3.37a291.42,291.42,0,0,0,7.07-29.21c1.71-9.18,3.55-19.22,3.18-28.57-.07-1.74-2.9-2.33-3.2-.43-2.07,13.1-5.1,25.66-5.67,39,0,.36.53.36.56,0,1-12.52,2.7-26.24,8.09-37.73l-3-1.26c-2.26,9.34-3.25,19.09-5.26,28.52s-4.57,18.86-7.54,28.11c-.64,2,1.55,4.53,3.67,3.67a21.07,21.07,0,0,1,10.75-1.5v-6a7.78,7.78,0,0,0-6.81,4c-1.49,2.4,1.56,5.71,4,4a49.09,49.09,0,0,1,8.63-4.72c2.53-1.1,1.23-5.32-1.4-5.15-3.71.24-7.43.39-11.11.93l1.16,4.21c2.74-.59,7.48-.08,8.47-3.23,1.43-4.53-1.51-12.36-2.61-16.73-.54-2.16-3.51-1.52-3.69.5a134.57,134.57,0,0,0-.17,21.41,1.93,1.93,0,0,0,3.85,0c1.68-14.9.93-30,.39-44.92s-1.49-29.93-2.74-44.86a.84.84,0,0,0-1.69,0Z"/><path class="a" d="M244.07,576.24a731.32,731.32,0,0,0,11-80.31c.18-2.48-3.95-3.08-4.38-.59-4,23.23-6.9,47-7,70.59,0,2.91,4.71,3.74,5.24.71,4.78-27.56,2-55.9,7.79-83.3l-5.06-1.39a421.93,421.93,0,0,0-6.7,51q-.8,12.64-.87,25.31c0,8.52-.3,17.52,1.81,25.83.44,1.72,3.43,1.94,3.71,0,1.14-7.86.57-16,.57-23.88q0-12.67.76-25.32a458.46,458.46,0,0,1,5.79-51.5c.57-3.28-4.38-4.73-5.06-1.39-5.63,27.48-2.17,55.85-7.87,83.28l5.24.71c.92-23.3,2.38-46.34,6-69.4l-4.38-.59c-1.61,26.8-4.74,53.5-7,80.25a.24.24,0,0,0,.46.06Z"/><path class="a" d="M309.48,554.43c3.2-.65,6.3-1.54,9.44-2.42l-1.74-4.13-7.38,4.82c-2.23,1.46-1.16,4.43,1.28,4.71,4.36.51,9-1.95,10.31-6.24.7-2.31-2.67-4.57-4.29-2.5s-3.26,3.78-6,3.68l1.28,4.71,7.11-5.28c1.88-1.4.89-5.05-1.74-4.13-3.24,1.13-6.43,2.25-9.58,3.61-1.89.82-.48,3.54,1.34,3.17Z"/><path class="a" d="M299.1,531.23c-3.48-3.65-6.92-7.34-10.45-10.94-1.54-1.57-4.48.53-3.14,2.42A102.87,102.87,0,0,0,310,547.3c2,1.4,4.18-1.64,2.54-3.29-9-9.08-17.5-18.68-26.15-28.13S268.9,497,260.78,487.13c-2.24-2.74-6.21.27-5.54,3.23,1.56,6.89,6.47,12.53,11.07,17.67,5.31,5.94,10.94,11.62,16.68,17.14s11.72,10.86,17.92,15.9c3,2.47,9.29,9.36,13.3,4.87a2.59,2.59,0,0,0-.51-4c-4.91-3.37-8.69-8.71-12.63-13.12s-7.92-8.91-11.93-13.33c-7.78-8.58-15.9-16.94-23.11-26-2-2.52-6.48.88-4.5,3.47,10.42,13.63,22.42,26.3,33.71,39.23l8.54,9.79c2.69,3.08,5.21,6.79,8.3,9.45s8.93,2.18,8.43-3c-.42-4.35-7.28-4.38-6.84,0l.07.67,1-2.42.29-.1,2.63.34c-2.52-1.09-4.7-4.74-6.46-6.73l-6.61-7.49c-4.18-4.75-8.35-9.5-12.56-14.23-8.59-9.65-16.85-19.87-26-29L262,493.54c8.43,7.93,16.07,16.7,24,25.16,3.84,4.11,7.72,8.18,11.59,12.26,4.32,4.55,9.57,9,12.69,14.46l1.52-3.73c-1.14.47-5-4.57-6-5.49-2.41-2.36-4.9-4.64-7.34-7-4.66-4.45-9.43-8.78-14.06-13.26-8.83-8.55-17.58-17.06-23.08-28.17l-5.21,4A409.65,409.65,0,0,1,309.54,547l3-3a161.39,161.39,0,0,1-23.85-23.72l-2.83,2.83c3.9,3.24,7.87,6.39,11.82,9.58,1,.82,2.39-.47,1.46-1.46Z"/><path class="a" d="M265.31,529.49c-.61,4.94-1.07,9.88-1.51,14.83h2.44l.2-8.43h-2.7c-.05,3.17-.13,6.34-.2,9.51a1.68,1.68,0,0,0,1.22,1.6,109.19,109.19,0,0,1,10.83,3.14c2.45.83,3.69-2.7,1.69-4-3.57-2.33-7.09-2.35-10.93-.68-2.21,1-1.35,4.25.63,4.85a54.62,54.62,0,0,0,9.29,2c3,.36,4.25-4.5,1.55-5.72a13.84,13.84,0,0,0-10.31-.87c-3.15.92-2.8,5,0,6.06a61.45,61.45,0,0,0,14.79,3.53L280,549.77a63.22,63.22,0,0,0-13,14.14c-2.2,3.19,2.9,6,5.13,3a50.43,50.43,0,0,1,8.86-9.15l-4.1-4.1c-3.49,4-7,7.73-10.09,12-2.38,3.3,2.1,6.72,5.16,5.16a24.86,24.86,0,0,0,11.07-10.94c2.45-4.71-4.6-8.88-7.15-4.18-2.34,4.33-5,9-10,10.44l3.59,6.16c4.31-3.5,8.89-6.68,13.22-10.16L277.27,558c-.89,1.24-1.73,2.47-2.53,3.76-1.93,3.15,2.75,7,5.23,4,1.17-1.38,2.25-2.82,3.32-4.28,2.53-3.47-2.65-6.44-5.47-4.22a130.89,130.89,0,0,1-12.76,9.3c-3,1.83-1.9,7,1.86,6.87,8.17-.35,12.64-6.86,16.18-13.5l-7.15-4.18a20.9,20.9,0,0,1-7.74,8.6l5.16,5.16A92.11,92.11,0,0,1,281,557.76a2.9,2.9,0,0,0-4.1-4.1,66.9,66.9,0,0,0-9.43,9.65l4.67,3.6a70.47,70.47,0,0,1,12.44-12.53c2.44-2,.17-5.32-2.31-5.57a54.38,54.38,0,0,1-13.12-3.06v6.06a6.36,6.36,0,0,1,5.54.11l1.55-5.72c-2.64-.27-5.27-.52-7.88-1L269,550a5.29,5.29,0,0,1,6-.1l1.69-4c-3.68-.85-7.39-1.52-11.12-2.11l1.22,1.6c-.14-3.17-.29-6.34-.42-9.51a1.35,1.35,0,0,0-2.7,0l.06,8.43a1.22,1.22,0,0,0,2.44,0c.29-4.95.55-9.88.66-14.83,0-1.05-1.47-1-1.59,0Z"/><path class="a" d="M151,173.26c-14.15,1.39-26.26,11.18-29.58,25.24C118,212.92,124.1,228.74,137.2,236a32.09,32.09,0,0,0,39-5.76c11.1-11.84,10.45-28.09,2.62-41.54-4.24-7.28-10.38-16-18.33-19.42-6.35-2.75-14.22-.66-16.57,6.25-.72,2.12,2.39,3.27,3.51,1.48,5.73-9.13,16,.59,20.27,5.81,5.08,6.25,9.49,13.56,10.86,21.6,2.53,15-8.8,29.6-24.11,30.38a28.87,28.87,0,0,1-30.07-27.62c-.7-16.07,11.65-29.38,26.67-33.32.35-.09.29-.68-.09-.64Z"/><path class="a" d="M140.52,190.17a70.38,70.38,0,0,1,2.5,10.25c.89,5.61,1.48,3.74-.94,1.8-3.76-3-8.28-1.43-12,.81-4.23,2.58-6,4.71-5.64,9.85a21.59,21.59,0,0,0,6.65,14.25c1.34,1.27,3.1-.6,2-2-2.9-3.61-6.86-9.65-5.85-14.61,1.12-5.55,13.29-12.18,16.43-4.78.14.34.74.17.7-.19a68.31,68.31,0,0,0-3.52-15.49c-.08-.23-.44-.13-.36.1Z"/><path class="a" d="M140.67,201.29a91.74,91.74,0,0,0,.79-12.36l-2.8.38c.31,2.29.72,4.57,1.12,6.84.33,1.91.32,3.85,1.59,5.36a1.09,1.09,0,0,0,1.8-.48c.67-1.82-.12-3.83-.46-5.69-.41-2.27-.81-4.54-1.3-6.79-.34-1.55-2.92-1.24-2.8.38a91.51,91.51,0,0,0,1.52,12.36c.05.26.5.28.54,0Z"/><path class="a" d="M138.22,189.31c1.77-.55,3.09-1.93,5-2.45s3.75.06,5.55-.41a1.32,1.32,0,0,0,.58-2.19c-3.07-2.81-11.4-.42-12.53,3.61a1.18,1.18,0,0,0,1.44,1.44Z"/><path class="a" d="M142.94,187.69l-1-1-.88,1.54c3.61-.08,7.44-1.87,11-2.68,3.35-.77,7.24-.56,10-2.75a1.46,1.46,0,0,0-.29-2.28c-3.31-1.68-7.46-.18-10.85.81s-8.08,2.43-10.54,5.15a1,1,0,0,0,1,1.71l1.43.05a.28.28,0,0,0,.22-.51Z"/><path class="a" d="M147.38,185.43c6.32-.74,15.06,1.14,14.89,9a1.52,1.52,0,0,0,2.56,1.06c4.08-3.15.79-8.37-2.44-10.71-4.39-3.18-10.66-2.68-15.29-.37-.48.24-.27,1.11.28,1Z"/><path class="a" d="M158,186c3.22,2.38,5.41,5.94,4.66,10-.61,3.31-4,4.81-4.4,8a1.71,1.71,0,0,0,1.24,1.63c5.58,2.11,8.75-7.42,8.3-11.45a10.61,10.61,0,0,0-9.54-9.21c-.56,0-.63.69-.26,1Z"/><path class="a" d="M162.54,196.62a23.08,23.08,0,0,1-1.37,5.9,20.43,20.43,0,0,1-1.49,3,1.83,1.83,0,0,1-2,1.36l-1.42.18c3.06,2.88,5.53,6.52,8.78,9.14.93.75,2.47-.19,1.77-1.36a25.15,25.15,0,0,0-5.4-5.76c-1.08-.95-2.87-3.3-4.27-3.53-2.14-.35-2.71,2.57-1.86,4,1.57,2.62,5.12,1.42,6.45-.7,2.12-3.37,1.81-8.6,1.19-12.31,0-.23-.35-.14-.37,0Z"/><path class="a" d="M158.1,211c.43,1.64,2.14,3.34,3.22,4.61,1.32,1.55,3,4,4.83,4.92a2.85,2.85,0,0,0,3.34-.43l.1-.1-1.31.54c2.07-.22,2.68-2.62.58-3.41-1-.36-1.76.55-1.84,1.4a1.28,1.28,0,0,1,.41-.88l1.16-.48h0l1.17.49a1.21,1.21,0,0,1,.32.54l-.19,1.43,0-.09a2.9,2.9,0,0,0-.43-3.34,13.29,13.29,0,0,0-2.74-2c-1-.65-1.88-1.34-2.85-2-1.41-.93-3.17-2.31-4.87-2.49a1,1,0,0,0-.94,1.24Z"/><path class="a" d="M158,211.54c2,2.43,4.53,4.21,7,6.17,1.11.89,6.52,4.12,6.39,5.31l4.09-2.35a97.82,97.82,0,0,1-10.54-7.28c-1.21-1-3.27.29-2.32,1.79a15.37,15.37,0,0,0,8.41,6.68c1.91.64,3.24-2.41,1.39-3.29a39.1,39.1,0,0,1-6.17-3.68c-1.82-1.32-3.13-2.86-5.44-3.2-.55-.08-1.34.24-1.25.95.66,5,7.34,7.64,11.47,9.22l1-3.47a10.89,10.89,0,0,1-6.81-4.7l-2.32,1.79a101.29,101.29,0,0,1,9.34,9.46c1.31,1.4,4.2.82,4.55-1.2.72-4.18-2.77-5.9-5.94-7.8-3.73-2.23-7.64-4.77-11.81-6-1-.31-1.54.94-1,1.65Z"/><path class="a" d="M166.56,228l-4.71-4.51a42.71,42.71,0,0,1-4.2-5c-1.08-1.39-3.22.63-2,2,2.66,2.89,5.46,5.63,8.36,8.28l2.87-2.87-9.35-7.73a2.21,2.21,0,0,0-3.12,3.12A41.14,41.14,0,0,0,165.22,231c2.75,1.73,5.22-2.57,2.53-4.33-4.3-2.82-8.09-5.62-11.36-9.65-1.37-1.69-4.24.13-3.6,2.1l4.49,13.79,3.94-1.66a67.86,67.86,0,0,1-6.46-14.35c-1-3.07-5.78-1.8-4.87,1.34,1.38,4.73,2.83,9.41,4.41,14.08,1.17,3.47,5.85,2,5.35-1.48a44.89,44.89,0,0,0-2.91-10.63,2.63,2.63,0,0,0-5.07,1.4,24.29,24.29,0,0,0,6.05,11.91c1.36,1.5,4.36.39,4.17-1.73l-.42-4.82-4,1.68c1.94,1.81,3.87,3.62,5.78,5.46,2.13,2,5.38-1.19,3.25-3.25-1.91-1.84-3.8-3.7-5.68-5.56-1.39-1.38-4.17-.43-4,1.68l.27,4.82,4.17-1.73a19.53,19.53,0,0,1-4.44-9.85l-5.07,1.4a45.68,45.68,0,0,1,2.53,10l5.45-.74c-1.53-4.69-3.17-9.32-4.89-13.95l-4.87,1.34a108.79,108.79,0,0,0,7.61,15.19c1.23,2,4.72.72,3.94-1.66L156.95,218l-3.6,2.1A46.93,46.93,0,0,0,165.22,231l2.53-4.33a35.64,35.64,0,0,1-10.2-8.53l-3.12,3.12,9.6,7.47c2,1.56,4.88-1.13,2.87-2.87-3.08-2.66-6.24-5.22-9.53-7.61L156,220.65a83.85,83.85,0,0,1,10.4,7.53c.14.11.33-.07.2-.2Z"/><path class="a" d="M162.47,206a11.43,11.43,0,0,0,2.71,8.41c1.3,1.53,3.59-.13,3.18-1.85-.79-3.3-1.79-6.54-2.72-9.81l-4.57,1.93a101,101,0,0,0,5.86,9.82c1.84,2.72,5.47,1.48,5.83-1.58.67-5.64-.22-10.38-2-15.72-.83-2.48-5.09-2.26-4.83.65a68.44,68.44,0,0,0,5.88,22.24c1.62,3.61,6.26,1.24,6.62-1.79.8-6.77-1.17-13.28-4.47-19.13-1.65-2.92-6.85-.94-5.57,2.35,1.35,3.48,2.43,7.05,3.61,10.59,1.24,3.72,6.82,3.14,6.91-.94a31.68,31.68,0,0,0-6.66-20.65l-6.15,3.6c4,5.35,3.12,12.5,10.77,14.6a4.18,4.18,0,0,0,5.09-5.09c-2-7.49-5.94-13-11-18.8-1.79-2.06-6.17-1.17-6.57,1.73-.82,6,1.28,11.14,6.54,14.41,2.54,1.58,6.73-.42,6.39-3.67-.78-7.37-4.44-12.53-10.57-16.57-2.72-1.8-7.25,1.26-5.89,4.53a14.36,14.36,0,0,0,6.87,7.84c3,1.53,7.26-1,6-4.64a26.53,26.53,0,0,0-11.78-14.72c-2.27-1.36-5.81-.16-6.37,2.59-.71,3.49.36,6.81,3.76,8.36,3.12,1.41,7.89-1,6.45-5-1.38-3.79-4-8.11-8.62-7.88a6.65,6.65,0,0,0-6.27,8.28l5-5a18.57,18.57,0,0,0-16.79,4.37l3.57-.94c-8.94-1.8-16.91,13.79-8,19,2.53,1.48,4.94-.5,5.27-3q.19-1.39.36-2.79l-7.27,1a34,34,0,0,1,1.43,5.25l3.89-5.11q-1.5.11-3,.3l3.92,3-1.62-7.57c-.74-3.43-5.72-3.87-7.37-1-3.31,5.82-7.18,11.62-9.66,17.85-1.44,3.63,4.76,6.28,6.36,2.68a15.71,15.71,0,0,1,3.89-5.55c1.73-1.47,2.45-1.19,4.44-1.66a6.89,6.89,0,0,0,5.47-5.44,3.25,3.25,0,0,0-2.23-3.94c-2.23-.56,2.38-4.44,3.12-5.06,2.48-2.09,4.66-3,7.49-4.43s4.49-3.08,3.94-6.26a2.08,2.08,0,0,0-2.53-1.44c-2.05.51-3.55.86-5.14,2.31-1.77,1.61,1.16,4.21,2.72,2.1l1.92-.65-.74-2.82c-.77,1-3.76,1.21-4.91,1.67a21.22,21.22,0,0,0-4.83,2.86c-2.29,1.71-4.82,3.61-6.44,6-2.88,4.26-1.88,10.64,3.7,11.89l-2.23-3.94c-.14.63-6,2.43-6.78,3-2.57,2-4.31,4.63-6.33,7.09l4.92,4.92c4.21-5.21,7.35-11.43,10.8-17.17l-7.37-1,1.55,7.59a4.07,4.07,0,0,0,3.92,3c1.36-.14,2.7-.32,4.06-.5,2.1-.28,3.42-3.11,2.82-5a41,41,0,0,0-2.46-6c-1.69-3.34-6.93-1.68-6.9,1.87q0,1.4,0,2.79l4.44-3.38c-2.62-1.05,2-4.77,3.1-5.17.75-.27,1.74-.24,2.67-.52,1.57-.47,2.77-1.93,4.43-2.45a10.63,10.63,0,0,1,6.19,0c3.31.89,5.45-2.05,5-5l-.14-1-.42,3.18q-2.11.43-.91,2l5.4-5.4,1.21,2-6.37,2.59a17.58,17.58,0,0,1,8.22,9.42l6-4.64a6.82,6.82,0,0,1-3.69-3.83l-5.48,5.48c3.87,2.4,5.57,6.44,6.27,10.78l6.24-4.8c-2.49-1.36-3.33-3.3-3.11-6l-6.71,2.78c4.06,4.24,6.65,10,8.53,15.45l5.09-5.09c-3.58-.71-5-8.16-7.38-10.94-2.59-3.05-7.94,1-5.6,4.32a30.32,30.32,0,0,1,5.77,17.05l6.56-1.78c-1.4-3.15-2.91-6.28-4.16-9.5l-5.88,1.62c2.28,5.48,2.89,10.89,2.94,16.78l6.62-1.79a59.44,59.44,0,0,1-7.18-19.31L166,198.54a61.38,61.38,0,0,1,.48,14.41l5.34-2.21a94.8,94.8,0,0,1-6.46-8.56c-1.47-2.19-5.69-.86-4.57,1.93,1.34,3.32,2.6,6.68,4.07,9.94l3-2.3a11.74,11.74,0,0,1-4.3-5.87.57.57,0,0,0-1.1.15Z"/><path class="a" d="M152,174c-7.47-2.49-13.12,4.81-17.13,10-1.14,1.48,1,3.09,2.37,2.37,5.64-2.94,8-10.66,14.75-11.76.34-.06.28-.54,0-.63Z"/><path class="a" d="M152.79,174.1a1.8,1.8,0,0,0,.76-3c-1.61-2.15-5.85-.66-7.83,0-5.54,1.8-12.44,7-13.36,13.11-.32,2.12,2.39,4.59,4.15,2.42,2.14-2.64,3.51-5.71,6-8a22.8,22.8,0,0,1,4-2.88c.4-.24,5.55-2.17,5.54-2.14-.15.43.35.67.69.53Z"/><path class="a" d="M152.29,172.73c-6.92,1.15-12.92,4.36-18.53,8.49-5.07,3.73-10.73,8.39-13.71,14a2,2,0,0,0,3.17,2.44c4.44-4.41,8-9.4,12.95-13.35,5.12-4.07,11-7.14,16.59-10.5a.61.61,0,0,0-.47-1.11Z"/><path class="a" d="M146.58,164.82l-1.48.32c-.69.15-.33,1.25.4.94l1.37-.58c.41-.17.11-.77-.29-.69Z"/><path class="a" d="M136.22,168c-6.69,4.74-13.56,8.46-18.74,15-5.61,7.1-7.15,14.95-6.18,23.85.91,8.43,2.22,16.57,7.61,23.38a31.62,31.62,0,0,0,18.72,11.61c16.14,3.14,36,.54,46.44-13.52,10.14-13.66,8.06-31.83-1.36-45.27-11-15.71-31.48-23-49-13.77-2,1-.24,3.8,1.7,2.91,18.8-8.53,40.84,2.53,49.15,20.57,8.7,18.88-.52,39.66-20.35,45.83-10.64,3.31-21.34,3.08-31.32-2-7.62-3.86-13.82-9.59-16.21-18-2.7-9.53-4-21.34,1.27-30.16,4.39-7.39,12.07-14.28,19-19.21.73-.52,0-1.74-.71-1.21Z"/><path class="a" d="M143.62,172.45c-17.55,1-28.88,21.48-22.59,37.51a1.46,1.46,0,0,0,2.85-.39c.43-7.84,0-14.92,3.31-22.31a25.31,25.31,0,0,1,16.49-14.35c.25-.07.21-.48-.06-.46Z"/><path class="a" d="M122.23,192.48c-6-2.76-6.49,7.11-6.38,10.78.24,7.44,2.19,16.49,7.68,21.85,1.25,1.22,3.65,0,3.06-1.78-1.42-4.23-3.66-8.07-4.78-12.42-.34-1.32-2.84-15.65-.27-15.9,1.19-.11,2-1.91.69-2.53Z"/><path class="a" d="M120.94,218.82c2.86,6,6.73,11.87,12.26,15.64,1.16.79,2.45-1,1.48-1.91-4.62-4.57-9.18-8.79-12.61-14.39a.66.66,0,0,0-1.13.66Z"/><path class="a" d="M186.27,422.42c-4.84-1.52-9.31,2.88-12.42,6.08-5,5.13-9.65,10.61-14.37,16-9.92,11.29-19.83,22.69-29,34.58l5.32,4.11c1.62-2.54,3.39-4.93,4.39-7.78a2.22,2.22,0,0,0-3.24-2.49c-2.52,1.67-4.41,4-6.48,6.16-3,3.23,2.11,8.14,4.79,4.79,8.84-11,17.45-22.2,26.48-33.07,4.49-5.4,9-10.78,13.62-16.07,3.45-4,8.32-7.12,11.31-11.33a.66.66,0,0,0-.39-1Z"/><path class="a" d="M248.63,413.08a3.74,3.74,0,0,0-3.16-2.84c-4.1-.92-5.79,5.52-1.72,6.25,10.07,1.81,20.44,2.36,30.62,3.4,5.12.52,10.24,1.08,15.36,1.55,4.75.44,9.45.43,13.84,2.48a4.64,4.64,0,0,0,5.37-.69,4.12,4.12,0,0,0,.69-.9c.93-1.5.8-4.2-.69-5.37-7.48-5.86-19.81-4.51-28.8-5-11.77-.69-23.73-2-35.52-1.82l3.24,3.24,0-.72-1.16,2,.85-.1a1.18,1.18,0,0,0,1.13-1.48Z"/><path class="a" d="M130.24,485.28c29.54-9,58.84-18.75,88-28.87l43.32-15c7.23-2.51,14.42-5,21.75-7.19,7-2.09,14.92-4.52,21.32-8.09,3.33-1.85.94-6.44-2.46-5.83-6.89,1.25-14.25,4.29-20.72,7-7.41,3.08-14.91,5.86-22.45,8.63l-43.09,15.86C187.16,462.35,158.5,473.3,130.17,485c-.16.07-.1.33.07.27Z"/><path class="a" d="M179.56,426c.16,1.47.94,3.47,2.62,3.72a.66.66,0,0,0,.64-1.1,2.25,2.25,0,0,1-.7-2.27c.58-1.91-2.76-2.19-2.56-.35Z"/><path class="a" d="M184.71,433.57c-1-2.76-2.78-6.46-1.78-9.46.89-2.7-4.17-3.34-3.62,0a113.62,113.62,0,0,0,10.26,31.35c1.3,2.67,6,.75,4.86-2.05a25.28,25.28,0,0,0-4-6.79c-.65-.78-1.78-.08-1.84.76a23.91,23.91,0,0,0,.67,7.44l4.86-2.05a132.16,132.16,0,0,1-11.24-29.66l-2.76,2.12c2.61,1.67,3.48,5.62,4.45,8.37,0,.06.12,0,.1,0Z"/><path class="a" d="M185.4,433.43c-.78-2.05-.12-3.2-2.19-4.58-.24-.16-.51.1-.45.35.63,2.75.06,5.14,1,7.86a60.34,60.34,0,0,0,3,7c2,4.08,4,8.93,7.85,11.54,1.6,1.08,3.51-.7,3.1-2.38-1.21-5-5.37-9.49-7.78-14-1.07-2-1.94-4.62-3.4-6.35-1.66-2-2-.71-1.35.73.06.14.31,0,.26-.11Z"/><path class="a" d="M198.24,456.1c5.11-10.73,7.3-23,10.19-34.49.66-2.6-3.11-3.59-4-1.1a149.66,149.66,0,0,0-7.39,32.41c-.31,2.77,4.15,3.28,4.81.65q4.89-19.49,10.1-38.88l-5.24.69c7.1,12.11,17.36,23.07,30,29.45,3.06,1.55,5.62-2.77,2.7-4.61a87.48,87.48,0,0,1-27.71-27.74c-1.26-2-4.67-1.82-5.24.69q-4.51,19.59-9.29,39.11l4.81.65a159.57,159.57,0,0,1,6.47-31.31l-4.05-.55c-1,12-4.9,22.84-7.68,34.39-.21.89,1.11,1.55,1.54.65Z"/><path class="a" d="M214.58,420.8a135.45,135.45,0,0,0,12.68,17.83c2.95,3.66,6.87,9.23,12.3,7.64a2.86,2.86,0,0,0,2-3.46l-.14-.54a1.86,1.86,0,0,0-1.31-1.31c-2.17-.5-3.83-.31-5.64-2-2.11-2-4.06-4.29-6-6.43-4-4.34-7.71-9-11.76-13.29a1.32,1.32,0,0,0-2.06,1.59Z"/><path class="a" d="M240.73,442.84c2.63-11,4-22.27,6.13-33.4a2.72,2.72,0,1,0-5.38-.73c-.61,5.63-1.21,11.25-1.91,16.86L244,425q-.57-1.55-1.16-3.1a1.65,1.65,0,0,0-3.22.44q0,1.63,0,3.26c0,2.46,4,3.16,4.42.6.9-5.59,1.88-11.16,2.87-16.73l-5.38-.73c-.66,11.32-2.08,22.57-2.23,33.92a.75.75,0,0,0,1.47.2Z"/><path class="a" d="M185.77,417c4-7.65,7.11-15.73,10.52-23.64,3.2-7.43,6.75-14.7,9.64-22.25.6-1.57-1.88-2.2-2.5-.69-5.52,13.5-11.32,26.74-15.6,40.72a.94.94,0,0,0,1.7.72c8.14-15.5,15-31.78,22.35-47.67l-3.71-.49c3.43,8.81,9.05,16.64,14.84,24,3.29,4.21,6.72,8.31,10.22,12.34,3.07,3.54,7.22,5.8,10.37,9.26l.61-1.47c-4.89.06-9.61-2.76-13.71-5.13-5-2.91-9.81-6.22-14.65-9.44-4.19-2.79-8.37-5.57-12.63-8.24-5.74-3.58-13.66-3.77-20.2-3-3.41.41-3.56,5.75,0,5.46a107.35,107.35,0,0,0,52.94-19l-3.41-4.42c-9,8.37-15.95,18.5-23.18,28.36-7.61,10.37-15.48,19.16-26.39,26.09l5.16,3a5.28,5.28,0,0,1,2.2-4.15c2.24-2-.61-5-3-3.9-3.19,1.48-4.81,3.88-5.92,7.14-1,3.06,2.55,5.07,5,3.87,10.8-5.2,18.78-15.86,25.66-25.29,7.77-10.65,14.78-22,24.42-31.09,2.27-2.15-.74-6.27-3.41-4.42A103.35,103.35,0,0,1,183,382.07v5.46a38.06,38.06,0,0,1,12.61.3c3.43.7,7.32,1,10.51,2.38,4.6,2,8.69,4.92,12.87,7.63,7.07,4.59,16.27,11.94,25.2,11.73a.87.87,0,0,0,.61-1.47c-2.94-3.15-4.59-7.09-7.31-10.39-3.21-3.9-6.61-7.63-9.78-11.58-6-7.42-12.09-15.21-15.85-24a2,2,0,0,0-3.51,0c-6.91,16.27-14.45,32.41-20.54,49l1.8.5c3.83-13.87,8.63-27.88,16.16-40.22l-2.24-1.31c-4.31,7.41-7.68,15.36-11.12,23.21a171.48,171.48,0,0,0-8.64,22.85c-.32,1.15,1.4,1.94,2,.83Z"/><path class="a" d="M152.3,459.78l.33.29a1.82,1.82,0,0,0,2.48,0,2.16,2.16,0,0,0,1-2.3A1.89,1.89,0,0,0,154.3,456c-3.85-.47-8,4.49-10.57,6.85a47.27,47.27,0,0,0-9.91,12.6,2.53,2.53,0,0,0,4,3c11.51-9.79,20.18-20.88,28-33.71l-4.1-2.4a156.57,156.57,0,0,1-20.24,34.18l4.28,3.31q15.11-21,30.35-42l-5.75-3.36Q158.52,452.7,147,471c-2.52,4,3.78,7.66,6.34,3.71a195.27,195.27,0,0,1,29-35l-5.24-5.24a145,145,0,0,0-23,35.82c-1.92,4.27,3.81,7.87,6.4,3.74a144.91,144.91,0,0,1,22.23-27.46l-5.27-5.27a139.52,139.52,0,0,0-19.11,32.39c-1.74,4.16,4.63,6.19,6.89,2.91a97.11,97.11,0,0,1,19.65-21l-5.68-4.38A80.29,80.29,0,0,0,172.51,464c-1.44,3.43,3.61,5.75,5.93,3.45a68.34,68.34,0,0,1,8.42-7.12l-3.84-5a15.51,15.51,0,0,0-5.25,8.52,3.08,3.08,0,0,0,4.47,3.44,29.48,29.48,0,0,0,7.1-5.29l-5-1.31-.08,2a2.93,2.93,0,0,0,3.57,3.57A52.85,52.85,0,0,0,215.74,446c2-2.85-2.56-6.39-4.83-3.73a53.3,53.3,0,0,0-7,10.41,3.31,3.31,0,0,0,5.17,4,25.8,25.8,0,0,0,8.52-19c.07-2.26-2.81-4.16-4.78-2.75a20.69,20.69,0,0,0-6.95,8.14,3.13,3.13,0,0,0,5.4,3.15,86.66,86.66,0,0,0,10.62-19c.81-2-1.63-4.34-3.59-3.59a14.3,14.3,0,0,0-8.81,8.73c-1.19,3.11,3.72,5,5.31,2.24a28.06,28.06,0,0,0,3.38-9.33c.36-2.13-1.32-4.44-3.7-3.7l-.92-.5c-1.09-2.27-5.1-1.8-5.55.72-.86,4.83-1.65,9.68-2.61,14.5a3.17,3.17,0,0,0,5.25,3.05,13.75,13.75,0,0,0,5.08-11.21c0-3.44-4.66-3.8-5.75-.78-3.14,8.65-6.2,16.9-8.32,25.89-.87,3.67,3.28,5.69,6,3.48,5.31-4.34,9.43-10.48,13.42-16l-6.11-2.58-3.48,9.66c-1.28,3.54,3.42,5.46,5.82,3.39,3.5-3,6.46-6.84,10.06-9.64L222.71,438c-1.94,2.94-3.76,5.89-5.51,9-1.23,2.17.28,5.78,3.13,5.45,6.56-.76,11.56-2.75,16.43-7.24,2.62-2.42-.73-6.56-3.75-4.86a43.85,43.85,0,0,1-13.64,5l4.09,5.32c1.68-3.42,3.17-6.82,4.62-10.34,1.17-2.83-3-4.79-4.91-2.86-3.21,3.23-7.43,5.78-10.83,8.87l5.82,3.39,3.21-9.74c1.25-3.77-4.08-5.57-6.11-2.58-3.68,5.41-8.36,9.52-12.7,14.33l6.11,2.53c.78-8.19,2.87-17.22,6.65-24.59l-5.46-1.48a11.32,11.32,0,0,1-3.66,6.77l5.25,3.05c.72-4.86,1.59-9.71,2.4-14.56l-5.55.72a6.19,6.19,0,0,0,7.76,3.24l-3.7-3.7a25,25,0,0,1-2.59,8l5.31,2.24a7,7,0,0,1,4.76-4.65L216.54,425a126.79,126.79,0,0,1-10.69,18.13l5.4,3.15a12.84,12.84,0,0,1,4.76-5.8l-4.78-2.75a21.17,21.17,0,0,1-6.81,14.32l5.17,4a46.61,46.61,0,0,1,5.68-9.39l-4.83-3.73a40.19,40.19,0,0,1-24.11,17.78l3.57,3.57a10.73,10.73,0,0,0,.21-5.14c-.38-2.32-3.48-2.7-5-1.31a26.24,26.24,0,0,1-6,4.23l4.47,3.44a8,8,0,0,1,3.22-5.16c3.32-2.31.44-7.45-3.2-5.48a45.57,45.57,0,0,0-10.24,7.58l5.57,4.3a75.18,75.18,0,0,1,6.44-11.84c2.47-3.71-2.71-6.7-5.68-4.38a103.44,103.44,0,0,0-21,22.27l6.51,3.81a137,137,0,0,1,17.49-30c2.86-3.68-1.73-8.73-5.27-5.27a156,156,0,0,0-23.36,29l6.4,3.74a138.61,138.61,0,0,1,21.89-34.32c3.11-3.57-1.76-8.57-5.24-5.24A203.15,203.15,0,0,0,147,471l6.34,3.71q11.49-18.36,22.71-36.87c2.24-3.71-3.36-6.86-5.75-3.36Q155.76,455.86,141,477.08c-2,2.93,2.64,5.49,4.71,2.75A161.32,161.32,0,0,0,166,444.18c1-2.53-3-4.09-4.34-1.83-7.11,12.12-17,23.23-27.47,32.55l4,3a43.2,43.2,0,0,1,7.14-10.08c1.77-1.9,6.42-8.36,9-8.28l-1.75-1.33.08-.66,2.13-.27-.36-.26c-1.58-1.17-3.57,1.42-2.1,2.72Z"/><path class="a" d="M253.84,427a19.44,19.44,0,0,0,.21-2.64c.12-2.59-3.57-4.26-5.32-2.2a107.88,107.88,0,0,1-9.27,9.63c-3.73,3.43,1.8,8.9,5.54,5.54,5.93-5.33,9.7-13.13,11.93-20.68,1.08-3.66-3.8-6.56-6.45-3.76A28.11,28.11,0,0,0,244,424c-1.12,3.55,3,6.28,6,4.64a102.67,102.67,0,0,0,14.16-9.47l-5.77-5.77A74.13,74.13,0,0,0,245.62,437c-1.28,4,3.9,6.49,6.71,3.91,7.73-7.1,15.07-14.62,23-21.55L270,414.09l-14.35,15.58c-2.56,2.78-.07,8.75,4.08,7a36.08,36.08,0,0,0,13.16-9.05l-6.77-5.23A49.06,49.06,0,0,1,256,433c-4.08,3.07-.16,10.06,4.08,7a79.24,79.24,0,0,1,24.54-12.39l-5.48-5.48c-.83,2.71-2.3,4.32-4.37,6.16-4.05,3.61,1.34,10.82,5.88,7.62,3.95-2.79,7.63-5.91,11.81-8.32,4.8-2.76,1.34-9.14-3.53-8.38a10.52,10.52,0,0,0-8.94,7.93c-1.39,5.15,5.81,8.17,8.57,3.61a5.29,5.29,0,0,1,2.81-2.71l-4.46-7.66c-3.45,2.72-7.46,4.75-11.15,7.14l5.88,7.62a18.8,18.8,0,0,0,6.1-10.65c.64-3-2.08-6.8-5.48-5.48A111.44,111.44,0,0,0,256,433l4.08,7a70.43,70.43,0,0,0,13.51-13.27c3-3.9-3.49-8.79-6.77-5.23a32.27,32.27,0,0,1-10.3,7.48l5.09,6.59,13.66-16.26c3-3.61-1.76-8.63-5.25-5.25-7.56,7.29-15.66,14-23.38,21.13l6.71,3.91a58.25,58.25,0,0,1,10.81-20c2.72-3.26-.93-9.36-4.94-6.41-4.3,3.17-8.79,6-13.37,8.78l6,4.64a18.91,18.91,0,0,1,4-7.83l-6.45-3.76c-1.82,7-5.35,11.86-10,17.19L245,437.3a115.52,115.52,0,0,0,8.62-11.4h-5.38a18.16,18.16,0,0,0,1.23,2.25c1.28,2.16,4.12,1,4.37-1.18Z"/><path class="a" d="M171,555.54c-3.18-.78-3.63,3.8-3,5.88,1.13,3.53,4.83,4.53,8,2.88,3.34-1.76,7.37-6.6,3-9.58a6.13,6.13,0,0,0-8.91,2.85c-1.35,3.82,2,8,6,7.93s6.36-4.66,5.14-8.23c-1.62-4.7-7.89-4.88-11.34-2.26a7.2,7.2,0,0,0-.45,11.34,6.2,6.2,0,0,0,10.05-5.21,5,5,0,0,0-4.71-4.72c-2.24-.11-4.62,1-4.77,3.46a1.67,1.67,0,0,0,2.08,1.58,7.81,7.81,0,0,1,1.53-.16c.45.18.54.48.1.77-1,.69-1.7-1-1.37-1.86.43-1.13,3.34-2.66,4.09-1.15a1.18,1.18,0,0,1-1.32,1.68c-1.84-.61-1.25-2.67.38-3a2,2,0,0,1,1.06,0c.73.26.6.36.29,1.06a7.08,7.08,0,0,1-2.35,2.23c-1.57,1-3.14.61-3.74-1.18-.45-1.32.15-2.74.49-4a.29.29,0,0,0-.2-.35Z"/><path class="a" d="M144.53,582.35a4.39,4.39,0,0,0-.61,5.86,3.51,3.51,0,0,0,1.27,1.14c.81.39,1.52,0,2.27-.36,1.16-.55,3.31-1.63,3.68-3,.85-3-3-5.42-5.6-4.65a4.55,4.55,0,0,0-2.29,6.72,1.81,1.81,0,0,0,2.43.64,5.93,5.93,0,0,0,2.87-5.52c-.06-.7-.51-1.62-1.32-1.73A4.51,4.51,0,0,0,142,585c-.38,2.33,1.38,5,3.91,4.73a1.51,1.51,0,0,0,.76-2.8c-.39-.24-1.2-.84-1.1-1.38s.8-.63,1.25-.58l-1.8-1.8a2.42,2.42,0,0,1-1.07,2.46l2.43.64a1.06,1.06,0,0,1,.12-1.51c.51-.32,1.31.23,1.38.79l.5-1.2a11,11,0,0,1-3.13,2.57l1.08-.14a2.35,2.35,0,0,1-.74-3.45.7.7,0,0,0-1-1Z"/><path class="a" d="M171,610.9a66.52,66.52,0,0,0,27-25c6.41-10.73,11.12-23.37,3.51-34.67-14.67-21.79-44.79-29.29-67.38-15.53-1.06.65-.13,2.08.95,1.62,21.85-9.29,48.83-4.26,62.56,16.18,7.15,10.64,2.08,22.6-4,32.56a76.59,76.59,0,0,1-23.07,24.14.38.38,0,0,0,.38.65Z"/><path class="a" d="M179.77,561.07c9.62-1.19,10-11.74,9.25-19.34a1.85,1.85,0,0,0-3.69,0c-.56,4.9-.93,9.93-2.8,14.56s-5,7.42-9.07,10.32a1.32,1.32,0,0,0,1,2.4c11.34-2.4,13.7-17.94,14.55-27.28l-3.63.49c1.21,6.59,2.11,15.59-5.66,18.58-.13.05-.13.3,0,.28Z"/><path class="a" d="M186.08,553.2c-1.45-6.77-3.27-11.42-9.17-15.39l-1.8,4.28a4.92,4.92,0,0,0,6-2.52h-4.2c3.06,5.57,5.64,12.88,4.82,18.57.13-.88-.9-1.76-1.65-1-3.33,3.59,3.62,8.38,6.73,3.64,1.92-2.92.85-7,.09-10.1a48,48,0,0,0-5.79-13.61c-.9-1.47-3.37-1.7-4.2,0l-.59.47a2.35,2.35,0,0,0-1.8,4.28c4.38,2.66,9.35,6.65,11.36,11.42,0,.1.19,0,.17-.07Z"/><path class="a" d="M183.19,549.21a67.2,67.2,0,0,0-10.82-21L168,531.57c5.32,4.74,9.51,9.46,12,16.28,2.35,6.44,1.84,12.68,2.59,19.33.17,1.48,2.46,2.64,3.23.88,5.9-13.45-3.64-32.58-14.46-40.83-2.48-1.89-5.84,2.43-3.36,4.35a48.91,48.91,0,0,1,14.32,18c.23.48,1,.14.86-.36Z"/><path class="a" d="M184.53,546.76c-1.5,5.57-3.1,11.49-6.7,16.11a15.23,15.23,0,0,1-7.58,5.41c-2.5.74-4.9,0-7.3.78a1.33,1.33,0,0,0-.58,2.19c4.35,4.38,12.77-.29,16.27-3.83,5.41-5.46,6.68-13.18,6.72-20.56a.42.42,0,0,0-.83-.11Z"/><path class="a" d="M170.63,569.86a26.31,26.31,0,0,0-8,1.79l1,2.44c3.84-3,8-.53,9.76,3.16,1.42,2.89,1.17,6.42.72,9.51-.82,5.65-3.66,10.33-5.05,15.72a1.47,1.47,0,0,0,2.43,1.41c6.31-5.63,8.35-18.62,5.68-26.41-2.18-6.35-9.54-10.26-15.16-5.5-1,.83.07,2.74,1.3,2.23a27.23,27.23,0,0,0,7.38-4.13.14.14,0,0,0-.1-.24Z"/><path class="a" d="M174.86,593.68c2.42-3.17,5-6.57,8.58-8.5,4-2.15,7-.49,11,.39a1.32,1.32,0,0,0,1.28-2.19c-2.63-3.29-7.72-2.1-10.9-.36-4.51,2.47-7.29,6.36-10.1,10.57-.07.1.09.19.16.09Z"/><path class="a" d="M145.93,588c7.68.45,14.56-5.81,18.42-11.84,1.08-1.69-1.56-3.82-2.83-2.18-6.41,8.22-8,19.42.45,27.09L163.6,599a10.55,10.55,0,0,0-15.07,6.35h2.36a10.47,10.47,0,0,0-11.18-8.36l1.66,2.89c2.76-3.67,5.59-9.16,3.9-13.77a1.37,1.37,0,0,0-2.62,0c-1.71,4.23-1.7,7.93-4.6,11.83-1.11,1.5.72,3.08,2.17,2.83a7.1,7.1,0,0,1,8.31,5.24,1.23,1.23,0,0,0,2.36,0,7.93,7.93,0,0,1,11.35-4.68c1.31.7,2.78-1,1.63-2.11-5.68-5.34-7.51-17.28-.17-22.36l-2.47-2.47c-4.05,6.23-9.58,9.05-15.45,13.14a.28.28,0,0,0,.14.52Z"/><path class="a" d="M175.37,563.92c-2.23,2.88-6.24,9.63-2.17,12.62,5.34,3.94,11.3-7.32,13.65-10.29L182,563.42a89.07,89.07,0,0,1-5.79,17.12c-1.68,3.84,3.12,8.77,6.39,4.93,6.17-7.24,9.43-16.22,10.91-25.51.51-3.2-3.95-5.8-5.68-2.4-3.85,7.56-6.89,15.92-9.75,23.9-1.52,4.24,4.38,5.8,6.67,2.81a54.12,54.12,0,0,0,7.47-12.87c1.84-4.64,2.53-9.6,4.18-14.3,1.15-3.28-4-4.66-5.19-1.43a37.84,37.84,0,0,0-1.77,15.66c.32,4.43,7.12,4.54,7,0-.31-9.85-2.48-19.68-2.3-29.53.07-3.74-6-4.77-6.7-.91a30.24,30.24,0,0,0,7.15,25c2.93,3.3,7.9-.91,5.93-4.58-1.39-2.6-4-7.55-1.06-10h-5.34c2.49,2.36,1.48,7.37,1.46,10.54l-.06,12.7h9c-.27-4.21-1.11-8.37-1.38-12.58-.23-3.56-6-4.91-6.66-.9-.83,5.28-1.86,10.31-4.65,14.93l6.06-1.59a23.26,23.26,0,0,0-4.27-1.78c-4.83-1.49-6.63,4.9-3.18,7.54a9.82,9.82,0,0,0,3,1.88c2.3,1.18,6,.34,6.5-2.65,1-5.84,2.51-11.54,3.23-17.44h-6.78c-.08,4.2-.74,8.37-.82,12.58-.12,5.78,9,5.79,9,0-.06-6.44.28-13-.28-19.45-.4-4.53-1.92-8.5-6.42-10.11a3.8,3.8,0,0,0-4.27,1.74c-3.25,5.88-2.18,11.35.1,17.45l6.9-2.91a41.18,41.18,0,0,1-6.38-19.5l-6.7.91c1.59,9.4.89,19.16,2,28.62l6.86-.93c-.77-4.8-.36-9.24.2-14h-5.38c-.12,8.44-6.54,17.46-12.1,23.46l6.1,3.55c3.08-7.58,6.29-15.53,8.4-23.44l-6-1.65c-2.75,8-7,15-11.3,22.24l7.43,3.13c1.57-6.2,2.63-12.47,4-18.7.56-2.57-2.9-5.29-4.87-2.83-1.61,2-5.78,5.54-6.4,8q-1.18.73,0,1.4,1.32,2,.88-1.6c.24-1.45.62-2.92,1-4.35s-1.72-3.07-2.82-1.64Z"/><path class="a" d="M148.08,589.67c-.18.92-1.22,1.54-1.63,2.37a3.45,3.45,0,0,0-.27,2.51,4.17,4.17,0,0,0,3.81,2.68,4.27,4.27,0,0,0,4.41-2.68c1.05-2.48.21-4.72-1.21-6.83a1.69,1.69,0,0,0-1.84-.75c-4.36.94-9,5.33-5.62,9.86,3.22,4.32,9.82.15,7.45-4.63-.89-1.79-3.36-2.15-5.13-1.59a5.54,5.54,0,0,0-3.7,5.37,6.2,6.2,0,0,0,5.87,5.83c3.54.12,5.15-2.81,6.34-5.58,1-2.31-1.6-4.74-3.64-2.81-2.28,2.15-.48,6.14,2.62,6.11s4.62-3.4,3.93-6.06c-.47-1.84-2.26-4.76-4.38-4.76-2.58,0-4.71,3-2.57,5a1.85,1.85,0,0,0,3.12-1.29c0-.64-.09.5-.17.78a6.71,6.71,0,0,0-.24.8q-1,1.32,1.33,2.22l-4.32-1.17c-.07.55-2,.07-2.37-.21-.68-.52-.63-.54-.23-1.09.17-.23,1.54-1.24.94-.23a1.66,1.66,0,0,1-3.11-.36c-.85-2.47,1.93-3.68,3.89-3.06l-1.19-1.57c.07.93.06,1.84,0,2.77a4.69,4.69,0,0,1,0,1.09c0,.09-.51.24-.51.23-.07.31.17.53.45.38s.41-.77.49-.95a4.06,4.06,0,0,0,.42-2c-.08-1.6-2.6-2.14-2.95-.4Z"/><path class="a" d="M124.38,538.95a50.87,50.87,0,0,1-6.68,3.94c-1.9.91-1,4.1,1.08,4,3.72-.23,7.64-1.92,9.61-5.2,1.23-2.05-1.28-4.74-3.37-3.37-3.78,2.48-8,4.23-11.69,6.87-2.38,1.69-.33,5.38,2.32,4a43.72,43.72,0,0,0,3.94-2.26,2.17,2.17,0,0,0-2.19-3.74c-2.53,1.12-4.87,1.94-7.06,3.7l3.43,3.43c.71-.69,1.39-1.43,2.15-2.06,1.23-1,.15-2.9-1.23-3a5.44,5.44,0,0,0-4.35,1.59c-2.35,2.08,1.07,5.43,3.43,3.43a12.59,12.59,0,0,1,5.3-3.17l-1.15-4.18a49.31,49.31,0,0,0-4.59,2.25l2.32,4c3.34-2.37,7.27-5.26,11.27-6.34l-2.39-4.11c-2.09,1.75-3.65,3.16-6.31,4l2.07,3.56a51.21,51.21,0,0,1,5.41-5.6c.89-.82-.28-2.39-1.31-1.69Z"/><path class="a" d="M119.92,542.87c-.26-.4-.62-.58-.87-.94a2.7,2.7,0,1,0-4.26,3.29c3,3.76,9.37,3.61,13.37,1.9,2.39-1,1.76-4.34,0-5.52a7.49,7.49,0,0,0-6.38-.8c-2.07.67-4.2,2.62-3.33,5a2,2,0,0,0,1.9,1.45c1.49-.13,3.05-1.6,3.94-.61l1.41-5.35a14.15,14.15,0,0,1-4.31.25c-1.58-.23-3.08-.78-4.68-.93l2.71,2.71-.07-.65-.92.92h1.08a.47.47,0,0,0,.4-.71Z"/><path class="a" d="M246.07,37.22l.42.54c1,1.32,3,1.13,4.28.55,7.84-3.47,15.65-7,23.42-10.6l-5.14-5.14c-7.13,11.81-13.77,23.9-21,35.63-1.5,2.43,1.65,6,4.14,4.14,7-5.26,14.36-8.75,22.11-12.63,3-1.5.91-6.39-2.28-5.4-8.28,2.58-16,7.58-22.89,12.8l4.14,4.14c7.19-11.79,15-23.19,22.28-34.9,2.16-3.45-2-6.59-5.14-5.14-7.78,3.57-15.49,7.25-23.2,11a3.58,3.58,0,0,0-1.62,4,2.4,2.4,0,0,0,.49,1Z"/><path class="a" d="M277.51,36.31c1.5-1.28,4.27-3.8,6.33-3.81q4.42,2.26,1.4,4.34L283.93,38c-1.56,1.55-2.67,2.6-3.3,4.75a2,2,0,0,0,2.4,2.4c1.93-.51,7.37-.18,5.69,2.51-.53.84-2.43,1.91-3.14,2.46-2.27,1.76-4.65,3.39-6.76,5.34s.77,6.12,3.29,4.27a95,95,0,0,0,9.62-8.29c1.54-1.5,2.91-3.06,2.76-5.38-.41-6.49-8.12-6.11-12.5-4.67l2.4,2.4c1-4.21,9.36-7.68,4.06-12.65-4.49-4.21-9.82.13-12.49,4-.67,1,.75,1.88,1.55,1.19Z"/><path class="a" d="M275.45.44c-17.9-2.91-33.64,9-39.91,25.27-6.14,15.92-5.28,38.42,9.21,49.65C258,85.6,277.5,84,290.53,74.34c15.59-11.59,18.47-30,10.58-47.18C292.93,9.41,273.17-6.21,253.25,3.65c-3,1.51-.89,6.83,2.35,5.57,14.87-5.76,28.34,3.78,35.76,16.29,7.77,13.09,9.48,28.46-2.23,39.76-9.19,8.87-23.78,12-35.56,6.56C239.5,65.29,237.2,47.32,239.7,33.58,242.81,16.5,256.61,1.79,275,3.85c1.92.22,2.39-3.09.46-3.41Z"/></svg>