<svg xmlns="http://www.w3.org/2000/svg" xmlns:xlink="http://www.w3.org/1999/xlink" viewBox="0 0 943.35 169.53"><defs><style>.a{fill:url(#a);}.b{fill:url(#b);}</style><linearGradient id="a" x1="3155.62" y1="1289.12" x2="3155.62" y2="1420" gradientUnits="userSpaceOnUse"><stop offset="0" stop-color="#fabe91"/><stop offset="0.42" stop-color="#f47f5d"/><stop offset="0.52" stop-color="#e7795a"/><stop offset="0.7" stop-color="#c46854"/><stop offset="0.95" stop-color="#8d4c49"/><stop offset="1" stop-color="#804646"/></linearGradient><linearGradient id="b" x1="2602.82" y1="1289.41" x2="2697.42" y2="1453.27" gradientUnits="userSpaceOnUse"><stop offset="0" stop-color="#fabe91"/><stop offset="0.48" stop-color="#f47f5d"/><stop offset="0.57" stop-color="#e7795a"/><stop offset="0.73" stop-color="#c46854"/><stop offset="0.95" stop-color="#8d4c49"/><stop offset="1" stop-color="#804646"/></linearGradient></defs><title>logotype</title><path class="a" d="M2828,1336.57v76.82a6.8,6.8,0,0,0,6.74,6.54,7.13,7.13,0,0,0,5-1.92,6.68,6.68,0,0,0,2.28-4.62v-49c0-6.32,1.91-11.72,6.38-16.19a21.7,21.7,0,0,1,16-6.7,24,24,0,0,1,17,6.7c4.47,4.47,7.56,9.87,7.56,16.19v49c0,1.8-.3,3.34,1,4.62a5.31,5.31,0,0,0,4.15,1.92,6.66,6.66,0,0,0,4.78-1.92,6.46,6.46,0,0,0,2.08-4.62v-49c0-6.32,1.84-11.72,6.31-16.19a21.62,21.62,0,0,1,16-6.7,22.73,22.73,0,0,1,22.7,22.89v49a6.55,6.55,0,0,0,6.53,6.54,6.5,6.5,0,0,0,6.47-6.54v-49a35.92,35.92,0,0,0-61.35-25.42,40,40,0,0,0-4,4.66,40.24,40.24,0,0,0-4-4.66,34.64,34.64,0,0,0-25.42-10.55,33.42,33.42,0,0,0-22.55,8.25l0.32,0v-6.52a0.69,0.69,0,0,0-.34-0.19,6.44,6.44,0,0,0-6.48-5.89h-12.79a6.31,6.31,0,1,0,0,12.61Zm13.35,0.05h0Zm176.58-8.26a45.77,45.77,0,1,0,32.37,13.41A44.11,44.11,0,0,0,3017.93,1328.36Zm23.14,68.92a32.76,32.76,0,1,1,9.56-23.14A31.52,31.52,0,0,1,3041.06,1397.28Zm58.37-46.27a32.7,32.7,0,0,0,23.14,55.84,31.2,31.2,0,0,0,21.34-8,6.43,6.43,0,0,1,4-1.31,6.56,6.56,0,0,1,6.54,6.54,6.78,6.78,0,0,1-2,4.82,45.78,45.78,0,1,1,0-69.49,6.53,6.53,0,0,1,2.29,5.07,6.56,6.56,0,0,1-6.54,6.54,6.39,6.39,0,0,1-4.17-1.47A32.58,32.58,0,0,0,3099.43,1351ZM3244,1340.3L3206.11,1365,3245,1408.8a6.56,6.56,0,0,1,1.79,4.58,6.32,6.32,0,0,1-1.94,4.62,6.4,6.4,0,0,1-4.67,1.92,6.85,6.85,0,0,1-4.84-2l-40.66-45.78-13.7,8.75v32.45a6,6,0,0,1-1.54,4.62,5.47,5.47,0,0,1-8.32,0c-1.28-1.28-1.14-2.82-1.14-4.62V1295.66c0-1.8-.28-3.34,1-4.62s2-1.92,3.78-1.92a6.15,6.15,0,0,1,4.55,1.92,6.09,6.09,0,0,1,1.67,4.62v69.65l55.56-36a7.48,7.48,0,0,1,3.81-1,6.21,6.21,0,0,1,4.58,1.92,6.53,6.53,0,0,1,0,9.2A11,11,0,0,1,3244,1340.3Zm66.46,68.47a6.76,6.76,0,0,1,0,9.24,5.58,5.58,0,0,1-4.29,1.92c-21.8,0-32.19-10.9-32.19-32.7V1342h-7.55a6.65,6.65,0,0,1-4.62-2.26,7,7,0,0,1-1.92-4.93,6.91,6.91,0,0,1,6.54-6.81H3274v-32.34c0-1.8.21-3.34,1.49-4.62a5.55,5.55,0,0,1,4.27-1.92,6.93,6.93,0,0,1,4.89,1.92,6.76,6.76,0,0,1,2.35,4.62V1328h12.23a6.54,6.54,0,0,1,4.62,2.16,6.91,6.91,0,0,1,1.92,4.88,6.65,6.65,0,0,1-1.92,4.77,6.57,6.57,0,0,1-4.62,2.19H3287v45.22c0,13.08,6.07,19.62,19.15,19.62A5.72,5.72,0,0,1,3310.5,1408.76Zm60.59-80.4a45.78,45.78,0,0,0-32.37,78.15,45.47,45.47,0,0,0,33,13.41c12.64,0,23.31-4.58,33.31-13.73v7.19c0,1.8,0,3.34,1.32,4.62a5.64,5.64,0,0,0,4.32,1.92,6.11,6.11,0,0,0,4.53-1.92,6.22,6.22,0,0,0,1.84-4.62v-39.24A45.89,45.89,0,0,0,3371.09,1328.36Zm23.14,68.92a32.76,32.76,0,1,1,9.56-23.14A31.52,31.52,0,0,1,3394.22,1397.28Zm54.57-94.3a8.09,8.09,0,1,1-5.76-2.41A7.87,7.87,0,0,1,3448.79,1303Zm-0.93,27.3a6.52,6.52,0,0,1,2.14,4.62v78.48a6.9,6.9,0,0,1-6.84,6.54,5.93,5.93,0,0,1-4.45-1.92,6.11,6.11,0,0,1-1.71-4.62V1334.9a6.14,6.14,0,0,1,6.19-6.54A6.43,6.43,0,0,1,3447.86,1330.28Zm47.48,83.1a6.63,6.63,0,0,1-6.54,6.62h-13.08a5.47,5.47,0,0,1-4.21-2c-1.28-1.28-1.52-2.86-1.52-4.66V1295.66c0-1.8.16-3.34,1.44-4.62a5.45,5.45,0,0,1,4.22-1.92,6.24,6.24,0,0,1,4.59,1.92,6.15,6.15,0,0,1,1.75,4.62V1407h6.81a6.23,6.23,0,0,1,4.62,1.84A6.13,6.13,0,0,1,3495.35,1413.38Z" transform="translate(-2552 -1289.12)"/><path class="b" d="M2602,1372.67l-40.82-40.82c31.55-31.55,85.18-32.49,117.67,0s31.55,86.12,0,117.67l-42.2-42.2,57.16-15.61-68.78,4.79,45.46-56.29-56.93,44.66-2-66.62Zm86.06-50.12a96.35,96.35,0,0,0-136.1,0l3.63,3.63A91.11,91.11,0,1,1,2684.47,1455l3.63,3.63A96.35,96.35,0,0,0,2688.1,1322.55Z" transform="translate(-2552 -1289.12)"/></svg>