<?xml version="1.0" encoding="utf-8"?>
<!-- Generator: Adobe Illustrator 19.1.0, SVG Export Plug-In . SVG Version: 6.00 Build 0)  -->
<svg version="1.1" id="Layer_1" xmlns="http://www.w3.org/2000/svg" xmlns:xlink="http://www.w3.org/1999/xlink" x="0px" y="0px"
	 viewBox="0 0 529.9 733.9" style="enable-background:new 0 0 529.9 733.9;" xml:space="preserve">
<style type="text/css">
	.st0{fill:#0071BC;}
	.st1{fill:#2E3192;}
	.st2{fill:#29ABE2;}
</style>
<polygon class="st0" points="424.1,122 424.1,122 424.1,122 424,122 423.9,122 423.9,245 423.9,245 423.9,245 424,245 424,245 
	529.9,305.8 529.9,183.5 529.9,183.5 529.9,61.2 "/>
<polygon class="st1" points="529.9,305.8 423.9,244.6 423.9,244.6 318,305.7 423.9,367 423.9,367 "/>
<polygon class="st0" points="317.9,550 318,550 423.9,611.6 423.9,367 318,305.7 "/>
<polygon class="st0" points="-0.1,489 0,489 106,550.5 106.2,305.8 0.2,244.6 "/>
<g>
	<polyline class="st1" points="211.9,612 211.9,734 424.1,611.6 318.2,550.4 318.2,550.4 212.3,611.6 	"/>
</g>
<g>
	<polygon class="st2" points="0.2,244.6 106.2,305.8 529.9,61.2 424,0 	"/>
</g>
<polygon class="st2" points="212,489.6 106.1,428.6 212,368 "/>
<polygon class="st1" points="106.1,428.6 212,489.6 106,550.5 "/>
<polygon class="st0" points="106,550.5 212.2,612 212,612 106,550.5 105.9,673 106,673 211.9,733.9 211.9,611.6 211.9,611.6 
	212,489.6 "/>
</svg>
