<?xml version="1.0" encoding="utf-8"?>
<!-- Generator: Adobe Illustrator 19.1.0, SVG Export Plug-In . SVG Version: 6.00 Build 0)  -->
<svg version="1.1" xmlns="http://www.w3.org/2000/svg" xmlns:xlink="http://www.w3.org/1999/xlink" x="0px" y="0px"
	 viewBox="0 0 1107.2 260" style="enable-background:new 0 0 1107.2 260;" xml:space="preserve">
<style type="text/css">
	.st0{fill:#2C3E50;}
	.st1{fill:#29ABE2;}
	.st2{opacity:0.18;}
	.st3{fill:#FFFFFF;}
	.st4{fill:#AA5E63;}
	.st5{fill:none;stroke:#FF0000;stroke-width:0.8112;stroke-miterlimit:10;}
	.st6{fill:none;stroke:#FF0000;stroke-width:1.2327;stroke-miterlimit:10;}
	.st7{fill:none;stroke:#FF0000;stroke-width:2.4654;stroke-miterlimit:10;}
	.st8{fill:none;stroke:#FF0000;stroke-miterlimit:10;}
	.st9{fill:none;stroke:#FF0000;stroke-width:1.3805;stroke-miterlimit:10;}
</style>
<g id="Layer_1">
	<g>
		<g>
			<path class="st0" d="M58,144.3c5.9,7.3,13.8,10.9,23.7,10.9s17.8-3.6,23.6-10.9c5.8-7.3,8.7-17.3,8.7-29.9V27.3h35.2v88.2
				c0,22.9-6.3,40.4-19,52.7c-12.6,12.3-28.8,18.4-48.5,18.4c-19.7,0-35.9-6.2-48.6-18.5C20.3,155.7,14,138.2,14,115.5V48.6
				l35.2-28.3v94.1C49.2,127,52.1,137,58,144.3z"/>
			<path class="st0" d="M252.9,61.6c14.1,0,26.7,5.9,37.8,17.7c11.1,11.8,16.6,26.7,16.6,44.6c0,17.9-5.5,32.9-16.6,44.9
				c-11.1,12-24,18-38.8,18c-14.8,0-26.7-5.9-35.8-17.8v46.5l-33.8,28.1v-180h33.8v13.5C226.5,66.8,238.7,61.6,252.9,61.6z
				 M215.7,124.4c0,9.9,2.7,17.9,8.2,24.1c5.5,6.2,12.1,9.4,20,9.4c7.8,0,14.7-3.1,20.5-9.4c5.9-6.2,8.8-14.2,8.8-24
				c0-9.8-2.9-18-8.6-24.6c-5.7-6.6-12.6-9.9-20.5-9.9c-8,0-14.7,3.3-20.2,9.8C218.4,106.4,215.7,114.6,215.7,124.4z"/>
			<path class="st0" d="M511,117.3V185h-33.8V63.6H511v13.5c10.2-10.4,21.7-15.6,34.5-15.6c12.8,0,23.5,4.5,32.1,13.5
				c8.6,9,13,21.1,13,36.1V185h-33.8v-68.6c0-18.6-6.8-28-20.5-28c-6.8,0-12.7,2.4-17.7,7.3C513.5,100.7,511,107.8,511,117.3z"/>
			<path class="st0" d="M743.6,124.3c0,17.6-6.1,32.4-18.3,44.4c-12.2,12-27.5,18-45.9,18c-18.4,0-33.7-6-45.9-18
				c-12.2-12-18.3-26.8-18.3-44.4s6.1-32.4,18.3-44.6c12.2-12.1,27.5-18.2,45.9-18.2c18.4,0,33.7,6.1,45.9,18.2
				C737.5,91.9,743.6,106.7,743.6,124.3z M649.3,124.3c0,9.9,2.8,18,8.5,24.3c5.6,6.2,12.9,9.4,21.7,9.4c8.8,0,16-3.1,21.7-9.4
				c5.6-6.2,8.5-14.3,8.5-24.3c0-9.9-2.8-18-8.5-24.4c-5.6-6.3-12.9-9.5-21.7-9.5c-8.8,0-16,3.2-21.7,9.5
				C652.2,106.3,649.3,114.4,649.3,124.3z"/>
			<path class="st0" d="M828.6,185h-35L752.3,63.6h35l23.7,73.3l23.7-73.3h32.7l23.7,73.3l23.7-73.3H950L908.7,185h-35.2l-22.3-66.1
				L828.6,185z"/>
			<path class="st0" d="M1007.8,117.3V185h-33.8V63.6h33.8v13.5c10.2-10.4,21.7-15.6,34.5-15.6c12.8,0,23.5,4.5,32.1,13.5
				c8.6,9,13,21.1,13,36.1v53.9l-33.8,27.1v-75.8c0-18.6-6.8-28-20.5-28c-6.8,0-12.7,2.4-17.7,7.3
				C1010.3,100.7,1007.8,107.8,1007.8,117.3z"/>
		</g>
		<path class="st0" d="M367,185h-33.7V18.1H367v85.7l37.6-40h42.5l-46.1,49l47.9,72.2h-40L378,138.7l-11,11.5V185z"/>
	</g>
</g>
<g id="Layer_2">
</g>
</svg>
