<svg xmlns="http://www.w3.org/2000/svg" viewBox="0 0 170.28 239.64"><defs><style>.cls-1{fill:#231f20;}</style></defs><title>final mark</title><g id="Layer_2" data-name="Layer 2"><g id="Layer_2-2" data-name="Layer 2"><path class="cls-1" d="M21.18,157.61l-.23.19Z"/><path class="cls-1" d="M22.05,156.9c-.24.21-.49.4-.72.59C21.55,157.32,21.79,157.12,22.05,156.9Z"/><path class="cls-1" d="M23,156.17l-.91.73Z"/><path class="cls-1" d="M21.33,157.49l-.15.12Z"/><path class="cls-1" d="M25.19,154.36l-.24.19Z"/><path class="cls-1" d="M25,154.55l-1.7,1.38Z"/><path class="cls-1" d="M23.25,155.93l-.29.24Z"/><path class="cls-1" d="M20.32,158.31l-.33.27Z"/><path class="cls-1" d="M20,158.58Z"/><path class="cls-1" d="M21,157.8l-.46.38Z"/><path class="cls-1" d="M23.5,150.75l-2.56,2L17.53,150l1.71-5.6s-4.69,1.6-6,3.6-4.68-4.8-4.68-4.8l-2.81-3.59a3.66,3.66,0,0,0,0-3.2c-.85-1.6,2.81-10.8,2.81-10.8s-6.85,6.8-8.56,8c-.41.29,3.18-6.49,9.05-17-.69-2.19-1.11-3.46-1.35-4.16.37.57,1.13,1.75,2,3,.28-.52.58-1,.88-1.57a2.19,2.19,0,0,1-.32-1.09c.19-.41,1.34-3.88,2.84-3.36C19.85,86.6,39.51,54.38,59.54,34c-3.17-4.73-5.22-7.81-5.59-8.43-2.13-3.6,10.23,0,7.74-4.4-1.56-2.75,2.31-.65,6.79.82.9-1.1,1.76-2.11,2.57-3a16.67,16.67,0,0,1-2.6-1.38c-5.54-3.59.85-6.39,0-12.79-.77-5.82,8.37,5.88,10,8.05h.06L71.44,0s4.5,3.59,14.68,14a8.56,8.56,0,0,1,4.77,5.44c29.55,24.83,48.54,57.51,64.19,92.67,2.41-.17,5.64,1,9.44-.6,4.56-1.93-.45,5.17-3.51,9.16l.29.42,9-8.31s-1.62,3.55-6.56,11.8l4,5.79-15.44,19.28-1.88-6.9c-17.31,31.33-36.71,62.71-44.79,70.8-.35.35-3.52,3.35-3.52,3.35a9.84,9.84,0,0,0,1.89,5.24c1.17,1.62,1.4,3.9,2.45,5.77.94,1.7-5.37-1.93-4.34-.52,2.22,3.06,11.6,10.41,11.6,10.41L94.22,230l10.49,7.87-5.25-2.62,1,4.39s-6.42-1.25-10-3.09a37.32,37.32,0,0,1-9.17-6.84c-10.16-10.17-56-71.83-59.28-77.17m63.47,8c5.87-8.37,12.54-22.39,11.56-24,2.73-3,5.07-5.69,7-8.08a1.28,1.28,0,0,1-.15-.25c-2.55-8.51-11.67-21.56-19.7-30-6,9.94-17.21,29.06-9.23,14,9.71-18.29-4,6-6,9-1.54,2.3-3.06,4.54-4.54,6.66C68.08,134.68,66,131.13,85.54,160.56Z"/><path class="cls-1" d="M20.49,158.18l-.17.13Z"/><path class="cls-1" d="M7.73,112.45l-.23-.36S7.2,110.9,7.73,112.45Z"/></g></g></svg>